<?xml version="1.0" standalone="no"?>
<!DOCTYPE svg PUBLIC "-//W3C//DTD SVG 1.1//EN" "http://www.w3.org/Graphics/SVG/1.1/DTD/svg11.dtd" >
<svg>
<metadata>
Created by FontForge 20120731 at Thu Dec 31 10:52:59 2015
 By www-data
d 
</metadata>
<defs>
<font id="Aachen-Light" horiz-adv-x="457" >
  <font-face 
    font-family="Aachen-Light"
    font-weight="400"
    font-stretch="normal"
    units-per-em="1000"
    panose-1="0 0 0 0 0 0 0 0 0 0"
    ascent="800"
    descent="-200"
    x-height="479"
    cap-height="652"
    bbox="-12 -196 770 896"
    underline-thickness="50"
    underline-position="-55"
    unicode-range="U+0020-F002"
  />
<missing-glyph 
 />
    <glyph glyph-name=".notdef" 
 />
    <glyph glyph-name="glyph1" horiz-adv-x="0" 
 />
    <glyph glyph-name="glyph2" 
 />
    <glyph glyph-name="space" unicode=" " 
 />
    <glyph glyph-name="space" unicode="&#xa0;" 
 />
    <glyph glyph-name="exclam" unicode="!" horiz-adv-x="327" 
d="M71 79q0 40 27 61t62 21q37 0 63.5 -23.5t26.5 -58.5q0 -36 -24.5 -62t-65.5 -26q-40 0 -64.5 26t-24.5 62v0zM119 199l-60 345q0 3 -0.5 7t-0.5 8q-1 3 -1.5 7t-0.5 7v6t1 6q2 30 23.5 54.5t79.5 24.5q68 0 89 -27.5t21 -64.5q0 -3 -0.5 -6.5t-0.5 -7.5t-0.5 -7.5
t-0.5 -6.5l-59 -345h-90v0z" />
    <glyph glyph-name="quotedbl" unicode="&#x22;" horiz-adv-x="674" 
d="M107 353v240h-89v71h262v-71h-89v-240h-84v0zM316 353v311h125l54 -156l47 156h126v-311h-83v208l-72 -208h-42l-71 214v-214h-84v0z" />
    <glyph glyph-name="numbersign" unicode="#" 
 />
    <glyph glyph-name="dollar" unicode="$" horiz-adv-x="511" 
d="M25 73v167h185v-55q0 -19 12 -32t26 -16q2 -1 3.5 -1h3.5q14 0 26 14t12 43t-26 45.5t-57 26.5l-22 6t-21 5q-66 13 -110 55.5t-44 123.5q0 67 39 121.5t127 63.5v59h150v-59q6 -1 12 -2.5t13 -3.5q35 -10 68.5 -25t56.5 -34v-150h-192v36q0 26 -9 38.5t-19 13.5h-1.5
h-1.5q-3 0 -5.5 -0.5t-5.5 -2.5q-11 -4 -20 -16t-9 -27q3 -30 22.5 -45.5t42.5 -22.5q11 -3 22 -5.5t20 -3.5q86 -23 124.5 -60t42.5 -126v-20q0 -73 -36.5 -115.5t-124.5 -55.5v-65h-150v65q-16 2 -36.5 7t-41.5 12q-21 8 -41 18t-35 23v0z" />
    <glyph glyph-name="percent" unicode="%" horiz-adv-x="695" 
d="M434 79v161q0 44 38 66.5t87 22.5q54 0 92.5 -18.5t38.5 -76.5v-155q0 -42 -25 -60.5t-55 -23.5q-11 -2 -22.5 -3t-21.5 -1q-11 0 -26.5 1.5t-31.5 6.5q-26 7 -48.5 25.5t-25.5 54.5v0zM578 84v132q0 9 -1.5 16.5t-10.5 7.5q-10 0 -11.5 -7.5t-1.5 -16.5v-132v-3t1 -4
q0 -4 3 -7t9 -3q9 0 10.5 4.5t1.5 12.5v0zM164 1l240 657h131l-239 -657h-132v0zM4 484v97q0 44 38 66.5t87 22.5q54 0 93 -18.5t39 -76.5v-162q0 -43 -26 -62t-57 -24q-11 -2 -22 -3t-21 -1t-26 1.5t-33 6.5q-27 7 -49.5 25t-22.5 51v77v0zM147 425v131v2.5v3.5
q0 7 -2.5 13t-9.5 6t-9.5 -6t-2.5 -13v-3.5v-2.5v-131v-3v-4q1 -4 3.5 -7.5t8.5 -3.5q9 0 10.5 4.5t1.5 13.5v0z" />
    <glyph glyph-name="ampersand" unicode="&#x26;" horiz-adv-x="552" 
d="M105 347q-37 7 -56 32t-25 54q-3 11 -4 21t-1 20q0 3 0.5 5.5t0.5 5.5v2t1 2q0 4 0.5 7t0.5 6q8 79 71 116t138 41h7.5h7.5h8h9h1h1q5 -1 10 -1h9q17 -1 34.5 -3.5t34.5 -5.5q45 -9 86 -23t66 -33v-126h-203q0 26 -6.5 39.5t-28.5 13.5q-23 0 -31.5 -16t-9.5 -34
q-1 -4 -1 -7.5v-7.5q0 -29 15 -41t34 -14q2 -1 4.5 -1h4.5h4t4 1h1h1q3 0 5.5 0.5t3.5 0.5v30h203v-30h24v-125h-24v-275h-329q-82 0 -115.5 41t-41.5 91q-2 12 -2.5 23.5t-0.5 22.5q0 16 1.5 38t9.5 45q8 24 26 46.5t52 38.5v0zM302 138v138h-35q-27 0 -34.5 -22.5
t-7.5 -49.5q0 -5 0.5 -11t1.5 -13q3 -15 12 -28.5t28 -13.5h35v0z" />
    <glyph glyph-name="quotesingle" unicode="'" horiz-adv-x="268" 
d="M124 514q-34 0 -53.5 22t-20.5 48v1.5v1.5v4v4q3 23 22 43t52 20q44 0 66 -25.5t22 -60.5q0 -9 -1.5 -19t-4.5 -21l-4 -12t-5 -12l-2 -4t-3 -4q-14 -24 -35.5 -47t-49.5 -40l-36 30q9 9 17.5 18t16.5 18q7 8 12 17t7 18v0z" />
    <glyph glyph-name="parenleft" unicode="(" horiz-adv-x="369" 
d="M271 593q-40 -90 -61.5 -174.5t-21.5 -160.5v-9v-10q-1 -6 -1 -10.5v-9.5q0 -14 0.5 -27.5t2.5 -26.5q6 -59 26 -120t55 -131l-77 -61q-4 5 -7.5 8.5t-6.5 7.5q-20 21 -38.5 47t-34.5 53q-20 31 -35 62t-22 53q-9 31 -16 64t-10 67q-1 11 -1.5 22t-0.5 22t0.5 21.5
t1.5 21.5q4 40 15 79t29 74q5 10 9.5 19.5t9.5 19.5q21 39 47.5 78t59.5 74l77 -53v0z" />
    <glyph glyph-name="parenright" unicode=")" horiz-adv-x="369" 
d="M50 593l77 53l11.5 -11.5l10.5 -10.5q36 -39 59.5 -76.5t38.5 -68.5q28 -58 41.5 -112.5t13.5 -107.5q0 -47 -11 -97.5t-32 -106.5q-5 -17 -20.5 -47t-36.5 -63l-22 -32t-23 -31q-7 -9 -15 -18t-15 -16l-83 65q45 73 68.5 159.5t23.5 177.5q0 22 -1.5 44t-3.5 44
q-8 66 -28 130.5t-53 124.5v0z" />
    <glyph glyph-name="asterisk" unicode="*" horiz-adv-x="410" 
d="M22 496l30 79l107 -37l-6 114h90l-6 -114l113 37l31 -79l-114 -35l71 -91l-71 -53l-66 96l-66 -96l-71 53l65 91l-107 35v0z" />
    <glyph glyph-name="plus" unicode="+" 
 />
    <glyph glyph-name="comma" unicode="," horiz-adv-x="268" 
d="M119 1q-37 1 -57 24t-22 50v3.5v2.5v2.5v2.5q2 28 22.5 51.5t56.5 23.5q52 0 75 -27.5t26 -59.5q1 -4 1 -7.5v-7.5t-0.5 -8.5t-0.5 -8.5q-1 -11 -4 -22t-7 -19q-4 -5 -8.5 -11.5t-8.5 -13.5q-12 -16 -25.5 -31.5t-27.5 -28.5l-16 -14t-16 -12l-42 34q18 19 34 37.5
t20 39.5v0z" />
    <glyph glyph-name="hyphen" unicode="-" horiz-adv-x="268" 
d="M0 335h256v-156h-256v156v0z" />
    <glyph glyph-name="period" unicode="." horiz-adv-x="268" 
d="M36 79q0 40 26.5 64t61.5 24q36 0 63.5 -22t27.5 -66q0 -39 -23.5 -60.5t-51.5 -26.5q-4 0 -8 -0.5t-8 -0.5q-3 0 -7 0.5t-7 0.5q-28 5 -51 26t-23 61v0z" />
    <glyph glyph-name="slash" unicode="/" horiz-adv-x="469" 
d="M243 646h150l-229 -739l-23 -71h-148l232 757l18 53v0z" />
    <glyph glyph-name="zero" unicode="0" horiz-adv-x="532" 
d="M12 199v262q0 116 63 155.5t139 45.5q12 1 24 1.5t24 0.5q19 0 41.5 -1.5t45.5 -6.5q57 -12 104.5 -53t47.5 -136v-274q0 -114 -58.5 -153.5t-128.5 -46.5q-13 -1 -26 -1.5t-26 -0.5q-130 0 -190 52.5t-60 155.5v0zM298 199v268q0 26 -12 39.5t-30 13.5
q-25 0 -32.5 -12.5t-8.5 -26.5v-7.5v-6.5v-274q0 -28 7.5 -44.5t33.5 -16.5q27 0 34.5 17.5t7.5 49.5v0z" />
    <glyph glyph-name="one" unicode="1" horiz-adv-x="348" 
d="M40 652h227v-485q0 -4 0.5 -10.5t2.5 -13.5t7 -13t13 -10v-119h-250v119q15 8 19.5 18.5t4.5 21.5v3.5v3.5v317v7v7q-1 11 -5.5 21t-18.5 13v120v0z" />
    <glyph glyph-name="two" unicode="2" horiz-adv-x="552" 
d="M225 419h-197v168q44 38 111 53t140 15q10 0 20.5 -0.5t20.5 -0.5q4 0 7 -0.5t7 -0.5q7 0 14 -0.5t13 -0.5q75 -8 116.5 -66t42.5 -127v-1.5v-1.5q0 -6 -0.5 -12t-0.5 -12q-5 -41 -26 -80t-59 -65q-12 -8 -31 -18t-41 -20q-3 -1 -6 -2.5l-5 -2.5q-25 -12 -48 -22.5
t-36 -17.5q-22 -8 -35 -27t-13 -45q2 0 4.5 -0.5t4.5 -0.5t4.5 -0.5t4.5 -0.5q29 0 51.5 11.5t25.5 62.5h191v-203h-483v166q0 46 18.5 86t76.5 76q11 6 22 11.5t22 11.5q46 23 86.5 42t54.5 37q5 5 7.5 12t3.5 15q1 3 1 5.5v4.5v2.5v2.5q-2 18 -12.5 32.5t-28.5 14.5
q-23 0 -33 -12t-13 -27q-1 -5 -1.5 -10t-0.5 -10v-42v0z" />
    <glyph glyph-name="three" unicode="3" horiz-adv-x="532" 
d="M24 593q27 23 73 41t97 25q16 2 31.5 3.5t30.5 1.5q13 0 27 -0.5t28 -1.5q69 -7 127.5 -42.5t62.5 -129.5q0 -58 -15 -92t-68 -51q53 -27 69.5 -64t18.5 -77q1 -7 1 -13.5v-13.5q-1 -14 -3 -29t-7 -30q-14 -49 -63 -89t-172 -40q-16 0 -33.5 1.5t-34.5 4.5
q-49 6 -95 23.5t-75 40.5v179h191v-55q0 -26 11.5 -39t26.5 -13q2 0 5 0.5t6 1.5q1 0 2.5 0.5t2.5 0.5q1 1 2.5 1.5t2.5 0.5q14 7 21 23.5t7 35.5q0 4 -0.5 8t-0.5 7q-4 24 -21 44t-47 20h-79v125h61q49 0 66 17.5t17 42.5v18q-3 18 -13 28.5t-21 13.5q-3 1 -5.5 1.5
t-5.5 0.5q-14 0 -26 -12t-12 -32v-42h-191v156v0z" />
    <glyph glyph-name="four" unicode="4" horiz-adv-x="532" 
d="M0 311l227 341h232v-359h42v-137h-42q0 -4 1 -9.5t4 -11.5t7.5 -11t11.5 -10v-113h-262v107q17 9 26 22t9 26h-256v155v0zM256 293v132l-90 -132h90v0z" />
    <glyph glyph-name="five" unicode="5" horiz-adv-x="511" 
d="M13 293v359h460v-173h-192q0 26 -10.5 33.5t-60.5 7.5v-83q15 5 37.5 9t47.5 4q11 0 22 -1l22 -2q52 -8 96.5 -39.5t48.5 -96.5q0 -6 0.5 -11.5t1.5 -11.5q0 -8 0.5 -15.5t1.5 -15.5q0 -10 0.5 -20.5t0.5 -20.5q0 -86 -41.5 -155.5t-183.5 -69.5l-12 -1q-13 1 -27 2
t-27 3q-52 6 -100.5 25t-84.5 47v185h197v-59q0 -24 4.5 -42.5t31.5 -18.5q22 3 28.5 14.5t6.5 25.5v1v2v101q0 18 -10.5 28t-23.5 12q-2 1 -3.5 1h-3.5q-11 0 -20.5 -6.5t-9.5 -17.5h-197v0z" />
    <glyph glyph-name="six" unicode="6" horiz-adv-x="532" 
d="M18 204v263v10v11q4 62 44 115t177 61h19q20 0 42.5 -2.5t45.5 -7.5q42 -9 81 -24.5t62 -36.5v-144h-197v30q0 17 -6.5 29t-29.5 12t-29 -21t-6 -47v-51q15 10 37.5 16t46.5 8h6h6h5.5h5.5q11 -1 21.5 -2.5t19.5 -3.5q77 -17 104.5 -64.5t27.5 -132.5q0 -103 -39 -167
t-200 -64q-143 0 -194.5 56t-51.5 138v4t1 4v0.5v1.5q0 2 0.5 4.5t0.5 4.5v0zM298 179v67q0 23 -12 33.5t-27 10.5q-14 0 -26 -10.5t-12 -33.5v-67q0 -24 12 -36.5t26 -12.5q15 0 27 12.5t12 36.5v0z" />
    <glyph glyph-name="seven" unicode="7" horiz-adv-x="511" 
d="M19 652h471v-126l-197 -525h-220l197 519h-12.5t-13.5 -1q-19 -2 -35 -12.5t-16 -39.5v-77h-174v262v0z" />
    <glyph glyph-name="eight" unicode="8" horiz-adv-x="552" 
d="M117 341q-44 18 -63 52t-21 71v5.5v4.5v5t1 6v6v5q5 86 64.5 127t180.5 41q112 0 176 -44t68 -130v-16q0 -53 -23 -84.5t-51 -46.5l-1.5 -1.5t-1.5 -0.5q40 -17 59 -46t26 -60q2 -11 3 -21.5t1 -20.5v-15q0 -108 -67.5 -147.5t-188.5 -39.5q-100 0 -179 40t-79 150v2.5
t1 3.5v3.5v2.5q5 66 28 100.5t67 47.5v0zM320 210q0 32 -9.5 51.5t-31.5 19.5q-21 0 -29.5 -13t-11.5 -29q-1 -8 -1 -15.5v-13.5v-10v-10q1 -24 8.5 -44t33.5 -20t33.5 26t7.5 58v0zM320 467v6.5v7.5q-1 14 -8.5 26.5t-32.5 12.5q-26 0 -34 -17.5t-8 -38.5v-1.5v-1.5v-6v-5
q2 -21 10 -37.5t32 -16.5q22 0 31.5 15.5t9.5 55.5v0z" />
    <glyph glyph-name="nine" unicode="9" horiz-adv-x="532" 
d="M30 199h185q1 -4 1.5 -7.5t0.5 -6.5q4 -23 11 -38t34 -15q24 0 32.5 30t9.5 65v9.5v9.5q-4 -1 -8 -2.5t-8 -3.5q-18 -5 -42 -10t-50 -5q-3 0 -7 0.5t-8 1.5q-4 0 -8 0.5t-7 0.5q-71 9 -109.5 53t-38.5 120v78q0 90 56.5 140.5t181.5 50.5q113 0 179 -40.5t66 -174.5v-270
q0 -111 -69 -152.5t-164 -41.5q-81 0 -139.5 16.5t-98.5 47.5v144v0zM298 401v72q0 24 -12 36t-27 12q-14 0 -26 -12t-12 -36v-72q0 -24 12 -37t26 -13q15 0 27 13t12 37v0z" />
    <glyph glyph-name="colon" unicode=":" horiz-adv-x="268" 
d="M36 79q0 40 26.5 64t61.5 24q36 0 63.5 -22t27.5 -66q0 -39 -23.5 -60.5t-51.5 -26.5q-4 0 -8 -0.5t-8 -0.5q-3 0 -7 0.5t-7 0.5q-28 5 -51 26t-23 61v0zM36 353q0 41 26.5 65.5t61.5 24.5q36 0 63.5 -22.5t27.5 -67.5q0 -39 -23.5 -61t-51.5 -27q-4 0 -8 -0.5t-8 -0.5
q-3 0 -7 0.5t-7 0.5q-28 5 -51 26.5t-23 61.5v0z" />
    <glyph glyph-name="semicolon" unicode=";" horiz-adv-x="268" 
d="M119 1q-37 1 -57 24t-22 50v3.5v2.5v2.5v2.5q2 28 22.5 51.5t56.5 23.5q52 0 75 -27.5t26 -59.5q1 -4 1 -7.5v-7.5t-0.5 -8.5t-0.5 -8.5q-1 -11 -4 -22t-7 -19q-4 -5 -8.5 -11.5t-8.5 -13.5q-12 -16 -25.5 -31.5t-27.5 -28.5l-16 -14t-16 -12l-42 34q18 19 34 37.5
t20 39.5v0zM41 353q0 41 27 65.5t62 24.5q36 0 63.5 -22.5t27.5 -67.5q0 -39 -23.5 -61t-51.5 -27q-4 0 -8 -0.5t-8 -0.5t-8 0.5t-8 0.5q-27 5 -50 27t-23 61v0z" />
    <glyph glyph-name="less" unicode="&#x3c;" 
 />
    <glyph glyph-name="equal" unicode="=" 
 />
    <glyph glyph-name="greater" unicode="&#x3e;" 
 />
    <glyph glyph-name="question" unicode="?" horiz-adv-x="532" 
d="M142 79q0 35 24 58.5t61 23.5q35 0 62 -21t27 -61t-27 -64t-62 -24q-37 0 -61 24t-24 64v0zM24 593q4 3 8.5 5.5t8.5 5.5q44 26 94.5 43t132.5 17q18 0 37.5 -2t38.5 -7q56 -13 103 -51t54 -114v-16q0 -62 -23.5 -99t-52.5 -58q-6 -5 -12.5 -9.5t-12.5 -8.5l-0.5 -0.5
t-1.5 -0.5q-7 -4 -16.5 -8t-19.5 -9q-20 -10 -37 -27t-17 -48q0 -1 0.5 -2l0.5 -1q0 -1 0.5 -2t0.5 -2h-180v94q0 36 23 58t58 42q13 8 27.5 15.5t29.5 16.5q1 0 1.5 0.5t1.5 0.5q8 6 15 19t9 27v3.5v3.5v4t-1 3q-1 11 -7.5 20.5t-18.5 13.5h-2.5t-3.5 1h-0.5h-1.5h-2.5
h-2.5h-4t-4 -1q-12 -2 -22 -13t-10 -34v-48h-191v168v0z" />
    <glyph glyph-name="at" unicode="@" 
 />
    <glyph glyph-name="A" unicode="A" horiz-adv-x="552" 
d="M410 652l89 -473q5 -22 14 -39t22 -26v-113h-256v113q17 14 20 28t3 31h-101q0 -17 3 -31t21 -28v-113h-221v119l5.5 5.5t4.5 5.5q8 10 12 21.5t8 32.5l83 467h293v0zM279 299l-30 191l-30 -191h60v0z" />
    <glyph glyph-name="B" unicode="B" horiz-adv-x="594" 
d="M31 652h250q104 0 183.5 -22.5t79.5 -139.5q0 -58 -24.5 -99t-82.5 -50q65 -8 92 -52.5t27 -97.5v-18q-4 -70 -45.5 -121t-175.5 -51h-304v119q23 9 26.5 26t3.5 39v270v8.5v8.5q-1 18 -6.5 34t-23.5 20v126v0zM258 276v-138q44 0 63.5 11t19.5 48v19q-4 41 -21 50.5
t-43 9.5h-19v0zM258 514v-118q40 0 61.5 7t21.5 38v14q-4 40 -23.5 49.5t-59.5 9.5v0z" />
    <glyph glyph-name="C" unicode="C" horiz-adv-x="532" 
d="M298 413v71q0 18 -9 27.5t-20 11.5h-2.5h-2.5h-1.5h-1.5q-13 -1 -23.5 -13.5t-10.5 -36.5v-300q0 -19 10.5 -31.5t23.5 -14.5h1.5h1.5h2.5t2.5 1q11 2 20 13.5t9 31.5v103h203v-209q-21 -33 -82.5 -50t-131.5 -20h-12.5h-12.5q-103 0 -173.5 44t-70.5 152v268
q0 104 54.5 153.5t166.5 49.5q80 0 142 -15t120 -50v-186h-203v0z" />
    <glyph glyph-name="D" unicode="D" horiz-adv-x="552" 
d="M16 652h304q15 0 30.5 -1t31.5 -3q58 -8 105.5 -47t47.5 -140v-257v-13.5t-1 -13.5q-4 -66 -45 -121t-163 -55h-310v119q23 9 26.5 23t3.5 36v300q0 4 -0.5 9.5t-2.5 11.5q-3 11 -9 20t-18 12v120v0zM255 508v-370q2 0 4.5 -0.5t5.5 -0.5q2 -1 4.5 -1.5t4.5 -0.5
q20 0 36 13t16 45v268q0 31 -18 39t-53 8v0z" />
    <glyph glyph-name="E" unicode="E" horiz-adv-x="532" 
d="M24 652h489v-227h-192v42q0 22 -16.5 31.5t-37.5 9.5h-17v-118h132v-126h-132v-126h2.5t2.5 -1h1.5h1.5q2 0 4 -0.5t3 -0.5q30 0 43 15t13 34v49h192v-233h-489v119q11 5 14 15t3 21v328q0 18 -4 31.5t-13 22.5v114v0z" />
    <glyph glyph-name="F" unicode="F" horiz-adv-x="511" 
d="M25 652h477v-227h-179v42q0 29 -15 35.5t-33 8.5q-1 1 -1.5 1h-0.5q-4 0 -7.5 0.5t-7.5 1.5v-124h126v-126h-126v-85q0 -17 2.5 -31t15.5 -28v-119h-245v119q14 9 19 22.5t5 30.5v311q0 23 -8 33.5t-22 14.5v120v0z" />
    <glyph glyph-name="G" unicode="G" horiz-adv-x="532" 
d="M18 204v269q0 86 54.5 135.5t168.5 49.5h39q62 -4 114 -22t101 -49v-162h-197v42q0 26 -10.5 39.5t-23.5 14.5h-1.5h-1.5q-15 0 -27.5 -15.5t-12.5 -44.5v-282q0 -24 12 -37t26 -13h3.5t3.5 1q12 2 22 13.5t10 29.5v67h-30v124h227v-309q-15 -18 -56 -33t-87 -23
q-22 -4 -43.5 -6t-40.5 -2l-28 -1q-104 1 -163 45t-59 169v0z" />
    <glyph glyph-name="H" unicode="H" horiz-adv-x="594" 
d="M25 652h245v-114q-12 -12 -15 -26t-3 -29v-5.5v-4.5v-72h71v98q0 11 -3.5 20.5t-14.5 18.5v114h251v-114q-16 -16 -21 -31.5t-5 -30.5q0 -3 0.5 -6.5t0.5 -6.5v-2.5v-2.5q1 -2 1 -4.5v-4.5v-256q0 -24 3 -44.5t21 -34.5v-113h-251v113q9 6 12.5 14.5t4.5 17.5q1 6 1 11
v10v109h-71v-91q0 -22 2.5 -39.5t15.5 -31.5v-113h-245v113q11 9 16.5 20t6.5 23q1 5 1 9.5v8.5v292v13t-1 14q-2 12 -7 23.5t-16 20.5v114v0z" />
    <glyph glyph-name="I" unicode="I" horiz-adv-x="309" 
d="M21 652h256v-114q-15 -12 -19.5 -26t-4.5 -29v-5.5v-4.5v-288q0 -27 3 -39t11 -21q2 -3 4.5 -5.5l5.5 -5.5v-113h-256v113q15 12 19 25.5t4 27.5v325v6t-1 6q-1 10 -6 18.5t-16 15.5v114v0z" />
    <glyph glyph-name="J" unicode="J" horiz-adv-x="327" 
d="M53 652h245v-114q-3 -3 -5 -5.5t-4 -5.5q-7 -10 -8 -21.5t-1 -32.5v-304q0 -15 -1.5 -32.5t-6.5 -35.5q-6 -22 -19.5 -43.5t-37.5 -38.5q-18 -13 -47 -20t-60 -9q-6 -1 -12 -1h-12h-5.5h-5.5q-21 1 -41.5 4.5t-36.5 7.5l-1 119q3 0 5 -0.5t4 -0.5q2 -1 4 -1.5t3 -0.5
q28 0 41 17.5t17 38.5q2 7 2.5 13.5t0.5 12.5v288q0 15 -3.5 28.5t-14.5 22.5v114v0z" />
    <glyph glyph-name="K" unicode="K" horiz-adv-x="594" 
d="M31 652h245v-120q-9 -9 -12.5 -20.5t-4.5 -23.5q-1 -7 -1 -14v-13v-71l53 83q6 10 10.5 19t7.5 18t4.5 18.5t1.5 21.5v102h221v-120q-13 -5 -22.5 -15.5t-18.5 -24.5q-6 -9 -12 -20t-13 -23l-59 -96l89 -180l4 -8l4 -8q8 -15 17 -27.5t22 -15.5v-113h-232v83
q0 18 -4.5 36.5t-13.5 40.5l-59 115v-91v-11.5t1 -11.5q0 -14 4 -26.5t13 -21.5v-113h-245v113q16 5 20 25t4 42v274v10v10q-1 18 -5.5 34t-18.5 23v120v0z" />
    <glyph glyph-name="L" unicode="L" horiz-adv-x="532" 
d="M24 652h244v-120q-16 -6 -20.5 -21t-4.5 -32v-7t1 -8v-8v-7v-311q32 0 49 10t17 51v118h185v-316h-477v113q16 5 19.5 17.5t3.5 25.5v338q0 11 -3 21t-14 16v120v0z" />
    <glyph glyph-name="M" unicode="M" horiz-adv-x="715" 
d="M33 652h262l65 -251l67 251h250v-114q-2 -1 -3.5 -2.5t-3.5 -2.5q-13 -12 -15 -29t-2 -61v-250q0 -32 3 -48t21 -25v-119h-244v119q15 5 19 15t4 29v183l-90 -346h-59l-89 340v-148q0 -28 3 -46t20 -27v-119h-208v119q15 2 19 12.5t4 23.5v340q0 14 -4 25t-19 17v114v0z
" />
    <glyph glyph-name="N" unicode="N" horiz-adv-x="594" 
d="M31 652h221l112 -293v136v4.5v4.5q-1 9 -5 18t-12 16v114h209v-114q-18 -13 -21 -28t-3 -37v-472h-197l-125 292v-100q0 -24 3 -41t21 -26v-125h-203v119q14 8 18.5 19t5.5 23v3.5v3.5v321q0 14 -4 26.5t-20 21.5v114v0z" />
    <glyph glyph-name="O" unicode="O" horiz-adv-x="552" 
d="M28 199v268q0 99 60.5 148t190.5 49t184 -46.5t54 -144.5v-294q0 -93 -52 -140.5t-186 -47.5q-135 0 -193 52.5t-58 155.5v0zM314 193v274q0 26 -4.5 39.5t-30.5 13.5q-22 0 -32 -13.5t-10 -39.5v-274q0 -24 7.5 -42.5t34.5 -18.5q22 0 28.5 16.5t6.5 44.5v0z" />
    <glyph glyph-name="P" unicode="P" horiz-adv-x="552" 
d="M28 652h304q9 0 19 -0.5t19 -2.5q64 -8 117.5 -49.5t53.5 -126.5v-109q0 -88 -49 -133.5t-148 -45.5h-83v-6t-1 -6v-2v-3q0 -4 -0.5 -7.5t-0.5 -6.5q0 -12 4.5 -20.5t15.5 -13.5v-119h-251v119q15 5 19.5 17t4.5 25v2v2v318q0 14 -4 25.5t-20 16.5v126v0zM261 508v-185
h3.5t2.5 -1h2h1q3 0 5 -0.5t4 -0.5q23 0 38 12.5t15 42.5v73q0 35 -15.5 47t-55.5 12v0z" />
    <glyph glyph-name="Q" unicode="Q" horiz-adv-x="532" 
d="M18 185v264q0 108 56.5 158.5t181.5 50.5q126 0 188.5 -46t62.5 -145v-282q0 -15 -1.5 -30.5t-5.5 -31.5q-5 -16 -13 -31.5t-22 -30.5l42 -36l-66 -118q-49 18 -86 39.5t-63 44.5q-3 0 -7 -0.5t-8 -0.5h-2h-1q-4 -1 -7 -1h-6q-13 0 -27 1t-29 3q-30 3 -58.5 9.5
t-45.5 16.5q-31 18 -57 58.5t-26 107.5v0zM221 455v-256v-4v-4q0 -22 6.5 -40.5t34.5 -18.5q23 0 29.5 13.5t6.5 30.5v279q0 35 -9.5 47t-32.5 12q-21 0 -28 -17.5t-7 -38.5v-1.5v-1.5v0z" />
    <glyph glyph-name="R" unicode="R" horiz-adv-x="594" 
d="M25 652h298q17 0 42.5 -1.5t52.5 -9.5q45 -12 82.5 -48t37.5 -114q0 -82 -27.5 -112t-67.5 -44q53 -9 68 -37t15 -64v-49v-2.5v-2.5q0 -16 3.5 -31t20.5 -23v-113h-221q-4 12 -6.5 29.5t-3.5 35.5q-2 21 -2 40.5v31.5v61q0 30 -16 40.5t-34 15.5q-4 1 -7.5 1.5t-7.5 1.5
v-79v-11t1 -12q1 -14 5.5 -26.5t17.5 -15.5v-113h-251v113q18 14 21 32.5t3 46.5v291q0 14 -4 25.5t-20 16.5v126v0zM252 514v-130q2 0 3.5 -0.5t3.5 -0.5t4.5 -0.5t4.5 -0.5q4 0 9 0.5t10 0.5q16 3 29 14.5t13 39.5v12q-4 44 -20.5 54.5t-56.5 10.5v0z" />
    <glyph glyph-name="S" unicode="S" horiz-adv-x="552" 
d="M28 234h203v-41q0 -28 9.5 -42.5t26.5 -14.5q1 0 2.5 0.5t3.5 0.5t3.5 0.5t2.5 0.5q22 5 25.5 21t3.5 40q0 30 -32.5 46t-70.5 25q-10 3 -19 5l-18 4q-13 3 -24.5 6.5t-20.5 7.5q-67 27 -84 76.5t-17 103.5q0 86 54 135.5t165 49.5h20q75 0 131.5 -19.5t100.5 -45.5v-156
h-191v36q0 21 -9 32t-19 13q-2 1 -3.5 1h-3.5q-13 0 -23.5 -8t-12.5 -21v-2.5v-2.5v-0.5v-0.5q-1 -1 -1 -2.5v-2.5q0 -29 25 -43.5t55 -22.5q12 -3 24.5 -5.5l22.5 -4.5q3 0 5.5 -0.5t4.5 -1.5q83 -19 117.5 -71.5t34.5 -116.5q0 -14 -1.5 -30t-4.5 -32q-2 -7 -4 -15l-4 -16
q-20 -69 -72 -93.5t-111 -30.5q-16 -2 -32.5 -3t-32.5 -2h-0.5h-1.5q-17 0 -46.5 3.5t-62.5 10.5q-38 10 -72 25t-46 37v167v0z" />
    <glyph glyph-name="T" unicode="T" horiz-adv-x="594" 
d="M7 652h560v-293h-148v114v6.5t-1 7.5q-2 6 -8 12t-20 9v-323v-2v-1q0 -21 5.5 -39.5t17.5 -22.5v-119h-252v113q13 4 18 15.5t6 24.5v5.5v4.5v344q-17 0 -22.5 -9t-6.5 -20v-6v-6v-108h-149v293v0z" />
    <glyph glyph-name="U" unicode="U" horiz-adv-x="552" 
d="M16 652h251v-120q-17 -9 -20.5 -27.5t-3.5 -38.5v-3v-2v-251q0 -37 5 -57.5t36 -20.5q24 0 30 14t6 36v298v4v3q-1 15 -5.5 27.5t-18.5 17.5v120h245v-120q-22 -13 -26 -37.5t-4 -51.5v-244q0 -18 -1.5 -40t-8.5 -46q-10 -31 -32 -59.5t-65 -46.5q-18 -7 -43 -11.5
t-52 -5.5q-7 -1 -14.5 -1h-14.5h-6.5h-6.5q-34 1 -66.5 6t-53.5 12q-39 18 -61 41.5t-33 48.5q-9 22 -11.5 43t-2.5 38v4v5v2.5t1 2.5v7v5v273v8.5t-1 9.5q-2 10 -7 20.5t-16 16.5v120v0z" />
    <glyph glyph-name="V" unicode="V" horiz-adv-x="532" 
d="M0 652h256v-120q-12 -4 -16.5 -13.5t-5.5 -19.5v-2v-2v-2.5v-3.5q1 -4 1.5 -8t1.5 -8q0 -5 1 -10t1 -8l41 -251l36 251q0 3 0.5 8t1.5 10q1 4 1.5 8t0.5 8v3.5v2.5v2v2q-1 10 -5.5 19.5t-16.5 13.5v120h226v-120q-13 -13 -18.5 -31t-10.5 -40l-89 -460h-282l-88 436
q-4 35 -13 58.5t-23 36.5v120v0z" />
    <glyph glyph-name="W" unicode="W" horiz-adv-x="754" 
d="M-1 652h250v-114q-11 -6 -15 -17.5t-4 -25.5v-6.5t1 -7.5v-7.5v-6.5l24 -162l65 347h126l71 -347l24 174v2.5v2.5q0 16 -3.5 31t-20.5 23v114h221v-114q-12 -12 -18 -31t-11 -39q0 -2 -0.5 -3.5t-0.5 -3.5l-89 -460h-197l-55 310l-59 -310h-197l-77 460q-4 22 -13 40.5
t-21 36.5l-1 114v0z" />
    <glyph glyph-name="X" unicode="X" horiz-adv-x="532" 
d="M6 652h238v-71q0 -19 8.5 -40.5t21.5 -44.5q6 10 11.5 20t8.5 19q5 11 7.5 22t2.5 24v71h209v-114l-6.5 -6.5t-6.5 -7.5q-2 -1 -4 -3t-3 -4q-5 -6 -9.5 -11t-6.5 -10l-95 -149l95 -180q3 -5 6.5 -10t6.5 -11q6 -9 11.5 -17.5t11.5 -14.5v-113h-245v78q0 13 -2 26.5
t-7 26.5q-4 13 -10.5 26.5t-15.5 26.5q-12 -21 -20.5 -39t-11.5 -35q-2 -8 -3 -16t-1 -16v-78h-203v113q9 7 17 16.5t14 19.5q6 9 10 18.5t6 16.5l95 162l-77 120q-4 6 -9.5 15t-12.5 19q-3 4 -6.5 9t-6.5 10q-5 6 -9.5 10.5t-8.5 7.5v114v0z" />
    <glyph glyph-name="Y" unicode="Y" horiz-adv-x="532" 
d="M0 652h233v-91q0 -31 11 -58.5t24 -53.5q9 13 16 27.5t11 28.5q5 14 7 28.5t2 27.5v91h209v-114q-12 -12 -23 -26t-20 -29q-1 -3 -2.5 -5.5t-2.5 -4.5l-108 -221v-85q0 -22 5.5 -33t19.5 -20v-113h-252v113q6 5 10.5 9t6.5 9q5 7 6 15.5t1 19.5v79l-101 203q-4 7 -8 17.5
t-9 22.5q-7 17 -16 31.5t-20 17.5v114v0z" />
    <glyph glyph-name="Z" unicode="Z" horiz-adv-x="552" 
d="M22 652h495v-114l-256 -400q2 0 4.5 -0.5t5.5 -0.5q2 0 4.5 -0.5t4.5 -0.5q60 0 73.5 21t13.5 52v67h156v-275h-501v119l245 394q-40 0 -68.5 -9t-28.5 -44v-65h-148v256v0z" />
    <glyph glyph-name="bracketleft" unicode="[" horiz-adv-x="327" 
d="M18 658h280v-120h-101v-560h101v-119h-280v799v0z" />
    <glyph glyph-name="backslash" unicode="\" 
 />
    <glyph glyph-name="bracketright" unicode="]" horiz-adv-x="327" 
d="M18 658h280v-799h-280v119h101v560h-101v120v0z" />
    <glyph glyph-name="asciicircum" unicode="^" 
 />
    <glyph glyph-name="underscore" unicode="_" horiz-adv-x="389" 
d="M1 1h383v-160h-383v160v0z" />
    <glyph glyph-name="grave" unicode="`" horiz-adv-x="268" 
d="M191 640q-12 -11 -21.5 -23.5t-17.5 -25.5q-5 -8 -9 -15.5t-7 -14.5q32 0 52.5 -20.5t20.5 -56.5q0 -31 -23.5 -51t-55.5 -20q-43 2 -63.5 30t-20.5 62q0 7 1 14.5t2 15.5q3 11 7 21.5t9 18.5t12.5 18.5t16.5 20.5l14 16t15 15q8 8 16 14.5t15 10.5l37 -30v0z" />
    <glyph glyph-name="a" unicode="a" horiz-adv-x="490" 
d="M33 431q30 22 64.5 34.5t70.5 18.5q22 3 43.5 4.5t41.5 1.5q10 0 20 -0.5t21 -1.5q58 -8 107 -40t49 -101v-191q0 -18 5 -26.5t12 -14.5l3.5 -3.5l3.5 -3.5v-107h-197v36q-3 -2 -5.5 -3.5t-5.5 -3.5t-6.5 -4.5t-6.5 -5.5q-17 -11 -39.5 -20t-62.5 -9q-53 0 -95 30.5
t-47 110.5q0 50 28 81t62 46q9 4 17.5 6.5t16.5 4.5l132 41v24q0 14 -4 26.5t-20 14.5h-8q-17 0 -25 -18.5t-8 -46.5h-167v120v0zM265 144v55l-11 -2.5t-24 -8.5q-14 -6 -25 -15.5t-11 -22.5q0 -17 7.5 -24t16.5 -7q3 0 6.5 0.5t6.5 1.5q7 2 13 6t11 7q4 3 6.5 5.5t3.5 4.5
v0z" />
    <glyph glyph-name="b" unicode="b" horiz-adv-x="490" 
d="M9 652h209v-191q17 9 44 16t62 7h17q56 0 88.5 -31.5t32.5 -105.5v-197q0 -88 -54 -120.5t-118 -37.5q-8 0 -15.5 -0.5t-15.5 -0.5h-17t-17 1q-44 2 -90.5 14t-101.5 49v429q0 23 -5 36.5t-19 17.5v114v0zM218 264v-138q1 -1 2.5 -1.5t2.5 -0.5q8 -3 15.5 -5t11.5 -2
q17 0 25 15.5t8 46.5v126q0 25 -9.5 35.5t-21.5 10.5q-5 0 -12 -2t-15 -5q-2 0 -3.5 -1t-3.5 -2v-77v0z" />
    <glyph glyph-name="c" unicode="c" horiz-adv-x="469" 
d="M22 150v173q0 81 41 121t162 40h5.5h5.5q59 -1 114 -13t84 -46v-126h-167v30q0 18 -3.5 32.5t-26.5 14.5q-22 0 -29 -16t-7 -43v-150q0 -26 4 -45.5t26 -19.5q23 0 29.5 16.5t6.5 42.5v43h167v-149q-20 -20 -50.5 -33.5t-62.5 -21.5q-23 -4 -45 -6.5t-40 -2.5l-23 -1
q-7 1 -13.5 2t-13.5 1q-61 6 -112.5 35t-51.5 122v0z" />
    <glyph glyph-name="d" unicode="d" horiz-adv-x="490" 
d="M15 144v197q0 8 0.5 16.5t1.5 17.5q6 41 32.5 75t89.5 34h12q21 0 36 -1.5t28 -6.5q10 -3 20.5 -8t23.5 -13v29q0 23 -4.5 36.5t-13.5 17.5v114h198v-459q0 -32 3 -54t20 -31v-107h-203v18q-12 -12 -34.5 -18t-46.5 -8q-10 -1 -20 -1.5t-19 -0.5q-49 0 -87.5 30.5
t-38.5 105.5q0 2 0.5 4t0.5 5q0 2 0.5 4t0.5 4v0zM259 132v209q-3 1 -5.5 2t-5.5 2q-6 3 -12.5 4t-11.5 1q-13 0 -21.5 -11.5t-8.5 -39.5v-95q0 -40 8.5 -60t27.5 -20q4 0 9 1.5t11 3.5q2 1 4.5 1.5t4.5 1.5v0z" />
    <glyph glyph-name="e" unicode="e" horiz-adv-x="469" 
d="M16 150v179q0 99 56 130t159 31q80 0 144.5 -28t64.5 -109v-149h-244v-48q0 -26 9 -37.5t20 -11.5h2.5h2.5q9 2 17 10.5t8 20.5v41h185v-124q-3 -3 -6.5 -6t-7.5 -5q-26 -17 -71 -31t-95 -20q-10 -1 -20.5 -1.5t-20.5 -0.5q-99 4 -151 39t-52 120v0zM196 311h71
q0 32 -6.5 48.5t-29.5 16.5q-22 0 -28.5 -16.5t-6.5 -48.5v0z" />
    <glyph glyph-name="f" unicode="f" horiz-adv-x="289" 
d="M4 370v109h24v41q0 6 0.5 11.5t0.5 11.5q5 46 32 83.5t86 37.5q19 0 40 -0.5t43 -3.5q11 -1 22 -3t21 -5v-108q-27 0 -46.5 -12.5t-19.5 -52.5h54v-109h-54v-197q0 -26 3 -41t21 -24v-107h-227v107q17 8 20.5 23t3.5 31v2.5v2.5v203h-24v0z" />
    <glyph glyph-name="g" unicode="g" horiz-adv-x="511" 
d="M25 126v191q0 72 24 119.5t112 47.5h22t22 -2q18 -2 36 -9.5t35 -23.5v30h203v-109q-13 -8 -18.5 -21.5t-5.5 -31.5v-333q0 -115 -51 -145t-146 -34l-19 -1q-15 1 -31.5 2.5t-33.5 4.5q-42 8 -80.5 23t-56.5 32v112h173q0 -22 4 -37.5t26 -15.5q23 0 29.5 11t6.5 28v61
q-18 -13 -45 -23.5t-64 -10.5q-70 0 -106 36.5t-36 98.5v0zM276 132v215q-3 1 -6.5 2t-6.5 2q-5 2 -9.5 2.5t-7.5 0.5q-16 0 -26 -12t-10 -37v-106q0 -38 6.5 -56.5t26.5 -18.5q4 0 10 1.5t12 3.5q1 0 1.5 0.5t1.5 0.5q2 0 4 1t4 1v0z" />
    <glyph glyph-name="h" unicode="h" horiz-adv-x="532" 
d="M24 652h209v-185q13 10 36.5 16t50.5 6q8 0 16 -0.5t16 -1.5q47 -7 86 -36t39 -87v-185q0 -26 3 -43t21 -22v-113h-197q-9 62 -10.5 91.5t-1.5 51.5v161q0 23 -9 38.5t-27 15.5q-3 0 -7.5 -1t-9.5 -3q-1 0 -2.5 -0.5t-3.5 -1.5v-192v-7.5v-7.5q1 -11 4.5 -20t12.5 -12
v-113h-226v113q17 9 20 22.5t3 30.5v312v9.5t-1 11.5q-1 11 -6 20t-16 12v120v0z" />
    <glyph glyph-name="i" unicode="i" horiz-adv-x="268" 
d="M18 479h203v-312q0 -22 5 -37.5t18 -15.5v-113h-226v107q11 6 14.5 14t3.5 19v176q0 19 -3 27t-9 15q-2 1 -3 2.5t-3 2.5v115v0zM24 587q0 36 26.5 54.5t59.5 21.5q3 1 6.5 1h7.5h1.5h1.5q35 -1 64.5 -19.5t29.5 -57.5q0 -41 -31 -60t-71 -19t-67.5 23.5t-27.5 55.5v0z
" />
    <glyph glyph-name="j" unicode="j" horiz-adv-x="268" 
d="M24 479h203v-516q0 -7 -0.5 -15t-1.5 -16q-2 -25 -13.5 -49t-39.5 -41q-16 -9 -35 -14.5t-39 -7.5q-6 0 -12 -0.5t-12 -0.5h-6.5h-6.5q-19 1 -38 5.5t-34 12.5l-1 105h15q26 1 35 18.5t9 58.5v286q0 21 -4 36t-19 23v115v0zM30 593q0 31 27 51t67 20q41 0 70 -18t33 -53
v-11q0 -32 -28 -53t-75 -21q-49 0 -71.5 26.5t-22.5 58.5v0z" />
    <glyph glyph-name="k" unicode="k" horiz-adv-x="511" 
d="M13 652h209v-305q32 29 42 48t11 36q1 4 1 8.5v9.5v30h203v-103q-9 -3 -16.5 -9.5t-14.5 -13.5q-3 -3 -5.5 -6t-5.5 -6l-47 -65l59 -126q3 -9 9 -15.5t12 -11.5q4 -3 7.5 -5t6.5 -4v-113h-167l-95 209v-54q0 -13 5.5 -23t18.5 -19v-113h-233v113q18 9 21 23t3 36v306
q0 6 -0.5 14t-1.5 16q-2 11 -7 20.5t-15 14.5v108v0z" />
    <glyph glyph-name="l" unicode="l" horiz-adv-x="268" 
d="M18 652h203v-473q0 -26 3 -44t20 -27v-107h-226v107q10 5 15 14t6 19q2 7 2 14v12v312q0 22 -3 38.5t-20 20.5v114v0z" />
    <glyph glyph-name="m" unicode="m" horiz-adv-x="754" 
d="M16 479h203v-24q7 6 14 11t14 9q19 11 39 16t46 5q25 0 42 -3t33 -14q8 -5 16 -12.5t17 -17.5q1 1 2 1.5t2 1.5q26 17 55 30.5t73 13.5q62 0 99 -29.5t37 -102.5v-191q0 -26 5.5 -43t18.5 -22v-107h-197q-4 45 -5 77t-1 54v176q0 4 -0.5 8.5t-1.5 9.5q-2 12 -10 21.5
t-25 9.5q-6 0 -13 -1t-15 -3v-192q0 -17 5 -30.5t18 -22.5v-107h-197q-4 45 -5 77t-1 54v167v11.5t-2 12.5q-2 14 -9.5 25t-25.5 11q-5 0 -12.5 -2t-15.5 -4v-192q0 -22 5.5 -35t18.5 -18v-107h-227v107q18 14 21 28t3 31v132q0 23 -6 42t-24 23l6 115v0z" />
    <glyph glyph-name="n" unicode="n" horiz-adv-x="532" 
d="M18 479h209v-18q4 3 8 5t7 5q27 14 53.5 16.5t49.5 2.5q57 0 84.5 -21.5t37.5 -46.5q7 -17 8.5 -32.5t1.5 -25.5v-191q0 -26 5.5 -41t18.5 -24v-107h-203q-4 54 -5 88t-1 61v149v1.5v1.5q-1 19 -11.5 35.5t-28.5 16.5q-6 0 -12 -2t-13 -5v-180q0 -17 5 -30.5t18 -22.5
v-113h-232v113q16 8 19.5 23t3.5 31v2.5v2.5v144q0 18 -4.5 30.5t-18.5 16.5v115v0z" />
    <glyph glyph-name="o" unicode="o" horiz-adv-x="469" 
d="M10 167v168q0 86 47 120.5t168 34.5q122 0 168.5 -32.5t46.5 -122.5v-179q0 -103 -54 -131t-161 -28q-108 0 -161.5 32t-53.5 138v0zM261 156v185q0 20 -11 30.5t-25 10.5q-13 0 -24 -11.5t-11 -35.5v-179q0 -25 11 -37t24 -12q14 0 25 12t11 37v0z" />
    <glyph glyph-name="p" unicode="p" horiz-adv-x="511" 
d="M19 479h203v-24q23 14 51 24.5t68 10.5q63 0 97.5 -30.5t34.5 -89.5v-214q0 -14 -1 -31.5t-5 -35.5q-8 -31 -31.5 -58t-76.5 -34q-3 0 -7 -0.5t-8 -0.5q-2 0 -4.5 -0.5t-4.5 -0.5h-4h-4q-9 0 -18 1t-19 2q-19 2 -36.5 9t-31.5 18v-2v-1q0 -25 3.5 -47t20.5 -26v-119h-227
v118q17 9 20.5 24t3.5 30v2.5v2.5v298q0 27 -5 44t-19 21v109v0zM222 347v-215q11 -4 19 -6.5t15 -2.5q18 0 27.5 14t9.5 42v126q0 28 -10.5 39.5t-24.5 11.5q-5 0 -11.5 -1t-12.5 -3l-6 -2t-6 -3v0z" />
    <glyph glyph-name="q" unicode="q" horiz-adv-x="490" 
d="M15 138v226v5.5v5.5q3 43 31.5 79t104.5 36q10 0 21 -1t23 -3q20 -4 39 -11.5t31 -19.5v24h174v-489q0 -22 3 -32.5t20 -14.5v-113h-221v112q14 11 20 24.5t6 33.5q0 3 -0.5 7t-0.5 7q0 4 -0.5 8.5t-0.5 8.5q-2 -2 -5 -4.5t-7 -5.5q-16 -12 -42 -21t-60 -9q-11 0 -25 1.5
t-29 6.5q-31 10 -56.5 41t-25.5 98v0zM265 126v221q-3 1 -5.5 2.5t-5.5 2.5q-6 2 -12.5 3.5t-11.5 1.5q-17 0 -26.5 -12.5t-9.5 -33.5v-138q0 -25 13.5 -39.5t31.5 -14.5q4 0 9 1t10 3q2 0 3.5 1t3.5 2v0z" />
    <glyph glyph-name="r" unicode="r" horiz-adv-x="327" 
d="M12 479h197v-30q2 2 4 5t4 5q10 12 24 22.5t40 10.5h7.5h8.5q4 -1 7 -1t6 -1v-173q-3 1 -6.5 1.5t-6.5 0.5q-3 1 -6.5 1h-6.5q-28 0 -51.5 -16.5t-23.5 -45.5v-91q0 -26 8.5 -40t21.5 -19v-107h-227v107q18 14 21 28t3 31v150q0 18 -7.5 31.5t-16.5 21.5v109v0z" />
    <glyph glyph-name="s" unicode="s" horiz-adv-x="469" 
d="M22 185h174v-35q0 -21 10.5 -31.5t23.5 -11.5h1.5h1.5h2.5h2.5q11 2 20 10.5t9 21.5v11q-5 23 -34 34t-62 17q-6 1 -12 2.5t-12 2.5q-18 3 -34 6.5t-26 9.5q-38 16 -57.5 47.5t-20.5 66.5v2.5v2.5q0 4 0.5 8.5t0.5 8.5q4 35 24.5 67t52.5 48q21 9 49.5 15t59.5 7
q5 1 10 1h10h5.5h4.5q16 -1 31 -2.5t27 -3.5t32.5 -7t42.5 -14q19 -7 38 -18t31 -26v-114h-167v30q0 18 -10 27.5t-22 11.5q-2 1 -3.5 1h-3.5q-12 0 -22 -7.5t-10 -20.5q0 -22 14.5 -31.5t40.5 -16.5q5 -2 10.5 -3t11.5 -3h1.5h0.5q12 -3 25 -5t27 -6q39 -10 74 -34t45 -81
q0 -3 0.5 -7.5t0.5 -8.5v-9.5v-8.5q0 -79 -63 -111t-139 -33h-1.5h-1.5h-8h-8q-24 1 -47 4.5t-44 7.5q-9 1 -19.5 4.5t-20.5 7.5q-11 5 -22 10.5t-20 10.5q-9 6 -15.5 11.5t-9.5 9.5v124v0z" />
    <glyph glyph-name="t" unicode="t" horiz-adv-x="289" 
d="M-1 370v109h23v96l185 47v-143h60v-109h-60v-191q0 -31 12 -48t48 -17v-107q-9 -2 -19 -4t-20 -3q-24 -2 -46.5 -2.5t-34.5 -0.5q-58 0 -91.5 32.5t-33.5 90.5v250h-23v0z" />
    <glyph glyph-name="u" unicode="u" horiz-adv-x="511" 
d="M7 479h192q8 -9 12.5 -25.5t4.5 -34.5v-203q0 -39 6 -67t25 -28q4 0 10.5 2.5t13.5 6.5q1 0 2.5 0.5t2.5 1.5v197q0 17 -4.5 26.5t-15.5 17.5q-1 1 -2 1.5t-2 1.5v103h209v-312q0 -22 5 -36t18 -23v-107h-208v24q-2 -2 -5 -4t-8 -5q-14 -7 -39 -13t-57 -6
q-79 0 -107.5 35.5t-28.5 111.5v179q0 21 -4.5 32t-16.5 19l-1.5 1.5t-1.5 0.5v103v0z" />
    <glyph glyph-name="v" unicode="v" horiz-adv-x="469" 
d="M-1 479h220v-109q-7 -3 -11.5 -10t-4.5 -18q0 -12 4.5 -31t11.5 -47l18 -71l30 118q0 2 0.5 3.5t1.5 3.5q2 7 3.5 14t1.5 13q0 8 -4 14.5t-15 10.5v109h203v-109q-13 -4 -19 -16.5t-11 -30.5l-96 -322h-215l-89 310q-4 18 -10 34.5t-18 24.5l-1 109v0z" />
    <glyph glyph-name="w" unicode="w" horiz-adv-x="695" 
d="M-1 479h232v-109q-1 -2 -3 -4t-3 -4l-0.5 -0.5l-0.5 -0.5q-5 -4 -8 -9.5t-3 -15.5q0 -5 2 -14.5t4 -22.5l12 -59l65 239h120l65 -239l18 65q4 12 6 22.5t2 17.5q0 11 -4.5 17t-15.5 8v109h197v-115q-6 -3 -11 -8t-10 -13q-8 -16 -17.5 -49t-26.5 -95l-53 -198h-179
l-43 178l-54 -178h-173l-71 269q-9 44 -19.5 68t-26.5 32l-1 109v0z" />
    <glyph glyph-name="x" unicode="x" horiz-adv-x="469" 
d="M4 479h209v-36v-3.5v-3.5q0 -16 4 -33t20 -39q20 22 25 39t5 33v3.5v3.5v36h185v-109q-4 -3 -9 -6.5t-9 -7.5q-6 -4 -11.5 -9.5t-9.5 -11.5q-4 -4 -7.5 -9t-6.5 -9l-61 -71l66 -90q7 -9 12.5 -17t11.5 -14t11.5 -10.5t12.5 -6.5v-107h-209v36q0 18 -2.5 32t-10.5 27
q-4 7 -9.5 14.5t-13.5 15.5q-6 -7 -10 -13t-8 -11q-7 -14 -10 -30t-3 -41v-30h-172v107q14 5 29 22t37 43l53 73l-42 53q-22 32 -40.5 46.5t-36.5 18.5v115v0z" />
    <glyph glyph-name="y" unicode="y" horiz-adv-x="469" 
d="M-1 479h238v-109q-8 -1 -12.5 -6.5t-6.5 -11.5v-2.5v-2.5q0 -7 2 -16t5 -18l2 -8t2 -7t1.5 -5.5t0.5 -5.5l24 -77l18 77q0 3 0.5 5.5t1.5 5.5t1.5 6.5t1.5 6.5q2 10 4 19t2 17v2.5v2.5q-1 6 -5 11.5t-12 6.5v109h203v-109q-13 -10 -20.5 -28t-13.5 -39v-2t-1 -1
q-1 -6 -3 -12l-4 -12l-96 -298q-6 -19 -11.5 -34.5t-10.5 -28.5q-14 -33 -30.5 -49.5t-48.5 -28.5q-10 -4 -23 -6.5t-27 -3.5q-5 -1 -10 -1h-10h-6h-5q-22 1 -41.5 6t-32.5 10v106q35 1 51 16t20 33l-89 249q-8 23 -13.5 41.5t-11.5 33.5q-6 18 -14 30t-19 19l-1 109v0z" />
    <glyph glyph-name="z" unicode="z" horiz-adv-x="469" 
d="M10 479h436v-109l-209 -256h3.5h3.5h6h7q4 -1 8.5 -1h7.5q17 0 26 8t9 35v29h138v-184h-436v113l203 250h-4.5h-5.5h-1h-1q-3 -1 -6 -1h-5h-14q-13 0 -21 -5.5t-8 -28.5v-30h-137v180v0z" />
    <glyph glyph-name="braceleft" unicode="{" horiz-adv-x="327" 
d="M24 252q29 7 43 23t19 34q1 6 2 13t1 13v191q0 76 41.5 98.5t124.5 22.5h15h17q3 -1 5.5 -1h5.5h12h11q-35 -13 -50 -46.5t-15 -79.5v-167q0 -58 -20 -77t-52 -24q32 -9 52 -32t20 -82v-202q0 -6 2 -14.5t7 -16.5q7 -14 20.5 -26.5t35.5 -18.5l-60 -1q-89 1 -130.5 21
t-41.5 81v206q0 36 -13.5 51.5t-37.5 27.5q-3 1 -6.5 2.5t-7.5 3.5v0z" />
    <glyph glyph-name="bar" unicode="|" 
 />
    <glyph glyph-name="braceright" unicode="}" horiz-adv-x="327" 
d="M124 252q-1 0 -1.5 0.5t-1.5 0.5q-25 9 -46.5 34t-21.5 77v196q0 6 -0.5 11.5t-1.5 11.5q-3 17 -15 34t-41 29q13 3 30.5 4t35.5 2h23.5h22.5q65 -8 89.5 -31t24.5 -61v-201q0 -51 16.5 -72t37.5 -30l5 -2.5t6 -2.5q-35 -13 -50 -32.5t-15 -69.5v-172q0 -43 -10 -65.5
t-51 -40.5q-13 -7 -32 -9.5t-42 -2.5q-11 0 -22.5 0.5t-23.5 1.5t-23.5 2t-21.5 2q26 4 42 33.5t16 73.5v159q0 54 18 82.5t53 37.5v0z" />
    <glyph glyph-name="asciitilde" unicode="~" 
 />
    <glyph glyph-name="Adieresis" unicode="&#xc4;" horiz-adv-x="552" 
d="M410 652l89 -473q5 -22 14 -39t22 -26v-113h-256v113q17 14 20 28t3 31h-101q0 -17 3 -31t21 -28v-113h-221v119l5.5 5.5t4.5 5.5q8 10 12 21.5t8 32.5l83 467h293v0zM279 299l-30 191l-30 -191h60v0zM296 778q0 26 16 40t34 18q4 0 7.5 0.5t7.5 0.5h4h4
q22 -2 40.5 -16.5t18.5 -42.5q0 -36 -20 -54.5t-44 -18.5h-4t-4 1q-22 3 -40 21t-20 51v0zM129 778q0 1 -0.5 2t-0.5 2t-0.5 2l-0.5 1q0 22 16 35t36 16q3 1 5.5 1h5.5h10q23 0 42 -15.5t19 -43.5q0 -30 -18 -48.5t-40 -21.5q-3 -1 -5.5 -1h-4.5q-24 0 -44 18.5t-20 52.5v0z
" />
    <glyph glyph-name="Aring" unicode="&#xc5;" horiz-adv-x="552" 
d="M410 652l89 -473q5 -22 14 -39t22 -26v-113h-256v113q17 14 20 28t3 31h-101q0 -17 3 -31t21 -28v-113h-221v119l5.5 5.5t4.5 5.5q8 10 12 21.5t8 32.5l83 467h293v0zM279 299l-30 191l-30 -191h60v0zM190 813q0 41 29.5 62t64.5 21h7.5t6.5 -1q29 -3 53.5 -21.5
t29.5 -54.5v-7q0 -47 -29.5 -72t-64.5 -26h-1.5h-1.5q-35 0 -64.5 26t-29.5 73v0zM255 807q0 -13 8 -21t21 -8q2 0 4.5 0.5t5.5 1.5q7 3 13.5 10t6.5 17q0 14 -9.5 20.5t-20.5 6.5h-1.5h-1.5q-10 -1 -18 -7.5t-8 -19.5v0z" />
    <glyph glyph-name="Ccedilla" unicode="&#xc7;" horiz-adv-x="532" 
d="M227 167q0 -24 11 -36t24 -12q14 0 25 12t11 36v103h203v-209q-21 -33 -82.5 -52.5t-131.5 -22.5q-6 -1 -12.5 -1h-12.5v-19h24q14 1 19 -9t5 -32v-60q0 -21 -10.5 -33.5t-37.5 -12.5l-77 -1v65h54v47h-18q-9 1 -13.5 4.5t-4.5 26.5v29q-93 5 -134.5 55.5t-48.5 111.5
q-1 7 -1.5 14t-0.5 14v270q0 104 54.5 153.5t166.5 49.5q80 0 142 -15t120 -50v-180h-203v66q0 21 -9.5 33t-20.5 14h-1.5h-1.5h-2.5t-2.5 -1q-12 -3 -22.5 -21.5t-10.5 -54.5v-282v0z" />
    <glyph glyph-name="Eacute" unicode="&#xc9;" horiz-adv-x="532" 
d="M24 652h489v-227h-192v42q0 22 -16.5 31.5t-37.5 9.5h-17v-118h132v-126h-132v-126h2.5t2.5 -1h1.5h1.5q2 0 4 -0.5t3 -0.5q30 0 43 15t13 34v49h192v-233h-489v119q11 5 14 15t3 21v328q0 18 -4 31.5t-13 22.5v114v0zM215 705l41 114h126l-78 -114h-89v0z" />
    <glyph glyph-name="Ntilde" unicode="&#xd1;" horiz-adv-x="594" 
d="M31 652h221l112 -293v136v4.5v4.5q-1 9 -5 18t-12 16v114h209v-114q-18 -13 -21 -28t-3 -37v-472h-197l-125 292v-100q0 -24 3 -41t21 -26v-125h-203v119q14 8 18.5 19t5.5 23v3.5v3.5v321q0 14 -4 26.5t-20 21.5v114v0zM222 711h-72q3 38 22.5 60.5t41.5 32.5q10 5 20 7
t18 2q9 0 20.5 -2.5t24.5 -5.5q1 -1 2 -1t3 -1q11 -3 22 -5t20 -2h3.5h2.5q6 1 12 4t8 7h67q0 -4 -0.5 -9t-1.5 -9q-6 -32 -31 -58t-57 -26q-4 0 -8.5 0.5t-9.5 0.5q-9 2 -18.5 4t-18.5 5q-14 3 -25.5 6t-20.5 3q-7 0 -13.5 -2.5t-10.5 -10.5v0z" />
    <glyph glyph-name="Odieresis" unicode="&#xd6;" horiz-adv-x="552" 
d="M28 199v268q0 99 60.5 148t190.5 49t184 -46.5t54 -144.5v-294q0 -93 -52 -140.5t-186 -47.5q-135 0 -193 52.5t-58 155.5v0zM314 193v274q0 26 -4.5 39.5t-30.5 13.5q-22 0 -32 -13.5t-10 -39.5v-274q0 -24 7.5 -42.5t34.5 -18.5q22 0 28.5 16.5t6.5 44.5v0zM302 766
q0 26 16 40t34 18q4 0 7.5 0.5t7.5 0.5h4h4q22 -2 40.5 -16.5t18.5 -42.5q0 -33 -18.5 -52t-40.5 -21h-2.5h-2.5h-4t-4 1q-22 3 -40 21.5t-20 50.5v0zM135 766q0 1 -0.5 2t-0.5 2t-0.5 2l-0.5 1q0 22 16 35t36 16q3 1 5.5 1h5.5h10q23 0 42 -15.5t19 -43.5q0 -30 -18 -48.5
t-40 -21.5q-3 -1 -5.5 -1h-4.5q-24 0 -44 18.5t-20 52.5v0z" />
    <glyph glyph-name="Udieresis" unicode="&#xdc;" horiz-adv-x="552" 
d="M16 652h251v-120q-17 -9 -20.5 -27.5t-3.5 -38.5v-3v-2v-251q0 -37 5 -57.5t36 -20.5q24 0 30 14t6 36v298v4v3q-1 15 -5.5 27.5t-18.5 17.5v120h245v-120q-22 -13 -26 -37.5t-4 -51.5v-244q0 -18 -1.5 -40t-8.5 -46q-10 -31 -32 -59.5t-65 -46.5q-18 -7 -43 -11.5
t-52 -5.5q-7 -1 -14.5 -1h-14.5h-6.5h-6.5q-34 1 -66.5 6t-53.5 12q-39 18 -61 41.5t-33 48.5q-9 22 -11.5 43t-2.5 38v4v5v2.5t1 2.5v7v5v273v8.5t-1 9.5q-2 10 -7 20.5t-16 16.5v120v0zM314 772q0 27 17.5 41t38.5 17q2 1 5 1h6q4 0 7.5 -0.5t7.5 -0.5q18 -4 34 -18
t16 -40q0 -34 -18.5 -52.5t-40.5 -20.5h-2.5h-2.5h-4t-4 1q-22 3 -40 21t-20 51v0zM147 772q0 1 -0.5 2t-0.5 2t-0.5 2l-0.5 1q0 22 15.5 34.5t33.5 16.5q3 0 6.5 0.5t6.5 0.5h11q23 0 42 -15.5t19 -43.5q0 -31 -19 -49.5t-42 -21.5h-4h-4h-1.5h-1.5q-22 1 -41 19.5
t-19 51.5v0z" />
    <glyph glyph-name="aacute" unicode="&#xe1;" horiz-adv-x="490" 
d="M33 431q30 22 64.5 34.5t70.5 18.5q22 3 43.5 4.5t41.5 1.5q10 0 20 -0.5t21 -1.5q58 -8 107 -40t49 -101v-191q0 -18 5 -26.5t12 -14.5l3.5 -3.5l3.5 -3.5v-107h-197v36q-3 -2 -5.5 -3.5t-5.5 -3.5t-6.5 -4.5t-6.5 -5.5q-17 -11 -39.5 -20t-62.5 -9q-53 0 -95 30.5
t-47 110.5q0 50 28 81t62 46q9 4 17.5 6.5t16.5 4.5l132 41v24q0 14 -4 26.5t-20 14.5h-8q-17 0 -25 -18.5t-8 -46.5h-167v120v0zM265 144v55l-11 -2.5t-24 -8.5q-14 -6 -25 -15.5t-11 -22.5q0 -17 7.5 -24t16.5 -7q3 0 6.5 0.5t6.5 1.5q7 2 13 6t11 7q4 3 6.5 5.5t3.5 4.5
v0zM175 538l43 114h124l-77 -114h-90v0z" />
    <glyph glyph-name="agrave" unicode="&#xe0;" horiz-adv-x="490" 
d="M33 431q30 22 64.5 34.5t70.5 18.5q22 3 43.5 4.5t41.5 1.5q10 0 20 -0.5t21 -1.5q58 -8 107 -40t49 -101v-191q0 -18 5 -26.5t12 -14.5l3.5 -3.5l3.5 -3.5v-107h-197v36q-3 -2 -5.5 -3.5t-5.5 -3.5t-6.5 -4.5t-6.5 -5.5q-17 -11 -39.5 -20t-62.5 -9q-53 0 -95 30.5
t-47 110.5q0 50 28 81t62 46q9 4 17.5 6.5t16.5 4.5l132 41v24q0 14 -4 26.5t-20 14.5h-8q-17 0 -25 -18.5t-8 -46.5h-167v120v0zM265 144v55l-11 -2.5t-24 -8.5q-14 -6 -25 -15.5t-11 -22.5q0 -17 7.5 -24t16.5 -7q3 0 6.5 0.5t6.5 1.5q7 2 13 6t11 7q4 3 6.5 5.5t3.5 4.5
v0zM163 664h132l41 -126h-89l-84 126v0z" />
    <glyph glyph-name="acircumflex" unicode="&#xe2;" horiz-adv-x="490" 
d="M33 431q30 22 64.5 34.5t70.5 18.5q22 3 43.5 4.5t41.5 1.5q10 0 20 -0.5t21 -1.5q58 -8 107 -40t49 -101v-191q0 -18 5 -26.5t12 -14.5l3.5 -3.5l3.5 -3.5v-107h-197v36q-3 -2 -5.5 -3.5t-5.5 -3.5t-6.5 -4.5t-6.5 -5.5q-17 -11 -39.5 -20t-62.5 -9q-53 0 -95 30.5
t-47 110.5q0 50 28 81t62 46q9 4 17.5 6.5t16.5 4.5l132 41v24q0 14 -4 26.5t-20 14.5h-8q-17 0 -25 -18.5t-8 -46.5h-167v120v0zM265 144v55l-11 -2.5t-24 -8.5q-14 -6 -25 -15.5t-11 -22.5q0 -17 7.5 -24t16.5 -7q3 0 6.5 0.5t6.5 1.5q7 2 13 6t11 7q4 3 6.5 5.5t3.5 4.5
v0zM236 587l-30 -49h-108l90 126h89l89 -126h-101l-29 49v0z" />
    <glyph glyph-name="adieresis" unicode="&#xe4;" horiz-adv-x="490" 
d="M33 431q30 22 64.5 34.5t70.5 18.5q22 3 43.5 4.5t41.5 1.5q10 0 20 -0.5t21 -1.5q58 -8 107 -40t49 -101v-191q0 -18 5 -26.5t12 -14.5l3.5 -3.5l3.5 -3.5v-107h-197v36q-3 -2 -5.5 -3.5t-5.5 -3.5t-6.5 -4.5t-6.5 -5.5q-17 -11 -39.5 -20t-62.5 -9q-53 0 -95 30.5
t-47 110.5q0 50 28 81t62 46q9 4 17.5 6.5t16.5 4.5l132 41v24q0 14 -4 26.5t-20 14.5h-8q-17 0 -25 -18.5t-8 -46.5h-167v120v0zM265 144v55l-11 -2.5t-24 -8.5q-14 -6 -25 -15.5t-11 -22.5q0 -17 7.5 -24t16.5 -7q3 0 6.5 0.5t6.5 1.5q7 2 13 6t11 7q4 3 6.5 5.5t3.5 4.5
v0zM259 610q0 26 16 40.5t34 18.5q4 0 7.5 0.5t7.5 0.5t7.5 -0.5t7.5 -0.5q19 -4 35.5 -18.5t16.5 -40.5q0 -35 -20 -53.5t-44 -18.5h-4t-4 1q-22 3 -40 21t-20 50v0zM92 610v2t-1 1v1.5v0.5q0 2 -0.5 3l-0.5 1q0 21 14.5 33.5t32.5 16.5q3 0 7 0.5t7 0.5h10q25 0 44 -16
t19 -44q0 -30 -18 -48.5t-40 -21.5q-3 -1 -5.5 -1h-4.5q-24 0 -44 18.5t-20 52.5v0z" />
    <glyph glyph-name="atilde" unicode="&#xe3;" horiz-adv-x="490" 
d="M33 431q30 22 64.5 34.5t70.5 18.5q22 3 43.5 4.5t41.5 1.5q10 0 20 -0.5t21 -1.5q58 -8 107 -40t49 -101v-191q0 -18 5 -26.5t12 -14.5l3.5 -3.5l3.5 -3.5v-107h-197v36q-3 -2 -5.5 -3.5t-5.5 -3.5t-6.5 -4.5t-6.5 -5.5q-17 -11 -39.5 -20t-62.5 -9q-53 0 -95 30.5
t-47 110.5q0 50 28 81t62 46q9 4 17.5 6.5t16.5 4.5l132 41v24q0 14 -4 26.5t-20 14.5h-8q-17 0 -25 -18.5t-8 -46.5h-167v120v0zM265 144v55l-11 -2.5t-24 -8.5q-14 -6 -25 -15.5t-11 -22.5q0 -17 7.5 -24t16.5 -7q3 0 6.5 0.5t6.5 1.5q7 2 13 6t11 7q4 3 6.5 5.5t3.5 4.5
v0zM175 556h-71q3 38 23 61t43 33q9 4 18.5 6t17.5 2q9 0 20.5 -3t24.5 -6q1 0 2 -0.5t3 -0.5q11 -3 22 -5.5t20 -2.5h3.5h2.5q6 1 12 4t8 8h67q0 -4 -0.5 -7.5t-0.5 -7.5q-6 -32 -31.5 -59.5t-57.5 -27.5h-6.5t-7.5 1q-10 1 -20.5 3.5t-20.5 5.5q-13 4 -25 7t-21 3h-2h-2
q-6 -1 -12 -4t-9 -10v0z" />
    <glyph glyph-name="aring" unicode="&#xe5;" horiz-adv-x="490" 
d="M33 431q30 22 64.5 34.5t70.5 18.5q22 3 43.5 4.5t41.5 1.5q10 0 20 -0.5t21 -1.5q58 -8 107 -40t49 -101v-191q0 -18 5 -26.5t12 -14.5l3.5 -3.5l3.5 -3.5v-107h-197v36q-3 -2 -5.5 -3.5t-5.5 -3.5t-6.5 -4.5t-6.5 -5.5q-17 -11 -39.5 -20t-62.5 -9q-53 0 -95 30.5
t-47 110.5q0 50 28 81t62 46q9 4 17.5 6.5t16.5 4.5l132 41v24q0 14 -4 26.5t-20 14.5h-8q-17 0 -25 -18.5t-8 -46.5h-167v120v0zM265 144v55l-11 -2.5t-24 -8.5q-14 -6 -25 -15.5t-11 -22.5q0 -17 7.5 -24t16.5 -7q3 0 6.5 0.5t6.5 1.5q7 2 13 6t11 7q4 3 6.5 5.5t3.5 4.5
v0zM151 640q0 38 28.5 59.5t61.5 23.5h3.5h2.5h6.5t7.5 -1q28 -3 52.5 -22t28.5 -54v-7q0 -46 -28.5 -71t-61.5 -27h-3.5h-2.5h-1.5h-1.5q-34 1 -63 26.5t-29 72.5v0zM218 634q0 -13 8 -21.5t21 -8.5q2 0 4.5 0.5t5.5 1.5q7 3 13.5 10.5t6.5 17.5q0 14 -9.5 20.5t-20.5 6.5
h-1.5h-1.5q-10 -1 -18 -7.5t-8 -19.5v0z" />
    <glyph glyph-name="ccedilla" unicode="&#xe7;" horiz-adv-x="469" 
d="M22 150v173q0 81 41 121t162 40q62 0 113.5 -11.5t95.5 -47.5v-126h-167v30q0 18 -3.5 32.5t-26.5 14.5q-22 0 -29 -16t-7 -43v-150q0 -26 4 -45.5t26 -19.5q23 0 29.5 16.5t6.5 42.5v43h167v-149q-22 -22 -50.5 -35t-58.5 -20q-25 -5 -49.5 -7t-44.5 -2v-19h18
q14 1 19 -8t5 -27v-72q0 -27 -11.5 -33.5t-28.5 -6.5l-80 -1v65h54v41q-2 1 -3.5 1h-3.5q-11 0 -20.5 4t-9.5 20v41q-4 2 -8 2.5t-7 1.5q-50 8 -91.5 37.5t-41.5 112.5v0z" />
    <glyph glyph-name="eacute" unicode="&#xe9;" horiz-adv-x="469" 
d="M16 150v179q0 99 56 130t159 31q80 0 144.5 -28t64.5 -109v-149h-244v-48q0 -26 9 -37.5t20 -11.5h2.5h2.5q9 2 17 10.5t8 20.5v41h185v-124q-3 -3 -6.5 -6t-7.5 -5q-26 -17 -71 -31t-95 -20q-10 -1 -20.5 -1.5t-20.5 -0.5q-99 4 -151 39t-52 120v0zM196 311h71
q0 32 -6.5 48.5t-29.5 16.5q-22 0 -28.5 -16.5t-6.5 -48.5v0zM164 538l43 114h125l-77 -114h-91v0z" />
    <glyph glyph-name="egrave" unicode="&#xe8;" horiz-adv-x="469" 
d="M16 150v179q0 99 56 130t159 31q80 0 144.5 -28t64.5 -109v-149h-244v-48q0 -26 9 -37.5t20 -11.5h2.5h2.5q9 2 17 10.5t8 20.5v41h185v-124q-3 -3 -6.5 -6t-7.5 -5q-26 -17 -71 -31t-95 -20q-10 -1 -20.5 -1.5t-20.5 -0.5q-99 4 -151 39t-52 120v0zM196 311h71
q0 32 -6.5 48.5t-29.5 16.5q-22 0 -28.5 -16.5t-6.5 -48.5v0zM141 658h132l41 -126h-89l-84 126v0z" />
    <glyph glyph-name="ecircumflex" unicode="&#xea;" horiz-adv-x="469" 
d="M16 150v179q0 99 56 130t159 31q80 0 144.5 -28t64.5 -109v-149h-244v-48q0 -26 9 -37.5t20 -11.5h2.5h2.5q9 2 17 10.5t8 20.5v41h185v-124q-3 -3 -6.5 -6t-7.5 -5q-26 -17 -71 -31t-95 -20q-10 -1 -20.5 -1.5t-20.5 -0.5q-99 4 -151 39t-52 120v0zM196 311h71
q0 32 -6.5 48.5t-29.5 16.5q-22 0 -28.5 -16.5t-6.5 -48.5v0zM231 587l-30 -49h-108l91 126h89l88 -126h-100l-30 49v0z" />
    <glyph glyph-name="edieresis" unicode="&#xeb;" horiz-adv-x="469" 
d="M16 150v179q0 99 56 130t159 31q80 0 144.5 -28t64.5 -109v-149h-244v-48q0 -26 9 -37.5t20 -11.5h2.5h2.5q9 2 17 10.5t8 20.5v41h185v-124q-3 -3 -6.5 -6t-7.5 -5q-26 -17 -71 -31t-95 -20q-10 -1 -20.5 -1.5t-20.5 -0.5q-99 4 -151 39t-52 120v0zM196 311h71
q0 32 -6.5 48.5t-29.5 16.5q-22 0 -28.5 -16.5t-6.5 -48.5v0zM255 610q0 28 16.5 42t37.5 17q2 1 5 1h6q4 0 7.5 -0.5t7.5 -0.5q19 -4 35.5 -18.5t16.5 -40.5q0 -33 -18.5 -51.5t-40.5 -20.5h-2.5h-2.5h-4t-4 1q-22 3 -40 21t-20 50v0zM87 610v2v1v1.5v0.5q-1 2 -1 3v1
q0 21 14.5 33.5t32.5 16.5q3 0 7 0.5t7 0.5h10q25 0 43.5 -16t18.5 -44q0 -31 -19.5 -50t-43.5 -21h-2.5h-2.5h-2.5h-2.5q-22 2 -40.5 20t-18.5 51v0z" />
    <glyph glyph-name="iacute" unicode="&#xed;" horiz-adv-x="268" 
d="M12 484h203v-305q0 -26 3 -44t21 -27v-107h-227v107q10 5 15 14t7 19q2 7 2 14v12v126q0 27 -3 50t-21 27v114v0zM71 538l42 114h126l-79 -114h-89v0z" />
    <glyph glyph-name="igrave" unicode="&#xec;" horiz-adv-x="268" 
d="M12 484h203v-305q0 -26 3 -44t21 -27v-107h-227v107q10 5 15 14t7 19q2 7 2 14v12v126q0 27 -3 50t-21 27v114v0zM41 664h131l43 -126h-91l-83 126v0z" />
    <glyph glyph-name="icircumflex" unicode="&#xee;" horiz-adv-x="268" 
d="M12 484h203v-305q0 -26 3 -44t21 -27v-107h-227v107q10 5 15 14t7 19q2 7 2 14v12v126q0 27 -3 50t-21 27v114v0zM154 593l-30 -49h-106l89 126h90l89 -126h-102l-30 49v0z" />
    <glyph glyph-name="idieresis" unicode="&#xef;" horiz-adv-x="268" 
d="M12 484h203v-305q0 -26 3 -44t21 -27v-107h-227v107q10 5 15 14t7 19q2 7 2 14v12v126q0 27 -3 50t-21 27v114v0zM160 610q0 26 16.5 40.5t35.5 18.5q4 0 7.5 0.5t7.5 0.5t7.5 -0.5t7.5 -0.5q18 -4 34 -18.5t16 -40.5q0 -33 -18.5 -51.5t-40.5 -20.5h-2.5h-2.5h-4t-4 1
q-22 3 -40 21t-20 50v0zM-6 610q1 30 18 44.5t38 15.5h1.5h1.5h11q23 0 41.5 -16t18.5 -44q0 -31 -19.5 -50t-43.5 -21h-2.5h-2.5q-23 0 -42 18.5t-19 52.5h-1z" />
    <glyph glyph-name="ntilde" unicode="&#xf1;" horiz-adv-x="532" 
d="M18 479h209v-18q4 3 8 5t7 5q27 14 53.5 16.5t49.5 2.5q57 0 84.5 -21.5t37.5 -46.5q7 -17 8.5 -32.5t1.5 -25.5v-191q0 -26 5.5 -41t18.5 -24v-107h-203q-4 54 -5 88t-1 61v149v1.5v1.5q-1 19 -11.5 35.5t-28.5 16.5q-6 0 -12 -2t-13 -5v-180q0 -17 5 -30.5t18 -22.5
v-113h-232v113q16 8 19.5 23t3.5 31v2.5v2.5v144q0 18 -4.5 30.5t-18.5 16.5v115v0zM191 538h-72q3 38 22.5 61t42.5 33q10 4 19.5 6t17.5 2q9 0 20.5 -3t24.5 -6q1 0 2.5 -0.5t2.5 -1.5q12 -3 22.5 -5t19.5 -2h3.5t2.5 1q6 1 12 4t8 7h67q0 -4 -0.5 -9t-1.5 -9
q-7 -32 -32 -58t-56 -26q-4 0 -8.5 0.5t-9.5 0.5q-9 2 -18.5 4.5t-18.5 5.5q-14 3 -25.5 6.5t-20.5 3.5q-8 0 -14 -3.5t-10 -11.5v0z" />
    <glyph glyph-name="oacute" unicode="&#xf3;" horiz-adv-x="469" 
d="M10 167v168q0 86 47 120.5t168 34.5q122 0 168.5 -32.5t46.5 -122.5v-179q0 -103 -54 -131t-161 -28q-108 0 -161.5 32t-53.5 138v0zM261 156v185q0 20 -11 30.5t-25 10.5q-13 0 -24 -11.5t-11 -35.5v-179q0 -25 11 -37t24 -12q14 0 25 12t11 37v0zM176 538l43 114h125
l-77 -114h-91v0z" />
    <glyph glyph-name="ograve" unicode="&#xf2;" horiz-adv-x="469" 
d="M10 167v168q0 86 47 120.5t168 34.5q122 0 168.5 -32.5t46.5 -122.5v-179q0 -103 -54 -131t-161 -28q-108 0 -161.5 32t-53.5 138v0zM261 156v185q0 20 -11 30.5t-25 10.5q-13 0 -24 -11.5t-11 -35.5v-179q0 -25 11 -37t24 -12q14 0 25 12t11 37v0zM147 658h132l41 -126
h-89l-84 126v0z" />
    <glyph glyph-name="ocircumflex" unicode="&#xf4;" horiz-adv-x="469" 
d="M10 167v168q0 86 47 120.5t168 34.5q122 0 168.5 -32.5t46.5 -122.5v-179q0 -103 -54 -131t-161 -28q-108 0 -161.5 32t-53.5 138v0zM261 156v185q0 20 -11 30.5t-25 10.5q-13 0 -24 -11.5t-11 -35.5v-179q0 -25 11 -37t24 -12q14 0 25 12t11 37v0zM249 587l-30 -49h-108
l90 126h89l91 -126h-102l-30 49v0z" />
    <glyph glyph-name="odieresis" unicode="&#xf6;" horiz-adv-x="469" 
d="M10 167v168q0 86 47 120.5t168 34.5q122 0 168.5 -32.5t46.5 -122.5v-179q0 -103 -54 -131t-161 -28q-108 0 -161.5 32t-53.5 138v0zM261 156v185q0 20 -11 30.5t-25 10.5q-13 0 -24 -11.5t-11 -35.5v-179q0 -25 11 -37t24 -12q14 0 25 12t11 37v0zM249 604q0 28 16.5 42
t37.5 17q2 1 5 1h6q4 0 7.5 -0.5t7.5 -0.5q19 -4 35.5 -18.5t16.5 -40.5q0 -33 -18.5 -51.5t-40.5 -20.5h-2.5h-2.5h-4t-4 1q-22 3 -40 21t-20 50v0zM81 604v2v1v1.5v0.5q-1 2 -1 3v1q0 21 14.5 33.5t32.5 16.5q3 0 7 0.5t7 0.5h10q23 0 42.5 -16t19.5 -44q0 -31 -19.5 -50
t-43.5 -21h-2.5h-2.5h-2.5h-2.5q-22 2 -40.5 20.5t-18.5 50.5v0z" />
    <glyph glyph-name="otilde" unicode="&#xf5;" horiz-adv-x="469" 
d="M10 167v168q0 86 47 120.5t168 34.5q122 0 168.5 -32.5t46.5 -122.5v-179q0 -103 -54 -131t-161 -28q-108 0 -161.5 32t-53.5 138v0zM261 156v185q0 20 -11 30.5t-25 10.5q-13 0 -24 -11.5t-11 -35.5v-179q0 -25 11 -37t24 -12q14 0 25 12t11 37v0zM164 561h-71
q3 38 23 61.5t43 33.5q10 4 19.5 6t17.5 2q9 0 20.5 -3t23.5 -6q1 0 2.5 -0.5t2.5 -0.5q11 -3 22 -5.5t20 -2.5h2h2q7 1 13.5 4t9.5 8h67q0 -4 -0.5 -7.5t-0.5 -7.5q-6 -32 -32 -59.5t-58 -27.5h-4h-4q-12 1 -23.5 4t-22.5 6q-13 4 -25 7t-21 3q-8 0 -15 -3.5t-11 -11.5v0z
" />
    <glyph glyph-name="uacute" unicode="&#xfa;" horiz-adv-x="511" 
d="M7 479h192q8 -9 12.5 -25.5t4.5 -34.5v-203q0 -39 6 -67t25 -28q4 0 10.5 2.5t13.5 6.5q1 0 2.5 0.5t2.5 1.5v197q0 17 -4.5 26.5t-15.5 17.5q-1 1 -2 1.5t-2 1.5v103h209v-312q0 -22 5 -36t18 -23v-107h-208v24q-2 -2 -5 -4t-8 -5q-14 -7 -39 -13t-57 -6
q-79 0 -107.5 35.5t-28.5 111.5v179q0 21 -4.5 32t-16.5 19l-1.5 1.5t-1.5 0.5v103v0zM185 526l43 114h125l-77 -114h-91v0z" />
    <glyph glyph-name="ugrave" unicode="&#xf9;" horiz-adv-x="511" 
d="M7 479h192q8 -9 12.5 -25.5t4.5 -34.5v-203q0 -39 6 -67t25 -28q4 0 10.5 2.5t13.5 6.5q1 0 2.5 0.5t2.5 1.5v197q0 17 -4.5 26.5t-15.5 17.5q-1 1 -2 1.5t-2 1.5v103h209v-312q0 -22 5 -36t18 -23v-107h-208v24q-2 -2 -5 -4t-8 -5q-14 -7 -39 -13t-57 -6
q-79 0 -107.5 35.5t-28.5 111.5v179q0 21 -4.5 32t-16.5 19l-1.5 1.5t-1.5 0.5v103v0zM156 652h131l42 -126h-89l-84 126v0z" />
    <glyph glyph-name="ucircumflex" unicode="&#xfb;" horiz-adv-x="511" 
d="M7 479h192q8 -9 12.5 -25.5t4.5 -34.5v-203q0 -39 6 -67t25 -28q4 0 10.5 2.5t13.5 6.5q1 0 2.5 0.5t2.5 1.5v197q0 17 -4.5 26.5t-15.5 17.5q-1 1 -2 1.5t-2 1.5v103h209v-312q0 -22 5 -36t18 -23v-107h-208v24q-2 -2 -5 -4t-8 -5q-14 -7 -39 -13t-57 -6
q-79 0 -107.5 35.5t-28.5 111.5v179q0 21 -4.5 32t-16.5 19l-1.5 1.5t-1.5 0.5v103v0zM252 575l-30 -49h-108l90 126h89l91 -126h-103l-29 49v0z" />
    <glyph glyph-name="udieresis" unicode="&#xfc;" horiz-adv-x="511" 
d="M7 479h192q8 -9 12.5 -25.5t4.5 -34.5v-203q0 -39 6 -67t25 -28q4 0 10.5 2.5t13.5 6.5q1 0 2.5 0.5t2.5 1.5v197q0 17 -4.5 26.5t-15.5 17.5q-1 1 -2 1.5t-2 1.5v103h209v-312q0 -22 5 -36t18 -23v-107h-208v24q-2 -2 -5 -4t-8 -5q-14 -7 -39 -13t-57 -6
q-79 0 -107.5 35.5t-28.5 111.5v179q0 21 -4.5 32t-16.5 19l-1.5 1.5t-1.5 0.5v103v0zM258 593q0 27 16.5 41t37.5 17q2 1 5 1h6q4 0 7.5 -0.5t7.5 -0.5q19 -4 35.5 -18t16.5 -40q0 -34 -18.5 -52.5t-40.5 -20.5h-2.5h-2.5h-4t-4 1q-22 3 -40 21t-20 51v0zM90 593v1.5v0.5
v1.5v1.5q-1 1 -1 2v1q0 22 14.5 34t32.5 16q3 0 7 0.5t7 0.5h10q23 0 42.5 -15.5t19.5 -43.5q0 -32 -19.5 -51t-43.5 -21h-2.5h-2.5h-2.5h-2.5q-22 2 -40.5 20.5t-18.5 51.5v0z" />
    <glyph glyph-name="dagger" unicode="&#x2020;" 
 />
    <glyph glyph-name="degree" horiz-adv-x="327" 
d="M71 604q0 40 29 61t63 22h1.5h1.5h6t6 -1q29 -2 54.5 -20.5t29.5 -55.5v-7q0 -46 -28.5 -71t-61.5 -27h-3.5h-2.5h-1.5h-1.5q-34 1 -63 27t-29 72v0zM136 599q0 -13 8.5 -22.5t21.5 -9.5q2 0 5 0.5t6 2.5q7 4 13.5 11.5t6.5 17.5q0 12 -9 18.5t-19 7.5h-1.5h-1.5
q-11 0 -20.5 -6.5t-9.5 -19.5v0z" />
    <glyph glyph-name="cent" unicode="&#xa2;" horiz-adv-x="469" 
d="M153 1v78q-6 0 -12 0.5t-13 1.5q-39 8 -72.5 42.5t-33.5 104.5v215q0 46 28.5 70.5t62.5 37.5q12 5 24 9t22 7v85h155v-85q18 -5 34.5 -11t32.5 -15q13 -6 26 -14.5t27 -18.5v-132h-173v49q0 15 -7.5 22.5t-16.5 8.5h-1.5h-1.5h-3.5t-3.5 -1q-9 -2 -17.5 -10t-8.5 -20
v-179q0 -27 8.5 -41.5t18.5 -16.5q1 -1 2.5 -1h2.5h2t3 1q8 2 15.5 12.5t7.5 27.5v53h173v-143q-9 -15 -31.5 -28.5t-47.5 -21.5q-12 -4 -24 -6.5t-23 -2.5v-78h-155v0z" />
    <glyph glyph-name="sterling" unicode="&#xa3;" horiz-adv-x="552" 
d="M28 1v119q14 5 19 15t5 32v85h-18v124h18v55q0 136 67.5 185t150.5 49q8 0 16 -0.5t16 -0.5q51 -5 99.5 -19.5t81.5 -31.5q13 -7 23.5 -13.5t16.5 -12.5v-180h-185v66q0 20 -10.5 30t-23.5 11h-1.5h-1.5q-15 0 -27.5 -10.5t-12.5 -30.5v-97h132v-124h-132v-114
q2 0 3.5 -0.5t3.5 -0.5h1.5h1.5q1 -1 2.5 -1h2.5q4 0 8.5 0.5t9.5 1.5q16 3 30 12.5t14 22.5v43h185v-215h-495v0z" />
    <glyph glyph-name="section" unicode="&#xa7;" 
 />
    <glyph glyph-name="bullet" horiz-adv-x="289" 
d="M58 658h132l41 -126h-90l-83 126v0z" />
    <glyph glyph-name="paragraph" unicode="&#xb6;" 
 />
    <glyph glyph-name="germandbls" unicode="&#xdf;" horiz-adv-x="511" 
d="M19 1v107q14 5 19 28t5 68v298q0 11 0.5 22.5t3.5 23.5q8 41 48 75.5t151 34.5q104 0 165.5 -30t61.5 -102v-47q0 -49 -18.5 -82t-58.5 -33q35 -8 56 -30.5t21 -75.5v-120q0 -88 -42.5 -113t-117.5 -25h-16t-16 1h-17.5h-17.5v107q26 0 36.5 14t10.5 45v73q0 32 -9.5 42
t-20.5 13q-2 1 -4 1t-4 1q-2 0 -4.5 0.5t-4.5 1.5v108q23 5 35 14t12 40v41q0 16 -9 27t-19 14q-2 1 -3.5 1h-3.5q-13 0 -24.5 -14t-11.5 -46v-483h-203v0z" />
    <glyph glyph-name="registered" unicode="&#xae;" horiz-adv-x="612" 
d="M356 664q24 0 49 -4t51 -11q90 -28 166 -106t80 -214q0 -23 -3.5 -47.5t-11.5 -48.5q-27 -92 -108 -168t-223 -80l-11 -1q-12 1 -24.5 2t-25.5 4q-102 19 -187.5 109.5t-85.5 223.5q0 146 87 231.5t191 104.5q14 2 28 3.5t28 1.5v0zM356 567h-10.5t-10.5 -1
q-82 -7 -150.5 -70.5t-68.5 -179.5v-2.5t1 -2.5v-3.5v-2.5q0 -8 1 -16.5t2 -17.5q15 -72 82.5 -132t158.5 -60q89 0 158 60t84 132q2 9 3 17.5t1 16.5v11q0 9 -0.5 18t-2.5 18q-13 81 -77 148t-161 67h-10v0zM213 514h203q57 0 83 -27.5t29 -61.5q1 -3 1 -6v-6
q0 -5 -0.5 -10.5t-0.5 -11.5q-4 -32 -23 -59t-65 -27l71 -144h-101l-60 144h-48v-144h-89v353v0zM302 455v-85h97q19 0 29 11.5t11 24.5v1.5v1.5v4.5t-1 4.5q-3 14 -13.5 25.5t-25.5 11.5h-97v0z" />
    <glyph glyph-name="copyright" unicode="&#xa9;" horiz-adv-x="754" 
d="M356 658q139 0 242.5 -94.5t103.5 -246.5q0 -140 -99.5 -236t-230.5 -96l-11 -1q-2 1 -4.5 1h-4.5q-126 3 -231 93.5t-105 244.5q4 146 91.5 229t191.5 101q14 2 28.5 3.5t28.5 1.5v0zM356 561q-8 0 -17 -0.5t-17 -2.5q-80 -12 -146 -76t-66 -162v-2t1 -2v-3v-2
q0 -94 73.5 -166t171.5 -72t174.5 67.5t76.5 170.5v9q0 94 -64.5 161t-141.5 78q-7 1 -13.5 1.5t-12.5 0.5h-19v0zM446 384q-4 35 -27.5 50t-51.5 15q-37 0 -59.5 -36t-25.5 -79q-1 -4 -1 -7.5v-7.5q0 -43 20 -79t60 -36h4.5h4.5q26 2 49 13.5t27 40.5h89v-11
q0 -5 -0.5 -10.5t-1.5 -10.5q-9 -42 -53 -77t-124 -35q-94 0 -144 64.5t-51 141.5v1.5v1.5v1.5v1.5q1 75 50.5 137.5t149.5 62.5q15 0 35 -2.5t41 -8.5q38 -12 69.5 -42t34.5 -89h-95v0z" />
    <glyph glyph-name="trademark" unicode="&#x2122;" 
 />
    <glyph glyph-name="acute" unicode="&#xb4;" horiz-adv-x="289" 
d="M64 532l41 114h126l-78 -114h-89v0z" />
    <glyph glyph-name="dieresis" unicode="&#xa8;" horiz-adv-x="410" 
d="M231 593q0 26 16 40t34 18q4 0 7.5 0.5t7.5 0.5h6t5 -1q21 -3 37.5 -17t16.5 -41q0 -35 -19 -53.5t-41 -19.5h-1.5h-1.5h-2.5h-3.5q-22 2 -40.5 20.5t-20.5 52.5v0zM64 593v1.5v0.5q0 1 -0.5 1.5t-0.5 1.5t-0.5 2l-0.5 1q0 22 14.5 34t32.5 16q3 0 7 0.5t7 0.5h10h1.5
h1.5q22 -1 41 -16.5t19 -42.5q0 -31 -19 -50t-42 -22h-4h-4h-1.5h-1.5q-22 1 -41 20t-19 52v0z" />
    <glyph glyph-name="notequal" unicode="&#x2260;" horiz-adv-x="500" 
 />
    <glyph glyph-name="AE" unicode="&#xc6;" horiz-adv-x="795" 
d="M513 270v-138q45 0 55.5 12t10.5 29v61h191v-233h-484v113q10 7 17.5 16t7.5 26v4v4q-1 1 -1 2v2v3v2h-101q0 -2 -0.5 -4t-0.5 -4v-1.5v-1.5q-1 -3 -1.5 -5t-0.5 -4q0 -19 8.5 -27t18.5 -12v-113h-227v113q2 3 4 5t3 5q11 15 16.5 30.5t10.5 32.5q2 5 3.5 11t3.5 12
l144 436h579v-209h-185v36q0 16 -14.5 26t-32.5 14q-3 0 -7 0.5t-7 0.5h-11v-113h131v-131h-131v0zM310 287v209l-66 -209h66v0z" />
    <glyph glyph-name="Oslash" unicode="&#xd8;" horiz-adv-x="552" 
d="M34 102v9.5t-1 9.5q0 6 -0.5 11.5t-1.5 12.5q-1 12 -2 27.5t-1 37.5v280q0 105 70 141t157 36q10 0 20.5 -0.5t20.5 -1.5q14 -1 27.5 -2t25.5 -3q5 0 9.5 -0.5t8.5 -1.5l37 59l131 -83l-36 -67q14 -22 16 -48.5t2 -57.5v-268q0 -115 -62 -157t-136 -47q-8 -1 -15.5 -1
h-14.5q-37 0 -71.5 4.5t-58.5 8.5l-30 -47l-130 83l35 65v0zM314 199v262q0 26 -10.5 40.5t-23.5 17.5q-2 1 -3.5 1h-3.5q-16 0 -29 -15t-13 -44v-262q0 -31 11 -49.5t24 -21.5q1 -1 2.5 -1h2.5h1.5h1.5q15 2 27.5 21t12.5 51v0z" />
    <glyph glyph-name="infinity" unicode="&#x221e;" 
 />
    <glyph glyph-name="plusminus" unicode="&#xb1;" 
 />
    <glyph glyph-name="lessequal" unicode="&#x2264;" horiz-adv-x="500" 
 />
    <glyph glyph-name="greaterequal" unicode="&#x2265;" horiz-adv-x="500" 
 />
    <glyph glyph-name="yen" unicode="&#xa5;" horiz-adv-x="532" 
d="M12 652h232v-91q0 -13 3 -27.5t8 -28.5t11.5 -28.5t13.5 -27.5q4 6 7.5 12t7.5 11q10 20 15.5 41t5.5 48v91h203v-120q-12 -12 -20.5 -26t-16.5 -29q-1 -3 -2.5 -5.5t-2.5 -4.5l-47 -91h94v-71h-130l-12 -24h142v-77h-161v-37q0 -4 1.5 -11.5t4.5 -15.5t7.5 -15t11.5 -11
v-113h-252v113q6 5 10.5 9t6.5 9q5 7 6 15.5t1 19.5v43h-154v77h130l-12 24h-118v73h89l-36 71q-7 15 -12.5 27.5t-10.5 21.5q-6 10 -11.5 17t-12.5 11v120v0z" />
    <glyph glyph-name="mu" unicode="&#xb5;" 
 />
    <glyph glyph-name="partialdiff" unicode="&#x2202;" horiz-adv-x="500" 
 />
    <glyph glyph-name="summation" unicode="&#x3a3;" horiz-adv-x="500" 
 />
    <glyph glyph-name="product" unicode="&#x220f;" 
 />
    <glyph glyph-name="pi" unicode="&#x3c0;" horiz-adv-x="500" 
 />
    <glyph glyph-name="integral" unicode="&#x222b;" 
 />
    <glyph glyph-name="ordfeminine" unicode="&#xaa;" horiz-adv-x="289" 
d="M-7 305v30h297v-30h-297v0zM290 370h-126v26q-11 -11 -27.5 -18t-33.5 -10q-4 0 -8.5 -0.5t-8.5 -0.5h-1.5h-1.5q-34 1 -61.5 20.5t-27.5 55.5l-1 6q4 41 25.5 60.5t71.5 33.5q15 4 32 8.5t37 9.5v26q0 6 -5 9.5t-11 4.5h-2h-2h-2h-2q-7 -1 -12.5 -4.5t-5.5 -9.5v-26
h-107v73q20 16 57 25t77 9h4h4q48 -1 87.5 -20t39.5 -61v-114q0 -18 3.5 -27t7.5 -9v-67v0zM159 496q-9 -4 -16.5 -7.5t-13.5 -6.5q-6 -4 -9 -7t-3 -8q0 -10 3 -16.5t10 -6.5q4 0 10.5 2.5t13.5 6.5q1 0 2.5 0.5t2.5 1.5v41v0z" />
    <glyph glyph-name="ordmasculine" unicode="&#xba;" horiz-adv-x="289" 
d="M10 299v30h286v-30h-286v0zM16 567q0 46 31.5 71.5t111.5 25.5q63 0 100 -23.5t37 -73.5v-106q0 -64 -37.5 -83t-105.5 -19q-67 0 -102 24.5t-35 77.5v106v0zM129 556v-95q0 -16 7.5 -23.5t16.5 -7.5h1.5h1.5q7 1 13.5 8.5t6.5 22.5v95q0 15 -5.5 24.5t-11.5 12.5
q-2 0 -3.5 0.5t-2.5 0.5q-9 0 -16.5 -10.5t-7.5 -27.5v0z" />
    <glyph glyph-name="Omega" unicode="&#x3a9;" horiz-adv-x="500" 
 />
    <glyph glyph-name="ae" unicode="&#xe6;" horiz-adv-x="715" 
d="M324 43q-22 -19 -59 -32t-77 -16q-6 0 -12.5 -0.5t-12.5 -0.5q-55 0 -100 24t-54 84q-1 8 -2 15.5t-1 14.5q0 75 55.5 105t121.5 47q8 2 15 3.5t15 3.5q13 3 26.5 6.5t25.5 7.5v48q0 13 -8 19t-18 6h-3.5t-3.5 -1q-12 -1 -22 -8t-10 -16v-36h-167v114q27 23 63.5 36.5
t74.5 18.5l24 2t23 1q42 0 79 -9t57 -25q23 14 63.5 22.5t84.5 8.5h6.5h7.5q67 -3 123 -33.5t56 -105.5v-143h-251v-60q0 -20 9.5 -30.5t20.5 -11.5h1.5h1.5h3.5t3.5 1q12 2 22 11.5t10 23.5v41h179v-130q-32 -21 -71.5 -35t-81.5 -18q-13 -2 -26 -3t-26 -1q-46 0 -90 12
t-76 39v0zM265 199q-25 -5 -41 -13.5t-25 -16.5q-6 -6 -8.5 -11.5t-2.5 -10.5v-2v-2q2 -5 5 -9.5t7 -7.5q4 -4 10.5 -7t13.5 -5h3.5h2.5h1.5h1.5q12 1 22 12.5t10 34.5v38v0zM444 311h72q0 32 -6.5 48.5t-29.5 16.5q-22 0 -29 -19t-7 -46v0z" />
    <glyph glyph-name="oslash" unicode="&#xf8;" horiz-adv-x="469" 
d="M28 79q-7 4 -10 18t-3 30v8.5v9.5v2.5t1 3.5v11.5v10.5v150q0 93 54.5 124t119.5 34h8h8h7.5h7.5q20 -1 39.5 -2t36.5 -3q8 -1 15.5 -1.5t13.5 -1.5l41 47l97 -71l-36 -48q9 -4 13.5 -22.5t4.5 -49.5v-191q0 -80 -62.5 -110.5t-140.5 -30.5h-10h-10q-24 1 -48 3.5
t-46 6.5l-36 -41l-94 77l29 36v0zM261 156v179q0 16 -8.5 25.5t-17.5 11.5q-2 1 -3.5 1h-3.5q-12 0 -22 -10t-10 -28v-179q0 -27 10 -40.5t22 -13.5h1.5h1.5q11 2 20.5 15.5t9.5 38.5v0z" />
    <glyph glyph-name="questiondown" unicode="&#xbf;" horiz-adv-x="532" 
d="M221 281h173v-102q0 -34 -22 -54.5t-49 -35.5q-11 -6 -22.5 -11.5t-20.5 -10.5q-18 -10 -30 -22.5t-17 -26.5q-3 -5 -4 -10.5t-1 -9.5q0 -2 0.5 -4.5t1.5 -5.5q0 -1 0.5 -2t0.5 -2l1.5 -3t0.5 -2q3 -9 13.5 -14t23.5 -5q3 0 6 0.5t6 0.5q13 3 23.5 13t10.5 27v54h179
v-166q-14 -11 -31.5 -21.5t-35.5 -18.5t-34.5 -13t-30.5 -5l-185 -1q-12 1 -28 6t-32 14q-27 15 -50.5 39t-31.5 54q-2 8 -4 17t-3 18q-1 7 -1.5 14t-0.5 12v3.5v3.5q2 50 29 97.5t86 76.5q30 15 45.5 25t22.5 20q5 7 6.5 14.5t2.5 17.5q0 4 0.5 8.5t1.5 10.5v0zM209 407
q0 41 26.5 65t62.5 24q35 0 62.5 -22t27.5 -67q0 -39 -22.5 -61t-49.5 -27q-5 -1 -9.5 -1.5t-8.5 -0.5h-6t-6 1q-29 4 -53 26t-24 63v0z" />
    <glyph glyph-name="exclamdown" unicode="&#xa1;" horiz-adv-x="327" 
d="M124 276h85l59 -340q0 -3 0.5 -6.5t0.5 -7.5t0.5 -8t0.5 -8q0 -31 -10.5 -56t-38.5 -25l-108 -1q-28 1 -40.5 19.5t-15.5 39.5q0 5 -0.5 10t-0.5 10q0 6 0.5 12t1.5 12q0 5 0.5 9t0.5 7l65 333v0zM77 401q0 41 27 65t62 24q37 0 63.5 -22t26.5 -67q0 -41 -25 -63.5
t-55 -25.5q-2 -1 -4.5 -1h-5.5h-6t-6 1q-29 4 -53 26t-24 63v0z" />
    <glyph glyph-name="logicalnot" unicode="&#xac;" 
 />
    <glyph glyph-name="radical" unicode="&#x221a;" horiz-adv-x="500" 
 />
    <glyph glyph-name="florin" unicode="&#x192;" 
 />
    <glyph glyph-name="approxequal" unicode="&#x2248;" horiz-adv-x="500" 
 />
    <glyph glyph-name="Delta" unicode="&#x2206;" horiz-adv-x="500" 
 />
    <glyph glyph-name="guillemotleft" unicode="&#xab;" horiz-adv-x="410" 
d="M141 258l66 -120h-108l-65 126l65 126h108l-66 -132v0zM290 258l66 -120h-107l-67 126l67 126h107l-66 -132v0z" />
    <glyph glyph-name="guillemotright" unicode="&#xbb;" horiz-adv-x="410" 
d="M40 120l65 138l-65 126h107l66 -132l-66 -132h-107v0zM196 120l65 138l-65 126h106l65 -132l-65 -132h-106v0z" />
    <glyph glyph-name="ellipsis" unicode="&#x2026;" 
 />
    <glyph glyph-name="Agrave" unicode="&#xc0;" horiz-adv-x="552" 
d="M410 652l89 -473q5 -22 14 -39t22 -26v-113h-256v113q17 14 20 28t3 31h-101q0 -17 3 -31t21 -28v-113h-221v119l5.5 5.5t4.5 5.5q8 10 12 21.5t8 32.5l83 467h293v0zM279 299l-30 191l-30 -191h60v0zM190 837h130l41 -126h-88l-83 126v0z" />
    <glyph glyph-name="Atilde" unicode="&#xc3;" horiz-adv-x="552" 
d="M410 652l89 -473q5 -22 14 -39t22 -26v-113h-256v113q17 14 20 28t3 31h-101q0 -17 3 -31t21 -28v-113h-221v119l5.5 5.5t4.5 5.5q8 10 12 21.5t8 32.5l83 467h293v0zM279 299l-30 191l-30 -191h60v0zM207 723h-72q3 38 22.5 60.5t41.5 32.5q10 5 20 7t18 2q9 0 20.5 -3
t24.5 -6q1 0 2 -0.5t3 -0.5q11 -3 22 -5.5t20 -2.5h3.5t3.5 1q6 1 11.5 4t8.5 7h66q0 -4 -0.5 -9t-1.5 -9q-6 -32 -31 -58t-57 -26q-4 0 -8.5 0.5t-9.5 0.5q-9 2 -18.5 4.5t-18.5 5.5q-14 3 -25.5 6.5t-20.5 3.5q-7 0 -13.5 -3.5t-10.5 -11.5v0z" />
    <glyph glyph-name="Otilde" unicode="&#xd5;" horiz-adv-x="552" 
d="M28 199v268q0 99 60.5 148t190.5 49t184 -46.5t54 -144.5v-294q0 -93 -52 -140.5t-186 -47.5q-135 0 -193 52.5t-58 155.5v0zM314 193v274q0 26 -4.5 39.5t-30.5 13.5q-22 0 -32 -13.5t-10 -39.5v-274q0 -24 7.5 -42.5t34.5 -18.5q22 0 28.5 16.5t6.5 44.5v0zM196 711
h-73q3 37 22 59.5t41 33.5q10 4 20.5 6.5t18.5 2.5q9 0 20.5 -2.5t24.5 -5.5q1 -1 2 -1t3 -1q11 -3 22 -5t20 -2h3.5t3.5 1q6 1 11.5 3.5t8.5 6.5h66q0 -4 -0.5 -9t-1.5 -9q-7 -32 -32 -58t-56 -26q-4 0 -8.5 0.5t-9.5 0.5q-9 2 -18.5 4t-18.5 5q-14 3 -25.5 6t-20.5 3
q-7 0 -13.5 -2.5t-9.5 -10.5v0z" />
    <glyph glyph-name="OE" unicode="&#x152;" 
 />
    <glyph glyph-name="oe" unicode="&#x153;" 
 />
    <glyph glyph-name="endash" 
 />
    <glyph glyph-name="emdash" unicode="&#x2014;" 
 />
    <glyph glyph-name="quotedblleft" unicode="&#x201c;" horiz-adv-x="674" 
d="M107 353v240h-89v71h262v-71h-89v-240h-84v0zM316 353v311h125l54 -156l47 156h126v-311h-83v208l-72 -208h-42l-71 214v-214h-84v0z" />
    <glyph glyph-name="quotedblright" unicode="&#x201d;" 
 />
    <glyph glyph-name="quoteleft" unicode="&#x2018;" horiz-adv-x="754" 
d="M28 73q0 40 27 64t62 24t62.5 -22t27.5 -66q0 -40 -23.5 -61.5t-52.5 -25.5q-3 0 -6.5 -0.5t-7.5 -0.5t-8 0.5t-8 0.5q-27 5 -50 26.5t-23 60.5v0zM284 73q0 40 27 64t64 24q35 0 62 -22t27 -66q0 -39 -23 -60.5t-50 -26.5q-4 0 -8 -0.5t-8 -0.5h-6t-6 1q-30 4 -54.5 25
t-24.5 62v0zM541 73q0 40 27.5 64t62.5 24q36 0 62.5 -22t26.5 -66q0 -41 -24 -62t-53 -25q-3 -1 -6 -1h-6q-4 0 -8.5 0.5t-9.5 1.5q-27 5 -49.5 26t-22.5 60v0z" />
    <glyph glyph-name="quoteright" unicode="&#x2019;" horiz-adv-x="268" 
d="M124 514q-34 0 -53.5 22t-20.5 48v1.5v1.5v4v4q3 23 22 43t52 20q44 0 66 -25.5t22 -60.5q0 -9 -1.5 -19t-4.5 -21l-4 -12t-5 -12l-2 -4t-3 -4q-14 -24 -35.5 -47t-49.5 -40l-36 30q9 9 17.5 18t16.5 18q7 8 12 17t7 18v0z" />
    <glyph glyph-name="divide" unicode="&#xf7;" horiz-adv-x="715" 
d="M366 473q33 6 65 9.5t61 3.5q86 0 141.5 -34t55.5 -111v-142h-245v-67q0 -15 9.5 -22t20.5 -8h1.5h1.5h1.5h1.5q11 1 20.5 7t9.5 17v41h179v-118q-19 -28 -75 -42t-119 -16h-7.5h-7.5h-6h-6q-32 1 -63.5 5t-56.5 11q-21 -7 -48.5 -10.5t-56.5 -4.5h-8h-8h-8h-8
q-74 3 -135 35t-61 111v179q0 103 58.5 137t128.5 35h4h4h7.5h7.5q24 -1 47 -3.5t43 -5.5q16 -2 29 -4t22 -3v0zM265 150v185q0 19 -9 28.5t-20 11.5h-2.5h-2.5h-1.5h-1.5q-13 -1 -23.5 -11.5t-10.5 -28.5v-179q0 -27 11.5 -41t24.5 -14h3.5t3.5 1q10 3 19 15.5t9 32.5v0z
M450 299h66v28q0 20 -5 31.5t-25 11.5q-23 0 -30 -13t-7 -33v-6t1 -6v-6.5v-6.5v0z" />
    <glyph glyph-name="lozenge" unicode="&#x25ca;" horiz-adv-x="500" 
 />
    <glyph glyph-name="ydieresis" unicode="&#xff;" horiz-adv-x="469" 
d="M-1 479h238v-109q-8 -1 -12.5 -6.5t-6.5 -11.5v-2.5v-2.5q0 -7 2 -16t5 -18l2 -8t2 -7t1.5 -5.5t0.5 -5.5l24 -77l18 77q0 3 0.5 5.5t1.5 5.5t1.5 6.5t1.5 6.5q2 10 4 19t2 17v2.5v2.5q-1 6 -5 11.5t-12 6.5v109h203v-109q-13 -10 -20.5 -28t-13.5 -39v-2t-1 -1
q-1 -6 -3 -12l-4 -12l-96 -298q-6 -19 -11.5 -34.5t-10.5 -28.5q-14 -33 -30.5 -49.5t-48.5 -28.5q-10 -4 -23 -6.5t-27 -3.5q-5 -1 -10 -1h-10h-6h-5q-22 1 -41.5 6t-32.5 10v106q35 1 51 16t20 33l-89 249q-8 23 -13.5 41.5t-11.5 33.5q-6 18 -14 30t-19 19l-1 109v0z
M261 599q0 27 16.5 41t37.5 17q2 1 5 1h6q4 0 7.5 -0.5t7.5 -0.5q19 -4 35.5 -18t16.5 -40q0 -34 -18.5 -52.5t-40.5 -20.5h-2.5h-2.5h-4t-4 1q-22 3 -40 21t-20 51v0zM93 599v2v2v0h-1v3v1q0 21 14.5 33.5t32.5 16.5q3 0 7 0.5t7 0.5h10q25 0 43.5 -15.5t18.5 -43.5
q0 -32 -19.5 -51t-43.5 -21h-2.5h-2.5h-2.5h-2.5q-22 2 -40.5 20.5t-18.5 51.5v0z" />
    <glyph glyph-name="Ydieresis" unicode="&#x178;" horiz-adv-x="469" 
d="M-1 479h238v-109q-8 -1 -12.5 -6.5t-6.5 -11.5v-2.5v-2.5q0 -7 2 -16t5 -18l2 -8t2 -7t1.5 -5.5t0.5 -5.5l24 -77l18 77q0 3 0.5 5.5t1.5 5.5t1.5 6.5t1.5 6.5q2 10 4 19t2 17v2.5v2.5q-1 6 -5 11.5t-12 6.5v109h203v-109q-13 -10 -20.5 -28t-13.5 -39v-2t-1 -1
q-1 -6 -3 -12l-4 -12l-96 -298q-6 -19 -11.5 -34.5t-10.5 -28.5q-14 -33 -30.5 -49.5t-48.5 -28.5q-10 -4 -23 -6.5t-27 -3.5q-5 -1 -10 -1h-10h-6h-5q-22 1 -41.5 6t-32.5 10v106q35 1 51 16t20 33l-89 249q-8 23 -13.5 41.5t-11.5 33.5q-6 18 -14 30t-19 19l-1 109v0z
M261 599q0 27 16.5 41t37.5 17q2 1 5 1h6q4 0 7.5 -0.5t7.5 -0.5q19 -4 35.5 -18t16.5 -40q0 -34 -18.5 -52.5t-40.5 -20.5h-2.5h-2.5h-4t-4 1q-22 3 -40 21t-20 51v0zM93 599v2v2v0h-1v3v1q0 21 14.5 33.5t32.5 16.5q3 0 7 0.5t7 0.5h10q25 0 43.5 -15.5t18.5 -43.5
q0 -32 -19.5 -51t-43.5 -21h-2.5h-2.5h-2.5h-2.5q-22 2 -40.5 20.5t-18.5 51.5v0z" />
    <glyph glyph-name="fraction" unicode="&#x2215;" horiz-adv-x="469" 
d="M243 646h150l-229 -739l-23 -71h-148l232 757l18 53v0z" />
    <glyph glyph-name="currency" unicode="&#xa4;" 
 />
    <glyph glyph-name="guilsinglleft" unicode="&#x2039;" 
 />
    <glyph glyph-name="guilsinglright" unicode="&#x203a;" 
 />
    <glyph glyph-name="fi" unicode="&#xf001;" 
 />
    <glyph glyph-name="fl" unicode="&#xf002;" 
 />
    <glyph glyph-name="daggerdbl" unicode="&#x2021;" 
 />
    <glyph glyph-name="periodcentered" unicode="&#x2219;" horiz-adv-x="289" 
d="M22 287q0 58 37 86t82 28t83.5 -30t42.5 -84v-11q0 -59 -36 -89.5t-79 -33.5h-4h-4h-1.5h-1.5q-45 1 -82.5 31.5t-37.5 91.5v2.5t1 3.5v2.5v2.5v0z" />
    <glyph glyph-name="quotesinglbase" unicode="&#x201a;" 
 />
    <glyph glyph-name="quotedblbase" unicode="&#x201e;" 
 />
    <glyph glyph-name="perthousand" unicode="&#x2030;" 
 />
    <glyph glyph-name="Acircumflex" unicode="&#xc2;" horiz-adv-x="552" 
d="M410 652l89 -473q5 -22 14 -39t22 -26v-113h-256v113q17 14 20 28t3 31h-101q0 -17 3 -31t21 -28v-113h-221v119l5.5 5.5t4.5 5.5q8 10 12 21.5t8 32.5l83 467h293v0zM279 299l-30 191l-30 -191h60v0zM279 766l-30 -49h-108l90 126h89l90 -126h-102l-29 49v0z" />
    <glyph glyph-name="Ecircumflex" unicode="&#xca;" horiz-adv-x="532" 
d="M24 652h489v-227h-192v42q0 22 -16.5 31.5t-37.5 9.5h-17v-118h132v-126h-132v-126h2.5t2.5 -1h1.5h1.5q2 0 4 -0.5t3 -0.5q30 0 43 15t13 34v49h192v-233h-489v119q11 5 14 15t3 21v328q0 18 -4 31.5t-13 22.5v114v0zM274 747l-30 -48h-108l91 126h89l90 -126h-102
l-30 48v0z" />
    <glyph glyph-name="Aacute" unicode="&#xc1;" horiz-adv-x="552" 
d="M410 652l89 -473q5 -22 14 -39t22 -26v-113h-256v113q17 14 20 28t3 31h-101q0 -17 3 -31t21 -28v-113h-221v119l5.5 5.5t4.5 5.5q8 10 12 21.5t8 32.5l83 467h293v0zM279 299l-30 191l-30 -191h60v0zM231 711l42 114h126l-79 -114h-89v0z" />
    <glyph glyph-name="Edieresis" unicode="&#xcb;" horiz-adv-x="532" 
d="M24 652h489v-227h-192v42q0 22 -16.5 31.5t-37.5 9.5h-17v-118h132v-126h-132v-126h2.5t2.5 -1h1.5h1.5q2 0 4 -0.5t3 -0.5q30 0 43 15t13 34v49h192v-233h-489v119q11 5 14 15t3 21v328q0 18 -4 31.5t-13 22.5v114v0zM298 790q0 27 16.5 41t37.5 17q2 1 5 1h6h6t5 -1
q21 -3 38.5 -17t17.5 -41q0 -34 -18.5 -52.5t-40.5 -20.5h-2.5h-2.5h-4t-4 1q-22 3 -40 21t-20 51v0zM130 790v2v2q-1 1 -1 2v1q0 22 15.5 34.5t33.5 16.5q3 0 6.5 0.5t6.5 0.5h10q24 0 42.5 -15.5t18.5 -43.5q0 -32 -19.5 -50.5t-43.5 -20.5h-2.5h-2.5h-2.5h-2.5
q-22 2 -40.5 20t-18.5 51v0z" />
    <glyph glyph-name="Egrave" unicode="&#xc8;" horiz-adv-x="532" 
d="M24 652h489v-227h-192v42q0 22 -16.5 31.5t-37.5 9.5h-17v-118h132v-126h-132v-126h2.5t2.5 -1h1.5h1.5q2 0 4 -0.5t3 -0.5q30 0 43 15t13 34v49h192v-233h-489v119q11 5 14 15t3 21v328q0 18 -4 31.5t-13 22.5v114v0zM178 831h132l41 -126h-89l-84 126v0z" />
    <glyph glyph-name="Iacute" unicode="&#xcd;" horiz-adv-x="309" 
d="M21 652h256v-114q-15 -12 -19.5 -26t-4.5 -29v-5.5v-4.5v-288q0 -27 3 -39t11 -21q2 -3 4.5 -5.5l5.5 -5.5v-113h-256v113q15 12 19 25.5t4 27.5v325v6t-1 6q-1 10 -6 18.5t-16 15.5v114v0zM116 699l41 114h126l-77 -114h-90v0z" />
    <glyph glyph-name="Icircumflex" unicode="&#xce;" horiz-adv-x="309" 
d="M21 652h256v-114q-15 -12 -19.5 -26t-4.5 -29v-5.5v-4.5v-288q0 -27 3 -39t11 -21q2 -3 4.5 -5.5l5.5 -5.5v-113h-256v113q15 12 19 25.5t4 27.5v325v6t-1 6q-1 10 -6 18.5t-16 15.5v114v0zM157 747l-30 -48h-106l89 126h90l89 -126h-101l-31 48v0z" />
    <glyph glyph-name="Idieresis" unicode="&#xcf;" horiz-adv-x="309" 
d="M21 652h256v-114q-15 -12 -19.5 -26t-4.5 -29v-5.5v-4.5v-288q0 -27 3 -39t11 -21q2 -3 4.5 -5.5l5.5 -5.5v-113h-256v113q15 12 19 25.5t4 27.5v325v6t-1 6q-1 10 -6 18.5t-16 15.5v114v0zM169 778q0 26 16.5 40t35.5 18q4 0 7.5 0.5t7.5 0.5t7.5 -0.5t7.5 -0.5
q18 -4 34 -18t16 -40q0 -34 -18.5 -52.5t-40.5 -20.5h-2.5h-2.5h-4t-4 1q-22 3 -40 21t-20 51v0zM3 778v1.5t-1 1.5v1v1t-0.5 2t-0.5 2q0 20 14 32t30 16q5 1 9 1.5t8 0.5h11q23 0 41.5 -15.5t18.5 -43.5q0 -32 -19.5 -50.5t-43.5 -20.5h-2.5h-2.5q-23 0 -42.5 18.5
t-19.5 52.5v0z" />
    <glyph glyph-name="Igrave" unicode="&#xcc;" horiz-adv-x="309" 
d="M21 652h256v-114q-15 -12 -19.5 -26t-4.5 -29v-5.5v-4.5v-288q0 -27 3 -39t11 -21q2 -3 4.5 -5.5l5.5 -5.5v-113h-256v113q15 12 19 25.5t4 27.5v325v6t-1 6q-1 10 -6 18.5t-16 15.5v114v0zM62 831h132l42 -126h-91l-83 126v0z" />
    <glyph glyph-name="Oacute" unicode="&#xd3;" horiz-adv-x="552" 
d="M28 199v268q0 99 60.5 148t190.5 49t184 -46.5t54 -144.5v-294q0 -93 -52 -140.5t-186 -47.5q-135 0 -193 52.5t-58 155.5v0zM314 193v274q0 26 -4.5 39.5t-30.5 13.5q-22 0 -32 -13.5t-10 -39.5v-274q0 -24 7.5 -42.5t34.5 -18.5q22 0 28.5 16.5t6.5 44.5v0zM219 705
l42 114h126l-79 -114h-89v0z" />
    <glyph glyph-name="Ocircumflex" unicode="&#xd4;" horiz-adv-x="552" 
d="M28 199v268q0 99 60.5 148t190.5 49t184 -46.5t54 -144.5v-294q0 -93 -52 -140.5t-186 -47.5q-135 0 -193 52.5t-58 155.5v0zM314 193v274q0 26 -4.5 39.5t-30.5 13.5q-22 0 -32 -13.5t-10 -39.5v-274q0 -24 7.5 -42.5t34.5 -18.5q22 0 28.5 16.5t6.5 44.5v0zM279 747
l-30 -48h-108l90 126h89l90 -126h-102l-29 48v0z" />
    <glyph glyph-name="apple" unicode="&#xf000;" 
 />
    <glyph glyph-name="Ograve" unicode="&#xd2;" 
 />
    <glyph glyph-name="Uacute" unicode="&#xda;" horiz-adv-x="552" 
d="M16 652h251v-120q-17 -9 -20.5 -27.5t-3.5 -38.5v-3v-2v-251q0 -37 5 -57.5t36 -20.5q24 0 30 14t6 36v298v4v3q-1 15 -5.5 27.5t-18.5 17.5v120h245v-120q-22 -13 -26 -37.5t-4 -51.5v-244q0 -18 -1.5 -40t-8.5 -46q-10 -31 -32 -59.5t-65 -46.5q-18 -7 -43 -11.5
t-52 -5.5q-7 -1 -14.5 -1h-14.5h-6.5h-6.5q-34 1 -66.5 6t-53.5 12q-39 18 -61 41.5t-33 48.5q-9 22 -11.5 43t-2.5 38v4v5v2.5t1 2.5v7v5v273v8.5t-1 9.5q-2 10 -7 20.5t-16 16.5v120v0zM219 705l42 114h126l-79 -114h-89v0z" />
    <glyph glyph-name="Ucircumflex" unicode="&#xdb;" horiz-adv-x="552" 
d="M16 652h251v-120q-17 -9 -20.5 -27.5t-3.5 -38.5v-3v-2v-251q0 -37 5 -57.5t36 -20.5q24 0 30 14t6 36v298v4v3q-1 15 -5.5 27.5t-18.5 17.5v120h245v-120q-22 -13 -26 -37.5t-4 -51.5v-244q0 -18 -1.5 -40t-8.5 -46q-10 -31 -32 -59.5t-65 -46.5q-18 -7 -43 -11.5
t-52 -5.5q-7 -1 -14.5 -1h-14.5h-6.5h-6.5q-34 1 -66.5 6t-53.5 12q-39 18 -61 41.5t-33 48.5q-9 22 -11.5 43t-2.5 38v4v5v2.5t1 2.5v7v5v273v8.5t-1 9.5q-2 10 -7 20.5t-16 16.5v120v0zM296 753l-29 -48h-108l90 126h89l90 -126h-102l-30 48v0z" />
    <glyph glyph-name="Ugrave" unicode="&#xd9;" horiz-adv-x="552" 
d="M16 652h251v-120q-17 -9 -20.5 -27.5t-3.5 -38.5v-3v-2v-251q0 -37 5 -57.5t36 -20.5q24 0 30 14t6 36v298v4v3q-1 15 -5.5 27.5t-18.5 17.5v120h245v-120q-22 -13 -26 -37.5t-4 -51.5v-244q0 -18 -1.5 -40t-8.5 -46q-10 -31 -32 -59.5t-65 -46.5q-18 -7 -43 -11.5
t-52 -5.5q-7 -1 -14.5 -1h-14.5h-6.5h-6.5q-34 1 -66.5 6t-53.5 12q-39 18 -61 41.5t-33 48.5q-9 22 -11.5 43t-2.5 38v4v5v2.5t1 2.5v7v5v273v8.5t-1 9.5q-2 10 -7 20.5t-16 16.5v120v0zM196 831h130l41 -126h-88l-83 126v0z" />
    <glyph glyph-name="dotlessi" unicode="&#x131;" 
 />
    <glyph glyph-name="circumflex" unicode="&#x2dc;" 
 />
    <glyph glyph-name="tilde" unicode="&#x2c6;" 
 />
    <glyph glyph-name="macron" unicode="&#x2c9;" 
 />
    <glyph glyph-name="breve" unicode="&#x2d8;" 
 />
    <glyph glyph-name="dotaccent" unicode="&#x2d9;" 
 />
    <glyph glyph-name="ring" unicode="&#x2da;" 
 />
    <glyph glyph-name="cedilla" unicode="&#xb8;" horiz-adv-x="247" 
d="M55 -170v59h53v41h-24q-13 1 -15 6t-2 19v46h65v-29q18 1 29.5 -5t11.5 -24v-72q0 -22 -4.5 -31t-30.5 -9l-83 -1v0z" />
    <glyph glyph-name="hungarumlaut" unicode="&#x2ba;" 
 />
    <glyph glyph-name="ogonek" unicode="&#x2db;" 
 />
    <glyph glyph-name="caron" unicode="&#x2c7;" 
 />
    <glyph glyph-name="Lslash" unicode="&#x141;" 
 />
    <glyph glyph-name="lslash" unicode="&#x142;" 
 />
    <glyph glyph-name="Scaron" unicode="&#x160;" 
 />
    <glyph glyph-name="scaron" unicode="&#x161;" 
 />
    <glyph glyph-name="Zcaron" unicode="&#x17d;" 
 />
    <glyph glyph-name="zcaron" unicode="&#x17e;" 
 />
    <glyph glyph-name="brokenbar" unicode="&#xa6;" 
 />
    <glyph glyph-name="Eth" unicode="&#xd0;" 
 />
    <glyph glyph-name="eth" unicode="&#xf0;" 
 />
    <glyph glyph-name="Yacute" unicode="&#xdd;" 
 />
    <glyph glyph-name="yacute" unicode="&#xfd;" 
 />
    <glyph glyph-name="Thorn" unicode="&#xde;" 
 />
    <glyph glyph-name="thorn" unicode="&#xfe;" 
 />
    <glyph glyph-name="minus" unicode="&#x2212;" horiz-adv-x="268" 
d="M0 335h256v-156h-256v156v0z" />
    <glyph glyph-name="multiply" unicode="&#xd7;" horiz-adv-x="795" 
d="M501 281v-143q31 0 51.5 7.5t20.5 33.5v67h186v-245h-408q-16 -4 -39.5 -8t-49.5 -4q-15 0 -31.5 1.5t-33.5 4.5q-67 12 -123 55t-56 129v282q0 107 55 151t121 54q14 2 28 3t27 1q28 0 53.5 -3.5t42.5 -7.5q9 -2 15 -3.5t9 -3.5h390v-215h-186v42q0 20 -15.5 26.5
t-33.5 7.5q-6 1 -12 1h-11v-113h138v-120h-138v0zM298 193v286q0 20 -10 31t-22 13q-2 1 -3.5 1h-3.5q-14 0 -26 -11.5t-12 -33.5v-286q0 -29 12 -44.5t26 -15.5q15 0 27 15.5t12 44.5v0z" />
    <glyph glyph-name="onesuperior" unicode="&#xb9;" 
 />
    <glyph glyph-name="twosuperior" unicode="&#xb2;" 
 />
    <glyph glyph-name="threesuperior" unicode="&#xb3;" 
 />
    <glyph glyph-name="onehalf" unicode="&#xbd;" 
 />
    <glyph glyph-name="onequarter" unicode="&#xbc;" 
 />
    <glyph glyph-name="threequarters" unicode="&#xbe;" 
 />
    <glyph glyph-name="franc" unicode="&#x20a3;" horiz-adv-x="500" 
 />
    <glyph glyph-name="Gbreve" unicode="&#x11e;" 
 />
    <glyph glyph-name="gbreve" unicode="&#x11f;" 
 />
    <glyph glyph-name="Idot" unicode="&#x130;" 
 />
    <glyph glyph-name="Scedilla" unicode="&#x15e;" 
 />
    <glyph glyph-name="scedilla" unicode="&#x15f;" 
 />
    <glyph glyph-name="Cacute" unicode="&#x106;" 
 />
    <glyph glyph-name="cacute" unicode="&#x107;" 
 />
    <glyph glyph-name="Ccaron" unicode="&#x10c;" 
 />
    <glyph glyph-name="ccaron" unicode="&#x10d;" 
 />
    <glyph glyph-name="dslash" unicode="&#x111;" 
 />
    <glyph glyph-name="arrowright" unicode="&#x2192;" horiz-adv-x="500" 
 />
    <glyph glyph-name="house" unicode="&#x2302;" 
 />
    <glyph glyph-name="endash" unicode="&#x2013;" 
 />
    <glyph glyph-name="sfthyphen" unicode="&#xad;" horiz-adv-x="500" 
 />
    <glyph glyph-name="filledbox" unicode="&#x25a0;" horiz-adv-x="500" 
 />
    <glyph glyph-name="bullet" unicode="&#x2022;" horiz-adv-x="289" 
d="M58 658h132l41 -126h-90l-83 126v0z" />
    <glyph glyph-name="overstore" unicode="&#xaf;" 
 />
    <glyph glyph-name="degree" unicode="&#xb0;" horiz-adv-x="327" 
d="M71 604q0 40 29 61t63 22h1.5h1.5h6t6 -1q29 -2 54.5 -20.5t29.5 -55.5v-7q0 -46 -28.5 -71t-61.5 -27h-3.5h-2.5h-1.5h-1.5q-34 1 -63 27t-29 72v0zM136 599q0 -13 8.5 -22.5t21.5 -9.5q2 0 5 0.5t6 2.5q7 4 13.5 11.5t6.5 17.5q0 12 -9 18.5t-19 7.5h-1.5h-1.5
q-11 0 -20.5 -6.5t-9.5 -19.5v0z" />
    <glyph glyph-name="middot" unicode="&#xb7;" 
 />
    <glyph glyph-name="underscoredbl" unicode="&#x2017;" horiz-adv-x="500" 
 />
    <glyph glyph-name="exclamdbl" unicode="&#x203c;" horiz-adv-x="500" 
 />
    <glyph glyph-name="nsuperior" unicode="&#x207f;" horiz-adv-x="500" 
 />
    <glyph glyph-name="peseta" unicode="&#x20a7;" horiz-adv-x="500" 
 />
    <glyph glyph-name="Gamma" unicode="&#x393;" horiz-adv-x="500" 
 />
    <glyph glyph-name="Theta" unicode="&#x398;" horiz-adv-x="500" 
 />
    <glyph glyph-name="Phi" unicode="&#x3a6;" horiz-adv-x="500" 
 />
    <glyph glyph-name="alpha" unicode="&#x3b1;" horiz-adv-x="500" 
 />
    <glyph glyph-name="delta" unicode="&#x3b4;" horiz-adv-x="500" 
 />
    <glyph glyph-name="epsilon" unicode="&#x3b5;" horiz-adv-x="500" 
 />
    <glyph glyph-name="sigma" unicode="&#x3c3;" 
 />
    <glyph glyph-name="tau" unicode="&#x3c4;" horiz-adv-x="500" 
 />
    <glyph glyph-name="phi" unicode="&#x3c6;" 
 />
    <glyph glyph-name="arrowleft" unicode="&#x2190;" 
 />
    <glyph glyph-name="arrowup" unicode="&#x2191;" 
 />
    <glyph glyph-name="arrowdown" unicode="&#x2193;" 
 />
    <glyph glyph-name="arrowboth" unicode="&#x2194;" 
 />
    <glyph glyph-name="arrowupdn" unicode="&#x2195;" 
 />
    <glyph glyph-name="arrowupdnbase" unicode="&#x21a8;" 
 />
    <glyph glyph-name="orthogonal" unicode="&#x221f;" 
 />
    <glyph glyph-name="intersection" unicode="&#x2229;" 
 />
    <glyph glyph-name="equivalence" unicode="&#x2261;" 
 />
    <glyph glyph-name="revlogicalnot" unicode="&#x2310;" 
 />
    <glyph glyph-name="integraltp" unicode="&#x2320;" 
 />
    <glyph glyph-name="integralbt" unicode="&#x2321;" 
 />
    <glyph glyph-name="filledrect" unicode="&#x25ac;" 
 />
    <glyph glyph-name="circle" unicode="&#x25cb;" 
 />
    <glyph glyph-name="triagup" unicode="&#x25b2;" 
 />
    <glyph glyph-name="triagrt" unicode="&#x25ba;" 
 />
    <glyph glyph-name="triagdn" unicode="&#x25bc;" 
 />
    <glyph glyph-name="triaglf" unicode="&#x25c4;" 
 />
    <glyph glyph-name="invbullet" unicode="&#x25d8;" 
 />
    <glyph glyph-name="invcircle" unicode="&#x25d9;" 
 />
    <glyph glyph-name="Rcaron" unicode="&#x158;" 
 />
    <glyph glyph-name="upblock" unicode="&#x2580;" 
 />
    <glyph glyph-name="dnblock" unicode="&#x2584;" 
 />
    <glyph glyph-name="block" unicode="&#x2588;" 
 />
    <glyph glyph-name="lfblock" unicode="&#x258c;" 
 />
    <glyph glyph-name="rtblock" unicode="&#x2590;" 
 />
    <glyph glyph-name="ltshade" unicode="&#x2591;" 
 />
    <glyph glyph-name="shade" unicode="&#x2592;" 
 />
    <glyph glyph-name="dkshade" unicode="&#x2593;" 
 />
    <glyph glyph-name="smileface" unicode="&#x263a;" 
 />
    <glyph glyph-name="invsmileface" unicode="&#x263b;" 
 />
    <glyph glyph-name="sun" unicode="&#x263c;" 
 />
    <glyph glyph-name="female" unicode="&#x2640;" 
 />
    <glyph glyph-name="male" unicode="&#x2642;" 
 />
    <glyph glyph-name="spade" unicode="&#x2660;" 
 />
    <glyph glyph-name="club" unicode="&#x2663;" 
 />
    <glyph glyph-name="heart" unicode="&#x2665;" 
 />
    <glyph glyph-name="diamond" unicode="&#x2666;" 
 />
    <glyph glyph-name="musicalnote" unicode="&#x266a;" 
 />
    <glyph glyph-name="musicalnotedbl" unicode="&#x266b;" 
 />
    <glyph glyph-name="Abreve" unicode="&#x102;" 
 />
    <glyph glyph-name="abreve" unicode="&#x103;" 
 />
    <glyph glyph-name="Aogonek" unicode="&#x104;" 
 />
    <glyph glyph-name="aogonek" unicode="&#x105;" 
 />
    <glyph glyph-name="Dcaron" unicode="&#x10e;" 
 />
    <glyph glyph-name="dcaron" unicode="&#x10f;" 
 />
    <glyph glyph-name="Dslash" unicode="&#x110;" 
 />
    <glyph glyph-name="Eogonek" unicode="&#x118;" 
 />
    <glyph glyph-name="eogonek" unicode="&#x119;" 
 />
    <glyph glyph-name="Ecaron" unicode="&#x11a;" 
 />
    <glyph glyph-name="ecaron" unicode="&#x11b;" 
 />
    <glyph glyph-name="Lacute" unicode="&#x139;" 
 />
    <glyph glyph-name="lacute" unicode="&#x13a;" 
 />
    <glyph glyph-name="Lcaron" unicode="&#x13d;" 
 />
    <glyph glyph-name="lcaron" unicode="&#x13e;" 
 />
    <glyph glyph-name="Nacute" unicode="&#x143;" 
 />
    <glyph glyph-name="nacute" unicode="&#x144;" 
 />
    <glyph glyph-name="Ncaron" unicode="&#x147;" 
 />
    <glyph glyph-name="ncaron" unicode="&#x148;" 
 />
    <glyph glyph-name="Odblacute" unicode="&#x150;" 
 />
    <glyph glyph-name="odblacute" unicode="&#x151;" 
 />
    <glyph glyph-name="Racute" unicode="&#x154;" 
 />
    <glyph glyph-name="racute" unicode="&#x155;" 
 />
    <glyph glyph-name="rcaron" unicode="&#x159;" 
 />
    <glyph glyph-name="Sacute" unicode="&#x15a;" 
 />
    <glyph glyph-name="sacute" unicode="&#x15b;" 
 />
    <glyph glyph-name="Tcedilla" unicode="&#x162;" 
 />
    <glyph glyph-name="tcedilla" unicode="&#x163;" 
 />
    <glyph glyph-name="Tcaron" unicode="&#x164;" 
 />
    <glyph glyph-name="tcaron" unicode="&#x165;" 
 />
    <glyph glyph-name="Uring" unicode="&#x16e;" 
 />
    <glyph glyph-name="uring" unicode="&#x16f;" 
 />
    <glyph glyph-name="Udblacute" unicode="&#x171;" 
 />
    <glyph glyph-name="udblacute" unicode="&#x170;" 
 />
    <glyph glyph-name="Zacute" unicode="&#x179;" 
 />
    <glyph glyph-name="zacute" unicode="&#x17a;" 
 />
    <glyph glyph-name="Zdot" unicode="&#x17b;" 
 />
    <glyph glyph-name="zdot" unicode="&#x17c;" 
 />
    <glyph glyph-name="Ldot" unicode="&#x13f;" 
 />
    <glyph glyph-name="ldot" unicode="&#x140;" 
 />
    <glyph glyph-name="2500" unicode="&#x2500;" 
 />
    <glyph glyph-name="2502" unicode="&#x2502;" 
 />
    <glyph glyph-name="250c" unicode="&#x250c;" 
 />
    <glyph glyph-name="2510" unicode="&#x2510;" 
 />
    <glyph glyph-name="2514" unicode="&#x2514;" 
 />
    <glyph glyph-name="2518" unicode="&#x2518;" 
 />
    <glyph glyph-name="251c" unicode="&#x251c;" 
 />
    <glyph glyph-name="2524" unicode="&#x2524;" 
 />
    <glyph glyph-name="252c" unicode="&#x252c;" 
 />
    <glyph glyph-name="2534" unicode="&#x2534;" 
 />
    <glyph glyph-name="253c" unicode="&#x253c;" 
 />
    <glyph glyph-name="2550" unicode="&#x2550;" 
 />
    <glyph glyph-name="2551" unicode="&#x2551;" 
 />
    <glyph glyph-name="2552" unicode="&#x2552;" 
 />
    <glyph glyph-name="2553" unicode="&#x2553;" 
 />
    <glyph glyph-name="2554" unicode="&#x2554;" 
 />
    <glyph glyph-name="2555" unicode="&#x2555;" 
 />
    <glyph glyph-name="2556" unicode="&#x2556;" 
 />
    <glyph glyph-name="2557" unicode="&#x2557;" 
 />
    <glyph glyph-name="2558" unicode="&#x2558;" 
 />
    <glyph glyph-name="2559" unicode="&#x2559;" 
 />
    <glyph glyph-name="255a" unicode="&#x255a;" 
 />
    <glyph glyph-name="255b" unicode="&#x255b;" 
 />
    <glyph glyph-name="255c" unicode="&#x255c;" 
 />
    <glyph glyph-name="255d" unicode="&#x255d;" 
 />
    <glyph glyph-name="255e" unicode="&#x255e;" 
 />
    <glyph glyph-name="255f" unicode="&#x255f;" 
 />
    <glyph glyph-name="2560" unicode="&#x2560;" 
 />
    <glyph glyph-name="2561" unicode="&#x2561;" 
 />
    <glyph glyph-name="2562" unicode="&#x2562;" 
 />
    <glyph glyph-name="2563" unicode="&#x2563;" 
 />
    <glyph glyph-name="2564" unicode="&#x2564;" 
 />
    <glyph glyph-name="2565" unicode="&#x2565;" 
 />
    <glyph glyph-name="2566" unicode="&#x2566;" 
 />
    <glyph glyph-name="2567" unicode="&#x2567;" 
 />
    <glyph glyph-name="2568" unicode="&#x2568;" 
 />
    <glyph glyph-name="2569" unicode="&#x2569;" 
 />
    <glyph glyph-name="256a" unicode="&#x256a;" 
 />
    <glyph glyph-name="256b" unicode="&#x256b;" 
 />
    <glyph glyph-name="256c" unicode="&#x256c;" 
 />
    </font>
</defs>
</svg>
