<?xml version="1.0" standalone="no"?>
<!DOCTYPE svg PUBLIC "-//W3C//DTD SVG 1.1//EN" "http://www.w3.org/Graphics/SVG/1.1/DTD/svg11.dtd" >
<svg>
<metadata>
Created by FontForge 20120731 at Thu Nov  5 10:41:49 2015
 By www-data
</metadata>
<defs>
<font id="Aachen-Bold" horiz-adv-x="0" >
  <font-face 
    font-family="Aachen"
    font-weight="700"
    font-stretch="normal"
    units-per-em="2048"
    panose-1="2 2 5 0 0 0 0 0 0 0"
    ascent="1638"
    descent="-410"
    x-height="1118"
    cap-height="1522"
    bbox="-895 -483 2312 2241"
    underline-thickness="99"
    underline-position="-48"
    unicode-range="U+0020-F02A"
  />
<missing-glyph horiz-adv-x="1536" 
d="M256 0v1280h1024v-1280h-1024zM1247 33v1214h-958v-1214h958z" />
    <glyph glyph-name=".notdef" horiz-adv-x="1536" 
d="M256 0v1280h1024v-1280h-1024zM1247 33v1214h-958v-1214h958z" />
    <glyph glyph-name=".null" 
 />
    <glyph glyph-name="nonmarkingreturn" 
 />
    <glyph glyph-name="space" unicode=" " horiz-adv-x="621" 
 />
    <glyph glyph-name="space" unicode="&#x2031;" horiz-adv-x="621" 
 />
    <glyph glyph-name="space" unicode="&#x2025;" horiz-adv-x="621" 
 />
    <glyph glyph-name="space" unicode="&#x2024;" horiz-adv-x="621" 
 />
    <glyph glyph-name="space" unicode="&#x2023;" horiz-adv-x="621" 
 />
    <glyph glyph-name="space" unicode="&#x201f;" horiz-adv-x="621" 
 />
    <glyph glyph-name="space" unicode="&#x201b;" horiz-adv-x="621" 
 />
    <glyph glyph-name="space" unicode="&#x2017;" horiz-adv-x="621" 
 />
    <glyph glyph-name="space" unicode="&#x2016;" horiz-adv-x="621" 
 />
    <glyph glyph-name="space" unicode="&#x2015;" horiz-adv-x="621" 
 />
    <glyph glyph-name="exclam" unicode="!" horiz-adv-x="621" 
d="M223 481l-96 789q-8 63 -8 94q0 88 51 138t139 50q90 0 141.5 -49t51.5 -139q0 -31 -8 -94l-99 -789h-172zM137 154q0 68 51 120t121 52q49 0 88 -23t61.5 -61.5t22.5 -87.5q0 -71 -51.5 -121.5t-120.5 -50.5t-120.5 51.5t-51.5 120.5z" />
    <glyph glyph-name="quotedbl" unicode="&#x22;" horiz-adv-x="678" 
d="M80 1438h192v-559h-192v559zM406 1438h192v-559h-192v559z" />
    <glyph glyph-name="numbersign" unicode="#" horiz-adv-x="1575" 
d="M709 1464h221l-146 -415h242l148 415h221l-148 -415h283l-74 -201h-280l-84 -242h290l-71 -200h-291l-148 -416h-221l148 416h-244l-149 -416h-220l146 416h-287l76 200h282l86 242h-299l74 201h297zM709 848l-88 -242h251l86 242h-249z" />
    <glyph glyph-name="dollar" unicode="$" horiz-adv-x="1241" 
d="M115 145v381h344v-30q0 -110 43 -162.5t135 -52.5q70 0 115 43t45 116t-51.5 120t-159.5 87q-70 25 -126 45.5t-110.5 47t-93.5 57.5q-49 39 -82 85t-48 103t-15 125q0 173 94 282t274 148v105h293v-105q91 -18 178.5 -54t171.5 -100v-358h-336v27q0 99 -41 149.5
t-122 50.5q-77 0 -122.5 -39.5t-45.5 -101.5q0 -48 30 -81t89.5 -60t162.5 -62q151 -52 238 -107t130.5 -139.5t43.5 -218.5q0 -123 -44.5 -219.5t-130.5 -159t-202 -83.5v-101h-293v99q-217 40 -364 163z" />
    <glyph glyph-name="percent" unicode="%" horiz-adv-x="1612" 
d="M494 0h-256l876 1522h256zM55 1241q0 107 29 168.5t96 87t187 25.5q116 0 183.5 -25t98.5 -86t31 -170v-145q0 -108 -30.5 -169t-97.5 -86.5t-185 -25.5q-121 0 -187.5 26t-95.5 86.5t-29 168.5v145zM283 1278v-219q0 -61 20.5 -90t65.5 -29q86 0 86 119v219
q0 119 -86 119q-44 0 -65 -29t-21 -90zM928 424q0 109 31 170t98 87t184 26q118 0 185 -26t97.5 -87t30.5 -170v-145q0 -110 -31 -170.5t-98.5 -85.5t-183.5 -25t-183.5 25t-98.5 85.5t-31 170.5v145zM1157 461v-217q0 -121 84 -121q86 0 86 121v217q0 121 -86 121
q-44 0 -64 -29.5t-20 -91.5z" />
    <glyph glyph-name="percent" unicode="&#x202f;" horiz-adv-x="1612" 
d="M494 0h-256l876 1522h256zM55 1241q0 107 29 168.5t96 87t187 25.5q116 0 183.5 -25t98.5 -86t31 -170v-145q0 -108 -30.5 -169t-97.5 -86.5t-185 -25.5q-121 0 -187.5 26t-95.5 86.5t-29 168.5v145zM283 1278v-219q0 -61 20.5 -90t65.5 -29q86 0 86 119v219
q0 119 -86 119q-44 0 -65 -29t-21 -90zM928 424q0 109 31 170t98 87t184 26q118 0 185 -26t97.5 -87t30.5 -170v-145q0 -110 -31 -170.5t-98.5 -85.5t-183.5 -25t-183.5 25t-98.5 85.5t-31 170.5v145zM1157 461v-217q0 -121 84 -121q86 0 86 121v217q0 121 -86 121
q-44 0 -64 -29.5t-20 -91.5z" />
    <glyph glyph-name="percent" unicode="&#x202e;" horiz-adv-x="1612" 
d="M494 0h-256l876 1522h256zM55 1241q0 107 29 168.5t96 87t187 25.5q116 0 183.5 -25t98.5 -86t31 -170v-145q0 -108 -30.5 -169t-97.5 -86.5t-185 -25.5q-121 0 -187.5 26t-95.5 86.5t-29 168.5v145zM283 1278v-219q0 -61 20.5 -90t65.5 -29q86 0 86 119v219
q0 119 -86 119q-44 0 -65 -29t-21 -90zM928 424q0 109 31 170t98 87t184 26q118 0 185 -26t97.5 -87t30.5 -170v-145q0 -110 -31 -170.5t-98.5 -85.5t-183.5 -25t-183.5 25t-98.5 85.5t-31 170.5v145zM1157 461v-217q0 -121 84 -121q86 0 86 121v217q0 121 -86 121
q-44 0 -64 -29.5t-20 -91.5z" />
    <glyph glyph-name="percent" unicode="&#x202d;" horiz-adv-x="1612" 
d="M494 0h-256l876 1522h256zM55 1241q0 107 29 168.5t96 87t187 25.5q116 0 183.5 -25t98.5 -86t31 -170v-145q0 -108 -30.5 -169t-97.5 -86.5t-185 -25.5q-121 0 -187.5 26t-95.5 86.5t-29 168.5v145zM283 1278v-219q0 -61 20.5 -90t65.5 -29q86 0 86 119v219
q0 119 -86 119q-44 0 -65 -29t-21 -90zM928 424q0 109 31 170t98 87t184 26q118 0 185 -26t97.5 -87t30.5 -170v-145q0 -110 -31 -170.5t-98.5 -85.5t-183.5 -25t-183.5 25t-98.5 85.5t-31 170.5v145zM1157 461v-217q0 -121 84 -121q86 0 86 121v217q0 121 -86 121
q-44 0 -64 -29.5t-20 -91.5z" />
    <glyph glyph-name="percent" unicode="&#x202c;" horiz-adv-x="1612" 
d="M494 0h-256l876 1522h256zM55 1241q0 107 29 168.5t96 87t187 25.5q116 0 183.5 -25t98.5 -86t31 -170v-145q0 -108 -30.5 -169t-97.5 -86.5t-185 -25.5q-121 0 -187.5 26t-95.5 86.5t-29 168.5v145zM283 1278v-219q0 -61 20.5 -90t65.5 -29q86 0 86 119v219
q0 119 -86 119q-44 0 -65 -29t-21 -90zM928 424q0 109 31 170t98 87t184 26q118 0 185 -26t97.5 -87t30.5 -170v-145q0 -110 -31 -170.5t-98.5 -85.5t-183.5 -25t-183.5 25t-98.5 85.5t-31 170.5v145zM1157 461v-217q0 -121 84 -121q86 0 86 121v217q0 121 -86 121
q-44 0 -64 -29.5t-20 -91.5z" />
    <glyph glyph-name="percent" unicode="&#x202b;" horiz-adv-x="1612" 
d="M494 0h-256l876 1522h256zM55 1241q0 107 29 168.5t96 87t187 25.5q116 0 183.5 -25t98.5 -86t31 -170v-145q0 -108 -30.5 -169t-97.5 -86.5t-185 -25.5q-121 0 -187.5 26t-95.5 86.5t-29 168.5v145zM283 1278v-219q0 -61 20.5 -90t65.5 -29q86 0 86 119v219
q0 119 -86 119q-44 0 -65 -29t-21 -90zM928 424q0 109 31 170t98 87t184 26q118 0 185 -26t97.5 -87t30.5 -170v-145q0 -110 -31 -170.5t-98.5 -85.5t-183.5 -25t-183.5 25t-98.5 85.5t-31 170.5v145zM1157 461v-217q0 -121 84 -121q86 0 86 121v217q0 121 -86 121
q-44 0 -64 -29.5t-20 -91.5z" />
    <glyph glyph-name="percent" unicode="&#x202a;" horiz-adv-x="1612" 
d="M494 0h-256l876 1522h256zM55 1241q0 107 29 168.5t96 87t187 25.5q116 0 183.5 -25t98.5 -86t31 -170v-145q0 -108 -30.5 -169t-97.5 -86.5t-185 -25.5q-121 0 -187.5 26t-95.5 86.5t-29 168.5v145zM283 1278v-219q0 -61 20.5 -90t65.5 -29q86 0 86 119v219
q0 119 -86 119q-44 0 -65 -29t-21 -90zM928 424q0 109 31 170t98 87t184 26q118 0 185 -26t97.5 -87t30.5 -170v-145q0 -110 -31 -170.5t-98.5 -85.5t-183.5 -25t-183.5 25t-98.5 85.5t-31 170.5v145zM1157 461v-217q0 -121 84 -121q86 0 86 121v217q0 121 -86 121
q-44 0 -64 -29.5t-20 -91.5z" />
    <glyph glyph-name="percent" unicode="&#x2029;" horiz-adv-x="1612" 
d="M494 0h-256l876 1522h256zM55 1241q0 107 29 168.5t96 87t187 25.5q116 0 183.5 -25t98.5 -86t31 -170v-145q0 -108 -30.5 -169t-97.5 -86.5t-185 -25.5q-121 0 -187.5 26t-95.5 86.5t-29 168.5v145zM283 1278v-219q0 -61 20.5 -90t65.5 -29q86 0 86 119v219
q0 119 -86 119q-44 0 -65 -29t-21 -90zM928 424q0 109 31 170t98 87t184 26q118 0 185 -26t97.5 -87t30.5 -170v-145q0 -110 -31 -170.5t-98.5 -85.5t-183.5 -25t-183.5 25t-98.5 85.5t-31 170.5v145zM1157 461v-217q0 -121 84 -121q86 0 86 121v217q0 121 -86 121
q-44 0 -64 -29.5t-20 -91.5z" />
    <glyph glyph-name="percent" unicode="&#x2028;" horiz-adv-x="1612" 
d="M494 0h-256l876 1522h256zM55 1241q0 107 29 168.5t96 87t187 25.5q116 0 183.5 -25t98.5 -86t31 -170v-145q0 -108 -30.5 -169t-97.5 -86.5t-185 -25.5q-121 0 -187.5 26t-95.5 86.5t-29 168.5v145zM283 1278v-219q0 -61 20.5 -90t65.5 -29q86 0 86 119v219
q0 119 -86 119q-44 0 -65 -29t-21 -90zM928 424q0 109 31 170t98 87t184 26q118 0 185 -26t97.5 -87t30.5 -170v-145q0 -110 -31 -170.5t-98.5 -85.5t-183.5 -25t-183.5 25t-98.5 85.5t-31 170.5v145zM1157 461v-217q0 -121 84 -121q86 0 86 121v217q0 121 -86 121
q-44 0 -64 -29.5t-20 -91.5z" />
    <glyph glyph-name="percent" unicode="&#x2027;" horiz-adv-x="1612" 
d="M494 0h-256l876 1522h256zM55 1241q0 107 29 168.5t96 87t187 25.5q116 0 183.5 -25t98.5 -86t31 -170v-145q0 -108 -30.5 -169t-97.5 -86.5t-185 -25.5q-121 0 -187.5 26t-95.5 86.5t-29 168.5v145zM283 1278v-219q0 -61 20.5 -90t65.5 -29q86 0 86 119v219
q0 119 -86 119q-44 0 -65 -29t-21 -90zM928 424q0 109 31 170t98 87t184 26q118 0 185 -26t97.5 -87t30.5 -170v-145q0 -110 -31 -170.5t-98.5 -85.5t-183.5 -25t-183.5 25t-98.5 85.5t-31 170.5v145zM1157 461v-217q0 -121 84 -121q86 0 86 121v217q0 121 -86 121
q-44 0 -64 -29.5t-20 -91.5z" />
    <glyph glyph-name="ampersand" unicode="&#x26;" horiz-adv-x="1282" 
d="M1128 0h-516q-137 0 -230.5 21.5t-158.5 73.5t-96 140.5t-31 217.5q0 299 236 364q-215 100 -215 326q0 125 59 216.5t171 141t269 49.5q132 0 261.5 -37t250.5 -108v-262h-335q-3 31 -22 54t-52.5 36.5t-71.5 13.5q-78 0 -122 -43t-44 -119q0 -80 52 -115.5t161 -35.5
h111v53h323v-53h60v-246h-60v-688zM805 319v369h-143q-111 0 -159 -39t-48 -141q0 -72 24 -114t74 -58.5t129 -16.5h123z" />
    <glyph glyph-name="quotesingle" unicode="'" horiz-adv-x="352" 
d="M80 1438h192v-559h-192v559z" />
    <glyph glyph-name="parenleft" unicode="(" horiz-adv-x="793" 
d="M725 -229l-162 -111q-114 123 -195 242t-136 240t-83 250t-28 263t28 263.5t82.5 250.5t136 240t195.5 242l162 -111q-64 -99 -112 -203t-84.5 -226t-53 -231.5t-16.5 -224.5q0 -113 16.5 -223.5t53.5 -232t85 -226t111 -202.5z" />
    <glyph glyph-name="parenright" unicode=")" horiz-adv-x="793" 
d="M68 -229q63 98 113 205.5t83.5 219.5t50.5 225.5t17 233.5q0 121 -17.5 235.5t-51 226.5t-82.5 219t-113 204l159 111q110 -117 194 -239t140.5 -247t83.5 -249.5t27 -260.5t-27 -260.5t-83.5 -250t-138.5 -244.5t-196 -240z" />
    <glyph glyph-name="asterisk" unicode="*" horiz-adv-x="854" 
d="M348 864v215l-194 -104l-68 127l184 106l-184 107l68 129l194 -103v211h154v-211l188 103l76 -129l-191 -107l191 -106l-76 -127l-188 104v-215h-154z" />
    <glyph glyph-name="asterisk" horiz-adv-x="854" 
d="M348 864v215l-194 -104l-68 127l184 106l-184 107l68 129l194 -103v211h154v-211l188 103l76 -129l-191 -107l191 -106l-76 -127l-188 104v-215h-154z" />
    <glyph glyph-name="plus" unicode="+" horiz-adv-x="1706" 
d="M752 1221h202v-510h498v-199h-498v-512h-202v512h-498v199h498v510z" />
    <glyph glyph-name="comma" unicode="," horiz-adv-x="621" 
d="M240 -193l-52 78q86 61 101 117q-66 12 -100.5 53t-34.5 101q0 65 46 108t111 43q45 0 82.5 -21.5t58.5 -62.5t21 -92q0 -90 -61 -176t-172 -148z" />
    <glyph glyph-name="hyphen" unicode="-" horiz-adv-x="782" 
d="M117 453v245h549v-245h-549z" />
    <glyph glyph-name="period" unicode="." horiz-adv-x="621" 
d="M147 143q0 42 22.5 80t60.5 61t81 23q69 0 115.5 -48.5t46.5 -115.5q0 -68 -47.5 -114.5t-114.5 -46.5q-64 0 -114 49t-50 112z" />
    <glyph glyph-name="slash" unicode="/" horiz-adv-x="664" 
d="M174 -190h-270l536 1712h271z" />
    <glyph glyph-name="zero" unicode="0" horiz-adv-x="1241" 
d="M1133 512q0 -153 -14.5 -240t-69.5 -155q-61 -77 -165 -112.5t-263 -35.5q-157 0 -262 35.5t-166 112.5q-38 47 -55.5 105t-22 120t-4.5 170v500q0 108 5 169.5t22.5 119t54.5 104.5q61 78 166 112.5t262 34.5t262 -34.5t166 -112.5q54 -68 69 -156.5t15 -236.5v-500z
M782 498v526q0 116 -36.5 168.5t-124.5 52.5t-124 -53.5t-36 -167.5v-526q0 -116 36.5 -170t123.5 -54t124 53.5t37 170.5z" />
    <glyph glyph-name="one" unicode="1" horiz-adv-x="1241" 
d="M371 1522h428v-1108q0 -60 4 -87t20 -45.5t51 -25.5v-256h-503v256q34 7 51.5 25t22 49t4.5 84v704q0 83 -13.5 115t-64.5 43v246z" />
    <glyph glyph-name="two" unicode="2" horiz-adv-x="1241" 
d="M129 1004v409q94 64 226.5 101.5t271.5 37.5q175 0 287 -42t166.5 -131.5t54.5 -229.5q0 -100 -27.5 -172.5t-76 -124.5t-138.5 -123l-334 -264q-51 -41 -73.5 -74t-22.5 -84v-12h149q68 0 101.5 13t45 42t11.5 88v47h373v-485h-1041v356q0 79 17.5 137t51.5 100t99 93
l389 305q57 44 83 80.5t26 79.5q0 63 -36 98t-103 35q-78 0 -122 -44t-44 -124v-112h-334z" />
    <glyph glyph-name="three" unicode="3" horiz-adv-x="1241" 
d="M111 1071v346q69 43 150.5 73t170 46t186.5 16q241 0 368.5 -107t127.5 -310q0 -139 -64 -224t-198 -123q274 -40 274 -366q0 -453 -524 -453q-87 0 -171.5 15.5t-168.5 46t-168 78.5v362h346v-12q0 -183 166 -183q76 0 117 46t41 135q0 72 -22.5 112.5t-68.5 57
t-120 16.5h-191v258h203q97 0 150 46t53 128q0 84 -46 128t-128 44q-141 0 -152 -176h-331z" />
    <glyph glyph-name="four" unicode="4" horiz-adv-x="1241" 
d="M680 694v480l-313 -480h313zM1016 1522v-828h100v-288h-100v-21q0 -44 6 -69.5t22.5 -39.5t47.5 -20v-256h-488v256q46 9 61 37t15 92v21h-629v325l527 791h438z" />
    <glyph glyph-name="five" unicode="5" horiz-adv-x="1241" 
d="M115 1522h999v-410h-328q-4 49 -20.5 74.5t-49 34t-89.5 8.5h-164v-275q70 27 132 39.5t128 12.5q119 0 200.5 -32t132 -95t75 -159t24.5 -233q0 -180 -52.5 -294t-165 -170t-292.5 -56q-155 0 -289 36t-241 106v391h346v-8q0 -113 42 -166.5t136 -53.5q61 0 97.5 25.5
t51.5 77t15 135.5q0 119 -36 174t-124 55q-95 0 -151 -69h-377v852z" />
    <glyph glyph-name="six" unicode="6" horiz-adv-x="1241" 
d="M1114 1087h-334q-1 90 -39.5 132.5t-122.5 42.5q-104 0 -136.5 -53.5t-32.5 -184.5v-147q131 79 301 79q187 0 288 -102q64 -64 83.5 -147.5t19.5 -219.5q0 -188 -48 -300t-163.5 -165t-319.5 -53q-181 0 -292 45.5t-163.5 141.5t-52.5 247v705q0 115 31 199t91.5 138
t155 80.5t222.5 26.5q131 0 260 -30t252 -88v-347zM610 264q164 0 164 209q0 197 -164 197q-161 0 -161 -197q0 -106 39 -157.5t122 -51.5z" />
    <glyph glyph-name="seven" unicode="7" horiz-adv-x="1241" 
d="M100 1010v512h1047v-260l-541 -1262h-377l529 1229h-96q-97 0 -144.5 -13t-68.5 -55.5t-21 -132.5v-18h-328z" />
    <glyph glyph-name="eight" unicode="8" horiz-adv-x="1241" 
d="M295 788q-107 44 -153 122.5t-46 209.5q0 140 59.5 236.5t176.5 145t289 48.5q257 0 390.5 -108.5t133.5 -321.5q0 -133 -45.5 -210.5t-153.5 -121.5q111 -46 164 -136t53 -228q0 -154 -59 -254.5t-179.5 -150.5t-303.5 -50q-184 0 -304.5 50t-179.5 150.5t-59 254.5
q0 138 53 228t164 136zM621 1251q-75 0 -117.5 -44.5t-42.5 -125.5t42.5 -127.5t117.5 -46.5q76 0 117.5 45.5t41.5 126.5q0 82 -42.5 127t-116.5 45zM621 256q84 0 129 55t45 156t-44.5 155t-129.5 54q-84 0 -129.5 -53.5t-45.5 -155.5t46 -156.5t129 -54.5z" />
    <glyph glyph-name="nine" unicode="9" horiz-adv-x="1241" 
d="M135 406h326q6 -146 162 -146q71 0 107.5 24.5t49.5 75.5t13 138v125q-114 -74 -267 -74q-116 0 -196.5 29.5t-131.5 90.5t-73.5 151t-22.5 214q0 165 27 260.5t115 161.5q126 96 387 96q181 0 292 -45.5t163.5 -141.5t52.5 -247v-704q0 -114 -30 -198t-90.5 -138.5
t-154.5 -81.5t-223 -27q-262 0 -506 113v324zM631 1253q-84 0 -124 -49.5t-40 -154.5q0 -114 39.5 -169t124.5 -55q162 0 162 209q0 114 -37 166.5t-125 52.5z" />
    <glyph glyph-name="colon" unicode=":" horiz-adv-x="621" 
d="M147 143q0 42 22.5 80t60.5 61t81 23q69 0 115.5 -48.5t46.5 -115.5q0 -68 -47.5 -114.5t-114.5 -46.5q-64 0 -114 49t-50 112zM147 754q0 63 49 112t115 49q68 0 115 -47t47 -114q0 -69 -47.5 -116.5t-114.5 -47.5q-64 0 -114 50t-50 114z" />
    <glyph glyph-name="semicolon" unicode=";" horiz-adv-x="621" 
d="M147 754q0 63 49 112t115 49q68 0 115 -47t47 -114q0 -69 -47.5 -116.5t-114.5 -47.5q-64 0 -114 50t-50 114zM240 -193l-52 78q86 61 101 117q-66 12 -100.5 53t-34.5 101q0 65 46 108t111 43q45 0 82.5 -21.5t58.5 -62.5t21 -92q0 -90 -61 -176t-172 -148z" />
    <glyph glyph-name="less" unicode="&#x3c;" horiz-adv-x="1706" 
d="M1442 1194v-219l-893 -365l893 -364v-219l-1178 485v199z" />
    <glyph glyph-name="equal" unicode="=" horiz-adv-x="1706" 
d="M254 926h1198v-199h-1198v199zM254 496h1198v-199h-1198v199z" />
    <glyph glyph-name="greater" unicode="&#x3e;" horiz-adv-x="1706" 
d="M264 1194l1178 -483v-199l-1178 -485v219l895 364l-895 365v219z" />
    <glyph glyph-name="question" unicode="?" horiz-adv-x="1139" 
d="M270 479v105q0 100 27.5 153t114.5 117q52 39 146 99t131.5 100.5t37.5 95.5q0 64 -42 98.5t-122 34.5q-71 0 -110 -46t-39 -132v-41h-330v348q195 141 479 141q257 0 385.5 -104t128.5 -315q0 -118 -32 -191.5t-84.5 -118.5t-157.5 -112q-38 -24 -81 -51.5t-66.5 -49
t-36.5 -49.5t-13 -65v-17h-336zM264 154q0 68 50 120t122 52q49 0 87.5 -23t61.5 -61.5t23 -87.5q0 -48 -24 -87.5t-63.5 -62t-84.5 -22.5q-69 0 -120.5 51.5t-51.5 120.5z" />
    <glyph glyph-name="at" unicode="@" horiz-adv-x="2048" 
d="M1217 700q-26 166 -175 166q-55 0 -106 -32t-91 -90t-62.5 -135t-22.5 -165q0 -188 158 -188q54 0 104 28t86.5 78.5t54.5 120.5zM1167 272q-106 -163 -297 -163q-159 0 -241 87t-82 253q0 118 36.5 221t103.5 180t155.5 119.5t187.5 42.5q161 0 236 -131l53 98h178
l-147 -598q-7 -28 -7 -41q0 -70 95 -70q82 0 161 76q175 163 175 422q0 117 -47 216.5t-133.5 174.5t-211.5 116.5t-272 41.5q-283 0 -483 -135q-111 -74 -191.5 -177.5t-121 -225.5t-40.5 -257q0 -150 53 -275t154.5 -215t242.5 -137t310 -47q331 0 604 191l82 -117
q-308 -231 -682 -231q-97 0 -187.5 13t-170 37.5t-151 60.5t-130.5 81q-309 240 -309 637q0 339 207 594q301 367 819 367q116 0 220.5 -20.5t195.5 -60.5t160 -93q268 -208 268 -543q0 -108 -29.5 -209t-86.5 -185t-138 -149q-142 -115 -324 -115q-212 0 -215 166z" />
    <glyph glyph-name="A" unicode="A" horiz-adv-x="1223" 
d="M487 653h207l-104 582zM47 0v256q41 12 59 47.5t33 112.5l215 1106h523l237 -1131q13 -64 31.5 -94t56.5 -41v-256h-518v256q38 3 57 23t19 49q0 18 -4 45l-13 63h-294l-13 -57q-4 -28 -4 -47q0 -37 20 -56t62 -20v-256h-467z" />
    <glyph glyph-name="B" unicode="B" horiz-adv-x="1319" 
d="M102 0v256q34 7 51.5 25.5t22 45.5t4.5 87v704q0 82 -13 114.5t-65 43.5v246h586q135 0 229.5 -23.5t156.5 -72.5t93 -128t31 -190q0 -127 -54.5 -212t-158.5 -120q238 -73 238 -364q0 -117 -31.5 -196t-93 -125.5t-160.5 -68.5t-231 -22h-605zM532 297h154
q101 0 146 41.5t45 138.5q0 98 -48 140t-151 42h-146v-362zM532 920h136q95 0 139.5 32.5t44.5 114.5q0 90 -43 126t-141 36h-136v-309z" />
    <glyph glyph-name="C" unicode="C" horiz-adv-x="1237" 
d="M109 1010q0 135 10.5 216.5t48.5 145.5q57 96 167.5 138t285.5 42q249 0 491 -112v-430h-332v30q0 205 -159 205q-89 0 -125.5 -53.5t-36.5 -169.5v-522q0 -117 37 -170.5t125 -53.5t123.5 54t35.5 170v108h332v-522q-107 -56 -234 -86.5t-257 -30.5q-158 0 -264 35.5
t-167 112.5q-36 46 -53.5 103.5t-22.5 120t-5 171.5v498z" />
    <glyph glyph-name="D" unicode="D" horiz-adv-x="1305" 
d="M608 0h-506v256q34 7 51.5 25.5t22 45.5t4.5 87v704q0 82 -13 114.5t-65 43.5v246h506q225 0 351 -51t181.5 -173.5t55.5 -349.5v-364q0 -181 -28 -292t-94 -174.5t-177 -90.5t-289 -27zM532 305h103q64 0 106 9.5t64 34t30.5 63.5t8.5 106v459q0 92 -13.5 144.5t-54 77
t-123.5 24.5h-20l-101 -2v-916z" />
    <glyph glyph-name="E" unicode="E" horiz-adv-x="1262" 
d="M102 0v256q34 7 51.5 25.5t22 45.5t4.5 87v704q0 82 -13 114.5t-65 43.5v246h1072v-465h-330v16q0 90 -40 124t-142 34h-130v-318h416v-256h-416v-366h154q92 0 125 36.5t33 127.5v55h330v-510h-1072z" />
    <glyph glyph-name="F" unicode="F" horiz-adv-x="1208" 
d="M102 0v256q34 7 51.5 25.5t22 45.5t4.5 87v704q0 82 -13 114.5t-65 43.5v246h1045v-467h-309v14q0 87 -38.5 121.5t-131.5 34.5h-136v-310h396v-256h-396v-245q0 -82 15 -118t63 -40v-256h-508z" />
    <glyph glyph-name="G" unicode="G" horiz-adv-x="1237" 
d="M109 1010q0 135 10.5 216.5t48.5 145.5q57 96 167.5 138t285.5 42q249 0 491 -112v-404h-332v8q0 201 -159 201q-89 0 -125.5 -53.5t-36.5 -169.5v-522q0 -117 37 -170.5t125 -53.5t123.5 54t35.5 170v53h-141v244h473v-684q-214 -144 -491 -144q-158 0 -264 35.5
t-167 112.5q-36 46 -53.5 104.5t-22.5 120.5t-5 170v498z" />
    <glyph glyph-name="H" unicode="H" horiz-adv-x="1389" 
d="M532 414q0 -60 4 -87.5t20.5 -45.5t51.5 -25v-256h-506v256q34 7 51.5 25.5t22 45.5t4.5 87v704q0 82 -13 114.5t-65 43.5v246h506v-246q-35 -7 -51 -25.5t-20.5 -46.5t-4.5 -86v-203h324v203q0 85 -12.5 116t-63.5 42v246h506v-246q-34 -7 -51.5 -26t-22 -46.5
t-4.5 -85.5v-704q0 -60 4.5 -87t22 -45.5t51.5 -25.5v-256h-506v256q51 11 63.5 42t12.5 116v243h-324v-243z" />
    <glyph glyph-name="I" unicode="I" horiz-adv-x="725" 
d="M539 414q0 -60 4 -87t20 -45.5t51 -25.5v-256h-505v256q35 7 51.5 25.5t21 45.5t4.5 87v704q0 82 -13 114.5t-64 43.5v246h505v-246q-35 -7 -51 -25.5t-20 -46.5t-4 -86v-704z" />
    <glyph glyph-name="J" unicode="J" horiz-adv-x="743" 
d="M578 494q0 -154 -6 -233t-29 -126q-81 -164 -289 -164q-94 0 -188 35v225q14 -2 40 -2q72 0 95.5 42.5t23.5 142.5v704q0 85 -12.5 116t-62.5 42v246h505v-246q-35 -7 -51.5 -26t-21 -46.5t-4.5 -85.5v-624z" />
    <glyph glyph-name="K" unicode="K" horiz-adv-x="1255" 
d="M604 1522v-246q-51 -11 -63.5 -43.5t-12.5 -114.5v-260l191 289q30 43 38.5 82t8.5 94v199h428v-246q-65 -17 -111 -88l-227 -344l287 -514q19 -33 38 -50t52 -24v-256h-467v197q0 111 -39 180l-199 360v-323q0 -60 4 -87t21 -45.5t51 -25.5v-256h-502v256
q34 7 51.5 25.5t22 45.5t4.5 87v704q0 82 -13 114.5t-65 43.5v246h502z" />
    <glyph glyph-name="L" unicode="L" horiz-adv-x="1180" 
d="M1130 0h-1028v256q34 7 51.5 25.5t22 45.5t4.5 87v704q0 82 -13 114.5t-65 43.5v246h506v-246q-35 -7 -51 -25.5t-20.5 -46.5t-4.5 -86v-829h115q78 0 116.5 23.5t50 71.5t11.5 138v168h305v-690z" />
    <glyph glyph-name="M" unicode="M" horiz-adv-x="1671" 
d="M461 1169v-768q0 -78 14.5 -108t63.5 -37v-256h-441v256q82 0 82 135v733q0 73 -17.5 106t-64.5 44v248h541l197 -867l188 867h549v-248q-55 -13 -68.5 -45t-13.5 -111v-690q0 -92 15.5 -128.5t66.5 -43.5v-256h-500v256q48 8 62 46t14 126v717l-268 -1145h-144z" />
    <glyph glyph-name="N" unicode="N" horiz-adv-x="1374" 
d="M102 0v256q50 6 64 39.5t14 114.5v735q0 62 -15 91.5t-63 39.5v246h398l383 -856v456q0 76 -16.5 110.5t-65.5 43.5v246h483v-246q-40 -12 -57 -32t-21 -49t-4 -89v-1106h-319l-383 864v-454q0 -80 15.5 -113.5t64.5 -40.5v-256h-478z" />
    <glyph glyph-name="O" unicode="O" horiz-adv-x="1239" 
d="M109 1010q0 108 4.5 170t21.5 119.5t55 105.5q61 78 167 112.5t264 34.5q156 0 260.5 -34.5t167.5 -112.5q53 -67 67 -154t14 -241v-498q0 -154 -14 -241t-67 -154q-62 -77 -167 -112.5t-261 -35.5q-158 0 -264 35.5t-167 112.5q-37 47 -54.5 104.5t-22 119.5t-4.5 171
v498zM459 1022v-522q0 -117 37 -170.5t125 -53.5t123.5 54t35.5 170v522q0 115 -35 169t-124 54t-125.5 -53.5t-36.5 -169.5z" />
    <glyph glyph-name="P" unicode="P" horiz-adv-x="1255" 
d="M532 414q0 -60 4 -87.5t20.5 -45.5t51.5 -25v-256h-506v256q34 7 51.5 25.5t22 45.5t4.5 87v704q0 82 -13 114.5t-65 43.5v246h603q179 0 287.5 -49.5t158 -156.5t49.5 -284q0 -210 -42 -330t-148.5 -175.5t-304.5 -55.5h-173v-57zM532 799h132q73 0 112.5 15t57.5 57
t18 122q0 119 -40 162t-146 43h-134v-399z" />
    <glyph glyph-name="Q" unicode="Q" horiz-adv-x="1239" 
d="M109 1010q0 108 4.5 170t21.5 119.5t55 105.5q61 78 167 112.5t264 34.5q156 0 260.5 -34.5t167.5 -112.5q53 -67 67 -154t14 -241v-498q0 -155 -14 -241.5t-63 -149.5q40 -41 102 -70l-129 -223q-144 51 -270 149q-86 -8 -135 -8q-158 0 -264 35.5t-167 112.5
q-38 48 -55 105.5t-21.5 119.5t-4.5 170v498zM459 1022v-522q0 -117 37 -170.5t125 -53.5t123.5 54t35.5 170v522q0 115 -35 169t-124 54t-125.5 -53.5t-36.5 -169.5z" />
    <glyph glyph-name="R" unicode="R" horiz-adv-x="1327" 
d="M532 414q0 -60 4 -87.5t20.5 -45.5t51.5 -25v-256h-506v256q34 7 51.5 25.5t22 45.5t4.5 87v704q0 82 -13 114.5t-65 43.5v246h598q258 0 380 -103t122 -336q0 -142 -59 -231.5t-172 -120.5q110 -25 152 -78t42 -161v-82q0 -78 12.5 -111.5t53.5 -42.5v-256h-377
q-21 45 -26 93.5t-5 129.5v195q0 73 -14.5 113.5t-53 57.5t-114.5 17h-109v-192zM532 874h138q96 0 141 42.5t45 136.5q0 95 -44.5 139.5t-137.5 44.5h-142v-363z" />
    <glyph glyph-name="S" unicode="S" horiz-adv-x="1233" 
d="M109 145v381h342v-30q0 -110 43 -162.5t135 -52.5q70 0 114.5 43.5t44.5 115.5q0 73 -51 120t-159 87q-72 26 -126.5 46t-109 47.5t-92.5 56.5q-76 59 -112 133.5t-36 179.5q0 135 62.5 235.5t180 153.5t271.5 53q139 0 263.5 -41t234.5 -125v-358h-336v27
q0 99 -41 149.5t-123 50.5q-76 0 -120.5 -39t-44.5 -102q0 -48 30 -81t89.5 -60t162.5 -62q152 -52 238.5 -107.5t129 -140.5t42.5 -217q0 -142 -61.5 -250t-177.5 -167.5t-273 -59.5q-145 0 -279 45t-241 131z" />
    <glyph glyph-name="T" unicode="T" horiz-adv-x="1313" 
d="M479 1233q-75 -2 -107 -42.5t-32 -131.5v-154h-283v617h1196v-617h-280v154q0 91 -32.5 132t-109.5 42v-819q0 -60 4 -87.5t20.5 -45.5t51.5 -25v-256h-506v256q34 7 51.5 25.5t22 45.5t4.5 87v819z" />
    <glyph glyph-name="U" unicode="U" horiz-adv-x="1327" 
d="M94 1276v246h510v-246q-50 -16 -64 -56t-14 -128v-590q0 -78 15 -126.5t51 -74t94 -25.5q166 0 166 220v639q0 67 -17.5 98t-62.5 43v246h461v-246q-51 -11 -66.5 -46.5t-15.5 -115.5v-631q0 -88 -7 -148.5t-27 -113.5t-60 -100q-61 -72 -159.5 -112t-219.5 -40
q-139 0 -235.5 33t-154 98.5t-84 167t-26.5 240.5v614q0 74 -14.5 104t-69.5 50z" />
    <glyph glyph-name="V" unicode="V" horiz-adv-x="1219" 
d="M362 0l-235 1141q-12 60 -30 90t-64 45v246h526v-246q-41 -9 -59.5 -28t-18.5 -54q0 -25 6 -49l166 -856l152 846q4 22 4 57q0 38 -18 57.5t-62 26.5v246h467v-246q-65 -28 -86 -133l-223 -1143h-525z" />
    <glyph glyph-name="W" unicode="W" horiz-adv-x="1741" 
d="M319 0l-210 1137q-11 60 -32 92.5t-59 44.5v248h504v-248q-65 -5 -65 -76q0 -31 4 -63l117 -707l184 1094h268l201 -1088l90 686l8 74q0 34 -14.5 52t-50.5 28v248h440v-248q-45 -18 -61.5 -52t-26.5 -102l-178 -1120h-412l-156 834l-133 -834h-418z" />
    <glyph glyph-name="X" unicode="X" horiz-adv-x="1178" 
d="M55 0v256q43 22 74 80l256 467l-223 389q-32 58 -78 82v248h428v-152q0 -74 33 -139l84 -164l86 162q30 59 30 141v152h367v-248q-46 -19 -78 -78l-223 -432l231 -408q27 -44 44.5 -64.5t48.5 -35.5v-256h-455v193q0 87 -39 161l-82 162l-88 -164q-41 -76 -41 -180v-172
h-375z" />
    <glyph glyph-name="Y" unicode="Y" horiz-adv-x="1128" 
d="M319 0v256q44 9 62 42t18 101v185l-295 602q-37 79 -81 90v246h446v-187q0 -100 29 -161l102 -211l100 202q33 66 33 170v187h391v-246q-42 -13 -82 -88l-292 -586v-199q0 -77 13.5 -108.5t63.5 -38.5v-256h-508z" />
    <glyph glyph-name="Z" unicode="Z" horiz-adv-x="1233" 
d="M92 0v223l606 1010h-98q-84 0 -127 -10.5t-63.5 -45t-20.5 -108.5v-57h-278v510h1013v-228l-587 -993h108q68 0 107.5 13t57 46t17.5 91v51h306v-502h-1041z" />
    <glyph glyph-name="bracketleft" unicode="[" horiz-adv-x="793" 
d="M702 1522v-109h-227v-1511h227v-109h-518v1729h518z" />
    <glyph glyph-name="backslash" unicode="\" horiz-adv-x="664" 
d="M489 -190l-536 1712h270l537 -1712h-271z" />
    <glyph glyph-name="bracketright" unicode="]" horiz-adv-x="793" 
d="M90 1522h518v-1729h-518v109h227v1511h-227v109z" />
    <glyph glyph-name="asciicircum" unicode="^" horiz-adv-x="2048" 
d="M897 1460h252l481 -561h-235l-371 371l-373 -371h-235z" />
    <glyph glyph-name="underscore" unicode="_" horiz-adv-x="1024" 
d="M0 -279h1024v-204h-1024v204z" />
    <glyph glyph-name="grave" unicode="`" horiz-adv-x="1024" 
d="M219 1620h258l197 -371h-142z" />
    <glyph glyph-name="a" unicode="a" horiz-adv-x="1133" 
d="M688 117q-50 -46 -103 -75.5t-111 -44.5t-114 -15q-133 0 -210.5 82.5t-77.5 226.5q0 115 62.5 190t184.5 129.5t357 128.5v64q0 65 -27 95t-86 30q-114 0 -114 -129v-35h-314v258q66 35 145.5 63t153.5 41t146 13q147 0 237.5 -39.5t131 -121.5t40.5 -216v-373
q0 -84 13 -118t61 -44v-227h-375v117zM676 526q-147 -58 -208.5 -102t-61.5 -109q0 -40 24 -65t66 -25q86 0 180 109v192z" />
    <glyph glyph-name="b" unicode="b" horiz-adv-x="1184" 
d="M137 125v1034q0 62 -12 91t-57 48v224h391v-465q135 78 270 78q187 0 270.5 -94.5t83.5 -295.5v-339q0 -213 -118 -318.5t-359 -105.5q-232 0 -469 143zM459 272q64 -49 147 -49q85 0 119.5 49.5t34.5 155.5v264q0 104 -36 152.5t-118 48.5q-73 0 -147 -51v-570z" />
    <glyph glyph-name="c" unicode="c" horiz-adv-x="1075" 
d="M686 702v35q0 89 -32.5 131.5t-102.5 42.5q-73 0 -104 -45t-31 -143v-326q0 -97 30.5 -141.5t104.5 -44.5q76 0 105.5 44.5t29.5 141.5v66h291v-361q-87 -56 -197 -88t-229 -32q-161 0 -259.5 41.5t-145 128t-46.5 227.5v360q0 103 25 177.5t79 124.5t135.5 74t195.5 24
q229 0 442 -121v-316h-291z" />
    <glyph glyph-name="d" unicode="d" horiz-adv-x="1186" 
d="M100 387v361q0 72 6.5 125t28.5 98q38 77 112.5 117t182.5 40q131 0 279 -75v90q0 76 -13 108t-57 43v228h383v-1155q0 -72 10.5 -99.5t57.5 -44.5v-223h-381v70q-139 -82 -279 -82q-120 0 -193 44t-105 131t-32 224zM422 430q0 -71 13.5 -117t45 -68t88.5 -22
q71 0 140 53v568q-86 43 -150 43q-79 0 -108 -54.5t-29 -175.5v-227z" />
    <glyph glyph-name="e" unicode="e" horiz-adv-x="1081" 
d="M416 397q0 -97 30.5 -141.5t104.5 -44.5q135 0 135 160v6h309v-266q-198 -129 -444 -129q-161 0 -259.5 41.5t-145 128t-46.5 227.5v360q0 140 46 228t146 130t259 42q235 0 339.5 -96t104.5 -304v-245h-579v-97zM416 723v-31h270v45q0 89 -32.5 131.5t-102.5 42.5
q-73 0 -104 -45t-31 -143z" />
    <glyph glyph-name="f" unicode="f" horiz-adv-x="705" 
d="M115 0v227q43 14 55 42.5t12 92.5v510h-67v246h67v96q0 158 82.5 239t239.5 81q66 0 143 -18v-224h-33q-118 0 -118 -129v-45h129v-246h-129v-507q0 -66 13 -96t56 -42v-227h-450z" />
    <glyph glyph-name="g" unicode="g" horiz-adv-x="1176" 
d="M709 80q-150 -76 -283 -76q-190 0 -274 129q-34 51 -43 116t-9 165v317q0 136 32 224.5t104.5 133t193.5 44.5q131 0 279 -84v69h381v-223q-47 -15 -57.5 -43t-10.5 -100v-691q0 -119 -12 -191.5t-56 -133.5q-111 -154 -364 -154q-235 0 -443 113v264h302v-6
q0 -66 35 -102.5t94 -36.5q71 0 101 41t30 127v98zM709 291v551q-67 53 -140 53q-57 0 -88.5 -22t-45 -68t-13.5 -117v-213q0 -120 29.5 -174.5t107.5 -54.5q63 0 150 45z" />
    <glyph glyph-name="h" unicode="h" horiz-adv-x="1204" 
d="M92 0v227q43 7 56.5 44t13.5 126v758q0 70 -11.5 98t-58.5 45v224h381v-473q129 75 252 75q128 0 201.5 -42.5t104 -127.5t30.5 -225v-346q0 -86 14 -119.5t60 -36.5v-227h-355q-21 58 -26.5 138t-5.5 200v350q0 108 -31.5 157.5t-110.5 49.5q-66 0 -133 -53v-463
q0 -76 12.5 -107.5t57.5 -44.5v-227h-451z" />
    <glyph glyph-name="i" unicode="i" horiz-adv-x="633" 
d="M479 379q0 -78 11.5 -108.5t56.5 -43.5v-227h-451v227q43 7 56.5 44t13.5 126v355q0 70 -11.5 98t-58.5 45v223h383v-739zM180 1352v2q0 51 34.5 88t86.5 37t88.5 -36.5t36.5 -88.5t-36.5 -88.5t-86.5 -36.5q-32 0 -61 17.5t-45.5 45t-16.5 60.5z" />
    <glyph glyph-name="j" unicode="j" horiz-adv-x="629" 
d="M479 96q0 -148 -9 -235.5t-38.5 -150t-91 -94.5t-166.5 -32q-55 0 -123 13v229h4q52 0 75 22t29.5 67.5t6.5 129.5v707q0 70 -11.5 98t-58.5 45v223h383v-1022zM129 1352q0 72 51 125t125 53q47 0 88.5 -24t65.5 -65.5t24 -88.5q0 -48 -24.5 -88.5t-65.5 -64t-88 -23.5
q-45 0 -86 24t-65.5 64.5t-24.5 87.5z" />
    <glyph glyph-name="k" unicode="k" horiz-adv-x="1116" 
d="M162 1155q0 70 -11.5 98t-58.5 45v224h381v-822l135 187q45 61 45 143v88h404v-225q-68 -13 -125 -78l-150 -168l189 -332q11 -21 26.5 -39t39.5 -31t46 -18v-227h-272q-55 51 -106 143l-232 422v-186q0 -49 4.5 -78t19.5 -46t46 -26v-229h-451v229q44 7 57 42.5
t13 125.5v758z" />
    <glyph glyph-name="l" unicode="l" horiz-adv-x="633" 
d="M166 1149q0 70 -11.5 98t-58.5 45v224h383v-1137q0 -78 11.5 -108.5t56.5 -43.5v-227h-451v227q43 7 56.5 44t13.5 126v752z" />
    <glyph glyph-name="m" unicode="m" horiz-adv-x="1778" 
d="M997 1012q151 112 320 112q174 0 245.5 -94.5t71.5 -298.5v-350q0 -82 14.5 -116.5t59.5 -37.5v-227h-352q-21 55 -26 128t-5 210v350q0 68 -13 115t-43 69.5t-83 22.5q-61 0 -135 -53v-461q0 -82 13.5 -116.5t59.5 -37.5v-227h-350q-22 58 -27.5 136.5t-5.5 201.5v350
q0 68 -13 115t-42.5 69.5t-83.5 22.5q-64 0 -131 -53v-463q0 -78 11.5 -108.5t56.5 -43.5v-227h-445v227q44 8 56 43t12 127v367q0 63 -11 88.5t-57 42.5v223h377v-69q129 75 248 75q184 0 278 -112z" />
    <glyph glyph-name="n" unicode="n" horiz-adv-x="1204" 
d="M473 379q0 -76 12.5 -107.5t57.5 -44.5v-227h-451v227q43 7 56.5 44t13.5 126v355q0 70 -11.5 98t-58.5 45v223h381v-69q129 75 252 75q188 0 262 -93t74 -300v-348q0 -86 14 -119.5t60 -36.5v-227h-355q-21 58 -26.5 138t-5.5 200v350q0 108 -31.5 157.5t-110.5 49.5
q-66 0 -133 -53v-463z" />
    <glyph glyph-name="o" unicode="o" horiz-adv-x="1100" 
d="M999 739v-360q0 -141 -46 -227.5t-144 -128t-258 -41.5q-161 0 -259.5 41.5t-145 128t-46.5 227.5v360q0 140 46 228t146 130t259 42q238 0 343 -95t105 -305zM678 723q0 99 -29 143.5t-98 44.5t-99 -45.5t-30 -142.5v-326q0 -98 29.5 -142t99.5 -44q69 0 98 44t29 142
v326z" />
    <glyph glyph-name="p" unicode="p" horiz-adv-x="1186" 
d="M1083 731v-305q0 -150 -28 -245t-100.5 -143t-202.5 -48q-133 0 -279 76v-84q0 -75 13 -108t57 -44v-227h-451v227q43 6 56.5 42.5t13.5 125.5v754q0 70 -11.5 98t-58.5 45v223h381v-69q147 84 279 84q120 0 193 -44.5t105.5 -133t32.5 -224.5zM762 688q0 71 -13.5 117
t-45.5 68t-89 22q-74 0 -141 -53v-566q88 -45 152 -45q53 0 83.5 25.5t42 75t11.5 129.5v227z" />
    <glyph glyph-name="q" unicode="q" horiz-adv-x="1180" 
d="M100 731q0 136 32 224.5t104.5 133t193.5 44.5q131 0 279 -84v69h313v-1120q0 -89 12.5 -125.5t55.5 -42.5v-227h-451v227q44 11 57 44t13 108v84q-147 -76 -279 -76q-130 0 -203 48.5t-100 143.5t-27 244v305zM422 688v-227q0 -80 11.5 -129.5t42 -75t83.5 -25.5
q60 0 150 45v566q-67 53 -140 53q-57 0 -88.5 -22t-45 -68t-13.5 -117z" />
    <glyph glyph-name="r" unicode="r" horiz-adv-x="723" 
d="M473 379q0 -76 12.5 -107.5t57.5 -44.5v-227h-451v227q43 7 56.5 44t13.5 126v355q0 70 -11.5 98t-58.5 45v223h367v-92q67 96 180 96q15 0 47 -4v-327q-40 4 -51 4q-86 0 -124 -53.5t-38 -166.5v-196z" />
    <glyph glyph-name="s" unicode="s" horiz-adv-x="1028" 
d="M82 70v301h311q0 -81 26.5 -118.5t88.5 -37.5q50 0 79 28t29 76q0 49 -33.5 78.5t-105.5 51.5q-10 3 -73 21t-108 34.5t-83 38.5q-71 43 -103 100.5t-32 147.5q0 104 52 182.5t149 122t231 43.5q108 0 214 -24.5t210 -74.5v-282h-291v6q0 141 -119 141q-50 0 -78 -28
t-28 -78q0 -38 22.5 -62.5t54.5 -37.5t110.5 -34.5t123.5 -37.5q87 -29 138.5 -67t75.5 -95t24 -143q0 -166 -103.5 -253t-300.5 -87q-246 0 -481 88z" />
    <glyph glyph-name="t" unicode="t" horiz-adv-x="678" 
d="M453 1421v-303h133v-246h-133v-438q0 -77 9.5 -119.5t35.5 -63t73 -20.5h15v-227q-84 -24 -148 -24q-93 0 -151.5 28t-91.5 83.5t-44.5 133t-11.5 185.5v462h-57v246h57v207z" />
    <glyph glyph-name="u" unicode="u" horiz-adv-x="1204" 
d="M1040 1118v-749q0 -51 4 -75.5t18 -41.5t48 -29v-223h-381v72q-132 -78 -252 -78q-128 0 -201.5 42.5t-104 127.5t-30.5 225v340q0 80 -10.5 117t-40.5 45v227h332q14 -38 21 -86.5t9.5 -103t2.5 -146.5v-352q0 -105 31 -156t106 -51q65 0 137 56v460q0 79 -12 110
t-58 42v227h381z" />
    <glyph glyph-name="v" unicode="v" horiz-adv-x="1071" 
d="M342 0l-246 805q-11 37 -25 57.5t-40 32.5v223h434v-223q-47 -17 -47 -64q0 -20 6 -43l131 -464l119 481q4 14 4 33q0 21 -8 33t-33 24v223h403v-223q-32 -13 -47 -35t-26 -61l-226 -799h-399z" />
    <glyph glyph-name="w" unicode="w" horiz-adv-x="1511" 
d="M317 0l-231 791q-10 38 -25.5 61.5t-48.5 42.5v223h437v-223q-26 -6 -36 -19t-10 -38q0 -33 3 -43l90 -392l178 715h196l166 -715l90 388q7 24 7 49q0 38 -39 55v223h399v-223q-53 -15 -74 -90l-219 -805h-303l-141 604l-140 -604h-299z" />
    <glyph glyph-name="x" unicode="x" horiz-adv-x="1006" 
d="M35 0v227q21 6 32 15t33 34l240 281l-225 281q-45 52 -60 57v223h381v-104q0 -90 25 -125l80 -115l80 115q28 42 28 110v119h312v-223q-27 -10 -62 -47l-219 -252l231 -313q9 -12 17 -20.5t16 -15.5t16.5 -12t22.5 -8v-227h-387v109q0 50 -7 84.5t-34 72.5l-74 107
l-73 -105q-28 -38 -34.5 -68.5t-6.5 -78.5v-121h-332z" />
    <glyph glyph-name="y" unicode="y" horiz-adv-x="1049" 
d="M750 45q-32 -118 -65.5 -203t-79 -142t-113.5 -86.5t-164 -29.5q-52 0 -105 13v243h8q57 0 89 22.5t53 80.5l-275 843q-30 98 -75 109v223h438v-223q-41 -11 -41 -57q0 -18 6 -45l119 -496l106 496q6 21 6 43q0 40 -41 59v223h412v-223q-30 -11 -44 -32.5t-28 -67.5z" />
    <glyph glyph-name="z" unicode="z" horiz-adv-x="1042" 
d="M61 0v221l529 678h-76q-111 0 -148 -25.5t-38 -119.5h-267v364h916v-198l-541 -699h94q71 0 110.5 14.5t56 50.5t16.5 101h264v-387h-916z" />
    <glyph glyph-name="braceleft" unicode="{" horiz-adv-x="1024" 
d="M883 1477v-209q-12 1 -22 1.5t-25 0.5q-73 0 -109.5 -19t-49.5 -61t-13 -121v-240q0 -96 -16.5 -152.5t-61 -91.5t-129.5 -55q84 -19 129 -53.5t61.5 -91t16.5 -152.5v-241q0 -78 13 -120t48.5 -60.5t110.5 -18.5q11 1 20.5 1.5t26.5 0.5v-209q-26 0 -41.5 -0.5
t-34.5 -1.5q-188 0 -281 49q-47 28 -69 67t-28.5 90t-6.5 134v252q0 135 -51 193.5t-172 58.5q-13 0 -21.5 -0.5t-19.5 -1.5v209q14 0 22.5 -0.5t18.5 -1.5q82 0 131 26t70.5 82t21.5 146v250q0 82 6.5 134t28.5 91.5t69 67.5q93 49 281 49q24 0 40.5 -0.5t35.5 -1.5z" />
    <glyph glyph-name="bar" unicode="|" horiz-adv-x="1024" 
d="M410 1565h206v-2048h-206v2048z" />
    <glyph glyph-name="braceright" unicode="}" horiz-adv-x="1024" 
d="M143 1477h68q202 0 289 -50q65 -36 84.5 -100t19.5 -190v-252q0 -89 21.5 -145t71 -81.5t130.5 -25.5q10 1 18.5 1.5t22.5 0.5v-209h-37q-85 0 -134 -24.5t-71 -79.5t-22 -146v-252q0 -125 -19 -189.5t-85 -101.5q-93 -49 -281 -49q-18 1 -33.5 1.5t-42.5 0.5v209
q17 0 26.5 -0.5t20.5 -1.5q74 0 110.5 18.5t49 60.5t12.5 120v239q0 94 16.5 152t61 93t129.5 54q-85 20 -129.5 55t-61 91.5t-16.5 152.5v242q0 78 -12.5 120t-49 60.5t-110.5 18.5q-14 0 -24 -0.5t-23 -1.5v209z" />
    <glyph glyph-name="asciitilde" unicode="~" horiz-adv-x="1706" 
d="M1530 803v-221q-97 -66 -192.5 -102t-186.5 -36q-89 0 -184 31q-185 63 -250 81.5t-154 18.5q-163 0 -385 -157v221q110 73 205.5 108t181.5 35q84 0 151.5 -16.5t143.5 -42.5q56 -20 104 -36.5t97.5 -27t93.5 -10.5q58 0 117.5 16.5t126.5 53t131 84.5z" />
    <glyph glyph-name="Zcaron" horiz-adv-x="1233" 
d="M92 0v223l606 1010h-98q-84 0 -127 -10.5t-63.5 -45t-20.5 -108.5v-57h-278v510h1013v-228l-587 -993h108q68 0 107.5 13t57 46t17.5 91v51h306v-502h-1041zM522 1616h201l166 262h-119l-147 -154l-150 154h-117z" />
    <glyph glyph-name="ogonek" horiz-adv-x="1024" 
d="M530 0h97q-127 -100 -127 -205q0 -80 82 -80h102v-174h-106q-238 0 -238 185q0 74 45.5 138t144.5 136z" />
    <glyph glyph-name="caron" horiz-adv-x="1024" 
d="M463 1425h201l165 263h-118l-148 -154l-149 154h-117z" />
    <glyph glyph-name="quotesinglbase" unicode="&#x201a;" horiz-adv-x="555" 
d="M217 -121q71 54 90 127q-66 0 -104.5 36.5t-38.5 98.5q0 60 42 100t103 40q67 0 109.5 -45t42.5 -121q0 -80 -49.5 -159t-139.5 -140z" />
    <glyph glyph-name="florin" unicode="&#x192;" horiz-adv-x="1241" 
d="M498 1171q14 131 49 214.5t101 124t171 40.5q85 0 185 -28v-222q-11 3 -31 3q-64 0 -90.5 -39t-38.5 -136l-23 -163h144v-246h-172l-56 -623q-11 -132 -47.5 -215t-103.5 -122.5t-170 -39.5q-90 0 -183 27v221q13 -2 33 -2q61 0 89.5 40t37.5 134l58 580h-117v246h141z
" />
    <glyph glyph-name="quotedblbase" unicode="&#x201e;" horiz-adv-x="934" 
d="M217 -121q71 54 90 127q-66 0 -104.5 36.5t-38.5 98.5q0 60 42 100t103 40q67 0 109.5 -45t42.5 -121q0 -80 -49.5 -159t-139.5 -140zM596 -121q71 54 90 127q-66 0 -104.5 36.5t-38.5 98.5q0 60 42 100t103 40q67 0 109.5 -45t42.5 -121q0 -80 -49.5 -159t-139.5 -140z
" />
    <glyph glyph-name="ellipsis" unicode="&#x2026;" horiz-adv-x="2048" 
d="M178 143q0 42 22.5 80t60.5 61t81 23q69 0 115.5 -48.5t46.5 -115.5q0 -68 -47.5 -114.5t-114.5 -46.5q-64 0 -114 49t-50 112zM860 143q0 42 22.5 80t60.5 61t81 23q69 0 115.5 -48.5t46.5 -115.5q0 -68 -47.5 -114.5t-114.5 -46.5q-64 0 -114 49t-50 112zM1544 143
q0 42 22.5 80t60.5 61t81 23q69 0 115.5 -48.5t46.5 -115.5q0 -68 -47.5 -114.5t-114.5 -46.5q-64 0 -114 49t-50 112z" />
    <glyph glyph-name="dagger" unicode="&#x2020;" horiz-adv-x="1024" 
d="M369 0v918h-312v227h312v377h284v-377h314v-227h-314v-918h-284z" />
    <glyph glyph-name="daggerdbl" unicode="&#x2021;" horiz-adv-x="1024" 
d="M369 0v356h-312v201h312v416h-312v201h312v348h284v-348h314v-201h-314v-416h314v-201h-314v-356h-284z" />
    <glyph glyph-name="circumflex" unicode="&#x2c6;" horiz-adv-x="1024" 
d="M393 1620h238l196 -371h-141l-174 217l-176 -217h-139z" />
    <glyph glyph-name="perthousand" unicode="&#x2030;" horiz-adv-x="2370" 
d="M494 0h-256l876 1522h256zM55 1241q0 107 29 168.5t96 87t187 25.5q116 0 183.5 -25t98.5 -86t31 -170v-145q0 -108 -30.5 -169t-97.5 -86.5t-185 -25.5q-121 0 -187.5 26t-95.5 86.5t-29 168.5v145zM283 1278v-219q0 -61 20.5 -90t65.5 -29q86 0 86 119v219
q0 119 -86 119q-44 0 -65 -29t-21 -90zM928 424q0 109 31 170t98 87t184 26q118 0 185 -26t97.5 -87t30.5 -170v-145q0 -110 -31 -170.5t-98.5 -85.5t-183.5 -25t-183.5 25t-98.5 85.5t-31 170.5v145zM1157 461v-217q0 -121 84 -121q86 0 86 121v217q0 121 -86 121
q-44 0 -64 -29.5t-20 -91.5zM1688 424q0 109 30.5 170t97 87t183.5 26q118 0 185 -26t97.5 -87t30.5 -170v-145q0 -110 -31 -170.5t-98.5 -85.5t-183.5 -25t-183 25t-97.5 85.5t-30.5 170.5v145zM1915 461v-217q0 -121 86 -121t86 121v217q0 121 -86 121q-45 0 -65.5 -29.5
t-20.5 -91.5z" />
    <glyph glyph-name="Scaron" unicode="&#x160;" horiz-adv-x="1233" 
d="M109 145v381h342v-30q0 -110 43 -162.5t135 -52.5q70 0 114.5 43.5t44.5 115.5q0 73 -51 120t-159 87q-72 26 -126.5 46t-109 47.5t-92.5 56.5q-76 59 -112 133.5t-36 179.5q0 135 62.5 235.5t180 153.5t271.5 53q139 0 263.5 -41t234.5 -125v-358h-336v27
q0 99 -41 149.5t-123 50.5q-76 0 -120.5 -39t-44.5 -102q0 -48 30 -81t89.5 -60t162.5 -62q152 -52 238.5 -107.5t129 -140.5t42.5 -217q0 -142 -61.5 -250t-177.5 -167.5t-273 -59.5q-145 0 -279 45t-241 131zM487 1622h201l166 262h-119l-147 -153l-150 153h-116z" />
    <glyph glyph-name="guilsinglleft" unicode="&#x2039;" horiz-adv-x="578" 
d="M264 203l-149 375l149 374h217l-143 -374l143 -375h-217z" />
    <glyph glyph-name="OE" unicode="&#x152;" horiz-adv-x="1853" 
d="M109 1010q0 135 10.5 216.5t48.5 145.5q57 96 167.5 138t285.5 42q110 0 239 -30h905v-465h-327v14q0 92 -41 126t-144 34h-129v-318h418v-256h-418v-366h127q75 0 115.5 14t56 48.5t15.5 101.5v55h327v-510h-903q-133 -31 -241 -31q-158 0 -264 35.5t-167 112.5
q-36 46 -53.5 104.5t-22.5 120.5t-5 170v498zM459 1022v-522q0 -117 37 -170.5t125 -53.5t123.5 54t35.5 170v522q0 115 -35 169t-124 54t-125.5 -53.5t-36.5 -169.5z" />
    <glyph glyph-name="Lslash" horiz-adv-x="1229" 
d="M1178 0h-1026v256q50 11 62.5 42t12.5 116v194l-180 -82v234l180 82v276q0 85 -12.5 116t-62.5 42v246h505v-246q-51 -11 -64 -43t-13 -115v-155l292 129v-232l-292 -131v-440h114q78 0 116.5 23.5t50 71.5t11.5 138v168h306v-690z" />
    <glyph glyph-name="ordmasculine" horiz-adv-x="825" 
d="M750 1257v-253q0 -146 -78.5 -211.5t-257.5 -65.5q-91 0 -153 16t-104.5 50.5t-61.5 86.5t-19 124v253q0 96 34.5 158t108 91.5t195.5 29.5q91 0 154 -16t104 -51t59.5 -86.5t18.5 -125.5zM508 1245q0 69 -21.5 100t-72.5 31q-52 0 -74.5 -31t-22.5 -100v-227
q0 -70 22 -100.5t75 -30.5q51 0 72.5 30.5t21.5 100.5v227z" />
    <glyph glyph-name="fraction" horiz-adv-x="426" 
d="M-96 0h-258l878 1522h256z" />
    <glyph glyph-name="breve" horiz-adv-x="1024" 
d="M203 1585h123q7 -77 52.5 -112t133.5 -35q90 0 134 34.5t50 112.5h123q-12 -157 -85.5 -230t-221.5 -73q-97 0 -164 32.5t-102.5 100.5t-42.5 170z" />
    <glyph glyph-name="quoteleft" unicode="&#x2018;" horiz-adv-x="555" 
d="M377 1489q-71 -54 -90 -127q45 0 77 -17t49 -48t17 -70q0 -38 -19 -70.5t-53 -51t-73 -18.5q-67 0 -109.5 45.5t-42.5 120.5q0 78 48 156.5t141 142.5z" />
    <glyph glyph-name="quoteright" unicode="&#x2019;" horiz-adv-x="555" 
d="M186 1151q71 53 90 127q-66 0 -104.5 36.5t-38.5 98.5q0 60 42.5 99.5t103.5 39.5q67 0 109 -45t42 -121q0 -80 -48.5 -158.5t-139.5 -140.5z" />
    <glyph glyph-name="quotedblleft" unicode="&#x201c;" horiz-adv-x="934" 
d="M756 1489q-73 -58 -90 -127q45 0 77 -17t49 -48t17 -70q0 -38 -19 -70t-52.5 -51t-73.5 -19q-67 0 -109.5 45.5t-42.5 120.5q0 78 48.5 157t139.5 142zM377 1489q-74 -56 -92 -127q66 0 105.5 -37t39.5 -98q0 -38 -19 -70.5t-53 -51t-73 -18.5q-67 0 -109.5 45.5
t-42.5 120.5q0 78 48 156.5t141 142.5z" />
    <glyph glyph-name="quotedblright" unicode="&#x201d;" horiz-adv-x="934" 
d="M186 1151q71 53 90 127q-66 0 -105.5 37t-39.5 98q0 60 42 99.5t103 39.5q68 0 110 -45t42 -121q0 -80 -49 -158.5t-139 -140.5zM565 1151q71 54 90 127q-66 0 -104.5 36.5t-38.5 98.5q0 60 42 99.5t103 39.5q67 0 109.5 -45t42.5 -121q0 -80 -49 -158.5t-139 -140.5z
" />
    <glyph glyph-name="bullet" unicode="&#x2022;" horiz-adv-x="1208" 
d="M307 762q0 79 39.5 147.5t108 108t149.5 39.5q80 0 147.5 -39.5t107.5 -108t40 -147.5t-40 -147.5t-108.5 -109t-148.5 -40.5q-79 0 -147.5 39.5t-108 108t-39.5 149.5z" />
    <glyph glyph-name="emdash" unicode="&#x2013;" horiz-adv-x="1024" 
d="M0 475v203h1024v-203h-1024z" />
    <glyph glyph-name="endash" unicode="&#x2014;" horiz-adv-x="2048" 
d="M0 475v203h2048v-203h-2048z" />
    <glyph glyph-name="tilde" unicode="&#x2dc;" horiz-adv-x="1024" 
d="M719 1571h110q-27 -125 -77.5 -184.5t-130.5 -59.5q-41 0 -74 10l-88 27q-31 10 -66 10q-64 0 -88 -78h-110q24 121 73.5 178.5t130.5 57.5q38 0 86 -14l93 -25q36 -8 55 -8q33 0 53.5 22t32.5 64z" />
    <glyph glyph-name="trademark" unicode="&#x2122;" horiz-adv-x="1706" 
d="M207 1462h485v-112h-168v-435h-149v435h-168v112zM803 1462h196l127 -332l123 332h197v-547h-135v410l-154 -410h-61l-158 410v-410h-135v547z" />
    <glyph glyph-name="scaron" unicode="&#x161;" horiz-adv-x="1028" 
d="M82 70v301h311q0 -81 26.5 -118.5t88.5 -37.5q50 0 79 28t29 76q0 49 -33.5 78.5t-105.5 51.5q-10 3 -73 21t-108 34.5t-83 38.5q-71 43 -103 100.5t-32 147.5q0 104 52 182.5t149 122t231 43.5q108 0 214 -24.5t210 -74.5v-282h-291v6q0 141 -119 141q-50 0 -78 -28
t-28 -78q0 -38 22.5 -62.5t54.5 -37.5t110.5 -34.5t123.5 -37.5q87 -29 138.5 -67t75.5 -95t24 -143q0 -166 -103.5 -253t-300.5 -87q-246 0 -481 88zM410 1221h200l166 262h-119l-147 -154l-150 154h-116z" />
    <glyph glyph-name="guilsinglright" unicode="&#x203a;" horiz-adv-x="578" 
d="M313 203h-215l144 375l-144 374h215l152 -374z" />
    <glyph glyph-name="oe" unicode="&#x153;" horiz-adv-x="1667" 
d="M416 723v-326q0 -97 30.5 -141.5t104.5 -44.5q76 0 105.5 44.5t29.5 141.5v326q0 98 -30.5 143t-104.5 45q-73 0 -104 -45t-31 -143zM1001 397q0 -97 31.5 -141.5t104.5 -44.5q135 0 135 160v6h309v-266q-94 -62 -208.5 -95.5t-235.5 -33.5q-188 0 -293 81
q-138 -81 -293 -81q-161 0 -259.5 41.5t-145 128t-46.5 227.5v360q0 140 46 228t146 130t259 42q167 0 291 -80q130 80 295 80q235 0 339.5 -96t104.5 -304v-245h-580v-97zM1001 723v-31h271v45q0 89 -32.5 131.5t-102.5 42.5q-72 0 -104 -45t-32 -143z" />
    <glyph glyph-name="dotlessi" horiz-adv-x="633" 
d="M479 379q0 -78 11.5 -108.5t56.5 -43.5v-227h-451v227q43 7 56.5 44t13.5 126v355q0 70 -11.5 98t-58.5 45v223h383v-739z" />
    <glyph glyph-name="dotlessi" unicode="&#x131;" horiz-adv-x="633" 
d="M479 379q0 -78 11.5 -108.5t56.5 -43.5v-227h-451v227q43 7 56.5 44t13.5 126v355q0 70 -11.5 98t-58.5 45v223h383v-739z" />
    <glyph glyph-name="zcaron" horiz-adv-x="1042" 
d="M61 0v221l529 678h-76q-111 0 -148 -25.5t-38 -119.5h-267v364h916v-198l-541 -699h94q71 0 110.5 14.5t56 50.5t16.5 101h264v-387h-916zM440 1214h201l166 263h-119l-147 -154l-150 154h-117z" />
    <glyph glyph-name="Ydieresis" horiz-adv-x="1128" 
d="M319 0v256q44 9 62 42t18 101v185l-295 602q-37 79 -81 90v246h446v-187q0 -100 29 -161l102 -211l100 202q33 66 33 170v187h391v-246q-42 -13 -82 -88l-292 -586v-199q0 -77 13.5 -108.5t63.5 -38.5v-256h-508zM647 1731l-2 4q0 47 35.5 82.5t85.5 35.5
q52 0 87.5 -34.5t35.5 -85.5q0 -53 -36 -88t-85 -35t-85 36t-36 85zM319 1735l-4 4q0 49 36 85t85 36q51 0 87 -37t36 -86q0 -50 -35.5 -85.5t-85.5 -35.5q-46 0 -82.5 35.5t-36.5 83.5z" />
    <glyph glyph-name="Ydieresis" unicode="&#x178;" horiz-adv-x="1128" 
d="M319 0v256q44 9 62 42t18 101v185l-295 602q-37 79 -81 90v246h446v-187q0 -100 29 -161l102 -211l100 202q33 66 33 170v187h391v-246q-42 -13 -82 -88l-292 -586v-199q0 -77 13.5 -108.5t63.5 -38.5v-256h-508zM647 1731l-2 4q0 47 35.5 82.5t85.5 35.5
q52 0 87.5 -34.5t35.5 -85.5q0 -53 -36 -88t-85 -35t-85 36t-36 85zM319 1735l-4 4q0 49 36 85t85 36q51 0 87 -37t36 -86q0 -50 -35.5 -85.5t-85.5 -35.5q-46 0 -82.5 35.5t-36.5 83.5z" />
    <glyph glyph-name="fl" unicode="&#xa0;" horiz-adv-x="1305" 
d="M115 0v227q43 14 55 42.5t12 92.5v510h-67v246h67v96q0 158 82.5 239t239.5 81q66 0 143 -18v-224h-33q-118 0 -118 -129v-45h129v-246h-129v-507q0 -66 13 -96t56 -42v-227h-450zM1149 379q0 -76 12.5 -107.5t57.5 -44.5v-227h-451v227q42 7 56 45t14 125v758
q0 70 -11.5 98t-58.5 45v224h381v-1143z" />
    <glyph glyph-name="exclamdown" unicode="&#xa1;" horiz-adv-x="621" 
d="M395 1053l99 -789q8 -63 8 -94q0 -89 -51.5 -138.5t-141.5 -49.5q-88 0 -139 51t-51 137q0 37 8 94l96 789h172zM481 1380q0 -45 -23 -85.5t-62 -64.5t-87 -24q-71 0 -121.5 51.5t-50.5 122.5q0 47 23 86.5t62.5 62.5t86.5 23q69 0 120.5 -52.5t51.5 -119.5z" />
    <glyph glyph-name="cent" unicode="&#xa2;" horiz-adv-x="1241" 
d="M786 877v36q0 89 -32.5 130.5t-102.5 41.5q-73 0 -104 -45t-31 -143v-324q0 -65 13 -106t43.5 -61.5t78.5 -20.5q76 0 105.5 43.5t29.5 142.5v66h291v-361q-127 -84 -286 -108v-207h-291v207q-109 21 -174.5 68.5t-95 124.5t-29.5 194v358q0 173 69 264t230 121v172h291
v-172q144 -26 286 -106v-315h-291z" />
    <glyph glyph-name="sterling" unicode="&#xa3;" horiz-adv-x="1241" 
d="M84 0v256q34 7 51.5 25.5t22 45.5t4.5 87v237h-80v260h80v154q0 157 60.5 267.5t176.5 165t283 54.5q249 0 465 -145v-367h-309v25q0 178 -170 178q-90 0 -130 -45t-40 -141v-146h428v-260h-428v-362h149q67 0 104.5 12.5t53.5 44t16 90.5h326v-436h-1063z" />
    <glyph glyph-name="currency" unicode="&#xa4;" horiz-adv-x="1241" 
d="M172 1438l205 -203q107 78 244 78q140 0 247 -78l203 203l105 -107l-203 -205q76 -107 76 -241q0 -132 -76 -242l203 -205l-105 -104l-203 203q-105 -78 -245 -78q-142 0 -246 78l-205 -203l-104 104l202 205q-75 106 -75 242q0 135 75 241l-202 205zM623 1161
q-74 0 -138 -38t-101.5 -101t-37.5 -137t37 -137.5t101.5 -100.5t138.5 -37q55 0 105.5 21.5t89 59t60 88.5t21.5 106q0 56 -21.5 106t-60 88.5t-89 60t-105.5 21.5z" />
    <glyph glyph-name="yen" unicode="&#xa5;" horiz-adv-x="1241" 
d="M365 0v256q44 9 60.5 41t16.5 102v146h-405v131h358l-82 172h-276v131h207l-94 207q-38 78 -82 90v246h444v-207q0 -70 29 -141l104 -256l100 247q31 73 31 148v209h391v-246q-40 -12 -80 -88l-106 -209h197v-131h-263l-84 -172h347v-131h-385v-142q0 -77 13.5 -108.5
t63.5 -38.5v-256h-505z" />
    <glyph glyph-name="brokenbar" unicode="&#xa6;" horiz-adv-x="1024" 
d="M410 1432h206v-758h-206v758zM410 408h206v-758h-206v758z" />
    <glyph glyph-name="section" unicode="&#xa7;" horiz-adv-x="1024" 
d="M664 479q40 30 59.5 62t19.5 73q0 44 -26 72.5t-70 49t-145.5 58t-155.5 60.5q-78 -47 -78 -133q0 -46 24.5 -75.5t67.5 -50t139.5 -54.5t164.5 -62zM825 381q121 -81 121 -266q0 -99 -51 -178t-147 -122.5t-224 -43.5q-78 0 -154.5 15t-145 43t-124.5 67v231h273v-25
q0 -141 135 -141q66 0 106.5 38t40.5 97q0 56 -22.5 89.5t-61.5 54t-121.5 50t-142.5 52.5q-135 54 -199.5 134t-64.5 198q0 98 39.5 164.5t120.5 107.5q-119 81 -119 254q0 164 111.5 258t316.5 94q101 0 207 -32t190 -90v-232h-272v19q0 69 -31.5 107t-89.5 38
q-44 0 -76 -17.5t-48.5 -50t-16.5 -73.5q0 -50 24 -82.5t66.5 -54.5t125.5 -51.5t132 -49.5q136 -55 200 -133.5t64 -198.5q0 -191 -162 -270z" />
    <glyph glyph-name="dieresis" unicode="&#xa8;" horiz-adv-x="1024" 
d="M557 1434q0 54 38.5 94.5t96.5 40.5q56 0 96.5 -39.5t40.5 -95.5q0 -58 -41 -98t-96 -40q-56 0 -95.5 41.5t-39.5 96.5zM195 1432q0 56 39.5 96.5t95.5 40.5q57 0 97 -40t40 -97t-40.5 -96.5t-96.5 -39.5q-54 0 -94.5 41.5t-40.5 94.5z" />
    <glyph glyph-name="copyright" unicode="&#xa9;" horiz-adv-x="1706" 
d="M852 1479q311 0 530 -219q106 -106 160.5 -241.5t54.5 -285.5q0 -310 -215 -520q-110 -107 -247 -165t-283 -58q-95 0 -188.5 25t-177 74t-156.5 122q-107 107 -163 241t-56 281q0 101 24.5 193.5t74 178.5t120.5 157q106 107 238 162t284 55zM854 1356
q-129 0 -240 -45.5t-198.5 -135t-135 -203.5t-47.5 -237q0 -255 183 -438q182 -182 438 -182q123 0 236.5 47t205.5 137q179 176 179 436q0 127 -46.5 240t-134.5 199q-91 91 -201.5 136.5t-238.5 45.5zM1212 897h-188q-8 71 -52.5 109t-119.5 38q-58 0 -102.5 -36
t-68.5 -107t-24 -166q0 -146 52.5 -223.5t150.5 -77.5q72 0 116.5 42.5t53.5 119.5h193q-6 -91 -53.5 -161.5t-130 -108t-185.5 -37.5q-89 0 -164 30t-127.5 87t-81 140t-28.5 183q0 135 50 238.5t141 158t212 54.5q153 0 250.5 -78t105.5 -205z" />
    <glyph glyph-name="ordfeminine" unicode="&#xaa;" horiz-adv-x="850" 
d="M516 821q-110 -94 -246 -94q-98 0 -157.5 58.5t-59.5 156.5q0 81 48 134.5t140.5 91.5t266.5 89v43q0 89 -86 89t-86 -91v-24h-234v180q168 82 332 82q165 0 236 -62t71 -202v-260q0 -39 4 -62t15.5 -34.5t36.5 -16.5v-160h-281v82zM508 1108q-112 -41 -157.5 -71.5
t-45.5 -75.5q0 -28 19 -46t49 -18q62 0 135 76v135z" />
    <glyph glyph-name="guillemotleft" unicode="&#xab;" horiz-adv-x="967" 
d="M264 203l-149 375l149 374h217l-143 -374l143 -375h-217zM653 203l-151 375l151 374h217l-145 -374l145 -375h-217z" />
    <glyph glyph-name="logicalnot" unicode="&#xac;" horiz-adv-x="1706" 
d="M254 864h1198v-502h-199v306h-999v196z" />
    <glyph glyph-name="minus" unicode="&#xad;" horiz-adv-x="1706" 
d="M254 713h1198v-203h-1198v203z" />
    <glyph glyph-name="registered" unicode="&#xae;" horiz-adv-x="1706" 
d="M852 1479q99 0 195 -25t183.5 -77t155.5 -122q104 -104 157.5 -237.5t53.5 -284.5q0 -154 -56 -288t-163 -238q-109 -106 -245 -161.5t-281 -55.5q-74 0 -146.5 15t-138 43t-128.5 71.5t-115 95.5q-104 105 -158.5 238.5t-54.5 279.5q0 205 108 387q101 171 266 265
t367 94zM854 1356q-254 0 -432 -176q-91 -91 -140 -206.5t-49 -238.5q0 -122 45.5 -233t133.5 -201q57 -59 130 -102t149.5 -64.5t160.5 -21.5q249 0 440 182q87 84 135 194.5t48 233.5q0 133 -44.5 245.5t-132.5 200.5q-182 187 -444 187zM545 1161h323q353 0 353 -237
q0 -81 -48.5 -139.5t-132.5 -79.5l185 -369h-224l-157 338h-99v-338h-200v825zM745 1034v-239h99q86 0 128 27.5t42 88.5q0 64 -44 93.5t-136 29.5h-89z" />
    <glyph glyph-name="macron" unicode="&#xaf;" horiz-adv-x="1024" 
d="M225 1509h574v-155h-574v155z" />
    <glyph glyph-name="ring" unicode="&#xb0;" horiz-adv-x="1024" 
d="M512 1761q72 0 133.5 -35t97 -95.5t35.5 -133.5q0 -72 -35.5 -134t-95.5 -98t-135 -36q-112 0 -188 78.5t-76 189.5q0 73 35 133.5t96.5 95.5t132.5 35zM512 1618q-51 0 -86 -35t-35 -88q0 -51 35 -86t86 -35q52 0 87.5 35.5t35.5 85.5q0 51 -36 87t-87 36z" />
    <glyph glyph-name="plusminus" unicode="&#xb1;" horiz-adv-x="1706" 
d="M752 1223h202v-326h498v-199h-498v-325h-202v325h-498v199h498v326zM254 197h1198v-199h-1198v199z" />
    <glyph glyph-name="twosuperior" unicode="&#xb2;" horiz-adv-x="819" 
d="M86 1210v246q61 39 147.5 61.5t180.5 22.5q174 0 255 -58t81 -184q0 -88 -36 -138t-124 -113l-221 -160q-33 -23 -48.5 -43t-15.5 -51v-9h98q65 0 85 18t20 68v29h246v-291h-686v213q0 74 25 116t85 83l258 182q72 54 72 96q0 38 -24 59t-68 21q-52 0 -81.5 -26.5
t-29.5 -73.5v-68h-219z" />
    <glyph glyph-name="threesuperior" unicode="&#xb3;" horiz-adv-x="819" 
d="M74 1251v207q69 39 156 60.5t178 21.5q159 0 243 -64t84 -188q0 -164 -172 -207q180 -24 180 -219q0 -135 -86 -203.5t-260 -68.5q-84 0 -168.5 21t-167.5 63v217h230v-8q0 -109 108 -109q105 0 105 109q0 63 -32 86.5t-107 23.5h-125v156h133q64 0 99.5 27.5t35.5 76.5
q0 50 -31 76.5t-86 26.5q-92 0 -98 -105h-219z" />
    <glyph glyph-name="acute" unicode="&#xb4;" horiz-adv-x="1024" 
d="M547 1620h258l-313 -371h-142z" />
    <glyph glyph-name="mu" unicode="&#xb5;" horiz-adv-x="1249" 
d="M205 1092h289l-76 -435q-31 -167 -31 -268q0 -92 42 -138t128 -46q55 0 93.5 22.5t67 67.5t49.5 113t38 170l90 514h289l-193 -1092h-268l18 117q-41 -78 -92.5 -114t-122.5 -36q-130 0 -213 121l-90 -526h-286z" />
    <glyph glyph-name="paragraph" unicode="&#xb6;" horiz-adv-x="1024" 
d="M983 1479v-111h-113v-1368h-151v1368h-160v-1368h-151v784q-170 7 -268.5 102.5t-98.5 243.5q0 102 47.5 181.5t136.5 123.5t207 44h551z" />
    <glyph glyph-name="periodcentered" unicode="&#xb7;" horiz-adv-x="621" 
d="M147 764q0 42 22.5 80t60.5 61t81 23q69 0 115.5 -48.5t46.5 -115.5q0 -68 -48 -115t-114 -47q-65 0 -114.5 49.5t-49.5 112.5z" />
    <glyph glyph-name="periodcentered" unicode="&#x2219;" horiz-adv-x="621" 
d="M147 764q0 42 22.5 80t60.5 61t81 23q69 0 115.5 -48.5t46.5 -115.5q0 -68 -48 -115t-114 -47q-65 0 -114.5 49.5t-49.5 112.5z" />
    <glyph glyph-name="cedilla" unicode="&#xb8;" horiz-adv-x="1024" 
d="M463 0h100v-90h15q235 0 235 -191q0 -200 -264 -200q-102 0 -266 43v129q166 -43 256 -43q100 0 100 73q0 38 -27.5 54t-91.5 16q-37 0 -59 -2z" />
    <glyph glyph-name="onesuperior" unicode="&#xb9;" horiz-adv-x="819" 
d="M244 1522h282v-666q0 -47 8.5 -67t43.5 -27v-154h-334v154q34 7 42.5 25.5t8.5 68.5v424q0 50 -8.5 68.5t-42.5 25.5v148z" />
    <glyph glyph-name="degree" unicode="&#xba;" horiz-adv-x="674" 
d="M338 1464q82 0 152 -40.5t110.5 -111.5t40.5 -153q0 -81 -41 -151.5t-111 -111t-153 -40.5q-82 0 -151.5 40t-109.5 110.5t-40 152.5q0 83 40 153t110.5 111t152.5 41zM338 1335q-73 0 -124.5 -50.5t-51.5 -123.5q0 -72 52 -124t124 -52q49 0 88.5 24.5t62.5 64.5t23 87
q0 74 -50 124t-124 50z" />
    <glyph glyph-name="guillemotright" unicode="&#xbb;" horiz-adv-x="967" 
d="M702 203h-217l146 375l-146 374h217l152 -374zM313 203h-215l144 375l-144 374h215l152 -374z" />
    <glyph glyph-name="onequarter" unicode="&#xbc;" horiz-adv-x="1991" 
d="M231 1522h271v-621q0 -33 2.5 -48.5t12 -25t32.5 -14.5v-143h-318v143q25 5 35 14.5t12.5 25t2.5 48.5v395q0 48 -7.5 64.5t-42.5 23.5v138zM686 0h-258l879 1522h256zM1636 389v268l-196 -268h196zM1847 852v-463h64v-162h-64v-12q0 -36 9 -51t40 -21v-143h-307v143
q28 6 37.5 21t9.5 51v12h-395v183l332 442h274z" />
    <glyph glyph-name="onehalf" unicode="&#xbd;" horiz-adv-x="1991" 
d="M231 1522h271v-621q0 -33 2.5 -48.5t12 -25t32.5 -14.5v-143h-318v143q25 5 35 14.5t12.5 25t2.5 48.5v395q0 48 -7.5 64.5t-42.5 23.5v138zM686 0h-258l879 1522h256zM1290 561v230q56 36 139 56.5t175 20.5q164 0 241.5 -54t77.5 -171q0 -82 -34 -129t-117 -106
l-211 -148q-33 -23 -47.5 -41.5t-14.5 -46.5v-6h94q62 0 81.5 16t19.5 64v26h235v-272h-657v199q0 43 11 75.5t32.5 56t62.5 54.5l246 170q68 47 68 90q0 35 -23.5 54.5t-64.5 19.5q-47 0 -76 -25t-29 -69v-64h-209z" />
    <glyph glyph-name="threequarters" unicode="&#xbe;" horiz-adv-x="1991" 
d="M70 1270v194q64 35 148.5 54.5t170.5 19.5q153 0 233 -59.5t80 -173.5q0 -153 -165 -193q172 -24 172 -207q0 -125 -83.5 -188.5t-246.5 -63.5q-168 0 -320 78v203h217v-8q0 -101 105 -101q100 0 100 101q0 60 -30.5 82t-102.5 22h-119v144h127q62 0 94.5 25.5t32.5 72.5
t-28.5 71.5t-79.5 24.5q-90 0 -96 -98h-209zM686 0h-258l879 1522h256zM1636 389v268l-196 -268h196zM1847 852v-463h64v-162h-64v-12q0 -36 9 -51t40 -21v-143h-307v143q28 6 37.5 21t9.5 51v12h-395v183l332 442h274z" />
    <glyph glyph-name="questiondown" unicode="&#xbf;" horiz-adv-x="1139" 
d="M891 1055v-105q0 -66 -12 -110t-40.5 -79t-88.5 -81q-52 -39 -147 -99t-133 -100.5t-38 -95.5q0 -61 42 -97t112 -36q162 0 162 178v43h329v-350q-94 -69 -215.5 -105t-265.5 -36q-514 0 -514 419q0 115 31.5 189.5t85 121t157.5 111.5q72 45 100.5 64t50 39t34 46.5
t12.5 65.5v17h338zM897 1380q0 -69 -51.5 -120.5t-122.5 -51.5q-72 0 -122 50t-50 122q0 47 23 87.5t62.5 63.5t86.5 23q45 0 85 -24.5t64.5 -65.5t24.5 -84z" />
    <glyph glyph-name="Agrave" unicode="&#xc0;" horiz-adv-x="1223" 
d="M487 653h207l-104 582zM47 0v256q41 12 59 47.5t33 112.5l215 1106h523l237 -1131q13 -64 31.5 -94t56.5 -41v-256h-518v256q38 3 57 23t19 49q0 18 -4 45l-13 63h-294l-13 -57q-4 -28 -4 -47q0 -37 20 -56t62 -20v-256h-467zM412 1898h206l156 -264h-112z" />
    <glyph glyph-name="Aacute" unicode="&#xc1;" horiz-adv-x="1223" 
d="M487 653h207l-104 582zM47 0v256q41 12 59 47.5t33 112.5l215 1106h523l237 -1131q13 -64 31.5 -94t56.5 -41v-256h-518v256q38 3 57 23t19 49q0 18 -4 45l-13 63h-294l-13 -57q-4 -28 -4 -47q0 -37 20 -56t62 -20v-256h-467zM651 1878h207l-250 -264h-112z" />
    <glyph glyph-name="Acircumflex" unicode="&#xc2;" horiz-adv-x="1223" 
d="M487 653h207l-104 582zM47 0v256q41 12 59 47.5t33 112.5l215 1106h523l237 -1131q13 -64 31.5 -94t56.5 -41v-256h-518v256q38 3 57 23t19 49q0 18 -4 45l-13 63h-294l-13 -57q-4 -28 -4 -47q0 -37 20 -56t62 -20v-256h-467zM518 1864h201l166 -262h-119l-148 153
l-149 -153h-117z" />
    <glyph glyph-name="Atilde" unicode="&#xc3;" horiz-adv-x="1223" 
d="M487 653h207l-104 582zM47 0v256q41 12 59 47.5t33 112.5l215 1106h523l237 -1131q13 -64 31.5 -94t56.5 -41v-256h-518v256q38 3 57 23t19 49q0 18 -4 45l-13 63h-294l-13 -57q-4 -28 -4 -47q0 -37 20 -56t62 -20v-256h-467zM784 1835h86q-22 -100 -60.5 -147.5
t-102.5 -47.5q-35 0 -56 7l-69 20q-19 6 -50 6q-51 0 -67 -59h-88q18 94 57 140t103 46q31 0 65 -10l74 -18q23 -5 43 -5q47 0 65 68z" />
    <glyph glyph-name="Adieresis" unicode="&#xc4;" horiz-adv-x="1223" 
d="M487 653h207l-104 582zM47 0v256q41 12 59 47.5t33 112.5l215 1106h523l237 -1131q13 -64 31.5 -94t56.5 -41v-256h-518v256q38 3 57 23t19 49q0 18 -4 45l-13 63h-294l-13 -57q-4 -28 -4 -47q0 -37 20 -56t62 -20v-256h-467zM672 1720l-2 4q0 49 35 84t86 35t86.5 -35.5
t35.5 -85.5q0 -51 -36 -87t-84 -36q-49 0 -85 36t-36 85zM344 1724l-4 5q0 50 36 85t85 35t86 -36t37 -87q0 -49 -35.5 -84.5t-85.5 -35.5q-47 0 -83 36t-36 82z" />
    <glyph glyph-name="Aring" unicode="&#xc5;" horiz-adv-x="1223" 
d="M487 653h207l-104 582zM47 0v256q41 12 59 47.5t33 112.5l215 1106h523l237 -1131q13 -64 31.5 -94t56.5 -41v-256h-518v256q38 3 57 23t19 49q0 18 -4 45l-13 63h-294l-13 -57q-4 -28 -4 -47q0 -37 20 -56t62 -20v-256h-467zM610 2017q58 0 106.5 -28t76.5 -75.5
t28 -105.5q0 -87 -61 -150t-150 -63q-87 0 -148 62.5t-61 150.5q0 58 27.5 105.5t76 75.5t105.5 28zM610 1903l-2 2q-41 0 -67.5 -27.5t-26.5 -69.5q0 -40 28 -68t68 -28t68.5 27.5t28.5 66.5t-29 68t-68 29z" />
    <glyph glyph-name="AE" unicode="&#xc6;" horiz-adv-x="1858" 
d="M721 0v256q43 9 58.5 38.5t15.5 90.5v37h-326l-25 -55q-14 -37 -14 -64q0 -17 14 -31.5t35 -15.5v-256h-454v256q63 16 110 137l453 1129h1186v-465h-326v16q0 90 -39.5 124t-140.5 34h-127v-318h411v-256h-411v-366h131q108 0 142 33.5t34 130.5v55h326v-510h-1053z
M549 647h246v684z" />
    <glyph glyph-name="Ccedilla" unicode="&#xc7;" horiz-adv-x="1237" 
d="M109 1010q0 135 10.5 216.5t48.5 145.5q57 96 167.5 138t285.5 42q249 0 491 -112v-430h-332v30q0 205 -159 205q-89 0 -125.5 -53.5t-36.5 -169.5v-522q0 -117 37 -170.5t125 -53.5t123.5 54t35.5 170v108h332v-522q-107 -56 -234 -86.5t-257 -30.5q-158 0 -264 35.5
t-167 112.5q-36 46 -53.5 103.5t-22.5 120t-5 171.5v498zM569 -25h78v-73h10q187 0 187 -150q0 -160 -209 -160q-82 0 -211 33v103q129 -33 203 -33q78 0 78 57q0 29 -21.5 42t-71.5 13h-43v168z" />
    <glyph glyph-name="Egrave" unicode="&#xc8;" horiz-adv-x="1262" 
d="M102 0v256q34 7 51.5 25.5t22 45.5t4.5 87v704q0 82 -13 114.5t-65 43.5v246h1072v-465h-330v16q0 90 -40 124t-142 34h-130v-318h416v-256h-416v-366h154q92 0 125 36.5t33 127.5v55h330v-510h-1072zM403 1898h207l156 -264h-113z" />
    <glyph glyph-name="Eacute" unicode="&#xc9;" horiz-adv-x="1262" 
d="M102 0v256q34 7 51.5 25.5t22 45.5t4.5 87v704q0 82 -13 114.5t-65 43.5v246h1072v-465h-330v16q0 90 -40 124t-142 34h-130v-318h416v-256h-416v-366h154q92 0 125 36.5t33 127.5v55h330v-510h-1072zM705 1888h206l-249 -264h-113z" />
    <glyph glyph-name="Ecircumflex" unicode="&#xca;" horiz-adv-x="1262" 
d="M102 0v256q34 7 51.5 25.5t22 45.5t4.5 87v704q0 82 -13 114.5t-65 43.5v246h1072v-465h-330v16q0 90 -40 124t-142 34h-130v-318h416v-256h-416v-366h154q92 0 125 36.5t33 127.5v55h330v-510h-1072zM553 1864h201l166 -262h-119l-148 153l-149 -153h-117z" />
    <glyph glyph-name="Edieresis" unicode="&#xcb;" horiz-adv-x="1262" 
d="M102 0v256q34 7 51.5 25.5t22 45.5t4.5 87v704q0 82 -13 114.5t-65 43.5v246h1072v-465h-330v16q0 90 -40 124t-142 34h-130v-318h416v-256h-416v-366h154q92 0 125 36.5t33 127.5v55h330v-510h-1072zM686 1731l-2 4q0 47 35.5 82.5t85.5 35.5t86.5 -34.5t36.5 -85.5
q0 -53 -36 -88t-85 -35t-85 36t-36 85zM358 1735l-4 4q0 49 36 85t85 36q51 0 87 -37t36 -86q0 -50 -35.5 -85.5t-85.5 -35.5q-46 0 -82.5 35.5t-36.5 83.5z" />
    <glyph glyph-name="Igrave" unicode="&#xcc;" horiz-adv-x="725" 
d="M539 414q0 -60 4 -87t20 -45.5t51 -25.5v-256h-505v256q35 7 51.5 25.5t21 45.5t4.5 87v704q0 82 -13 114.5t-64 43.5v246h505v-246q-35 -7 -51 -25.5t-20 -46.5t-4 -86v-704zM137 1898h207l156 -264h-113z" />
    <glyph glyph-name="Iacute" unicode="&#xcd;" horiz-adv-x="725" 
d="M539 414q0 -60 4 -87t20 -45.5t51 -25.5v-256h-505v256q35 7 51.5 25.5t21 45.5t4.5 87v704q0 82 -13 114.5t-64 43.5v246h505v-246q-35 -7 -51 -25.5t-20 -46.5t-4 -86v-704zM397 1898h207l-250 -264h-112z" />
    <glyph glyph-name="Icircumflex" unicode="&#xce;" horiz-adv-x="725" 
d="M539 414q0 -60 4 -87t20 -45.5t51 -25.5v-256h-505v256q35 7 51.5 25.5t21 45.5t4.5 87v704q0 82 -13 114.5t-64 43.5v246h505v-246q-35 -7 -51 -25.5t-20 -46.5t-4 -86v-704zM262 1878h201l166 -262h-119l-148 153l-149 -153h-117z" />
    <glyph glyph-name="Idieresis" unicode="&#xcf;" horiz-adv-x="725" 
d="M539 414q0 -60 4 -87t20 -45.5t51 -25.5v-256h-505v256q35 7 51.5 25.5t21 45.5t4.5 87v704q0 82 -13 114.5t-64 43.5v246h505v-246q-35 -7 -51 -25.5t-20 -46.5t-4 -86v-704zM416 1724l-2 5q0 47 35.5 82.5t85.5 35.5q51 0 86.5 -35.5t35.5 -85.5q0 -51 -35.5 -86.5
t-84.5 -35.5t-85 36t-36 84zM88 1729l-4 4q0 50 36 85t85 35t86 -36t37 -86t-35.5 -85.5t-85.5 -35.5q-47 0 -83 36t-36 83z" />
    <glyph glyph-name="Eth" unicode="&#xd0;" horiz-adv-x="1352" 
d="M657 0h-505v256q50 11 62.5 42t12.5 116v262h-180v213h180v229q0 85 -12.5 116t-62.5 42v246h505q224 0 350 -51t181 -173.5t55 -349.5v-364q0 -181 -28.5 -292.5t-93.5 -174.5t-175.5 -90t-288.5 -27zM580 305h104q64 0 105.5 9.5t64 34.5t30 63.5t7.5 105.5v459
q0 142 -35 194t-154 52h-20l-102 -2v-332h155v-213h-155v-371z" />
    <glyph glyph-name="Ntilde" unicode="&#xd1;" horiz-adv-x="1374" 
d="M102 0v256q50 6 64 39.5t14 114.5v735q0 62 -15 91.5t-63 39.5v246h398l383 -856v456q0 76 -16.5 110.5t-65.5 43.5v246h483v-246q-40 -12 -57 -32t-21 -49t-4 -89v-1106h-319l-383 864v-454q0 -80 15.5 -113.5t64.5 -40.5v-256h-478zM881 1833h86q-21 -98 -60.5 -146.5
t-103.5 -48.5q-35 0 -55 7l-70 20q-19 6 -49 6q-52 0 -68 -59h-88q20 96 58 141t102 45q32 0 65 -10l74 -19q28 -4 43 -4q46 0 66 68z" />
    <glyph glyph-name="Ograve" unicode="&#xd2;" horiz-adv-x="1239" 
d="M109 1010q0 108 4.5 170t21.5 119.5t55 105.5q61 78 167 112.5t264 34.5q156 0 260.5 -34.5t167.5 -112.5q53 -67 67 -154t14 -241v-498q0 -154 -14 -241t-67 -154q-62 -77 -167 -112.5t-261 -35.5q-158 0 -264 35.5t-167 112.5q-37 47 -54.5 104.5t-22 119.5t-4.5 171
v498zM459 1022v-522q0 -117 37 -170.5t125 -53.5t123.5 54t35.5 170v522q0 115 -35 169t-124 54t-125.5 -53.5t-36.5 -169.5zM395 1929h207l156 -264h-113z" />
    <glyph glyph-name="Oacute" unicode="&#xd3;" horiz-adv-x="1239" 
d="M109 1010q0 108 4.5 170t21.5 119.5t55 105.5q61 78 167 112.5t264 34.5q156 0 260.5 -34.5t167.5 -112.5q53 -67 67 -154t14 -241v-498q0 -154 -14 -241t-67 -154q-62 -77 -167 -112.5t-261 -35.5q-158 0 -264 35.5t-167 112.5q-37 47 -54.5 104.5t-22 119.5t-4.5 171
v498zM459 1022v-522q0 -117 37 -170.5t125 -53.5t123.5 54t35.5 170v522q0 115 -35 169t-124 54t-125.5 -53.5t-36.5 -169.5zM635 1929h207l-250 -264h-113z" />
    <glyph glyph-name="Ocircumflex" unicode="&#xd4;" horiz-adv-x="1239" 
d="M109 1010q0 108 4.5 170t21.5 119.5t55 105.5q61 78 167 112.5t264 34.5q156 0 260.5 -34.5t167.5 -112.5q53 -67 67 -154t14 -241v-498q0 -154 -14 -241t-67 -154q-62 -77 -167 -112.5t-261 -35.5q-158 0 -264 35.5t-167 112.5q-37 47 -54.5 104.5t-22 119.5t-4.5 171
v498zM459 1022v-522q0 -117 37 -170.5t125 -53.5t123.5 54t35.5 170v522q0 115 -35 169t-124 54t-125.5 -53.5t-36.5 -169.5zM530 1872h201l166 -262h-119l-147 153l-150 -153h-116z" />
    <glyph glyph-name="Otilde" unicode="&#xd5;" horiz-adv-x="1239" 
d="M109 1010q0 108 4.5 170t21.5 119.5t55 105.5q61 78 167 112.5t264 34.5q156 0 260.5 -34.5t167.5 -112.5q53 -67 67 -154t14 -241v-498q0 -154 -14 -241t-67 -154q-62 -77 -167 -112.5t-261 -35.5q-158 0 -264 35.5t-167 112.5q-37 47 -54.5 104.5t-22 119.5t-4.5 171
v498zM459 1022v-522q0 -117 37 -170.5t125 -53.5t123.5 54t35.5 170v522q0 115 -35 169t-124 54t-125.5 -53.5t-36.5 -169.5zM799 1866h86q-21 -98 -60.5 -146.5t-103.5 -48.5q-35 0 -55 6l-70 21q-18 6 -49 6q-26 0 -42 -14t-26 -45h-88q20 96 58 141t102 45q32 0 65 -10
l74 -19q30 -4 43 -4q46 0 66 68z" />
    <glyph glyph-name="Odieresis" unicode="&#xd6;" horiz-adv-x="1239" 
d="M109 1010q0 108 4.5 170t21.5 119.5t55 105.5q61 78 167 112.5t264 34.5q156 0 260.5 -34.5t167.5 -112.5q53 -67 67 -154t14 -241v-498q0 -154 -14 -241t-67 -154q-62 -77 -167 -112.5t-261 -35.5q-158 0 -264 35.5t-167 112.5q-37 47 -54.5 104.5t-22 119.5t-4.5 171
v498zM459 1022v-522q0 -117 37 -170.5t125 -53.5t123.5 54t35.5 170v522q0 115 -35 169t-124 54t-125.5 -53.5t-36.5 -169.5zM664 1749l-2 4q0 49 35 84t85 35q52 0 87.5 -35.5t35.5 -85.5q0 -53 -36 -88t-85 -35q-48 0 -84 36t-36 85zM336 1753l-4 4q0 49 36 85t85 36
q50 0 86 -36t36 -87q0 -50 -35.5 -85.5t-84.5 -35.5q-48 0 -83.5 36.5t-35.5 82.5z" />
    <glyph glyph-name="multiply" unicode="&#xd7;" horiz-adv-x="1706" 
d="M416 1202l450 -450l451 450l141 -139l-450 -453l450 -450l-141 -140l-451 451l-450 -451l-140 140l451 450l-451 453z" />
    <glyph glyph-name="Oslash" unicode="&#xd8;" horiz-adv-x="1239" 
d="M459 1022v-522q0 -117 37 -170.5t125 -53.5t123.5 54t35.5 170v522q0 115 -35 169t-124 54t-125.5 -53.5t-36.5 -169.5zM109 1010q0 108 4.5 170t21.5 119.5t55 105.5q61 78 167 112.5t264 34.5q134 0 219 -22l55 121l248 -125l-72 -156q37 -57 48 -138t11 -222v-498
q0 -136 -11 -218.5t-48 -143.5q-40 -66 -100.5 -105t-147.5 -57.5t-202 -18.5q-137 0 -226 25l-55 -123l-244 121l76 153q-26 39 -40 91t-18.5 119t-4.5 157v498z" />
    <glyph glyph-name="Ugrave" unicode="&#xd9;" horiz-adv-x="1327" 
d="M94 1276v246h510v-246q-50 -16 -64 -56t-14 -128v-590q0 -78 15 -126.5t51 -74t94 -25.5q166 0 166 220v639q0 67 -17.5 98t-62.5 43v246h461v-246q-51 -11 -66.5 -46.5t-15.5 -115.5v-631q0 -88 -7 -148.5t-27 -113.5t-60 -100q-61 -72 -159.5 -112t-219.5 -40
q-139 0 -235.5 33t-154 98.5t-84 167t-26.5 240.5v614q0 74 -14.5 104t-69.5 50zM420 1878h207l155 -264h-112z" />
    <glyph glyph-name="Uacute" unicode="&#xda;" horiz-adv-x="1327" 
d="M94 1276v246h510v-246q-50 -16 -64 -56t-14 -128v-590q0 -78 15 -126.5t51 -74t94 -25.5q166 0 166 220v639q0 67 -17.5 98t-62.5 43v246h461v-246q-51 -11 -66.5 -46.5t-15.5 -115.5v-631q0 -88 -7 -148.5t-27 -113.5t-60 -100q-61 -72 -159.5 -112t-219.5 -40
q-139 0 -235.5 33t-154 98.5t-84 167t-26.5 240.5v614q0 74 -14.5 104t-69.5 50zM772 1888h207l-250 -264h-113z" />
    <glyph glyph-name="Ucircumflex" unicode="&#xdb;" horiz-adv-x="1327" 
d="M94 1276v246h510v-246q-50 -16 -64 -56t-14 -128v-590q0 -78 15 -126.5t51 -74t94 -25.5q166 0 166 220v639q0 67 -17.5 98t-62.5 43v246h461v-246q-51 -11 -66.5 -46.5t-15.5 -115.5v-631q0 -88 -7 -148.5t-27 -113.5t-60 -100q-61 -72 -159.5 -112t-219.5 -40
q-139 0 -235.5 33t-154 98.5t-84 167t-26.5 240.5v614q0 74 -14.5 104t-69.5 50zM596 1860h201l166 -263h-119l-148 154l-149 -154h-117z" />
    <glyph glyph-name="Udieresis" unicode="&#xdc;" horiz-adv-x="1327" 
d="M94 1276v246h510v-246q-50 -16 -64 -56t-14 -128v-590q0 -78 15 -126.5t51 -74t94 -25.5q166 0 166 220v639q0 67 -17.5 98t-62.5 43v246h461v-246q-51 -11 -66.5 -46.5t-15.5 -115.5v-631q0 -88 -7 -148.5t-27 -113.5t-60 -100q-61 -72 -159.5 -112t-219.5 -40
q-139 0 -235.5 33t-154 98.5t-84 167t-26.5 240.5v614q0 74 -14.5 104t-69.5 50zM729 1726l-2 5q0 47 35.5 82.5t85.5 35.5t86.5 -34.5t36.5 -85.5q0 -53 -36 -88t-85 -35t-85 36t-36 84zM401 1731l-4 4q0 50 36 85t85 35q51 0 87 -36t36 -86t-35.5 -85.5t-85.5 -35.5
q-46 0 -82.5 35.5t-36.5 83.5z" />
    <glyph glyph-name="Yacute" unicode="&#xdd;" horiz-adv-x="1128" 
d="M319 0v256q44 9 62 42t18 101v185l-295 602q-37 79 -81 90v246h446v-187q0 -100 29 -161l102 -211l100 202q33 66 33 170v187h391v-246q-42 -13 -82 -88l-292 -586v-199q0 -77 13.5 -108.5t63.5 -38.5v-256h-508zM662 1898h206l-250 -264h-112z" />
    <glyph glyph-name="Thorn" unicode="&#xde;" horiz-adv-x="1190" 
d="M608 1331q-42 -6 -59 -26t-17 -66h158q163 0 264 -41.5t147 -131.5t46 -241q0 -136 -20.5 -226.5t-71.5 -145.5t-139.5 -81t-225.5 -26h-158v-20q0 -65 15.5 -93.5t60.5 -37.5v-195h-506v256q34 7 51.5 25.5t22 45.5t4.5 87v704q0 82 -13 114.5t-65 43.5v246h506v-191z
M532 625h121q99 0 135.5 32.5t36.5 133.5q0 102 -37 138t-133 36h-123v-340z" />
    <glyph glyph-name="germandbls" unicode="&#xdf;" horiz-adv-x="1112" 
d="M63 0v227q44 21 59 54t15 98v682q0 117 11 189t47 128q48 77 148 117.5t249 40.5q223 0 323.5 -90t100.5 -285q0 -135 -47 -207.5t-162 -103.5q117 -31 167 -105t50 -210v-179q0 -191 -75.5 -273.5t-256.5 -82.5h-133v227h27q68 0 90 34t22 126v174q0 87 -31 125.5
t-108 42.5v195q59 4 89.5 25t42 62t11.5 111q0 96 -29.5 140.5t-99.5 44.5q-72 0 -97 -44.5t-25 -138.5v-1124h-388z" />
    <glyph glyph-name="agrave" unicode="&#xe0;" horiz-adv-x="1133" 
d="M688 117q-50 -46 -103 -75.5t-111 -44.5t-114 -15q-133 0 -210.5 82.5t-77.5 226.5q0 115 62.5 190t184.5 129.5t357 128.5v64q0 65 -27 95t-86 30q-114 0 -114 -129v-35h-314v258q66 35 145.5 63t153.5 41t146 13q147 0 237.5 -39.5t131 -121.5t40.5 -216v-373
q0 -84 13 -118t61 -44v-227h-375v117zM676 526q-147 -58 -208.5 -102t-61.5 -109q0 -40 24 -65t66 -25q86 0 180 109v192zM354 1505h207l156 -264h-113z" />
    <glyph glyph-name="aacute" unicode="&#xe1;" horiz-adv-x="1133" 
d="M688 117q-50 -46 -103 -75.5t-111 -44.5t-114 -15q-133 0 -210.5 82.5t-77.5 226.5q0 115 62.5 190t184.5 129.5t357 128.5v64q0 65 -27 95t-86 30q-114 0 -114 -129v-35h-314v258q66 35 145.5 63t153.5 41t146 13q147 0 237.5 -39.5t131 -121.5t40.5 -216v-373
q0 -84 13 -118t61 -44v-227h-375v117zM676 526q-147 -58 -208.5 -102t-61.5 -109q0 -40 24 -65t66 -25q86 0 180 109v192zM635 1505h207l-250 -264h-113z" />
    <glyph glyph-name="acircumflex" unicode="&#xe2;" horiz-adv-x="1133" 
d="M688 117q-50 -46 -103 -75.5t-111 -44.5t-114 -15q-133 0 -210.5 82.5t-77.5 226.5q0 115 62.5 190t184.5 129.5t357 128.5v64q0 65 -27 95t-86 30q-114 0 -114 -129v-35h-314v258q66 35 145.5 63t153.5 41t146 13q147 0 237.5 -39.5t131 -121.5t40.5 -216v-373
q0 -84 13 -118t61 -44v-227h-375v117zM676 526q-147 -58 -208.5 -102t-61.5 -109q0 -40 24 -65t66 -25q86 0 180 109v192zM461 1479h201l165 -262h-118l-148 153l-149 -153h-117z" />
    <glyph glyph-name="atilde" unicode="&#xe3;" horiz-adv-x="1133" 
d="M688 117q-50 -46 -103 -75.5t-111 -44.5t-114 -15q-133 0 -210.5 82.5t-77.5 226.5q0 115 62.5 190t184.5 129.5t357 128.5v64q0 65 -27 95t-86 30q-114 0 -114 -129v-35h-314v258q66 35 145.5 63t153.5 41t146 13q147 0 237.5 -39.5t131 -121.5t40.5 -216v-373
q0 -84 13 -118t61 -44v-227h-375v117zM676 526q-147 -58 -208.5 -102t-61.5 -109q0 -40 24 -65t66 -25q86 0 180 109v192zM748 1442h86q-21 -98 -60.5 -146.5t-103.5 -48.5q-35 0 -56 6l-69 21q-19 6 -49 6q-52 0 -68 -59h-88q20 96 58 141t102 45q32 0 65 -10l74 -19
q28 -4 43 -4q46 0 66 68z" />
    <glyph glyph-name="adieresis" unicode="&#xe4;" horiz-adv-x="1133" 
d="M688 117q-50 -46 -103 -75.5t-111 -44.5t-114 -15q-133 0 -210.5 82.5t-77.5 226.5q0 115 62.5 190t184.5 129.5t357 128.5v64q0 65 -27 95t-86 30q-114 0 -114 -129v-35h-314v258q66 35 145.5 63t153.5 41t146 13q147 0 237.5 -39.5t131 -121.5t40.5 -216v-373
q0 -84 13 -118t61 -44v-227h-375v117zM676 526q-147 -58 -208.5 -102t-61.5 -109q0 -40 24 -65t66 -25q86 0 180 109v192zM625 1346l-2 4q0 47 35.5 82.5t84.5 35.5q52 0 87.5 -34.5t35.5 -85.5q0 -53 -36 -88t-85 -35q-48 0 -84 36t-36 85zM297 1350l-4 4q0 49 36 85t85 36
t86 -37t37 -86q0 -50 -35.5 -85.5t-85.5 -35.5q-47 0 -83 36t-36 83z" />
    <glyph glyph-name="aring" unicode="&#xe5;" horiz-adv-x="1133" 
d="M688 117q-50 -46 -103 -75.5t-111 -44.5t-114 -15q-133 0 -210.5 82.5t-77.5 226.5q0 115 62.5 190t184.5 129.5t357 128.5v64q0 65 -27 95t-86 30q-114 0 -114 -129v-35h-314v258q66 35 145.5 63t153.5 41t146 13q147 0 237.5 -39.5t131 -121.5t40.5 -216v-373
q0 -84 13 -118t61 -44v-227h-375v117zM676 526q-147 -58 -208.5 -102t-61.5 -109q0 -40 24 -65t66 -25q86 0 180 109v192zM584 1642q58 0 106.5 -28t76.5 -75t28 -105q0 -89 -61 -151t-150 -62t-149 62t-60 151q0 57 28 104.5t75.5 75.5t105.5 28zM584 1528l-2 2
q-41 0 -68 -27t-27 -69q0 -41 28 -69t69 -28t68.5 27.5t27.5 67.5t-28 68t-68 28z" />
    <glyph glyph-name="ae" unicode="&#xe6;" horiz-adv-x="1653" 
d="M985 397q0 -97 30.5 -141.5t104.5 -44.5q137 0 137 160v6h310v-266q-94 -62 -209 -95.5t-238 -33.5q-276 0 -387 165q-187 -165 -373 -165q-133 0 -210.5 82.5t-77.5 226.5q0 115 62.5 190t184.5 129.5t357 128.5v64q0 65 -27 95t-86 30q-114 0 -114 -129v-35h-314v258
q217 113 434 113q164 0 271 -70q123 74 280 74q156 0 255 -42.5t145.5 -131.5t46.5 -226v-245h-582v-97zM985 723v-31h272v45q0 174 -137 174q-73 0 -104 -45t-31 -143zM676 526q-147 -58 -208.5 -102t-61.5 -109q0 -40 24 -65t66 -25q82 0 180 109v192z" />
    <glyph glyph-name="ccedilla" unicode="&#xe7;" horiz-adv-x="1075" 
d="M686 702v35q0 89 -32.5 131.5t-102.5 42.5q-73 0 -104 -45t-31 -143v-326q0 -97 30.5 -141.5t104.5 -44.5q76 0 105.5 44.5t29.5 141.5v66h291v-361q-87 -56 -197 -88t-229 -32q-161 0 -259.5 41.5t-145 128t-46.5 227.5v360q0 103 25 177.5t79 124.5t135.5 74t195.5 24
q229 0 442 -121v-316h-291zM512 -10h78v-74h10q186 0 186 -149q0 -160 -208 -160q-87 0 -211 33v102q129 -33 202 -33q78 0 78 58q0 29 -21 42t-71 13h-43v168z" />
    <glyph glyph-name="egrave" unicode="&#xe8;" horiz-adv-x="1081" 
d="M416 397q0 -97 30.5 -141.5t104.5 -44.5q135 0 135 160v6h309v-266q-198 -129 -444 -129q-161 0 -259.5 41.5t-145 128t-46.5 227.5v360q0 140 46 228t146 130t259 42q235 0 339.5 -96t104.5 -304v-245h-579v-97zM416 723v-31h270v45q0 89 -32.5 131.5t-102.5 42.5
q-73 0 -104 -45t-31 -143zM334 1495h207l155 -264h-112z" />
    <glyph glyph-name="eacute" unicode="&#xe9;" horiz-adv-x="1081" 
d="M416 397q0 -97 30.5 -141.5t104.5 -44.5q135 0 135 160v6h309v-266q-198 -129 -444 -129q-161 0 -259.5 41.5t-145 128t-46.5 227.5v360q0 140 46 228t146 130t259 42q235 0 339.5 -96t104.5 -304v-245h-579v-97zM416 723v-31h270v45q0 89 -32.5 131.5t-102.5 42.5
q-73 0 -104 -45t-31 -143zM573 1505h207l-250 -264h-112z" />
    <glyph glyph-name="ecircumflex" unicode="&#xea;" horiz-adv-x="1081" 
d="M416 397q0 -97 30.5 -141.5t104.5 -44.5q135 0 135 160v6h309v-266q-198 -129 -444 -129q-161 0 -259.5 41.5t-145 128t-46.5 227.5v360q0 140 46 228t146 130t259 42q235 0 339.5 -96t104.5 -304v-245h-579v-97zM416 723v-31h270v45q0 89 -32.5 131.5t-102.5 42.5
q-73 0 -104 -45t-31 -143zM457 1470h200l166 -262h-118l-148 154l-149 -154h-117z" />
    <glyph glyph-name="edieresis" unicode="&#xeb;" horiz-adv-x="1081" 
d="M416 397q0 -97 30.5 -141.5t104.5 -44.5q135 0 135 160v6h309v-266q-198 -129 -444 -129q-161 0 -259.5 41.5t-145 128t-46.5 227.5v360q0 140 46 228t146 130t259 42q235 0 339.5 -96t104.5 -304v-245h-579v-97zM416 723v-31h270v45q0 89 -32.5 131.5t-102.5 42.5
q-73 0 -104 -45t-31 -143zM590 1337l-2 4q0 49 35 84t86 35t86.5 -35.5t35.5 -85.5q0 -51 -35.5 -86.5t-84.5 -35.5t-85 36t-36 84zM262 1341l-4 5q0 50 36 85t85 35t86 -36t37 -87q0 -49 -35.5 -84.5t-85.5 -35.5q-47 0 -83 36t-36 82z" />
    <glyph glyph-name="igrave" unicode="&#xec;" horiz-adv-x="633" 
d="M479 379q0 -78 11.5 -108.5t56.5 -43.5v-227h-451v227q43 7 56.5 44t13.5 126v355q0 70 -11.5 98t-58.5 45v223h383v-739zM59 1495h207l156 -264h-113z" />
    <glyph glyph-name="iacute" unicode="&#xed;" horiz-adv-x="633" 
d="M479 379q0 -78 11.5 -108.5t56.5 -43.5v-227h-451v227q43 7 56.5 44t13.5 126v355q0 70 -11.5 98t-58.5 45v223h383v-739zM309 1505h207l-250 -264h-112z" />
    <glyph glyph-name="icircumflex" unicode="&#xee;" horiz-adv-x="633" 
d="M479 379q0 -78 11.5 -108.5t56.5 -43.5v-227h-451v227q43 7 56.5 44t13.5 126v355q0 70 -11.5 98t-58.5 45v223h383v-739zM193 1475h200l166 -263h-119l-147 154l-150 -154h-116z" />
    <glyph glyph-name="idieresis" unicode="&#xef;" horiz-adv-x="633" 
d="M479 379q0 -78 11.5 -108.5t56.5 -43.5v-227h-451v227q43 7 56.5 44t13.5 126v355q0 70 -11.5 98t-58.5 45v223h383v-739zM336 1331l-2 4q0 49 35 84t86 35q50 0 86.5 -35.5t36.5 -85.5q0 -52 -36.5 -87.5t-84.5 -35.5q-49 0 -85 36t-36 85zM8 1335l-4 4q0 49 36 85
t85 36q51 0 87 -36t36 -87q0 -49 -35.5 -84.5t-85.5 -35.5q-47 0 -83 36t-36 82z" />
    <glyph glyph-name="eth" unicode="&#xf0;" horiz-adv-x="1100" 
d="M999 360q0 -134 -46 -216.5t-145.5 -122t-256.5 -39.5q-158 0 -257.5 39t-146.5 123t-47 216v340q0 136 47 219t149.5 121.5t266.5 38.5h19q-61 87 -129 170l-297 -121l-54 119l267 109q-120 136 -179 196h283q68 -59 113 -102l252 100l53 -123l-203 -86
q161 -175 236 -321.5t75 -319.5v-340zM416 686v-309q0 -93 30.5 -135.5t104.5 -42.5q76 0 105.5 42.5t29.5 135.5v309q0 93 -30.5 135.5t-104.5 42.5q-73 0 -104 -42.5t-31 -135.5z" />
    <glyph glyph-name="ntilde" unicode="&#xf1;" horiz-adv-x="1204" 
d="M473 379q0 -76 12.5 -107.5t57.5 -44.5v-227h-451v227q43 7 56.5 44t13.5 126v355q0 70 -11.5 98t-58.5 45v223h381v-69q129 75 252 75q188 0 262 -93t74 -300v-348q0 -86 14 -119.5t60 -36.5v-227h-355q-21 58 -26.5 138t-5.5 200v350q0 108 -31.5 157.5t-110.5 49.5
q-66 0 -133 -53v-463zM831 1423h87q-21 -99 -60.5 -146.5t-103.5 -47.5q-35 0 -56 6l-69 20q-19 7 -49 7q-26 0 -42.5 -13.5t-25.5 -46.5h-88q20 96 58 141.5t102 45.5q29 0 65 -11l74 -18q28 -4 43 -4q47 0 65 67z" />
    <glyph glyph-name="ograve" unicode="&#xf2;" horiz-adv-x="1100" 
d="M999 739v-360q0 -141 -46 -227.5t-144 -128t-258 -41.5q-161 0 -259.5 41.5t-145 128t-46.5 227.5v360q0 140 46 228t146 130t259 42q238 0 343 -95t105 -305zM678 723q0 99 -29 143.5t-98 44.5t-99 -45.5t-30 -142.5v-326q0 -98 29.5 -142t99.5 -44q69 0 98 44t29 142
v326zM356 1495h207l156 -264h-113z" />
    <glyph glyph-name="oacute" unicode="&#xf3;" horiz-adv-x="1100" 
d="M999 739v-360q0 -141 -46 -227.5t-144 -128t-258 -41.5q-161 0 -259.5 41.5t-145 128t-46.5 227.5v360q0 140 46 228t146 130t259 42q238 0 343 -95t105 -305zM678 723q0 99 -29 143.5t-98 44.5t-99 -45.5t-30 -142.5v-326q0 -98 29.5 -142t99.5 -44q69 0 98 44t29 142
v326zM575 1495h207l-250 -264h-112z" />
    <glyph glyph-name="ocircumflex" unicode="&#xf4;" horiz-adv-x="1100" 
d="M999 739v-360q0 -141 -46 -227.5t-144 -128t-258 -41.5q-161 0 -259.5 41.5t-145 128t-46.5 227.5v360q0 140 46 228t146 130t259 42q238 0 343 -95t105 -305zM678 723q0 99 -29 143.5t-98 44.5t-99 -45.5t-30 -142.5v-326q0 -98 29.5 -142t99.5 -44q69 0 98 44t29 142
v326zM442 1470h201l166 -262h-119l-147 154l-150 -154h-117z" />
    <glyph glyph-name="otilde" unicode="&#xf5;" horiz-adv-x="1100" 
d="M999 739v-360q0 -141 -46 -227.5t-144 -128t-258 -41.5q-161 0 -259.5 41.5t-145 128t-46.5 227.5v360q0 140 46 228t146 130t259 42q238 0 343 -95t105 -305zM678 723q0 99 -29 143.5t-98 44.5t-99 -45.5t-30 -142.5v-326q0 -98 29.5 -142t99.5 -44q69 0 98 44t29 142
v326zM709 1442h86q-21 -98 -60.5 -146.5t-103.5 -48.5q-35 0 -56 6l-69 21q-19 6 -49 6q-52 0 -68 -59h-88q20 96 58 141t102 45q32 0 65 -10l74 -19q28 -4 43 -4q46 0 66 68z" />
    <glyph glyph-name="odieresis" unicode="&#xf6;" horiz-adv-x="1100" 
d="M999 739v-360q0 -141 -46 -227.5t-144 -128t-258 -41.5q-161 0 -259.5 41.5t-145 128t-46.5 227.5v360q0 140 46 228t146 130t259 42q238 0 343 -95t105 -305zM678 723q0 99 -29 143.5t-98 44.5t-99 -45.5t-30 -142.5v-326q0 -98 29.5 -142t99.5 -44q69 0 98 44t29 142
v326zM575 1358l-2 4q0 48 34.5 83.5t86.5 35.5t87.5 -35.5t35.5 -85.5q0 -53 -36 -88t-85 -35t-85 36t-36 85zM248 1362l-4 4q0 49 36 85t85 36q50 0 86 -36t36 -87q0 -50 -34.5 -85.5t-85.5 -35.5q-47 0 -83 36t-36 83z" />
    <glyph glyph-name="divide" unicode="&#xf7;" horiz-adv-x="1706" 
d="M854 1155q61 0 106.5 -44.5t45.5 -106.5q0 -63 -44.5 -107.5t-107.5 -44.5q-43 0 -77 20.5t-54.5 54.5t-20.5 77q0 63 45 107t107 44zM254 711h1198v-199h-1198v199zM854 369q61 0 106.5 -44.5t45.5 -107.5q0 -59 -45 -104t-107 -45q-64 0 -108 43t-44 106t44.5 107.5
t107.5 44.5z" />
    <glyph glyph-name="oslash" unicode="&#xf8;" horiz-adv-x="1100" 
d="M416 723v-326q0 -97 30.5 -141.5t104.5 -44.5q76 0 105.5 44.5t29.5 141.5v326q0 98 -30.5 143t-104.5 45q-73 0 -104 -45t-31 -143zM125 8l49 101q-74 74 -74 270v360q0 140 46 228t146 130t259 42q89 0 162 -17l47 92l217 -100l-53 -102q75 -69 75 -273v-360
q0 -141 -46 -227.5t-144 -128t-258 -41.5q-95 0 -168 16l-47 -98z" />
    <glyph glyph-name="ugrave" unicode="&#xf9;" horiz-adv-x="1204" 
d="M1040 1118v-749q0 -51 4 -75.5t18 -41.5t48 -29v-223h-381v72q-132 -78 -252 -78q-128 0 -201.5 42.5t-104 127.5t-30.5 225v340q0 80 -10.5 117t-40.5 45v227h332q14 -38 21 -86.5t9.5 -103t2.5 -146.5v-352q0 -105 31 -156t106 -51q65 0 137 56v460q0 79 -12 110
t-58 42v227h381zM305 1485h207l156 -264h-113z" />
    <glyph glyph-name="uacute" unicode="&#xfa;" horiz-adv-x="1204" 
d="M1040 1118v-749q0 -51 4 -75.5t18 -41.5t48 -29v-223h-381v72q-132 -78 -252 -78q-128 0 -201.5 42.5t-104 127.5t-30.5 225v340q0 80 -10.5 117t-40.5 45v227h332q14 -38 21 -86.5t9.5 -103t2.5 -146.5v-352q0 -105 31 -156t106 -51q65 0 137 56v460q0 79 -12 110
t-58 42v227h381zM637 1495h207l-250 -264h-113z" />
    <glyph glyph-name="ucircumflex" unicode="&#xfb;" horiz-adv-x="1204" 
d="M1040 1118v-749q0 -51 4 -75.5t18 -41.5t48 -29v-223h-381v72q-132 -78 -252 -78q-128 0 -201.5 42.5t-104 127.5t-30.5 225v340q0 80 -10.5 117t-40.5 45v227h332q14 -38 21 -86.5t9.5 -103t2.5 -146.5v-352q0 -105 31 -156t106 -51q65 0 137 56v460q0 79 -12 110
t-58 42v227h381zM467 1464h201l166 -262h-119l-148 154l-149 -154h-117z" />
    <glyph glyph-name="udieresis" unicode="&#xfc;" horiz-adv-x="1204" 
d="M1040 1118v-749q0 -51 4 -75.5t18 -41.5t48 -29v-223h-381v72q-132 -78 -252 -78q-128 0 -201.5 42.5t-104 127.5t-30.5 225v340q0 80 -10.5 117t-40.5 45v227h332q14 -38 21 -86.5t9.5 -103t2.5 -146.5v-352q0 -105 31 -156t106 -51q65 0 137 56v460q0 79 -12 110
t-58 42v227h381zM621 1321l-3 4q0 50 34.5 84.5t86.5 34.5t87.5 -35.5t35.5 -85.5q0 -53 -36 -88t-85 -35q-48 0 -84 36t-36 85zM293 1325l-4 4q0 49 36 85t85 36q50 0 86 -36t36 -87q0 -50 -35.5 -85.5t-84.5 -35.5q-48 0 -83.5 36.5t-35.5 82.5z" />
    <glyph glyph-name="yacute" unicode="&#xfd;" horiz-adv-x="1049" 
d="M750 45q-32 -118 -65.5 -203t-79 -142t-113.5 -86.5t-164 -29.5q-52 0 -105 13v243h8q57 0 89 22.5t53 80.5l-275 843q-30 98 -75 109v223h438v-223q-41 -11 -41 -57q0 -18 6 -45l119 -496l106 496q6 21 6 43q0 40 -41 59v223h412v-223q-30 -11 -44 -32.5t-28 -67.5z
M623 1475h206l-249 -265h-113z" />
    <glyph glyph-name="thorn" unicode="&#xfe;" horiz-adv-x="1176" 
d="M1073 731v-305q0 -150 -28 -245t-100.5 -143t-203.5 -48q-130 0 -276 76v-84q0 -78 11.5 -109.5t55.5 -42.5v-227h-448v227q43 6 55.5 42.5t12.5 125.5v1157q0 72 -11 99t-57 44v224h381v-473q147 84 276 84q93 0 155.5 -25t101.5 -74.5t57 -124.5t18 -178zM752 688
q0 71 -13.5 117t-45.5 68t-89 22q-72 0 -139 -53v-566q88 -45 149 -45q53 0 84 25.5t42.5 75t11.5 129.5v227z" />
    <glyph glyph-name="ydieresis" unicode="&#xff;" horiz-adv-x="1049" 
d="M750 45q-32 -118 -65.5 -203t-79 -142t-113.5 -86.5t-164 -29.5q-52 0 -105 13v243h8q57 0 89 22.5t53 80.5l-275 843q-30 98 -75 109v223h438v-223q-41 -11 -41 -57q0 -18 6 -45l119 -496l106 496q6 21 6 43q0 40 -41 59v223h412v-223q-30 -11 -44 -32.5t-28 -67.5z
M596 1325l-2 4q0 49 35 84t86 35q50 0 86.5 -35.5t36.5 -85.5q0 -53 -36 -88t-85 -35t-85 36t-36 85zM268 1329l-4 4q0 49 36 85t85 36q51 0 87 -36t36 -87q0 -50 -36.5 -85.5t-84.5 -35.5q-47 0 -83 36t-36 83z" />
    <glyph glyph-name="lslash" horiz-adv-x="727" 
d="M526 379q0 -76 12.5 -107.5t57.5 -44.5v-227h-451v227q42 7 55 44t13 126v195l-166 -86v223l166 84v342q0 72 -11 99t-57 44v224h381v-615l166 86v-223l-166 -84v-307z" />
    <glyph glyph-name="dotaccent" horiz-adv-x="1024" 
d="M377 1434q0 33 18.5 65.5t49.5 51t67 18.5q57 0 96 -40t39 -95q0 -57 -39.5 -96.5t-95.5 -39.5q-34 0 -65 18.5t-50.5 50.5t-19.5 67z" />
    <glyph glyph-name="hungarumlaut" horiz-adv-x="1024" 
d="M410 1620h221l-232 -371h-104zM717 1620h229l-270 -371h-113z" />
    <glyph glyph-name="fi" horiz-adv-x="1305" 
d="M115 0v227q43 14 55 42.5t12 92.5v510h-67v246h67v96q0 158 82.5 239t239.5 81q66 0 143 -18v-224h-33q-118 0 -118 -129v-45h129v-246h-129v-507q0 -66 13 -96t56 -42v-227h-450zM1149 379q0 -76 12.5 -107.5t57.5 -44.5v-227h-451v227q42 7 56 45t14 125v355
q0 70 -11.5 98t-58.5 45v223h381v-739zM799 1352q0 46 24 87.5t65 66t89 24.5q73 0 124.5 -51.5t51.5 -126.5q0 -48 -24 -88.5t-64.5 -64t-87.5 -23.5q-70 0 -124 53t-54 123z" />
    <glyph glyph-name="sac" unicode="&#xf008;" horiz-adv-x="2" 
d="M-305 1477h207l-250 -265h-113z" />
    <glyph glyph-name="huyen" unicode="&#xf00d;" horiz-adv-x="2" 
d="M-510 1487h207l156 -264h-113z" />
    <glyph glyph-name="hoi" unicode="&#xf012;" horiz-adv-x="2" 
d="M-377 1221v32q0 35 9 53.5t38 39.5q22 15 52 34t43.5 33t13.5 33q0 45 -55 45q-52 0 -52 -59v-15h-114v121q65 47 166 47q89 0 133.5 -35t44.5 -108q0 -59 -20.5 -85t-74.5 -61q-45 -28 -56 -37.5t-11 -33.5v-4h-117z" />
    <glyph glyph-name="nga" unicode="&#xf01d;" horiz-adv-x="2" 
d="M-162 1436h86q-22 -100 -61 -147.5t-103 -47.5q-34 0 -55 6l-70 21q-18 6 -49 6q-50 0 -67 -60h-88q18 96 56.5 141.5t102.5 45.5q32 0 66 -10l74 -19q28 -4 43 -4q47 0 65 68z" />
    <glyph glyph-name="nang" unicode="&#xf02a;" horiz-adv-x="2" 
d="M-428 -254v2q0 51 34.5 88t86.5 37t88.5 -36.5t36.5 -88.5t-37.5 -88.5t-85.5 -36.5q-33 0 -60.5 16.5t-45 45.5t-17.5 61z" />
    <glyph glyph-name="aa" horiz-adv-x="2" 
d="M197 1620h96q6 -62 40.5 -88.5t106.5 -26.5q73 0 107.5 27t38.5 88h98q-6 -82 -33.5 -135.5t-79 -79t-131.5 -25.5q-117 0 -176.5 58.5t-66.5 181.5z" />
    <glyph glyph-name="ab" horiz-adv-x="2" 
d="M197 1620h200l166 -262h-119l-147 153l-150 -153h-116z" />
    <glyph glyph-name="dth" unicode="&#x111;" horiz-adv-x="1186" 
d="M100 387v361q0 72 6.5 125t28.5 98q38 77 112.5 117t182.5 40q131 0 279 -75v204h-277v123h277v142h313v-142h104v-123h-104v-890q0 -72 10.5 -99.5t57.5 -44.5v-223h-381v70q-139 -82 -279 -82q-120 0 -193 44t-105 131t-32 224zM422 430q0 -71 13.5 -117t45 -68
t88.5 -22q71 0 140 53v568q-86 43 -150 43q-79 0 -108 -54.5t-29 -175.5v-227z" />
    <glyph glyph-name="dth" unicode="&#x20ab;" horiz-adv-x="1186" 
d="M100 387v361q0 72 6.5 125t28.5 98q38 77 112.5 117t182.5 40q131 0 279 -75v204h-277v123h277v142h313v-142h104v-123h-104v-890q0 -72 10.5 -99.5t57.5 -44.5v-223h-381v70q-139 -82 -279 -82q-120 0 -193 44t-105 131t-32 224zM422 430q0 -71 13.5 -117t45 -68
t88.5 -22q71 0 140 53v568q-86 43 -150 43q-79 0 -108 -54.5t-29 -175.5v-227z" />
    <glyph glyph-name="dhoa" unicode="&#x110;" horiz-adv-x="1352" 
d="M657 0h-505v256q50 11 62.5 42t12.5 116v262h-180v213h180v229q0 85 -12.5 116t-62.5 42v246h505q224 0 350 -51t181 -173.5t55 -349.5v-364q0 -181 -28.5 -292.5t-93.5 -174.5t-175.5 -90t-288.5 -27zM580 305h104q64 0 105.5 9.5t64 34.5t30 63.5t7.5 105.5v459
q0 142 -35 194t-154 52h-20l-102 -2v-332h155v-213h-155v-371z" />
    <glyph glyph-name="octh" unicode="&#x1a1;" horiz-adv-x="1100" 
d="M999 739v-360q0 -141 -46 -227.5t-144 -128t-258 -41.5q-161 0 -259.5 41.5t-145 128t-46.5 227.5v360q0 140 46 228t146 130t259 42q179 0 286 -54.5t140 -177.5q29 5 49.5 28t20.5 56v148h141v-162q-3 -70 -61.5 -106.5t-133.5 -41.5q6 -16 6 -90zM678 723
q0 99 -29 143.5t-98 44.5t-99 -45.5t-30 -142.5v-326q0 -98 29.5 -142t99.5 -44q69 0 98 44t29 142v326z" />
    <glyph glyph-name="ochoa" unicode="&#x1a0;" horiz-adv-x="1239" 
d="M109 1010q0 108 4.5 170t21.5 119.5t55 105.5q61 78 167 112.5t264 34.5q134 0 215 -19.5t153 -68.5q69 -52 117 -164q34 6 56 28t22 56v166h143v-176q0 -93 -63 -139.5t-140 -50.5q6 -76 6 -174v-498q0 -154 -14 -241t-67 -154q-62 -77 -167 -112.5t-261 -35.5
q-158 0 -264 35.5t-167 112.5q-37 47 -54.5 104.5t-22 119.5t-4.5 171v498zM459 1022v-522q0 -117 37 -170.5t125 -53.5t123.5 54t35.5 170v522q0 115 -35 169t-124 54t-125.5 -53.5t-36.5 -169.5z" />
    <glyph glyph-name="ucth" unicode="&#x1b0;" horiz-adv-x="1204" 
d="M1040 1118v-235q34 5 56 27.5t22 56.5v151h144v-166q-8 -70 -77 -106.5t-145 -40.5v-436q0 -51 4 -75.5t18 -41.5t48 -29v-223h-381v72q-132 -78 -252 -78q-128 0 -201.5 42.5t-104 127.5t-30.5 225v340q0 80 -10.5 117t-40.5 45v227h332q14 -38 21 -86.5t9.5 -103
t2.5 -146.5v-352q0 -105 31 -156t106 -51q65 0 137 56v460q0 79 -12 110t-58 42v227h381z" />
    <glyph glyph-name="uchoa" unicode="&#x1af;" horiz-adv-x="1327" 
d="M94 1276v246h510v-246q-50 -16 -64 -56t-14 -128v-590q0 -78 15 -126.5t51 -74t94 -25.5q166 0 166 220v639q0 67 -17.5 98t-62.5 43v246h379v-250q34 5 56 27.5t22 56.5v166h143v-176q-1 -93 -71 -140t-150 -51v-672q0 -88 -7 -148.5t-27 -113.5t-60 -100
q-61 -72 -159.5 -112t-219.5 -40q-139 0 -235.5 33t-154 98.5t-84 167t-26.5 240.5v614q0 74 -14.5 104t-69.5 50z" />
    <glyph glyph-name="aath" unicode="&#x103;" horiz-adv-x="1133" 
d="M688 117q-50 -46 -103 -75.5t-111 -44.5t-114 -15q-133 0 -210.5 82.5t-77.5 226.5q0 115 62.5 190t184.5 129.5t357 128.5v64q0 65 -27 95t-86 30q-114 0 -114 -129v-35h-314v258q66 35 145.5 63t153.5 41t146 13q147 0 237.5 -39.5t131 -121.5t40.5 -216v-373
q0 -84 13 -118t61 -44v-227h-375v117zM676 526q-147 -58 -208.5 -102t-61.5 -109q0 -40 24 -65t66 -25q86 0 180 109v192zM328 1458h96q6 -62 40.5 -88.5t106.5 -26.5q73 0 107.5 27t38.5 88h98q-9 -126 -67 -182.5t-177 -56.5q-117 0 -176.5 58t-66.5 181z" />
    <glyph glyph-name="aahoa" unicode="&#x102;" horiz-adv-x="1223" 
d="M487 653h207l-104 582zM47 0v256q41 12 59 47.5t33 112.5l215 1106h523l237 -1131q13 -64 31.5 -94t56.5 -41v-256h-518v256q38 3 57 23t19 49q0 18 -4 45l-13 63h-294l-13 -57q-4 -28 -4 -47q0 -37 20 -56t62 -20v-256h-467zM375 1833h96q6 -62 40.5 -88.5t106.5 -26.5
q73 0 107.5 27t38.5 88h98q-6 -82 -33.5 -135.5t-79 -79t-131.5 -25.5q-117 0 -176.5 58.5t-66.5 181.5z" />
    <glyph glyph-name="abth" horiz-adv-x="1133" 
d="M688 117q-50 -46 -103 -75.5t-111 -44.5t-114 -15q-133 0 -210.5 82.5t-77.5 226.5q0 115 62.5 190t184.5 129.5t357 128.5v64q0 65 -27 95t-86 30q-114 0 -114 -129v-35h-314v258q66 35 145.5 63t153.5 41t146 13q147 0 237.5 -39.5t131 -121.5t40.5 -216v-373
q0 -84 13 -118t61 -44v-227h-375v117zM676 526q-147 -58 -208.5 -102t-61.5 -109q0 -40 24 -65t66 -25q86 0 180 109v192zM461 1479h201l165 -262h-118l-148 153l-149 -153h-117z" />
    <glyph glyph-name="abhoa" horiz-adv-x="1223" 
d="M487 653h207l-104 582zM47 0v256q41 12 59 47.5t33 112.5l215 1106h523l237 -1131q13 -64 31.5 -94t56.5 -41v-256h-518v256q38 3 57 23t19 49q0 18 -4 45l-13 63h-294l-13 -57q-4 -28 -4 -47q0 -37 20 -56t62 -20v-256h-467zM518 1864h201l166 -262h-119l-148 153
l-149 -153h-117z" />
    <glyph glyph-name="ebth" horiz-adv-x="1081" 
d="M416 397q0 -97 30.5 -141.5t104.5 -44.5q135 0 135 160v6h309v-266q-198 -129 -444 -129q-161 0 -259.5 41.5t-145 128t-46.5 227.5v360q0 140 46 228t146 130t259 42q235 0 339.5 -96t104.5 -304v-245h-579v-97zM416 723v-31h270v45q0 89 -32.5 131.5t-102.5 42.5
q-73 0 -104 -45t-31 -143zM457 1470h200l166 -262h-118l-148 154l-149 -154h-117z" />
    <glyph glyph-name="ebhoa" horiz-adv-x="1262" 
d="M102 0v256q34 7 51.5 25.5t22 45.5t4.5 87v704q0 82 -13 114.5t-65 43.5v246h1072v-465h-330v16q0 90 -40 124t-142 34h-130v-318h416v-256h-416v-366h154q92 0 125 36.5t33 127.5v55h330v-510h-1072zM553 1864h201l166 -262h-119l-148 153l-149 -153h-117z" />
    <glyph glyph-name="obth" horiz-adv-x="1100" 
d="M999 739v-360q0 -141 -46 -227.5t-144 -128t-258 -41.5q-161 0 -259.5 41.5t-145 128t-46.5 227.5v360q0 140 46 228t146 130t259 42q238 0 343 -95t105 -305zM678 723q0 99 -29 143.5t-98 44.5t-99 -45.5t-30 -142.5v-326q0 -98 29.5 -142t99.5 -44q69 0 98 44t29 142
v326zM442 1470h201l166 -262h-119l-147 154l-150 -154h-117z" />
    <glyph glyph-name="obhoa" horiz-adv-x="1239" 
d="M109 1010q0 108 4.5 170t21.5 119.5t55 105.5q61 78 167 112.5t264 34.5q156 0 260.5 -34.5t167.5 -112.5q53 -67 67 -154t14 -241v-498q0 -154 -14 -241t-67 -154q-62 -77 -167 -112.5t-261 -35.5q-158 0 -264 35.5t-167 112.5q-37 47 -54.5 104.5t-22 119.5t-4.5 171
v498zM459 1022v-522q0 -117 37 -170.5t125 -53.5t123.5 54t35.5 170v522q0 115 -35 169t-124 54t-125.5 -53.5t-36.5 -169.5zM530 1872h201l166 -262h-119l-147 153l-150 -153h-116z" />
    <glyph glyph-name="athsac" horiz-adv-x="1133" 
d="M688 117q-50 -46 -103 -75.5t-111 -44.5t-114 -15q-133 0 -210.5 82.5t-77.5 226.5q0 115 62.5 190t184.5 129.5t357 128.5v64q0 65 -27 95t-86 30q-114 0 -114 -129v-35h-314v258q66 35 145.5 63t153.5 41t146 13q147 0 237.5 -39.5t131 -121.5t40.5 -216v-373
q0 -84 13 -118t61 -44v-227h-375v117zM676 526q-147 -58 -208.5 -102t-61.5 -109q0 -40 24 -65t66 -25q86 0 180 109v192zM635 1505h207l-250 -264h-113z" />
    <glyph glyph-name="athhuyen" horiz-adv-x="1133" 
d="M688 117q-50 -46 -103 -75.5t-111 -44.5t-114 -15q-133 0 -210.5 82.5t-77.5 226.5q0 115 62.5 190t184.5 129.5t357 128.5v64q0 65 -27 95t-86 30q-114 0 -114 -129v-35h-314v258q66 35 145.5 63t153.5 41t146 13q147 0 237.5 -39.5t131 -121.5t40.5 -216v-373
q0 -84 13 -118t61 -44v-227h-375v117zM676 526q-147 -58 -208.5 -102t-61.5 -109q0 -40 24 -65t66 -25q86 0 180 109v192zM354 1505h207l156 -264h-113z" />
    <glyph glyph-name="athhoi" unicode="&#x1ea3;" horiz-adv-x="1133" 
d="M688 117q-50 -46 -103 -75.5t-111 -44.5t-114 -15q-133 0 -210.5 82.5t-77.5 226.5q0 115 62.5 190t184.5 129.5t357 128.5v64q0 65 -27 95t-86 30q-114 0 -114 -129v-35h-314v258q66 35 145.5 63t153.5 41t146 13q147 0 237.5 -39.5t131 -121.5t40.5 -216v-373
q0 -84 13 -118t61 -44v-227h-375v117zM676 526q-147 -58 -208.5 -102t-61.5 -109q0 -40 24 -65t66 -25q86 0 180 109v192zM522 1241v33q0 34 9 52.5t38 39.5q22 15 52 34t43.5 33t13.5 33q0 45 -55 45q-52 0 -52 -59v-14h-114v121q67 47 166 47q178 0 178 -144
q0 -59 -20 -84.5t-74 -60.5q-20 -12 -30 -18.5t-19.5 -14t-14 -17.5t-4.5 -22v-4h-117z" />
    <glyph glyph-name="athnga" horiz-adv-x="1133" 
d="M688 117q-50 -46 -103 -75.5t-111 -44.5t-114 -15q-133 0 -210.5 82.5t-77.5 226.5q0 115 62.5 190t184.5 129.5t357 128.5v64q0 65 -27 95t-86 30q-114 0 -114 -129v-35h-314v258q66 35 145.5 63t153.5 41t146 13q147 0 237.5 -39.5t131 -121.5t40.5 -216v-373
q0 -84 13 -118t61 -44v-227h-375v117zM676 526q-147 -58 -208.5 -102t-61.5 -109q0 -40 24 -65t66 -25q86 0 180 109v192zM748 1442h86q-21 -98 -60.5 -146.5t-103.5 -48.5q-35 0 -56 6l-69 21q-19 6 -49 6q-52 0 -68 -59h-88q20 96 58 141t102 45q32 0 65 -10l74 -19
q28 -4 43 -4q46 0 66 68z" />
    <glyph glyph-name="athnang" unicode="&#x1ea1;" horiz-adv-x="1133" 
d="M688 117q-50 -46 -103 -75.5t-111 -44.5t-114 -15q-133 0 -210.5 82.5t-77.5 226.5q0 115 62.5 190t184.5 129.5t357 128.5v64q0 65 -27 95t-86 30q-114 0 -114 -129v-35h-314v258q66 35 145.5 63t153.5 41t146 13q147 0 237.5 -39.5t131 -121.5t40.5 -216v-373
q0 -84 13 -118t61 -44v-227h-375v117zM676 526q-147 -58 -208.5 -102t-61.5 -109q0 -40 24 -65t66 -25q86 0 180 109v192zM434 -238v2q0 51 34.5 88t86.5 37q51 0 88 -37t37 -88t-36.5 -87.5t-86.5 -36.5q-32 0 -61 17.5t-45.5 45t-16.5 59.5z" />
    <glyph glyph-name="ahoasac" horiz-adv-x="1223" 
d="M487 653h207l-104 582zM47 0v256q41 12 59 47.5t33 112.5l215 1106h523l237 -1131q13 -64 31.5 -94t56.5 -41v-256h-518v256q38 3 57 23t19 49q0 18 -4 45l-13 63h-294l-13 -57q-4 -28 -4 -47q0 -37 20 -56t62 -20v-256h-467zM651 1878h207l-250 -264h-112z" />
    <glyph glyph-name="ahoahuyen" horiz-adv-x="1223" 
d="M487 653h207l-104 582zM47 0v256q41 12 59 47.5t33 112.5l215 1106h523l237 -1131q13 -64 31.5 -94t56.5 -41v-256h-518v256q38 3 57 23t19 49q0 18 -4 45l-13 63h-294l-13 -57q-4 -28 -4 -47q0 -37 20 -56t62 -20v-256h-467zM412 1898h206l156 -264h-112z" />
    <glyph glyph-name="ahoahoi" unicode="&#x1ea2;" horiz-adv-x="1223" 
d="M487 653h207l-104 582zM47 0v256q41 12 59 47.5t33 112.5l215 1106h523l237 -1131q13 -64 31.5 -94t56.5 -41v-256h-518v256q38 3 57 23t19 49q0 18 -4 45l-13 63h-294l-13 -57q-4 -28 -4 -47q0 -37 20 -56t62 -20v-256h-467zM549 1624v33q0 34 9 52.5t38 39.5
q30 21 56 37t39.5 31t13.5 32q0 45 -56 45q-51 0 -51 -59v-14h-115v121q67 47 166 47q178 0 178 -144q0 -58 -19 -83.5t-75 -61.5q-40 -25 -53.5 -36.5t-13.5 -35.5v-4h-117z" />
    <glyph glyph-name="ahoanga" horiz-adv-x="1223" 
d="M487 653h207l-104 582zM47 0v256q41 12 59 47.5t33 112.5l215 1106h523l237 -1131q13 -64 31.5 -94t56.5 -41v-256h-518v256q38 3 57 23t19 49q0 18 -4 45l-13 63h-294l-13 -57q-4 -28 -4 -47q0 -37 20 -56t62 -20v-256h-467zM784 1835h86q-22 -100 -60.5 -147.5
t-102.5 -47.5q-35 0 -56 7l-69 20q-19 6 -50 6q-51 0 -67 -59h-88q18 94 57 140t103 46q31 0 65 -10l74 -18q23 -5 43 -5q47 0 65 68z" />
    <glyph glyph-name="ahoanang" unicode="&#x1ea0;" horiz-adv-x="1223" 
d="M487 653h207l-104 582zM47 0v256q41 12 59 47.5t33 112.5l215 1106h523l237 -1131q13 -64 31.5 -94t56.5 -41v-256h-518v256q38 3 57 23t19 49q0 18 -4 45l-13 63h-294l-13 -57q-4 -28 -4 -47q0 -37 20 -56t62 -20v-256h-467zM481 -229v2q0 51 34.5 88t86.5 37
t88.5 -36.5t36.5 -88.5t-36.5 -88.5t-86.5 -36.5q-32 0 -61 17.5t-45.5 45t-16.5 60.5z" />
    <glyph glyph-name="ethsac" horiz-adv-x="1081" 
d="M416 397q0 -97 30.5 -141.5t104.5 -44.5q135 0 135 160v6h309v-266q-198 -129 -444 -129q-161 0 -259.5 41.5t-145 128t-46.5 227.5v360q0 140 46 228t146 130t259 42q235 0 339.5 -96t104.5 -304v-245h-579v-97zM416 723v-31h270v45q0 89 -32.5 131.5t-102.5 42.5
q-73 0 -104 -45t-31 -143zM573 1505h207l-250 -264h-112z" />
    <glyph glyph-name="ethhuyen" horiz-adv-x="1081" 
d="M416 397q0 -97 30.5 -141.5t104.5 -44.5q135 0 135 160v6h309v-266q-198 -129 -444 -129q-161 0 -259.5 41.5t-145 128t-46.5 227.5v360q0 140 46 228t146 130t259 42q235 0 339.5 -96t104.5 -304v-245h-579v-97zM416 723v-31h270v45q0 89 -32.5 131.5t-102.5 42.5
q-73 0 -104 -45t-31 -143zM334 1495h207l155 -264h-112z" />
    <glyph glyph-name="ethhoi" unicode="&#x1ebb;" horiz-adv-x="1081" 
d="M416 397q0 -97 30.5 -141.5t104.5 -44.5q135 0 135 160v6h309v-266q-198 -129 -444 -129q-161 0 -259.5 41.5t-145 128t-46.5 227.5v360q0 140 46 228t146 130t259 42q235 0 339.5 -96t104.5 -304v-245h-579v-97zM416 723v-31h270v45q0 89 -32.5 131.5t-102.5 42.5
q-73 0 -104 -45t-31 -143zM461 1241v33q0 34 9 52.5t38 39.5q30 21 55.5 37t39 30t13.5 33q0 45 -55 45q-51 0 -51 -59v-14h-115v121q67 47 166 47q178 0 178 -144q0 -59 -20 -84.5t-74 -60.5q-40 -25 -53.5 -36.5t-13.5 -35.5v-4h-117z" />
    <glyph glyph-name="ethnga" unicode="&#x1ebd;" horiz-adv-x="1081" 
d="M416 397q0 -97 30.5 -141.5t104.5 -44.5q135 0 135 160v6h309v-266q-198 -129 -444 -129q-161 0 -259.5 41.5t-145 128t-46.5 227.5v360q0 140 46 228t146 130t259 42q235 0 339.5 -96t104.5 -304v-245h-579v-97zM416 723v-31h270v45q0 89 -32.5 131.5t-102.5 42.5
q-73 0 -104 -45t-31 -143zM717 1442h86q-21 -98 -60.5 -146.5t-103.5 -48.5q-35 0 -55 6l-70 21q-18 6 -49 6q-26 0 -42 -14t-26 -45h-88q20 96 58 141t102 45q32 0 66 -10l73 -19q30 -4 43 -4q48 0 66 68z" />
    <glyph glyph-name="ethnang" unicode="&#x1eb9;" horiz-adv-x="1081" 
d="M416 397q0 -97 30.5 -141.5t104.5 -44.5q135 0 135 160v6h309v-266q-198 -129 -444 -129q-161 0 -259.5 41.5t-145 128t-46.5 227.5v360q0 140 46 228t146 130t259 42q235 0 339.5 -96t104.5 -304v-245h-579v-97zM416 723v-31h270v45q0 89 -32.5 131.5t-102.5 42.5
q-73 0 -104 -45t-31 -143zM424 -248v2q0 51 34.5 88t86.5 37t88.5 -36.5t36.5 -88.5q0 -34 -16.5 -62t-45.5 -45.5t-61 -17.5q-33 0 -60.5 16.5t-45 45.5t-17.5 61z" />
    <glyph glyph-name="ehoasac" horiz-adv-x="1262" 
d="M102 0v256q34 7 51.5 25.5t22 45.5t4.5 87v704q0 82 -13 114.5t-65 43.5v246h1072v-465h-330v16q0 90 -40 124t-142 34h-130v-318h416v-256h-416v-366h154q92 0 125 36.5t33 127.5v55h330v-510h-1072zM705 1888h206l-249 -264h-113z" />
    <glyph glyph-name="ehoahuyen" horiz-adv-x="1262" 
d="M102 0v256q34 7 51.5 25.5t22 45.5t4.5 87v704q0 82 -13 114.5t-65 43.5v246h1072v-465h-330v16q0 90 -40 124t-142 34h-130v-318h416v-256h-416v-366h154q92 0 125 36.5t33 127.5v55h330v-510h-1072zM403 1898h207l156 -264h-113z" />
    <glyph glyph-name="ehoahoi" unicode="&#x1eba;" horiz-adv-x="1262" 
d="M102 0v256q34 7 51.5 25.5t22 45.5t4.5 87v704q0 82 -13 114.5t-65 43.5v246h1072v-465h-330v16q0 90 -40 124t-142 34h-130v-318h416v-256h-416v-366h154q92 0 125 36.5t33 127.5v55h330v-510h-1072zM582 1624v33q0 34 9 52.5t38 39.5q30 21 55.5 37t39 30t13.5 33
q0 45 -55 45q-51 0 -51 -59v-14h-115v121q67 47 166 47q178 0 178 -144q0 -59 -20 -84.5t-74 -60.5q-20 -12 -30 -18.5t-19.5 -14t-14 -17.5t-4.5 -22v-4h-116z" />
    <glyph glyph-name="ehoanga" unicode="&#x1ebc;" horiz-adv-x="1262" 
d="M102 0v256q34 7 51.5 25.5t22 45.5t4.5 87v704q0 82 -13 114.5t-65 43.5v246h1072v-465h-330v16q0 90 -40 124t-142 34h-130v-318h416v-256h-416v-366h154q92 0 125 36.5t33 127.5v55h330v-510h-1072zM817 1825h86q-21 -98 -60.5 -146.5t-103.5 -48.5q-34 0 -55 6l-70 21
q-18 6 -49 6q-26 0 -42.5 -14t-24.5 -45h-88q18 96 56.5 141t102.5 45q32 0 66 -10l74 -19q28 -4 43 -4q47 0 65 68z" />
    <glyph glyph-name="ehoanang" unicode="&#x1eb8;" horiz-adv-x="1262" 
d="M102 0v256q34 7 51.5 25.5t22 45.5t4.5 87v704q0 82 -13 114.5t-65 43.5v246h1072v-465h-330v16q0 90 -40 124t-142 34h-130v-318h416v-256h-416v-366h154q92 0 125 36.5t33 127.5v55h330v-510h-1072zM514 -229v2q0 51 34.5 88t86.5 37t88.5 -36.5t36.5 -88.5
t-37.5 -88.5t-85.5 -36.5q-33 0 -61 17t-45 45t-17 61z" />
    <glyph glyph-name="othsac" horiz-adv-x="1100" 
d="M999 739v-360q0 -141 -46 -227.5t-144 -128t-258 -41.5q-161 0 -259.5 41.5t-145 128t-46.5 227.5v360q0 140 46 228t146 130t259 42q238 0 343 -95t105 -305zM678 723q0 99 -29 143.5t-98 44.5t-99 -45.5t-30 -142.5v-326q0 -98 29.5 -142t99.5 -44q69 0 98 44t29 142
v326zM575 1495h207l-250 -264h-112z" />
    <glyph glyph-name="othhuyen" horiz-adv-x="1100" 
d="M999 739v-360q0 -141 -46 -227.5t-144 -128t-258 -41.5q-161 0 -259.5 41.5t-145 128t-46.5 227.5v360q0 140 46 228t146 130t259 42q238 0 343 -95t105 -305zM678 723q0 99 -29 143.5t-98 44.5t-99 -45.5t-30 -142.5v-326q0 -98 29.5 -142t99.5 -44q69 0 98 44t29 142
v326zM356 1495h207l156 -264h-113z" />
    <glyph glyph-name="othhoi" unicode="&#x1ecf;" horiz-adv-x="1100" 
d="M999 739v-360q0 -141 -46 -227.5t-144 -128t-258 -41.5q-161 0 -259.5 41.5t-145 128t-46.5 227.5v360q0 140 46 228t146 130t259 42q238 0 343 -95t105 -305zM678 723q0 99 -29 143.5t-98 44.5t-99 -45.5t-30 -142.5v-326q0 -98 29.5 -142t99.5 -44q69 0 98 44t29 142
v326zM473 1241v33q0 34 9 52.5t38 39.5q22 15 52 34t43.5 33t13.5 33q0 45 -56 45q-51 0 -51 -59v-14h-114v121q67 47 165 47q179 0 179 -144q0 -59 -19.5 -84t-75.5 -61q-40 -25 -53.5 -36.5t-13.5 -35.5v-4h-117z" />
    <glyph glyph-name="othnga" horiz-adv-x="1100" 
d="M999 739v-360q0 -141 -46 -227.5t-144 -128t-258 -41.5q-161 0 -259.5 41.5t-145 128t-46.5 227.5v360q0 140 46 228t146 130t259 42q238 0 343 -95t105 -305zM678 723q0 99 -29 143.5t-98 44.5t-99 -45.5t-30 -142.5v-326q0 -98 29.5 -142t99.5 -44q69 0 98 44t29 142
v326zM709 1442h86q-21 -98 -60.5 -146.5t-103.5 -48.5q-35 0 -56 6l-69 21q-19 6 -49 6q-52 0 -68 -59h-88q20 96 58 141t102 45q32 0 65 -10l74 -19q28 -4 43 -4q46 0 66 68z" />
    <glyph glyph-name="othnang" unicode="&#x1ecd;" horiz-adv-x="1100" 
d="M999 739v-360q0 -141 -46 -227.5t-144 -128t-258 -41.5q-161 0 -259.5 41.5t-145 128t-46.5 227.5v360q0 140 46 228t146 130t259 42q238 0 343 -95t105 -305zM678 723q0 99 -29 143.5t-98 44.5t-99 -45.5t-30 -142.5v-326q0 -98 29.5 -142t99.5 -44q69 0 98 44t29 142
v326zM426 -248v2q0 51 34.5 88t86.5 37t88.5 -36.5t36.5 -88.5q0 -34 -16.5 -62t-45.5 -45.5t-61 -17.5q-33 0 -60.5 16.5t-45 45.5t-17.5 61z" />
    <glyph glyph-name="ohoasac" horiz-adv-x="1239" 
d="M109 1010q0 108 4.5 170t21.5 119.5t55 105.5q61 78 167 112.5t264 34.5q156 0 260.5 -34.5t167.5 -112.5q53 -67 67 -154t14 -241v-498q0 -154 -14 -241t-67 -154q-62 -77 -167 -112.5t-261 -35.5q-158 0 -264 35.5t-167 112.5q-37 47 -54.5 104.5t-22 119.5t-4.5 171
v498zM459 1022v-522q0 -117 37 -170.5t125 -53.5t123.5 54t35.5 170v522q0 115 -35 169t-124 54t-125.5 -53.5t-36.5 -169.5zM635 1929h207l-250 -264h-113z" />
    <glyph glyph-name="ohoahuyen" horiz-adv-x="1239" 
d="M109 1010q0 108 4.5 170t21.5 119.5t55 105.5q61 78 167 112.5t264 34.5q156 0 260.5 -34.5t167.5 -112.5q53 -67 67 -154t14 -241v-498q0 -154 -14 -241t-67 -154q-62 -77 -167 -112.5t-261 -35.5q-158 0 -264 35.5t-167 112.5q-37 47 -54.5 104.5t-22 119.5t-4.5 171
v498zM459 1022v-522q0 -117 37 -170.5t125 -53.5t123.5 54t35.5 170v522q0 115 -35 169t-124 54t-125.5 -53.5t-36.5 -169.5zM395 1929h207l156 -264h-113z" />
    <glyph glyph-name="ohoahoi" unicode="&#x1ece;" horiz-adv-x="1239" 
d="M109 1010q0 108 4.5 170t21.5 119.5t55 105.5q61 78 167 112.5t264 34.5q156 0 260.5 -34.5t167.5 -112.5q53 -67 67 -154t14 -241v-498q0 -154 -14 -241t-67 -154q-62 -77 -167 -112.5t-261 -35.5q-158 0 -264 35.5t-167 112.5q-37 47 -54.5 104.5t-22 119.5t-4.5 171
v498zM459 1022v-522q0 -117 37 -170.5t125 -53.5t123.5 54t35.5 170v522q0 115 -35 169t-124 54t-125.5 -53.5t-36.5 -169.5zM543 1655v33q0 34 9 52.5t38 39.5q30 21 55.5 37t39 30t13.5 33q0 45 -55 45q-51 0 -51 -59v-15h-115v121q65 47 166 47q178 0 178 -143
q0 -59 -21.5 -86t-72.5 -59q-20 -12 -30 -18.5t-19.5 -14t-14 -17.5t-4.5 -22v-4h-116z" />
    <glyph glyph-name="ohoanga" horiz-adv-x="1239" 
d="M109 1010q0 108 4.5 170t21.5 119.5t55 105.5q61 78 167 112.5t264 34.5q156 0 260.5 -34.5t167.5 -112.5q53 -67 67 -154t14 -241v-498q0 -154 -14 -241t-67 -154q-62 -77 -167 -112.5t-261 -35.5q-158 0 -264 35.5t-167 112.5q-37 47 -54.5 104.5t-22 119.5t-4.5 171
v498zM459 1022v-522q0 -117 37 -170.5t125 -53.5t123.5 54t35.5 170v522q0 115 -35 169t-124 54t-125.5 -53.5t-36.5 -169.5zM799 1866h86q-21 -98 -60.5 -146.5t-103.5 -48.5q-35 0 -55 6l-70 21q-18 6 -49 6q-26 0 -42 -14t-26 -45h-88q20 96 58 141t102 45q32 0 65 -10
l74 -19q30 -4 43 -4q46 0 66 68z" />
    <glyph glyph-name="ohoanang" unicode="&#x1ecc;" horiz-adv-x="1239" 
d="M109 1010q0 108 4.5 170t21.5 119.5t55 105.5q61 78 167 112.5t264 34.5q156 0 260.5 -34.5t167.5 -112.5q53 -67 67 -154t14 -241v-498q0 -154 -14 -241t-67 -154q-62 -77 -167 -112.5t-261 -35.5q-158 0 -264 35.5t-167 112.5q-37 47 -54.5 104.5t-22 119.5t-4.5 171
v498zM459 1022v-522q0 -117 37 -170.5t125 -53.5t123.5 54t35.5 170v522q0 115 -35 169t-124 54t-125.5 -53.5t-36.5 -169.5zM496 -260v2q0 51 34.5 88t85.5 37t88 -37t37 -88q0 -52 -36.5 -88.5t-86.5 -36.5q-32 0 -60 17t-45 45t-17 61z" />
    <glyph glyph-name="ithsac" horiz-adv-x="633" 
d="M479 379q0 -78 11.5 -108.5t56.5 -43.5v-227h-451v227q43 7 56.5 44t13.5 126v355q0 70 -11.5 98t-58.5 45v223h383v-739zM309 1505h207l-250 -264h-112z" />
    <glyph glyph-name="ithhuyen" horiz-adv-x="633" 
d="M479 379q0 -78 11.5 -108.5t56.5 -43.5v-227h-451v227q43 7 56.5 44t13.5 126v355q0 70 -11.5 98t-58.5 45v223h383v-739zM59 1495h207l156 -264h-113z" />
    <glyph glyph-name="ithhoi" unicode="&#x1ec9;" horiz-adv-x="633" 
d="M479 379q0 -78 11.5 -108.5t56.5 -43.5v-227h-451v227q43 7 56.5 44t13.5 126v355q0 70 -11.5 98t-58.5 45v223h383v-739zM227 1210v33q0 35 9 53t38 39q22 15 52.5 34.5t43.5 33t13 33.5q0 45 -55 45q-52 0 -52 -60v-14h-114v121q65 47 166 47q89 0 133.5 -35t44.5 -108
q0 -59 -21 -85.5t-73 -60.5q-20 -12 -30.5 -18t-19.5 -14t-13.5 -18t-4.5 -22v-4h-117z" />
    <glyph glyph-name="ithnga" unicode="&#x129;" horiz-adv-x="633" 
d="M479 379q0 -78 11.5 -108.5t56.5 -43.5v-227h-451v227q43 7 56.5 44t13.5 126v355q0 70 -11.5 98t-58.5 45v223h383v-739zM473 1432h86q-21 -100 -60.5 -147.5t-103.5 -47.5q-35 0 -55 6l-70 21q-18 6 -49 6q-50 0 -67 -60h-88q18 96 56.5 141.5t102.5 45.5q33 0 66 -11
l74 -18q28 -4 43 -4q47 0 65 68z" />
    <glyph glyph-name="ithnang" unicode="&#x1ecb;" horiz-adv-x="633" 
d="M479 379q0 -78 11.5 -108.5t56.5 -43.5v-227h-451v227q43 7 56.5 44t13.5 126v355q0 70 -11.5 98t-58.5 45v223h383v-739zM180 1352v2q0 51 34.5 88t86.5 37t88.5 -36.5t36.5 -88.5t-36.5 -88.5t-86.5 -36.5q-32 0 -61 17.5t-45.5 45t-16.5 60.5zM199 -229v2
q0 51 34.5 88t85.5 37q52 0 88.5 -36.5t36.5 -88.5t-36.5 -88.5t-85.5 -36.5q-33 0 -61 17t-45 45t-17 61z" />
    <glyph glyph-name="ihoasac" horiz-adv-x="725" 
d="M539 414q0 -60 4 -87t20 -45.5t51 -25.5v-256h-505v256q35 7 51.5 25.5t21 45.5t4.5 87v704q0 82 -13 114.5t-64 43.5v246h505v-246q-35 -7 -51 -25.5t-20 -46.5t-4 -86v-704zM397 1898h207l-250 -264h-112z" />
    <glyph glyph-name="ihoahuyen" horiz-adv-x="725" 
d="M539 414q0 -60 4 -87t20 -45.5t51 -25.5v-256h-505v256q35 7 51.5 25.5t21 45.5t4.5 87v704q0 82 -13 114.5t-64 43.5v246h505v-246q-35 -7 -51 -25.5t-20 -46.5t-4 -86v-704zM137 1898h207l156 -264h-113z" />
    <glyph glyph-name="ihoahoi" unicode="&#x1ec8;" horiz-adv-x="725" 
d="M539 414q0 -60 4 -87t20 -45.5t51 -25.5v-256h-505v256q35 7 51.5 25.5t21 45.5t4.5 87v704q0 82 -13 114.5t-64 43.5v246h505v-246q-35 -7 -51 -25.5t-20 -46.5t-4 -86v-704zM295 1624v33q0 34 9 52.5t38 39.5q30 21 56 37t39.5 31t13.5 32q0 45 -56 45q-51 0 -51 -59
v-14h-115v121q67 47 166 47q178 0 178 -144q0 -58 -19 -83.5t-75 -61.5q-40 -25 -53.5 -36.5t-13.5 -35.5v-4h-117z" />
    <glyph glyph-name="ihoanga" unicode="&#x128;" horiz-adv-x="725" 
d="M539 414q0 -60 4 -87t20 -45.5t51 -25.5v-256h-505v256q35 7 51.5 25.5t21 45.5t4.5 87v704q0 82 -13 114.5t-64 43.5v246h505v-246q-35 -7 -51 -25.5t-20 -46.5t-4 -86v-704zM541 1835h86q-21 -98 -60.5 -146.5t-103.5 -48.5q-35 0 -55 7l-70 20q-19 6 -49 6
q-52 0 -68 -59h-88q20 96 58 141t102 45q32 0 65 -10l74 -18q23 -5 43 -5q46 0 66 68z" />
    <glyph glyph-name="ihoanang" unicode="&#x1eca;" horiz-adv-x="725" 
d="M539 414q0 -60 4 -87t20 -45.5t51 -25.5v-256h-505v256q35 7 51.5 25.5t21 45.5t4.5 87v704q0 82 -13 114.5t-64 43.5v246h505v-246q-35 -7 -51 -25.5t-20 -46.5t-4 -86v-704zM238 -229v2q0 51 34.5 88t85.5 37q52 0 88.5 -36.5t36.5 -88.5t-36.5 -88.5t-86.5 -36.5
q-32 0 -60 17t-45 45t-17 61z" />
    <glyph glyph-name="uthsac" horiz-adv-x="1204" 
d="M1040 1118v-749q0 -51 4 -75.5t18 -41.5t48 -29v-223h-381v72q-132 -78 -252 -78q-128 0 -201.5 42.5t-104 127.5t-30.5 225v340q0 80 -10.5 117t-40.5 45v227h332q14 -38 21 -86.5t9.5 -103t2.5 -146.5v-352q0 -105 31 -156t106 -51q65 0 137 56v460q0 79 -12 110
t-58 42v227h381zM637 1495h207l-250 -264h-113z" />
    <glyph glyph-name="uthhuyen" horiz-adv-x="1204" 
d="M1040 1118v-749q0 -51 4 -75.5t18 -41.5t48 -29v-223h-381v72q-132 -78 -252 -78q-128 0 -201.5 42.5t-104 127.5t-30.5 225v340q0 80 -10.5 117t-40.5 45v227h332q14 -38 21 -86.5t9.5 -103t2.5 -146.5v-352q0 -105 31 -156t106 -51q65 0 137 56v460q0 79 -12 110
t-58 42v227h381zM305 1485h207l156 -264h-113z" />
    <glyph glyph-name="uthhoi" unicode="&#x1ee7;" horiz-adv-x="1204" 
d="M1040 1118v-749q0 -51 4 -75.5t18 -41.5t48 -29v-223h-381v72q-132 -78 -252 -78q-128 0 -201.5 42.5t-104 127.5t-30.5 225v340q0 80 -10.5 117t-40.5 45v227h332q14 -38 21 -86.5t9.5 -103t2.5 -146.5v-352q0 -105 31 -156t106 -51q65 0 137 56v460q0 79 -12 110
t-58 42v227h381zM504 1210v33q0 35 9 53t38 39q30 21 56 37.5t39 30t13 33.5q0 45 -55 45q-51 0 -51 -60v-14h-115v121q65 47 166 47q178 0 178 -143q0 -59 -21 -85.5t-73 -60.5q-43 -27 -55 -37.5t-12 -34.5v-4h-117z" />
    <glyph glyph-name="uthnga" unicode="&#x169;" horiz-adv-x="1204" 
d="M1040 1118v-749q0 -51 4 -75.5t18 -41.5t48 -29v-223h-381v72q-132 -78 -252 -78q-128 0 -201.5 42.5t-104 127.5t-30.5 225v340q0 80 -10.5 117t-40.5 45v227h332q14 -38 21 -86.5t9.5 -103t2.5 -146.5v-352q0 -105 31 -156t106 -51q65 0 137 56v460q0 79 -12 110
t-58 42v227h381zM760 1432h86q-21 -100 -60.5 -147.5t-103.5 -47.5q-35 0 -55 6l-70 21q-18 6 -49 6q-50 0 -68 -60h-88q20 96 58 141.5t102 45.5q33 0 66 -11l73 -18q30 -4 43 -4q48 0 66 68z" />
    <glyph glyph-name="uthnang" unicode="&#x1ee5;" horiz-adv-x="1204" 
d="M1040 1118v-749q0 -51 4 -75.5t18 -41.5t48 -29v-223h-381v72q-132 -78 -252 -78q-128 0 -201.5 42.5t-104 127.5t-30.5 225v340q0 80 -10.5 117t-40.5 45v227h332q14 -38 21 -86.5t9.5 -103t2.5 -146.5v-352q0 -105 31 -156t106 -51q65 0 137 56v460q0 79 -12 110
t-58 42v227h381zM477 -225v2q0 51 34.5 88t86.5 37t88.5 -36.5t36.5 -88.5t-36.5 -88.5t-86.5 -36.5q-32 0 -61 17.5t-45.5 45t-16.5 60.5z" />
    <glyph glyph-name="uhoasac" horiz-adv-x="1327" 
d="M94 1276v246h510v-246q-50 -16 -64 -56t-14 -128v-590q0 -78 15 -126.5t51 -74t94 -25.5q166 0 166 220v639q0 67 -17.5 98t-62.5 43v246h461v-246q-51 -11 -66.5 -46.5t-15.5 -115.5v-631q0 -88 -7 -148.5t-27 -113.5t-60 -100q-61 -72 -159.5 -112t-219.5 -40
q-139 0 -235.5 33t-154 98.5t-84 167t-26.5 240.5v614q0 74 -14.5 104t-69.5 50zM772 1888h207l-250 -264h-113z" />
    <glyph glyph-name="uhoahuyen" horiz-adv-x="1327" 
d="M94 1276v246h510v-246q-50 -16 -64 -56t-14 -128v-590q0 -78 15 -126.5t51 -74t94 -25.5q166 0 166 220v639q0 67 -17.5 98t-62.5 43v246h461v-246q-51 -11 -66.5 -46.5t-15.5 -115.5v-631q0 -88 -7 -148.5t-27 -113.5t-60 -100q-61 -72 -159.5 -112t-219.5 -40
q-139 0 -235.5 33t-154 98.5t-84 167t-26.5 240.5v614q0 74 -14.5 104t-69.5 50zM420 1878h207l155 -264h-112z" />
    <glyph glyph-name="uhoahoi" unicode="&#x1ee6;" horiz-adv-x="1327" 
d="M94 1276v246h510v-246q-50 -16 -64 -56t-14 -128v-590q0 -78 15 -126.5t51 -74t94 -25.5q166 0 166 220v639q0 67 -17.5 98t-62.5 43v246h461v-246q-51 -11 -66.5 -46.5t-15.5 -115.5v-631q0 -88 -7 -148.5t-27 -113.5t-60 -100q-61 -72 -159.5 -112t-219.5 -40
q-139 0 -235.5 33t-154 98.5t-84 167t-26.5 240.5v614q0 74 -14.5 104t-69.5 50zM639 1624v33q0 34 9 52.5t38 39.5q30 21 56 37t39.5 31t13.5 32q0 45 -56 45q-51 0 -51 -59v-14h-115v121q67 47 166 47q179 0 179 -144q0 -59 -19.5 -84t-75.5 -61q-40 -25 -53.5 -36.5
t-13.5 -35.5v-4h-117z" />
    <glyph glyph-name="uhoanga" unicode="&#x168;" horiz-adv-x="1327" 
d="M94 1276v246h510v-246q-50 -16 -64 -56t-14 -128v-590q0 -78 15 -126.5t51 -74t94 -25.5q166 0 166 220v639q0 67 -17.5 98t-62.5 43v246h461v-246q-51 -11 -66.5 -46.5t-15.5 -115.5v-631q0 -88 -7 -148.5t-27 -113.5t-60 -100q-61 -72 -159.5 -112t-219.5 -40
q-139 0 -235.5 33t-154 98.5t-84 167t-26.5 240.5v614q0 74 -14.5 104t-69.5 50zM844 1835h86q-21 -98 -60.5 -146.5t-103.5 -48.5q-35 0 -55 7l-70 20q-18 6 -49 6q-26 0 -42 -14t-26 -45h-88q20 96 58 141t102 45q32 0 66 -10l73 -18q25 -5 43 -5q46 0 66 68z" />
    <glyph glyph-name="uhoanang" unicode="&#x1ee4;" horiz-adv-x="1327" 
d="M94 1276v246h510v-246q-50 -16 -64 -56t-14 -128v-590q0 -78 15 -126.5t51 -74t94 -25.5q166 0 166 220v639q0 67 -17.5 98t-62.5 43v246h461v-246q-51 -11 -66.5 -46.5t-15.5 -115.5v-631q0 -88 -7 -148.5t-27 -113.5t-60 -100q-61 -72 -159.5 -112t-219.5 -40
q-139 0 -235.5 33t-154 98.5t-84 167t-26.5 240.5v614q0 74 -14.5 104t-69.5 50zM551 -240v2q0 51 34.5 88t86.5 37t88.5 -36.5t36.5 -88.5q0 -51 -37.5 -87.5t-85.5 -36.5q-33 0 -61 17t-45 45t-17 60z" />
    <glyph glyph-name="ythsac" horiz-adv-x="1049" 
d="M750 45q-32 -118 -65.5 -203t-79 -142t-113.5 -86.5t-164 -29.5q-52 0 -105 13v243h8q57 0 89 22.5t53 80.5l-275 843q-30 98 -75 109v223h438v-223q-41 -11 -41 -57q0 -18 6 -45l119 -496l106 496q6 21 6 43q0 40 -41 59v223h412v-223q-30 -11 -44 -32.5t-28 -67.5z
M623 1475h206l-249 -265h-113z" />
    <glyph glyph-name="ythhuyen" unicode="&#x1ef3;" horiz-adv-x="1049" 
d="M750 45q-32 -118 -65.5 -203t-79 -142t-113.5 -86.5t-164 -29.5q-52 0 -105 13v243h8q57 0 89 22.5t53 80.5l-275 843q-30 98 -75 109v223h438v-223q-41 -11 -41 -57q0 -18 6 -45l119 -496l106 496q6 21 6 43q0 40 -41 59v223h412v-223q-30 -11 -44 -32.5t-28 -67.5z
M270 1475h207l156 -265h-113z" />
    <glyph glyph-name="ythhoi" unicode="&#x1ef7;" horiz-adv-x="1049" 
d="M750 45q-32 -118 -65.5 -203t-79 -142t-113.5 -86.5t-164 -29.5q-52 0 -105 13v243h8q57 0 89 22.5t53 80.5l-275 843q-30 98 -75 109v223h438v-223q-41 -11 -41 -57q0 -18 6 -45l119 -496l106 496q6 21 6 43q0 40 -41 59v223h412v-223q-30 -11 -44 -32.5t-28 -67.5z
M479 1210v33q0 35 9 53t38 39q22 15 52.5 34.5t43.5 33t13 33.5q0 45 -55 45q-52 0 -52 -60v-14h-114v121q65 47 166 47q89 0 133.5 -35t44.5 -108q0 -59 -21 -85.5t-73 -60.5q-20 -12 -30.5 -18t-19.5 -14t-13.5 -18t-4.5 -22v-4h-117z" />
    <glyph glyph-name="ythnga" unicode="&#x1ef9;" horiz-adv-x="1049" 
d="M750 45q-32 -118 -65.5 -203t-79 -142t-113.5 -86.5t-164 -29.5q-52 0 -105 13v243h8q57 0 89 22.5t53 80.5l-275 843q-30 98 -75 109v223h438v-223q-41 -11 -41 -57q0 -18 6 -45l119 -496l106 496q6 21 6 43q0 40 -41 59v223h412v-223q-30 -11 -44 -32.5t-28 -67.5z
M715 1421h86q-21 -99 -60.5 -146.5t-103.5 -47.5q-35 0 -55 6l-70 20q-18 7 -49 7q-50 0 -68 -60h-88q20 96 58 141t102 45q32 0 65 -10l74 -18q30 -4 43 -4q47 0 66 67z" />
    <glyph glyph-name="ythnang" unicode="&#x1ef5;" horiz-adv-x="1049" 
d="M750 45q-32 -118 -65.5 -203t-79 -142t-113.5 -86.5t-164 -29.5q-52 0 -105 13v243h8q57 0 89 22.5t53 80.5l-275 843q-30 98 -75 109v223h438v-223q-41 -11 -41 -57q0 -18 6 -45l119 -496l106 496q6 21 6 43q0 40 -41 59v223h412v-223q-30 -11 -44 -32.5t-28 -67.5z
M760 -287v2q0 51 34.5 88t86.5 37t88.5 -36.5t36.5 -88.5q0 -34 -16.5 -62t-45.5 -45.5t-61 -17.5q-33 0 -60.5 16.5t-45 45.5t-17.5 61z" />
    <glyph glyph-name="yhoasac" horiz-adv-x="1128" 
d="M319 0v256q44 9 62 42t18 101v185l-295 602q-37 79 -81 90v246h446v-187q0 -100 29 -161l102 -211l100 202q33 66 33 170v187h391v-246q-42 -13 -82 -88l-292 -586v-199q0 -77 13.5 -108.5t63.5 -38.5v-256h-508zM662 1898h206l-250 -264h-112z" />
    <glyph glyph-name="yhoahuyen" unicode="&#x1ef2;" horiz-adv-x="1128" 
d="M319 0v256q44 9 62 42t18 101v185l-295 602q-37 79 -81 90v246h446v-187q0 -100 29 -161l102 -211l100 202q33 66 33 170v187h391v-246q-42 -13 -82 -88l-292 -586v-199q0 -77 13.5 -108.5t63.5 -38.5v-256h-508zM319 1888h207l156 -264h-113z" />
    <glyph glyph-name="yhoahoi" unicode="&#x1ef6;" horiz-adv-x="1128" 
d="M319 0v256q44 9 62 42t18 101v185l-295 602q-37 79 -81 90v246h446v-187q0 -100 29 -161l102 -211l100 202q33 66 33 170v187h391v-246q-42 -13 -82 -88l-292 -586v-199q0 -77 13.5 -108.5t63.5 -38.5v-256h-508zM539 1614v33q0 34 9 52.5t38 39.5q30 21 55.5 37t39 30
t13.5 33q0 45 -55 45q-51 0 -51 -59v-15h-115v121q65 47 166 47q178 0 178 -143q0 -59 -21.5 -86t-72.5 -59q-20 -12 -30 -18.5t-19.5 -14t-14 -17.5t-4.5 -22v-4h-116z" />
    <glyph glyph-name="yhoanga" unicode="&#x1ef8;" horiz-adv-x="1128" 
d="M319 0v256q44 9 62 42t18 101v185l-295 602q-37 79 -81 90v246h446v-187q0 -100 29 -161l102 -211l100 202q33 66 33 170v187h391v-246q-42 -13 -82 -88l-292 -586v-199q0 -77 13.5 -108.5t63.5 -38.5v-256h-508zM764 1825h86q-21 -98 -60.5 -146.5t-103.5 -48.5
q-35 0 -55 6l-70 21q-18 6 -49 6q-26 0 -42 -14t-26 -45h-88q20 96 58 141t102 45q32 0 66 -10l73 -19q30 -4 43 -4q48 0 66 68z" />
    <glyph glyph-name="yhoanang" unicode="&#x1ef4;" horiz-adv-x="1128" 
d="M319 0v256q44 9 62 42t18 101v185l-295 602q-37 79 -81 90v246h446v-187q0 -100 29 -161l102 -211l100 202q33 66 33 170v187h391v-246q-42 -13 -82 -88l-292 -586v-199q0 -77 13.5 -108.5t63.5 -38.5v-256h-508zM440 -219v2q0 51 34.5 88t86.5 37q51 0 88 -37t37 -88
q0 -52 -36.5 -88.5t-86.5 -36.5q-32 0 -61 17.5t-45.5 45t-16.5 60.5z" />
    <glyph glyph-name="octhsac" unicode="&#x1edb;" horiz-adv-x="1100" 
d="M999 739v-360q0 -141 -46 -227.5t-144 -128t-258 -41.5q-161 0 -259.5 41.5t-145 128t-46.5 227.5v360q0 140 46 228t146 130t259 42q179 0 286 -54.5t140 -177.5q29 5 49.5 28t20.5 56v148h141v-162q-3 -70 -61.5 -106.5t-133.5 -41.5q6 -16 6 -90zM678 723
q0 99 -29 143.5t-98 44.5t-99 -45.5t-30 -142.5v-326q0 -98 29.5 -142t99.5 -44q69 0 98 44t29 142v326zM575 1495h207l-250 -264h-112z" />
    <glyph glyph-name="octhhuyen" unicode="&#x1edd;" horiz-adv-x="1100" 
d="M999 739v-360q0 -141 -46 -227.5t-144 -128t-258 -41.5q-161 0 -259.5 41.5t-145 128t-46.5 227.5v360q0 140 46 228t146 130t259 42q179 0 286 -54.5t140 -177.5q29 5 49.5 28t20.5 56v148h141v-162q-3 -70 -61.5 -106.5t-133.5 -41.5q6 -16 6 -90zM678 723
q0 99 -29 143.5t-98 44.5t-99 -45.5t-30 -142.5v-326q0 -98 29.5 -142t99.5 -44q69 0 98 44t29 142v326zM356 1495h207l156 -264h-113z" />
    <glyph glyph-name="octhhoi" unicode="&#x1edf;" horiz-adv-x="1100" 
d="M999 739v-360q0 -141 -46 -227.5t-144 -128t-258 -41.5q-161 0 -259.5 41.5t-145 128t-46.5 227.5v360q0 140 46 228t146 130t259 42q179 0 286 -54.5t140 -177.5q29 5 49.5 28t20.5 56v148h141v-162q-3 -70 -61.5 -106.5t-133.5 -41.5q6 -16 6 -90zM678 723
q0 99 -29 143.5t-98 44.5t-99 -45.5t-30 -142.5v-326q0 -98 29.5 -142t99.5 -44q69 0 98 44t29 142v326zM473 1241v33q0 34 9 52.5t38 39.5q22 15 52 34t43.5 33t13.5 33q0 45 -56 45q-51 0 -51 -59v-14h-114v121q67 47 165 47q179 0 179 -144q0 -59 -19.5 -84t-75.5 -61
q-40 -25 -53.5 -36.5t-13.5 -35.5v-4h-117z" />
    <glyph glyph-name="octhnga" unicode="&#x1ee1;" horiz-adv-x="1100" 
d="M999 739v-360q0 -141 -46 -227.5t-144 -128t-258 -41.5q-161 0 -259.5 41.5t-145 128t-46.5 227.5v360q0 140 46 228t146 130t259 42q179 0 286 -54.5t140 -177.5q29 5 49.5 28t20.5 56v148h141v-162q-3 -70 -61.5 -106.5t-133.5 -41.5q6 -16 6 -90zM678 723
q0 99 -29 143.5t-98 44.5t-99 -45.5t-30 -142.5v-326q0 -98 29.5 -142t99.5 -44q69 0 98 44t29 142v326zM709 1442h86q-21 -98 -60.5 -146.5t-103.5 -48.5q-35 0 -56 6l-69 21q-19 6 -49 6q-52 0 -68 -59h-88q20 96 58 141t102 45q32 0 65 -10l74 -19q28 -4 43 -4
q46 0 66 68z" />
    <glyph glyph-name="octhnang" unicode="&#x1ee3;" horiz-adv-x="1100" 
d="M999 739v-360q0 -141 -46 -227.5t-144 -128t-258 -41.5q-161 0 -259.5 41.5t-145 128t-46.5 227.5v360q0 140 46 228t146 130t259 42q179 0 286 -54.5t140 -177.5q29 5 49.5 28t20.5 56v148h141v-162q-3 -70 -61.5 -106.5t-133.5 -41.5q6 -16 6 -90zM678 723
q0 99 -29 143.5t-98 44.5t-99 -45.5t-30 -142.5v-326q0 -98 29.5 -142t99.5 -44q69 0 98 44t29 142v326zM426 -248v2q0 51 34.5 88t86.5 37t88.5 -36.5t36.5 -88.5q0 -34 -16.5 -62t-45.5 -45.5t-61 -17.5q-33 0 -60.5 16.5t-45 45.5t-17.5 61z" />
    <glyph glyph-name="ochoasac" unicode="&#x1eda;" horiz-adv-x="1239" 
d="M109 1010q0 108 4.5 170t21.5 119.5t55 105.5q61 78 167 112.5t264 34.5q134 0 215 -19.5t153 -68.5q69 -52 117 -164q34 6 56 28t22 56v166h143v-176q0 -93 -63 -139.5t-140 -50.5q6 -76 6 -174v-498q0 -154 -14 -241t-67 -154q-62 -77 -167 -112.5t-261 -35.5
q-158 0 -264 35.5t-167 112.5q-37 47 -54.5 104.5t-22 119.5t-4.5 171v498zM459 1022v-522q0 -117 37 -170.5t125 -53.5t123.5 54t35.5 170v522q0 115 -35 169t-124 54t-125.5 -53.5t-36.5 -169.5zM635 1929h207l-250 -264h-113z" />
    <glyph glyph-name="ochoahuyen" unicode="&#x1edc;" horiz-adv-x="1239" 
d="M109 1010q0 108 4.5 170t21.5 119.5t55 105.5q61 78 167 112.5t264 34.5q134 0 215 -19.5t153 -68.5q69 -52 117 -164q34 6 56 28t22 56v166h143v-176q0 -93 -63 -139.5t-140 -50.5q6 -76 6 -174v-498q0 -154 -14 -241t-67 -154q-62 -77 -167 -112.5t-261 -35.5
q-158 0 -264 35.5t-167 112.5q-37 47 -54.5 104.5t-22 119.5t-4.5 171v498zM459 1022v-522q0 -117 37 -170.5t125 -53.5t123.5 54t35.5 170v522q0 115 -35 169t-124 54t-125.5 -53.5t-36.5 -169.5zM395 1929h207l156 -264h-113z" />
    <glyph glyph-name="ochoahoi" unicode="&#x1ede;" horiz-adv-x="1239" 
d="M109 1010q0 108 4.5 170t21.5 119.5t55 105.5q61 78 167 112.5t264 34.5q134 0 215 -19.5t153 -68.5q69 -52 117 -164q34 6 56 28t22 56v166h143v-176q0 -93 -63 -139.5t-140 -50.5q6 -76 6 -174v-498q0 -154 -14 -241t-67 -154q-62 -77 -167 -112.5t-261 -35.5
q-158 0 -264 35.5t-167 112.5q-37 47 -54.5 104.5t-22 119.5t-4.5 171v498zM459 1022v-522q0 -117 37 -170.5t125 -53.5t123.5 54t35.5 170v522q0 115 -35 169t-124 54t-125.5 -53.5t-36.5 -169.5zM543 1655v33q0 34 9 52.5t38 39.5q30 21 55.5 37t39 30t13.5 33
q0 45 -55 45q-51 0 -51 -59v-15h-115v121q65 47 166 47q178 0 178 -143q0 -59 -21.5 -86t-72.5 -59q-20 -12 -30 -18.5t-19.5 -14t-14 -17.5t-4.5 -22v-4h-116z" />
    <glyph glyph-name="ochoanga" unicode="&#x1ee0;" horiz-adv-x="1239" 
d="M109 1010q0 108 4.5 170t21.5 119.5t55 105.5q61 78 167 112.5t264 34.5q134 0 215 -19.5t153 -68.5q69 -52 117 -164q34 6 56 28t22 56v166h143v-176q0 -93 -63 -139.5t-140 -50.5q6 -76 6 -174v-498q0 -154 -14 -241t-67 -154q-62 -77 -167 -112.5t-261 -35.5
q-158 0 -264 35.5t-167 112.5q-37 47 -54.5 104.5t-22 119.5t-4.5 171v498zM459 1022v-522q0 -117 37 -170.5t125 -53.5t123.5 54t35.5 170v522q0 115 -35 169t-124 54t-125.5 -53.5t-36.5 -169.5zM799 1866h86q-21 -98 -60.5 -146.5t-103.5 -48.5q-35 0 -55 6l-70 21
q-18 6 -49 6q-26 0 -42 -14t-26 -45h-88q20 96 58 141t102 45q32 0 65 -10l74 -19q30 -4 43 -4q46 0 66 68z" />
    <glyph glyph-name="ochoanang" unicode="&#x1ee2;" horiz-adv-x="1239" 
d="M109 1010q0 108 4.5 170t21.5 119.5t55 105.5q61 78 167 112.5t264 34.5q134 0 215 -19.5t153 -68.5q69 -52 117 -164q34 6 56 28t22 56v166h143v-176q0 -93 -63 -139.5t-140 -50.5q6 -76 6 -174v-498q0 -154 -14 -241t-67 -154q-62 -77 -167 -112.5t-261 -35.5
q-158 0 -264 35.5t-167 112.5q-37 47 -54.5 104.5t-22 119.5t-4.5 171v498zM459 1022v-522q0 -117 37 -170.5t125 -53.5t123.5 54t35.5 170v522q0 115 -35 169t-124 54t-125.5 -53.5t-36.5 -169.5zM496 -260v2q0 51 34.5 88t85.5 37t88 -37t37 -88q0 -52 -36.5 -88.5
t-86.5 -36.5q-32 0 -60 17t-45 45t-17 61z" />
    <glyph glyph-name="ucthsac" unicode="&#x1ee9;" horiz-adv-x="1204" 
d="M1040 1118v-235q34 5 56 27.5t22 56.5v151h144v-166q-8 -70 -77 -106.5t-145 -40.5v-436q0 -51 4 -75.5t18 -41.5t48 -29v-223h-381v72q-132 -78 -252 -78q-128 0 -201.5 42.5t-104 127.5t-30.5 225v340q0 80 -10.5 117t-40.5 45v227h332q14 -38 21 -86.5t9.5 -103
t2.5 -146.5v-352q0 -105 31 -156t106 -51q65 0 137 56v460q0 79 -12 110t-58 42v227h381zM657 1466h207l-250 -264h-112z" />
    <glyph glyph-name="ucthhuyen" unicode="&#x1eeb;" horiz-adv-x="1204" 
d="M1040 1118v-235q34 5 56 27.5t22 56.5v151h144v-166q-8 -70 -77 -106.5t-145 -40.5v-436q0 -51 4 -75.5t18 -41.5t48 -29v-223h-381v72q-132 -78 -252 -78q-128 0 -201.5 42.5t-104 127.5t-30.5 225v340q0 80 -10.5 117t-40.5 45v227h332q14 -38 21 -86.5t9.5 -103
t2.5 -146.5v-352q0 -105 31 -156t106 -51q65 0 137 56v460q0 79 -12 110t-58 42v227h381zM346 1487h207l156 -264h-113z" />
    <glyph glyph-name="ucthhoi" unicode="&#x1eed;" horiz-adv-x="1204" 
d="M1040 1118v-235q34 5 56 27.5t22 56.5v151h144v-166q-8 -70 -77 -106.5t-145 -40.5v-436q0 -51 4 -75.5t18 -41.5t48 -29v-223h-381v72q-132 -78 -252 -78q-128 0 -201.5 42.5t-104 127.5t-30.5 225v340q0 80 -10.5 117t-40.5 45v227h332q14 -38 21 -86.5t9.5 -103
t2.5 -146.5v-352q0 -105 31 -156t106 -51q65 0 137 56v460q0 79 -12 110t-58 42v227h381zM524 1212v33q0 35 9 53t38 39q22 15 52.5 34.5t43.5 33t13 33.5q0 45 -55 45q-52 0 -52 -60v-14h-114v121q65 47 166 47q89 0 133.5 -35t44.5 -108q0 -59 -21 -85.5t-73 -60.5
q-20 -12 -30.5 -18t-19.5 -14t-13.5 -17.5t-4.5 -21.5v-5h-117z" />
    <glyph glyph-name="ucthnga" unicode="&#x1eef;" horiz-adv-x="1204" 
d="M1040 1118v-235q34 5 56 27.5t22 56.5v151h144v-166q-8 -70 -77 -106.5t-145 -40.5v-436q0 -51 4 -75.5t18 -41.5t48 -29v-223h-381v72q-132 -78 -252 -78q-128 0 -201.5 42.5t-104 127.5t-30.5 225v340q0 80 -10.5 117t-40.5 45v227h332q14 -38 21 -86.5t9.5 -103
t2.5 -146.5v-352q0 -105 31 -156t106 -51q65 0 137 56v460q0 79 -12 110t-58 42v227h381zM750 1434h86q-21 -98 -60.5 -146.5t-103.5 -48.5q-35 0 -56 6l-69 21q-19 6 -49 6q-26 0 -42.5 -13.5t-25.5 -46.5h-88q20 96 58 141.5t102 45.5q32 0 65 -10l74 -19q28 -4 43 -4
q46 0 66 68z" />
    <glyph glyph-name="ucthnang" unicode="&#x1ef1;" horiz-adv-x="1204" 
d="M1040 1118v-235q34 5 56 27.5t22 56.5v151h144v-166q-8 -70 -77 -106.5t-145 -40.5v-436q0 -51 4 -75.5t18 -41.5t48 -29v-223h-381v72q-132 -78 -252 -78q-128 0 -201.5 42.5t-104 127.5t-30.5 225v340q0 80 -10.5 117t-40.5 45v227h332q14 -38 21 -86.5t9.5 -103
t2.5 -146.5v-352q0 -105 31 -156t106 -51q65 0 137 56v460q0 79 -12 110t-58 42v227h381zM498 -233v2q0 51 34.5 88t85.5 37q52 0 88.5 -36.5t36.5 -88.5t-36.5 -88.5t-85.5 -36.5q-33 0 -61 17t-45 45t-17 61z" />
    <glyph glyph-name="uchoasac" unicode="&#x1ee8;" horiz-adv-x="1327" 
d="M94 1276v246h510v-246q-50 -16 -64 -56t-14 -128v-590q0 -78 15 -126.5t51 -74t94 -25.5q166 0 166 220v639q0 67 -17.5 98t-62.5 43v246h379v-250q34 5 56 27.5t22 56.5v166h143v-176q-1 -93 -71 -140t-150 -51v-672q0 -88 -7 -148.5t-27 -113.5t-60 -100
q-61 -72 -159.5 -112t-219.5 -40q-139 0 -235.5 33t-154 98.5t-84 167t-26.5 240.5v614q0 74 -14.5 104t-69.5 50zM772 1888h207l-250 -264h-113z" />
    <glyph glyph-name="uchoahuyen" unicode="&#x1eea;" horiz-adv-x="1327" 
d="M94 1276v246h510v-246q-50 -16 -64 -56t-14 -128v-590q0 -78 15 -126.5t51 -74t94 -25.5q166 0 166 220v639q0 67 -17.5 98t-62.5 43v246h379v-250q34 5 56 27.5t22 56.5v166h143v-176q-1 -93 -71 -140t-150 -51v-672q0 -88 -7 -148.5t-27 -113.5t-60 -100
q-61 -72 -159.5 -112t-219.5 -40q-139 0 -235.5 33t-154 98.5t-84 167t-26.5 240.5v614q0 74 -14.5 104t-69.5 50zM420 1878h207l155 -264h-112z" />
    <glyph glyph-name="uchoahoi" unicode="&#x1eec;" horiz-adv-x="1327" 
d="M94 1276v246h510v-246q-50 -16 -64 -56t-14 -128v-590q0 -78 15 -126.5t51 -74t94 -25.5q166 0 166 220v639q0 67 -17.5 98t-62.5 43v246h379v-250q34 5 56 27.5t22 56.5v166h143v-176q-1 -93 -71 -140t-150 -51v-672q0 -88 -7 -148.5t-27 -113.5t-60 -100
q-61 -72 -159.5 -112t-219.5 -40q-139 0 -235.5 33t-154 98.5t-84 167t-26.5 240.5v614q0 74 -14.5 104t-69.5 50zM639 1624v33q0 34 9 52.5t38 39.5q30 21 56 37t39.5 31t13.5 32q0 45 -56 45q-51 0 -51 -59v-14h-115v121q67 47 166 47q179 0 179 -144q0 -59 -19.5 -84
t-75.5 -61q-40 -25 -53.5 -36.5t-13.5 -35.5v-4h-117z" />
    <glyph glyph-name="uchoanga" unicode="&#x1eee;" horiz-adv-x="1327" 
d="M94 1276v246h510v-246q-50 -16 -64 -56t-14 -128v-590q0 -78 15 -126.5t51 -74t94 -25.5q166 0 166 220v639q0 67 -17.5 98t-62.5 43v246h379v-250q34 5 56 27.5t22 56.5v166h143v-176q-1 -93 -71 -140t-150 -51v-672q0 -88 -7 -148.5t-27 -113.5t-60 -100
q-61 -72 -159.5 -112t-219.5 -40q-139 0 -235.5 33t-154 98.5t-84 167t-26.5 240.5v614q0 74 -14.5 104t-69.5 50zM844 1835h86q-21 -98 -60.5 -146.5t-103.5 -48.5q-35 0 -55 7l-70 20q-18 6 -49 6q-26 0 -42 -14t-26 -45h-88q20 96 58 141t102 45q32 0 66 -10l73 -18
q25 -5 43 -5q46 0 66 68z" />
    <glyph glyph-name="uchoanang" unicode="&#x1ef0;" horiz-adv-x="1327" 
d="M94 1276v246h510v-246q-50 -16 -64 -56t-14 -128v-590q0 -78 15 -126.5t51 -74t94 -25.5q166 0 166 220v639q0 67 -17.5 98t-62.5 43v246h379v-250q34 5 56 27.5t22 56.5v166h143v-176q-1 -93 -71 -140t-150 -51v-672q0 -88 -7 -148.5t-27 -113.5t-60 -100
q-61 -72 -159.5 -112t-219.5 -40q-139 0 -235.5 33t-154 98.5t-84 167t-26.5 240.5v614q0 74 -14.5 104t-69.5 50zM551 -240v2q0 51 34.5 88t86.5 37t88.5 -36.5t36.5 -88.5q0 -51 -37.5 -87.5t-85.5 -36.5q-33 0 -61 17t-45 45t-17 60z" />
    <glyph glyph-name="aathsac" unicode="&#x1eaf;" horiz-adv-x="1133" 
d="M688 117q-50 -46 -103 -75.5t-111 -44.5t-114 -15q-133 0 -210.5 82.5t-77.5 226.5q0 115 62.5 190t184.5 129.5t357 128.5v64q0 65 -27 95t-86 30q-114 0 -114 -129v-35h-314v258q66 35 145.5 63t153.5 41t146 13q147 0 237.5 -39.5t131 -121.5t40.5 -216v-373
q0 -84 13 -118t61 -44v-227h-375v117zM676 526q-147 -58 -208.5 -102t-61.5 -109q0 -40 24 -65t66 -25q86 0 180 109v192zM328 1458h96q6 -62 40.5 -88.5t106.5 -26.5q73 0 107.5 27t38.5 88h98q-9 -126 -67 -182.5t-177 -56.5q-117 0 -176.5 58t-66.5 181zM666 1753h206
l-249 -264h-113z" />
    <glyph glyph-name="aathhuyen" unicode="&#x1eb1;" horiz-adv-x="1133" 
d="M688 117q-50 -46 -103 -75.5t-111 -44.5t-114 -15q-133 0 -210.5 82.5t-77.5 226.5q0 115 62.5 190t184.5 129.5t357 128.5v64q0 65 -27 95t-86 30q-114 0 -114 -129v-35h-314v258q66 35 145.5 63t153.5 41t146 13q147 0 237.5 -39.5t131 -121.5t40.5 -216v-373
q0 -84 13 -118t61 -44v-227h-375v117zM676 526q-147 -58 -208.5 -102t-61.5 -109q0 -40 24 -65t66 -25q86 0 180 109v192zM328 1458h96q6 -62 40.5 -88.5t106.5 -26.5q73 0 107.5 27t38.5 88h98q-9 -126 -67 -182.5t-177 -56.5q-117 0 -176.5 58t-66.5 181zM293 1753h207
l155 -264h-112z" />
    <glyph glyph-name="aathhoi" unicode="&#x1eb3;" horiz-adv-x="1133" 
d="M688 117q-50 -46 -103 -75.5t-111 -44.5t-114 -15q-133 0 -210.5 82.5t-77.5 226.5q0 115 62.5 190t184.5 129.5t357 128.5v64q0 65 -27 95t-86 30q-114 0 -114 -129v-35h-314v258q66 35 145.5 63t153.5 41t146 13q147 0 237.5 -39.5t131 -121.5t40.5 -216v-373
q0 -84 13 -118t61 -44v-227h-375v117zM676 526q-147 -58 -208.5 -102t-61.5 -109q0 -40 24 -65t66 -25q86 0 180 109v192zM328 1458h96q6 -62 40.5 -88.5t106.5 -26.5q73 0 107.5 27t38.5 88h98q-9 -126 -67 -182.5t-177 -56.5q-117 0 -176.5 58t-66.5 181zM502 1489v33
q0 34 9 52.5t38 39.5q30 21 55.5 37t39 30t13.5 33q0 45 -55 45q-51 0 -51 -59v-14h-115v120q65 47 166 47q178 0 178 -143q0 -59 -20 -84.5t-74 -60.5q-20 -12 -30 -18.5t-19.5 -14t-14 -17.5t-4.5 -22v-4h-116z" />
    <glyph glyph-name="aathnga" unicode="&#x1eb5;" horiz-adv-x="1133" 
d="M688 117q-50 -46 -103 -75.5t-111 -44.5t-114 -15q-133 0 -210.5 82.5t-77.5 226.5q0 115 62.5 190t184.5 129.5t357 128.5v64q0 65 -27 95t-86 30q-114 0 -114 -129v-35h-314v258q66 35 145.5 63t153.5 41t146 13q147 0 237.5 -39.5t131 -121.5t40.5 -216v-373
q0 -84 13 -118t61 -44v-227h-375v117zM676 526q-147 -58 -208.5 -102t-61.5 -109q0 -40 24 -65t66 -25q86 0 180 109v192zM328 1458h96q6 -62 40.5 -88.5t106.5 -26.5q73 0 107.5 27t38.5 88h98q-9 -126 -67 -182.5t-177 -56.5q-117 0 -176.5 58t-66.5 181zM768 1772h86
q-21 -100 -60.5 -147.5t-103.5 -47.5q-35 0 -55 6l-70 21q-18 6 -49 6q-50 0 -67 -60h-89q20 96 58 141.5t102 45.5q33 0 66 -11l73 -18q30 -4 43 -4q48 0 66 68z" />
    <glyph glyph-name="aathnang" unicode="&#x1eb7;" horiz-adv-x="1133" 
d="M688 117q-50 -46 -103 -75.5t-111 -44.5t-114 -15q-133 0 -210.5 82.5t-77.5 226.5q0 115 62.5 190t184.5 129.5t357 128.5v64q0 65 -27 95t-86 30q-114 0 -114 -129v-35h-314v258q66 35 145.5 63t153.5 41t146 13q147 0 237.5 -39.5t131 -121.5t40.5 -216v-373
q0 -84 13 -118t61 -44v-227h-375v117zM676 526q-147 -58 -208.5 -102t-61.5 -109q0 -40 24 -65t66 -25q86 0 180 109v192zM328 1458h96q6 -62 40.5 -88.5t106.5 -26.5q73 0 107.5 27t38.5 88h98q-9 -126 -67 -182.5t-177 -56.5q-117 0 -176.5 58t-66.5 181zM444 -238v2
q0 51 34.5 88t86.5 37q51 0 88 -37t37 -88t-36.5 -87.5t-86.5 -36.5q-32 0 -61 17.5t-45.5 45t-16.5 59.5z" />
    <glyph glyph-name="aahoasac" unicode="&#x1eae;" horiz-adv-x="1223" 
d="M487 653h207l-104 582zM47 0v256q41 12 59 47.5t33 112.5l215 1106h523l237 -1131q13 -64 31.5 -94t56.5 -41v-256h-518v256q38 3 57 23t19 49q0 18 -4 45l-13 63h-294l-13 -57q-4 -28 -4 -47q0 -37 20 -56t62 -20v-256h-467zM375 1833h96q6 -62 40.5 -88.5t106.5 -26.5
q73 0 107.5 27t38.5 88h98q-6 -82 -33.5 -135.5t-79 -79t-131.5 -25.5q-117 0 -176.5 58.5t-66.5 181.5zM713 2128h207l-250 -264h-113z" />
    <glyph glyph-name="aahoahuyen" unicode="&#x1eb0;" horiz-adv-x="1223" 
d="M487 653h207l-104 582zM47 0v256q41 12 59 47.5t33 112.5l215 1106h523l237 -1131q13 -64 31.5 -94t56.5 -41v-256h-518v256q38 3 57 23t19 49q0 18 -4 45l-13 63h-294l-13 -57q-4 -28 -4 -47q0 -37 20 -56t62 -20v-256h-467zM375 1833h96q6 -62 40.5 -88.5t106.5 -26.5
q73 0 107.5 27t38.5 88h98q-6 -82 -33.5 -135.5t-79 -79t-131.5 -25.5q-117 0 -176.5 58.5t-66.5 181.5zM340 2128h207l155 -264h-112z" />
    <glyph glyph-name="aahoahoi" unicode="&#x1eb2;" horiz-adv-x="1223" 
d="M487 653h207l-104 582zM47 0v256q41 12 59 47.5t33 112.5l215 1106h523l237 -1131q13 -64 31.5 -94t56.5 -41v-256h-518v256q38 3 57 23t19 49q0 18 -4 45l-13 63h-294l-13 -57q-4 -28 -4 -47q0 -37 20 -56t62 -20v-256h-467zM375 1833h96q6 -62 40.5 -88.5t106.5 -26.5
q73 0 107.5 27t38.5 88h98q-6 -82 -33.5 -135.5t-79 -79t-131.5 -25.5q-117 0 -176.5 58.5t-66.5 181.5zM549 1864v32q0 35 9 53.5t38 39.5q30 21 56 37t39.5 31t13.5 32q0 45 -56 45q-51 0 -51 -59v-15h-115v121q65 47 166 47q178 0 178 -143q0 -58 -20 -84.5t-74 -61.5
q-45 -28 -56 -37.5t-11 -33.5v-4h-117z" />
    <glyph glyph-name="aahoanga" unicode="&#x1eb4;" horiz-adv-x="1223" 
d="M487 653h207l-104 582zM47 0v256q41 12 59 47.5t33 112.5l215 1106h523l237 -1131q13 -64 31.5 -94t56.5 -41v-256h-518v256q38 3 57 23t19 49q0 18 -4 45l-13 63h-294l-13 -57q-4 -28 -4 -47q0 -37 20 -56t62 -20v-256h-467zM375 1833h96q6 -62 40.5 -88.5t106.5 -26.5
q73 0 107.5 27t38.5 88h98q-6 -82 -33.5 -135.5t-79 -79t-131.5 -25.5q-117 0 -176.5 58.5t-66.5 181.5zM815 2146h86q-21 -99 -60.5 -146.5t-103.5 -47.5q-35 0 -55 6l-70 20q-18 7 -49 7q-50 0 -67 -60h-88q18 96 56.5 141t102.5 45q32 0 66 -10l74 -18q28 -4 43 -4
q47 0 65 67z" />
    <glyph glyph-name="aahoanang" unicode="&#x1eb6;" horiz-adv-x="1223" 
d="M487 653h207l-104 582zM47 0v256q41 12 59 47.5t33 112.5l215 1106h523l237 -1131q13 -64 31.5 -94t56.5 -41v-256h-518v256q38 3 57 23t19 49q0 18 -4 45l-13 63h-294l-13 -57q-4 -28 -4 -47q0 -37 20 -56t62 -20v-256h-467zM375 1833h96q6 -62 40.5 -88.5t106.5 -26.5
q73 0 107.5 27t38.5 88h98q-6 -82 -33.5 -135.5t-79 -79t-131.5 -25.5q-117 0 -176.5 58.5t-66.5 181.5zM481 -221v2q0 51 34.5 88t86.5 37t88.5 -36.5t36.5 -88.5t-36.5 -88.5t-86.5 -36.5q-32 0 -61 17.5t-45.5 45t-16.5 60.5z" />
    <glyph glyph-name="abthsac" unicode="&#x1ea5;" horiz-adv-x="1133" 
d="M688 117q-50 -46 -103 -75.5t-111 -44.5t-114 -15q-133 0 -210.5 82.5t-77.5 226.5q0 115 62.5 190t184.5 129.5t357 128.5v64q0 65 -27 95t-86 30q-114 0 -114 -129v-35h-314v258q66 35 145.5 63t153.5 41t146 13q147 0 237.5 -39.5t131 -121.5t40.5 -216v-373
q0 -84 13 -118t61 -44v-227h-375v117zM676 526q-147 -58 -208.5 -102t-61.5 -109q0 -40 24 -65t66 -25q86 0 180 109v192zM461 1479h201l165 -262h-118l-148 153l-149 -153h-117zM942 1651h207l-250 -265h-113z" />
    <glyph glyph-name="abthhuyen" unicode="&#x1ea7;" horiz-adv-x="1133" 
d="M688 117q-50 -46 -103 -75.5t-111 -44.5t-114 -15q-133 0 -210.5 82.5t-77.5 226.5q0 115 62.5 190t184.5 129.5t357 128.5v64q0 65 -27 95t-86 30q-114 0 -114 -129v-35h-314v258q66 35 145.5 63t153.5 41t146 13q147 0 237.5 -39.5t131 -121.5t40.5 -216v-373
q0 -84 13 -118t61 -44v-227h-375v117zM676 526q-147 -58 -208.5 -102t-61.5 -109q0 -40 24 -65t66 -25q86 0 180 109v192zM461 1479h201l165 -262h-118l-148 153l-149 -153h-117zM549 1702h207l155 -264h-112z" />
    <glyph glyph-name="abthhoi" unicode="&#x1ea9;" horiz-adv-x="1133" 
d="M688 117q-50 -46 -103 -75.5t-111 -44.5t-114 -15q-133 0 -210.5 82.5t-77.5 226.5q0 115 62.5 190t184.5 129.5t357 128.5v64q0 65 -27 95t-86 30q-114 0 -114 -129v-35h-314v258q66 35 145.5 63t153.5 41t146 13q147 0 237.5 -39.5t131 -121.5t40.5 -216v-373
q0 -84 13 -118t61 -44v-227h-375v117zM676 526q-147 -58 -208.5 -102t-61.5 -109q0 -40 24 -65t66 -25q86 0 180 109v192zM461 1479h201l165 -262h-118l-148 153l-149 -153h-117zM788 1397v33q0 34 10 52.5t38 39.5q30 21 55.5 37t39 30t13.5 33q0 45 -55 45q-51 0 -51 -59
v-15h-115v121q65 47 166 47q178 0 178 -143q0 -59 -21.5 -86t-72.5 -59q-20 -12 -30 -18.5t-19.5 -14t-14 -17.5t-4.5 -22v-4h-117z" />
    <glyph glyph-name="abthnga" unicode="&#x1eab;" horiz-adv-x="1133" 
d="M688 117q-50 -46 -103 -75.5t-111 -44.5t-114 -15q-133 0 -210.5 82.5t-77.5 226.5q0 115 62.5 190t184.5 129.5t357 128.5v64q0 65 -27 95t-86 30q-114 0 -114 -129v-35h-314v258q66 35 145.5 63t153.5 41t146 13q147 0 237.5 -39.5t131 -121.5t40.5 -216v-373
q0 -84 13 -118t61 -44v-227h-375v117zM676 526q-147 -58 -208.5 -102t-61.5 -109q0 -40 24 -65t66 -25q86 0 180 109v192zM461 1479h201l165 -262h-118l-148 153l-149 -153h-117zM727 1782h86q-21 -98 -60.5 -146.5t-103.5 -48.5q-35 0 -55 6l-70 21q-18 6 -49 6
q-26 0 -42.5 -14t-24.5 -45h-89q20 96 58 141t102 45q32 0 66 -10l73 -19q30 -4 44 -4q47 0 65 68z" />
    <glyph glyph-name="abthnang" unicode="&#x1ead;" horiz-adv-x="1133" 
d="M688 117q-50 -46 -103 -75.5t-111 -44.5t-114 -15q-133 0 -210.5 82.5t-77.5 226.5q0 115 62.5 190t184.5 129.5t357 128.5v64q0 65 -27 95t-86 30q-114 0 -114 -129v-35h-314v258q66 35 145.5 63t153.5 41t146 13q147 0 237.5 -39.5t131 -121.5t40.5 -216v-373
q0 -84 13 -118t61 -44v-227h-375v117zM676 526q-147 -58 -208.5 -102t-61.5 -109q0 -40 24 -65t66 -25q86 0 180 109v192zM461 1479h201l165 -262h-118l-148 153l-149 -153h-117zM424 -238v2q0 51 34.5 88t86.5 37t88.5 -36.5t36.5 -88.5q0 -51 -37.5 -87.5t-85.5 -36.5
q-33 0 -61 17t-45 45t-17 60z" />
    <glyph glyph-name="abhoasac" unicode="&#x1ea4;" horiz-adv-x="1223" 
d="M487 653h207l-104 582zM47 0v256q41 12 59 47.5t33 112.5l215 1106h523l237 -1131q13 -64 31.5 -94t56.5 -41v-256h-518v256q38 3 57 23t19 49q0 18 -4 45l-13 63h-294l-13 -57q-4 -28 -4 -47q0 -37 20 -56t62 -20v-256h-467zM518 1864h201l166 -262h-119l-148 153
l-149 -153h-117zM999 2036h207l-250 -264h-112z" />
    <glyph glyph-name="abhoahuyen" unicode="&#x1ea6;" horiz-adv-x="1223" 
d="M487 653h207l-104 582zM47 0v256q41 12 59 47.5t33 112.5l215 1106h523l237 -1131q13 -64 31.5 -94t56.5 -41v-256h-518v256q38 3 57 23t19 49q0 18 -4 45l-13 63h-294l-13 -57q-4 -28 -4 -47q0 -37 20 -56t62 -20v-256h-467zM518 1864h201l166 -262h-119l-148 153
l-149 -153h-117zM606 2087h207l156 -264h-113z" />
    <glyph glyph-name="abhoahoi" unicode="&#x1ea8;" horiz-adv-x="1223" 
d="M487 653h207l-104 582zM47 0v256q41 12 59 47.5t33 112.5l215 1106h523l237 -1131q13 -64 31.5 -94t56.5 -41v-256h-518v256q38 3 57 23t19 49q0 18 -4 45l-13 63h-294l-13 -57q-4 -28 -4 -47q0 -37 20 -56t62 -20v-256h-467zM518 1864h201l166 -262h-119l-148 153
l-149 -153h-117zM846 1782v33q0 34 9 52.5t38 39.5q30 21 55.5 37t39 30t13.5 33q0 45 -55 45q-51 0 -51 -59v-15h-115v121q65 47 166 47q178 0 178 -143q0 -59 -21.5 -86t-72.5 -59q-40 -25 -53.5 -36.5t-13.5 -35.5v-4h-117z" />
    <glyph glyph-name="abhoanga" unicode="&#x1eaa;" horiz-adv-x="1223" 
d="M487 653h207l-104 582zM47 0v256q41 12 59 47.5t33 112.5l215 1106h523l237 -1131q13 -64 31.5 -94t56.5 -41v-256h-518v256q38 3 57 23t19 49q0 18 -4 45l-13 63h-294l-13 -57q-4 -28 -4 -47q0 -37 20 -56t62 -20v-256h-467zM518 1864h201l166 -262h-119l-148 153
l-149 -153h-117zM784 2167h86q-22 -100 -60.5 -147.5t-102.5 -47.5q-35 0 -56 6l-69 21q-19 6 -50 6q-51 0 -67 -59h-88q18 94 57 140t103 46q31 0 65 -10l74 -19q28 -4 43 -4q47 0 65 68z" />
    <glyph glyph-name="abhoanang" unicode="&#x1eac;" horiz-adv-x="1223" 
d="M487 653h207l-104 582zM47 0v256q41 12 59 47.5t33 112.5l215 1106h523l237 -1131q13 -64 31.5 -94t56.5 -41v-256h-518v256q38 3 57 23t19 49q0 18 -4 45l-13 63h-294l-13 -57q-4 -28 -4 -47q0 -37 20 -56t62 -20v-256h-467zM518 1864h201l166 -262h-119l-148 153
l-149 -153h-117zM471 -231v2q0 51 34.5 88t86.5 37t88.5 -36.5t36.5 -88.5t-37.5 -88.5t-85.5 -36.5q-33 0 -61 17t-45 45t-17 61z" />
    <glyph glyph-name="ebthsac" unicode="&#x1ebf;" horiz-adv-x="1081" 
d="M416 397q0 -97 30.5 -141.5t104.5 -44.5q135 0 135 160v6h309v-266q-198 -129 -444 -129q-161 0 -259.5 41.5t-145 128t-46.5 227.5v360q0 140 46 228t146 130t259 42q235 0 339.5 -96t104.5 -304v-245h-579v-97zM416 723v-31h270v45q0 89 -32.5 131.5t-102.5 42.5
q-73 0 -104 -45t-31 -143zM457 1470h200l166 -262h-118l-148 154l-149 -154h-117zM938 1642h207l-250 -264h-113z" />
    <glyph glyph-name="ebthhuyen" unicode="&#x1ec1;" horiz-adv-x="1081" 
d="M416 397q0 -97 30.5 -141.5t104.5 -44.5q135 0 135 160v6h309v-266q-198 -129 -444 -129q-161 0 -259.5 41.5t-145 128t-46.5 227.5v360q0 140 46 228t146 130t259 42q235 0 339.5 -96t104.5 -304v-245h-579v-97zM416 723v-31h270v45q0 89 -32.5 131.5t-102.5 42.5
q-73 0 -104 -45t-31 -143zM457 1470h200l166 -262h-118l-148 154l-149 -154h-117zM545 1694h207l155 -264h-112z" />
    <glyph glyph-name="ebthhoi" unicode="&#x1ec3;" horiz-adv-x="1081" 
d="M416 397q0 -97 30.5 -141.5t104.5 -44.5q135 0 135 160v6h309v-266q-198 -129 -444 -129q-161 0 -259.5 41.5t-145 128t-46.5 227.5v360q0 140 46 228t146 130t259 42q235 0 339.5 -96t104.5 -304v-245h-579v-97zM416 723v-31h270v45q0 89 -32.5 131.5t-102.5 42.5
q-73 0 -104 -45t-31 -143zM457 1470h200l166 -262h-118l-148 154l-149 -154h-117zM784 1389v32q0 35 9 53t38 39q22 15 52.5 34.5t43.5 33t13 33.5q0 45 -55 45q-51 0 -51 -60v-14h-115v121q65 47 166 47q178 0 178 -143q0 -59 -21 -85.5t-73 -60.5q-20 -12 -30.5 -18
t-19.5 -14t-13.5 -17.5t-4.5 -21.5v-4h-117z" />
    <glyph glyph-name="ebthnga" unicode="&#x1ec5;" horiz-adv-x="1081" 
d="M416 397q0 -97 30.5 -141.5t104.5 -44.5q135 0 135 160v6h309v-266q-198 -129 -444 -129q-161 0 -259.5 41.5t-145 128t-46.5 227.5v360q0 140 46 228t146 130t259 42q235 0 339.5 -96t104.5 -304v-245h-579v-97zM416 723v-31h270v45q0 89 -32.5 131.5t-102.5 42.5
q-73 0 -104 -45t-31 -143zM457 1470h200l166 -262h-118l-148 154l-149 -154h-117zM723 1774h86q-21 -100 -60.5 -147.5t-103.5 -47.5q-35 0 -55 6l-70 21q-18 6 -49 6q-50 0 -68 -60h-88q20 96 58 141.5t102 45.5q32 0 66 -10l73 -19q30 -4 43 -4q48 0 66 68z" />
    <glyph glyph-name="ebthnang" unicode="&#x1ec7;" horiz-adv-x="1081" 
d="M416 397q0 -97 30.5 -141.5t104.5 -44.5q135 0 135 160v6h309v-266q-198 -129 -444 -129q-161 0 -259.5 41.5t-145 128t-46.5 227.5v360q0 140 46 228t146 130t259 42q235 0 339.5 -96t104.5 -304v-245h-579v-97zM416 723v-31h270v45q0 89 -32.5 131.5t-102.5 42.5
q-73 0 -104 -45t-31 -143zM457 1470h200l166 -262h-118l-148 154l-149 -154h-117zM420 -246v2q0 51 34.5 88t86.5 37t88.5 -36.5t36.5 -88.5q0 -34 -16.5 -62t-45.5 -45.5t-61 -17.5q-33 0 -60.5 16.5t-45 45.5t-17.5 61z" />
    <glyph glyph-name="ebhoasac" unicode="&#x1ebe;" horiz-adv-x="1262" 
d="M102 0v256q34 7 51.5 25.5t22 45.5t4.5 87v704q0 82 -13 114.5t-65 43.5v246h1072v-465h-330v16q0 90 -40 124t-142 34h-130v-318h416v-256h-416v-366h154q92 0 125 36.5t33 127.5v55h330v-510h-1072zM553 1864h201l166 -262h-119l-148 153l-149 -153h-117zM1034 2036
h207l-250 -264h-112z" />
    <glyph glyph-name="ebhoahuyen" unicode="&#x1ec0;" horiz-adv-x="1262" 
d="M102 0v256q34 7 51.5 25.5t22 45.5t4.5 87v704q0 82 -13 114.5t-65 43.5v246h1072v-465h-330v16q0 90 -40 124t-142 34h-130v-318h416v-256h-416v-366h154q92 0 125 36.5t33 127.5v55h330v-510h-1072zM553 1864h201l166 -262h-119l-148 153l-149 -153h-117zM641 2087h207
l156 -264h-113z" />
    <glyph glyph-name="ebhoahoi" unicode="&#x1ec2;" horiz-adv-x="1262" 
d="M102 0v256q34 7 51.5 25.5t22 45.5t4.5 87v704q0 82 -13 114.5t-65 43.5v246h1072v-465h-330v16q0 90 -40 124t-142 34h-130v-318h416v-256h-416v-366h154q92 0 125 36.5t33 127.5v55h330v-510h-1072zM553 1864h201l166 -262h-119l-148 153l-149 -153h-117zM881 1782v33
q0 34 9 52.5t38 39.5q30 21 55.5 37t39 30t13.5 33q0 45 -55 45q-51 0 -51 -59v-15h-115v121q65 47 166 47q178 0 178 -143q0 -59 -21.5 -86t-72.5 -59q-20 -12 -30 -18.5t-19.5 -14t-14 -17.5t-4.5 -22v-4h-116z" />
    <glyph glyph-name="ebhoanga" unicode="&#x1ec4;" horiz-adv-x="1262" 
d="M102 0v256q34 7 51.5 25.5t22 45.5t4.5 87v704q0 82 -13 114.5t-65 43.5v246h1072v-465h-330v16q0 90 -40 124t-142 34h-130v-318h416v-256h-416v-366h154q92 0 125 36.5t33 127.5v55h330v-510h-1072zM553 1864h201l166 -262h-119l-148 153l-149 -153h-117zM819 2167h86
q-22 -100 -61 -147.5t-103 -47.5q-34 0 -55 6l-70 21q-18 6 -49 6q-26 0 -42.5 -14t-24.5 -45h-88q18 96 56.5 141t102.5 45q32 0 66 -10l74 -19q28 -4 43 -4q47 0 65 68z" />
    <glyph glyph-name="ebhoanang" unicode="&#x1ec6;" horiz-adv-x="1262" 
d="M102 0v256q34 7 51.5 25.5t22 45.5t4.5 87v704q0 82 -13 114.5t-65 43.5v246h1072v-465h-330v16q0 90 -40 124t-142 34h-130v-318h416v-256h-416v-366h154q92 0 125 36.5t33 127.5v55h330v-510h-1072zM553 1864h201l166 -262h-119l-148 153l-149 -153h-117zM516 -231v2
q0 51 34.5 88t86.5 37t88.5 -36.5t36.5 -88.5t-36.5 -88.5t-86.5 -36.5q-33 0 -61 17t-45 45t-17 61z" />
    <glyph glyph-name="obthsac" unicode="&#x1ed1;" horiz-adv-x="1100" 
d="M999 739v-360q0 -141 -46 -227.5t-144 -128t-258 -41.5q-161 0 -259.5 41.5t-145 128t-46.5 227.5v360q0 140 46 228t146 130t259 42q238 0 343 -95t105 -305zM678 723q0 99 -29 143.5t-98 44.5t-99 -45.5t-30 -142.5v-326q0 -98 29.5 -142t99.5 -44q69 0 98 44t29 142
v326zM442 1470h201l166 -262h-119l-147 154l-150 -154h-117zM924 1642h206l-249 -264h-113z" />
    <glyph glyph-name="obthhuyen" unicode="&#x1ed3;" horiz-adv-x="1100" 
d="M999 739v-360q0 -141 -46 -227.5t-144 -128t-258 -41.5q-161 0 -259.5 41.5t-145 128t-46.5 227.5v360q0 140 46 228t146 130t259 42q238 0 343 -95t105 -305zM678 723q0 99 -29 143.5t-98 44.5t-99 -45.5t-30 -142.5v-326q0 -98 29.5 -142t99.5 -44q69 0 98 44t29 142
v326zM442 1470h201l166 -262h-119l-147 154l-150 -154h-117zM530 1694h207l156 -264h-113z" />
    <glyph glyph-name="obthhoi" unicode="&#x1ed5;" horiz-adv-x="1100" 
d="M999 739v-360q0 -141 -46 -227.5t-144 -128t-258 -41.5q-161 0 -259.5 41.5t-145 128t-46.5 227.5v360q0 140 46 228t146 130t259 42q238 0 343 -95t105 -305zM678 723q0 99 -29 143.5t-98 44.5t-99 -45.5t-30 -142.5v-326q0 -98 29.5 -142t99.5 -44q69 0 98 44t29 142
v326zM442 1470h201l166 -262h-119l-147 154l-150 -154h-117zM770 1389v32q0 35 9 53t38 39q22 15 52.5 34.5t43.5 33t13 33.5q0 45 -56 45q-51 0 -51 -60v-14h-114v121q65 47 165 47q179 0 179 -143q0 -59 -20.5 -85t-74.5 -61q-43 -27 -55 -37.5t-12 -33.5v-4h-117z" />
    <glyph glyph-name="obthnga" unicode="&#x1ed7;" horiz-adv-x="1100" 
d="M999 739v-360q0 -141 -46 -227.5t-144 -128t-258 -41.5q-161 0 -259.5 41.5t-145 128t-46.5 227.5v360q0 140 46 228t146 130t259 42q238 0 343 -95t105 -305zM678 723q0 99 -29 143.5t-98 44.5t-99 -45.5t-30 -142.5v-326q0 -98 29.5 -142t99.5 -44q69 0 98 44t29 142
v326zM442 1470h201l166 -262h-119l-147 154l-150 -154h-117zM709 1774h86q-21 -100 -60.5 -147.5t-103.5 -47.5q-35 0 -56 6l-69 21q-19 6 -49 6q-26 0 -42.5 -13.5t-25.5 -46.5h-88q20 96 58 141.5t102 45.5q32 0 65 -10l74 -19q28 -4 43 -4q46 0 66 68z" />
    <glyph glyph-name="obthnang" unicode="&#x1ed9;" horiz-adv-x="1100" 
d="M999 739v-360q0 -141 -46 -227.5t-144 -128t-258 -41.5q-161 0 -259.5 41.5t-145 128t-46.5 227.5v360q0 140 46 228t146 130t259 42q238 0 343 -95t105 -305zM678 723q0 99 -29 143.5t-98 44.5t-99 -45.5t-30 -142.5v-326q0 -98 29.5 -142t99.5 -44q69 0 98 44t29 142
v326zM442 1470h201l166 -262h-119l-147 154l-150 -154h-117zM426 -246v2q0 51 34.5 88t86.5 37t88.5 -36.5t36.5 -88.5q0 -34 -16.5 -62t-45.5 -45.5t-61 -17.5q-33 0 -60.5 16.5t-45 45.5t-17.5 61z" />
    <glyph glyph-name="obhoasac" unicode="&#x1ed0;" horiz-adv-x="1239" 
d="M109 1010q0 108 4.5 170t21.5 119.5t55 105.5q61 78 167 112.5t264 34.5q156 0 260.5 -34.5t167.5 -112.5q53 -67 67 -154t14 -241v-498q0 -154 -14 -241t-67 -154q-62 -77 -167 -112.5t-261 -35.5q-158 0 -264 35.5t-167 112.5q-37 47 -54.5 104.5t-22 119.5t-4.5 171
v498zM459 1022v-522q0 -117 37 -170.5t125 -53.5t123.5 54t35.5 170v522q0 115 -35 169t-124 54t-125.5 -53.5t-36.5 -169.5zM530 1872h201l166 -262h-119l-147 153l-150 -153h-116zM1012 2044h207l-250 -264h-113z" />
    <glyph glyph-name="obhoahuyen" unicode="&#x1ed2;" horiz-adv-x="1239" 
d="M109 1010q0 108 4.5 170t21.5 119.5t55 105.5q61 78 167 112.5t264 34.5q156 0 260.5 -34.5t167.5 -112.5q53 -67 67 -154t14 -241v-498q0 -154 -14 -241t-67 -154q-62 -77 -167 -112.5t-261 -35.5q-158 0 -264 35.5t-167 112.5q-37 47 -54.5 104.5t-22 119.5t-4.5 171
v498zM459 1022v-522q0 -117 37 -170.5t125 -53.5t123.5 54t35.5 170v522q0 115 -35 169t-124 54t-125.5 -53.5t-36.5 -169.5zM530 1872h201l166 -262h-119l-147 153l-150 -153h-116zM618 2095h207l156 -264h-113z" />
    <glyph glyph-name="obhoahoi" unicode="&#x1ed4;" horiz-adv-x="1239" 
d="M109 1010q0 108 4.5 170t21.5 119.5t55 105.5q61 78 167 112.5t264 34.5q156 0 260.5 -34.5t167.5 -112.5q53 -67 67 -154t14 -241v-498q0 -154 -14 -241t-67 -154q-62 -77 -167 -112.5t-261 -35.5q-158 0 -264 35.5t-167 112.5q-37 47 -54.5 104.5t-22 119.5t-4.5 171
v498zM459 1022v-522q0 -117 37 -170.5t125 -53.5t123.5 54t35.5 170v522q0 115 -35 169t-124 54t-125.5 -53.5t-36.5 -169.5zM530 1872h201l166 -262h-119l-147 153l-150 -153h-116zM858 1790v33q0 34 9 52.5t38 39.5q22 15 52 34t43.5 33t13.5 33q0 45 -56 45
q-51 0 -51 -59v-14h-114v120q65 47 165 47q179 0 179 -143q0 -59 -19.5 -84t-75.5 -61q-40 -25 -53.5 -36.5t-13.5 -35.5v-4h-117z" />
    <glyph glyph-name="obhoanga" unicode="&#x1ed6;" horiz-adv-x="1239" 
d="M109 1010q0 108 4.5 170t21.5 119.5t55 105.5q61 78 167 112.5t264 34.5q156 0 260.5 -34.5t167.5 -112.5q53 -67 67 -154t14 -241v-498q0 -154 -14 -241t-67 -154q-62 -77 -167 -112.5t-261 -35.5q-158 0 -264 35.5t-167 112.5q-37 47 -54.5 104.5t-22 119.5t-4.5 171
v498zM459 1022v-522q0 -117 37 -170.5t125 -53.5t123.5 54t35.5 170v522q0 115 -35 169t-124 54t-125.5 -53.5t-36.5 -169.5zM530 1872h201l166 -262h-119l-147 153l-150 -153h-116zM797 2175h86q-21 -98 -60.5 -146.5t-103.5 -48.5q-35 0 -55 7l-70 20q-19 6 -49 6
q-52 0 -68 -59h-88q20 96 58 141t102 45q32 0 65 -10l74 -19q28 -4 43 -4q46 0 66 68z" />
    <glyph glyph-name="obhoanang" unicode="&#x1ed8;" horiz-adv-x="1239" 
d="M109 1010q0 108 4.5 170t21.5 119.5t55 105.5q61 78 167 112.5t264 34.5q156 0 260.5 -34.5t167.5 -112.5q53 -67 67 -154t14 -241v-498q0 -154 -14 -241t-67 -154q-62 -77 -167 -112.5t-261 -35.5q-158 0 -264 35.5t-167 112.5q-37 47 -54.5 104.5t-22 119.5t-4.5 171
v498zM459 1022v-522q0 -117 37 -170.5t125 -53.5t123.5 54t35.5 170v522q0 115 -35 169t-124 54t-125.5 -53.5t-36.5 -169.5zM530 1872h201l166 -262h-119l-147 153l-150 -153h-116zM504 -254v2q0 51 34.5 88t86.5 37t88.5 -36.5t36.5 -88.5t-37.5 -88.5t-85.5 -36.5
q-33 0 -60.5 16.5t-45 45.5t-17.5 61z" />
    <glyph glyph-name="asacth" unicode="&#xf00a;" 
d="M-494 1505h207l-250 -264h-112z" />
    <glyph glyph-name="ahuyenth" unicode="&#xf00f;" 
d="M-774 1505h207l155 -264h-112z" />
    <glyph glyph-name="ahoith" unicode="&#xf014;" 
d="M-637 1241v33q0 34 9 52.5t38 39.5q22 15 52 34t43.5 33t13.5 33q0 45 -56 45q-51 0 -51 -59v-14h-114v121q67 47 165 47q179 0 179 -144q0 -59 -19.5 -84t-75.5 -61q-40 -25 -53.5 -36.5t-13.5 -35.5v-4h-117z" />
    <glyph glyph-name="angath" unicode="&#xf019;" 
d="M-371 1442h86q-22 -100 -60.5 -147.5t-103.5 -47.5q-34 0 -55 6l-69 21q-19 6 -50 6q-51 0 -67 -59h-88q18 96 57 141t103 45q31 0 65 -10l74 -19q28 -4 43 -4q47 0 65 68z" />
    <glyph glyph-name="angath" unicode="&#xf01b;" 
d="M-371 1442h86q-22 -100 -60.5 -147.5t-103.5 -47.5q-34 0 -55 6l-69 21q-19 6 -50 6q-51 0 -67 -59h-88q18 96 57 141t103 45q31 0 65 -10l74 -19q28 -4 43 -4q47 0 65 68z" />
    <glyph glyph-name="angath" unicode="&#xf01a;" 
d="M-371 1442h86q-22 -100 -60.5 -147.5t-103.5 -47.5q-34 0 -55 6l-69 21q-19 6 -50 6q-51 0 -67 -59h-88q18 96 57 141t103 45q31 0 65 -10l74 -19q28 -4 43 -4q47 0 65 68z" />
    <glyph glyph-name="anangth" unicode="&#xf023;" 
d="M-674 -238v2q0 51 34.5 88t86.5 37q51 0 88 -37t37 -88t-36.5 -87.5t-86.5 -36.5q-32 0 -61 17.5t-45.5 45t-16.5 59.5z" />
    <glyph glyph-name="anangth" unicode="&#xf02c;" 
d="M-674 -238v2q0 51 34.5 88t86.5 37q51 0 88 -37t37 -88t-36.5 -87.5t-86.5 -36.5q-32 0 -61 17.5t-45.5 45t-16.5 59.5z" />
    <glyph glyph-name="anangth" unicode="&#xf028;" 
d="M-674 -238v2q0 51 34.5 88t86.5 37q51 0 88 -37t37 -88t-36.5 -87.5t-86.5 -36.5q-32 0 -61 17.5t-45.5 45t-16.5 59.5z" />
    <glyph glyph-name="anangth" unicode="&#xf027;" 
d="M-674 -238v2q0 51 34.5 88t86.5 37q51 0 88 -37t37 -88t-36.5 -87.5t-86.5 -36.5q-32 0 -61 17.5t-45.5 45t-16.5 59.5z" />
    <glyph glyph-name="anangth" unicode="&#xf026;" 
d="M-674 -238v2q0 51 34.5 88t86.5 37q51 0 88 -37t37 -88t-36.5 -87.5t-86.5 -36.5q-32 0 -61 17.5t-45.5 45t-16.5 59.5z" />
    <glyph glyph-name="anangth" unicode="&#xf025;" 
d="M-674 -238v2q0 51 34.5 88t86.5 37q51 0 88 -37t37 -88t-36.5 -87.5t-86.5 -36.5q-32 0 -61 17.5t-45.5 45t-16.5 59.5z" />
    <glyph glyph-name="anangth" unicode="&#xf024;" 
d="M-674 -238v2q0 51 34.5 88t86.5 37q51 0 88 -37t37 -88t-36.5 -87.5t-86.5 -36.5q-32 0 -61 17.5t-45.5 45t-16.5 59.5z" />
    <glyph glyph-name="aasacth" unicode="&#xf009;" 
d="M-481 1741h207l-250 -264h-113z" />
    <glyph glyph-name="aahuyenth" unicode="&#xf00e;" 
d="M-844 1751h207l156 -264h-113z" />
    <glyph glyph-name="aahoith" unicode="&#xf013;" 
d="M-635 1487v33q0 34 9 52.5t38 39.5q22 15 52 34t43.5 33t13.5 33q0 45 -56 45q-51 0 -51 -59v-15h-114v121q65 47 165 47q179 0 179 -143q0 -59 -21 -85.5t-74 -59.5q-40 -25 -53.5 -36.5t-13.5 -35.5v-4h-117z" />
    <glyph glyph-name="aangath" unicode="&#xf018;" 
d="M-358 1749h86q-21 -98 -60.5 -146.5t-103.5 -48.5q-35 0 -56 7l-69 20q-19 6 -49 6q-52 0 -68 -59h-88q20 96 58 141t102 45q32 0 65 -10l74 -18q23 -5 43 -5q46 0 66 68z" />
    <glyph glyph-name="absacth" unicode="&#x301;" 
d="M-190 1651h206l-249 -265h-113z" />
    <glyph glyph-name="absacth" unicode="&#x302;" 
d="M-190 1651h206l-249 -265h-113z" />
    <glyph glyph-name="abhuyenth" unicode="&#x300;" 
d="M-543 1671h207l156 -264h-113z" />
    <glyph glyph-name="abhoith" unicode="&#x309;" 
d="M-334 1376v33q0 35 9 53t38 39q22 15 52.5 34.5t43.5 33t13 33.5q0 45 -55 45q-52 0 -52 -60v-14h-114v121q67 47 166 47q178 0 178 -144q0 -59 -19.5 -84t-75.5 -61q-40 -25 -53.5 -36.5t-13.5 -35.5v-4h-117z" />
    <glyph glyph-name="abngath" unicode="&#x303;" 
d="M-385 1761h86q-21 -99 -60.5 -146.5t-103.5 -47.5q-35 0 -55 6l-70 20q-18 6 -49 6q-26 0 -42 -14t-26 -45h-88q20 96 58 141t102 45q32 0 66 -10l73 -18q30 -4 43 -4q48 0 66 67z" />
    <glyph glyph-name="asachoa" unicode="&#x341;" 
d="M-586 1905h207l-250 -265h-112z" />
    <glyph glyph-name="asachoa" unicode="&#xf007;" 
d="M-586 1905h207l-250 -265h-112z" />
    <glyph glyph-name="ahuyenhoa" unicode="&#x340;" 
d="M-846 1905h207l156 -265h-113z" />
    <glyph glyph-name="ahuyenhoa" unicode="&#xf00c;" 
d="M-846 1905h207l156 -265h-113z" />
    <glyph glyph-name="ahoihoa" unicode="&#xf011;" 
d="M-709 1640v33q0 35 9 53t38 39q22 15 52.5 34.5t43.5 33t13 33.5q0 45 -55 45q-51 0 -51 -60v-14h-115v121q65 47 166 47q178 0 178 -143q0 -59 -21 -85.5t-73 -60.5q-20 -12 -30.5 -18t-19.5 -14t-13.5 -17.5t-4.5 -21.5v-5h-117z" />
    <glyph glyph-name="angahoa" unicode="&#x342;" 
d="M-463 1851h86q-21 -99 -60.5 -146.5t-103.5 -47.5q-34 0 -55 6l-70 20q-18 7 -49 7q-50 0 -67 -60h-88q18 96 56.5 141.5t102.5 45.5q33 0 66 -11l74 -18q28 -4 43 -4q47 0 65 67z" />
    <glyph glyph-name="angahoa" unicode="&#xf030;" 
d="M-463 1851h86q-21 -99 -60.5 -146.5t-103.5 -47.5q-34 0 -55 6l-70 20q-18 7 -49 7q-50 0 -67 -60h-88q18 96 56.5 141.5t102.5 45.5q33 0 66 -11l74 -18q28 -4 43 -4q47 0 65 67z" />
    <glyph glyph-name="angahoa" unicode="&#xf02e;" 
d="M-463 1851h86q-21 -99 -60.5 -146.5t-103.5 -47.5q-34 0 -55 6l-70 20q-18 7 -49 7q-50 0 -67 -60h-88q18 96 56.5 141.5t102.5 45.5q33 0 66 -11l74 -18q28 -4 43 -4q47 0 65 67z" />
    <glyph glyph-name="angahoa" unicode="&#xf01c;" 
d="M-463 1851h86q-21 -99 -60.5 -146.5t-103.5 -47.5q-34 0 -55 6l-70 20q-18 7 -49 7q-50 0 -67 -60h-88q18 96 56.5 141.5t102.5 45.5q33 0 66 -11l74 -18q28 -4 43 -4q47 0 65 67z" />
    <glyph glyph-name="angahoa" unicode="&#xf017;" 
d="M-463 1851h86q-21 -99 -60.5 -146.5t-103.5 -47.5q-34 0 -55 6l-70 20q-18 7 -49 7q-50 0 -67 -60h-88q18 96 56.5 141.5t102.5 45.5q33 0 66 -11l74 -18q28 -4 43 -4q47 0 65 67z" />
    <glyph glyph-name="angahoa" unicode="&#xf016;" 
d="M-463 1851h86q-21 -99 -60.5 -146.5t-103.5 -47.5q-34 0 -55 6l-70 20q-18 7 -49 7q-50 0 -67 -60h-88q18 96 56.5 141.5t102.5 45.5q33 0 66 -11l74 -18q28 -4 43 -4q47 0 65 67z" />
    <glyph glyph-name="ananghoa" unicode="&#x323;" 
d="M-756 -258v2q0 51 34.5 88t86.5 37q51 0 88 -37t37 -88q0 -52 -36.5 -88.5t-86.5 -36.5q-32 0 -61 17.5t-45.5 45t-16.5 60.5z" />
    <glyph glyph-name="ananghoa" unicode="&#xf02b;" 
d="M-756 -258v2q0 51 34.5 88t86.5 37q51 0 88 -37t37 -88q0 -52 -36.5 -88.5t-86.5 -36.5q-32 0 -61 17.5t-45.5 45t-16.5 60.5z" />
    <glyph glyph-name="ananghoa" unicode="&#xf029;" 
d="M-756 -258v2q0 51 34.5 88t86.5 37q51 0 88 -37t37 -88q0 -52 -36.5 -88.5t-86.5 -36.5q-32 0 -61 17.5t-45.5 45t-16.5 60.5z" />
    <glyph glyph-name="ananghoa" unicode="&#xf022;" 
d="M-756 -258v2q0 51 34.5 88t86.5 37q51 0 88 -37t37 -88q0 -52 -36.5 -88.5t-86.5 -36.5q-32 0 -61 17.5t-45.5 45t-16.5 60.5z" />
    <glyph glyph-name="ananghoa" unicode="&#xf021;" 
d="M-756 -258v2q0 51 34.5 88t86.5 37q51 0 88 -37t37 -88q0 -52 -36.5 -88.5t-86.5 -36.5q-32 0 -61 17.5t-45.5 45t-16.5 60.5z" />
    <glyph glyph-name="ananghoa" unicode="&#xf020;" 
d="M-756 -258v2q0 51 34.5 88t86.5 37q51 0 88 -37t37 -88q0 -52 -36.5 -88.5t-86.5 -36.5q-32 0 -61 17.5t-45.5 45t-16.5 60.5z" />
    <glyph glyph-name="ananghoa" unicode="&#xf01f;" 
d="M-756 -258v2q0 51 34.5 88t86.5 37q51 0 88 -37t37 -88q0 -52 -36.5 -88.5t-86.5 -36.5q-32 0 -61 17.5t-45.5 45t-16.5 60.5z" />
    <glyph glyph-name="ananghoa" unicode="&#xf01e;" 
d="M-756 -258v2q0 51 34.5 88t86.5 37q51 0 88 -37t37 -88q0 -52 -36.5 -88.5t-86.5 -36.5q-32 0 -61 17.5t-45.5 45t-16.5 60.5z" />
    <glyph glyph-name="aasachoa" 
d="M-512 2130h207l-250 -264h-113z" />
    <glyph glyph-name="aahuyenhoa" 
d="M-895 2140h207l156 -264h-113z" />
    <glyph glyph-name="aahoihoa" 
d="M-666 1876v33q0 34 10 52.5t38 39.5q30 21 55.5 37t39 30t13.5 33q0 45 -55 45q-51 0 -51 -59v-14h-115v120q67 48 166 48q178 0 178 -144q0 -59 -20 -84.5t-74 -60.5q-20 -12 -30 -18.5t-19.5 -14t-14 -17.5t-4.5 -22v-4h-117z" />
    <glyph glyph-name="aangahoa" 
d="M-410 2118h86q-22 -100 -60.5 -147.5t-102.5 -47.5q-35 0 -56 6l-69 21q-19 6 -50 6q-50 0 -67 -60h-88q18 94 57 140.5t103 46.5q32 0 65 -10l74 -19q28 -4 43 -4q47 0 65 68z" />
    <glyph glyph-name="absachoa" unicode="&#xf006;" 
d="M-231 2030h206l-249 -265h-113z" />
    <glyph glyph-name="abhuyenhoa" unicode="&#xf00b;" 
d="M-594 2060h207l156 -264h-113z" />
    <glyph glyph-name="abhoihoa" unicode="&#xf010;" 
d="M-385 1776v32q0 35 9 53.5t38 39.5q30 21 56 37t39.5 31t13.5 32q0 45 -56 45q-51 0 -51 -59v-15h-115v121q65 47 166 47q179 0 179 -143q0 -59 -20.5 -85t-74.5 -61q-45 -28 -56 -37.5t-11 -33.5v-4h-117z" />
    <glyph glyph-name="abngahoa" unicode="&#xf015;" 
d="M-446 2161h86q-21 -98 -60.5 -146.5t-103.5 -48.5q-35 0 -56 6l-69 21q-19 6 -49 6q-26 0 -42.5 -13.5t-25.5 -46.5h-88q20 96 58 141.5t102 45.5q32 0 65 -10l74 -19q28 -4 43 -4q46 0 66 68z" />
    <glyph glyph-name="abngahoa" unicode="&#xf02f;" 
d="M-446 2161h86q-21 -98 -60.5 -146.5t-103.5 -48.5q-35 0 -56 6l-69 21q-19 6 -49 6q-26 0 -42.5 -13.5t-25.5 -46.5h-88q20 96 58 141.5t102 45.5q32 0 65 -10l74 -19q28 -4 43 -4q46 0 66 68z" />
    <glyph glyph-name="abngahoa" unicode="&#xf02d;" 
d="M-446 2161h86q-21 -98 -60.5 -146.5t-103.5 -48.5q-35 0 -56 6l-69 21q-19 6 -49 6q-26 0 -42.5 -13.5t-25.5 -46.5h-88q20 96 58 141.5t102 45.5q32 0 65 -10l74 -19q28 -4 43 -4q46 0 66 68z" />
    <glyph glyph-name="cth" 
d="M-807 1456h96q8 -62 42 -88.5t106 -26.5t106.5 27t38.5 88h99q-9 -124 -67.5 -181.5t-176.5 -57.5q-116 0 -176.5 58t-67.5 181z" />
    <glyph glyph-name="csacth" 
d="M-807 1456h96q8 -62 42 -88.5t106 -26.5t106.5 27t38.5 88h99q-9 -124 -67.5 -181.5t-176.5 -57.5q-116 0 -176.5 58t-67.5 181zM-469 1751h207l-250 -264h-113z" />
    <glyph glyph-name="chuyenth" 
d="M-807 1456h96q8 -62 42 -88.5t106 -26.5t106.5 27t38.5 88h99q-9 -124 -67.5 -181.5t-176.5 -57.5q-116 0 -176.5 58t-67.5 181zM-842 1751h207l156 -264h-113z" />
    <glyph glyph-name="choith" 
d="M-807 1456h96q8 -62 42 -88.5t106 -26.5t106.5 27t38.5 88h99q-9 -124 -67.5 -181.5t-176.5 -57.5q-116 0 -176.5 58t-67.5 181zM-633 1487v33q0 34 9 52.5t38 39.5q22 15 52 34t43.5 33t13.5 33q0 45 -55 45q-52 0 -52 -59v-15h-114v121q65 47 166 47q89 0 133.5 -35
t44.5 -108q0 -59 -21 -85.5t-74 -59.5q-40 -25 -53.5 -36.5t-13.5 -35.5v-4h-117z" />
    <glyph glyph-name="cngath" 
d="M-807 1456h96q8 -62 42 -88.5t106 -26.5t106.5 27t38.5 88h99q-9 -124 -67.5 -181.5t-176.5 -57.5q-116 0 -176.5 58t-67.5 181zM-367 1769h86q-22 -101 -60.5 -147.5t-102.5 -46.5q-35 0 -56 6l-69 21q-19 6 -49 6q-26 0 -42.5 -13.5t-25.5 -46.5h-88q18 94 57 140.5
t103 46.5q33 0 65 -11l74 -18q28 -4 43 -4q47 0 65 67z" />
    <glyph glyph-name="cnangth" 
d="M-807 1456h96q8 -62 42 -88.5t106 -26.5t106.5 27t38.5 88h99q-9 -124 -67.5 -181.5t-176.5 -57.5q-116 0 -176.5 58t-67.5 181zM-690 -240v2q0 51 34.5 88t86.5 37t88.5 -36.5t36.5 -88.5q0 -51 -37.5 -87.5t-85.5 -36.5q-33 0 -61 17t-45 45t-17 60z" />
    <glyph glyph-name="choa" 
d="M-848 1835h96q8 -62 42 -88.5t106 -26.5t106.5 27t38.5 88h99q-9 -124 -67.5 -182t-176.5 -58q-117 0 -177 58.5t-67 181.5z" />
    <glyph glyph-name="csachoa" 
d="M-848 1835h96q8 -62 42 -88.5t106 -26.5t106.5 27t38.5 88h99q-9 -124 -67.5 -182t-176.5 -58q-117 0 -177 58.5t-67 181.5zM-510 2130h207l-250 -264h-113z" />
    <glyph glyph-name="chuyenhoa" 
d="M-848 1835h96q8 -62 42 -88.5t106 -26.5t106.5 27t38.5 88h99q-9 -124 -67.5 -182t-176.5 -58q-117 0 -177 58.5t-67 181.5zM-883 2130h207l156 -264h-113z" />
    <glyph glyph-name="choihoa" 
d="M-848 1835h96q8 -62 42 -88.5t106 -26.5t106.5 27t38.5 88h99q-9 -124 -67.5 -182t-176.5 -58q-117 0 -177 58.5t-67 181.5zM-674 1866v32q0 35 9 53.5t38 39.5q22 15 52 34t43.5 33t13.5 33q0 45 -55 45q-52 0 -52 -59v-15h-114v121q65 47 166 47q89 0 133.5 -35
t44.5 -108q0 -59 -21.5 -86t-72.5 -59q-20 -12 -30 -18.5t-19.5 -14t-14 -17.5t-4.5 -22v-4h-117z" />
    <glyph glyph-name="cngahoa" 
d="M-848 1835h96q8 -62 42 -88.5t106 -26.5t106.5 27t38.5 88h99q-9 -124 -67.5 -182t-176.5 -58q-117 0 -177 58.5t-67 181.5zM-408 2148h86q-22 -101 -60.5 -147.5t-102.5 -46.5q-35 0 -56 6l-69 20q-19 7 -49 7q-26 0 -42.5 -13.5t-25.5 -46.5h-88q18 94 57 140.5
t103 46.5q29 0 65 -11l74 -18q28 -4 43 -4q47 0 65 67z" />
    <glyph glyph-name="cnanghoa" 
d="M-848 1835h96q8 -62 42 -88.5t106 -26.5t106.5 27t38.5 88h99q-9 -124 -67.5 -182t-176.5 -58q-117 0 -177 58.5t-67 181.5zM-752 -219v2q0 51 34.5 88t86.5 37q51 0 88 -37t37 -88q0 -52 -36.5 -88.5t-86.5 -36.5q-32 0 -61 17.5t-45.5 45t-16.5 60.5z" />
    <glyph glyph-name="bth" 
d="M-664 1477h201l166 -263h-119l-147 154l-150 -154h-116z" />
    <glyph glyph-name="bsacth" 
d="M-664 1477h201l166 -263h-119l-147 154l-150 -154h-116zM-182 1649h207l-250 -265h-113z" />
    <glyph glyph-name="bhuyenth" 
d="M-664 1477h201l166 -263h-119l-147 154l-150 -154h-116zM-575 1700h206l156 -264h-113z" />
    <glyph glyph-name="bhoith" 
d="M-664 1477h201l166 -263h-119l-147 154l-150 -154h-116zM-336 1395v32q0 35 9 53.5t38 39.5q22 15 52 34t43.5 33t13.5 33q0 45 -56 45q-51 0 -51 -59v-15h-114v121q65 47 165 47q179 0 179 -143q0 -59 -20.5 -85t-74.5 -61q-45 -28 -56 -37.5t-11 -33.5v-4h-117z" />
    <glyph glyph-name="bngath" 
d="M-664 1477h201l166 -263h-119l-147 154l-150 -154h-116zM-397 1780h86q-21 -98 -60.5 -146.5t-103.5 -48.5q-35 0 -55 6l-70 21q-18 6 -49 6q-52 0 -68 -59h-88q20 96 58 141t102 45q32 0 65 -10l74 -19q28 -4 43 -4q46 0 66 68z" />
    <glyph glyph-name="bnangth" 
d="M-664 1477h201l166 -263h-119l-147 154l-150 -154h-116zM-680 -229v2q0 51 34.5 88t86.5 37t88.5 -36.5t36.5 -88.5t-37.5 -88.5t-85.5 -36.5q-33 0 -61 17t-45 45t-17 61z" />
    <glyph glyph-name="bhoa" 
d="M-715 1876h201l166 -262h-119l-147 153l-150 -153h-117z" />
    <glyph glyph-name="bsachoa" 
d="M-715 1876h201l166 -262h-119l-147 153l-150 -153h-117zM-233 2048h206l-249 -264h-113z" />
    <glyph glyph-name="bhuyenhoa" 
d="M-715 1876h201l166 -262h-119l-147 153l-150 -153h-117zM-627 2099h207l156 -264h-113z" />
    <glyph glyph-name="bhoihoa" 
d="M-715 1876h201l166 -262h-119l-147 153l-150 -153h-117zM-387 1794v33q0 34 9 52.5t38 39.5q30 21 56 37t39.5 31t13.5 32q0 45 -56 45q-51 0 -51 -59v-14h-115v120q67 48 166 48q178 0 178 -144q0 -58 -19 -83.5t-75 -61.5q-40 -25 -53.5 -36.5t-13.5 -35.5v-4h-117z
" />
    <glyph glyph-name="bngahoa" 
d="M-715 1876h201l166 -262h-119l-147 153l-150 -153h-117zM-449 2179h87q-21 -99 -60.5 -146.5t-103.5 -47.5q-35 0 -56 6l-69 20q-19 6 -49 6q-52 0 -68 -59h-88q20 96 58 141t102 45q32 0 65 -10l74 -18q35 -5 43 -5q47 0 65 68z" />
    <glyph glyph-name="bnanghoa" 
d="M-715 1876h201l166 -262h-119l-147 153l-150 -153h-117zM-741 -240v2q0 51 34.5 88t85.5 37t88 -37t37 -88t-36.5 -87.5t-85.5 -36.5q-33 0 -61 17t-45 45t-17 60z" />
    <glyph glyph-name="isachoa" horiz-adv-x="2" 
d="M-315 1876h206l-249 -264h-113z" />
    <glyph glyph-name="ihuyenhoa" horiz-adv-x="2" 
d="M-582 1886h207l156 -264h-113z" />
    <glyph glyph-name="ihoihoa" horiz-adv-x="2" 
d="M-408 1610v32q0 35 10 53.5t38 39.5q30 21 55.5 37t39 30t13.5 33q0 45 -55 45q-51 0 -51 -59v-15h-115v121q65 47 166 47q178 0 178 -143q0 -59 -21.5 -86t-72.5 -59q-20 -12 -30 -18.5t-19.5 -14t-14 -17.5t-4.5 -22v-4h-117z" />
    <glyph glyph-name="ingahoa" horiz-adv-x="2" 
d="M-172 1845h86q-21 -99 -60.5 -146.5t-103.5 -47.5q-35 0 -55 6l-70 20q-18 6 -49 6q-26 0 -42 -14t-26 -45h-88q20 96 58 141t102 45q32 0 66 -10l73 -18q30 -4 43 -4q48 0 66 67z" />
    <glyph glyph-name="inanghoa" horiz-adv-x="2" 
d="M-479 -254v2q0 51 34.5 88t86.5 37t88.5 -36.5t36.5 -88.5t-37.5 -88.5t-85.5 -36.5q-33 0 -60.5 16.5t-45 45.5t-17.5 61z" />
    <glyph glyph-name="nonbreakingspace" horiz-adv-x="1305" 
 />
  </font>
</defs>
</svg>
