<?xml version="1.0" standalone="no"?>
<!DOCTYPE svg PUBLIC "-//W3C//DTD SVG 1.1//EN" "http://www.w3.org/Graphics/SVG/1.1/DTD/svg11.dtd" >
<svg>
<metadata>
Created by FontForge 20120731 at Thu Nov  5 10:45:29 2015
 By www-data
</metadata>
<defs>
<font id="Arrus-Black" horiz-adv-x="0" >
  <font-face 
    font-family="Arrus-Black"
    font-weight="400"
    font-stretch="normal"
    units-per-em="2048"
    panose-1="2 2 5 0 0 0 0 0 0 0"
    ascent="1638"
    descent="-410"
    x-height="991"
    cap-height="1493"
    bbox="-1083 -635 2820 2195"
    underline-thickness="111"
    underline-position="-89"
    unicode-range="U+0020-F02A"
  />
<missing-glyph horiz-adv-x="1536" 
d="M256 0v1280h1024v-1280h-1024zM1247 33v1214h-958v-1214h958z" />
    <glyph glyph-name=".notdef" horiz-adv-x="1536" 
d="M256 0v1280h1024v-1280h-1024zM1247 33v1214h-958v-1214h958z" />
    <glyph glyph-name=".null" 
 />
    <glyph glyph-name="nonmarkingreturn" 
 />
    <glyph glyph-name="space" unicode=" " horiz-adv-x="674" 
 />
    <glyph glyph-name="space" unicode="&#x2031;" horiz-adv-x="674" 
 />
    <glyph glyph-name="space" unicode="&#x2025;" horiz-adv-x="674" 
 />
    <glyph glyph-name="space" unicode="&#x2024;" horiz-adv-x="674" 
 />
    <glyph glyph-name="space" unicode="&#x2023;" horiz-adv-x="674" 
 />
    <glyph glyph-name="space" unicode="&#x201f;" horiz-adv-x="674" 
 />
    <glyph glyph-name="space" unicode="&#x201b;" horiz-adv-x="674" 
 />
    <glyph glyph-name="space" unicode="&#x2017;" horiz-adv-x="674" 
 />
    <glyph glyph-name="space" unicode="&#x2016;" horiz-adv-x="674" 
 />
    <glyph glyph-name="space" unicode="&#x2015;" horiz-adv-x="674" 
 />
    <glyph glyph-name="exclam" unicode="!" horiz-adv-x="682" 
d="M496 1346l-119 -969h-72l-119 969q-4 44 -4 57q0 62 37.5 88.5t120.5 26.5q87 0 123.5 -26.5t36.5 -90.5q0 -11 -4 -55zM340 287q63 0 109.5 -45.5t46.5 -110.5q0 -63 -46.5 -109.5t-109.5 -46.5t-108.5 45.5t-45.5 110.5q0 43 20.5 79t56.5 56.5t77 20.5z" />
    <glyph glyph-name="quotedbl" unicode="&#x22;" horiz-adv-x="717" 
d="M207 846h-43l-86 463q-4 24 -4 37q0 54 29.5 86t80.5 32t82 -31t31 -85q0 -15 -4 -39zM553 846h-45l-84 463q-4 24 -4 37q0 54 29.5 86t80.5 32q52 0 81.5 -31.5t29.5 -84.5q0 -27 -2 -39z" />
    <glyph glyph-name="numbersign" unicode="#" horiz-adv-x="1575" 
d="M684 1466h248l-139 -393h241l140 393h247l-139 -393h270l-86 -229h-266l-82 -234h277l-84 -229h-275l-141 -393h-248l141 393h-241l-141 -393h-248l141 393h-276l86 229h272l82 234h-285l86 229h281zM705 844l-84 -234h253l84 234h-253z" />
    <glyph glyph-name="dollar" unicode="$" horiz-adv-x="1346" 
d="M647 1710h133v-237q173 -11 252.5 -33.5t79.5 -69.5q0 -35 -39 -80q27 -84 27 -186v-39h-92q-19 260 -228 305v-475q117 -43 200 -89t137 -99.5t81 -119t27 -147.5q0 -185 -127 -300t-365 -140v-250h-133v248q-147 5 -238.5 16.5t-135.5 36.5t-44 68q0 33 41 104
q-39 123 -39 242v35h97q22 -182 103.5 -284.5t215.5 -123.5v514q-221 80 -325.5 186.5t-104.5 258.5q0 116 56.5 206.5t163.5 145.5t257 67v240zM733 555v-461q87 15 134.5 74t47.5 149q0 81 -44.5 139t-137.5 99zM647 1366q-75 -9 -121.5 -64t-46.5 -135q0 -73 41 -125
t127 -96v420z" />
    <glyph glyph-name="percent" unicode="%" horiz-adv-x="1933" 
d="M455 1495q112 0 206.5 -57t148.5 -157t54 -222q0 -93 -30.5 -173t-86 -139t-131.5 -92.5t-161 -33.5q-111 0 -205.5 57t-148.5 157.5t-54 223.5t54 223t147 156.5t207 56.5zM1350 1493h186l-944 -1518h-186zM455 1423q-74 0 -109 -90t-35 -274q0 -365 144 -365
q145 0 145 365q0 364 -145 364zM1485 850q112 0 206.5 -57t148.5 -157t54 -222q0 -93 -30.5 -173.5t-86 -139.5t-131.5 -92.5t-161 -33.5q-111 0 -205 57t-148.5 158t-54.5 224t54 223t147 156.5t207 56.5zM1485 778q-51 0 -82.5 -40t-46.5 -121.5t-15 -202.5
q0 -367 144 -367q145 0 145 367q0 364 -145 364z" />
    <glyph glyph-name="percent" unicode="&#x202f;" horiz-adv-x="1933" 
d="M455 1495q112 0 206.5 -57t148.5 -157t54 -222q0 -93 -30.5 -173t-86 -139t-131.5 -92.5t-161 -33.5q-111 0 -205.5 57t-148.5 157.5t-54 223.5t54 223t147 156.5t207 56.5zM1350 1493h186l-944 -1518h-186zM455 1423q-74 0 -109 -90t-35 -274q0 -365 144 -365
q145 0 145 365q0 364 -145 364zM1485 850q112 0 206.5 -57t148.5 -157t54 -222q0 -93 -30.5 -173.5t-86 -139.5t-131.5 -92.5t-161 -33.5q-111 0 -205 57t-148.5 158t-54.5 224t54 223t147 156.5t207 56.5zM1485 778q-51 0 -82.5 -40t-46.5 -121.5t-15 -202.5
q0 -367 144 -367q145 0 145 367q0 364 -145 364z" />
    <glyph glyph-name="percent" unicode="&#x202e;" horiz-adv-x="1933" 
d="M455 1495q112 0 206.5 -57t148.5 -157t54 -222q0 -93 -30.5 -173t-86 -139t-131.5 -92.5t-161 -33.5q-111 0 -205.5 57t-148.5 157.5t-54 223.5t54 223t147 156.5t207 56.5zM1350 1493h186l-944 -1518h-186zM455 1423q-74 0 -109 -90t-35 -274q0 -365 144 -365
q145 0 145 365q0 364 -145 364zM1485 850q112 0 206.5 -57t148.5 -157t54 -222q0 -93 -30.5 -173.5t-86 -139.5t-131.5 -92.5t-161 -33.5q-111 0 -205 57t-148.5 158t-54.5 224t54 223t147 156.5t207 56.5zM1485 778q-51 0 -82.5 -40t-46.5 -121.5t-15 -202.5
q0 -367 144 -367q145 0 145 367q0 364 -145 364z" />
    <glyph glyph-name="percent" unicode="&#x202d;" horiz-adv-x="1933" 
d="M455 1495q112 0 206.5 -57t148.5 -157t54 -222q0 -93 -30.5 -173t-86 -139t-131.5 -92.5t-161 -33.5q-111 0 -205.5 57t-148.5 157.5t-54 223.5t54 223t147 156.5t207 56.5zM1350 1493h186l-944 -1518h-186zM455 1423q-74 0 -109 -90t-35 -274q0 -365 144 -365
q145 0 145 365q0 364 -145 364zM1485 850q112 0 206.5 -57t148.5 -157t54 -222q0 -93 -30.5 -173.5t-86 -139.5t-131.5 -92.5t-161 -33.5q-111 0 -205 57t-148.5 158t-54.5 224t54 223t147 156.5t207 56.5zM1485 778q-51 0 -82.5 -40t-46.5 -121.5t-15 -202.5
q0 -367 144 -367q145 0 145 367q0 364 -145 364z" />
    <glyph glyph-name="percent" unicode="&#x202c;" horiz-adv-x="1933" 
d="M455 1495q112 0 206.5 -57t148.5 -157t54 -222q0 -93 -30.5 -173t-86 -139t-131.5 -92.5t-161 -33.5q-111 0 -205.5 57t-148.5 157.5t-54 223.5t54 223t147 156.5t207 56.5zM1350 1493h186l-944 -1518h-186zM455 1423q-74 0 -109 -90t-35 -274q0 -365 144 -365
q145 0 145 365q0 364 -145 364zM1485 850q112 0 206.5 -57t148.5 -157t54 -222q0 -93 -30.5 -173.5t-86 -139.5t-131.5 -92.5t-161 -33.5q-111 0 -205 57t-148.5 158t-54.5 224t54 223t147 156.5t207 56.5zM1485 778q-51 0 -82.5 -40t-46.5 -121.5t-15 -202.5
q0 -367 144 -367q145 0 145 367q0 364 -145 364z" />
    <glyph glyph-name="percent" unicode="&#x202b;" horiz-adv-x="1933" 
d="M455 1495q112 0 206.5 -57t148.5 -157t54 -222q0 -93 -30.5 -173t-86 -139t-131.5 -92.5t-161 -33.5q-111 0 -205.5 57t-148.5 157.5t-54 223.5t54 223t147 156.5t207 56.5zM1350 1493h186l-944 -1518h-186zM455 1423q-74 0 -109 -90t-35 -274q0 -365 144 -365
q145 0 145 365q0 364 -145 364zM1485 850q112 0 206.5 -57t148.5 -157t54 -222q0 -93 -30.5 -173.5t-86 -139.5t-131.5 -92.5t-161 -33.5q-111 0 -205 57t-148.5 158t-54.5 224t54 223t147 156.5t207 56.5zM1485 778q-51 0 -82.5 -40t-46.5 -121.5t-15 -202.5
q0 -367 144 -367q145 0 145 367q0 364 -145 364z" />
    <glyph glyph-name="percent" unicode="&#x202a;" horiz-adv-x="1933" 
d="M455 1495q112 0 206.5 -57t148.5 -157t54 -222q0 -93 -30.5 -173t-86 -139t-131.5 -92.5t-161 -33.5q-111 0 -205.5 57t-148.5 157.5t-54 223.5t54 223t147 156.5t207 56.5zM1350 1493h186l-944 -1518h-186zM455 1423q-74 0 -109 -90t-35 -274q0 -365 144 -365
q145 0 145 365q0 364 -145 364zM1485 850q112 0 206.5 -57t148.5 -157t54 -222q0 -93 -30.5 -173.5t-86 -139.5t-131.5 -92.5t-161 -33.5q-111 0 -205 57t-148.5 158t-54.5 224t54 223t147 156.5t207 56.5zM1485 778q-51 0 -82.5 -40t-46.5 -121.5t-15 -202.5
q0 -367 144 -367q145 0 145 367q0 364 -145 364z" />
    <glyph glyph-name="percent" unicode="&#x2029;" horiz-adv-x="1933" 
d="M455 1495q112 0 206.5 -57t148.5 -157t54 -222q0 -93 -30.5 -173t-86 -139t-131.5 -92.5t-161 -33.5q-111 0 -205.5 57t-148.5 157.5t-54 223.5t54 223t147 156.5t207 56.5zM1350 1493h186l-944 -1518h-186zM455 1423q-74 0 -109 -90t-35 -274q0 -365 144 -365
q145 0 145 365q0 364 -145 364zM1485 850q112 0 206.5 -57t148.5 -157t54 -222q0 -93 -30.5 -173.5t-86 -139.5t-131.5 -92.5t-161 -33.5q-111 0 -205 57t-148.5 158t-54.5 224t54 223t147 156.5t207 56.5zM1485 778q-51 0 -82.5 -40t-46.5 -121.5t-15 -202.5
q0 -367 144 -367q145 0 145 367q0 364 -145 364z" />
    <glyph glyph-name="percent" unicode="&#x2028;" horiz-adv-x="1933" 
d="M455 1495q112 0 206.5 -57t148.5 -157t54 -222q0 -93 -30.5 -173t-86 -139t-131.5 -92.5t-161 -33.5q-111 0 -205.5 57t-148.5 157.5t-54 223.5t54 223t147 156.5t207 56.5zM1350 1493h186l-944 -1518h-186zM455 1423q-74 0 -109 -90t-35 -274q0 -365 144 -365
q145 0 145 365q0 364 -145 364zM1485 850q112 0 206.5 -57t148.5 -157t54 -222q0 -93 -30.5 -173.5t-86 -139.5t-131.5 -92.5t-161 -33.5q-111 0 -205 57t-148.5 158t-54.5 224t54 223t147 156.5t207 56.5zM1485 778q-51 0 -82.5 -40t-46.5 -121.5t-15 -202.5
q0 -367 144 -367q145 0 145 367q0 364 -145 364z" />
    <glyph glyph-name="percent" unicode="&#x2027;" horiz-adv-x="1933" 
d="M455 1495q112 0 206.5 -57t148.5 -157t54 -222q0 -93 -30.5 -173t-86 -139t-131.5 -92.5t-161 -33.5q-111 0 -205.5 57t-148.5 157.5t-54 223.5t54 223t147 156.5t207 56.5zM1350 1493h186l-944 -1518h-186zM455 1423q-74 0 -109 -90t-35 -274q0 -365 144 -365
q145 0 145 365q0 364 -145 364zM1485 850q112 0 206.5 -57t148.5 -157t54 -222q0 -93 -30.5 -173.5t-86 -139.5t-131.5 -92.5t-161 -33.5q-111 0 -205 57t-148.5 158t-54.5 224t54 223t147 156.5t207 56.5zM1485 778q-51 0 -82.5 -40t-46.5 -121.5t-15 -202.5
q0 -367 144 -367q145 0 145 367q0 364 -145 364z" />
    <glyph glyph-name="ampersand" unicode="&#x26;" horiz-adv-x="2034" 
d="M1114 1528l80 -31q-19 -56 -66 -119q13 -108 13 -198q0 -25 -2 -56h-99q-22 152 -87 230t-162 78q-81 0 -134 -57t-53 -150q0 -72 43.5 -153.5t133.5 -179.5t216 -204t295 -233q25 81 25 135q0 134 -69.5 203t-223.5 92v69q183 -10 369 -53q206 47 368 53v-69
q-102 -16 -149 -36t-70.5 -53.5t-48.5 -105.5q-8 -25 -24 -78.5t-36 -107.5t-47 -113q127 -96 220 -153.5t174.5 -88t148.5 -30.5q64 0 123 26l35 -67q-163 -113 -367 -113q-82 0 -161.5 20.5t-163.5 60.5t-172 97q-226 -172 -541 -172q-177 0 -309 52t-201.5 146.5
t-69.5 215.5q0 93 46 175.5t134 142.5t210 94q-121 142 -121 311q0 114 57.5 206t162 144.5t238.5 52.5q62 0 134 -12t81 -12q40 0 70 41zM1130 207q-124 89 -220.5 172t-186 169t-133 119t-78.5 33q-52 0 -86.5 -39.5t-34.5 -105.5q0 -98 69.5 -194.5t188.5 -158t256 -61.5
q134 0 225 66z" />
    <glyph glyph-name="quotesingle" unicode="'" horiz-adv-x="371" 
d="M207 846h-43l-86 463q-4 24 -4 37q0 53 31.5 85.5t80.5 32.5q52 0 81.5 -31.5t29.5 -84.5q0 -15 -4 -39z" />
    <glyph glyph-name="parenleft" unicode="(" horiz-adv-x="854" 
d="M678 1518l117 -56q-314 -389 -314 -932q0 -545 314 -933l-117 -56q-130 108 -232.5 228.5t-170 246.5t-102 257t-34.5 257q0 128 34.5 258.5t102 256t170 246t232.5 227.5z" />
    <glyph glyph-name="parenright" unicode=")" horiz-adv-x="854" 
d="M174 1518q177 -147 297.5 -309t182 -333t61.5 -346t-61.5 -346t-182 -333.5t-297.5 -309.5l-115 56q155 191 233.5 428.5t78.5 504.5q0 132 -19.5 258.5t-59.5 247t-99 228t-134 198.5z" />
    <glyph glyph-name="asterisk" unicode="*" horiz-adv-x="1024" 
d="M530 1116q48 29 78 64t65.5 87.5t62.5 74.5t69 22q23 0 48.5 -20t41.5 -50t16 -59q0 -41 -33.5 -70.5t-89.5 -34.5q-68 -3 -115.5 -9.5t-119.5 -37.5q40 -24 80.5 -34t75 -12.5t82.5 -4.5q54 -3 87 -31t33 -71q0 -27 -15.5 -58t-41.5 -52t-55 -21q-38 0 -63 22t-59 73
t-65.5 87.5t-79.5 62.5q4 -66 20 -106.5t45.5 -100t29.5 -89.5q0 -105 -115 -105t-115 100q0 33 31.5 99t45.5 102t18 100q-48 -26 -76 -58.5t-65.5 -87.5t-62 -77t-63.5 -22q-42 0 -77 42t-35 89q0 43 33.5 71t86.5 31q94 5 136.5 11.5t101.5 39.5q-72 31 -120 37.5
t-115 9.5q-56 5 -89.5 33.5t-33.5 71.5q0 44 34 86.5t72 42.5q41 0 68 -22t64.5 -76.5t65 -87t77.5 -62.5q-5 68 -21 106.5t-46 101t-30 91.5q0 49 30 76t85 27t85 -26.5t30 -76.5q0 -29 -30 -91.5t-46 -101t-21 -106.5z" />
    <glyph glyph-name="asterisk" horiz-adv-x="1024" 
d="M530 1116q48 29 78 64t65.5 87.5t62.5 74.5t69 22q23 0 48.5 -20t41.5 -50t16 -59q0 -41 -33.5 -70.5t-89.5 -34.5q-68 -3 -115.5 -9.5t-119.5 -37.5q40 -24 80.5 -34t75 -12.5t82.5 -4.5q54 -3 87 -31t33 -71q0 -27 -15.5 -58t-41.5 -52t-55 -21q-38 0 -63 22t-59 73
t-65.5 87.5t-79.5 62.5q4 -66 20 -106.5t45.5 -100t29.5 -89.5q0 -105 -115 -105t-115 100q0 33 31.5 99t45.5 102t18 100q-48 -26 -76 -58.5t-65.5 -87.5t-62 -77t-63.5 -22q-42 0 -77 42t-35 89q0 43 33.5 71t86.5 31q94 5 136.5 11.5t101.5 39.5q-72 31 -120 37.5
t-115 9.5q-56 5 -89.5 33.5t-33.5 71.5q0 44 34 86.5t72 42.5q41 0 68 -22t64.5 -76.5t65 -87t77.5 -62.5q-5 68 -21 106.5t-46 101t-30 91.5q0 49 30 76t85 27t85 -26.5t30 -76.5q0 -29 -30 -91.5t-46 -101t-21 -106.5z" />
    <glyph glyph-name="plus" unicode="+" horiz-adv-x="1706" 
d="M735 1221h238v-494h479v-231h-479v-496h-238v496h-481v231h481v494z" />
    <glyph glyph-name="comma" unicode="," horiz-adv-x="674" 
d="M213 -371l-63 54q172 160 172 317q0 46 -22 75t-56 29q-20 0 -60 -14q-24 36 -24 78q0 66 52.5 108.5t131.5 42.5q82 0 130 -53.5t48 -144.5q0 -73 -36 -159t-104 -170.5t-169 -162.5z" />
    <glyph glyph-name="hyphen" unicode="-" horiz-adv-x="758" 
d="M100 686q161 -8 279 -8q134 0 278 8v-321q-163 8 -278 8q-102 0 -279 -8v321z" />
    <glyph glyph-name="period" unicode="." horiz-adv-x="674" 
d="M338 322q71 0 120.5 -50.5t49.5 -121.5q0 -48 -22.5 -87t-62.5 -63.5t-85 -24.5q-71 0 -122.5 52.5t-51.5 122.5q0 72 51 122t123 50z" />
    <glyph glyph-name="slash" unicode="/" horiz-adv-x="569" 
d="M440 1518h178l-546 -1708h-176z" />
    <glyph glyph-name="zero" unicode="0" horiz-adv-x="1346" 
d="M1272 735q0 -165 -47 -304t-130.5 -241.5t-193 -157.5t-229.5 -55t-228 55t-192 158.5t-131 242t-47 302.5q0 217 80.5 390.5t218 270.5t299.5 97q123 0 231.5 -55t191 -155.5t130 -241t47.5 -306.5zM485 737q0 -169 9 -299t29.5 -212.5t57 -124.5t91.5 -42
q71 0 111.5 73.5t57.5 224t17 380.5q0 240 -16.5 385.5t-56.5 218t-113 72.5q-71 0 -112 -72.5t-58 -223t-17 -380.5z" />
    <glyph glyph-name="one" unicode="1" horiz-adv-x="1346" 
d="M834 1507l53 -39q-29 -171 -29 -362v-719q0 -96 5.5 -151.5t26.5 -90.5t65.5 -51.5t131.5 -21.5v-72q-114 3 -216.5 16t-192.5 39q-166 -49 -402 -55v72q112 4 159.5 36.5t58 98.5t10.5 219v553q0 133 -4 198t-19.5 106t-54 61t-107.5 20h-6v70q137 10 211 10
q91 0 170 -8q73 46 140 71z" />
    <glyph glyph-name="two" unicode="2" horiz-adv-x="1346" 
d="M446 256h310q122 0 186.5 10.5t107 46.5t64.5 115l82 -8q-32 -153 -90 -242q39 -57 39 -90q0 -46 -33 -66t-106 -20q-24 0 -71.5 1.5t-108 2.5t-113.5 1.5t-170 0.5q-380 0 -492 -8v80q250 184 409 346.5t236.5 329t77.5 356.5q0 291 -164 291q-67 0 -111 -53t-44 -136
q0 -98 69 -204q-94 -58 -205 -58q-88 0 -139 51t-51 140q0 94 67 173.5t188.5 127t277.5 47.5q113 0 206.5 -28.5t157.5 -80t97.5 -124t33.5 -164.5q0 -186 -176 -394.5t-535 -443.5z" />
    <glyph glyph-name="three" unicode="3" horiz-adv-x="1346" 
d="M739 774q216 -16 328.5 -110.5t112.5 -257.5q0 -118 -74.5 -217t-210 -156.5t-307.5 -57.5q-189 0 -328.5 69t-204.5 189l86 80q147 -172 338 -172q86 0 155.5 36t108.5 101t39 150q0 131 -80 202.5t-233 71.5q-30 0 -48 -0.5t-40 -1.5v107h6q381 0 381 340
q0 129 -42.5 196.5t-125.5 67.5q-68 0 -108.5 -45.5t-40.5 -126.5q0 -75 36 -156q-69 -49 -163 -49q-74 0 -119 43.5t-45 114.5q0 84 58.5 152.5t168.5 108.5t256 40q153 0 264 -44.5t170.5 -125.5t59.5 -186q0 -137 -102 -232t-296 -131z" />
    <glyph glyph-name="four" unicode="4" horiz-adv-x="1346" 
d="M690 600l10 580l-430 -586q32 1 82 1.5t111.5 1t107 1t119.5 2.5zM489 0v72q92 8 132.5 41.5t52 97t16.5 217.5h-272q-193 0 -342 -8v147l680 914l118 -21l142 21q-4 -366 -4 -430q0 -95 4 -451q96 0 148 16.5t75 61.5l43 -16q-18 -58 -61 -115q20 -48 20 -64
q0 -37 -38 -49t-126 -12h-65v-64q0 -106 13.5 -164.5t54 -86t126.5 -35.5v-72q-214 9 -362 55q-150 -46 -355 -55z" />
    <glyph glyph-name="five" unicode="5" horiz-adv-x="1346" 
d="M252 836l78 612q190 -12 368 -12q171 0 265.5 17t144.5 69l45 -21q-18 -75 -59 -143q24 -41 24 -68q0 -42 -29 -59.5t-84.5 -22t-179.5 -4.5h-30q-91 0 -198 3.5t-169 6.5l-29 -237q246 0 414.5 -56.5t255 -165t86.5 -263.5q0 -108 -47.5 -201.5t-136.5 -165t-211.5 -111
t-267.5 -39.5q-126 0 -244.5 42.5t-192.5 113.5l72 98q131 -108 289 -108q99 0 176 43t119.5 119t42.5 176q0 177 -124.5 277t-353.5 100h-24z" />
    <glyph glyph-name="six" unicode="6" horiz-adv-x="1346" 
d="M1055 1528l30 -101q-462 -119 -555 -579q56 38 127 58t148 20q101 0 188.5 -34t150 -93.5t97.5 -139t35 -170.5q0 -108 -42.5 -202t-121 -164t-186 -109t-232.5 -39q-173 0 -305 72t-205 204t-73 302q0 180 62.5 337.5t183.5 285.5t298 218t400 134zM702 813
q-98 0 -155.5 -103.5t-57.5 -287.5q0 -168 56 -265.5t149 -97.5q94 0 151.5 95.5t57.5 267.5q0 189 -53 290t-148 101z" />
    <glyph glyph-name="seven" unicode="7" horiz-adv-x="1346" 
d="M1233 1470v-96q-99 -189 -182 -376t-152 -376t-125 -386q-35 -122 -48 -160.5t-40.5 -65t-77.5 -26.5q-56 0 -139 47q-64 -29 -170 -56l-41 35q86 150 192 327.5t166.5 277t161.5 261t209 328.5q-104 8 -223 8h-94q-140 0 -215 -7t-120.5 -35t-64.5 -89l-86 13
q20 118 68 206q-37 46 -37 86q0 47 32 63.5t107 16.5q38 0 76 -0.5t76.5 -1t85 -1.5t131.5 -1h209q178 0 301 8z" />
    <glyph glyph-name="eight" unicode="8" horiz-adv-x="1346" 
d="M946 791q277 -143 277 -379q0 -93 -41.5 -173t-117 -138t-184 -91t-235.5 -33q-166 0 -285.5 47t-183 132.5t-63.5 193.5q0 110 70.5 206.5t205.5 166.5q-99 61 -157 147t-58 197q0 121 67 218t191 151.5t287 54.5q136 0 245.5 -48.5t169.5 -131.5t60 -183
q0 -201 -248 -337zM842 844q60 52 94.5 127.5t34.5 154.5q0 84 -35 146.5t-96 96.5t-138 34q-103 0 -167 -59t-64 -152q0 -67 40.5 -124.5t122 -111t208.5 -112.5zM483 674q-102 -113 -102 -258q0 -150 83 -246t210 -96q70 0 123.5 28.5t83.5 79t30 109.5q0 83 -47.5 142
t-130.5 108t-250 133z" />
    <glyph glyph-name="nine" unicode="9" horiz-adv-x="1346" 
d="M266 -61l-24 86q161 45 290.5 134t209 210.5t100.5 257.5q-122 -86 -291 -86q-100 0 -184.5 33t-148 93.5t-98 141.5t-34.5 174q0 140 75.5 257t213.5 185t313 68q163 0 291.5 -72.5t201 -206t72.5 -309.5q0 -180 -64 -336t-191 -281t-310.5 -213t-421.5 -136zM653 1409
q-56 0 -101 -40.5t-70 -120.5t-25 -191q0 -127 26.5 -216t73 -136.5t109.5 -47.5q61 0 106.5 42t71.5 122.5t26 192.5q0 187 -58.5 291t-158.5 104z" />
    <glyph glyph-name="colon" unicode=":" horiz-adv-x="717" 
d="M358 1010q72 0 122 -51t50 -121q0 -71 -50.5 -122.5t-123.5 -51.5q-69 0 -119.5 51.5t-50.5 122.5q0 49 22.5 87.5t62 61.5t87.5 23zM358 322q72 0 122 -51t50 -121q0 -48 -23 -87.5t-63 -63.5t-86 -24q-72 0 -122 52t-50 123q0 49 22.5 87.5t62 61.5t87.5 23z" />
    <glyph glyph-name="semicolon" unicode=";" horiz-adv-x="717" 
d="M358 1010q72 0 122 -51t50 -121q0 -71 -50.5 -122.5t-123.5 -51.5q-69 0 -119.5 51.5t-50.5 122.5q0 49 22.5 87.5t62 61.5t87.5 23zM233 -371l-61 54q172 159 172 317q0 47 -22.5 75.5t-57.5 28.5q-28 0 -59 -14q-25 35 -25 78q0 66 52.5 108.5t132.5 42.5
q82 0 130 -53.5t48 -144.5q0 -73 -36 -159t-104.5 -170.5t-169.5 -162.5z" />
    <glyph glyph-name="less" unicode="&#x3c;" horiz-adv-x="1706" 
d="M1442 1214v-253l-854 -351l854 -348v-254l-1178 486v233z" />
    <glyph glyph-name="equal" unicode="=" horiz-adv-x="1706" 
d="M254 950h1198v-231h-1198v231zM254 502h1198v-230h-1198v230z" />
    <glyph glyph-name="greater" unicode="&#x3e;" horiz-adv-x="1706" 
d="M264 1214l1178 -487v-233l-1178 -486v254l854 348l-854 351v253z" />
    <glyph glyph-name="question" unicode="?" horiz-adv-x="1018" 
d="M420 287q39 0 75 -21t57 -57.5t21 -77.5q0 -39 -20.5 -76t-56 -58.5t-76.5 -21.5q-64 0 -110 46t-46 110t45 110t111 46zM373 1163q-67 -53 -156 -53q-70 0 -110.5 38.5t-40.5 104.5q0 54 30.5 102.5t88.5 85t140.5 57t184.5 20.5q132 0 228 -40.5t147 -115t51 -174.5
q0 -98 -43.5 -168.5t-103 -117t-224.5 -163.5q-123 -85 -123 -164q0 -35 20 -55t54 -20q3 0 29 4q-3 -72 -25 -94.5t-86 -22.5q-68 0 -109.5 46.5t-41.5 125.5q0 76 37 144t118 161q49 56 78 98t47.5 104.5t18.5 154.5q0 93 -37 147.5t-94 54.5q-51 0 -84 -35.5t-33 -95.5
q0 -62 39 -129z" />
    <glyph glyph-name="at" unicode="@" horiz-adv-x="2019" 
d="M1128 942q-63 0 -112 -44.5t-96 -139.5q-38 -76 -65.5 -151.5t-40.5 -139t-13 -115.5q0 -73 32.5 -114t86.5 -41q119 0 223 241q27 61 50 136t32.5 133t9.5 96q0 67 -27.5 103t-79.5 36zM1171 313q-121 -192 -278 -192q-104 0 -176.5 40.5t-111 119t-38.5 186.5
q0 115 50 223t147 197q68 62 150 95.5t167 33.5q190 0 217 -176l48 157h208l-174 -624q-14 -58 -14 -88q0 -47 19 -73t51 -26q28 0 82.5 27t103.5 70q199 179 199 485q0 244 -135 391q-100 111 -235.5 167t-299.5 56q-281 0 -498 -157q-111 -80 -188 -189t-116.5 -241.5
t-39.5 -276.5q0 -167 53 -302t153 -230t242 -145t314 -50q164 0 317 51t314 156l41 -57q-306 -228 -672 -228q-214 0 -389 58.5t-299.5 169t-189 263.5t-64.5 335q0 201 87.5 380t252.5 314q277 227 653 227q176 0 317.5 -49t243.5 -141t155.5 -220.5t53.5 -283.5
q0 -166 -59.5 -303.5t-171.5 -237.5q-122 -108 -268 -108q-98 0 -156 52t-66 144z" />
    <glyph glyph-name="A" unicode="A" horiz-adv-x="1612" 
d="M680 1505l151 -24l154 24l293 -739q25 -64 99.5 -253t117 -272.5t88.5 -126t105 -42.5h6v-72q-198 6 -389 57q-199 -54 -371 -57v72q75 6 109 29t34 73q0 29 -18.5 94t-59.5 168l-36 96q-109 3 -248 3q-129 0 -252 -3l-39 -96q-39 -97 -58.5 -173t-19.5 -99q0 -43 29 -64
t98 -30v-70q-144 3 -278 49q-141 -43 -277 -49v72q74 3 129.5 47.5t103.5 127.5t92.5 190t139.5 341zM723 1184q-125 -284 -217 -539q74 -2 211 -2t205 2q-16 48 -69 192.5t-130 346.5z" />
    <glyph glyph-name="B" unicode="B" horiz-adv-x="1579" 
d="M629 850q52 -4 67 -4q129 0 198 68t69 196q0 95 -31 159.5t-90 99t-142 34.5q-28 0 -63 -4q-8 -64 -8 -195v-354zM1006 825v-12q234 -18 356.5 -119t122.5 -276q0 -131 -73.5 -226.5t-220 -146.5t-353.5 -51q-242 0 -420 63q-182 -48 -371 -57v70q94 10 137 54t54.5 124
t11.5 241v500q0 163 -11.5 245.5t-54.5 129t-137 59.5v70q189 -9 371 -57q183 63 416 63q131 0 231.5 -21t167 -62t100 -101.5t33.5 -140.5q0 -84 -41 -153.5t-122.5 -119t-196.5 -76.5zM627 756v-391q0 -74 4.5 -125.5t18.5 -84.5t46 -51t86 -18q128 0 200.5 79.5
t72.5 221.5q0 367 -369 367q-15 1 -27.5 1.5t-31.5 0.5z" />
    <glyph glyph-name="C" unicode="C" horiz-adv-x="1673" 
d="M1487 1505l69 -26q-20 -87 -53 -154q23 -153 23 -272v-27h-105q-24 195 -128 295t-279 100q-145 0 -257 -77t-174.5 -226t-62.5 -352q0 -321 141.5 -501.5t382.5 -180.5q173 0 280.5 85.5t137.5 248.5h103q-16 -109 -47 -232q18 -49 24 -96q-104 -52 -246 -83.5
t-297 -31.5q-216 0 -388 52.5t-293.5 153t-183.5 239t-62 307.5q0 172 62 317.5t183.5 252.5t294 164t387.5 57q88 0 160 -10t149 -24t107 -14q29 0 72 35z" />
    <glyph glyph-name="D" unicode="D" horiz-adv-x="1878" 
d="M637 602q0 -220 2 -311t8 -113q15 -49 56.5 -70.5t125.5 -21.5q167 0 289 74t187 217t65 342q0 327 -150.5 505.5t-426.5 178.5q-60 0 -142 -14q-6 -57 -10 -189t-4 -309v-289zM432 57q-175 -45 -385 -57v72q93 10 136.5 53.5t55 123t11.5 240.5v519q0 129 -5 194
t-24 112t-61.5 74.5t-112.5 34.5v70q230 -16 385 -57q94 30 211 46.5t244 16.5q218 0 389 -53.5t289.5 -154.5t178.5 -238t60 -308q0 -173 -62 -313t-182.5 -239t-295 -151t-398.5 -52q-121 0 -227 16t-207 51z" />
    <glyph glyph-name="E" unicode="E" horiz-adv-x="1401" 
d="M47 1493q217 -12 363 -57q129 33 283.5 45t377.5 12q86 0 117 -10.5t31 -44.5q0 -33 -33 -74q22 -110 22 -188q0 -14 -0.5 -22.5t-1.5 -18.5h-82q-5 91 -32.5 137.5t-85 63t-162.5 16.5h-201q-8 -184 -8 -295v-221h170q115 0 163.5 30t55.5 123h88q-6 -115 -39 -217
q36 -123 39 -221h-88q-3 67 -24 98.5t-65 42t-130 10.5h-170v-299q0 -114 16 -165.5t68.5 -69.5t171.5 -18q122 0 194 20.5t110.5 75.5t53.5 160h94q-12 -131 -57 -250q25 -43 25 -70q0 -55 -61 -69.5t-228 -14.5q-110 0 -176.5 1t-147.5 7t-146.5 16t-141.5 31
q-182 -48 -363 -57v70q94 10 137 54t54.5 124t11.5 241v500q0 163 -11.5 245.5t-54.5 129t-137 59.5v70z" />
    <glyph glyph-name="F" unicode="F" horiz-adv-x="1319" 
d="M47 1493q196 -9 363 -57q108 28 254.5 42.5t328.5 14.5h74q99 0 135.5 -10.5t36.5 -48.5q0 -26 -35 -70q25 -110 25 -190q0 -13 -0.5 -21t-1.5 -18h-84q-5 93 -32.5 138.5t-85 62t-161.5 16.5h-221q-8 -184 -8 -295v-246h207q116 0 164 30.5t55 123.5h88
q-6 -117 -39 -217q36 -123 39 -222h-88q-4 97 -49.5 124.5t-169.5 27.5h-207v-143q0 -187 13 -278t64.5 -137t170.5 -50v-70q-94 1 -199.5 15.5t-241.5 41.5q-260 -52 -395 -57v70q94 10 137 54t54.5 124t11.5 241v500q0 163 -11.5 245.5t-54.5 129t-137 59.5v70z" />
    <glyph glyph-name="G" unicode="G" horiz-adv-x="1819" 
d="M1497 1505l70 -26q-22 -89 -54 -154q21 -134 21 -266v-33h-102q-15 124 -65.5 212.5t-137 133.5t-205.5 45q-149 0 -263.5 -80t-177.5 -232t-63 -355q0 -313 148.5 -493.5t390.5 -180.5q80 0 118 16t51 49t13 95v137q0 92 -19 146.5t-67 83.5t-135 38v70
q105 -4 212 -18.5t202 -37.5q172 42 325 56v-70q-56 -21 -88 -54.5t-45.5 -83t-13.5 -118.5v-82q0 -66 13.5 -87t62.5 -21v-74q-147 -69 -322 -107.5t-356 -38.5q-221 0 -397 52.5t-295.5 150.5t-182.5 238.5t-63 310.5q0 175 63.5 322.5t183 251.5t296 160.5t393.5 56.5
q88 0 159.5 -9.5t150.5 -24t107 -14.5q29 0 72 35z" />
    <glyph glyph-name="H" unicode="H" horiz-adv-x="1915" 
d="M47 1493q155 -8 395 -57q243 49 396 57v-70q-70 -7 -111.5 -34t-61 -75t-25 -119t-5.5 -189v-179q42 -1 118.5 -1.5t116 -0.5h86.5h87t117.5 0.5t119.5 1.5v162q0 163 -11.5 245.5t-54.5 129t-137 59.5v70q154 -8 396 -57q240 49 395 57v-70q-72 -7 -113 -34t-61 -77
t-25.5 -124.5t-5.5 -196.5v-471q0 -118 5 -195t24 -130t61 -84t115 -41v-70q-174 9 -395 57q-262 -52 -396 -57v70q94 10 137 54t54.5 124t11.5 241v209q-247 7 -324 7q-74 0 -321 -7v-192q0 -119 5.5 -193t25.5 -125t59.5 -79t112.5 -39v-70q-154 8 -396 57
q-260 -52 -395 -57v70q94 10 137 54t54.5 124t11.5 241v500q0 163 -11.5 245.5t-54.5 129t-137 59.5v70z" />
    <glyph glyph-name="I" unicode="I" horiz-adv-x="924" 
d="M68 1493q150 -8 393 -57q241 49 397 57v-70q-70 -7 -112 -34t-62 -78.5t-25.5 -124.5t-5.5 -195v-471q0 -118 5 -195t25.5 -130.5t61 -84t113.5 -40.5v-70q-161 5 -395 57q-243 -52 -395 -57v70q93 10 136 54t54.5 124t11.5 241v500q0 163 -11.5 245.5t-55 129
t-135.5 59.5v70z" />
    <glyph glyph-name="J" unicode="J" horiz-adv-x="924" 
d="M68 1493q150 -8 393 -57q241 49 397 57v-70q-70 -7 -112 -34t-62 -78.5t-25.5 -124.5t-5.5 -195v-608q0 -163 -14 -266t-61.5 -191t-149.5 -172q-145 -117 -326 -153l-28 59q83 36 126 124t56.5 229.5t13.5 365.5v610q0 163 -11.5 245.5t-55 129t-135.5 59.5v70z" />
    <glyph glyph-name="K" unicode="K" horiz-adv-x="1812" 
d="M47 1493q155 -8 395 -57q243 49 396 57v-70q-70 -7 -111.5 -34t-61 -75t-25 -119t-5.5 -189v-500q0 -119 5.5 -193t25.5 -125t59.5 -79t112.5 -39v-70q-154 8 -396 57q-260 -52 -395 -57v70q94 10 137 54t54.5 124t11.5 241v500q0 163 -11.5 245.5t-54.5 129t-137 59.5
v70zM1526 1464q130 26 229 29v-72q-115 -6 -215 -61.5t-213 -165.5l-289 -281l271 -419q88 -137 176.5 -234t174 -143.5t175.5 -46.5h8v-70q-123 -18 -219 -18q-160 0 -272.5 40t-218.5 150q-55 58 -103.5 120.5t-102 142.5t-123 185.5t-104.5 157.5l588 658q30 33 52.5 47
t58.5 14q47 0 127 -33z" />
    <glyph glyph-name="L" unicode="L" horiz-adv-x="1364" 
d="M47 1493q155 -8 395 -57q243 49 396 57v-70q-70 -7 -111.5 -34t-61 -75t-25 -119t-5.5 -189v-568q0 -97 7 -149.5t28 -82t64.5 -42t127.5 -12.5q127 0 201.5 21.5t117.5 75.5t64 157h92q-14 -120 -71 -252q28 -42 28 -70q0 -38 -32 -56t-99 -23t-184 -5q-176 0 -310 12
t-259 45q-219 -52 -363 -57v70q94 10 137 54t54.5 124t11.5 241v500q0 163 -11.5 245.5t-54.5 129t-137 59.5v70z" />
    <glyph glyph-name="M" unicode="M" horiz-adv-x="2275" 
d="M109 1493q173 -7 292 -45q147 45 207 45q34 0 55.5 -17t38 -51t52.5 -120q79 -190 156 -360.5t140 -296.5t95 -181q66 129 128.5 259.5t118.5 252t93 202.5t76 160q45 92 67 120t66 28q46 0 159 -41q109 29 287 45v-72q-70 -8 -100.5 -31.5t-39.5 -69.5t-9 -140
q0 -74 4 -168l28 -635q7 -124 19.5 -184t48 -90t111.5 -31v-72q-200 13 -338 57q-161 -45 -346 -57v72q87 7 118 68t31 200q0 60 -4 166l-16 323q-9 175 -21 297q-81 -160 -169.5 -350.5t-169 -378.5t-163.5 -397h-133q-314 693 -508 1106q-19 -288 -30 -488.5t-11 -293.5
q0 -86 17.5 -139.5t57 -81t108.5 -31.5v-72q-156 6 -285 47q-121 -37 -274 -47v72q71 14 106.5 43.5t51.5 76.5t28 134q17 134 37 444q10 176 15 275t5 155q0 81 -19 126.5t-62 67.5t-119 27v72z" />
    <glyph glyph-name="N" unicode="N" horiz-adv-x="1819" 
d="M1417 475v541q0 158 -13.5 239.5t-58 122t-139.5 43.5v72q167 -10 295 -47q125 35 291 47v-72q-72 -1 -115 -36t-63 -107t-25.5 -180t-5.5 -293v-488q0 -80 8 -342l-92 23l-141 -10q-121 148 -248.5 302.5t-224.5 269t-229.5 266t-233.5 257.5v-292q0 -121 4.5 -263
t11.5 -217.5t17 -113.5q31 -116 207 -125v-72q-54 3 -109.5 9t-119 18t-95.5 20q-163 -41 -299 -47v72q98 4 144.5 53.5t59.5 150t13 293.5v375q0 189 -11.5 279.5t-57.5 139t-148 58.5v72q123 -3 274 -43q137 45 187 45q29 0 90.5 -65t220 -258.5t278.5 -333t328 -363.5z
" />
    <glyph glyph-name="O" unicode="O" horiz-adv-x="1843" 
d="M1772 748q0 -161 -61 -304.5t-175.5 -248.5t-271.5 -162.5t-342 -57.5q-186 0 -343.5 58t-271 163t-174.5 248t-61 304q0 162 62 304.5t175 246.5t269 161.5t344 57.5q189 0 345.5 -58t269 -161.5t174 -244.5t61.5 -306zM922 1421q-125 0 -214.5 -76.5t-137.5 -229
t-48 -367.5q0 -216 48 -369t138.5 -230t213.5 -77t213.5 77t139 229t48.5 370q0 169 -27.5 293t-78.5 208t-126 128t-169 44z" />
    <glyph glyph-name="P" unicode="P" horiz-adv-x="1460" 
d="M694 664l17 81q44 -4 65 -4q108 0 170 80t62 223q0 181 -70.5 269t-216.5 88q-15 0 -80 -6q-3 -60 -4.5 -145.5t-1.5 -168.5v-569q0 -127 6.5 -205.5t29 -130t68 -76.5t131.5 -30v-70q-203 0 -428 57q-241 -52 -395 -57v70q94 10 137 54t54.5 124t11.5 241v500
q0 163 -11.5 245.5t-54.5 129t-137 59.5v70q186 -9 348 -51q213 57 426 57q600 0 600 -403q0 -134 -70 -237.5t-201 -159.5t-302 -56q-97 0 -154 21z" />
    <glyph glyph-name="Q" unicode="Q" horiz-adv-x="1843" 
d="M1188 29q77 -62 155 -111t152.5 -80.5t145.5 -48t141 -16.5q68 0 139 18l31 -78q-201 -92 -447 -92q-218 0 -404 89.5t-376 281.5q-201 40 -348 147t-226 266t-79 343q0 162 61 304.5t174.5 246.5t269.5 161.5t345 57.5q188 0 344.5 -57.5t269.5 -161t174.5 -246
t61.5 -305.5q0 -133 -39.5 -250.5t-117 -213.5t-185.5 -160.5t-242 -94.5zM922 1421q-125 0 -214.5 -76.5t-137.5 -229t-48 -367.5q0 -216 48 -369t138.5 -230t213.5 -77t213.5 77t139 229t48.5 370q0 169 -27.5 293t-78.5 208t-126 128t-169 44z" />
    <glyph glyph-name="R" unicode="R" horiz-adv-x="1749" 
d="M1167 752q78 -175 149 -300t145.5 -211t151 -127.5t161.5 -41.5h10v-72q-111 -18 -221 -18q-98 0 -171.5 11.5t-132.5 39.5t-106 73q-39 39 -73 87.5t-63.5 107.5t-53.5 115t-56 129q-17 42 -37 63.5t-47 29t-98 10t-96 3.5v-155q0 -163 10.5 -244t53.5 -124.5t138 -55.5
v-72q-171 3 -391 57q-234 -52 -393 -57v72q93 10 136.5 53.5t55 123t11.5 240.5v508q0 165 -12.5 246t-60 125.5t-150.5 54.5v70q222 -6 370 -51q203 53 447 53q203 0 335.5 -41.5t198.5 -126t66 -213.5q0 -125 -71 -218t-206 -144zM629 745q63 -8 106 -8q144 0 218.5 79
t74.5 231q0 167 -79 257.5t-222 90.5q-47 0 -94 -6q-4 -104 -4 -304v-340z" />
    <glyph glyph-name="S" unicode="S" horiz-adv-x="1350" 
d="M1063 1518l92 -13q-15 -70 -45 -147q20 -117 20 -209q0 -18 -0.5 -29t-1.5 -24h-96q-6 105 -45 178t-107 110t-157 37q-117 0 -182.5 -59.5t-65.5 -153.5q0 -60 26 -103t73.5 -75t101 -56t194.5 -81q132 -54 218 -114t129 -141t43 -189q0 -141 -69.5 -248t-201.5 -165.5
t-305 -58.5q-97 0 -169 15t-131 34t-75 19q-44 0 -61 -51l-86 16q10 73 43 185q-33 138 -33 284v27h100q25 -209 127.5 -320.5t266.5 -111.5q77 0 137.5 29.5t93.5 83.5t33 120q0 79 -40 130t-108 87t-215 97q-142 56 -230.5 116t-134.5 142t-46 196q0 98 36 178.5t104 140
t165.5 92t222.5 32.5q69 0 127.5 -9t112.5 -21.5t67 -12.5q54 0 72 43z" />
    <glyph glyph-name="T" unicode="T" horiz-adv-x="1546" 
d="M82 1530h78q1 -28 42.5 -37.5t133.5 -9.5q41 1 77 1.5t105 0.5h529q64 0 97.5 -0.5t72.5 -1.5q86 0 125.5 9t43.5 38h78q-3 -67 -28 -146q47 -152 59 -290h-86q-19 97 -50.5 152.5t-88 84t-148.5 37.5h-145q-12 -192 -12 -491v-269q0 -108 1 -158.5t5 -113.5t12.5 -103.5
t22.5 -68.5q22 -39 71.5 -60.5t136.5 -33.5v-70q-184 5 -442 57q-128 -27 -238.5 -41.5t-203.5 -15.5v70q91 11 142.5 32.5t72.5 61.5q22 43 28.5 124t6.5 255v438q0 231 -11 387h-147q-132 0 -195.5 -63t-91.5 -211h-86q12 140 60 290q-24 70 -27 146z" />
    <glyph glyph-name="U" unicode="U" horiz-adv-x="1835" 
d="M61 1493q136 -5 375 -57q221 52 375 57v-72q-87 -7 -128 -50t-51.5 -121.5t-10.5 -237.5v-107q0 -201 13 -339.5t42 -213.5q43 -102 130 -156.5t210 -54.5q241 0 342 191q40 74 52.5 190t12.5 314v200q0 154 -12 226t-57.5 110.5t-147.5 48.5v72q130 -6 297 -45
q176 38 283 45v-72q-88 -4 -130.5 -40t-54.5 -103.5t-12 -194.5v-325q0 -137 -9.5 -232t-37 -178.5t-76.5 -148.5q-54 -72 -135.5 -123t-190 -76t-233.5 -25q-317 0 -485 152q-72 64 -111.5 151.5t-54 196t-14.5 262.5v330q0 110 -4 166t-20.5 97.5t-53.5 64t-103 26.5v72z
" />
    <glyph glyph-name="V" unicode="V" horiz-adv-x="1630" 
d="M-6 1493q224 -16 360 -57q176 45 371 57v-72q-65 -9 -91 -31.5t-26 -72.5q0 -66 83 -289t241 -573q146 373 213 570.5t67 272.5q0 59 -30 86.5t-103 36.5v72q129 -6 289 -45q145 36 277 45v-72q-65 -6 -110.5 -37t-80 -85.5t-76.5 -149.5q-51 -119 -81.5 -190.5
t-91.5 -222.5t-128.5 -325.5t-154.5 -410.5l-80 18l-113 -18q-116 276 -246.5 587.5t-211.5 485t-145.5 261t-121.5 87.5h-10v72z" />
    <glyph glyph-name="W" unicode="W" horiz-adv-x="2384" 
d="M25 1493q183 -12 333 -51q143 38 340 51v-72q-125 -9 -125 -123q0 -42 25.5 -143t72.5 -251t130 -390q40 99 80.5 206.5t97 260t99 268t89.5 244.5l86 -16l90 16q183 -492 396 -981q111 309 168 501t57 271q0 64 -35.5 96t-116.5 41v72q181 -14 289 -45q130 35 275 45
v-72q-65 -9 -106 -39.5t-69 -80.5t-63 -138q-27 -70 -69.5 -184t-79 -218t-103.5 -307t-145 -454l-94 18l-93 -18q-94 269 -187.5 515.5t-205.5 518.5q-196 -516 -381 -1034l-88 18l-100 -18q-227 746 -369 1145q-37 106 -60 158.5t-56 83t-82 34.5v72z" />
    <glyph glyph-name="X" unicode="X" horiz-adv-x="1636" 
d="M49 1493q164 -6 359 -57q165 45 352 57v-72q-54 -6 -75 -20t-21 -47q0 -26 38.5 -100t106.5 -175l82 -121l110 154q119 162 119 234q0 66 -100 75v72q149 -9 266 -45q129 36 281 45v-72q-75 -7 -142 -55.5t-126.5 -121t-178.5 -232.5l-133 -181l168 -256
q119 -177 163.5 -240.5t103 -128t114.5 -97.5t121 -37v-72q-255 13 -426 57q-184 -48 -369 -57v72q63 5 88 23t25 61q0 27 -23.5 80.5t-70.5 125.5l-138 213l-129 -186q-120 -171 -120 -242q0 -66 94 -75v-72q-128 6 -289 45q-168 -38 -276 -45v72q71 11 134 45.5t126.5 99
t126.5 154.5l243 338l-149 223q-156 232 -209.5 307t-115.5 128.5t-128 53.5h-2v72z" />
    <glyph glyph-name="Y" unicode="Y" horiz-adv-x="1526" 
d="M-25 1493q184 -9 363 -51q71 20 155.5 32t188.5 19v-72q-55 -8 -78.5 -23t-23.5 -48q0 -86 303 -557q87 148 145 253t86.5 174t28.5 111q0 84 -129 90v72q151 -6 299 -45q128 35 268 45v-72q-69 -7 -120 -44t-95 -94t-127 -181q-171 -265 -213 -361q-37 -87 -37 -215v-20
q0 -165 14 -250.5t62.5 -131t148.5 -54.5v-70q-167 5 -413 57q-245 -52 -416 -57v70q88 5 136.5 38t68.5 101.5t20 183.5v72q0 66 -5 106.5t-25 79.5q-22 49 -84.5 146.5t-161.5 240.5q-109 159 -159.5 227t-100.5 111.5t-99 44.5v72z" />
    <glyph glyph-name="Z" unicode="Z" horiz-adv-x="1561" 
d="M1430 1501v-94q-105 -127 -244 -314t-309 -437.5t-347 -528.5h256q186 0 280 6.5t166.5 33.5t118 90.5t66.5 174.5h101q-20 -147 -82 -268q34 -57 34 -94q0 -41 -33 -57.5t-110 -16.5q-12 0 -62 1t-137.5 2.5t-192 3t-308.5 1.5h-209q-228 0 -352 -4v98
q167 227 288.5 396.5t226.5 320.5t193.5 282.5t181.5 278.5h-180q-205 0 -299.5 -12.5t-152.5 -65t-78 -168.5h-86q17 134 55 234q-18 40 -18 72q0 63 88 63q21 0 190 -3t260 -3h230q335 0 465 8z" />
    <glyph glyph-name="bracketleft" unicode="[" horiz-adv-x="854" 
d="M184 1493h600v-78l-264 -14q-16 -475 -16 -871q0 -195 3.5 -400.5t12.5 -469.5l264 -16v-78h-600q9 586 9 964q0 453 -9 963z" />
    <glyph glyph-name="backslash" unicode="\" horiz-adv-x="569" 
d="M127 1518l547 -1708h-176l-547 1708h176z" />
    <glyph glyph-name="bracketright" unicode="]" horiz-adv-x="854" 
d="M68 1493h602q-4 -221 -5 -326.5t-2 -267t-1 -369.5q0 -473 8 -964h-602v78l266 16q6 185 9.5 341.5t5 269.5t1.5 259q0 386 -16 871l-266 14v78z" />
    <glyph glyph-name="asciicircum" unicode="^" horiz-adv-x="2048" 
d="M893 1462h260l479 -565h-121l-489 348l-490 -348h-120z" />
    <glyph glyph-name="underscore" unicode="_" horiz-adv-x="1024" 
d="M0 -244h1024v-239h-1024v239z" />
    <glyph glyph-name="grave" unicode="`" horiz-adv-x="1024" 
d="M446 1440l279 -295h-115l-325 162q-54 26 -79.5 54.5t-25.5 65.5q0 46 32.5 77.5t78.5 31.5q38 0 74 -23t81 -73z" />
    <glyph glyph-name="a" unicode="a" horiz-adv-x="1270" 
d="M1079 598v-203q0 -87 5.5 -134.5t24 -71t56.5 -23.5q23 0 64 16l28 -55q-56 -66 -131 -102.5t-143 -36.5q-181 0 -215 172q-53 -81 -154 -128.5t-227 -47.5q-146 0 -228.5 66.5t-82.5 180.5q0 68 28.5 118.5t84 85t141.5 60t194 44.5q94 17 134.5 30t57.5 40t17 83
q0 90 -10 142.5t-39.5 79t-87.5 26.5q-63 0 -103 -39t-40 -102q0 -54 26 -117q-70 -37 -164 -37q-62 0 -99.5 35t-37.5 94q0 70 56 128.5t162.5 93t246.5 34.5q160 0 255.5 -45.5t138 -140t42.5 -246.5zM729 500q-118 -35 -170 -56t-83.5 -58.5t-31.5 -104.5q0 -40 16.5 -71
t46 -48t68.5 -17q154 0 154 199v156z" />
    <glyph glyph-name="b" unicode="b" horiz-adv-x="1380" 
d="M463 1571l63 -37q-20 -151 -20 -420v-207q54 60 137.5 92.5t190.5 32.5q139 0 248 -62.5t170 -175.5t61 -255q0 -164 -79.5 -293.5t-220.5 -201t-315 -71.5q-269 0 -391 107q-67 -55 -129 -105l-55 31q29 113 29 350v734q0 135 -6.5 194.5t-35.5 90t-94 30.5h-14v72
q129 12 211 12q62 0 127 -6q50 48 123 88zM506 397q0 -116 14.5 -187t53 -105.5t110.5 -34.5q116 0 179 94t63 272q0 217 -64 330t-180 113q-102 0 -176 -93v-389z" />
    <glyph glyph-name="c" unicode="c" horiz-adv-x="1096" 
d="M1069 135q-75 -74 -197 -116t-270 -42q-167 0 -288.5 60t-187 173t-65.5 261q0 124 45.5 227.5t128.5 178.5t198.5 116t252.5 41q109 0 188.5 -30.5t121.5 -81.5t42 -111q0 -128 -207 -137q-18 126 -71.5 192t-134.5 66q-94 0 -149.5 -76.5t-55.5 -214.5
q0 -149 47.5 -266t133.5 -181.5t196 -64.5q123 0 233 76z" />
    <glyph glyph-name="d" unicode="d" horiz-adv-x="1421" 
d="M1178 1571l63 -37q-18 -136 -18 -420v-659q0 -159 29.5 -230t107.5 -71q5 0 47 4l12 -78q-137 -29 -274 -29q-47 0 -70 2q-59 -27 -108 -67l-62 34q-17 60 -20 140q-47 -83 -141.5 -129.5t-223.5 -46.5q-135 0 -239.5 61t-161 172t-56.5 256q0 158 76 284t216 195.5
t321 69.5q103 0 190 -27v195q0 84 -12.5 129.5t-45.5 65.5t-97 20h-31v72q114 12 215 12q75 0 162 -6q53 50 121 88zM866 827q-24 47 -68 74t-98 27q-80 0 -138.5 -40.5t-89 -120t-30.5 -187.5q0 -127 35 -221.5t97 -145.5t135 -51q63 0 107 36t54 97q-4 94 -4 252v280z" />
    <glyph glyph-name="e" unicode="e" horiz-adv-x="1165" 
d="M713 678q35 0 48 7.5t13 35.5q0 88 -53.5 152.5t-130.5 64.5q-75 0 -121.5 -60.5t-46.5 -160.5q1 -12 1.5 -21.5t0.5 -17.5h289zM1096 588h-561q-42 0 -64.5 -6.5t-30.5 -22t-8 -45.5q0 -104 46.5 -191t130.5 -138.5t192 -51.5q77 0 155 28.5t140 82.5l34 -66
q-78 -94 -213.5 -148.5t-306.5 -54.5q-123 0 -223.5 36t-173 104t-111.5 162.5t-39 207.5q0 156 74 282t204.5 196.5t291.5 70.5q134 0 240.5 -52t166.5 -140t60 -193q0 -21 -4 -61z" />
    <glyph glyph-name="f" unicode="f" horiz-adv-x="840" 
d="M57 0v72q72 4 104.5 36.5t40 93.5t7.5 201v428h-135v87h8q50 0 74 9t34 29t13 42.5t10 99.5q16 144 83 246t177 156t250 54q109 0 176.5 -48t67.5 -120q0 -56 -44.5 -89t-129.5 -37q-13 85 -52 132.5t-92 47.5q-50 0 -81 -40t-31 -112q0 -27 7.5 -89t12.5 -131.5
t6 -117.5l275 4v-129l-275 6v-440q0 -137 9.5 -195.5t48.5 -89t129 -34.5v-72q-153 5 -363 51q-187 -46 -330 -51z" />
    <glyph glyph-name="g" unicode="g" horiz-adv-x="1233" 
d="M1237 999l-27 -125q-8 -35 -39 -48t-94 -13h-41q49 -82 49 -172q0 -167 -120 -273t-332 -122q-19 -1 -54.5 -2t-63 -7.5t-43 -21t-15.5 -43.5q0 -36 29.5 -54t77 -26t157.5 -20q126 -12 216 -33.5t152.5 -58t92.5 -90.5t30 -134q0 -82 -45.5 -155t-128.5 -125.5
t-200.5 -81.5t-253.5 -29q-173 0 -292.5 34.5t-182 98.5t-62.5 148q0 74 40 125t122 82t199 38v21q-112 10 -173 55.5t-61 116.5q0 67 63 116t177 62v10q-73 16 -131 47t-100 77t-63.5 105t-21.5 122q0 116 57 205t165.5 138.5t254.5 49.5q85 0 143.5 -11t128 -29t97.5 -18
q79 0 293 41zM600 924q-83 0 -123.5 -65t-40.5 -200q0 -101 20 -173.5t58.5 -109t93.5 -36.5q76 0 117 65.5t41 194.5q0 324 -166 324zM909 -342q0 84 -78.5 130t-222.5 46q-136 0 -211 -50t-75 -134q0 -83 73 -135t201 -52q97 0 167.5 25t108 69t37.5 101z" />
    <glyph glyph-name="h" unicode="h" horiz-adv-x="1456" 
d="M514 1571l66 -37q-21 -149 -21 -420v-256q43 79 129 122.5t205 43.5q208 0 300.5 -120t92.5 -372v-161q0 -117 8 -175.5t40 -88t102 -35.5v-72q-138 0 -312 47q-118 -39 -219 -47q19 152 19 489q0 139 -13 221t-51 122t-115 40q-95 0 -140.5 -79.5t-45.5 -241.5v-164
q0 -101 4 -151.5t18 -85.5t45 -54.5t85 -23.5v-72q-169 6 -332 51q-184 -46 -326 -51v72q72 4 104.5 36.5t40 93.5t7.5 201v723q0 123 -7 175.5t-35.5 78t-92.5 25.5h-17v72q117 12 201 12q65 0 139 -6q53 50 121 88z" />
    <glyph glyph-name="i" unicode="i" horiz-adv-x="782" 
d="M539 1034l63 -39q-10 -59 -14 -142t-4 -167v-321q0 -83 4.5 -134.5t20 -85t49 -50.5t94.5 -23v-72q-173 3 -349 51q-183 -48 -346 -51v72q82 4 117 34t44 89t9 194v211q0 116 -7 165t-34.5 73t-91.5 24h-12v70q145 22 242 22q43 0 90 -2q56 45 125 82zM410 1438
q51 0 83.5 -34t32.5 -83q0 -48 -32.5 -82.5t-83.5 -34.5q-49 0 -83 34t-34 83q0 50 33.5 83.5t83.5 33.5z" />
    <glyph glyph-name="j" unicode="j" horiz-adv-x="754" 
d="M506 1034l65 -39q-20 -122 -20 -309v-670q0 -195 -37.5 -314t-139.5 -198t-304 -135l-29 53q71 46 104 120t41.5 174.5t8.5 269.5v614q0 108 -7 161.5t-35 77t-92 23.5h-12v70q157 24 248 24q43 0 88 -2q58 46 121 80zM373 1438q51 0 83.5 -34t32.5 -83
q0 -48 -32.5 -82.5t-83.5 -34.5q-49 0 -83 34t-34 83q0 50 33.5 83.5t83.5 33.5z" />
    <glyph glyph-name="k" unicode="k" horiz-adv-x="1391" 
d="M514 1571l66 -37q-21 -149 -21 -420v-727q0 -101 4 -151.5t18 -85.5t45 -54.5t85 -23.5v-72q-169 6 -332 51q-184 -46 -326 -51v72q72 4 104.5 36.5t40 93.5t7.5 201v705q0 129 -6.5 185t-35.5 84t-95 28h-15v72q117 12 201 12q65 0 139 -6q53 50 121 88zM1343 991v-71
q-236 -26 -436 -172q104 -218 199 -371.5t175 -228.5t149 -76v-72q-140 -18 -205 -18q-119 0 -202.5 38.5t-152.5 126.5q-18 23 -60.5 94t-96.5 163.5t-129 209.5l315 306q39 38 62 53.5t47 15.5q43 0 96 -35q124 28 239 37z" />
    <glyph glyph-name="l" unicode="l" horiz-adv-x="758" 
d="M514 1571l66 -37q-21 -149 -21 -420v-725q0 -133 9 -191.5t44.5 -89t116.5 -36.5v-72q-156 5 -350 51q-179 -42 -344 -51v72q61 3 96.5 20.5t50.5 53.5t19 86.5t4 156.5v748q0 119 -7 169.5t-36.5 74.5t-95.5 24h-31v72q126 12 215 12q60 0 143 -6q53 50 121 88z" />
    <glyph glyph-name="m" unicode="m" horiz-adv-x="2105" 
d="M487 1034l54 -35q-13 -74 -17 -149l19 -8q47 90 132.5 139t194.5 49q122 0 204 -48.5t136 -154.5q50 97 139.5 150t200.5 53q206 0 296.5 -118t90.5 -369v-172q0 -117 8.5 -175.5t39.5 -88t102 -35.5v-72q-135 3 -311 47q-122 -36 -215 -47q20 185 20 498
q0 137 -12.5 218.5t-48.5 122t-105 40.5q-63 0 -101.5 -36.5t-56.5 -112t-18 -187.5v-158q0 -101 4 -151t18.5 -85.5t45.5 -54t84 -22.5v-72q-128 3 -295 47q-103 -34 -215 -47q20 185 20 498q0 133 -12 215.5t-45.5 124t-98.5 41.5q-97 0 -141.5 -78t-44.5 -240v-158
q0 -108 4 -161t17.5 -91t43.5 -56t87 -23v-72q-144 5 -328 51q-184 -46 -326 -51v72q72 4 104.5 36.5t40 93.5t7.5 201v181q0 123 -7.5 175.5t-35.5 77.5t-92 25h-17v72q124 22 275 22h39q72 56 116 78z" />
    <glyph glyph-name="n" unicode="n" horiz-adv-x="1460" 
d="M487 1034l54 -35q-13 -74 -17 -149l23 -8q33 62 83.5 104.5t121 65t149.5 22.5q207 0 298 -119.5t91 -371.5v-158q0 -101 4 -151t18.5 -85.5t45.5 -54t84 -22.5v-72q-142 0 -316 47q-120 -38 -217 -47q10 78 15.5 200t5.5 289q0 149 -12.5 230.5t-51 122.5t-114.5 41
q-189 0 -189 -322v-174q0 -101 4 -151.5t18 -85.5t45 -54.5t85 -23.5v-72q-164 6 -328 51q-187 -46 -330 -51v72q72 4 104.5 36.5t40 93.5t7.5 201v181q0 123 -7.5 175.5t-35.5 77.5t-92 25h-17v72q151 24 262 24q17 0 28 -0.5t24 -1.5q72 56 116 78z" />
    <glyph glyph-name="o" unicode="o" horiz-adv-x="1358" 
d="M678 940q-110 0 -165.5 -109t-55.5 -325t56 -326t165 -110t166 109.5t57 326.5t-57 325.5t-166 108.5zM1292 504q0 -151 -74 -271.5t-213.5 -189t-326.5 -68.5q-186 0 -326 68.5t-214.5 189t-74.5 271.5q0 111 42.5 210t123 170.5t194 110.5t255.5 39q141 0 255.5 -39.5
t194 -110.5t122 -168.5t42.5 -211.5z" />
    <glyph glyph-name="p" unicode="p" horiz-adv-x="1417" 
d="M469 1030l53 -35q-15 -95 -18 -149l24 -6q36 60 88 102.5t114.5 64t139.5 21.5q105 0 190.5 -35t147.5 -100t96.5 -157.5t34.5 -203.5q0 -159 -76 -283t-215.5 -193.5t-318.5 -69.5q-99 0 -184 26v-198q0 -108 5 -161t25 -91.5t63 -58t122 -25.5v-70q-170 5 -393 51
q-188 -46 -328 -51v70q72 4 104 38t39.5 95.5t7.5 198.5v772q0 123 -7.5 175.5t-35.5 77.5t-92 25h-16v70q138 22 274 22h33q71 53 123 78zM545 160q73 -84 172 -84q80 0 135.5 42.5t84 129t28.5 211.5q0 129 -29 218.5t-82.5 136t-122.5 46.5q-102 0 -144 -77t-42 -242
v-381z" />
    <glyph glyph-name="q" unicode="q" horiz-adv-x="1380" 
d="M1149 1038l100 -16q-24 -150 -24 -379v-844q0 -98 4.5 -148.5t21.5 -85.5t55 -56.5t105 -30.5v-70q-146 8 -364 51q-191 -48 -349 -51v70q80 1 116 31t45 90t9 196v307q-54 -61 -137.5 -93t-191.5 -32q-139 0 -244.5 60t-163 169.5t-57.5 252.5q0 129 44 233.5t127 178.5
t204.5 114.5t271.5 40.5q193 0 348 -70q40 51 80 82zM870 532q1 53 1.5 95t0.5 96q0 130 -27 172.5t-126 42.5q-127 0 -201 -97.5t-74 -277.5q0 -196 78 -311t205 -115q97 0 143 78v317z" />
    <glyph glyph-name="r" unicode="r" horiz-adv-x="1006" 
d="M473 1032l53 -35q-19 -113 -22 -229l26 -6q39 131 110.5 198.5t168.5 67.5q51 0 92 -19t63.5 -52t22.5 -74q0 -49 -33 -98t-96 -89q-56 97 -151 97q-78 0 -111 -63t-33 -204v-104q0 -147 10 -210.5t54.5 -98t146.5 -41.5v-72q-192 6 -387 51q-179 -42 -330 -51v72
q72 4 104.5 36.5t40 93.5t7.5 201v181q0 123 -7.5 175.5t-35.5 77.5t-92 25h-17v70q95 18 293 22q81 55 123 78z" />
    <glyph glyph-name="s" unicode="s" horiz-adv-x="1110" 
d="M944 829q18 -67 21 -139h-88q-20 80 -57 134.5t-91.5 82t-120.5 27.5q-71 0 -112 -32t-41 -83q0 -43 24 -70.5t72 -50t127 -51.5q126 -49 198.5 -90.5t111 -100t38.5 -143.5q0 -156 -134.5 -243.5t-383.5 -87.5q-184 0 -287.5 36.5t-103.5 94.5q0 26 30 71
q-22 104 -22 185h98q8 -95 45 -161.5t99 -101t141 -34.5q84 0 132 37t48 98q0 41 -19.5 68t-52.5 45t-89.5 39t-118.5 44q-148 59 -214.5 132t-66.5 182q0 98 54.5 168t162 106.5t258.5 36.5q108 0 192.5 -17t131.5 -46.5t47 -63.5q0 -31 -29 -72z" />
    <glyph glyph-name="t" unicode="t" horiz-adv-x="891" 
d="M387 1243h162v-293l239 4v-129l-239 6v-444q0 -130 38.5 -192t125.5 -62q78 0 153 66l43 -72q-148 -145 -360 -145q-117 0 -189 32t-109.5 94.5t-50 153.5t-12.5 219v350h-118v87q144 16 222 96t95 229z" />
    <glyph glyph-name="u" unicode="u" horiz-adv-x="1450" 
d="M1202 1038l66 -37q-23 -150 -23 -311v-235q0 -102 13 -169.5t43.5 -99.5t82.5 -32q4 0 46 4l12 -78q-121 -33 -305 -33h-37q-62 -32 -105 -65l-67 38q-19 61 -19 158q-29 -63 -83.5 -108t-131.5 -69t-174 -24q-106 0 -173 30t-106.5 90t-56 151.5t-16.5 214.5v131
q0 113 -7 161t-32.5 71.5t-87.5 25.5v70q150 24 311 24q57 47 127 84l66 -39q-17 -116 -17 -389v-110q0 -132 14 -209t50.5 -116.5t103.5 -39.5q94 0 145.5 77.5t51.5 227.5v154q0 120 -7 171t-32.5 76t-87.5 27v72q129 22 274 22h35q57 47 127 84z" />
    <glyph glyph-name="v" unicode="v" horiz-adv-x="1305" 
d="M-18 991q164 0 331 -51q173 48 326 51v-69q-46 -8 -66 -27.5t-20 -56.5q0 -41 44 -154t175 -422q91 222 133.5 347.5t42.5 181.5q0 63 -29.5 93t-97.5 38v69q136 -3 260 -43q107 33 242 43v-67q-76 -3 -151 -103t-162.5 -291.5t-225.5 -529.5l-108 27l-154 -35
q-135 330 -229 531t-167.5 301t-135.5 100h-8v67z" />
    <glyph glyph-name="w" unicode="w" horiz-adv-x="1862" 
d="M-25 991q182 -6 324 -51q141 42 291 51v-67q-32 -9 -46 -26t-14 -48q0 -46 45 -186.5t140 -374.5q111 294 155 418q-48 121 -77.5 167t-83.5 50v67q143 -6 295 -51q124 42 264 51v-67q-35 -7 -51.5 -23.5t-16.5 -48.5q0 -34 19.5 -104t52.5 -164t104 -289
q85 212 122.5 325t37.5 177q0 121 -113 127v67q120 -6 242 -43q96 33 223 43v-67q-65 -10 -121.5 -71t-115 -178.5t-93.5 -209t-176 -465.5l-88 18l-153 -24q-89 271 -213 575q-123 -311 -209 -569l-88 18l-152 -24q-102 258 -169 428.5t-119.5 280.5t-103 165.5
t-110.5 55.5h-2v67z" />
    <glyph glyph-name="x" unicode="x" horiz-adv-x="1223" 
d="M29 991q168 -6 307 -53q174 48 305 53v-67q-63 -9 -63 -52q0 -34 47 -100l86 -121l55 80q63 91 63 146q0 41 -71 47v67q116 -6 225 -39q112 36 211 39v-67q-55 -6 -100 -27t-87 -58.5t-81 -85t-88 -114.5l-64 -82l225 -307q34 -47 66 -83t73 -60.5t99 -34.5v-72
q-166 6 -334 49q-194 -49 -299 -49v72q72 3 72 43q0 29 -39 84l-111 159l-82 -112q-36 -52 -36 -103q0 -35 21.5 -51t70.5 -20v-72q-112 3 -246 41q-129 -35 -244 -41v72q107 13 179 67t163 168l113 144l-236 319q-53 74 -99 111t-101 43v67z" />
    <glyph glyph-name="y" unicode="y" horiz-adv-x="1210" 
d="M-35 991q171 -6 314 -53q138 44 317 53v-67q-82 -6 -82 -78q0 -37 29.5 -124t89.5 -206l92 -184l88 211q61 144 61 235q0 137 -124 146v67q130 -3 276 -41q119 35 225 41v-67q-74 -1 -137 -75.5t-128.5 -209.5t-180.5 -403q-124 -286 -180 -409t-124 -230t-142 -160
t-171 -53q-67 0 -108 34t-41 86q0 71 45 119q58 -39 119 -39q74 0 132 38t110 117.5t104 197.5q-11 30 -35 85t-43 92.5t-36.5 72.5l-28.5 57l-156 311q-71 140 -111 210.5t-82 112.5t-92 46v67z" />
    <glyph glyph-name="z" unicode="z" horiz-adv-x="1165" 
d="M1071 991v-96q-137 -173 -230 -296.5t-185 -255t-169 -253.5h148q129 0 214.5 23.5t137 76t72.5 140.5h90q-15 -105 -68 -207q25 -45 25 -68q0 -34 -26 -44.5t-85 -10.5q-50 0 -123 1.5t-148 2.5t-134 1.5t-184 0.5q-165 0 -330 -6v104q158 201 248 318t177 240.5
t158 240.5h-47q-136 0 -218.5 -16t-128.5 -59.5t-64 -129.5h-88q16 98 57 176q-18 31 -18 50q0 40 19.5 50.5t72.5 10.5h51q30 0 75.5 -0.5t100.5 -1t184 -0.5q252 0 416 8z" />
    <glyph glyph-name="braceleft" unicode="{" horiz-adv-x="1024" 
d="M852 1516v-66q-61 -1 -99 -16t-58.5 -45t-28 -78.5t-7.5 -122.5v-131q0 -138 -16 -217.5t-65 -129.5t-154 -75q104 -25 153.5 -74t65.5 -129.5t16 -216.5v-131q0 -100 14.5 -154.5t56.5 -81.5t122 -28v-64h-12q-118 0 -193.5 17.5t-121 57t-65.5 105.5t-20 166v187
q0 112 -21.5 173t-78.5 92.5t-162 41.5v80q108 11 163.5 41.5t77 92t21.5 173.5v186q0 101 20 167t65.5 105.5t121 57t193.5 17.5h12z" />
    <glyph glyph-name="bar" unicode="|" horiz-adv-x="1024" 
d="M393 1565h240v-2048h-240v2048z" />
    <glyph glyph-name="braceright" unicode="}" horiz-adv-x="1024" 
d="M172 1516h12q119 0 194.5 -17.5t121.5 -57.5t65 -105.5t19 -166.5v-186q0 -112 21.5 -173.5t77 -92t163.5 -41.5v-80q-105 -10 -162 -41.5t-78.5 -92.5t-21.5 -173v-187q0 -100 -19 -165.5t-65 -105.5t-121.5 -57.5t-194.5 -17.5h-12v64q118 3 155.5 59t37.5 205v131
q0 99 8.5 170t32 119.5t71 80.5t123.5 50q-80 21 -125 53t-69 80.5t-32.5 119.5t-8.5 169v131q0 74 -7.5 122.5t-28 78.5t-57.5 44.5t-100 16.5v66z" />
    <glyph glyph-name="asciitilde" unicode="~" horiz-adv-x="1706" 
d="M1530 819v-254q-199 -137 -377 -137q-94 0 -172 29q-140 50 -234.5 76t-185.5 26q-162 0 -383 -158v254q221 144 387 144q78 0 148 -16t147 -42q33 -11 92.5 -31.5t110.5 -31t96 -10.5q57 0 116 16.5t124.5 51.5t130.5 83z" />
    <glyph glyph-name="Zcaron" horiz-adv-x="1561" 
d="M1430 1501v-94q-105 -127 -244 -314t-309 -437.5t-347 -528.5h256q186 0 280 6.5t166.5 33.5t118 90.5t66.5 174.5h101q-20 -147 -82 -268q34 -57 34 -94q0 -41 -33 -57.5t-110 -16.5q-12 0 -62 1t-137.5 2.5t-192 3t-308.5 1.5h-209q-228 0 -352 -4v98
q167 227 288.5 396.5t226.5 320.5t193.5 282.5t181.5 278.5h-180q-205 0 -299.5 -12.5t-152.5 -65t-78 -168.5h-86q17 134 55 234q-18 40 -18 72q0 63 88 63q21 0 190 -3t260 -3h230q335 0 465 8zM569 1837h76l166 -111l166 111h74l-172 -240h-138z" />
    <glyph glyph-name="ogonek" horiz-adv-x="1024" 
d="M594 31h57q-52 -43 -90.5 -87.5t-57 -86.5t-18.5 -90q0 -49 23 -77t63 -28q35 0 59.5 16.5t51.5 53.5l35 -21q-82 -178 -238 -178q-79 0 -125.5 42t-46.5 110q0 59 31.5 116.5t96 115t159.5 114.5z" />
    <glyph glyph-name="caron" horiz-adv-x="1024" 
d="M344 1505h76l166 -110l166 110h73l-172 -239h-137z" />
    <glyph glyph-name="quotesinglbase" unicode="&#x201a;" horiz-adv-x="717" 
d="M276 -348l-69 45q151 157 151 299q0 32 -10 58t-28 39t-44 13q-21 0 -55 -16q-24 34 -24 78q0 68 51.5 109.5t132.5 41.5q80 0 129 -51.5t49 -136.5q0 -55 -19 -117t-54.5 -123t-87 -120.5t-122.5 -118.5z" />
    <glyph glyph-name="florin" unicode="&#x192;" horiz-adv-x="1346" 
d="M471 721h-192v137h213q27 199 107 341.5t200 217t258 74.5q87 0 135.5 -39t48.5 -100q0 -121 -180 -138v41q0 64 -20.5 99t-57.5 35q-50 0 -77.5 -56t-41.5 -154.5t-33 -320.5h218v-137h-224q-16 -179 -37 -323t-51 -271.5t-74 -234.5t-98 -185q-49 -71 -106 -126
t-124 -96t-131 -61t-122 -20q-70 0 -112 35.5t-42 89.5q0 58 47 102t127 54v-15q0 -68 26 -107.5t69 -39.5q59 0 95.5 71.5t61 207.5t50.5 353t67 566z" />
    <glyph glyph-name="quotedblbase" unicode="&#x201e;" horiz-adv-x="1208" 
d="M276 -348l-69 45q151 157 151 299q0 32 -10 58t-28 39t-44 13q-21 0 -55 -16q-24 34 -24 78q0 68 51.5 109.5t132.5 41.5q80 0 129 -51.5t49 -136.5q0 -55 -19 -117t-54.5 -123t-87 -120.5t-122.5 -118.5zM768 -348l-68 45q152 157 152 299q0 53 -22 81.5t-60 28.5
q-23 0 -55 -16q-25 34 -25 78q0 68 51 109.5t131 41.5q53 0 93.5 -23.5t63 -66.5t22.5 -98q0 -112 -72 -238t-211 -241z" />
    <glyph glyph-name="ellipsis" unicode="&#x2026;" horiz-adv-x="2048" 
d="M342 322q71 0 120.5 -50.5t49.5 -121.5q0 -48 -22.5 -87t-62.5 -63.5t-85 -24.5q-71 0 -122.5 52.5t-51.5 122.5q0 72 51 122t123 50zM1024 322q71 0 120.5 -50.5t49.5 -121.5q0 -48 -22.5 -87t-62.5 -63.5t-85 -24.5q-71 0 -122.5 52.5t-51.5 122.5q0 72 51 122t123 50z
M1708 322q71 0 120.5 -50.5t49.5 -121.5q0 -48 -22.5 -87t-62.5 -63.5t-85 -24.5q-71 0 -122.5 52.5t-51.5 122.5q0 72 51 122t123 50z" />
    <glyph glyph-name="dagger" unicode="&#x2020;" horiz-adv-x="1024" 
d="M557 1059q87 18 179.5 57t115.5 39q109 0 109 -131q0 -67 -27 -102t-78 -35q-24 0 -120 41t-179 57v-29q0 -60 26 -146.5t81 -178.5q-48 -189 -74.5 -405t-32.5 -449h-90v55q0 125 -11.5 251t-35 261t-60.5 287q107 180 107 346v8q-82 -18 -177.5 -58t-121.5 -40
q-49 0 -77 35t-28 98q0 135 111 135q23 0 115.5 -39.5t177.5 -56.5v18q0 64 -14.5 108t-45 117t-30.5 103q0 52 35 82.5t98 30.5q137 0 137 -117q0 -28 -29.5 -97t-45 -116t-15.5 -111v-18z" />
    <glyph glyph-name="daggerdbl" unicode="&#x2021;" horiz-adv-x="1024" 
d="M557 1065q51 10 97.5 25t84 31t67.5 27t46 11q109 0 109 -129q0 -66 -27.5 -100.5t-77.5 -34.5q-25 0 -119.5 40t-179.5 56v-28q0 -61 26 -146.5t81 -177.5q-107 -180 -107 -342v-8q63 16 96 27.5t82 31t75 28.5t40 9q111 0 111 -131q0 -65 -28 -100t-79 -35
q-24 0 -116.5 40t-180.5 56v-18q0 -64 15 -108t45 -113.5t30 -98.5q0 -56 -34 -85.5t-99 -29.5q-67 0 -102 29t-35 82q0 31 30.5 103.5t45 115t14.5 105.5v18q-84 -15 -178.5 -55.5t-120.5 -40.5q-51 0 -79 35t-28 100q0 131 111 131q19 0 42.5 -8.5t69 -28.5t85 -33.5
t98.5 -25.5v33q0 54 -26.5 139.5t-80.5 177.5q107 180 107 344v8q-59 -13 -100 -27.5t-77.5 -29.5t-70 -27t-51.5 -12q-50 0 -77.5 33.5t-27.5 97.5q0 133 111 133q17 0 47.5 -11.5t68.5 -27.5t82.5 -30.5t94.5 -24.5v18q0 63 -14.5 106t-45 115t-30.5 103q0 53 34.5 82
t98.5 29q137 0 137 -115q0 -29 -30 -98.5t-45 -113.5t-15 -108v-18z" />
    <glyph glyph-name="circumflex" unicode="&#x2c6;" horiz-adv-x="1024" 
d="M420 1516h184l230 -371h-101l-221 170l-221 -170h-101z" />
    <glyph glyph-name="perthousand" unicode="&#x2030;" horiz-adv-x="2859" 
d="M455 1495q112 0 206.5 -57t148.5 -157t54 -222q0 -93 -30.5 -173t-86 -139t-131.5 -92.5t-161 -33.5q-111 0 -205.5 57t-148.5 157.5t-54 223.5t54 223t147 156.5t207 56.5zM1350 1493h186l-944 -1518h-186zM455 1423q-74 0 -109 -90t-35 -274q0 -365 144 -365
q145 0 145 365q0 364 -145 364zM1485 850q112 0 206.5 -57t148.5 -157t54 -222q0 -93 -30.5 -173.5t-86 -139.5t-131.5 -92.5t-161 -33.5q-111 0 -205 57t-148.5 158t-54.5 224t54 223t147 156.5t207 56.5zM2410 850q111 0 206.5 -57t149.5 -157t54 -222q0 -123 -54.5 -224
t-149.5 -158t-206 -57q-112 0 -206 57t-148.5 158t-54.5 224t54.5 223t147.5 156.5t207 56.5zM1485 778q-51 0 -82.5 -40t-46.5 -121.5t-15 -202.5q0 -367 144 -367q145 0 145 367q0 364 -145 364zM2410 778q-145 0 -145 -364q0 -367 145 -367q50 0 82 40.5t47 122.5t15 204
q0 364 -144 364z" />
    <glyph glyph-name="Scaron" unicode="&#x160;" horiz-adv-x="1350" 
d="M1063 1518l92 -13q-15 -70 -45 -147q20 -117 20 -209q0 -18 -0.5 -29t-1.5 -24h-96q-6 105 -45 178t-107 110t-157 37q-117 0 -182.5 -59.5t-65.5 -153.5q0 -60 26 -103t73.5 -75t101 -56t194.5 -81q132 -54 218 -114t129 -141t43 -189q0 -141 -69.5 -248t-201.5 -165.5
t-305 -58.5q-97 0 -169 15t-131 34t-75 19q-44 0 -61 -51l-86 16q10 73 43 185q-33 138 -33 284v27h100q25 -209 127.5 -320.5t266.5 -111.5q77 0 137.5 29.5t93.5 83.5t33 120q0 79 -40 130t-108 87t-215 97q-142 56 -230.5 116t-134.5 142t-46 196q0 98 36 178.5t104 140
t165.5 92t222.5 32.5q69 0 127.5 -9t112.5 -21.5t67 -12.5q54 0 72 43zM469 1853h76l166 -110l166 110h73l-172 -239h-137z" />
    <glyph glyph-name="guilsinglleft" unicode="&#x2039;" horiz-adv-x="623" 
d="M502 909l55 -32q-33 -92 -87.5 -177t-135.5 -180q167 -195 223 -360l-55 -33q-58 66 -131.5 133.5t-146 122.5t-161.5 111v55q112 67 218.5 156.5t220.5 203.5z" />
    <glyph glyph-name="OE" unicode="&#x152;" horiz-adv-x="2316" 
d="M1327 1436q213 59 563 59h33q89 0 129.5 -3t62 -15t21.5 -39q0 -33 -35 -74q23 -107 23 -188q0 -14 -0.5 -22.5t-1.5 -18.5h-82q-5 91 -32.5 137.5t-86 63t-162.5 16.5h-200q-9 -177 -9 -295v-221h172q116 0 163 30t54 123h89q-8 -116 -39 -217q35 -124 39 -221h-89
q-3 67 -23.5 98.5t-64.5 42t-129 10.5h-172v-299q0 -114 16 -165.5t68.5 -69.5t171.5 -18q123 0 194.5 20.5t110.5 75.5t54 160h96q-11 -119 -59 -250q26 -47 26 -70q0 -55 -62.5 -69.5t-228.5 -14.5q-217 0 -350.5 9t-259.5 46q-195 -69 -405 -69q-187 0 -345.5 57.5
t-271.5 160.5t-173 242t-60 300q0 216 106.5 389t300.5 271.5t443 98.5q217 0 405 -71zM1167 885v76q0 145 -5.5 217.5t-29 127t-75.5 81t-142 26.5q-98 0 -173 -42.5t-128.5 -126.5t-81.5 -210.5t-28 -285.5q0 -214 49 -365.5t143 -227t230 -75.5q85 0 134 24t72 74
t29 122.5t6 193.5v391z" />
    <glyph glyph-name="Lslash" horiz-adv-x="1458" 
d="M143 1493q151 -8 394 -57q241 49 397 57v-70q-92 -10 -135.5 -53t-56.5 -125.5t-13 -238.5v-132l322 162v-149l-322 -152v-297q0 -97 7 -149.5t28 -82t64.5 -42t127.5 -12.5q127 0 201.5 21.5t117.5 75.5t64 157h93q-16 -122 -72 -252q29 -43 29 -72q0 -34 -27.5 -52
t-82 -24t-159.5 -6q-113 0 -220.5 4t-205 16t-188.5 37q-218 -52 -363 -57v70q92 10 135 51.5t55.5 119.5t12.5 228v115l-252 -127v149l252 117v266q0 163 -11.5 245.5t-54.5 129t-137 59.5v70z" />
    <glyph glyph-name="ordmasculine" horiz-adv-x="1018" 
d="M508 1458q-166 0 -166 -303q0 -305 166 -305q168 0 168 305q0 152 -42.5 227.5t-125.5 75.5zM969 1153q0 -105 -55 -189t-159.5 -132t-246.5 -48q-141 0 -245.5 48t-160 132t-55.5 189q0 106 55.5 190.5t160 132.5t245.5 48q140 0 245.5 -48.5t160.5 -133t55 -189.5z" />
    <glyph glyph-name="fraction" horiz-adv-x="342" 
d="M530 1493h187l-905 -1518h-187z" />
    <glyph glyph-name="breve" horiz-adv-x="1024" 
d="M184 1483h95q21 -68 75 -95.5t158 -27.5q105 0 159 27.5t72 95.5h95q-21 -148 -106.5 -227.5t-219.5 -79.5q-135 0 -220.5 79t-107.5 228z" />
    <glyph glyph-name="quoteleft" unicode="&#x2018;" horiz-adv-x="717" 
d="M451 1561l69 -45q-151 -155 -151 -299q0 -51 21 -81t59 -30q23 0 57 16q22 -30 22 -71q0 -73 -49.5 -115.5t-126.5 -42.5q-85 0 -134.5 53t-49.5 144q0 70 32 149.5t96 163.5t155 158z" />
    <glyph glyph-name="quoteright" unicode="&#x2019;" horiz-adv-x="717" 
d="M276 850l-67 45q151 157 151 299q0 52 -21.5 81.5t-59.5 29.5q-20 0 -56 -17q-24 34 -24 78q0 67 50.5 109.5t131.5 42.5q80 0 129 -52t49 -137q0 -73 -32 -155.5t-96.5 -166t-154.5 -157.5z" />
    <glyph glyph-name="quotedblleft" unicode="&#x201c;" horiz-adv-x="1208" 
d="M451 1561l69 -45q-151 -155 -151 -299q0 -51 21 -81t59 -30q23 0 57 16q22 -30 22 -71q0 -73 -49.5 -115.5t-126.5 -42.5q-85 0 -134.5 53t-49.5 144q0 70 32 149.5t96 163.5t155 158zM938 1561l70 -45q-152 -155 -152 -299q0 -52 21.5 -81.5t58.5 -29.5q25 0 57 16
q25 -32 25 -71q0 -72 -51 -115t-127 -43q-57 0 -99 24t-64 69t-22 104q0 70 31.5 149.5t94 161.5t157.5 160z" />
    <glyph glyph-name="quotedblright" unicode="&#x201d;" horiz-adv-x="1208" 
d="M276 850l-67 45q151 157 151 299q0 52 -21.5 81.5t-59.5 29.5q-20 0 -56 -17q-24 34 -24 78q0 67 50.5 109.5t131.5 42.5q80 0 129 -52t49 -137q0 -73 -32 -155.5t-96.5 -166t-154.5 -157.5zM766 850l-70 45q152 157 152 299q0 53 -22 82t-60 29q-21 0 -55 -17
q-25 32 -25 78q0 44 24 79t66.5 54t93.5 19q53 0 93.5 -24t63 -67t22.5 -98q0 -113 -72.5 -239t-210.5 -240z" />
    <glyph glyph-name="bullet" unicode="&#x2022;" horiz-adv-x="1208" 
d="M307 762q0 79 39.5 147.5t108 108t149.5 39.5q80 0 147.5 -39.5t107.5 -108t40 -147.5t-40 -147.5t-108.5 -109t-148.5 -40.5q-79 0 -147.5 39.5t-108 108t-39.5 149.5z" />
    <glyph glyph-name="emdash" unicode="&#x2013;" horiz-adv-x="1024" 
d="M-14 639h1052v-227h-1052v227z" />
    <glyph glyph-name="endash" unicode="&#x2014;" horiz-adv-x="2048" 
d="M-14 639h2076v-227h-2076v227z" />
    <glyph glyph-name="tilde" unicode="&#x2dc;" horiz-adv-x="1024" 
d="M756 1483h82q-27 -134 -83.5 -199t-150.5 -65q-34 0 -63 8l-117 33q-36 10 -57 10q-79 0 -99 -94h-84q18 88 49 147.5t76 88t107 28.5q44 0 78 -10l120 -31q38 -8 45 -8q39 0 61.5 22.5t35.5 69.5z" />
    <glyph glyph-name="trademark" unicode="&#x2122;" horiz-adv-x="1683" 
d="M229 1460h457l12 -198h-36q-6 79 -37.5 116t-92.5 37v-420q0 -43 31 -49l31 -6v-33h-272v33l30 6q31 6 31 49v420h-4q-115 0 -127 -153h-35zM745 1460h222l127 -356l123 356h206v-26l-22 -7q-35 -8 -35 -49v-383q0 -41 35 -49l22 -6v-33h-260v33l31 6q35 6 35 49v355
l-148 -445h-43l-166 457v-367q0 -43 35 -49l35 -6v-33h-197v33l35 6q35 6 35 49v375q0 43 -35 49l-35 6v35z" />
    <glyph glyph-name="scaron" unicode="&#x161;" horiz-adv-x="1110" 
d="M944 829q18 -67 21 -139h-88q-20 80 -57 134.5t-91.5 82t-120.5 27.5q-71 0 -112 -32t-41 -83q0 -43 24 -70.5t72 -50t127 -51.5q126 -49 198.5 -90.5t111 -100t38.5 -143.5q0 -156 -134.5 -243.5t-383.5 -87.5q-184 0 -287.5 36.5t-103.5 94.5q0 26 30 71
q-22 104 -22 185h98q8 -95 45 -161.5t99 -101t141 -34.5q84 0 132 37t48 98q0 41 -19.5 68t-52.5 45t-89.5 39t-118.5 44q-148 59 -214.5 132t-66.5 182q0 98 54.5 168t162 106.5t258.5 36.5q108 0 192.5 -17t131.5 -46.5t47 -63.5q0 -31 -29 -72zM319 1362h76l166 -111
l166 111h74l-172 -240h-137z" />
    <glyph glyph-name="guilsinglright" unicode="&#x203a;" horiz-adv-x="623" 
d="M121 909q71 -74 140.5 -136.5t147 -121t150.5 -102.5v-55q-244 -152 -438 -367l-55 33q33 95 88 181.5t135 178.5q-76 89 -131 174.5t-92 182.5z" />
    <glyph glyph-name="oe" unicode="&#x153;" horiz-adv-x="2003" 
d="M678 940q-110 0 -165.5 -109t-55.5 -325t56 -326t165 -110t166 109.5t57 326.5t-57 325.5t-166 108.5zM1096 909q84 63 180.5 95t200.5 32q98 0 184 -30.5t147 -83.5t95 -124t34 -149q0 -9 -2 -27.5t-4 -33.5h-559q-64 0 -84 -15t-20 -59q0 -104 47 -191.5t131.5 -138.5
t191.5 -51q77 0 154 28t141 83l33 -66q-78 -94 -213 -148.5t-305 -54.5q-112 0 -207 30.5t-160 86.5q-158 -117 -403 -117q-141 0 -255.5 39.5t-194 110t-122.5 168.5t-43 211q0 110 42.5 209t122.5 170.5t194 111t256 39.5q129 0 236 -32t182 -93zM1550 678q35 0 47.5 7.5
t12.5 35.5q0 89 -53 153t-130 64q-76 0 -121.5 -60.5t-45.5 -160.5q1 -12 1.5 -21.5t0.5 -17.5h288z" />
    <glyph glyph-name="dotlessi" horiz-adv-x="782" 
d="M539 1034l63 -39q-10 -59 -14 -142t-4 -167v-321q0 -83 4.5 -134.5t20 -85t49 -50.5t94.5 -23v-72q-173 3 -349 51q-183 -48 -346 -51v72q82 4 117 34t44 89t9 194v211q0 116 -7 165t-34.5 73t-91.5 24h-12v70q145 22 242 22q43 0 90 -2q56 45 125 82z" />
    <glyph glyph-name="dotlessi" unicode="&#x131;" horiz-adv-x="782" 
d="M539 1034l63 -39q-10 -59 -14 -142t-4 -167v-321q0 -83 4.5 -134.5t20 -85t49 -50.5t94.5 -23v-72q-173 3 -349 51q-183 -48 -346 -51v72q82 4 117 34t44 89t9 194v211q0 116 -7 165t-34.5 73t-91.5 24h-12v70q145 22 242 22q43 0 90 -2q56 45 125 82z" />
    <glyph glyph-name="zcaron" horiz-adv-x="1165" 
d="M1071 991v-96q-137 -173 -230 -296.5t-185 -255t-169 -253.5h148q129 0 214.5 23.5t137 76t72.5 140.5h90q-15 -105 -68 -207q25 -45 25 -68q0 -34 -26 -44.5t-85 -10.5q-50 0 -123 1.5t-148 2.5t-134 1.5t-184 0.5q-165 0 -330 -6v104q158 201 248 318t177 240.5
t158 240.5h-47q-136 0 -218.5 -16t-128.5 -59.5t-64 -129.5h-88q16 98 57 176q-18 31 -18 50q0 40 19.5 50.5t72.5 10.5h51q30 0 75.5 -0.5t100.5 -1t184 -0.5q252 0 416 8zM385 1315h76l166 -111l166 111h73l-172 -240h-137z" />
    <glyph glyph-name="Ydieresis" horiz-adv-x="1526" 
d="M-25 1493q184 -9 363 -51q71 20 155.5 32t188.5 19v-72q-55 -8 -78.5 -23t-23.5 -48q0 -86 303 -557q87 148 145 253t86.5 174t28.5 111q0 84 -129 90v72q151 -6 299 -45q128 35 268 45v-72q-69 -7 -120 -44t-95 -94t-127 -181q-171 -265 -213 -361q-37 -87 -37 -215v-20
q0 -165 14 -250.5t62.5 -131t148.5 -54.5v-70q-167 5 -413 57q-245 -52 -416 -57v70q88 5 136.5 38t68.5 101.5t20 183.5v72q0 66 -5 106.5t-25 79.5q-22 49 -84.5 146.5t-161.5 240.5q-109 159 -159.5 227t-100.5 111.5t-99 44.5v72zM662 1821q48 0 80 -32t32 -79
q0 -48 -31.5 -81.5t-80.5 -33.5q-48 0 -81.5 33.5t-33.5 79.5q0 47 34 80t81 33zM973 1821h2q48 0 80 -32t32 -79q0 -49 -33 -82t-81 -33t-81.5 33.5t-33.5 79.5q0 47 34 80t81 33z" />
    <glyph glyph-name="Ydieresis" unicode="&#x178;" horiz-adv-x="1526" 
d="M-25 1493q184 -9 363 -51q71 20 155.5 32t188.5 19v-72q-55 -8 -78.5 -23t-23.5 -48q0 -86 303 -557q87 148 145 253t86.5 174t28.5 111q0 84 -129 90v72q151 -6 299 -45q128 35 268 45v-72q-69 -7 -120 -44t-95 -94t-127 -181q-171 -265 -213 -361q-37 -87 -37 -215v-20
q0 -165 14 -250.5t62.5 -131t148.5 -54.5v-70q-167 5 -413 57q-245 -52 -416 -57v70q88 5 136.5 38t68.5 101.5t20 183.5v72q0 66 -5 106.5t-25 79.5q-22 49 -84.5 146.5t-161.5 240.5q-109 159 -159.5 227t-100.5 111.5t-99 44.5v72zM662 1821q48 0 80 -32t32 -79
q0 -48 -31.5 -81.5t-80.5 -33.5q-48 0 -81.5 33.5t-33.5 79.5q0 47 34 80t81 33zM973 1821h2q48 0 80 -32t32 -79q0 -49 -33 -82t-81 -33t-81.5 33.5t-33.5 79.5q0 47 34 80t81 33z" />
    <glyph glyph-name="fl" unicode="&#xa0;" horiz-adv-x="1548" 
d="M1305 1571l63 -37q-18 -136 -18 -420v-739q0 -120 9 -178.5t44.5 -88.5t114.5 -36v-72q-155 5 -349 51q-183 -48 -325 -51v72q70 7 102 39t39.5 88.5t7.5 185.5v446h-430v-444q0 -129 8 -186.5t41.5 -89.5t108.5 -39v-72q-162 3 -334 51q-187 -46 -330 -51v72
q72 4 104.5 36.5t40 93.5t7.5 201v428h-135v87h8q48 0 72 9.5t35 30t18.5 62.5t13.5 78q28 144 104.5 247t196.5 156t275 53q186 0 346 -100q87 75 162 117zM993 1090q0 125 -15 204.5t-62 121.5t-140 42q-119 0 -166 -101t-47 -315v-92h430v140z" />
    <glyph glyph-name="exclamdown" unicode="&#xa1;" horiz-adv-x="682" 
d="M342 1518q42 0 77.5 -21.5t56 -57t20.5 -77.5q0 -44 -20.5 -79.5t-55 -56t-78.5 -20.5q-61 0 -108.5 46.5t-47.5 109.5t46.5 109.5t109.5 46.5zM305 1116h72l119 -969q4 -26 4 -57q0 -62 -37.5 -88.5t-120.5 -26.5q-85 0 -122.5 26.5t-37.5 90.5q0 7 4 55z" />
    <glyph glyph-name="cent" unicode="&#xa2;" horiz-adv-x="1346" 
d="M723 1440h133v-205q101 -5 171 -33t107 -74t37 -100q0 -57 -39.5 -89t-113.5 -32q-30 182 -162 230v-818q20 -2 35.5 -4t26.5 -2q133 0 266 86l33 -71q-160 -125 -361 -148v-243h-133v241q-162 12 -281 78t-182 179t-63 257q0 110 34.5 202.5t102 163t165 115.5t224.5 60
v207zM723 1135q-59 -9 -102.5 -51.5t-66 -117.5t-22.5 -173q0 -161 50 -277t141 -168v787z" />
    <glyph glyph-name="sterling" unicode="&#xa3;" horiz-adv-x="1346" 
d="M172 -12l-25 86q150 33 219.5 102t69.5 184q0 58 -21 129.5t-61 169.5l-188 -10v137h147q-55 135 -55 267q0 133 66.5 232.5t188.5 153.5t282 54q125 0 218.5 -32.5t143 -89.5t49.5 -126q0 -70 -58.5 -112t-168.5 -52q-6 161 -62.5 246.5t-152.5 85.5q-76 0 -124 -60.5
t-48 -162.5q0 -136 82 -404l381 11v-150l-353 8q15 -53 15 -108q0 -99 -45.5 -190.5t-134.5 -168.5q78 29 165.5 39.5t202.5 10.5q26 0 34.5 -0.5t16.5 -1.5q52 0 92.5 6t68.5 21t47.5 42t31.5 70l86 -10q-18 -110 -70 -203q33 -46 33 -80q0 -80 -117 -80q-46 0 -105 4
t-154.5 11t-179 11.5t-171.5 4.5q-184 0 -346 -45z" />
    <glyph glyph-name="currency" unicode="&#xa4;" horiz-adv-x="1241" 
d="M178 1444l203 -201q107 74 240 74q139 0 243 -74l201 201l119 -117l-201 -205q70 -106 70 -237t-70 -238l201 -203l-119 -118l-201 202q-102 -73 -241 -73q-136 0 -242 73l-203 -202l-117 118l201 203q-72 107 -72 238q0 134 72 237l-201 205zM623 1145q-72 0 -131 -35
t-94.5 -96t-35.5 -129q0 -70 35 -130t94.5 -94t131.5 -34q70 0 129.5 34.5t94 94t34.5 129.5q0 68 -34.5 129t-93.5 96t-130 35z" />
    <glyph glyph-name="yen" unicode="&#xa5;" horiz-adv-x="1493" 
d="M774 55q-230 -52 -395 -55v70q87 5 134.5 38t68 101.5t20.5 183.5q0 83 -6 172l-434 -4v119l395 -4q-46 93 -90 164l-305 -4v118l237 -4q-102 165 -166.5 257t-120.5 142.5t-106 51.5v69q107 -7 189 -18.5t145 -32.5q124 41 322 51v-69q-55 -8 -78 -22.5t-23 -47.5
q0 -91 273 -551q131 224 192 348t61 183q0 44 -30 64.5t-96 25.5v69q162 -7 294 -43q126 34 265 43v-69q-74 -7 -136.5 -59.5t-122 -138t-165.5 -253.5l245 4v-118l-311 4q-56 -96 -76 -164l387 4v-119l-405 4v-55q0 -126 6 -198.5t27.5 -125.5t66 -80.5t121.5 -35.5v-70
q-156 3 -383 55z" />
    <glyph glyph-name="brokenbar" unicode="&#xa6;" horiz-adv-x="1024" 
d="M393 1432h240v-758h-240v758zM393 408h240v-758h-240v758z" />
    <glyph glyph-name="section" unicode="&#xa7;" horiz-adv-x="1118" 
d="M874 1305q25 -75 25 -129v-13h-90q-16 131 -84.5 205t-165.5 74q-69 0 -110 -40t-41 -106q0 -43 20.5 -80t59.5 -70.5t102 -72.5l201 -123q111 -69 164 -140.5t53 -158.5q0 -67 -35.5 -127t-97.5 -97t-134 -40q70 -47 115.5 -95.5t67.5 -99.5t22 -110
q0 -138 -118.5 -219.5t-333.5 -81.5q-143 0 -233.5 35t-90.5 86q0 40 33 92q-33 85 -33 188v19h82q12 -110 50 -189t96 -119t130 -40q89 0 139 43t50 116q0 46 -21.5 83.5t-63 73.5t-108.5 79l-231 151q-89 59 -135.5 133.5t-46.5 153.5q0 100 66.5 167.5t184.5 82.5
q-87 52 -133.5 125.5t-46.5 155.5q0 135 104 217t285 82q158 0 247 -35t89 -88q0 -41 -33 -88zM430 879q-56 0 -87.5 -32.5t-31.5 -82.5q0 -44 32 -85.5t101 -96.5q156 -125 236 -125q49 0 81 34.5t32 83.5q0 50 -38.5 93.5t-125.5 107.5q-74 54 -120 78.5t-79 24.5z" />
    <glyph glyph-name="dieresis" unicode="&#xa8;" horiz-adv-x="1024" 
d="M317 1473q39 0 71.5 -19t51.5 -52t19 -71q0 -62 -39.5 -103.5t-102.5 -41.5q-60 0 -102.5 42.5t-42.5 100.5q0 59 42.5 101.5t102.5 42.5zM707 1473q39 0 72 -19t52 -52t19 -71q0 -63 -41 -104t-102 -41q-59 0 -102.5 42.5t-43.5 100.5q0 59 43.5 101.5t102.5 42.5z" />
    <glyph glyph-name="copyright" unicode="&#xa9;" horiz-adv-x="1683" 
d="M844 1423q144 0 282 -57.5t240 -159.5q101 -100 160 -239t59 -289q0 -93 -25 -188t-75 -181t-119 -155q-71 -71 -154 -119t-175.5 -73t-194.5 -25q-101 0 -193.5 24.5t-175.5 73t-156 119.5q-71 69 -119.5 152.5t-74 179t-25.5 192.5q0 150 55 283t162 241q68 69 154 119
t181.5 76t193.5 26zM844 1311q-86 0 -166 -22t-153 -65.5t-128 -99.5q-60 -62 -100.5 -131.5t-62 -150t-21.5 -164.5q0 -85 20.5 -165.5t61 -150t102.5 -131.5q63 -61 133 -101.5t148.5 -61.5t163.5 -21q125 0 239.5 47.5t202.5 136.5q56 56 99.5 131t65 153t21.5 163
q0 86 -21.5 166.5t-62.5 152.5t-100 129q-58 56 -129.5 98t-151 64.5t-161.5 22.5zM1128 1104h50v-330h-52q-21 88 -59 149.5t-89 92.5t-114 31q-223 0 -223 -363q0 -182 62 -278.5t176 -96.5q153 0 268 176l51 -32q-64 -109 -152 -163t-198 -54q-94 0 -176 32.5
t-143.5 92.5t-93.5 137.5t-32 165.5q0 129 56 230t156 157.5t223 56.5q62 0 106.5 -14t81.5 -33t49 -19q22 0 33.5 13.5t19.5 48.5z" />
    <glyph glyph-name="ordfeminine" unicode="&#xaa;" horiz-adv-x="952" 
d="M809 1219v-142q0 -89 11.5 -124t53.5 -35q19 0 48 10l22 -39q-42 -45 -99.5 -70.5t-107.5 -25.5q-67 0 -107 29.5t-55 90.5q-39 -59 -113.5 -92t-170.5 -33q-109 0 -171.5 47.5t-62.5 127.5q0 64 37.5 105t112.5 66.5t186 43.5q64 11 98 20.5t47 28.5t13 59
q0 95 -20 133.5t-85 38.5q-46 0 -76 -27t-30 -71q0 -37 20 -82q-57 -27 -122 -27q-46 0 -75.5 25.5t-29.5 66.5q0 50 42 90.5t121 64.5t187 24q177 0 251.5 -71.5t74.5 -231.5zM547 1151q-78 -21 -122.5 -37.5t-67.5 -43t-23 -73.5q0 -43 26.5 -68.5t71.5 -25.5
q115 0 115 139v109z" />
    <glyph glyph-name="guillemotleft" unicode="&#xab;" horiz-adv-x="1100" 
d="M979 909l53 -32q-66 -178 -221 -357q45 -50 89.5 -111.5t78 -125.5t53.5 -123l-53 -33q-58 66 -131.5 133.5t-144.5 121.5t-162 112v55q205 124 438 360zM502 909l55 -32q-33 -92 -87.5 -177t-135.5 -180q167 -195 223 -360l-55 -33q-58 66 -131.5 133.5t-146 122.5
t-161.5 111v55q112 67 218.5 156.5t220.5 203.5z" />
    <glyph glyph-name="logicalnot" unicode="&#xac;" horiz-adv-x="1706" 
d="M254 866h1198v-501h-229v274h-969v227z" />
    <glyph glyph-name="minus" unicode="&#xad;" horiz-adv-x="1706" 
d="M254 729h1198v-235h-1198v235z" />
    <glyph glyph-name="registered" unicode="&#xae;" horiz-adv-x="1683" 
d="M844 1423q100 0 198 -27.5t183 -78t155 -123.5q98 -99 151.5 -238t53.5 -294q0 -95 -27.5 -187.5t-82.5 -181.5t-129 -158q-65 -62 -148 -108.5t-172.5 -69.5t-183.5 -23q-109 0 -212 31t-198 92q-159 107 -246.5 269.5t-87.5 351.5q0 100 25.5 193.5t75 178.5t116.5 152
q68 69 154 119t181.5 76t193.5 26zM844 1311q-86 0 -166.5 -22t-153.5 -65t-129 -100q-58 -58 -99 -130t-62 -152t-21 -164q0 -85 20.5 -165.5t61 -150t102.5 -131.5q63 -61 133 -101.5t148.5 -61.5t163.5 -21q125 0 239.5 47.5t202.5 136.5q56 56 99.5 131t65 153t21.5 163
q0 128 -49.5 246t-136.5 202q-59 58 -129.5 99t-149 63.5t-161.5 22.5zM463 1100h405q100 0 174 -26.5t113 -73t39 -101.5q0 -88 -65.5 -136.5t-210.5 -74.5q229 -46 229 -260q0 -43 9.5 -65.5t33.5 -22.5q53 0 53 119v12h55q1 -7 1.5 -13.5t0.5 -15.5q0 -180 -188 -180
q-91 0 -135 49q-19 23 -25.5 50.5t-9 63.5t-6.5 85q-12 86 -45.5 124t-102.5 38h-16v-244q0 -32 8 -49t28.5 -27t51.5 -14v-57h-397v57q56 5 77 24.5t21 65.5v524q0 50 -19 67t-79 25v56zM772 727q14 -2 39 -2q170 0 170 174q0 60 -38.5 102.5t-98.5 42.5q-72 0 -72 -63
v-254z" />
    <glyph glyph-name="macron" unicode="&#xaf;" horiz-adv-x="1024" 
d="M205 1413h614v-168h-614v168z" />
    <glyph glyph-name="ring" unicode="&#xb0;" horiz-adv-x="1024" 
d="M512 1657q73 0 134 -35.5t96.5 -96t35.5 -132.5q0 -71 -35 -133.5t-96 -98t-135 -35.5t-134 35t-95 97t-35 135q0 72 35 133t96 96t133 35zM512 1513q-51 0 -86 -35t-35 -87q0 -51 35 -86t86 -35q52 0 87.5 35.5t35.5 85.5t-36 86t-87 36z" />
    <glyph glyph-name="plusminus" unicode="&#xb1;" horiz-adv-x="1706" 
d="M735 1241h238v-319h479v-232h-479v-319h-238v319h-481v232h481v319zM254 213h1198v-231h-1198v231z" />
    <glyph glyph-name="twosuperior" unicode="&#xb2;" horiz-adv-x="889" 
d="M295 741h205q78 0 121.5 6.5t72 29t41.5 67.5l53 -4q-19 -92 -59 -146q27 -34 27 -53q0 -28 -21.5 -39.5t-70.5 -11.5q-54 1 -106.5 1.5t-199.5 0.5q-268 0 -323 -4v47q168 115 270.5 211.5t153.5 195t51 213.5q0 175 -107 175q-45 0 -73.5 -31.5t-28.5 -81.5
q0 -63 45 -123q-57 -35 -135 -35q-57 0 -91 30.5t-34 84.5q0 56 43.5 103.5t124 76.5t182.5 29q154 0 241 -65t87 -175q0 -222 -469 -502z" />
    <glyph glyph-name="threesuperior" unicode="&#xb3;" horiz-adv-x="889" 
d="M487 1053q143 -10 217 -67t74 -155q0 -72 -49 -131t-138.5 -93t-203.5 -34q-80 0 -151 19t-121 53t-78 82l57 49q96 -104 221 -104q89 0 145 48t56 124q0 80 -53 123t-154 43q-20 0 -31.5 -0.5t-25.5 -1.5v63h4q252 0 252 205q0 79 -29 118.5t-84 39.5q-45 0 -71.5 -27
t-26.5 -76q0 -45 25 -94q-47 -29 -109 -29q-50 0 -79.5 25.5t-29.5 69.5q0 50 39 91.5t112 65t169 23.5q153 0 239.5 -58.5t86.5 -154.5q0 -83 -67.5 -139.5t-195.5 -77.5z" />
    <glyph glyph-name="acute" unicode="&#xb4;" horiz-adv-x="1024" 
d="M739 1307l-325 -162h-115l279 295q47 50 82 73t73 23q46 0 78.5 -31.5t32.5 -77.5q0 -37 -25.5 -65.5t-79.5 -54.5z" />
    <glyph glyph-name="mu" unicode="&#xb5;" horiz-adv-x="1233" 
d="M219 190q-21 -182 -33 -295.5t-25.5 -180.5t-43.5 -103.5t-88 -36.5q-56 0 -91.5 34.5t-35.5 88.5q0 40 14 94t43.5 149t61 208t55.5 227l108 510h293l-106 -498q-21 -85 -21 -125q0 -56 27.5 -87.5t75.5 -31.5q64 0 106 57t66 169l110 516h291l-111 -525
q-12 -51 -12 -92q0 -43 19.5 -67.5t54.5 -24.5q53 0 90 51q21 35 33.5 57t25.5 35t31 13q10 0 19.5 -11.5t9.5 -27.5q0 -25 -20.5 -83.5t-53.5 -107.5q-40 -61 -95 -91.5t-126 -30.5q-89 0 -135.5 47t-55.5 147q-73 -194 -249 -194q-101 0 -161.5 54t-70.5 156z" />
    <glyph glyph-name="paragraph" unicode="&#xb6;" horiz-adv-x="1024" 
d="M997 1479v-123h-106v-1356h-174v1356h-152v-1356h-174v784q-109 4 -191.5 49.5t-126.5 122t-44 174.5q0 102 47 181.5t135.5 123.5t206.5 44h579z" />
    <glyph glyph-name="periodcentered" unicode="&#xb7;" horiz-adv-x="674" 
d="M338 907q71 0 120.5 -50.5t49.5 -121.5q0 -46 -23 -86t-62.5 -64t-86.5 -24q-71 0 -121.5 52.5t-50.5 121.5q0 72 51 122t123 50z" />
    <glyph glyph-name="periodcentered" unicode="&#x2219;" horiz-adv-x="674" 
d="M338 907q71 0 120.5 -50.5t49.5 -121.5q0 -46 -23 -86t-62.5 -64t-86.5 -24q-71 0 -121.5 52.5t-50.5 121.5q0 72 51 122t123 50z" />
    <glyph glyph-name="cedilla" unicode="&#xb8;" horiz-adv-x="1024" 
d="M455 0h73l-20 -115q55 6 76 6q81 0 128.5 -41t47.5 -110q0 -73 -48.5 -119.5t-148 -69.5t-250.5 -24v84q134 8 197 35.5t63 85.5q0 35 -24.5 54t-67.5 19q-13 0 -61 -8z" />
    <glyph glyph-name="onesuperior" unicode="&#xb9;" horiz-adv-x="889" 
d="M551 1493l35 -25q-19 -98 -19 -217v-432q0 -63 4 -93t18 -51.5t41 -31t87 -12.5v-43q-165 3 -271 33q-110 -30 -264 -33v43q73 1 104.5 21.5t38.5 60t7 131.5v332q0 102 -5.5 145t-31.5 64.5t-84 21.5h-4v41q79 6 139 6q35 0 113 -4q61 33 92 43z" />
    <glyph glyph-name="degree" unicode="&#xba;" horiz-adv-x="674" 
d="M338 1466q84 0 155.5 -41.5t113.5 -113.5t42 -156t-41.5 -155t-114 -113.5t-157.5 -42.5q-129 0 -219 90t-90 221q0 86 41.5 157.5t113.5 112.5t156 41zM338 1321q-67 0 -116.5 -48t-49.5 -116q0 -69 48.5 -117.5t117.5 -48.5q68 0 116 49.5t48 116.5t-47.5 115.5
t-116.5 48.5z" />
    <glyph glyph-name="guillemotright" unicode="&#xbb;" horiz-adv-x="1100" 
d="M121 909q71 -74 140.5 -136.5t147 -121t150.5 -102.5v-55q-244 -152 -438 -367l-53 33q60 178 221 360q-155 179 -221 357zM598 909q225 -231 438 -360v-55q-244 -152 -438 -367l-55 33q58 171 223 360q-76 89 -131 174.5t-92 182.5z" />
    <glyph glyph-name="onequarter" unicode="&#xbc;" horiz-adv-x="2038" 
d="M524 1491l35 -21q-18 -94 -18 -204v-402q0 -77 7.5 -109.5t38.5 -49t97 -17.5v-41q-155 3 -258 31q-109 -28 -252 -31v41q70 1 99.5 19.5t36.5 55t7 122.5v311q0 96 -5.5 136t-29.5 59.5t-81 19.5h-4v39q76 6 133 6q32 0 106 -4q56 29 88 39zM1378 1493h187l-906 -1518
h-186zM1624 336l6 326l-270 -330q80 2 138 2.5t126 1.5zM1499 0v41q58 5 83 23t32.5 57t9.5 119h-170q-73 0 -217 -4v81l428 512l76 -12l88 12q0 -96 -0.5 -142.5t-1.5 -98.5q1 -57 1.5 -106.5t0.5 -145.5q61 0 94 9.5t47 33.5l27 -8q-11 -34 -39 -64q14 -28 14 -37
q0 -20 -24.5 -27t-79.5 -7h-41v-35q0 -60 9 -93t35 -48t79 -19v-41q-144 7 -228 31q-86 -24 -223 -31z" />
    <glyph glyph-name="onehalf" unicode="&#xbd;" horiz-adv-x="2038" 
d="M524 1491l35 -21q-18 -94 -18 -204v-402q0 -77 7.5 -109.5t38.5 -49t97 -17.5v-41q-155 3 -258 31q-109 -28 -252 -31v41q70 1 99.5 19.5t36.5 55t7 122.5v311q0 96 -5.5 136t-29.5 59.5t-81 19.5h-4v39q76 6 133 6q32 0 106 -4q56 29 88 39zM1378 1493h187l-906 -1518
h-186zM1470 143h195q73 0 116.5 6t70.5 26.5t40 64.5l52 -4q-19 -83 -58 -136q25 -29 25 -51q0 -25 -20.5 -36t-67.5 -11q-51 1 -100.5 1.5t-190.5 0.5q-256 0 -309 -4v45q155 102 256 194t149.5 184t48.5 200q0 163 -102 163q-41 0 -69.5 -30t-28.5 -76q0 -57 43 -115
q-58 -33 -129 -33q-56 0 -87.5 28t-31.5 79q0 52 42 97.5t117.5 72.5t174.5 27q146 0 229.5 -60.5t83.5 -163.5q0 -208 -449 -469z" />
    <glyph glyph-name="threequarters" unicode="&#xbe;" horiz-adv-x="2038" 
d="M465 1081q138 -9 208 -62.5t70 -144.5q0 -68 -47 -122.5t-131.5 -86.5t-193.5 -32q-120 0 -207.5 39t-128.5 106l53 45q95 -96 213 -96q85 0 139 44t54 116q0 73 -51.5 113t-147.5 40h-55v60h4q239 0 239 190q0 72 -26.5 110t-77.5 38q-44 0 -69 -26t-25 -71t22 -88
q-40 -26 -102 -26q-47 0 -76 24.5t-29 63.5q0 71 84 119.5t222 48.5q147 0 229 -55t82 -144q0 -76 -64.5 -129t-187.5 -74zM1378 1493h187l-906 -1518h-186zM1624 336l6 326l-270 -330q80 2 138 2.5t126 1.5zM1499 0v41q58 5 83 23t32.5 57t9.5 119h-170q-73 0 -217 -4v81
l428 512l76 -12l88 12q0 -96 -0.5 -142.5t-1.5 -98.5q1 -57 1.5 -106.5t0.5 -145.5q61 0 94 9.5t47 33.5l27 -8q-11 -34 -39 -64q14 -28 14 -37q0 -20 -24.5 -27t-79.5 -7h-41v-35q0 -60 9 -93t35 -48t79 -19v-41q-144 7 -228 31q-86 -24 -223 -31z" />
    <glyph glyph-name="questiondown" unicode="&#xbf;" horiz-adv-x="1018" 
d="M645 330q71 53 156 53q70 0 110.5 -38.5t40.5 -104.5q0 -71 -53.5 -132t-155.5 -97t-235 -36q-132 0 -228 40.5t-147 115t-51 174.5q0 98 43.5 168.5t103 117t224.5 163.5q122 85 122 166q0 36 -19 54.5t-54 18.5q-1 0 -29 -4q3 68 24 92.5t76 24.5q52 0 87.5 -20t55 -60
t19.5 -92q0 -77 -38 -144.5t-117 -160.5q-53 -62 -80.5 -101t-46.5 -101t-19 -144q0 -100 37 -156.5t96 -56.5q51 0 84 35.5t33 95.5q0 62 -39 129zM600 1206q-63 0 -109.5 45.5t-46.5 110.5q0 62 46 109t108 47q42 0 78 -21.5t57 -58.5t21 -76q0 -65 -45.5 -110.5
t-108.5 -45.5z" />
    <glyph glyph-name="Agrave" unicode="&#xc0;" horiz-adv-x="1612" 
d="M680 1505l151 -24l154 24l293 -739q25 -64 99.5 -253t117 -272.5t88.5 -126t105 -42.5h6v-72q-198 6 -389 57q-199 -54 -371 -57v72q75 6 109 29t34 73q0 29 -18.5 94t-59.5 168l-36 96q-109 3 -248 3q-129 0 -252 -3l-39 -96q-39 -97 -58.5 -173t-19.5 -99q0 -43 29 -64
t98 -30v-70q-144 3 -278 49q-141 -43 -277 -49v72q74 3 129.5 47.5t103.5 127.5t92.5 190t139.5 341zM723 1184q-125 -284 -217 -539q74 -2 211 -2t205 2q-16 48 -69 192.5t-130 346.5zM860 1841l197 -203h-80l-227 113q-36 18 -53 36.5t-17 43.5q0 34 22 55t54 21
q44 0 104 -66z" />
    <glyph glyph-name="Aacute" unicode="&#xc1;" horiz-adv-x="1612" 
d="M680 1505l151 -24l154 24l293 -739q25 -64 99.5 -253t117 -272.5t88.5 -126t105 -42.5h6v-72q-198 6 -389 57q-199 -54 -371 -57v72q75 6 109 29t34 73q0 29 -18.5 94t-59.5 168l-36 96q-109 3 -248 3q-129 0 -252 -3l-39 -96q-39 -97 -58.5 -173t-19.5 -99q0 -43 29 -64
t98 -30v-70q-144 3 -278 49q-141 -43 -277 -49v72q74 3 129.5 47.5t103.5 127.5t92.5 190t139.5 341zM723 1184q-125 -284 -217 -539q74 -2 211 -2t205 2q-16 48 -69 192.5t-130 346.5zM1014 1739l-226 -115h-79l194 205q59 65 105 65q31 0 53 -22t22 -53q0 -48 -69 -80z
" />
    <glyph glyph-name="Acircumflex" unicode="&#xc2;" horiz-adv-x="1612" 
d="M680 1505l151 -24l154 24l293 -739q25 -64 99.5 -253t117 -272.5t88.5 -126t105 -42.5h6v-72q-198 6 -389 57q-199 -54 -371 -57v72q75 6 109 29t34 73q0 29 -18.5 94t-59.5 168l-36 96q-109 3 -248 3q-129 0 -252 -3l-39 -96q-39 -97 -58.5 -173t-19.5 -99q0 -43 29 -64
t98 -30v-70q-144 3 -278 49q-141 -43 -277 -49v72q74 3 129.5 47.5t103.5 127.5t92.5 190t139.5 341zM723 1184q-125 -284 -217 -539q74 -2 211 -2t205 2q-16 48 -69 192.5t-130 346.5zM764 1849h135l172 -258h-74l-166 119l-165 -119h-74z" />
    <glyph glyph-name="Atilde" unicode="&#xc3;" horiz-adv-x="1612" 
d="M680 1505l151 -24l154 24l293 -739q25 -64 99.5 -253t117 -272.5t88.5 -126t105 -42.5h6v-72q-198 6 -389 57q-199 -54 -371 -57v72q75 6 109 29t34 73q0 29 -18.5 94t-59.5 168l-36 96q-109 3 -248 3q-129 0 -252 -3l-39 -96q-39 -97 -58.5 -173t-19.5 -99q0 -43 29 -64
t98 -30v-70q-144 3 -278 49q-141 -43 -277 -49v72q74 3 129.5 47.5t103.5 127.5t92.5 190t139.5 341zM723 1184q-125 -284 -217 -539q74 -2 211 -2t205 2q-16 48 -69 192.5t-130 346.5zM1038 1833l49 2q-18 -94 -56 -138t-103 -44q-27 0 -41 4l-80 22q-19 4 -37 4
q-53 0 -65 -65h-58q34 182 160 182q35 0 53 -4l84 -20q24 -4 29 -4q25 0 40 13.5t25 47.5z" />
    <glyph glyph-name="Adieresis" unicode="&#xc4;" horiz-adv-x="1612" 
d="M680 1505l151 -24l154 24l293 -739q25 -64 99.5 -253t117 -272.5t88.5 -126t105 -42.5h6v-72q-198 6 -389 57q-199 -54 -371 -57v72q75 6 109 29t34 73q0 29 -18.5 94t-59.5 168l-36 96q-109 3 -248 3q-129 0 -252 -3l-39 -96q-39 -97 -58.5 -173t-19.5 -99q0 -43 29 -64
t98 -30v-70q-144 3 -278 49q-141 -43 -277 -49v72q74 3 129.5 47.5t103.5 127.5t92.5 190t139.5 341zM723 1184q-125 -284 -217 -539q74 -2 211 -2t205 2q-16 48 -69 192.5t-130 346.5zM651 1849q48 0 80.5 -31.5t32.5 -78.5q0 -50 -31.5 -82.5t-81.5 -32.5q-46 0 -80 34
t-34 79q0 47 34.5 79.5t79.5 32.5zM963 1849h2q48 0 80 -32t32 -78q0 -51 -32 -83t-82 -32q-47 0 -81 34t-34 79q0 47 34.5 79.5t80.5 32.5z" />
    <glyph glyph-name="Aring" unicode="&#xc5;" horiz-adv-x="1612" 
d="M680 1505l151 -24l154 24l293 -739q25 -64 99.5 -253t117 -272.5t88.5 -126t105 -42.5h6v-72q-198 6 -389 57q-199 -54 -371 -57v72q75 6 109 29t34 73q0 29 -18.5 94t-59.5 168l-36 96q-109 3 -248 3q-129 0 -252 -3l-39 -96q-39 -97 -58.5 -173t-19.5 -99q0 -43 29 -64
t98 -30v-70q-144 3 -278 49q-141 -43 -277 -49v72q74 3 129.5 47.5t103.5 127.5t92.5 190t139.5 341zM723 1184q-125 -284 -217 -539q74 -2 211 -2t205 2q-16 48 -69 192.5t-130 346.5zM825 2044h-2q91 0 154 -62t63 -153q0 -90 -63.5 -153.5t-153.5 -63.5q-87 0 -150 63
t-63 152q0 92 62.5 154.5t152.5 62.5zM823 1944l-2 2q-28 0 -55 -15.5t-42 -42t-15 -55.5q0 -49 33 -82t81 -33q47 0 80 33t33 80q0 32 -14.5 56.5t-41 40.5t-57.5 16z" />
    <glyph glyph-name="AE" unicode="&#xc6;" horiz-adv-x="2124" 
d="M659 1493q90 -2 166.5 -7.5t159.5 -19t148 -30.5q129 33 283.5 45t377.5 12q85 0 116.5 -10.5t31.5 -44.5q0 -33 -33 -74q22 -110 22 -188q0 -14 -0.5 -22.5t-1.5 -18.5h-82q-5 91 -32.5 137.5t-85 63t-162.5 16.5h-201q-8 -184 -8 -295v-221h170q115 0 163.5 30
t55.5 123h88q-6 -115 -39 -217q36 -123 39 -221h-88q-3 67 -24 98.5t-65 42t-130 10.5h-170v-299q0 -114 16 -165.5t68.5 -69.5t171.5 -18q122 0 194 20.5t110.5 75.5t53.5 160h94q-12 -131 -57 -250q25 -45 25 -70q0 -55 -61 -69.5t-228 -14.5q-110 0 -176.5 1t-147.5 7
t-146.5 16t-141.5 31q-216 -52 -363 -57v70q72 9 112 34.5t59 70.5t25.5 112.5t6.5 179.5v70q-92 2 -277 2q-82 0 -192 -2l-107 -209q-61 -122 -61 -172q0 -38 30 -58.5t91 -27.5v-70q-123 3 -279 49q-151 -43 -278 -49v72q90 7 151 63.5t135 183.5l557 963q27 44 27 78
q0 31 -26 45.5t-85 17.5v70zM938 1348q-49 -90 -98 -179t-96 -177t-86 -160.5t-99 -186.5q86 -2 168 -2h66.5t89 0.5t90.5 1.5q4 292 4 393q0 -7 -4 303z" />
    <glyph glyph-name="Ccedilla" unicode="&#xc7;" horiz-adv-x="1673" 
d="M1487 1505l69 -26q-20 -87 -53 -154q23 -153 23 -272v-27h-105q-24 195 -128 295t-279 100q-145 0 -257 -77t-174.5 -226t-62.5 -352q0 -321 141.5 -501.5t382.5 -180.5q173 0 280.5 85.5t137.5 248.5h103q-16 -109 -47 -232q18 -49 24 -96q-104 -52 -246 -83.5
t-297 -31.5q-216 0 -388 52.5t-293.5 153t-183.5 239t-62 307.5q0 172 62 317.5t183.5 252.5t294 164t387.5 57q88 0 160 -10t149 -24t107 -14q29 0 72 35zM819 -16h64l-17 -90q29 2 58 2q66 0 102.5 -33t36.5 -86q0 -87 -86.5 -126.5t-269.5 -41.5v65q110 8 157 29t47 66
q0 26 -19 41.5t-52 15.5q-11 0 -47 -4z" />
    <glyph glyph-name="Egrave" unicode="&#xc8;" horiz-adv-x="1401" 
d="M47 1493q217 -12 363 -57q129 33 283.5 45t377.5 12q86 0 117 -10.5t31 -44.5q0 -33 -33 -74q22 -110 22 -188q0 -14 -0.5 -22.5t-1.5 -18.5h-82q-5 91 -32.5 137.5t-85 63t-162.5 16.5h-201q-8 -184 -8 -295v-221h170q115 0 163.5 30t55.5 123h88q-6 -115 -39 -217
q36 -123 39 -221h-88q-3 67 -24 98.5t-65 42t-130 10.5h-170v-299q0 -114 16 -165.5t68.5 -69.5t171.5 -18q122 0 194 20.5t110.5 75.5t53.5 160h94q-12 -131 -57 -250q25 -43 25 -70q0 -55 -61 -69.5t-228 -14.5q-110 0 -176.5 1t-147.5 7t-146.5 16t-141.5 31
q-182 -48 -363 -57v70q94 10 137 54t54.5 124t11.5 241v500q0 163 -11.5 245.5t-54.5 129t-137 59.5v70zM637 1829l197 -203h-80l-228 113q-69 32 -69 80q0 31 22 53t53 22q46 0 105 -65z" />
    <glyph glyph-name="Eacute" unicode="&#xc9;" horiz-adv-x="1401" 
d="M47 1493q217 -12 363 -57q129 33 283.5 45t377.5 12q86 0 117 -10.5t31 -44.5q0 -33 -33 -74q22 -110 22 -188q0 -14 -0.5 -22.5t-1.5 -18.5h-82q-5 91 -32.5 137.5t-85 63t-162.5 16.5h-201q-8 -184 -8 -295v-221h170q115 0 163.5 30t55.5 123h88q-6 -115 -39 -217
q36 -123 39 -221h-88q-3 67 -24 98.5t-65 42t-130 10.5h-170v-299q0 -114 16 -165.5t68.5 -69.5t171.5 -18q122 0 194 20.5t110.5 75.5t53.5 160h94q-12 -131 -57 -250q25 -43 25 -70q0 -55 -61 -69.5t-228 -14.5q-110 0 -176.5 1t-147.5 7t-146.5 16t-141.5 31
q-182 -48 -363 -57v70q94 10 137 54t54.5 124t11.5 241v500q0 163 -11.5 245.5t-54.5 129t-137 59.5v70zM893 1737l-225 -115h-80l194 205q59 65 105 65q33 0 54.5 -21.5t21.5 -53.5q0 -47 -70 -80z" />
    <glyph glyph-name="Ecircumflex" unicode="&#xca;" horiz-adv-x="1401" 
d="M47 1493q217 -12 363 -57q129 33 283.5 45t377.5 12q86 0 117 -10.5t31 -44.5q0 -33 -33 -74q22 -110 22 -188q0 -14 -0.5 -22.5t-1.5 -18.5h-82q-5 91 -32.5 137.5t-85 63t-162.5 16.5h-201q-8 -184 -8 -295v-221h170q115 0 163.5 30t55.5 123h88q-6 -115 -39 -217
q36 -123 39 -221h-88q-3 67 -24 98.5t-65 42t-130 10.5h-170v-299q0 -114 16 -165.5t68.5 -69.5t171.5 -18q122 0 194 20.5t110.5 75.5t53.5 160h94q-12 -131 -57 -250q25 -43 25 -70q0 -55 -61 -69.5t-228 -14.5q-110 0 -176.5 1t-147.5 7t-146.5 16t-141.5 31
q-182 -48 -363 -57v70q94 10 137 54t54.5 124t11.5 241v500q0 163 -11.5 245.5t-54.5 129t-137 59.5v70zM610 1851h135l173 -258h-74l-166 119l-166 -119h-74z" />
    <glyph glyph-name="Edieresis" unicode="&#xcb;" horiz-adv-x="1401" 
d="M47 1493q217 -12 363 -57q129 33 283.5 45t377.5 12q86 0 117 -10.5t31 -44.5q0 -33 -33 -74q22 -110 22 -188q0 -14 -0.5 -22.5t-1.5 -18.5h-82q-5 91 -32.5 137.5t-85 63t-162.5 16.5h-201q-8 -184 -8 -295v-221h170q115 0 163.5 30t55.5 123h88q-6 -115 -39 -217
q36 -123 39 -221h-88q-3 67 -24 98.5t-65 42t-130 10.5h-170v-299q0 -114 16 -165.5t68.5 -69.5t171.5 -18q122 0 194 20.5t110.5 75.5t53.5 160h94q-12 -131 -57 -250q25 -43 25 -70q0 -55 -61 -69.5t-228 -14.5q-110 0 -176.5 1t-147.5 7t-146.5 16t-141.5 31
q-182 -48 -363 -57v70q94 10 137 54t54.5 124t11.5 241v500q0 163 -11.5 245.5t-54.5 129t-137 59.5v70zM498 1800q48 0 80 -32t32 -78q0 -50 -31 -82.5t-81 -32.5q-47 0 -81 34t-34 79q0 47 34.5 79.5t80.5 32.5zM809 1800h2q48 0 80.5 -31.5t32.5 -78.5q0 -51 -33 -83
t-82 -32q-47 0 -81 34t-34 79q0 46 35 79t80 33z" />
    <glyph glyph-name="Igrave" unicode="&#xcc;" horiz-adv-x="924" 
d="M68 1493q150 -8 393 -57q241 49 397 57v-70q-70 -7 -112 -34t-62 -78.5t-25.5 -124.5t-5.5 -195v-471q0 -118 5 -195t25.5 -130.5t61 -84t113.5 -40.5v-70q-161 5 -395 57q-243 -52 -395 -57v70q93 10 136 54t54.5 124t11.5 241v500q0 163 -11.5 245.5t-55 129
t-135.5 59.5v70zM446 1829l197 -203h-80l-227 113q-37 18 -53.5 36.5t-16.5 43.5q0 32 22.5 53.5t53.5 21.5q47 0 104 -65z" />
    <glyph glyph-name="Iacute" unicode="&#xcd;" horiz-adv-x="924" 
d="M68 1493q150 -8 393 -57q241 49 397 57v-70q-70 -7 -112 -34t-62 -78.5t-25.5 -124.5t-5.5 -195v-471q0 -118 5 -195t25.5 -130.5t61 -84t113.5 -40.5v-70q-161 5 -395 57q-243 -52 -395 -57v70q93 10 136 54t54.5 124t11.5 241v500q0 163 -11.5 245.5t-55 129
t-135.5 59.5v70zM621 1737l-226 -115h-80l195 205q30 33 54 49t50 16q33 0 54.5 -21.5t21.5 -53.5q0 -48 -69 -80z" />
    <glyph glyph-name="Icircumflex" unicode="&#xce;" horiz-adv-x="924" 
d="M68 1493q150 -8 393 -57q241 49 397 57v-70q-70 -7 -112 -34t-62 -78.5t-25.5 -124.5t-5.5 -195v-471q0 -118 5 -195t25.5 -130.5t61 -84t113.5 -40.5v-70q-161 5 -395 57q-243 -52 -395 -57v70q93 10 136 54t54.5 124t11.5 241v500q0 163 -11.5 245.5t-55 129
t-135.5 59.5v70zM385 1851h135l172 -258h-74l-165 119l-166 -119h-74z" />
    <glyph glyph-name="Idieresis" unicode="&#xcf;" horiz-adv-x="924" 
d="M68 1493q150 -8 393 -57q241 49 397 57v-70q-70 -7 -112 -34t-62 -78.5t-25.5 -124.5t-5.5 -195v-471q0 -118 5 -195t25.5 -130.5t61 -84t113.5 -40.5v-70q-161 5 -395 57q-243 -52 -395 -57v70q93 10 136 54t54.5 124t11.5 241v500q0 163 -11.5 245.5t-55 129
t-135.5 59.5v70zM303 1810q48 0 80.5 -31.5t32.5 -78.5q0 -50 -31.5 -82.5t-81.5 -32.5q-46 0 -80.5 33.5t-34.5 79.5t35 79t80 33zM614 1810h2q48 0 80.5 -31.5t32.5 -78.5q0 -33 -15 -59t-40.5 -41t-59.5 -15q-46 0 -80 34t-34 79q0 47 34.5 79.5t79.5 32.5z" />
    <glyph glyph-name="Eth" unicode="&#xd0;" horiz-adv-x="1972" 
d="M526 57q-174 -45 -383 -57v72q93 10 136.5 53.5t55 123t11.5 240.5v216l-252 -7v140l252 -7v177q0 129 -5 194t-24 112t-61.5 74.5t-112.5 34.5v70q229 -16 383 -57q94 31 210.5 47t244.5 16q218 0 390.5 -53.5t290.5 -154.5t178.5 -239.5t60.5 -306.5
q0 -174 -62.5 -313.5t-183.5 -238.5t-295.5 -151t-398.5 -52q-83 0 -155 7t-147 23t-133 37zM731 602q0 -220 2 -311t8 -113q15 -49 57 -70.5t126 -21.5q166 0 288 74t187 217t65 342q0 327 -150.5 505.5t-426.5 178.5q-57 0 -139 -14q-9 -86 -13 -224.5t-4 -273.5v-60
l367 7v-140l-367 7v-103z" />
    <glyph glyph-name="Ntilde" unicode="&#xd1;" horiz-adv-x="1819" 
d="M1417 475v541q0 158 -13.5 239.5t-58 122t-139.5 43.5v72q167 -10 295 -47q125 35 291 47v-72q-72 -1 -115 -36t-63 -107t-25.5 -180t-5.5 -293v-488q0 -80 8 -342l-92 23l-141 -10q-121 148 -248.5 302.5t-224.5 269t-229.5 266t-233.5 257.5v-292q0 -121 4.5 -263
t11.5 -217.5t17 -113.5q31 -116 207 -125v-72q-54 3 -109.5 9t-119 18t-95.5 20q-163 -41 -299 -47v72q98 4 144.5 53.5t59.5 150t13 293.5v375q0 189 -11.5 279.5t-57.5 139t-148 58.5v72q123 -3 274 -43q137 45 187 45q29 0 90.5 -65t220 -258.5t278.5 -333t328 -363.5z
M1018 1815l49 2q-18 -93 -57 -138t-103 -45q-26 0 -41 4l-80 23q-18 4 -36 4q-54 0 -66 -66h-57q33 183 159 183q35 0 54 -4l84 -21q24 -4 28 -4q25 0 41 15t25 47z" />
    <glyph glyph-name="Ograve" unicode="&#xd2;" horiz-adv-x="1843" 
d="M1772 748q0 -161 -61 -304.5t-175.5 -248.5t-271.5 -162.5t-342 -57.5q-186 0 -343.5 58t-271 163t-174.5 248t-61 304q0 162 62 304.5t175 246.5t269 161.5t344 57.5q189 0 345.5 -58t269 -161.5t174 -244.5t61.5 -306zM922 1421q-125 0 -214.5 -76.5t-137.5 -229
t-48 -367.5q0 -216 48 -369t138.5 -230t213.5 -77t213.5 77t139 229t48.5 370q0 169 -27.5 293t-78.5 208t-126 128t-169 44zM926 1833l196 -203h-80l-227 113q-37 18 -53.5 36.5t-16.5 43.5q0 32 22.5 53.5t53.5 21.5q46 0 105 -65z" />
    <glyph glyph-name="Oacute" unicode="&#xd3;" horiz-adv-x="1843" 
d="M1772 748q0 -161 -61 -304.5t-175.5 -248.5t-271.5 -162.5t-342 -57.5q-186 0 -343.5 58t-271 163t-174.5 248t-61 304q0 162 62 304.5t175 246.5t269 161.5t344 57.5q189 0 345.5 -58t269 -161.5t174 -244.5t61.5 -306zM922 1421q-125 0 -214.5 -76.5t-137.5 -229
t-48 -367.5q0 -216 48 -369t138.5 -230t213.5 -77t213.5 77t139 229t48.5 370q0 169 -27.5 293t-78.5 208t-126 128t-169 44zM1069 1751l-225 -115h-80l194 205q60 66 105 66q19 0 37.5 -10t28.5 -28.5t10 -37.5q0 -46 -70 -80z" />
    <glyph glyph-name="Ocircumflex" unicode="&#xd4;" horiz-adv-x="1843" 
d="M1772 748q0 -161 -61 -304.5t-175.5 -248.5t-271.5 -162.5t-342 -57.5q-186 0 -343.5 58t-271 163t-174.5 248t-61 304q0 162 62 304.5t175 246.5t269 161.5t344 57.5q189 0 345.5 -58t269 -161.5t174 -244.5t61.5 -306zM922 1421q-125 0 -214.5 -76.5t-137.5 -229
t-48 -367.5q0 -216 48 -369t138.5 -230t213.5 -77t213.5 77t139 229t48.5 370q0 169 -27.5 293t-78.5 208t-126 128t-169 44zM860 1851h135l172 -258h-73l-166 119l-166 -119h-74z" />
    <glyph glyph-name="Otilde" unicode="&#xd5;" horiz-adv-x="1843" 
d="M1772 748q0 -161 -61 -304.5t-175.5 -248.5t-271.5 -162.5t-342 -57.5q-186 0 -343.5 58t-271 163t-174.5 248t-61 304q0 162 62 304.5t175 246.5t269 161.5t344 57.5q189 0 345.5 -58t269 -161.5t174 -244.5t61.5 -306zM922 1421q-125 0 -214.5 -76.5t-137.5 -229
t-48 -367.5q0 -216 48 -369t138.5 -230t213.5 -77t213.5 77t139 229t48.5 370q0 169 -27.5 293t-78.5 208t-126 128t-169 44zM1094 1835l49 2q-18 -93 -56.5 -137.5t-103.5 -44.5q-27 0 -41 4l-80 22q-18 5 -37 5q-53 0 -65 -66h-58q34 182 160 182q35 0 53 -4l84 -20
q26 -4 29 -4q48 0 66 61z" />
    <glyph glyph-name="Odieresis" unicode="&#xd6;" horiz-adv-x="1843" 
d="M1772 748q0 -161 -61 -304.5t-175.5 -248.5t-271.5 -162.5t-342 -57.5q-186 0 -343.5 58t-271 163t-174.5 248t-61 304q0 162 62 304.5t175 246.5t269 161.5t344 57.5q189 0 345.5 -58t269 -161.5t174 -244.5t61.5 -306zM922 1421q-125 0 -214.5 -76.5t-137.5 -229
t-48 -367.5q0 -216 48 -369t138.5 -230t213.5 -77t213.5 77t139 229t48.5 370q0 169 -27.5 293t-78.5 208t-126 128t-169 44zM768 1810q48 0 80.5 -31.5t32.5 -78.5q0 -50 -31.5 -82.5t-81.5 -32.5q-46 0 -80.5 33.5t-34.5 79.5t35 79t80 33zM1079 1810h2q48 0 80.5 -31.5
t32.5 -78.5q0 -33 -15 -59t-40.5 -41t-59.5 -15q-46 0 -80 34t-34 79q0 47 34.5 79.5t79.5 32.5z" />
    <glyph glyph-name="multiply" unicode="&#xd7;" horiz-adv-x="1706" 
d="M430 1214l440 -440l441 440l162 -161l-441 -443l441 -440l-162 -162l-441 441l-440 -441l-162 162l441 440l-441 443z" />
    <glyph glyph-name="Oslash" unicode="&#xd8;" horiz-adv-x="1843" 
d="M1581 1614l127 -117l-176 -194q84 -83 137 -169t78 -180t25 -206q0 -165 -61 -306.5t-174 -245.5t-271 -162.5t-344 -58.5q-139 0 -261.5 31t-218.5 90l-198 -223l-121 111l186 211q-237 219 -237 553q0 162 61 304.5t174.5 246.5t269.5 161.5t345 57.5q135 0 255 -29.5
t218 -83.5zM1294 1059l-671 -811q53 -85 130.5 -130.5t168.5 -45.5q123 0 213.5 77t139 229t48.5 370q0 166 -29 311zM1221 1251q-33 54 -80.5 92.5t-104.5 58t-114 19.5q-93 0 -167.5 -43.5t-126.5 -129.5t-80 -213.5t-28 -286.5q0 -179 35 -310z" />
    <glyph glyph-name="Ugrave" unicode="&#xd9;" horiz-adv-x="1835" 
d="M61 1493q136 -5 375 -57q221 52 375 57v-72q-87 -7 -128 -50t-51.5 -121.5t-10.5 -237.5v-107q0 -201 13 -339.5t42 -213.5q43 -102 130 -156.5t210 -54.5q241 0 342 191q40 74 52.5 190t12.5 314v200q0 154 -12 226t-57.5 110.5t-147.5 48.5v72q130 -6 297 -45
q176 38 283 45v-72q-88 -4 -130.5 -40t-54.5 -103.5t-12 -194.5v-325q0 -137 -9.5 -232t-37 -178.5t-76.5 -148.5q-54 -72 -135.5 -123t-190 -76t-233.5 -25q-317 0 -485 152q-72 64 -111.5 151.5t-54 196t-14.5 262.5v330q0 110 -4 166t-20.5 97.5t-53.5 64t-103 26.5v72z
M887 1819l196 -203h-79l-228 113q-69 32 -69 79q0 33 21.5 54.5t53.5 21.5q46 0 105 -65z" />
    <glyph glyph-name="Uacute" unicode="&#xda;" horiz-adv-x="1835" 
d="M61 1493q136 -5 375 -57q221 52 375 57v-72q-87 -7 -128 -50t-51.5 -121.5t-10.5 -237.5v-107q0 -201 13 -339.5t42 -213.5q43 -102 130 -156.5t210 -54.5q241 0 342 191q40 74 52.5 190t12.5 314v200q0 154 -12 226t-57.5 110.5t-147.5 48.5v72q130 -6 297 -45
q176 38 283 45v-72q-88 -4 -130.5 -40t-54.5 -103.5t-12 -194.5v-325q0 -137 -9.5 -232t-37 -178.5t-76.5 -148.5q-54 -72 -135.5 -123t-190 -76t-233.5 -25q-317 0 -485 152q-72 64 -111.5 151.5t-54 196t-14.5 262.5v330q0 110 -4 166t-20.5 97.5t-53.5 64t-103 26.5v72z
M1266 1737l-226 -115h-79l194 205q59 65 105 65q31 0 53 -22t22 -53q0 -48 -69 -80z" />
    <glyph glyph-name="Ucircumflex" unicode="&#xdb;" horiz-adv-x="1835" 
d="M61 1493q136 -5 375 -57q221 52 375 57v-72q-87 -7 -128 -50t-51.5 -121.5t-10.5 -237.5v-107q0 -201 13 -339.5t42 -213.5q43 -102 130 -156.5t210 -54.5q241 0 342 191q40 74 52.5 190t12.5 314v200q0 154 -12 226t-57.5 110.5t-147.5 48.5v72q130 -6 297 -45
q176 38 283 45v-72q-88 -4 -130.5 -40t-54.5 -103.5t-12 -194.5v-325q0 -137 -9.5 -232t-37 -178.5t-76.5 -148.5q-54 -72 -135.5 -123t-190 -76t-233.5 -25q-317 0 -485 152q-72 64 -111.5 151.5t-54 196t-14.5 262.5v330q0 110 -4 166t-20.5 97.5t-53.5 64t-103 26.5v72z
M911 1862h136l172 -258h-74l-166 118l-166 -118h-74z" />
    <glyph glyph-name="Udieresis" unicode="&#xdc;" horiz-adv-x="1835" 
d="M61 1493q136 -5 375 -57q221 52 375 57v-72q-87 -7 -128 -50t-51.5 -121.5t-10.5 -237.5v-107q0 -201 13 -339.5t42 -213.5q43 -102 130 -156.5t210 -54.5q241 0 342 191q40 74 52.5 190t12.5 314v200q0 154 -12 226t-57.5 110.5t-147.5 48.5v72q130 -6 297 -45
q176 38 283 45v-72q-88 -4 -130.5 -40t-54.5 -103.5t-12 -194.5v-325q0 -137 -9.5 -232t-37 -178.5t-76.5 -148.5q-54 -72 -135.5 -123t-190 -76t-233.5 -25q-317 0 -485 152q-72 64 -111.5 151.5t-54 196t-14.5 262.5v330q0 110 -4 166t-20.5 97.5t-53.5 64t-103 26.5v72z
M850 1821q48 0 80.5 -31.5t32.5 -79.5t-32.5 -81.5t-80.5 -33.5t-81.5 33.5t-33.5 79.5q0 47 34 80t81 33zM1161 1821h2q48 0 80.5 -31.5t32.5 -79.5q0 -49 -33 -82t-82 -33q-47 0 -80.5 33.5t-33.5 79.5q0 47 34 80t80 33z" />
    <glyph glyph-name="Yacute" unicode="&#xdd;" horiz-adv-x="1526" 
d="M-25 1493q184 -9 363 -51q71 20 155.5 32t188.5 19v-72q-55 -8 -78.5 -23t-23.5 -48q0 -86 303 -557q87 148 145 253t86.5 174t28.5 111q0 84 -129 90v72q151 -6 299 -45q128 35 268 45v-72q-69 -7 -120 -44t-95 -94t-127 -181q-171 -265 -213 -361q-37 -87 -37 -215v-20
q0 -165 14 -250.5t62.5 -131t148.5 -54.5v-70q-167 5 -413 57q-245 -52 -416 -57v70q88 5 136.5 38t68.5 101.5t20 183.5v72q0 66 -5 106.5t-25 79.5q-22 49 -84.5 146.5t-161.5 240.5q-109 159 -159.5 227t-100.5 111.5t-99 44.5v72zM1079 1726l-225 -114h-80l195 205
q32 36 54 50.5t50 14.5q19 0 37.5 -10t28.5 -28.5t10 -37.5q0 -46 -70 -80z" />
    <glyph glyph-name="Thorn" unicode="&#xde;" horiz-adv-x="1460" 
d="M47 1423v70q167 -8 387 -51q219 43 383 51v-70q-94 -22 -138 -72.5t-44 -140.5v-24q144 16 211 16q280 0 422.5 -102.5t142.5 -300.5q0 -86 -39.5 -160t-115 -130.5t-178 -87t-230.5 -30.5q-97 0 -154 21l17 80q37 -5 65 -5q69 0 120.5 34t79.5 99.5t28 155.5
q0 160 -73.5 244t-211.5 84q-16 0 -84 -6v-586q0 -127 6.5 -205.5t29 -130t68 -76.5t131.5 -30v-70q-203 0 -428 57q-241 -52 -395 -57v70q94 10 137 54t54.5 124t11.5 241v500q0 163 -11.5 245.5t-54.5 129t-137 59.5z" />
    <glyph glyph-name="germandbls" unicode="&#xdf;" horiz-adv-x="1370" 
d="M387 53q-85 -21 -169 -35.5t-159 -17.5v72q69 4 102 35.5t40.5 89t7.5 188.5v446h-133v87h12q52 0 77 13.5t32.5 38.5t11 77.5t10.5 97.5q35 199 168.5 302t360.5 103q102 0 185.5 -24.5t142 -69.5t88.5 -108.5t30 -141.5q0 -90 -45 -169.5t-132 -141t-220 -107.5
q165 -25 285 -92t182.5 -163.5t62.5 -208.5q0 -100 -52.5 -180t-148.5 -123.5t-219 -43.5q-62 0 -121 18t-100 46l27 78q47 -31 94 -31q143 0 143 252q0 193 -75 288t-228 99v104q74 3 121 42.5t68.5 118.5t21.5 196q0 274 -141 274q-47 0 -77.5 -26t-47 -76.5t-22 -120.5
t-5.5 -182v-592q0 -257 35 -465q-100 11 -213 53z" />
    <glyph glyph-name="agrave" unicode="&#xe0;" horiz-adv-x="1270" 
d="M1079 598v-203q0 -87 5.5 -134.5t24 -71t56.5 -23.5q23 0 64 16l28 -55q-56 -66 -131 -102.5t-143 -36.5q-181 0 -215 172q-53 -81 -154 -128.5t-227 -47.5q-146 0 -228.5 66.5t-82.5 180.5q0 68 28.5 118.5t84 85t141.5 60t194 44.5q94 17 134.5 30t57.5 40t17 83
q0 90 -10 142.5t-39.5 79t-87.5 26.5q-63 0 -103 -39t-40 -102q0 -54 26 -117q-70 -37 -164 -37q-62 0 -99.5 35t-37.5 94q0 70 56 128.5t162.5 93t246.5 34.5q160 0 255.5 -45.5t138 -140t42.5 -246.5zM729 500q-118 -35 -170 -56t-83.5 -58.5t-31.5 -104.5q0 -40 16.5 -71
t46 -48t68.5 -17q154 0 154 199v156zM649 1335l197 -202h-80l-227 112q-38 20 -54 37.5t-16 42.5q0 34 22 55t54 21q44 0 104 -66z" />
    <glyph glyph-name="aacute" unicode="&#xe1;" horiz-adv-x="1270" 
d="M1079 598v-203q0 -87 5.5 -134.5t24 -71t56.5 -23.5q23 0 64 16l28 -55q-56 -66 -131 -102.5t-143 -36.5q-181 0 -215 172q-53 -81 -154 -128.5t-227 -47.5q-146 0 -228.5 66.5t-82.5 180.5q0 68 28.5 118.5t84 85t141.5 60t194 44.5q94 17 134.5 30t57.5 40t17 83
q0 90 -10 142.5t-39.5 79t-87.5 26.5q-63 0 -103 -39t-40 -102q0 -54 26 -117q-70 -37 -164 -37q-62 0 -99.5 35t-37.5 94q0 70 56 128.5t162.5 93t246.5 34.5q160 0 255.5 -45.5t138 -140t42.5 -246.5zM729 500q-118 -35 -170 -56t-83.5 -58.5t-31.5 -104.5q0 -40 16.5 -71
t46 -48t68.5 -17q154 0 154 199v156zM823 1243l-225 -115h-80l195 205q60 66 104 66q19 0 37.5 -10t28.5 -28.5t10 -37.5q0 -46 -70 -80z" />
    <glyph glyph-name="acircumflex" unicode="&#xe2;" horiz-adv-x="1270" 
d="M1079 598v-203q0 -87 5.5 -134.5t24 -71t56.5 -23.5q23 0 64 16l28 -55q-56 -66 -131 -102.5t-143 -36.5q-181 0 -215 172q-53 -81 -154 -128.5t-227 -47.5q-146 0 -228.5 66.5t-82.5 180.5q0 68 28.5 118.5t84 85t141.5 60t194 44.5q94 17 134.5 30t57.5 40t17 83
q0 90 -10 142.5t-39.5 79t-87.5 26.5q-63 0 -103 -39t-40 -102q0 -54 26 -117q-70 -37 -164 -37q-62 0 -99.5 35t-37.5 94q0 70 56 128.5t162.5 93t246.5 34.5q160 0 255.5 -45.5t138 -140t42.5 -246.5zM729 500q-118 -35 -170 -56t-83.5 -58.5t-31.5 -104.5q0 -40 16.5 -71
t46 -48t68.5 -17q154 0 154 199v156zM555 1380h135l172 -258h-74l-165 119l-166 -119h-74z" />
    <glyph glyph-name="atilde" unicode="&#xe3;" horiz-adv-x="1270" 
d="M1079 598v-203q0 -87 5.5 -134.5t24 -71t56.5 -23.5q23 0 64 16l28 -55q-56 -66 -131 -102.5t-143 -36.5q-181 0 -215 172q-53 -81 -154 -128.5t-227 -47.5q-146 0 -228.5 66.5t-82.5 180.5q0 68 28.5 118.5t84 85t141.5 60t194 44.5q94 17 134.5 30t57.5 40t17 83
q0 90 -10 142.5t-39.5 79t-87.5 26.5q-63 0 -103 -39t-40 -102q0 -54 26 -117q-70 -37 -164 -37q-62 0 -99.5 35t-37.5 94q0 70 56 128.5t162.5 93t246.5 34.5q160 0 255.5 -45.5t138 -140t42.5 -246.5zM729 500q-118 -35 -170 -56t-83.5 -58.5t-31.5 -104.5q0 -40 16.5 -71
t46 -48t68.5 -17q154 0 154 199v156zM807 1358l49 2q-18 -93 -56.5 -137.5t-103.5 -44.5q-26 0 -41 4l-80 22q-18 4 -36 4q-54 0 -66 -65h-57q33 182 159 182q35 0 54 -4l84 -21q24 -4 28 -4q25 0 41 15t25 47z" />
    <glyph glyph-name="adieresis" unicode="&#xe4;" horiz-adv-x="1270" 
d="M1079 598v-203q0 -87 5.5 -134.5t24 -71t56.5 -23.5q23 0 64 16l28 -55q-56 -66 -131 -102.5t-143 -36.5q-181 0 -215 172q-53 -81 -154 -128.5t-227 -47.5q-146 0 -228.5 66.5t-82.5 180.5q0 68 28.5 118.5t84 85t141.5 60t194 44.5q94 17 134.5 30t57.5 40t17 83
q0 90 -10 142.5t-39.5 79t-87.5 26.5q-63 0 -103 -39t-40 -102q0 -54 26 -117q-70 -37 -164 -37q-62 0 -99.5 35t-37.5 94q0 70 56 128.5t162.5 93t246.5 34.5q160 0 255.5 -45.5t138 -140t42.5 -246.5zM729 500q-118 -35 -170 -56t-83.5 -58.5t-31.5 -104.5q0 -40 16.5 -71
t46 -48t68.5 -17q154 0 154 199v156zM453 1350q49 0 80.5 -32.5t31.5 -78.5q0 -48 -31.5 -81.5t-80.5 -33.5q-48 0 -81.5 33.5t-33.5 79.5q0 47 34 80t81 33zM764 1350h2q49 0 81 -32t32 -79q0 -49 -34 -82t-81 -33q-48 0 -81.5 33.5t-33.5 79.5q0 47 34 80t81 33z" />
    <glyph glyph-name="aring" unicode="&#xe5;" horiz-adv-x="1270" 
d="M1079 598v-203q0 -87 5.5 -134.5t24 -71t56.5 -23.5q23 0 64 16l28 -55q-56 -66 -131 -102.5t-143 -36.5q-181 0 -215 172q-53 -81 -154 -128.5t-227 -47.5q-146 0 -228.5 66.5t-82.5 180.5q0 68 28.5 118.5t84 85t141.5 60t194 44.5q94 17 134.5 30t57.5 40t17 83
q0 90 -10 142.5t-39.5 79t-87.5 26.5q-63 0 -103 -39t-40 -102q0 -54 26 -117q-70 -37 -164 -37q-62 0 -99.5 35t-37.5 94q0 70 56 128.5t162.5 93t246.5 34.5q160 0 255.5 -45.5t138 -140t42.5 -246.5zM729 500q-118 -35 -170 -56t-83.5 -58.5t-31.5 -104.5q0 -40 16.5 -71
t46 -48t68.5 -17q154 0 154 199v156zM637 1565h-2q90 0 153.5 -62t63.5 -153q0 -90 -63.5 -153.5t-153.5 -63.5q-89 0 -151 63t-62 152q0 91 63 154t152 63zM635 1464l-2 2q-46 0 -79.5 -32.5t-33.5 -79.5q0 -49 33 -82t82 -33q47 0 80 33t33 80q0 28 -15.5 55t-42 42
t-55.5 15z" />
    <glyph glyph-name="ae" unicode="&#xe6;" horiz-adv-x="1782" 
d="M1329 678q35 0 48.5 8t13.5 35q0 56 -24.5 106.5t-67 80.5t-93.5 30q-76 0 -122 -60.5t-46 -160.5q1 -12 1.5 -21.5t0.5 -17.5h289zM1712 588h-561q-41 0 -64 -6.5t-30.5 -22t-7.5 -45.5q0 -104 46.5 -191.5t130 -138.5t191.5 -51q77 0 154 28t141 83l35 -66
q-49 -60 -125.5 -105.5t-174.5 -71.5t-204 -26q-74 0 -142 13t-124 36t-104 58t-85 80q-60 -84 -166.5 -130t-246.5 -46q-139 0 -219 66t-80 179q0 91 50 149.5t145.5 94t252.5 64.5q102 19 138 30t53.5 38.5t17.5 84.5q0 90 -10 142.5t-39.5 79t-87.5 26.5q-63 0 -103 -39
t-40 -102q0 -54 26 -117q-70 -37 -164 -37q-62 0 -99.5 35t-37.5 94q0 70 56 128.5t162.5 93t246.5 34.5q191 0 305 -88q59 45 138 68.5t174 23.5q98 0 183.5 -31t146.5 -84.5t93.5 -123t32.5 -146.5q0 -21 -4 -61zM729 500q-118 -35 -170 -56t-83.5 -58.5t-31.5 -104.5
q0 -40 16.5 -71t46 -48t68.5 -17q154 0 154 199v156z" />
    <glyph glyph-name="ccedilla" unicode="&#xe7;" horiz-adv-x="1096" 
d="M1069 135q-75 -74 -197 -116t-270 -42q-167 0 -288.5 60t-187 173t-65.5 261q0 124 45.5 227.5t128.5 178.5t198.5 116t252.5 41q109 0 188.5 -30.5t121.5 -81.5t42 -111q0 -128 -207 -137q-18 126 -71.5 192t-134.5 66q-94 0 -149.5 -76.5t-55.5 -214.5
q0 -149 47.5 -266t133.5 -181.5t196 -64.5q123 0 233 76zM516 -18h64l-17 -91q29 3 58 3q66 0 102.5 -33t36.5 -86q0 -87 -87 -126.5t-270 -41.5v65q109 8 157 29t48 66q0 26 -19 41.5t-52 15.5q-10 0 -48 -4z" />
    <glyph glyph-name="egrave" unicode="&#xe8;" horiz-adv-x="1165" 
d="M713 678q35 0 48 7.5t13 35.5q0 88 -53.5 152.5t-130.5 64.5q-75 0 -121.5 -60.5t-46.5 -160.5q1 -12 1.5 -21.5t0.5 -17.5h289zM1096 588h-561q-42 0 -64.5 -6.5t-30.5 -22t-8 -45.5q0 -104 46.5 -191t130.5 -138.5t192 -51.5q77 0 155 28.5t140 82.5l34 -66
q-78 -94 -213.5 -148.5t-306.5 -54.5q-123 0 -223.5 36t-173 104t-111.5 162.5t-39 207.5q0 156 74 282t204.5 196.5t291.5 70.5q134 0 240.5 -52t166.5 -140t60 -193q0 -21 -4 -61zM580 1350l196 -203h-80l-227 113q-70 33 -70 79q0 34 22 55t54 21q46 0 105 -65z" />
    <glyph glyph-name="eacute" unicode="&#xe9;" horiz-adv-x="1165" 
d="M713 678q35 0 48 7.5t13 35.5q0 88 -53.5 152.5t-130.5 64.5q-75 0 -121.5 -60.5t-46.5 -160.5q1 -12 1.5 -21.5t0.5 -17.5h289zM1096 588h-561q-42 0 -64.5 -6.5t-30.5 -22t-8 -45.5q0 -104 46.5 -191t130.5 -138.5t192 -51.5q77 0 155 28.5t140 82.5l34 -66
q-78 -94 -213.5 -148.5t-306.5 -54.5q-123 0 -223.5 36t-173 104t-111.5 162.5t-39 207.5q0 156 74 282t204.5 196.5t291.5 70.5q134 0 240.5 -52t166.5 -140t60 -193q0 -21 -4 -61zM733 1278l-225 -115h-80l195 205q60 66 104 66q19 0 37.5 -10t28.5 -28.5t10 -37.5
q0 -47 -70 -80z" />
    <glyph glyph-name="ecircumflex" unicode="&#xea;" horiz-adv-x="1165" 
d="M713 678q35 0 48 7.5t13 35.5q0 88 -53.5 152.5t-130.5 64.5q-75 0 -121.5 -60.5t-46.5 -160.5q1 -12 1.5 -21.5t0.5 -17.5h289zM1096 588h-561q-42 0 -64.5 -6.5t-30.5 -22t-8 -45.5q0 -104 46.5 -191t130.5 -138.5t192 -51.5q77 0 155 28.5t140 82.5l34 -66
q-78 -94 -213.5 -148.5t-306.5 -54.5q-123 0 -223.5 36t-173 104t-111.5 162.5t-39 207.5q0 156 74 282t204.5 196.5t291.5 70.5q134 0 240.5 -52t166.5 -140t60 -193q0 -21 -4 -61zM524 1376h135l172 -258h-73l-166 119l-166 -119h-74z" />
    <glyph glyph-name="edieresis" unicode="&#xeb;" horiz-adv-x="1165" 
d="M713 678q35 0 48 7.5t13 35.5q0 88 -53.5 152.5t-130.5 64.5q-75 0 -121.5 -60.5t-46.5 -160.5q1 -12 1.5 -21.5t0.5 -17.5h289zM1096 588h-561q-42 0 -64.5 -6.5t-30.5 -22t-8 -45.5q0 -104 46.5 -191t130.5 -138.5t192 -51.5q77 0 155 28.5t140 82.5l34 -66
q-78 -94 -213.5 -148.5t-306.5 -54.5q-123 0 -223.5 36t-173 104t-111.5 162.5t-39 207.5q0 156 74 282t204.5 196.5t291.5 70.5q134 0 240.5 -52t166.5 -140t60 -193q0 -21 -4 -61zM453 1376q48 0 80 -32t32 -78q0 -50 -31 -82.5t-81 -32.5q-47 0 -81 34t-34 79
q0 47 34.5 79.5t80.5 32.5zM764 1376h2q48 0 80.5 -31.5t32.5 -78.5q0 -51 -33 -83t-82 -32q-47 0 -81 34t-34 79q0 47 34.5 79.5t80.5 32.5z" />
    <glyph glyph-name="igrave" unicode="&#xec;" horiz-adv-x="782" 
d="M539 1034l63 -39q-10 -59 -14 -142t-4 -167v-321q0 -83 4.5 -134.5t20 -85t49 -50.5t94.5 -23v-72q-173 3 -349 51q-183 -48 -346 -51v72q82 4 117 34t44 89t9 194v211q0 116 -7 165t-34.5 73t-91.5 24h-12v70q145 22 242 22q43 0 90 -2q56 45 125 82zM426 1382l197 -202
h-80l-228 112q-69 34 -69 80q0 34 22 55t54 21q44 0 104 -66z" />
    <glyph glyph-name="iacute" unicode="&#xed;" horiz-adv-x="782" 
d="M539 1034l63 -39q-10 -59 -14 -142t-4 -167v-321q0 -83 4.5 -134.5t20 -85t49 -50.5t94.5 -23v-72q-173 3 -349 51q-183 -48 -346 -51v72q82 4 117 34t44 89t9 194v211q0 116 -7 165t-34.5 73t-91.5 24h-12v70q145 22 242 22q43 0 90 -2q56 45 125 82zM539 1290
l-226 -114h-80l195 204q60 66 104 66q19 0 37.5 -10t28.5 -28.5t10 -37.5q0 -46 -69 -80z" />
    <glyph glyph-name="icircumflex" unicode="&#xee;" horiz-adv-x="782" 
d="M539 1034l63 -39q-10 -59 -14 -142t-4 -167v-321q0 -83 4.5 -134.5t20 -85t49 -50.5t94.5 -23v-72q-173 3 -349 51q-183 -48 -346 -51v72q82 4 117 34t44 89t9 194v211q0 116 -7 165t-34.5 73t-91.5 24h-12v70q145 22 242 22q43 0 90 -2q56 45 125 82zM326 1395h135
l172 -258h-74l-166 118l-166 -118h-73z" />
    <glyph glyph-name="idieresis" unicode="&#xef;" horiz-adv-x="782" 
d="M539 1034l63 -39q-10 -59 -14 -142t-4 -167v-321q0 -83 4.5 -134.5t20 -85t49 -50.5t94.5 -23v-72q-173 3 -349 51q-183 -48 -346 -51v72q82 4 117 34t44 89t9 194v211q0 116 -7 165t-34.5 73t-91.5 24h-12v70q145 22 242 22q43 0 90 -2q56 45 125 82zM233 1374
q48 0 80.5 -31.5t32.5 -78.5q0 -50 -31.5 -82.5t-81.5 -32.5q-46 0 -80 34t-34 79q0 47 34.5 79.5t79.5 32.5zM545 1374h2q48 0 80 -32t32 -78q0 -51 -32 -83t-82 -32q-47 0 -81 34t-34 79q0 47 34.5 79.5t80.5 32.5z" />
    <glyph glyph-name="eth" unicode="&#xf0;" horiz-adv-x="1358" 
d="M821 971q-51 122 -129 237l-356 -149l-47 115l338 143q-67 91 -144 180l95 66q118 -78 225 -172l317 137l47 -111l-268 -121q182 -193 273.5 -381.5t91.5 -379.5q0 -129 -40 -233.5t-117 -177.5t-187.5 -111t-249.5 -38q-183 0 -318 66t-206.5 181t-71.5 261
q0 144 72.5 260t202.5 182t298 66q90 0 174 -20zM670 903q-215 0 -215 -420q0 -205 54.5 -311t160.5 -106t160.5 104.5t54.5 312.5q0 420 -215 420z" />
    <glyph glyph-name="ntilde" unicode="&#xf1;" horiz-adv-x="1460" 
d="M487 1034l54 -35q-13 -74 -17 -149l23 -8q33 62 83.5 104.5t121 65t149.5 22.5q207 0 298 -119.5t91 -371.5v-158q0 -101 4 -151t18.5 -85.5t45.5 -54t84 -22.5v-72q-142 0 -316 47q-120 -38 -217 -47q10 78 15.5 200t5.5 289q0 149 -12.5 230.5t-51 122.5t-114.5 41
q-189 0 -189 -322v-174q0 -101 4 -151.5t18 -85.5t45 -54.5t85 -23.5v-72q-164 6 -328 51q-187 -46 -330 -51v72q72 4 104.5 36.5t40 93.5t7.5 201v181q0 123 -7.5 175.5t-35.5 77.5t-92 25h-17v72q151 24 262 24q17 0 28 -0.5t24 -1.5q72 56 116 78zM981 1368l49 2
q-35 -182 -160 -182q-26 0 -41 4l-79 22q-19 5 -37 5q-54 0 -66 -66h-57q33 182 160 182q34 0 53 -4l84 -20q24 -4 28 -4q49 0 66 61z" />
    <glyph glyph-name="ograve" unicode="&#xf2;" horiz-adv-x="1358" 
d="M678 940q-110 0 -165.5 -109t-55.5 -325t56 -326t165 -110t166 109.5t57 326.5t-57 325.5t-166 108.5zM1292 504q0 -151 -74 -271.5t-213.5 -189t-326.5 -68.5q-186 0 -326 68.5t-214.5 189t-74.5 271.5q0 111 42.5 210t123 170.5t194 110.5t255.5 39q141 0 255.5 -39.5
t194 -110.5t122 -168.5t42.5 -211.5zM682 1350l197 -203h-80l-228 113q-69 32 -69 79q0 34 22 55t54 21q45 0 104 -65z" />
    <glyph glyph-name="oacute" unicode="&#xf3;" horiz-adv-x="1358" 
d="M678 940q-110 0 -165.5 -109t-55.5 -325t56 -326t165 -110t166 109.5t57 326.5t-57 325.5t-166 108.5zM1292 504q0 -151 -74 -271.5t-213.5 -189t-326.5 -68.5q-186 0 -326 68.5t-214.5 189t-74.5 271.5q0 111 42.5 210t123 170.5t194 110.5t255.5 39q141 0 255.5 -39.5
t194 -110.5t122 -168.5t42.5 -211.5zM846 1268l-225 -115h-80l194 205q59 65 105 65q31 0 53 -22t22 -53q0 -48 -69 -80z" />
    <glyph glyph-name="ocircumflex" unicode="&#xf4;" horiz-adv-x="1358" 
d="M678 940q-110 0 -165.5 -109t-55.5 -325t56 -326t165 -110t166 109.5t57 326.5t-57 325.5t-166 108.5zM1292 504q0 -151 -74 -271.5t-213.5 -189t-326.5 -68.5q-186 0 -326 68.5t-214.5 189t-74.5 271.5q0 111 42.5 210t123 170.5t194 110.5t255.5 39q141 0 255.5 -39.5
t194 -110.5t122 -168.5t42.5 -211.5zM616 1374h136l172 -258h-74l-166 119l-166 -119h-74z" />
    <glyph glyph-name="otilde" unicode="&#xf5;" horiz-adv-x="1358" 
d="M678 940q-110 0 -165.5 -109t-55.5 -325t56 -326t165 -110t166 109.5t57 326.5t-57 325.5t-166 108.5zM1292 504q0 -151 -74 -271.5t-213.5 -189t-326.5 -68.5q-186 0 -326 68.5t-214.5 189t-74.5 271.5q0 111 42.5 210t123 170.5t194 110.5t255.5 39q141 0 255.5 -39.5
t194 -110.5t122 -168.5t42.5 -211.5zM870 1352l50 2q-18 -93 -57 -138t-103 -45q-27 0 -41 5l-80 22q-18 4 -37 4q-53 0 -65 -65h-58q34 182 160 182q35 0 53 -4l84 -21q24 -4 29 -4q26 0 40.5 14t24.5 48z" />
    <glyph glyph-name="odieresis" unicode="&#xf6;" horiz-adv-x="1358" 
d="M678 940q-110 0 -165.5 -109t-55.5 -325t56 -326t165 -110t166 109.5t57 326.5t-57 325.5t-166 108.5zM1292 504q0 -151 -74 -271.5t-213.5 -189t-326.5 -68.5q-186 0 -326 68.5t-214.5 189t-74.5 271.5q0 111 42.5 210t123 170.5t194 110.5t255.5 39q141 0 255.5 -39.5
t194 -110.5t122 -168.5t42.5 -211.5zM535 1354q48 0 80 -32t32 -79q0 -48 -31.5 -81.5t-80.5 -33.5q-48 0 -81.5 33.5t-33.5 79.5t34.5 79.5t80.5 33.5zM846 1354h2q48 0 80.5 -31.5t32.5 -79.5q0 -49 -34 -82t-81 -33q-48 0 -81.5 33.5t-33.5 79.5t34.5 79.5t80.5 33.5z
" />
    <glyph glyph-name="divide" unicode="&#xf7;" horiz-adv-x="1706" 
d="M854 1182q67 0 115.5 -48.5t48.5 -117.5q0 -67 -47.5 -115.5t-118.5 -48.5q-68 0 -116 48t-48 116q0 69 49.5 117.5t116.5 48.5zM254 727h1198v-231h-1198v231zM854 371q68 0 116 -48t48 -118q0 -68 -47 -116t-117 -48q-67 0 -116.5 47.5t-49.5 116.5t49.5 117.5
t116.5 48.5z" />
    <glyph glyph-name="oslash" unicode="&#xf8;" horiz-adv-x="1358" 
d="M1143 1130l106 -98l-129 -143q172 -151 172 -385q0 -151 -74 -271.5t-213.5 -189t-326.5 -68.5q-173 0 -320 68l-151 -176l-111 98l140 156q-173 153 -173 383q0 110 42 208.5t122 170.5t195 111.5t256 39.5q196 0 319 -67zM846 831q-50 109 -168 109q-110 0 -165.5 -109
t-55.5 -325q0 -77 10 -172zM893 662l-379 -494q54 -98 164 -98q109 0 166 109.5t57 326.5q0 44 -8 156z" />
    <glyph glyph-name="ugrave" unicode="&#xf9;" horiz-adv-x="1450" 
d="M1202 1038l66 -37q-23 -150 -23 -311v-235q0 -102 13 -169.5t43.5 -99.5t82.5 -32q4 0 46 4l12 -78q-121 -33 -305 -33h-37q-62 -32 -105 -65l-67 38q-19 61 -19 158q-29 -63 -83.5 -108t-131.5 -69t-174 -24q-106 0 -173 30t-106.5 90t-56 151.5t-16.5 214.5v131
q0 113 -7 161t-32.5 71.5t-87.5 25.5v70q150 24 311 24q57 47 127 84l66 -39q-17 -116 -17 -389v-110q0 -132 14 -209t50.5 -116.5t103.5 -39.5q94 0 145.5 77.5t51.5 227.5v154q0 120 -7 171t-32.5 76t-87.5 27v72q129 22 274 22h35q57 47 127 84zM725 1343l197 -202h-80
l-228 112q-69 34 -69 80q0 34 22 55t54 21q44 0 104 -66z" />
    <glyph glyph-name="uacute" unicode="&#xfa;" horiz-adv-x="1450" 
d="M1202 1038l66 -37q-23 -150 -23 -311v-235q0 -102 13 -169.5t43.5 -99.5t82.5 -32q4 0 46 4l12 -78q-121 -33 -305 -33h-37q-62 -32 -105 -65l-67 38q-19 61 -19 158q-29 -63 -83.5 -108t-131.5 -69t-174 -24q-106 0 -173 30t-106.5 90t-56 151.5t-16.5 214.5v131
q0 113 -7 161t-32.5 71.5t-87.5 25.5v70q150 24 311 24q57 47 127 84l66 -39q-17 -116 -17 -389v-110q0 -132 14 -209t50.5 -116.5t103.5 -39.5q94 0 145.5 77.5t51.5 227.5v154q0 120 -7 171t-32.5 76t-87.5 27v72q129 22 274 22h35q57 47 127 84zM950 1251l-225 -114h-80
l195 204q60 66 104 66q19 0 37.5 -10t28.5 -28.5t10 -37.5q0 -46 -70 -80z" />
    <glyph glyph-name="ucircumflex" unicode="&#xfb;" horiz-adv-x="1450" 
d="M1202 1038l66 -37q-23 -150 -23 -311v-235q0 -102 13 -169.5t43.5 -99.5t82.5 -32q4 0 46 4l12 -78q-121 -33 -305 -33h-37q-62 -32 -105 -65l-67 38q-19 61 -19 158q-29 -63 -83.5 -108t-131.5 -69t-174 -24q-106 0 -173 30t-106.5 90t-56 151.5t-16.5 214.5v131
q0 113 -7 161t-32.5 71.5t-87.5 25.5v70q150 24 311 24q57 47 127 84l66 -39q-17 -116 -17 -389v-110q0 -132 14 -209t50.5 -116.5t103.5 -39.5q94 0 145.5 77.5t51.5 227.5v154q0 120 -7 171t-32.5 76t-87.5 27v72q129 22 274 22h35q57 47 127 84zM684 1401h135l172 -258
h-73l-166 119l-166 -119h-74z" />
    <glyph glyph-name="udieresis" unicode="&#xfc;" horiz-adv-x="1450" 
d="M1202 1038l66 -37q-23 -150 -23 -311v-235q0 -102 13 -169.5t43.5 -99.5t82.5 -32q4 0 46 4l12 -78q-121 -33 -305 -33h-37q-62 -32 -105 -65l-67 38q-19 61 -19 158q-29 -63 -83.5 -108t-131.5 -69t-174 -24q-106 0 -173 30t-106.5 90t-56 151.5t-16.5 214.5v131
q0 113 -7 161t-32.5 71.5t-87.5 25.5v70q150 24 311 24q57 47 127 84l66 -39q-17 -116 -17 -389v-110q0 -132 14 -209t50.5 -116.5t103.5 -39.5q94 0 145.5 77.5t51.5 227.5v154q0 120 -7 171t-32.5 76t-87.5 27v72q129 22 274 22h35q57 47 127 84zM592 1360
q48 0 80.5 -31.5t32.5 -79.5q0 -49 -31.5 -81.5t-81.5 -32.5q-47 0 -81 34t-34 78q0 46 34.5 79.5t80.5 33.5zM903 1360h2q48 0 80.5 -31.5t32.5 -79.5q0 -32 -15 -58t-40.5 -41t-59.5 -15q-46 0 -80.5 33.5t-34.5 78.5t35 79t80 34z" />
    <glyph glyph-name="yacute" unicode="&#xfd;" horiz-adv-x="1210" 
d="M-35 991q171 -6 314 -53q138 44 317 53v-67q-82 -6 -82 -78q0 -37 29.5 -124t89.5 -206l92 -184l88 211q61 144 61 235q0 137 -124 146v67q130 -3 276 -41q119 35 225 41v-67q-74 -1 -137 -75.5t-128.5 -209.5t-180.5 -403q-124 -286 -180 -409t-124 -230t-142 -160
t-171 -53q-67 0 -108 34t-41 86q0 71 45 119q58 -39 119 -39q74 0 132 38t110 117.5t104 197.5q-11 30 -35 85t-43 92.5t-36.5 72.5l-28.5 57l-156 311q-71 140 -111 210.5t-82 112.5t-92 46v67zM889 1245l-225 -115h-80l194 205q60 66 105 66q32 0 53.5 -21.5t21.5 -54.5
q0 -46 -69 -80z" />
    <glyph glyph-name="thorn" unicode="&#xfe;" horiz-adv-x="1417" 
d="M190 1090v47q0 119 -7 169.5t-36.5 74.5t-95.5 24h-31v72q126 12 216 12q60 0 143 -6q53 50 121 88l65 -37q-20 -151 -20 -420v-250q49 78 134.5 121t190.5 43t190.5 -35t147.5 -100t96.5 -157.5t34.5 -203.5q0 -159 -76 -283t-215.5 -193.5t-318.5 -69.5q-99 0 -184 26
v-198q0 -108 5 -161t25 -91.5t63 -58t122 -25.5v-70q-170 5 -393 51q-188 -46 -328 -51v70q72 4 104 38t39.5 95.5t7.5 198.5v1280zM545 160q73 -84 172 -84q80 0 135.5 42.5t84 129t28.5 211.5q0 129 -29 218.5t-82.5 136t-122.5 46.5q-102 0 -144 -77t-42 -242v-381z" />
    <glyph glyph-name="ydieresis" unicode="&#xff;" horiz-adv-x="1210" 
d="M-35 991q171 -6 314 -53q138 44 317 53v-67q-82 -6 -82 -78q0 -37 29.5 -124t89.5 -206l92 -184l88 211q61 144 61 235q0 137 -124 146v67q130 -3 276 -41q119 35 225 41v-67q-74 -1 -137 -75.5t-128.5 -209.5t-180.5 -403q-124 -286 -180 -409t-124 -230t-142 -160
t-171 -53q-67 0 -108 34t-41 86q0 71 45 119q58 -39 119 -39q74 0 132 38t110 117.5t104 197.5q-11 30 -35 85t-43 92.5t-36.5 72.5l-28.5 57l-156 311q-71 140 -111 210.5t-82 112.5t-92 46v67zM518 1319q48 0 80.5 -31.5t32.5 -79.5q0 -49 -31.5 -81.5t-81.5 -32.5
q-46 0 -80.5 33.5t-34.5 78.5t35 79t80 34zM829 1319h2q48 0 80.5 -31.5t32.5 -79.5q0 -32 -15 -58t-40.5 -41t-59.5 -15q-46 0 -80 34t-34 78q0 46 34.5 79.5t79.5 33.5z" />
    <glyph glyph-name="lslash" horiz-adv-x="901" 
d="M586 1571l63 -37q-18 -136 -18 -420v-303l203 102v-137l-203 -96v-291q0 -133 9 -191.5t44.5 -89t116.5 -36.5v-72q-158 6 -350 51q-179 -42 -347 -51v72q61 3 96.5 20.5t50.5 53.5t19 86.5t4 156.5v172l-202 -102v137l202 96v445q0 119 -7 169.5t-36.5 74.5t-95.5 24
h-31v72q126 12 218 12q30 0 49 -1t55 -3t37 -2h2q53 50 121 88z" />
    <glyph glyph-name="dotaccent" horiz-adv-x="1024" 
d="M512 1479q64 0 107 -43t43 -105q0 -64 -42.5 -106.5t-107.5 -42.5q-60 0 -103.5 44.5t-43.5 104.5q0 37 20.5 72t55 55.5t71.5 20.5z" />
    <glyph glyph-name="hungarumlaut" horiz-adv-x="1024" 
d="M596 1343l-225 -198h-90l147 270q37 67 65 95t70 28q40 0 66 -27t26 -65q0 -50 -59 -103zM934 1333l-291 -188h-90l223 287q42 55 71 78.5t75 23.5q37 0 64.5 -27.5t27.5 -66.5q0 -54 -80 -107z" />
    <glyph glyph-name="fi" horiz-adv-x="1548" 
d="M563 831v-444q0 -129 8 -186.5t41.5 -89.5t108.5 -39v-72q-133 5 -334 51q-187 -46 -330 -51v72q72 4 104.5 36.5t40 93.5t7.5 201v428h-135v87h8q48 0 72 9.5t35 30t18.5 62.5t13.5 78q90 456 610 456q131 0 230 -32.5t152 -89t53 -125.5q0 -66 -51 -105t-138 -39
q-21 0 -57 4q-2 93 -30.5 157.5t-81 99t-120.5 34.5q-85 0 -134.5 -45.5t-70 -136t-20.5 -234.5v-92h619q62 53 123 84l63 -39q-10 -60 -14 -143t-4 -166v-321q0 -83 4.5 -134.5t20 -85t49 -50.5t94.5 -23v-72q-173 3 -349 51q-170 -48 -327 -51v72q71 7 103.5 39.5t40 89.5
t7.5 186v129q0 164 -8.5 221t-44 75.5t-129.5 18.5h-248z" />
    <glyph glyph-name="sac" unicode="&#xf008;" horiz-adv-x="2" 
d="M-276 1270l-226 -115h-80l195 205q30 33 54 49t50 16q33 0 54.5 -21.5t21.5 -53.5q0 -48 -69 -80z" />
    <glyph glyph-name="huyen" unicode="&#xf00d;" horiz-adv-x="2" 
d="M-399 1331l196 -203h-80l-227 113q-38 20 -54 37.5t-16 42.5q0 34 22 55t54 21q45 0 105 -66z" />
    <glyph glyph-name="hoi" unicode="&#xf012;" horiz-adv-x="2" 
d="M-379 1423l2 -4q-24 -16 -61 -16q-60 0 -60 47q0 39 48 65.5t128 26.5t125 -31t45 -84q0 -24 -10.5 -44.5t-28 -36t-47 -34.5t-61.5 -38q-49 -28 -49 -53t26 -25h9q0 -24 -8.5 -31.5t-32.5 -7.5q-25 0 -42.5 16.5t-17.5 43.5q0 26 15 49t47 55q32 34 43.5 55.5t11.5 65.5
q0 31 -13 49t-36 18q-45 0 -45 -43q0 -20 12 -43z" />
    <glyph glyph-name="nga" unicode="&#xf01d;" horiz-adv-x="2" 
d="M-184 1352l49 2q-18 -93 -57 -138t-103 -45q-27 0 -41 5l-80 22q-18 4 -37 4q-53 0 -65 -65h-57q33 182 159 182q35 0 54 -4l83 -21q26 -4 29 -4q26 0 41.5 14.5t24.5 47.5z" />
    <glyph glyph-name="nang" unicode="&#xf02a;" horiz-adv-x="2" 
d="M-369 -113q33 0 59.5 -15.5t42 -41.5t15.5 -59q0 -48 -33.5 -82.5t-83.5 -34.5q-48 0 -82 34t-34 83q0 51 33.5 83.5t82.5 32.5z" />
    <glyph glyph-name="aa" horiz-adv-x="2" 
d="M0 0h66q13 -46 50 -65t109 -19q71 0 108.5 20t49.5 64h66q-13 -102 -72 -157.5t-152 -55.5t-152 54.5t-73 158.5z" />
    <glyph glyph-name="ab" horiz-adv-x="2" 
d="M0 0h135l172 -258h-74l-165 119l-166 -119h-74z" />
    <glyph glyph-name="dth" unicode="&#x111;" horiz-adv-x="1421" 
d="M1178 1571l63 -37q-8 -39 -10.5 -90t-7.5 -184h184v-103h-184v-702q0 -159 29.5 -230t107.5 -71q5 0 47 4l12 -78q-137 -29 -274 -29q-47 0 -70 2q-59 -27 -108 -67l-62 34q-17 60 -20 140q-47 -83 -141.5 -129.5t-223.5 -46.5q-135 0 -239.5 61t-161 172t-56.5 256
q0 158 76 284t216 195.5t321 69.5q103 0 190 -27v162h-368v103h366q-7 76 -35 110.5t-118 34.5h-31v72q114 12 215 12q75 0 162 -6q53 50 121 88zM866 827q-24 47 -68 74t-98 27q-80 0 -138.5 -40.5t-89 -120t-30.5 -187.5q0 -127 35 -221.5t97 -145.5t135 -51q63 0 107 36
t54 97q-4 94 -4 252v280z" />
    <glyph glyph-name="dth" unicode="&#x20ab;" horiz-adv-x="1421" 
d="M1178 1571l63 -37q-8 -39 -10.5 -90t-7.5 -184h184v-103h-184v-702q0 -159 29.5 -230t107.5 -71q5 0 47 4l12 -78q-137 -29 -274 -29q-47 0 -70 2q-59 -27 -108 -67l-62 34q-17 60 -20 140q-47 -83 -141.5 -129.5t-223.5 -46.5q-135 0 -239.5 61t-161 172t-56.5 256
q0 158 76 284t216 195.5t321 69.5q103 0 190 -27v162h-368v103h366q-7 76 -35 110.5t-118 34.5h-31v72q114 12 215 12q75 0 162 -6q53 50 121 88zM866 827q-24 47 -68 74t-98 27q-80 0 -138.5 -40.5t-89 -120t-30.5 -187.5q0 -127 35 -221.5t97 -145.5t135 -51q63 0 107 36
t54 97q-4 94 -4 252v280z" />
    <glyph glyph-name="dhoa" unicode="&#x110;" horiz-adv-x="1972" 
d="M526 57q-174 -45 -383 -57v72q93 10 136.5 53.5t55 123t11.5 240.5v216l-252 -7v140l252 -7v177q0 129 -5 194t-24 112t-61.5 74.5t-112.5 34.5v70q229 -16 383 -57q94 31 210.5 47t244.5 16q218 0 390.5 -53.5t290.5 -154.5t178.5 -239.5t60.5 -306.5
q0 -174 -62.5 -313.5t-183.5 -238.5t-295.5 -151t-398.5 -52q-83 0 -155 7t-147 23t-133 37zM731 602q0 -220 2 -311t8 -113q15 -49 57 -70.5t126 -21.5q166 0 288 74t187 217t65 342q0 327 -150.5 505.5t-426.5 178.5q-57 0 -139 -14q-9 -86 -13 -224.5t-4 -273.5v-60
l367 7v-140l-367 7v-103z" />
    <glyph glyph-name="octh" unicode="&#x1a1;" horiz-adv-x="1358" 
d="M678 940q-110 0 -165.5 -109t-55.5 -325t56 -326t165 -110t166 109.5t57 326.5t-57 325.5t-166 108.5zM1292 504q0 -151 -74 -271.5t-213.5 -189t-326.5 -68.5q-186 0 -326 68.5t-214.5 189t-74.5 271.5q0 111 42.5 210t123 170.5t194 110.5t255.5 39q103 0 193.5 -21.5
t159 -59.5t124.5 -97.5t88 -128.5q31 6 69 36t44 58q8 26 8 37q0 47 -57 47q-15 20 -15 43q0 35 31.5 59.5t71.5 24.5q45 0 72.5 -30.5t27.5 -71.5q0 -53 -43 -115.5t-98.5 -104.5t-85.5 -42q24 -77 24 -164z" />
    <glyph glyph-name="ochoa" unicode="&#x1a0;" horiz-adv-x="1843" 
d="M1772 748q0 -161 -61 -304.5t-175.5 -248.5t-271.5 -162.5t-342 -57.5q-186 0 -343.5 58t-271 163t-174.5 248t-61 304q0 162 62 304.5t175 246.5t269 161.5t344 57.5q170 0 308.5 -45t232.5 -113.5t151 -147.5q38 2 86.5 33.5t54.5 61.5q8 24 8 36q0 48 -57 48
q-14 20 -14 43q0 35 31.5 59.5t70.5 24.5q45 0 72.5 -31.5t27.5 -71.5q0 -64 -42.5 -127.5t-98.5 -103t-88 -39.5q32 -49 56.5 -115t37.5 -141.5t13 -140.5zM922 1421q-125 0 -214.5 -76.5t-137.5 -229t-48 -367.5q0 -216 48 -369t138.5 -230t213.5 -77t213.5 77t139 229
t48.5 370q0 169 -27.5 293t-78.5 208t-126 128t-169 44z" />
    <glyph glyph-name="ucth" unicode="&#x1b0;" horiz-adv-x="1450" 
d="M1202 1038l43 -26v-287q37 1 86 33.5t55 60.5q9 22 9 37q0 47 -58 47q-14 21 -14 43q0 35 31.5 59.5t70.5 24.5q45 0 73 -30t28 -72q-4 -74 -57.5 -136t-121 -97.5t-102.5 -35.5v-204q0 -102 13 -169.5t43.5 -99.5t82.5 -32q4 0 46 4l12 -78q-121 -33 -305 -33h-37
q-62 -32 -105 -65l-67 38q-19 61 -19 158q-29 -63 -83.5 -108t-131.5 -69t-174 -24q-106 0 -173 30t-106.5 90t-56 151.5t-16.5 214.5v131q0 113 -7 161t-32.5 71.5t-87.5 25.5v70q150 24 311 24q57 47 127 84l66 -39q-17 -116 -17 -389v-110q0 -132 14 -209t50.5 -116.5
t103.5 -39.5q94 0 145.5 77.5t51.5 227.5v154q0 120 -7 171t-32.5 76t-87.5 27v72q129 22 274 22h35q57 47 127 84z" />
    <glyph glyph-name="uchoa" unicode="&#x1af;" horiz-adv-x="1835" 
d="M61 1493q136 -5 375 -57q221 52 375 57v-72q-87 -7 -128 -50t-51.5 -121.5t-10.5 -237.5v-107q0 -201 13 -339.5t42 -213.5q43 -102 130 -156.5t210 -54.5q241 0 342 191q40 74 52.5 190t12.5 314v200q0 154 -12 226t-57.5 110.5t-147.5 48.5v72q130 -6 297 -45
q23 5 51.5 11t34.5 7v-280q37 1 86.5 34t55.5 60q8 24 8 37q0 47 -58 47q-14 20 -14 43q0 35 31.5 59.5t70.5 24.5q45 0 73 -30t28 -72q-4 -74 -57.5 -136t-121 -97.5t-102.5 -35.5v-362q0 -137 -9.5 -232t-37 -178.5t-76.5 -148.5q-54 -72 -135.5 -123t-190 -76t-233.5 -25
q-317 0 -485 152q-72 64 -111.5 151.5t-54 196t-14.5 262.5v330q0 110 -4 166t-20.5 97.5t-53.5 64t-103 26.5v72z" />
    <glyph glyph-name="aath" unicode="&#x103;" horiz-adv-x="1270" 
d="M1079 598v-203q0 -87 5.5 -134.5t24 -71t56.5 -23.5q23 0 64 16l28 -55q-56 -66 -131 -102.5t-143 -36.5q-181 0 -215 172q-53 -81 -154 -128.5t-227 -47.5q-146 0 -228.5 66.5t-82.5 180.5q0 68 28.5 118.5t84 85t141.5 60t194 44.5q94 17 134.5 30t57.5 40t17 83
q0 90 -10 142.5t-39.5 79t-87.5 26.5q-63 0 -103 -39t-40 -102q0 -54 26 -117q-70 -37 -164 -37q-62 0 -99.5 35t-37.5 94q0 70 56 128.5t162.5 93t246.5 34.5q160 0 255.5 -45.5t138 -140t42.5 -246.5zM729 500q-118 -35 -170 -56t-83.5 -58.5t-31.5 -104.5q0 -40 16.5 -71
t46 -48t68.5 -17q154 0 154 199v156zM442 1329h66q13 -46 50 -65t110 -19q70 0 107.5 20t49.5 64h66q-14 -103 -72 -158t-151 -55t-152 54.5t-74 158.5z" />
    <glyph glyph-name="aahoa" unicode="&#x102;" horiz-adv-x="1612" 
d="M680 1505l151 -24l154 24l293 -739q25 -64 99.5 -253t117 -272.5t88.5 -126t105 -42.5h6v-72q-198 6 -389 57q-199 -54 -371 -57v72q75 6 109 29t34 73q0 29 -18.5 94t-59.5 168l-36 96q-109 3 -248 3q-129 0 -252 -3l-39 -96q-39 -97 -58.5 -173t-19.5 -99q0 -43 29 -64
t98 -30v-70q-144 3 -278 49q-141 -43 -277 -49v72q74 3 129.5 47.5t103.5 127.5t92.5 190t139.5 341zM723 1184q-125 -284 -217 -539q74 -2 211 -2t205 2q-16 48 -69 192.5t-130 346.5zM621 1798h65q8 -29 27.5 -48t51 -27.5t81.5 -8.5q70 0 108 20t50 64h65
q-14 -103 -72 -158t-151 -55t-152 54.5t-73 158.5z" />
    <glyph glyph-name="abth" horiz-adv-x="1270" 
d="M1079 598v-203q0 -87 5.5 -134.5t24 -71t56.5 -23.5q23 0 64 16l28 -55q-56 -66 -131 -102.5t-143 -36.5q-181 0 -215 172q-53 -81 -154 -128.5t-227 -47.5q-146 0 -228.5 66.5t-82.5 180.5q0 68 28.5 118.5t84 85t141.5 60t194 44.5q94 17 134.5 30t57.5 40t17 83
q0 90 -10 142.5t-39.5 79t-87.5 26.5q-63 0 -103 -39t-40 -102q0 -54 26 -117q-70 -37 -164 -37q-62 0 -99.5 35t-37.5 94q0 70 56 128.5t162.5 93t246.5 34.5q160 0 255.5 -45.5t138 -140t42.5 -246.5zM729 500q-118 -35 -170 -56t-83.5 -58.5t-31.5 -104.5q0 -40 16.5 -71
t46 -48t68.5 -17q154 0 154 199v156zM555 1380h135l172 -258h-74l-165 119l-166 -119h-74z" />
    <glyph glyph-name="abhoa" horiz-adv-x="1612" 
d="M680 1505l151 -24l154 24l293 -739q25 -64 99.5 -253t117 -272.5t88.5 -126t105 -42.5h6v-72q-198 6 -389 57q-199 -54 -371 -57v72q75 6 109 29t34 73q0 29 -18.5 94t-59.5 168l-36 96q-109 3 -248 3q-129 0 -252 -3l-39 -96q-39 -97 -58.5 -173t-19.5 -99q0 -43 29 -64
t98 -30v-70q-144 3 -278 49q-141 -43 -277 -49v72q74 3 129.5 47.5t103.5 127.5t92.5 190t139.5 341zM723 1184q-125 -284 -217 -539q74 -2 211 -2t205 2q-16 48 -69 192.5t-130 346.5zM764 1849h135l172 -258h-74l-166 119l-165 -119h-74z" />
    <glyph glyph-name="ebth" horiz-adv-x="1165" 
d="M713 678q35 0 48 7.5t13 35.5q0 88 -53.5 152.5t-130.5 64.5q-75 0 -121.5 -60.5t-46.5 -160.5q1 -12 1.5 -21.5t0.5 -17.5h289zM1096 588h-561q-42 0 -64.5 -6.5t-30.5 -22t-8 -45.5q0 -104 46.5 -191t130.5 -138.5t192 -51.5q77 0 155 28.5t140 82.5l34 -66
q-78 -94 -213.5 -148.5t-306.5 -54.5q-123 0 -223.5 36t-173 104t-111.5 162.5t-39 207.5q0 156 74 282t204.5 196.5t291.5 70.5q134 0 240.5 -52t166.5 -140t60 -193q0 -21 -4 -61zM524 1376h135l172 -258h-73l-166 119l-166 -119h-74z" />
    <glyph glyph-name="ebhoa" horiz-adv-x="1401" 
d="M47 1493q217 -12 363 -57q129 33 283.5 45t377.5 12q86 0 117 -10.5t31 -44.5q0 -33 -33 -74q22 -110 22 -188q0 -14 -0.5 -22.5t-1.5 -18.5h-82q-5 91 -32.5 137.5t-85 63t-162.5 16.5h-201q-8 -184 -8 -295v-221h170q115 0 163.5 30t55.5 123h88q-6 -115 -39 -217
q36 -123 39 -221h-88q-3 67 -24 98.5t-65 42t-130 10.5h-170v-299q0 -114 16 -165.5t68.5 -69.5t171.5 -18q122 0 194 20.5t110.5 75.5t53.5 160h94q-12 -131 -57 -250q25 -43 25 -70q0 -55 -61 -69.5t-228 -14.5q-110 0 -176.5 1t-147.5 7t-146.5 16t-141.5 31
q-182 -48 -363 -57v70q94 10 137 54t54.5 124t11.5 241v500q0 163 -11.5 245.5t-54.5 129t-137 59.5v70zM610 1851h135l173 -258h-74l-166 119l-166 -119h-74z" />
    <glyph glyph-name="obth" horiz-adv-x="1358" 
d="M678 940q-110 0 -165.5 -109t-55.5 -325t56 -326t165 -110t166 109.5t57 326.5t-57 325.5t-166 108.5zM1292 504q0 -151 -74 -271.5t-213.5 -189t-326.5 -68.5q-186 0 -326 68.5t-214.5 189t-74.5 271.5q0 111 42.5 210t123 170.5t194 110.5t255.5 39q141 0 255.5 -39.5
t194 -110.5t122 -168.5t42.5 -211.5zM616 1374h136l172 -258h-74l-166 119l-166 -119h-74z" />
    <glyph glyph-name="obhoa" horiz-adv-x="1843" 
d="M1772 748q0 -161 -61 -304.5t-175.5 -248.5t-271.5 -162.5t-342 -57.5q-186 0 -343.5 58t-271 163t-174.5 248t-61 304q0 162 62 304.5t175 246.5t269 161.5t344 57.5q189 0 345.5 -58t269 -161.5t174 -244.5t61.5 -306zM922 1421q-125 0 -214.5 -76.5t-137.5 -229
t-48 -367.5q0 -216 48 -369t138.5 -230t213.5 -77t213.5 77t139 229t48.5 370q0 169 -27.5 293t-78.5 208t-126 128t-169 44zM860 1851h135l172 -258h-73l-166 119l-166 -119h-74z" />
    <glyph glyph-name="athsac" horiz-adv-x="1270" 
d="M1079 598v-203q0 -87 5.5 -134.5t24 -71t56.5 -23.5q23 0 64 16l28 -55q-56 -66 -131 -102.5t-143 -36.5q-181 0 -215 172q-53 -81 -154 -128.5t-227 -47.5q-146 0 -228.5 66.5t-82.5 180.5q0 68 28.5 118.5t84 85t141.5 60t194 44.5q94 17 134.5 30t57.5 40t17 83
q0 90 -10 142.5t-39.5 79t-87.5 26.5q-63 0 -103 -39t-40 -102q0 -54 26 -117q-70 -37 -164 -37q-62 0 -99.5 35t-37.5 94q0 70 56 128.5t162.5 93t246.5 34.5q160 0 255.5 -45.5t138 -140t42.5 -246.5zM729 500q-118 -35 -170 -56t-83.5 -58.5t-31.5 -104.5q0 -40 16.5 -71
t46 -48t68.5 -17q154 0 154 199v156zM823 1243l-225 -115h-80l195 205q60 66 104 66q19 0 37.5 -10t28.5 -28.5t10 -37.5q0 -46 -70 -80z" />
    <glyph glyph-name="athhuyen" horiz-adv-x="1270" 
d="M1079 598v-203q0 -87 5.5 -134.5t24 -71t56.5 -23.5q23 0 64 16l28 -55q-56 -66 -131 -102.5t-143 -36.5q-181 0 -215 172q-53 -81 -154 -128.5t-227 -47.5q-146 0 -228.5 66.5t-82.5 180.5q0 68 28.5 118.5t84 85t141.5 60t194 44.5q94 17 134.5 30t57.5 40t17 83
q0 90 -10 142.5t-39.5 79t-87.5 26.5q-63 0 -103 -39t-40 -102q0 -54 26 -117q-70 -37 -164 -37q-62 0 -99.5 35t-37.5 94q0 70 56 128.5t162.5 93t246.5 34.5q160 0 255.5 -45.5t138 -140t42.5 -246.5zM729 500q-118 -35 -170 -56t-83.5 -58.5t-31.5 -104.5q0 -40 16.5 -71
t46 -48t68.5 -17q154 0 154 199v156zM649 1335l197 -202h-80l-227 112q-38 20 -54 37.5t-16 42.5q0 34 22 55t54 21q44 0 104 -66z" />
    <glyph glyph-name="athhoi" unicode="&#x1ea3;" horiz-adv-x="1270" 
d="M1079 598v-203q0 -87 5.5 -134.5t24 -71t56.5 -23.5q23 0 64 16l28 -55q-56 -66 -131 -102.5t-143 -36.5q-181 0 -215 172q-53 -81 -154 -128.5t-227 -47.5q-146 0 -228.5 66.5t-82.5 180.5q0 68 28.5 118.5t84 85t141.5 60t194 44.5q94 17 134.5 30t57.5 40t17 83
q0 90 -10 142.5t-39.5 79t-87.5 26.5q-63 0 -103 -39t-40 -102q0 -54 26 -117q-70 -37 -164 -37q-62 0 -99.5 35t-37.5 94q0 70 56 128.5t162.5 93t246.5 34.5q160 0 255.5 -45.5t138 -140t42.5 -246.5zM729 500q-118 -35 -170 -56t-83.5 -58.5t-31.5 -104.5q0 -40 16.5 -71
t46 -48t68.5 -17q154 0 154 199v156zM631 1417l2 -4q-25 -16 -62 -16q-59 0 -59 47q0 39 48 65.5t128 26.5t125 -31t45 -84q0 -24 -10.5 -44.5t-28 -36t-47 -34.5t-61.5 -38q-49 -28 -49 -54q0 -24 26 -24h8q0 -24 -8 -31.5t-33 -7.5q-26 0 -42.5 15.5t-16.5 43.5
q0 42 61 105q31 31 43.5 54t12.5 67q0 31 -14 49t-35 18q-46 0 -46 -43q0 -19 13 -43z" />
    <glyph glyph-name="athnga" horiz-adv-x="1270" 
d="M1079 598v-203q0 -87 5.5 -134.5t24 -71t56.5 -23.5q23 0 64 16l28 -55q-56 -66 -131 -102.5t-143 -36.5q-181 0 -215 172q-53 -81 -154 -128.5t-227 -47.5q-146 0 -228.5 66.5t-82.5 180.5q0 68 28.5 118.5t84 85t141.5 60t194 44.5q94 17 134.5 30t57.5 40t17 83
q0 90 -10 142.5t-39.5 79t-87.5 26.5q-63 0 -103 -39t-40 -102q0 -54 26 -117q-70 -37 -164 -37q-62 0 -99.5 35t-37.5 94q0 70 56 128.5t162.5 93t246.5 34.5q160 0 255.5 -45.5t138 -140t42.5 -246.5zM729 500q-118 -35 -170 -56t-83.5 -58.5t-31.5 -104.5q0 -40 16.5 -71
t46 -48t68.5 -17q154 0 154 199v156zM807 1358l49 2q-18 -93 -56.5 -137.5t-103.5 -44.5q-26 0 -41 4l-80 22q-18 4 -36 4q-54 0 -66 -65h-57q33 182 159 182q35 0 54 -4l84 -21q24 -4 28 -4q25 0 41 15t25 47z" />
    <glyph glyph-name="athnang" unicode="&#x1ea1;" horiz-adv-x="1270" 
d="M1079 598v-203q0 -87 5.5 -134.5t24 -71t56.5 -23.5q23 0 64 16l28 -55q-56 -66 -131 -102.5t-143 -36.5q-181 0 -215 172q-53 -81 -154 -128.5t-227 -47.5q-146 0 -228.5 66.5t-82.5 180.5q0 68 28.5 118.5t84 85t141.5 60t194 44.5q94 17 134.5 30t57.5 40t17 83
q0 90 -10 142.5t-39.5 79t-87.5 26.5q-63 0 -103 -39t-40 -102q0 -54 26 -117q-70 -37 -164 -37q-62 0 -99.5 35t-37.5 94q0 70 56 128.5t162.5 93t246.5 34.5q160 0 255.5 -45.5t138 -140t42.5 -246.5zM729 500q-118 -35 -170 -56t-83.5 -58.5t-31.5 -104.5q0 -40 16.5 -71
t46 -48t68.5 -17q154 0 154 199v156zM655 -109q33 0 59.5 -15.5t42 -41.5t15.5 -59q0 -48 -33.5 -82.5t-83.5 -34.5q-48 0 -82 34t-34 83q0 51 33.5 83.5t82.5 32.5z" />
    <glyph glyph-name="ahoasac" horiz-adv-x="1612" 
d="M680 1505l151 -24l154 24l293 -739q25 -64 99.5 -253t117 -272.5t88.5 -126t105 -42.5h6v-72q-198 6 -389 57q-199 -54 -371 -57v72q75 6 109 29t34 73q0 29 -18.5 94t-59.5 168l-36 96q-109 3 -248 3q-129 0 -252 -3l-39 -96q-39 -97 -58.5 -173t-19.5 -99q0 -43 29 -64
t98 -30v-70q-144 3 -278 49q-141 -43 -277 -49v72q74 3 129.5 47.5t103.5 127.5t92.5 190t139.5 341zM723 1184q-125 -284 -217 -539q74 -2 211 -2t205 2q-16 48 -69 192.5t-130 346.5zM1014 1739l-226 -115h-79l194 205q59 65 105 65q31 0 53 -22t22 -53q0 -48 -69 -80z
" />
    <glyph glyph-name="ahoahuyen" horiz-adv-x="1612" 
d="M680 1505l151 -24l154 24l293 -739q25 -64 99.5 -253t117 -272.5t88.5 -126t105 -42.5h6v-72q-198 6 -389 57q-199 -54 -371 -57v72q75 6 109 29t34 73q0 29 -18.5 94t-59.5 168l-36 96q-109 3 -248 3q-129 0 -252 -3l-39 -96q-39 -97 -58.5 -173t-19.5 -99q0 -43 29 -64
t98 -30v-70q-144 3 -278 49q-141 -43 -277 -49v72q74 3 129.5 47.5t103.5 127.5t92.5 190t139.5 341zM723 1184q-125 -284 -217 -539q74 -2 211 -2t205 2q-16 48 -69 192.5t-130 346.5zM860 1841l197 -203h-80l-227 113q-36 18 -53 36.5t-17 43.5q0 34 22 55t54 21
q44 0 104 -66z" />
    <glyph glyph-name="ahoahoi" unicode="&#x1ea2;" horiz-adv-x="1612" 
d="M680 1505l151 -24l154 24l293 -739q25 -64 99.5 -253t117 -272.5t88.5 -126t105 -42.5h6v-72q-198 6 -389 57q-199 -54 -371 -57v72q75 6 109 29t34 73q0 29 -18.5 94t-59.5 168l-36 96q-109 3 -248 3q-129 0 -252 -3l-39 -96q-39 -97 -58.5 -173t-19.5 -99q0 -43 29 -64
t98 -30v-70q-144 3 -278 49q-141 -43 -277 -49v72q74 3 129.5 47.5t103.5 127.5t92.5 190t139.5 341zM723 1184q-125 -284 -217 -539q74 -2 211 -2t205 2q-16 48 -69 192.5t-130 346.5zM811 1892l2 -4q-24 -16 -61 -16q-60 0 -60 47q0 39 48 65.5t128 26.5t125 -31t45 -84
q0 -24 -10.5 -44.5t-28 -36t-47 -34.5t-61.5 -38q-49 -28 -49 -53t26 -25h9q0 -24 -8.5 -31.5t-32.5 -7.5q-25 0 -42.5 16.5t-17.5 43.5q0 26 15 49t47 55q32 34 43.5 55.5t11.5 65.5q0 31 -14 49t-35 18q-45 0 -45 -43q0 -20 12 -43z" />
    <glyph glyph-name="ahoanga" horiz-adv-x="1612" 
d="M680 1505l151 -24l154 24l293 -739q25 -64 99.5 -253t117 -272.5t88.5 -126t105 -42.5h6v-72q-198 6 -389 57q-199 -54 -371 -57v72q75 6 109 29t34 73q0 29 -18.5 94t-59.5 168l-36 96q-109 3 -248 3q-129 0 -252 -3l-39 -96q-39 -97 -58.5 -173t-19.5 -99q0 -43 29 -64
t98 -30v-70q-144 3 -278 49q-141 -43 -277 -49v72q74 3 129.5 47.5t103.5 127.5t92.5 190t139.5 341zM723 1184q-125 -284 -217 -539q74 -2 211 -2t205 2q-16 48 -69 192.5t-130 346.5zM1038 1833l49 2q-18 -94 -56 -138t-103 -44q-27 0 -41 4l-80 22q-19 4 -37 4
q-53 0 -65 -65h-58q34 182 160 182q35 0 53 -4l84 -20q24 -4 29 -4q25 0 40 13.5t25 47.5z" />
    <glyph glyph-name="ahoanang" unicode="&#x1ea0;" horiz-adv-x="1612" 
d="M680 1505l151 -24l154 24l293 -739q25 -64 99.5 -253t117 -272.5t88.5 -126t105 -42.5h6v-72q-198 6 -389 57q-199 -54 -371 -57v72q75 6 109 29t34 73q0 29 -18.5 94t-59.5 168l-36 96q-109 3 -248 3q-129 0 -252 -3l-39 -96q-39 -97 -58.5 -173t-19.5 -99q0 -43 29 -64
t98 -30v-70q-144 3 -278 49q-141 -43 -277 -49v72q74 3 129.5 47.5t103.5 127.5t92.5 190t139.5 341zM723 1184q-125 -284 -217 -539q74 -2 211 -2t205 2q-16 48 -69 192.5t-130 346.5zM805 -102q51 0 84 -34t33 -83q0 -48 -33.5 -82.5t-83.5 -34.5q-49 0 -83 34t-34 83
q0 50 33.5 83.5t83.5 33.5z" />
    <glyph glyph-name="ethsac" horiz-adv-x="1165" 
d="M713 678q35 0 48 7.5t13 35.5q0 88 -53.5 152.5t-130.5 64.5q-75 0 -121.5 -60.5t-46.5 -160.5q1 -12 1.5 -21.5t0.5 -17.5h289zM1096 588h-561q-42 0 -64.5 -6.5t-30.5 -22t-8 -45.5q0 -104 46.5 -191t130.5 -138.5t192 -51.5q77 0 155 28.5t140 82.5l34 -66
q-78 -94 -213.5 -148.5t-306.5 -54.5q-123 0 -223.5 36t-173 104t-111.5 162.5t-39 207.5q0 156 74 282t204.5 196.5t291.5 70.5q134 0 240.5 -52t166.5 -140t60 -193q0 -21 -4 -61zM733 1278l-225 -115h-80l195 205q60 66 104 66q19 0 37.5 -10t28.5 -28.5t10 -37.5
q0 -47 -70 -80z" />
    <glyph glyph-name="ethhuyen" horiz-adv-x="1165" 
d="M713 678q35 0 48 7.5t13 35.5q0 88 -53.5 152.5t-130.5 64.5q-75 0 -121.5 -60.5t-46.5 -160.5q1 -12 1.5 -21.5t0.5 -17.5h289zM1096 588h-561q-42 0 -64.5 -6.5t-30.5 -22t-8 -45.5q0 -104 46.5 -191t130.5 -138.5t192 -51.5q77 0 155 28.5t140 82.5l34 -66
q-78 -94 -213.5 -148.5t-306.5 -54.5q-123 0 -223.5 36t-173 104t-111.5 162.5t-39 207.5q0 156 74 282t204.5 196.5t291.5 70.5q134 0 240.5 -52t166.5 -140t60 -193q0 -21 -4 -61zM580 1350l196 -203h-80l-227 113q-70 33 -70 79q0 34 22 55t54 21q46 0 105 -65z" />
    <glyph glyph-name="ethhoi" unicode="&#x1ebb;" horiz-adv-x="1165" 
d="M713 678q35 0 48 7.5t13 35.5q0 88 -53.5 152.5t-130.5 64.5q-75 0 -121.5 -60.5t-46.5 -160.5q1 -12 1.5 -21.5t0.5 -17.5h289zM1096 588h-561q-42 0 -64.5 -6.5t-30.5 -22t-8 -45.5q0 -104 46.5 -191t130.5 -138.5t192 -51.5q77 0 155 28.5t140 82.5l34 -66
q-78 -94 -213.5 -148.5t-306.5 -54.5q-123 0 -223.5 36t-173 104t-111.5 162.5t-39 207.5q0 156 74 282t204.5 196.5t291.5 70.5q134 0 240.5 -52t166.5 -140t60 -193q0 -21 -4 -61zM602 1401l2 -4q-24 -17 -61 -17q-26 0 -43 13t-17 34q0 38 48 65.5t128 27.5t125 -31
t45 -84q0 -48 -28.5 -72.5t-118.5 -81.5q-49 -27 -49 -53q0 -24 26 -24h9q0 -24 -8.5 -31.5t-32.5 -7.5q-25 0 -42.5 15.5t-17.5 43.5q0 44 62 104q30 32 42.5 54.5t12.5 66.5q0 33 -13 50.5t-36 17.5q-21 0 -33 -12t-12 -31q0 -22 12 -43z" />
    <glyph glyph-name="ethnga" unicode="&#x1ebd;" horiz-adv-x="1165" 
d="M713 678q35 0 48 7.5t13 35.5q0 88 -53.5 152.5t-130.5 64.5q-75 0 -121.5 -60.5t-46.5 -160.5q1 -12 1.5 -21.5t0.5 -17.5h289zM1096 588h-561q-42 0 -64.5 -6.5t-30.5 -22t-8 -45.5q0 -104 46.5 -191t130.5 -138.5t192 -51.5q77 0 155 28.5t140 82.5l34 -66
q-78 -94 -213.5 -148.5t-306.5 -54.5q-123 0 -223.5 36t-173 104t-111.5 162.5t-39 207.5q0 156 74 282t204.5 196.5t291.5 70.5q134 0 240.5 -52t166.5 -140t60 -193q0 -21 -4 -61zM809 1341l49 2q-35 -182 -160 -182q-26 0 -41 4l-79 23q-19 4 -37 4q-54 0 -66 -66h-57
q16 90 56 136.5t104 46.5q34 0 53 -4l84 -21q24 -4 28 -4q49 0 66 61z" />
    <glyph glyph-name="ethnang" unicode="&#x1eb9;" horiz-adv-x="1165" 
d="M713 678q35 0 48 7.5t13 35.5q0 88 -53.5 152.5t-130.5 64.5q-75 0 -121.5 -60.5t-46.5 -160.5q1 -12 1.5 -21.5t0.5 -17.5h289zM1096 588h-561q-42 0 -64.5 -6.5t-30.5 -22t-8 -45.5q0 -104 46.5 -191t130.5 -138.5t192 -51.5q77 0 155 28.5t140 82.5l34 -66
q-78 -94 -213.5 -148.5t-306.5 -54.5q-123 0 -223.5 36t-173 104t-111.5 162.5t-39 207.5q0 156 74 282t204.5 196.5t291.5 70.5q134 0 240.5 -52t166.5 -140t60 -193q0 -21 -4 -61zM596 -127q51 0 84 -34t33 -83q0 -47 -33.5 -81.5t-83.5 -34.5q-49 0 -83 34t-34 82
q0 50 33.5 83.5t83.5 33.5z" />
    <glyph glyph-name="ehoasac" horiz-adv-x="1401" 
d="M47 1493q217 -12 363 -57q129 33 283.5 45t377.5 12q86 0 117 -10.5t31 -44.5q0 -33 -33 -74q22 -110 22 -188q0 -14 -0.5 -22.5t-1.5 -18.5h-82q-5 91 -32.5 137.5t-85 63t-162.5 16.5h-201q-8 -184 -8 -295v-221h170q115 0 163.5 30t55.5 123h88q-6 -115 -39 -217
q36 -123 39 -221h-88q-3 67 -24 98.5t-65 42t-130 10.5h-170v-299q0 -114 16 -165.5t68.5 -69.5t171.5 -18q122 0 194 20.5t110.5 75.5t53.5 160h94q-12 -131 -57 -250q25 -43 25 -70q0 -55 -61 -69.5t-228 -14.5q-110 0 -176.5 1t-147.5 7t-146.5 16t-141.5 31
q-182 -48 -363 -57v70q94 10 137 54t54.5 124t11.5 241v500q0 163 -11.5 245.5t-54.5 129t-137 59.5v70zM893 1737l-225 -115h-80l194 205q59 65 105 65q33 0 54.5 -21.5t21.5 -53.5q0 -47 -70 -80z" />
    <glyph glyph-name="ehoahuyen" horiz-adv-x="1401" 
d="M47 1493q217 -12 363 -57q129 33 283.5 45t377.5 12q86 0 117 -10.5t31 -44.5q0 -33 -33 -74q22 -110 22 -188q0 -14 -0.5 -22.5t-1.5 -18.5h-82q-5 91 -32.5 137.5t-85 63t-162.5 16.5h-201q-8 -184 -8 -295v-221h170q115 0 163.5 30t55.5 123h88q-6 -115 -39 -217
q36 -123 39 -221h-88q-3 67 -24 98.5t-65 42t-130 10.5h-170v-299q0 -114 16 -165.5t68.5 -69.5t171.5 -18q122 0 194 20.5t110.5 75.5t53.5 160h94q-12 -131 -57 -250q25 -43 25 -70q0 -55 -61 -69.5t-228 -14.5q-110 0 -176.5 1t-147.5 7t-146.5 16t-141.5 31
q-182 -48 -363 -57v70q94 10 137 54t54.5 124t11.5 241v500q0 163 -11.5 245.5t-54.5 129t-137 59.5v70zM637 1829l197 -203h-80l-228 113q-69 32 -69 80q0 31 22 53t53 22q46 0 105 -65z" />
    <glyph glyph-name="ehoahoi" unicode="&#x1eba;" horiz-adv-x="1401" 
d="M47 1493q217 -12 363 -57q129 33 283.5 45t377.5 12q86 0 117 -10.5t31 -44.5q0 -33 -33 -74q22 -110 22 -188q0 -14 -0.5 -22.5t-1.5 -18.5h-82q-5 91 -32.5 137.5t-85 63t-162.5 16.5h-201q-8 -184 -8 -295v-221h170q115 0 163.5 30t55.5 123h88q-6 -115 -39 -217
q36 -123 39 -221h-88q-3 67 -24 98.5t-65 42t-130 10.5h-170v-299q0 -114 16 -165.5t68.5 -69.5t171.5 -18q122 0 194 20.5t110.5 75.5t53.5 160h94q-12 -131 -57 -250q25 -43 25 -70q0 -55 -61 -69.5t-228 -14.5q-110 0 -176.5 1t-147.5 7t-146.5 16t-141.5 31
q-182 -48 -363 -57v70q94 10 137 54t54.5 124t11.5 241v500q0 163 -11.5 245.5t-54.5 129t-137 59.5v70zM680 1880l2 -4q-24 -16 -61 -16q-60 0 -60 47q0 39 48 65.5t128 26.5t125 -31t45 -84q0 -48 -26 -70.5t-121 -82.5q-49 -28 -49 -54q0 -24 26 -24h8q0 -24 -8 -31.5
t-32 -7.5q-25 0 -42.5 15.5t-17.5 43.5q0 27 15 50t47 55q29 29 42 52.5t13 67.5q0 32 -14 50t-35 18q-45 0 -45 -43q0 -22 12 -43z" />
    <glyph glyph-name="ehoanga" unicode="&#x1ebc;" horiz-adv-x="1401" 
d="M47 1493q217 -12 363 -57q129 33 283.5 45t377.5 12q86 0 117 -10.5t31 -44.5q0 -33 -33 -74q22 -110 22 -188q0 -14 -0.5 -22.5t-1.5 -18.5h-82q-5 91 -32.5 137.5t-85 63t-162.5 16.5h-201q-8 -184 -8 -295v-221h170q115 0 163.5 30t55.5 123h88q-6 -115 -39 -217
q36 -123 39 -221h-88q-3 67 -24 98.5t-65 42t-130 10.5h-170v-299q0 -114 16 -165.5t68.5 -69.5t171.5 -18q122 0 194 20.5t110.5 75.5t53.5 160h94q-12 -131 -57 -250q25 -43 25 -70q0 -55 -61 -69.5t-228 -14.5q-110 0 -176.5 1t-147.5 7t-146.5 16t-141.5 31
q-182 -48 -363 -57v70q94 10 137 54t54.5 124t11.5 241v500q0 163 -11.5 245.5t-54.5 129t-137 59.5v70zM918 1831l49 2q-18 -93 -56.5 -137.5t-103.5 -44.5q-27 0 -41 4l-80 22q-18 4 -37 4q-53 0 -65 -65h-58q34 182 160 182q35 0 53 -4l84 -20q7 -1 17 -3t12 -2
q26 0 41.5 14.5t24.5 47.5z" />
    <glyph glyph-name="ehoanang" unicode="&#x1eb8;" horiz-adv-x="1401" 
d="M47 1493q217 -12 363 -57q129 33 283.5 45t377.5 12q86 0 117 -10.5t31 -44.5q0 -33 -33 -74q22 -110 22 -188q0 -14 -0.5 -22.5t-1.5 -18.5h-82q-5 91 -32.5 137.5t-85 63t-162.5 16.5h-201q-8 -184 -8 -295v-221h170q115 0 163.5 30t55.5 123h88q-6 -115 -39 -217
q36 -123 39 -221h-88q-3 67 -24 98.5t-65 42t-130 10.5h-170v-299q0 -114 16 -165.5t68.5 -69.5t171.5 -18q122 0 194 20.5t110.5 75.5t53.5 160h94q-12 -131 -57 -250q25 -43 25 -70q0 -55 -61 -69.5t-228 -14.5q-110 0 -176.5 1t-147.5 7t-146.5 16t-141.5 31
q-182 -48 -363 -57v70q94 10 137 54t54.5 124t11.5 241v500q0 163 -11.5 245.5t-54.5 129t-137 59.5v70zM694 -102q51 0 84 -34t33 -83q0 -48 -33.5 -82.5t-83.5 -34.5q-48 0 -82 34t-34 83q0 50 33.5 83.5t82.5 33.5z" />
    <glyph glyph-name="othsac" horiz-adv-x="1358" 
d="M678 940q-110 0 -165.5 -109t-55.5 -325t56 -326t165 -110t166 109.5t57 326.5t-57 325.5t-166 108.5zM1292 504q0 -151 -74 -271.5t-213.5 -189t-326.5 -68.5q-186 0 -326 68.5t-214.5 189t-74.5 271.5q0 111 42.5 210t123 170.5t194 110.5t255.5 39q141 0 255.5 -39.5
t194 -110.5t122 -168.5t42.5 -211.5zM846 1268l-225 -115h-80l194 205q59 65 105 65q31 0 53 -22t22 -53q0 -48 -69 -80z" />
    <glyph glyph-name="othhuyen" horiz-adv-x="1358" 
d="M678 940q-110 0 -165.5 -109t-55.5 -325t56 -326t165 -110t166 109.5t57 326.5t-57 325.5t-166 108.5zM1292 504q0 -151 -74 -271.5t-213.5 -189t-326.5 -68.5q-186 0 -326 68.5t-214.5 189t-74.5 271.5q0 111 42.5 210t123 170.5t194 110.5t255.5 39q141 0 255.5 -39.5
t194 -110.5t122 -168.5t42.5 -211.5zM682 1350l197 -203h-80l-228 113q-69 32 -69 79q0 34 22 55t54 21q45 0 104 -65z" />
    <glyph glyph-name="othhoi" unicode="&#x1ecf;" horiz-adv-x="1358" 
d="M678 940q-110 0 -165.5 -109t-55.5 -325t56 -326t165 -110t166 109.5t57 326.5t-57 325.5t-166 108.5zM1292 504q0 -151 -74 -271.5t-213.5 -189t-326.5 -68.5q-186 0 -326 68.5t-214.5 189t-74.5 271.5q0 111 42.5 210t123 170.5t194 110.5t255.5 39q141 0 255.5 -39.5
t194 -110.5t122 -168.5t42.5 -211.5zM674 1421l2 -4q-25 -16 -62 -16q-59 0 -59 47q0 39 48 65.5t128 26.5t125 -31t45 -84q0 -24 -10.5 -44.5t-28 -36t-47 -34.5t-61.5 -38q-49 -28 -49 -53t26 -25h8q0 -24 -8 -31.5t-33 -7.5q-26 0 -42.5 15.5t-16.5 43.5q0 42 61 105
q31 31 43.5 54t12.5 67q0 31 -14 49t-35 18q-45 0 -45 -43q0 -20 12 -43z" />
    <glyph glyph-name="othnga" horiz-adv-x="1358" 
d="M678 940q-110 0 -165.5 -109t-55.5 -325t56 -326t165 -110t166 109.5t57 326.5t-57 325.5t-166 108.5zM1292 504q0 -151 -74 -271.5t-213.5 -189t-326.5 -68.5q-186 0 -326 68.5t-214.5 189t-74.5 271.5q0 111 42.5 210t123 170.5t194 110.5t255.5 39q141 0 255.5 -39.5
t194 -110.5t122 -168.5t42.5 -211.5zM870 1352l50 2q-18 -93 -57 -138t-103 -45q-27 0 -41 5l-80 22q-18 4 -37 4q-53 0 -65 -65h-58q34 182 160 182q35 0 53 -4l84 -21q24 -4 29 -4q26 0 40.5 14t24.5 48z" />
    <glyph glyph-name="othnang" unicode="&#x1ecd;" horiz-adv-x="1358" 
d="M678 940q-110 0 -165.5 -109t-55.5 -325t56 -326t165 -110t166 109.5t57 326.5t-57 325.5t-166 108.5zM1292 504q0 -151 -74 -271.5t-213.5 -189t-326.5 -68.5q-186 0 -326 68.5t-214.5 189t-74.5 271.5q0 111 42.5 210t123 170.5t194 110.5t255.5 39q141 0 255.5 -39.5
t194 -110.5t122 -168.5t42.5 -211.5zM678 -127q51 0 84 -34t33 -83q0 -47 -33.5 -81.5t-83.5 -34.5q-49 0 -83 34t-34 82q0 50 33.5 83.5t83.5 33.5z" />
    <glyph glyph-name="ohoasac" horiz-adv-x="1843" 
d="M1772 748q0 -161 -61 -304.5t-175.5 -248.5t-271.5 -162.5t-342 -57.5q-186 0 -343.5 58t-271 163t-174.5 248t-61 304q0 162 62 304.5t175 246.5t269 161.5t344 57.5q189 0 345.5 -58t269 -161.5t174 -244.5t61.5 -306zM922 1421q-125 0 -214.5 -76.5t-137.5 -229
t-48 -367.5q0 -216 48 -369t138.5 -230t213.5 -77t213.5 77t139 229t48.5 370q0 169 -27.5 293t-78.5 208t-126 128t-169 44zM1069 1751l-225 -115h-80l194 205q60 66 105 66q19 0 37.5 -10t28.5 -28.5t10 -37.5q0 -46 -70 -80z" />
    <glyph glyph-name="ohoahuyen" horiz-adv-x="1843" 
d="M1772 748q0 -161 -61 -304.5t-175.5 -248.5t-271.5 -162.5t-342 -57.5q-186 0 -343.5 58t-271 163t-174.5 248t-61 304q0 162 62 304.5t175 246.5t269 161.5t344 57.5q189 0 345.5 -58t269 -161.5t174 -244.5t61.5 -306zM922 1421q-125 0 -214.5 -76.5t-137.5 -229
t-48 -367.5q0 -216 48 -369t138.5 -230t213.5 -77t213.5 77t139 229t48.5 370q0 169 -27.5 293t-78.5 208t-126 128t-169 44zM926 1833l196 -203h-80l-227 113q-37 18 -53.5 36.5t-16.5 43.5q0 32 22.5 53.5t53.5 21.5q46 0 105 -65z" />
    <glyph glyph-name="ohoahoi" unicode="&#x1ece;" horiz-adv-x="1843" 
d="M1772 748q0 -161 -61 -304.5t-175.5 -248.5t-271.5 -162.5t-342 -57.5q-186 0 -343.5 58t-271 163t-174.5 248t-61 304q0 162 62 304.5t175 246.5t269 161.5t344 57.5q189 0 345.5 -58t269 -161.5t174 -244.5t61.5 -306zM922 1421q-125 0 -214.5 -76.5t-137.5 -229
t-48 -367.5q0 -216 48 -369t138.5 -230t213.5 -77t213.5 77t139 229t48.5 370q0 169 -27.5 293t-78.5 208t-126 128t-169 44zM918 1894l2 -4q-25 -16 -62 -16q-59 0 -59 47q0 39 48.5 65.5t127.5 26.5q80 0 125 -31t45 -84q0 -24 -10.5 -44.5t-28.5 -36t-47.5 -34.5
t-61.5 -38q-49 -29 -49 -53q0 -25 27 -25h8q0 -24 -8 -31.5t-33 -7.5t-42 17t-17 43q0 43 61 104q29 29 42 53t13 68q0 31 -13 49t-36 18q-19 0 -32 -12t-13 -31q0 -21 13 -43z" />
    <glyph glyph-name="ohoanga" horiz-adv-x="1843" 
d="M1772 748q0 -161 -61 -304.5t-175.5 -248.5t-271.5 -162.5t-342 -57.5q-186 0 -343.5 58t-271 163t-174.5 248t-61 304q0 162 62 304.5t175 246.5t269 161.5t344 57.5q189 0 345.5 -58t269 -161.5t174 -244.5t61.5 -306zM922 1421q-125 0 -214.5 -76.5t-137.5 -229
t-48 -367.5q0 -216 48 -369t138.5 -230t213.5 -77t213.5 77t139 229t48.5 370q0 169 -27.5 293t-78.5 208t-126 128t-169 44zM1094 1835l49 2q-18 -93 -56.5 -137.5t-103.5 -44.5q-27 0 -41 4l-80 22q-18 5 -37 5q-53 0 -65 -66h-58q34 182 160 182q35 0 53 -4l84 -20
q26 -4 29 -4q48 0 66 61z" />
    <glyph glyph-name="ohoanang" unicode="&#x1ecc;" horiz-adv-x="1843" 
d="M1772 748q0 -161 -61 -304.5t-175.5 -248.5t-271.5 -162.5t-342 -57.5q-186 0 -343.5 58t-271 163t-174.5 248t-61 304q0 162 62 304.5t175 246.5t269 161.5t344 57.5q189 0 345.5 -58t269 -161.5t174 -244.5t61.5 -306zM922 1421q-125 0 -214.5 -76.5t-137.5 -229
t-48 -367.5q0 -216 48 -369t138.5 -230t213.5 -77t213.5 77t139 229t48.5 370q0 169 -27.5 293t-78.5 208t-126 128t-169 44zM922 -127q51 0 83.5 -34t32.5 -83q0 -47 -32.5 -81.5t-83.5 -34.5q-49 0 -83 34t-34 82q0 50 33.5 83.5t83.5 33.5z" />
    <glyph glyph-name="ithsac" horiz-adv-x="782" 
d="M539 1034l63 -39q-10 -59 -14 -142t-4 -167v-321q0 -83 4.5 -134.5t20 -85t49 -50.5t94.5 -23v-72q-173 3 -349 51q-183 -48 -346 -51v72q82 4 117 34t44 89t9 194v211q0 116 -7 165t-34.5 73t-91.5 24h-12v70q145 22 242 22q43 0 90 -2q56 45 125 82zM539 1290
l-226 -114h-80l195 204q60 66 104 66q19 0 37.5 -10t28.5 -28.5t10 -37.5q0 -46 -69 -80z" />
    <glyph glyph-name="ithhuyen" horiz-adv-x="782" 
d="M539 1034l63 -39q-10 -59 -14 -142t-4 -167v-321q0 -83 4.5 -134.5t20 -85t49 -50.5t94.5 -23v-72q-173 3 -349 51q-183 -48 -346 -51v72q82 4 117 34t44 89t9 194v211q0 116 -7 165t-34.5 73t-91.5 24h-12v70q145 22 242 22q43 0 90 -2q56 45 125 82zM426 1382l197 -202
h-80l-228 112q-69 34 -69 80q0 34 22 55t54 21q44 0 104 -66z" />
    <glyph glyph-name="ithhoi" unicode="&#x1ec9;" horiz-adv-x="782" 
d="M539 1034l63 -39q-10 -59 -14 -142t-4 -167v-321q0 -83 4.5 -134.5t20 -85t49 -50.5t94.5 -23v-72q-173 3 -349 51q-183 -48 -346 -51v72q82 4 117 34t44 89t9 194v211q0 116 -7 165t-34.5 73t-91.5 24h-12v70q145 22 242 22q43 0 90 -2q56 45 125 82zM367 1423l2 -4
q-25 -16 -62 -16q-59 0 -59 47q0 39 48.5 65.5t127.5 26.5q80 0 125 -31t45 -84q0 -24 -10.5 -44.5t-28.5 -36t-47.5 -34.5t-61.5 -38q-49 -29 -49 -53q0 -25 27 -25h8q0 -24 -8 -31.5t-33 -7.5t-42 17t-17 43q0 43 61 104q31 31 43.5 54t12.5 67q0 31 -14 49t-36 18
q-19 0 -32 -12t-13 -31q0 -21 13 -43z" />
    <glyph glyph-name="ithnga" unicode="&#x129;" horiz-adv-x="782" 
d="M539 1034l63 -39q-10 -59 -14 -142t-4 -167v-321q0 -83 4.5 -134.5t20 -85t49 -50.5t94.5 -23v-72q-173 3 -349 51q-183 -48 -346 -51v72q82 4 117 34t44 89t9 194v211q0 116 -7 165t-34.5 73t-91.5 24h-12v70q145 22 242 22q43 0 90 -2q56 45 125 82zM573 1384l50 2
q-18 -92 -57 -137t-103 -45q-27 0 -41 4l-80 23q-18 4 -37 4q-53 0 -65 -66h-58q18 93 57 138t103 45q35 0 53 -4l84 -21q26 -4 29 -4q25 0 40 13.5t25 47.5z" />
    <glyph glyph-name="ithnang" unicode="&#x1ecb;" horiz-adv-x="782" 
d="M539 1034l63 -39q-10 -59 -14 -142t-4 -167v-321q0 -83 4.5 -134.5t20 -85t49 -50.5t94.5 -23v-72q-173 3 -349 51q-183 -48 -346 -51v72q82 4 117 34t44 89t9 194v211q0 116 -7 165t-34.5 73t-91.5 24h-12v70q145 22 242 22q43 0 90 -2q56 45 125 82zM410 1438
q51 0 83.5 -34t32.5 -83q0 -48 -32.5 -82.5t-83.5 -34.5q-49 0 -83 34t-34 83q0 50 33.5 83.5t83.5 33.5zM403 -123q51 0 84 -34t33 -83q0 -47 -33.5 -81.5t-83.5 -34.5q-48 0 -82 34t-34 82q0 50 33.5 83.5t82.5 33.5z" />
    <glyph glyph-name="ihoasac" horiz-adv-x="924" 
d="M68 1493q150 -8 393 -57q241 49 397 57v-70q-70 -7 -112 -34t-62 -78.5t-25.5 -124.5t-5.5 -195v-471q0 -118 5 -195t25.5 -130.5t61 -84t113.5 -40.5v-70q-161 5 -395 57q-243 -52 -395 -57v70q93 10 136 54t54.5 124t11.5 241v500q0 163 -11.5 245.5t-55 129
t-135.5 59.5v70zM621 1737l-226 -115h-80l195 205q30 33 54 49t50 16q33 0 54.5 -21.5t21.5 -53.5q0 -48 -69 -80z" />
    <glyph glyph-name="ihoahuyen" horiz-adv-x="924" 
d="M68 1493q150 -8 393 -57q241 49 397 57v-70q-70 -7 -112 -34t-62 -78.5t-25.5 -124.5t-5.5 -195v-471q0 -118 5 -195t25.5 -130.5t61 -84t113.5 -40.5v-70q-161 5 -395 57q-243 -52 -395 -57v70q93 10 136 54t54.5 124t11.5 241v500q0 163 -11.5 245.5t-55 129
t-135.5 59.5v70zM446 1829l197 -203h-80l-227 113q-37 18 -53.5 36.5t-16.5 43.5q0 32 22.5 53.5t53.5 21.5q47 0 104 -65z" />
    <glyph glyph-name="ihoahoi" unicode="&#x1ec8;" horiz-adv-x="924" 
d="M68 1493q150 -8 393 -57q241 49 397 57v-70q-70 -7 -112 -34t-62 -78.5t-25.5 -124.5t-5.5 -195v-471q0 -118 5 -195t25.5 -130.5t61 -84t113.5 -40.5v-70q-161 5 -395 57q-243 -52 -395 -57v70q93 10 136 54t54.5 124t11.5 241v500q0 163 -11.5 245.5t-55 129
t-135.5 59.5v70zM459 1870l2 -4q-25 -17 -62 -17q-59 0 -59 47q0 38 48 65.5t128 27.5t125 -31t45 -84q0 -48 -28.5 -72.5t-118.5 -81.5q-50 -27 -50 -53q0 -25 27 -25h8q0 -23 -8 -30.5t-33 -7.5q-26 0 -42.5 15.5t-16.5 43.5q0 43 61 104q30 30 43 53.5t13 67.5
q0 22 -6.5 37t-17.5 23t-25 8q-46 0 -46 -43q0 -20 13 -43z" />
    <glyph glyph-name="ihoanga" unicode="&#x128;" horiz-adv-x="924" 
d="M68 1493q150 -8 393 -57q241 49 397 57v-70q-70 -7 -112 -34t-62 -78.5t-25.5 -124.5t-5.5 -195v-471q0 -118 5 -195t25.5 -130.5t61 -84t113.5 -40.5v-70q-161 5 -395 57q-243 -52 -395 -57v70q93 10 136 54t54.5 124t11.5 241v500q0 163 -11.5 245.5t-55 129
t-135.5 59.5v70zM645 1821l49 2q-18 -94 -56.5 -138.5t-102.5 -44.5q-27 0 -41 5l-80 22q-19 4 -37 4q-54 0 -66 -65h-57q33 182 160 182q35 0 53 -4l84 -21q24 -4 29 -4q24 0 40 15t25 47z" />
    <glyph glyph-name="ihoanang" unicode="&#x1eca;" horiz-adv-x="924" 
d="M68 1493q150 -8 393 -57q241 49 397 57v-70q-70 -7 -112 -34t-62 -78.5t-25.5 -124.5t-5.5 -195v-471q0 -118 5 -195t25.5 -130.5t61 -84t113.5 -40.5v-70q-161 5 -395 57q-243 -52 -395 -57v70q93 10 136 54t54.5 124t11.5 241v500q0 163 -11.5 245.5t-55 129
t-135.5 59.5v70zM463 -102q51 0 84 -34t33 -83q0 -48 -33.5 -82.5t-83.5 -34.5q-49 0 -83 34t-34 83q0 50 33.5 83.5t83.5 33.5z" />
    <glyph glyph-name="uthsac" horiz-adv-x="1450" 
d="M1202 1038l66 -37q-23 -150 -23 -311v-235q0 -102 13 -169.5t43.5 -99.5t82.5 -32q4 0 46 4l12 -78q-121 -33 -305 -33h-37q-62 -32 -105 -65l-67 38q-19 61 -19 158q-29 -63 -83.5 -108t-131.5 -69t-174 -24q-106 0 -173 30t-106.5 90t-56 151.5t-16.5 214.5v131
q0 113 -7 161t-32.5 71.5t-87.5 25.5v70q150 24 311 24q57 47 127 84l66 -39q-17 -116 -17 -389v-110q0 -132 14 -209t50.5 -116.5t103.5 -39.5q94 0 145.5 77.5t51.5 227.5v154q0 120 -7 171t-32.5 76t-87.5 27v72q129 22 274 22h35q57 47 127 84zM950 1251l-225 -114h-80
l195 204q60 66 104 66q19 0 37.5 -10t28.5 -28.5t10 -37.5q0 -46 -70 -80z" />
    <glyph glyph-name="uthhuyen" horiz-adv-x="1450" 
d="M1202 1038l66 -37q-23 -150 -23 -311v-235q0 -102 13 -169.5t43.5 -99.5t82.5 -32q4 0 46 4l12 -78q-121 -33 -305 -33h-37q-62 -32 -105 -65l-67 38q-19 61 -19 158q-29 -63 -83.5 -108t-131.5 -69t-174 -24q-106 0 -173 30t-106.5 90t-56 151.5t-16.5 214.5v131
q0 113 -7 161t-32.5 71.5t-87.5 25.5v70q150 24 311 24q57 47 127 84l66 -39q-17 -116 -17 -389v-110q0 -132 14 -209t50.5 -116.5t103.5 -39.5q94 0 145.5 77.5t51.5 227.5v154q0 120 -7 171t-32.5 76t-87.5 27v72q129 22 274 22h35q57 47 127 84zM725 1343l197 -202h-80
l-228 112q-69 34 -69 80q0 34 22 55t54 21q44 0 104 -66z" />
    <glyph glyph-name="uthhoi" unicode="&#x1ee7;" horiz-adv-x="1450" 
d="M1202 1038l66 -37q-23 -150 -23 -311v-235q0 -102 13 -169.5t43.5 -99.5t82.5 -32q4 0 46 4l12 -78q-121 -33 -305 -33h-37q-62 -32 -105 -65l-67 38q-19 61 -19 158q-29 -63 -83.5 -108t-131.5 -69t-174 -24q-106 0 -173 30t-106.5 90t-56 151.5t-16.5 214.5v131
q0 113 -7 161t-32.5 71.5t-87.5 25.5v70q150 24 311 24q57 47 127 84l66 -39q-17 -116 -17 -389v-110q0 -132 14 -209t50.5 -116.5t103.5 -39.5q94 0 145.5 77.5t51.5 227.5v154q0 120 -7 171t-32.5 76t-87.5 27v72q129 22 274 22h35q57 47 127 84zM788 1395l3 -4
q-25 -17 -62 -17q-59 0 -59 47q0 39 48.5 65.5t127.5 26.5q80 0 125 -31t45 -83q0 -25 -10.5 -45.5t-28.5 -36t-47.5 -34.5t-61.5 -38q-49 -28 -49 -53t27 -25h8q0 -24 -8 -31.5t-33 -7.5t-42 17t-17 43q0 43 61 104q28 28 41.5 52.5t13.5 68.5q0 33 -13 50.5t-36 17.5
q-20 0 -32.5 -11.5t-12.5 -31.5q0 -22 12 -43z" />
    <glyph glyph-name="uthnga" unicode="&#x169;" horiz-adv-x="1450" 
d="M1202 1038l66 -37q-23 -150 -23 -311v-235q0 -102 13 -169.5t43.5 -99.5t82.5 -32q4 0 46 4l12 -78q-121 -33 -305 -33h-37q-62 -32 -105 -65l-67 38q-19 61 -19 158q-29 -63 -83.5 -108t-131.5 -69t-174 -24q-106 0 -173 30t-106.5 90t-56 151.5t-16.5 214.5v131
q0 113 -7 161t-32.5 71.5t-87.5 25.5v70q150 24 311 24q57 47 127 84l66 -39q-17 -116 -17 -389v-110q0 -132 14 -209t50.5 -116.5t103.5 -39.5q94 0 145.5 77.5t51.5 227.5v154q0 120 -7 171t-32.5 76t-87.5 27v72q129 22 274 22h35q57 47 127 84zM924 1366l49 2
q-18 -93 -56.5 -137.5t-103.5 -44.5q-27 0 -41 4l-80 22q-18 5 -37 5q-53 0 -65 -66h-58q34 182 160 182q35 0 53 -4l84 -20q26 -4 29 -4q48 0 66 61z" />
    <glyph glyph-name="uthnang" unicode="&#x1ee5;" horiz-adv-x="1450" 
d="M1202 1038l66 -37q-23 -150 -23 -311v-235q0 -102 13 -169.5t43.5 -99.5t82.5 -32q4 0 46 4l12 -78q-121 -33 -305 -33h-37q-62 -32 -105 -65l-67 38q-19 61 -19 158q-29 -63 -83.5 -108t-131.5 -69t-174 -24q-106 0 -173 30t-106.5 90t-56 151.5t-16.5 214.5v131
q0 113 -7 161t-32.5 71.5t-87.5 25.5v70q150 24 311 24q57 47 127 84l66 -39q-17 -116 -17 -389v-110q0 -132 14 -209t50.5 -116.5t103.5 -39.5q94 0 145.5 77.5t51.5 227.5v154q0 120 -7 171t-32.5 76t-87.5 27v72q129 22 274 22h35q57 47 127 84zM741 -125q51 0 84 -34
t33 -83q0 -47 -33.5 -81.5t-83.5 -34.5q-48 0 -82 34t-34 82q0 50 33.5 83.5t82.5 33.5z" />
    <glyph glyph-name="uhoasac" horiz-adv-x="1835" 
d="M61 1493q136 -5 375 -57q221 52 375 57v-72q-87 -7 -128 -50t-51.5 -121.5t-10.5 -237.5v-107q0 -201 13 -339.5t42 -213.5q43 -102 130 -156.5t210 -54.5q241 0 342 191q40 74 52.5 190t12.5 314v200q0 154 -12 226t-57.5 110.5t-147.5 48.5v72q130 -6 297 -45
q176 38 283 45v-72q-88 -4 -130.5 -40t-54.5 -103.5t-12 -194.5v-325q0 -137 -9.5 -232t-37 -178.5t-76.5 -148.5q-54 -72 -135.5 -123t-190 -76t-233.5 -25q-317 0 -485 152q-72 64 -111.5 151.5t-54 196t-14.5 262.5v330q0 110 -4 166t-20.5 97.5t-53.5 64t-103 26.5v72z
M1266 1737l-226 -115h-79l194 205q59 65 105 65q31 0 53 -22t22 -53q0 -48 -69 -80z" />
    <glyph glyph-name="uhoahuyen" horiz-adv-x="1835" 
d="M61 1493q136 -5 375 -57q221 52 375 57v-72q-87 -7 -128 -50t-51.5 -121.5t-10.5 -237.5v-107q0 -201 13 -339.5t42 -213.5q43 -102 130 -156.5t210 -54.5q241 0 342 191q40 74 52.5 190t12.5 314v200q0 154 -12 226t-57.5 110.5t-147.5 48.5v72q130 -6 297 -45
q176 38 283 45v-72q-88 -4 -130.5 -40t-54.5 -103.5t-12 -194.5v-325q0 -137 -9.5 -232t-37 -178.5t-76.5 -148.5q-54 -72 -135.5 -123t-190 -76t-233.5 -25q-317 0 -485 152q-72 64 -111.5 151.5t-54 196t-14.5 262.5v330q0 110 -4 166t-20.5 97.5t-53.5 64t-103 26.5v72z
M887 1819l196 -203h-79l-228 113q-69 32 -69 79q0 33 21.5 54.5t53.5 21.5q46 0 105 -65z" />
    <glyph glyph-name="uhoahoi" unicode="&#x1ee6;" horiz-adv-x="1835" 
d="M61 1493q136 -5 375 -57q221 52 375 57v-72q-87 -7 -128 -50t-51.5 -121.5t-10.5 -237.5v-107q0 -201 13 -339.5t42 -213.5q43 -102 130 -156.5t210 -54.5q241 0 342 191q40 74 52.5 190t12.5 314v200q0 154 -12 226t-57.5 110.5t-147.5 48.5v72q130 -6 297 -45
q176 38 283 45v-72q-88 -4 -130.5 -40t-54.5 -103.5t-12 -194.5v-325q0 -137 -9.5 -232t-37 -178.5t-76.5 -148.5q-54 -72 -135.5 -123t-190 -76t-233.5 -25q-317 0 -485 152q-72 64 -111.5 151.5t-54 196t-14.5 262.5v330q0 110 -4 166t-20.5 97.5t-53.5 64t-103 26.5v72z
M991 1880l2 -4q-24 -16 -61 -16q-60 0 -60 47q0 39 48 65.5t129 26.5q80 0 125 -31t45 -84q0 -48 -26.5 -70.5t-121.5 -82.5q-49 -28 -49 -54q0 -24 27 -24h8q0 -24 -8 -31.5t-33 -7.5t-42.5 15.5t-17.5 43.5q0 27 15 50t47 55q27 25 41 50.5t14 69.5q0 32 -13 50t-36 18
q-45 0 -45 -43q0 -22 12 -43z" />
    <glyph glyph-name="uhoanga" unicode="&#x168;" horiz-adv-x="1835" 
d="M61 1493q136 -5 375 -57q221 52 375 57v-72q-87 -7 -128 -50t-51.5 -121.5t-10.5 -237.5v-107q0 -201 13 -339.5t42 -213.5q43 -102 130 -156.5t210 -54.5q241 0 342 191q40 74 52.5 190t12.5 314v200q0 154 -12 226t-57.5 110.5t-147.5 48.5v72q130 -6 297 -45
q176 38 283 45v-72q-88 -4 -130.5 -40t-54.5 -103.5t-12 -194.5v-325q0 -137 -9.5 -232t-37 -178.5t-76.5 -148.5q-54 -72 -135.5 -123t-190 -76t-233.5 -25q-317 0 -485 152q-72 64 -111.5 151.5t-54 196t-14.5 262.5v330q0 110 -4 166t-20.5 97.5t-53.5 64t-103 26.5v72z
M1198 1821l49 2q-18 -94 -56.5 -138.5t-103.5 -44.5q-26 0 -40 5l-80 22q-19 4 -37 4q-54 0 -66 -65h-57q33 182 160 182q34 0 53 -4l84 -21q24 -4 29 -4q24 0 40 15t25 47z" />
    <glyph glyph-name="uhoanang" unicode="&#x1ee4;" horiz-adv-x="1835" 
d="M61 1493q136 -5 375 -57q221 52 375 57v-72q-87 -7 -128 -50t-51.5 -121.5t-10.5 -237.5v-107q0 -201 13 -339.5t42 -213.5q43 -102 130 -156.5t210 -54.5q241 0 342 191q40 74 52.5 190t12.5 314v200q0 154 -12 226t-57.5 110.5t-147.5 48.5v72q130 -6 297 -45
q176 38 283 45v-72q-88 -4 -130.5 -40t-54.5 -103.5t-12 -194.5v-325q0 -137 -9.5 -232t-37 -178.5t-76.5 -148.5q-54 -72 -135.5 -123t-190 -76t-233.5 -25q-317 0 -485 152q-72 64 -111.5 151.5t-54 196t-14.5 262.5v330q0 110 -4 166t-20.5 97.5t-53.5 64t-103 26.5v72z
M924 -127q51 0 83.5 -34t32.5 -83q0 -47 -32.5 -81.5t-83.5 -34.5q-49 0 -83 34t-34 82q0 50 33.5 83.5t83.5 33.5z" />
    <glyph glyph-name="ythsac" horiz-adv-x="1210" 
d="M-35 991q171 -6 314 -53q138 44 317 53v-67q-82 -6 -82 -78q0 -37 29.5 -124t89.5 -206l92 -184l88 211q61 144 61 235q0 137 -124 146v67q130 -3 276 -41q119 35 225 41v-67q-74 -1 -137 -75.5t-128.5 -209.5t-180.5 -403q-124 -286 -180 -409t-124 -230t-142 -160
t-171 -53q-67 0 -108 34t-41 86q0 71 45 119q58 -39 119 -39q74 0 132 38t110 117.5t104 197.5q-11 30 -35 85t-43 92.5t-36.5 72.5l-28.5 57l-156 311q-71 140 -111 210.5t-82 112.5t-92 46v67zM889 1245l-225 -115h-80l194 205q60 66 105 66q32 0 53.5 -21.5t21.5 -54.5
q0 -46 -69 -80z" />
    <glyph glyph-name="ythhuyen" unicode="&#x1ef3;" horiz-adv-x="1210" 
d="M-35 991q171 -6 314 -53q138 44 317 53v-67q-82 -6 -82 -78q0 -37 29.5 -124t89.5 -206l92 -184l88 211q61 144 61 235q0 137 -124 146v67q130 -3 276 -41q119 35 225 41v-67q-74 -1 -137 -75.5t-128.5 -209.5t-180.5 -403q-124 -286 -180 -409t-124 -230t-142 -160
t-171 -53q-67 0 -108 34t-41 86q0 71 45 119q58 -39 119 -39q74 0 132 38t110 117.5t104 197.5q-11 30 -35 85t-43 92.5t-36.5 72.5l-28.5 57l-156 311q-71 140 -111 210.5t-82 112.5t-92 46v67zM551 1337l197 -202h-80l-228 112q-69 34 -69 80q0 33 21.5 54.5t53.5 21.5
q45 0 105 -66z" />
    <glyph glyph-name="ythhoi" unicode="&#x1ef7;" horiz-adv-x="1210" 
d="M-35 991q171 -6 314 -53q138 44 317 53v-67q-82 -6 -82 -78q0 -37 29.5 -124t89.5 -206l92 -184l88 211q61 144 61 235q0 137 -124 146v67q130 -3 276 -41q119 35 225 41v-67q-74 -1 -137 -75.5t-128.5 -209.5t-180.5 -403q-124 -286 -180 -409t-124 -230t-142 -160
t-171 -53q-67 0 -108 34t-41 86q0 71 45 119q58 -39 119 -39q74 0 132 38t110 117.5t104 197.5q-11 30 -35 85t-43 92.5t-36.5 72.5l-28.5 57l-156 311q-71 140 -111 210.5t-82 112.5t-92 46v67zM635 1378l2 -4q-25 -16 -62 -16q-59 0 -59 47q0 39 48 65.5t128 26.5t125 -31
t45 -84q0 -24 -10.5 -44.5t-28 -36t-47 -34.5t-61.5 -38q-49 -28 -49 -53t26 -25h8q0 -24 -8 -31.5t-33 -7.5q-26 0 -42.5 15.5t-16.5 43.5q0 27 15 50t47 55q32 34 43.5 55.5t11.5 65.5q0 31 -14 49t-35 18q-45 0 -45 -43q0 -20 12 -43z" />
    <glyph glyph-name="ythnga" unicode="&#x1ef9;" horiz-adv-x="1210" 
d="M-35 991q171 -6 314 -53q138 44 317 53v-67q-82 -6 -82 -78q0 -37 29.5 -124t89.5 -206l92 -184l88 211q61 144 61 235q0 137 -124 146v67q130 -3 276 -41q119 35 225 41v-67q-74 -1 -137 -75.5t-128.5 -209.5t-180.5 -403q-124 -286 -180 -409t-124 -230t-142 -160
t-171 -53q-67 0 -108 34t-41 86q0 71 45 119q58 -39 119 -39q74 0 132 38t110 117.5t104 197.5q-11 30 -35 85t-43 92.5t-36.5 72.5l-28.5 57l-156 311q-71 140 -111 210.5t-82 112.5t-92 46v67zM852 1319l49 2q-35 -182 -160 -182q-26 0 -41 4l-79 22q-19 4 -37 4
q-54 0 -66 -65h-57q33 182 160 182q34 0 53 -4l84 -20q30 -5 28 -5q25 0 41 15t25 47z" />
    <glyph glyph-name="ythnang" unicode="&#x1ef5;" horiz-adv-x="1210" 
d="M-35 991q171 -6 314 -53q138 44 317 53v-67q-82 -6 -82 -78q0 -37 29.5 -124t89.5 -206l92 -184l88 211q61 144 61 235q0 137 -124 146v67q130 -3 276 -41q119 35 225 41v-67q-74 -1 -137 -75.5t-128.5 -209.5t-180.5 -403q-124 -286 -180 -409t-124 -230t-142 -160
t-171 -53q-67 0 -108 34t-41 86q0 71 45 119q58 -39 119 -39q74 0 132 38t110 117.5t104 197.5q-11 30 -35 85t-43 92.5t-36.5 72.5l-28.5 57l-156 311q-71 140 -111 210.5t-82 112.5t-92 46v67zM711 -381q51 0 83.5 -34t32.5 -83q0 -47 -32.5 -81.5t-83.5 -34.5
q-49 0 -83 34t-34 82q0 50 33.5 83.5t83.5 33.5z" />
    <glyph glyph-name="yhoasac" horiz-adv-x="1526" 
d="M-25 1493q184 -9 363 -51q71 20 155.5 32t188.5 19v-72q-55 -8 -78.5 -23t-23.5 -48q0 -86 303 -557q87 148 145 253t86.5 174t28.5 111q0 84 -129 90v72q151 -6 299 -45q128 35 268 45v-72q-69 -7 -120 -44t-95 -94t-127 -181q-171 -265 -213 -361q-37 -87 -37 -215v-20
q0 -165 14 -250.5t62.5 -131t148.5 -54.5v-70q-167 5 -413 57q-245 -52 -416 -57v70q88 5 136.5 38t68.5 101.5t20 183.5v72q0 66 -5 106.5t-25 79.5q-22 49 -84.5 146.5t-161.5 240.5q-109 159 -159.5 227t-100.5 111.5t-99 44.5v72zM1079 1726l-225 -114h-80l195 205
q32 36 54 50.5t50 14.5q19 0 37.5 -10t28.5 -28.5t10 -37.5q0 -46 -70 -80z" />
    <glyph glyph-name="yhoahuyen" unicode="&#x1ef2;" horiz-adv-x="1526" 
d="M-25 1493q184 -9 363 -51q71 20 155.5 32t188.5 19v-72q-55 -8 -78.5 -23t-23.5 -48q0 -86 303 -557q87 148 145 253t86.5 174t28.5 111q0 84 -129 90v72q151 -6 299 -45q128 35 268 45v-72q-69 -7 -120 -44t-95 -94t-127 -181q-171 -265 -213 -361q-37 -87 -37 -215v-20
q0 -165 14 -250.5t62.5 -131t148.5 -54.5v-70q-167 5 -413 57q-245 -52 -416 -57v70q88 5 136.5 38t68.5 101.5t20 183.5v72q0 66 -5 106.5t-25 79.5q-22 49 -84.5 146.5t-161.5 240.5q-109 159 -159.5 227t-100.5 111.5t-99 44.5v72zM752 1819l196 -203h-80l-227 113
q-70 33 -70 79q0 34 22 55t54 21q46 0 105 -65z" />
    <glyph glyph-name="yhoahoi" unicode="&#x1ef6;" horiz-adv-x="1526" 
d="M-25 1493q184 -9 363 -51q71 20 155.5 32t188.5 19v-72q-55 -8 -78.5 -23t-23.5 -48q0 -86 303 -557q87 148 145 253t86.5 174t28.5 111q0 84 -129 90v72q151 -6 299 -45q128 35 268 45v-72q-69 -7 -120 -44t-95 -94t-127 -181q-171 -265 -213 -361q-37 -87 -37 -215v-20
q0 -165 14 -250.5t62.5 -131t148.5 -54.5v-70q-167 5 -413 57q-245 -52 -416 -57v70q88 5 136.5 38t68.5 101.5t20 183.5v72q0 66 -5 106.5t-25 79.5q-22 49 -84.5 146.5t-161.5 240.5q-109 159 -159.5 227t-100.5 111.5t-99 44.5v72zM805 1880l2 -4q-25 -16 -62 -16
q-59 0 -59 47q0 39 48 65.5t128 26.5t125 -31t45 -84q0 -48 -26 -70.5t-121 -82.5q-49 -28 -49 -54q0 -24 26 -24h8q0 -24 -8 -31.5t-33 -7.5q-26 0 -42.5 15.5t-16.5 43.5q0 42 61 105q29 27 42.5 51.5t13.5 68.5q0 32 -14 50t-35 18q-45 0 -45 -43q0 -22 12 -43z" />
    <glyph glyph-name="yhoanga" unicode="&#x1ef8;" horiz-adv-x="1526" 
d="M-25 1493q184 -9 363 -51q71 20 155.5 32t188.5 19v-72q-55 -8 -78.5 -23t-23.5 -48q0 -86 303 -557q87 148 145 253t86.5 174t28.5 111q0 84 -129 90v72q151 -6 299 -45q128 35 268 45v-72q-69 -7 -120 -44t-95 -94t-127 -181q-171 -265 -213 -361q-37 -87 -37 -215v-20
q0 -165 14 -250.5t62.5 -131t148.5 -54.5v-70q-167 5 -413 57q-245 -52 -416 -57v70q88 5 136.5 38t68.5 101.5t20 183.5v72q0 66 -5 106.5t-25 79.5q-22 49 -84.5 146.5t-161.5 240.5q-109 159 -159.5 227t-100.5 111.5t-99 44.5v72zM1022 1821l49 2q-35 -183 -160 -183
q-26 0 -41 5l-79 22q-19 4 -37 4q-54 0 -66 -65h-57q33 182 160 182q34 0 53 -4l84 -21q24 -4 28 -4q25 0 41 15t25 47z" />
    <glyph glyph-name="yhoanang" unicode="&#x1ef4;" horiz-adv-x="1526" 
d="M-25 1493q184 -9 363 -51q71 20 155.5 32t188.5 19v-72q-55 -8 -78.5 -23t-23.5 -48q0 -86 303 -557q87 148 145 253t86.5 174t28.5 111q0 84 -129 90v72q151 -6 299 -45q128 35 268 45v-72q-69 -7 -120 -44t-95 -94t-127 -181q-171 -265 -213 -361q-37 -87 -37 -215v-20
q0 -165 14 -250.5t62.5 -131t148.5 -54.5v-70q-167 5 -413 57q-245 -52 -416 -57v70q88 5 136.5 38t68.5 101.5t20 183.5v72q0 66 -5 106.5t-25 79.5q-22 49 -84.5 146.5t-161.5 240.5q-109 159 -159.5 227t-100.5 111.5t-99 44.5v72zM809 -113q33 0 59.5 -15.5t42 -41.5
t15.5 -59q0 -48 -33.5 -82.5t-83.5 -34.5q-49 0 -83 34t-34 83q0 51 33.5 83.5t83.5 32.5z" />
    <glyph glyph-name="octhsac" unicode="&#x1edb;" horiz-adv-x="1358" 
d="M678 940q-110 0 -165.5 -109t-55.5 -325t56 -326t165 -110t166 109.5t57 326.5t-57 325.5t-166 108.5zM1292 504q0 -151 -74 -271.5t-213.5 -189t-326.5 -68.5q-186 0 -326 68.5t-214.5 189t-74.5 271.5q0 111 42.5 210t123 170.5t194 110.5t255.5 39q103 0 193.5 -21.5
t159 -59.5t124.5 -97.5t88 -128.5q31 6 69 36t44 58q8 26 8 37q0 47 -57 47q-15 20 -15 43q0 35 31.5 59.5t71.5 24.5q45 0 72.5 -30.5t27.5 -71.5q0 -53 -43 -115.5t-98.5 -104.5t-85.5 -42q24 -77 24 -164zM846 1268l-225 -115h-80l194 205q59 65 105 65q31 0 53 -22
t22 -53q0 -48 -69 -80z" />
    <glyph glyph-name="octhhuyen" unicode="&#x1edd;" horiz-adv-x="1358" 
d="M678 940q-110 0 -165.5 -109t-55.5 -325t56 -326t165 -110t166 109.5t57 326.5t-57 325.5t-166 108.5zM1292 504q0 -151 -74 -271.5t-213.5 -189t-326.5 -68.5q-186 0 -326 68.5t-214.5 189t-74.5 271.5q0 111 42.5 210t123 170.5t194 110.5t255.5 39q103 0 193.5 -21.5
t159 -59.5t124.5 -97.5t88 -128.5q31 6 69 36t44 58q8 26 8 37q0 47 -57 47q-15 20 -15 43q0 35 31.5 59.5t71.5 24.5q45 0 72.5 -30.5t27.5 -71.5q0 -53 -43 -115.5t-98.5 -104.5t-85.5 -42q24 -77 24 -164zM682 1350l197 -203h-80l-228 113q-69 32 -69 79q0 34 22 55
t54 21q45 0 104 -65z" />
    <glyph glyph-name="octhhoi" unicode="&#x1edf;" horiz-adv-x="1358" 
d="M678 940q-110 0 -165.5 -109t-55.5 -325t56 -326t165 -110t166 109.5t57 326.5t-57 325.5t-166 108.5zM1292 504q0 -151 -74 -271.5t-213.5 -189t-326.5 -68.5q-186 0 -326 68.5t-214.5 189t-74.5 271.5q0 111 42.5 210t123 170.5t194 110.5t255.5 39q103 0 193.5 -21.5
t159 -59.5t124.5 -97.5t88 -128.5q31 6 69 36t44 58q8 26 8 37q0 47 -57 47q-15 20 -15 43q0 35 31.5 59.5t71.5 24.5q45 0 72.5 -30.5t27.5 -71.5q0 -53 -43 -115.5t-98.5 -104.5t-85.5 -42q24 -77 24 -164zM674 1421l2 -4q-25 -16 -62 -16q-59 0 -59 47q0 39 48 65.5
t128 26.5t125 -31t45 -84q0 -24 -10.5 -44.5t-28 -36t-47 -34.5t-61.5 -38q-49 -28 -49 -53t26 -25h8q0 -24 -8 -31.5t-33 -7.5q-26 0 -42.5 15.5t-16.5 43.5q0 42 61 105q31 31 43.5 54t12.5 67q0 31 -14 49t-35 18q-45 0 -45 -43q0 -20 12 -43z" />
    <glyph glyph-name="octhnga" unicode="&#x1ee1;" horiz-adv-x="1358" 
d="M678 940q-110 0 -165.5 -109t-55.5 -325t56 -326t165 -110t166 109.5t57 326.5t-57 325.5t-166 108.5zM1292 504q0 -151 -74 -271.5t-213.5 -189t-326.5 -68.5q-186 0 -326 68.5t-214.5 189t-74.5 271.5q0 111 42.5 210t123 170.5t194 110.5t255.5 39q103 0 193.5 -21.5
t159 -59.5t124.5 -97.5t88 -128.5q31 6 69 36t44 58q8 26 8 37q0 47 -57 47q-15 20 -15 43q0 35 31.5 59.5t71.5 24.5q45 0 72.5 -30.5t27.5 -71.5q0 -53 -43 -115.5t-98.5 -104.5t-85.5 -42q24 -77 24 -164zM870 1352l50 2q-18 -93 -57 -138t-103 -45q-27 0 -41 5l-80 22
q-18 4 -37 4q-53 0 -65 -65h-58q34 182 160 182q35 0 53 -4l84 -21q24 -4 29 -4q26 0 40.5 14t24.5 48z" />
    <glyph glyph-name="octhnang" unicode="&#x1ee3;" horiz-adv-x="1358" 
d="M678 940q-110 0 -165.5 -109t-55.5 -325t56 -326t165 -110t166 109.5t57 326.5t-57 325.5t-166 108.5zM1292 504q0 -151 -74 -271.5t-213.5 -189t-326.5 -68.5q-186 0 -326 68.5t-214.5 189t-74.5 271.5q0 111 42.5 210t123 170.5t194 110.5t255.5 39q103 0 193.5 -21.5
t159 -59.5t124.5 -97.5t88 -128.5q31 6 69 36t44 58q8 26 8 37q0 47 -57 47q-15 20 -15 43q0 35 31.5 59.5t71.5 24.5q45 0 72.5 -30.5t27.5 -71.5q0 -53 -43 -115.5t-98.5 -104.5t-85.5 -42q24 -77 24 -164zM678 -127q51 0 84 -34t33 -83q0 -47 -33.5 -81.5t-83.5 -34.5
q-49 0 -83 34t-34 82q0 50 33.5 83.5t83.5 33.5z" />
    <glyph glyph-name="ochoasac" unicode="&#x1eda;" horiz-adv-x="1843" 
d="M1772 748q0 -161 -61 -304.5t-175.5 -248.5t-271.5 -162.5t-342 -57.5q-186 0 -343.5 58t-271 163t-174.5 248t-61 304q0 162 62 304.5t175 246.5t269 161.5t344 57.5q170 0 308.5 -45t232.5 -113.5t151 -147.5q38 2 86.5 33.5t54.5 61.5q8 24 8 36q0 48 -57 48
q-14 20 -14 43q0 35 31.5 59.5t70.5 24.5q45 0 72.5 -31.5t27.5 -71.5q0 -64 -42.5 -127.5t-98.5 -103t-88 -39.5q32 -49 56.5 -115t37.5 -141.5t13 -140.5zM922 1421q-125 0 -214.5 -76.5t-137.5 -229t-48 -367.5q0 -216 48 -369t138.5 -230t213.5 -77t213.5 77t139 229
t48.5 370q0 169 -27.5 293t-78.5 208t-126 128t-169 44zM1069 1751l-225 -115h-80l194 205q60 66 105 66q19 0 37.5 -10t28.5 -28.5t10 -37.5q0 -46 -70 -80z" />
    <glyph glyph-name="ochoahuyen" unicode="&#x1edc;" horiz-adv-x="1843" 
d="M1772 748q0 -161 -61 -304.5t-175.5 -248.5t-271.5 -162.5t-342 -57.5q-186 0 -343.5 58t-271 163t-174.5 248t-61 304q0 162 62 304.5t175 246.5t269 161.5t344 57.5q170 0 308.5 -45t232.5 -113.5t151 -147.5q38 2 86.5 33.5t54.5 61.5q8 24 8 36q0 48 -57 48
q-14 20 -14 43q0 35 31.5 59.5t70.5 24.5q45 0 72.5 -31.5t27.5 -71.5q0 -64 -42.5 -127.5t-98.5 -103t-88 -39.5q32 -49 56.5 -115t37.5 -141.5t13 -140.5zM922 1421q-125 0 -214.5 -76.5t-137.5 -229t-48 -367.5q0 -216 48 -369t138.5 -230t213.5 -77t213.5 77t139 229
t48.5 370q0 169 -27.5 293t-78.5 208t-126 128t-169 44zM926 1833l196 -203h-80l-227 113q-37 18 -53.5 36.5t-16.5 43.5q0 32 22.5 53.5t53.5 21.5q46 0 105 -65z" />
    <glyph glyph-name="ochoahoi" unicode="&#x1ede;" horiz-adv-x="1843" 
d="M1772 748q0 -161 -61 -304.5t-175.5 -248.5t-271.5 -162.5t-342 -57.5q-186 0 -343.5 58t-271 163t-174.5 248t-61 304q0 162 62 304.5t175 246.5t269 161.5t344 57.5q170 0 308.5 -45t232.5 -113.5t151 -147.5q38 2 86.5 33.5t54.5 61.5q8 24 8 36q0 48 -57 48
q-14 20 -14 43q0 35 31.5 59.5t70.5 24.5q45 0 72.5 -31.5t27.5 -71.5q0 -64 -42.5 -127.5t-98.5 -103t-88 -39.5q32 -49 56.5 -115t37.5 -141.5t13 -140.5zM922 1421q-125 0 -214.5 -76.5t-137.5 -229t-48 -367.5q0 -216 48 -369t138.5 -230t213.5 -77t213.5 77t139 229
t48.5 370q0 169 -27.5 293t-78.5 208t-126 128t-169 44zM918 1894l2 -4q-25 -16 -62 -16q-59 0 -59 47q0 39 48.5 65.5t127.5 26.5q80 0 125 -31t45 -84q0 -24 -10.5 -44.5t-28.5 -36t-47.5 -34.5t-61.5 -38q-49 -29 -49 -53q0 -25 27 -25h8q0 -24 -8 -31.5t-33 -7.5t-42 17
t-17 43q0 43 61 104q29 29 42 53t13 68q0 31 -13 49t-36 18q-19 0 -32 -12t-13 -31q0 -21 13 -43z" />
    <glyph glyph-name="ochoanga" unicode="&#x1ee0;" horiz-adv-x="1843" 
d="M1772 748q0 -161 -61 -304.5t-175.5 -248.5t-271.5 -162.5t-342 -57.5q-186 0 -343.5 58t-271 163t-174.5 248t-61 304q0 162 62 304.5t175 246.5t269 161.5t344 57.5q170 0 308.5 -45t232.5 -113.5t151 -147.5q38 2 86.5 33.5t54.5 61.5q8 24 8 36q0 48 -57 48
q-14 20 -14 43q0 35 31.5 59.5t70.5 24.5q45 0 72.5 -31.5t27.5 -71.5q0 -64 -42.5 -127.5t-98.5 -103t-88 -39.5q32 -49 56.5 -115t37.5 -141.5t13 -140.5zM922 1421q-125 0 -214.5 -76.5t-137.5 -229t-48 -367.5q0 -216 48 -369t138.5 -230t213.5 -77t213.5 77t139 229
t48.5 370q0 169 -27.5 293t-78.5 208t-126 128t-169 44zM1094 1835l49 2q-18 -93 -56.5 -137.5t-103.5 -44.5q-27 0 -41 4l-80 22q-18 5 -37 5q-53 0 -65 -66h-58q34 182 160 182q35 0 53 -4l84 -20q26 -4 29 -4q48 0 66 61z" />
    <glyph glyph-name="ochoanang" unicode="&#x1ee2;" horiz-adv-x="1843" 
d="M1772 748q0 -161 -61 -304.5t-175.5 -248.5t-271.5 -162.5t-342 -57.5q-186 0 -343.5 58t-271 163t-174.5 248t-61 304q0 162 62 304.5t175 246.5t269 161.5t344 57.5q170 0 308.5 -45t232.5 -113.5t151 -147.5q38 2 86.5 33.5t54.5 61.5q8 24 8 36q0 48 -57 48
q-14 20 -14 43q0 35 31.5 59.5t70.5 24.5q45 0 72.5 -31.5t27.5 -71.5q0 -64 -42.5 -127.5t-98.5 -103t-88 -39.5q32 -49 56.5 -115t37.5 -141.5t13 -140.5zM922 1421q-125 0 -214.5 -76.5t-137.5 -229t-48 -367.5q0 -216 48 -369t138.5 -230t213.5 -77t213.5 77t139 229
t48.5 370q0 169 -27.5 293t-78.5 208t-126 128t-169 44zM922 -127q51 0 83.5 -34t32.5 -83q0 -47 -32.5 -81.5t-83.5 -34.5q-49 0 -83 34t-34 82q0 50 33.5 83.5t83.5 33.5z" />
    <glyph glyph-name="ucthsac" unicode="&#x1ee9;" horiz-adv-x="1450" 
d="M1202 1038l43 -26v-287q37 1 86 33.5t55 60.5q9 22 9 37q0 47 -58 47q-14 21 -14 43q0 35 31.5 59.5t70.5 24.5q45 0 73 -30t28 -72q-4 -74 -57.5 -136t-121 -97.5t-102.5 -35.5v-204q0 -102 13 -169.5t43.5 -99.5t82.5 -32q4 0 46 4l12 -78q-121 -33 -305 -33h-37
q-62 -32 -105 -65l-67 38q-19 61 -19 158q-29 -63 -83.5 -108t-131.5 -69t-174 -24q-106 0 -173 30t-106.5 90t-56 151.5t-16.5 214.5v131q0 113 -7 161t-32.5 71.5t-87.5 25.5v70q150 24 311 24q57 47 127 84l66 -39q-17 -116 -17 -389v-110q0 -132 14 -209t50.5 -116.5
t103.5 -39.5q94 0 145.5 77.5t51.5 227.5v154q0 120 -7 171t-32.5 76t-87.5 27v72q129 22 274 22h35q57 47 127 84zM928 1262l-226 -115h-79l194 205q59 65 105 65q32 0 53.5 -21.5t21.5 -54.5q0 -47 -69 -79z" />
    <glyph glyph-name="ucthhuyen" unicode="&#x1eeb;" horiz-adv-x="1450" 
d="M1202 1038l43 -26v-287q37 1 86 33.5t55 60.5q9 22 9 37q0 47 -58 47q-14 21 -14 43q0 35 31.5 59.5t70.5 24.5q45 0 73 -30t28 -72q-4 -74 -57.5 -136t-121 -97.5t-102.5 -35.5v-204q0 -102 13 -169.5t43.5 -99.5t82.5 -32q4 0 46 4l12 -78q-121 -33 -305 -33h-37
q-62 -32 -105 -65l-67 38q-19 61 -19 158q-29 -63 -83.5 -108t-131.5 -69t-174 -24q-106 0 -173 30t-106.5 90t-56 151.5t-16.5 214.5v131q0 113 -7 161t-32.5 71.5t-87.5 25.5v70q150 24 311 24q57 47 127 84l66 -39q-17 -116 -17 -389v-110q0 -132 14 -209t50.5 -116.5
t103.5 -39.5q94 0 145.5 77.5t51.5 227.5v154q0 120 -7 171t-32.5 76t-87.5 27v72q129 22 274 22h35q57 47 127 84zM702 1354l197 -203h-80l-227 113q-70 33 -70 79q0 34 22 55t54 21q47 0 104 -65z" />
    <glyph glyph-name="ucthhoi" unicode="&#x1eed;" horiz-adv-x="1450" 
d="M1202 1038l43 -26v-287q37 1 86 33.5t55 60.5q9 22 9 37q0 47 -58 47q-14 21 -14 43q0 35 31.5 59.5t70.5 24.5q45 0 73 -30t28 -72q-4 -74 -57.5 -136t-121 -97.5t-102.5 -35.5v-204q0 -102 13 -169.5t43.5 -99.5t82.5 -32q4 0 46 4l12 -78q-121 -33 -305 -33h-37
q-62 -32 -105 -65l-67 38q-19 61 -19 158q-29 -63 -83.5 -108t-131.5 -69t-174 -24q-106 0 -173 30t-106.5 90t-56 151.5t-16.5 214.5v131q0 113 -7 161t-32.5 71.5t-87.5 25.5v70q150 24 311 24q57 47 127 84l66 -39q-17 -116 -17 -389v-110q0 -132 14 -209t50.5 -116.5
t103.5 -39.5q94 0 145.5 77.5t51.5 227.5v154q0 120 -7 171t-32.5 76t-87.5 27v72q129 22 274 22h35q57 47 127 84zM766 1405l2 -4q-25 -17 -61 -17q-26 0 -43 13.5t-17 34.5q0 39 48 65.5t128 26.5t125 -31t45 -84q0 -48 -28.5 -72.5t-118.5 -81.5q-49 -27 -49 -53
q0 -24 26 -24h8q0 -24 -8 -31.5t-32 -7.5q-25 0 -42.5 15.5t-17.5 43.5q0 27 15 50t47 55q29 29 42 52.5t13 67.5q0 22 -6.5 37t-17.5 23t-25 8q-45 0 -45 -43q0 -22 12 -43z" />
    <glyph glyph-name="ucthnga" unicode="&#x1eef;" horiz-adv-x="1450" 
d="M1202 1038l43 -26v-287q37 1 86 33.5t55 60.5q9 22 9 37q0 47 -58 47q-14 21 -14 43q0 35 31.5 59.5t70.5 24.5q45 0 73 -30t28 -72q-4 -74 -57.5 -136t-121 -97.5t-102.5 -35.5v-204q0 -102 13 -169.5t43.5 -99.5t82.5 -32q4 0 46 4l12 -78q-121 -33 -305 -33h-37
q-62 -32 -105 -65l-67 38q-19 61 -19 158q-29 -63 -83.5 -108t-131.5 -69t-174 -24q-106 0 -173 30t-106.5 90t-56 151.5t-16.5 214.5v131q0 113 -7 161t-32.5 71.5t-87.5 25.5v70q150 24 311 24q57 47 127 84l66 -39q-17 -116 -17 -389v-110q0 -132 14 -209t50.5 -116.5
t103.5 -39.5q94 0 145.5 77.5t51.5 227.5v154q0 120 -7 171t-32.5 76t-87.5 27v72q129 22 274 22h35q57 47 127 84zM901 1376l49 2q-18 -94 -56 -138t-103 -44q-27 0 -41 4l-80 23q-19 4 -37 4q-54 0 -66 -66h-57q33 182 160 182q35 0 53 -4l84 -20q24 -4 29 -4q48 0 65 61z
" />
    <glyph glyph-name="ucthnang" unicode="&#x1ef1;" horiz-adv-x="1450" 
d="M1202 1038l43 -26v-287q37 1 86 33.5t55 60.5q9 22 9 37q0 47 -58 47q-14 21 -14 43q0 35 31.5 59.5t70.5 24.5q45 0 73 -30t28 -72q-4 -74 -57.5 -136t-121 -97.5t-102.5 -35.5v-204q0 -102 13 -169.5t43.5 -99.5t82.5 -32q4 0 46 4l12 -78q-121 -33 -305 -33h-37
q-62 -32 -105 -65l-67 38q-19 61 -19 158q-29 -63 -83.5 -108t-131.5 -69t-174 -24q-106 0 -173 30t-106.5 90t-56 151.5t-16.5 214.5v131q0 113 -7 161t-32.5 71.5t-87.5 25.5v70q150 24 311 24q57 47 127 84l66 -39q-17 -116 -17 -389v-110q0 -132 14 -209t50.5 -116.5
t103.5 -39.5q94 0 145.5 77.5t51.5 227.5v154q0 120 -7 171t-32.5 76t-87.5 27v72q129 22 274 22h35q57 47 127 84zM719 -115q33 0 59.5 -15.5t42 -43t15.5 -57.5q0 -48 -33.5 -82.5t-83.5 -34.5q-49 0 -83 34t-34 83q0 51 33.5 83.5t83.5 32.5z" />
    <glyph glyph-name="uchoasac" unicode="&#x1ee8;" horiz-adv-x="1835" 
d="M61 1493q136 -5 375 -57q221 52 375 57v-72q-87 -7 -128 -50t-51.5 -121.5t-10.5 -237.5v-107q0 -201 13 -339.5t42 -213.5q43 -102 130 -156.5t210 -54.5q241 0 342 191q40 74 52.5 190t12.5 314v200q0 154 -12 226t-57.5 110.5t-147.5 48.5v72q130 -6 297 -45
q23 5 51.5 11t34.5 7v-280q37 1 86.5 34t55.5 60q8 24 8 37q0 47 -58 47q-14 20 -14 43q0 35 31.5 59.5t70.5 24.5q45 0 73 -30t28 -72q-4 -74 -57.5 -136t-121 -97.5t-102.5 -35.5v-362q0 -137 -9.5 -232t-37 -178.5t-76.5 -148.5q-54 -72 -135.5 -123t-190 -76t-233.5 -25
q-317 0 -485 152q-72 64 -111.5 151.5t-54 196t-14.5 262.5v330q0 110 -4 166t-20.5 97.5t-53.5 64t-103 26.5v72zM1266 1737l-226 -115h-79l194 205q59 65 105 65q31 0 53 -22t22 -53q0 -48 -69 -80z" />
    <glyph glyph-name="uchoahuyen" unicode="&#x1eea;" horiz-adv-x="1835" 
d="M61 1493q136 -5 375 -57q221 52 375 57v-72q-87 -7 -128 -50t-51.5 -121.5t-10.5 -237.5v-107q0 -201 13 -339.5t42 -213.5q43 -102 130 -156.5t210 -54.5q241 0 342 191q40 74 52.5 190t12.5 314v200q0 154 -12 226t-57.5 110.5t-147.5 48.5v72q130 -6 297 -45
q23 5 51.5 11t34.5 7v-280q37 1 86.5 34t55.5 60q8 24 8 37q0 47 -58 47q-14 20 -14 43q0 35 31.5 59.5t70.5 24.5q45 0 73 -30t28 -72q-4 -74 -57.5 -136t-121 -97.5t-102.5 -35.5v-362q0 -137 -9.5 -232t-37 -178.5t-76.5 -148.5q-54 -72 -135.5 -123t-190 -76t-233.5 -25
q-317 0 -485 152q-72 64 -111.5 151.5t-54 196t-14.5 262.5v330q0 110 -4 166t-20.5 97.5t-53.5 64t-103 26.5v72zM887 1819l196 -203h-79l-228 113q-69 32 -69 79q0 33 21.5 54.5t53.5 21.5q46 0 105 -65z" />
    <glyph glyph-name="uchoahoi" unicode="&#x1eec;" horiz-adv-x="1835" 
d="M61 1493q136 -5 375 -57q221 52 375 57v-72q-87 -7 -128 -50t-51.5 -121.5t-10.5 -237.5v-107q0 -201 13 -339.5t42 -213.5q43 -102 130 -156.5t210 -54.5q241 0 342 191q40 74 52.5 190t12.5 314v200q0 154 -12 226t-57.5 110.5t-147.5 48.5v72q130 -6 297 -45
q23 5 51.5 11t34.5 7v-280q37 1 86.5 34t55.5 60q8 24 8 37q0 47 -58 47q-14 20 -14 43q0 35 31.5 59.5t70.5 24.5q45 0 73 -30t28 -72q-4 -74 -57.5 -136t-121 -97.5t-102.5 -35.5v-362q0 -137 -9.5 -232t-37 -178.5t-76.5 -148.5q-54 -72 -135.5 -123t-190 -76t-233.5 -25
q-317 0 -485 152q-72 64 -111.5 151.5t-54 196t-14.5 262.5v330q0 110 -4 166t-20.5 97.5t-53.5 64t-103 26.5v72zM991 1880l2 -4q-24 -16 -61 -16q-60 0 -60 47q0 39 48 65.5t129 26.5q80 0 125 -31t45 -84q0 -48 -26.5 -70.5t-121.5 -82.5q-49 -28 -49 -54q0 -24 27 -24h8
q0 -24 -8 -31.5t-33 -7.5t-42.5 15.5t-17.5 43.5q0 27 15 50t47 55q27 25 41 50.5t14 69.5q0 32 -13 50t-36 18q-45 0 -45 -43q0 -22 12 -43z" />
    <glyph glyph-name="uchoanga" unicode="&#x1eee;" horiz-adv-x="1835" 
d="M61 1493q136 -5 375 -57q221 52 375 57v-72q-87 -7 -128 -50t-51.5 -121.5t-10.5 -237.5v-107q0 -201 13 -339.5t42 -213.5q43 -102 130 -156.5t210 -54.5q241 0 342 191q40 74 52.5 190t12.5 314v200q0 154 -12 226t-57.5 110.5t-147.5 48.5v72q130 -6 297 -45
q23 5 51.5 11t34.5 7v-280q37 1 86.5 34t55.5 60q8 24 8 37q0 47 -58 47q-14 20 -14 43q0 35 31.5 59.5t70.5 24.5q45 0 73 -30t28 -72q-4 -74 -57.5 -136t-121 -97.5t-102.5 -35.5v-362q0 -137 -9.5 -232t-37 -178.5t-76.5 -148.5q-54 -72 -135.5 -123t-190 -76t-233.5 -25
q-317 0 -485 152q-72 64 -111.5 151.5t-54 196t-14.5 262.5v330q0 110 -4 166t-20.5 97.5t-53.5 64t-103 26.5v72zM1198 1821l49 2q-18 -94 -56.5 -138.5t-103.5 -44.5q-26 0 -40 5l-80 22q-19 4 -37 4q-54 0 -66 -65h-57q33 182 160 182q34 0 53 -4l84 -21q24 -4 29 -4
q24 0 40 15t25 47z" />
    <glyph glyph-name="uchoanang" unicode="&#x1ef0;" horiz-adv-x="1835" 
d="M61 1493q136 -5 375 -57q221 52 375 57v-72q-87 -7 -128 -50t-51.5 -121.5t-10.5 -237.5v-107q0 -201 13 -339.5t42 -213.5q43 -102 130 -156.5t210 -54.5q241 0 342 191q40 74 52.5 190t12.5 314v200q0 154 -12 226t-57.5 110.5t-147.5 48.5v72q130 -6 297 -45
q23 5 51.5 11t34.5 7v-280q37 1 86.5 34t55.5 60q8 24 8 37q0 47 -58 47q-14 20 -14 43q0 35 31.5 59.5t70.5 24.5q45 0 73 -30t28 -72q-4 -74 -57.5 -136t-121 -97.5t-102.5 -35.5v-362q0 -137 -9.5 -232t-37 -178.5t-76.5 -148.5q-54 -72 -135.5 -123t-190 -76t-233.5 -25
q-317 0 -485 152q-72 64 -111.5 151.5t-54 196t-14.5 262.5v330q0 110 -4 166t-20.5 97.5t-53.5 64t-103 26.5v72zM924 -127q51 0 83.5 -34t32.5 -83q0 -47 -32.5 -81.5t-83.5 -34.5q-49 0 -83 34t-34 82q0 50 33.5 83.5t83.5 33.5z" />
    <glyph glyph-name="aathsac" unicode="&#x1eaf;" horiz-adv-x="1270" 
d="M1079 598v-203q0 -87 5.5 -134.5t24 -71t56.5 -23.5q23 0 64 16l28 -55q-56 -66 -131 -102.5t-143 -36.5q-181 0 -215 172q-53 -81 -154 -128.5t-227 -47.5q-146 0 -228.5 66.5t-82.5 180.5q0 68 28.5 118.5t84 85t141.5 60t194 44.5q94 17 134.5 30t57.5 40t17 83
q0 90 -10 142.5t-39.5 79t-87.5 26.5q-63 0 -103 -39t-40 -102q0 -54 26 -117q-70 -37 -164 -37q-62 0 -99.5 35t-37.5 94q0 70 56 128.5t162.5 93t246.5 34.5q160 0 255.5 -45.5t138 -140t42.5 -246.5zM729 500q-118 -35 -170 -56t-83.5 -58.5t-31.5 -104.5q0 -40 16.5 -71
t46 -48t68.5 -17q154 0 154 199v156zM442 1329h66q13 -46 50 -65t110 -19q70 0 107.5 20t49.5 64h66q-14 -103 -72 -158t-151 -55t-152 54.5t-74 158.5zM926 1511l-226 -114h-79l194 205q59 65 105 65q32 0 53.5 -21.5t21.5 -54.5q0 -46 -69 -80z" />
    <glyph glyph-name="aathhuyen" unicode="&#x1eb1;" horiz-adv-x="1270" 
d="M1079 598v-203q0 -87 5.5 -134.5t24 -71t56.5 -23.5q23 0 64 16l28 -55q-56 -66 -131 -102.5t-143 -36.5q-181 0 -215 172q-53 -81 -154 -128.5t-227 -47.5q-146 0 -228.5 66.5t-82.5 180.5q0 68 28.5 118.5t84 85t141.5 60t194 44.5q94 17 134.5 30t57.5 40t17 83
q0 90 -10 142.5t-39.5 79t-87.5 26.5q-63 0 -103 -39t-40 -102q0 -54 26 -117q-70 -37 -164 -37q-62 0 -99.5 35t-37.5 94q0 70 56 128.5t162.5 93t246.5 34.5q160 0 255.5 -45.5t138 -140t42.5 -246.5zM729 500q-118 -35 -170 -56t-83.5 -58.5t-31.5 -104.5q0 -40 16.5 -71
t46 -48t68.5 -17q154 0 154 199v156zM442 1329h66q13 -46 50 -65t110 -19q70 0 107.5 20t49.5 64h66q-14 -103 -72 -158t-151 -55t-152 54.5t-74 158.5zM567 1593l197 -202h-80l-227 112q-38 20 -54 37.5t-16 42.5q0 34 22 55t54 21q44 0 104 -66z" />
    <glyph glyph-name="aathhoi" unicode="&#x1eb3;" horiz-adv-x="1270" 
d="M1079 598v-203q0 -87 5.5 -134.5t24 -71t56.5 -23.5q23 0 64 16l28 -55q-56 -66 -131 -102.5t-143 -36.5q-181 0 -215 172q-53 -81 -154 -128.5t-227 -47.5q-146 0 -228.5 66.5t-82.5 180.5q0 68 28.5 118.5t84 85t141.5 60t194 44.5q94 17 134.5 30t57.5 40t17 83
q0 90 -10 142.5t-39.5 79t-87.5 26.5q-63 0 -103 -39t-40 -102q0 -54 26 -117q-70 -37 -164 -37q-62 0 -99.5 35t-37.5 94q0 70 56 128.5t162.5 93t246.5 34.5q160 0 255.5 -45.5t138 -140t42.5 -246.5zM729 500q-118 -35 -170 -56t-83.5 -58.5t-31.5 -104.5q0 -40 16.5 -71
t46 -48t68.5 -17q154 0 154 199v156zM442 1329h66q13 -46 50 -65t110 -19q70 0 107.5 20t49.5 64h66q-14 -103 -72 -158t-151 -55t-152 54.5t-74 158.5zM662 1634l2 -4q-25 -16 -62 -16q-59 0 -59 47q0 39 48.5 65.5t127.5 26.5q80 0 125 -31t45 -84q0 -24 -10.5 -44.5
t-28.5 -36t-47.5 -34.5t-61.5 -38q-49 -29 -49 -53q0 -25 27 -25h8q0 -24 -8 -31.5t-33 -7.5t-42 16t-17 43q0 44 61 105q29 29 42 53t13 68q0 31 -13 49t-36 18q-19 0 -32 -12t-13 -31q0 -21 13 -43z" />
    <glyph glyph-name="aathnga" unicode="&#x1eb5;" horiz-adv-x="1270" 
d="M1079 598v-203q0 -87 5.5 -134.5t24 -71t56.5 -23.5q23 0 64 16l28 -55q-56 -66 -131 -102.5t-143 -36.5q-181 0 -215 172q-53 -81 -154 -128.5t-227 -47.5q-146 0 -228.5 66.5t-82.5 180.5q0 68 28.5 118.5t84 85t141.5 60t194 44.5q94 17 134.5 30t57.5 40t17 83
q0 90 -10 142.5t-39.5 79t-87.5 26.5q-63 0 -103 -39t-40 -102q0 -54 26 -117q-70 -37 -164 -37q-62 0 -99.5 35t-37.5 94q0 70 56 128.5t162.5 93t246.5 34.5q160 0 255.5 -45.5t138 -140t42.5 -246.5zM729 500q-118 -35 -170 -56t-83.5 -58.5t-31.5 -104.5q0 -40 16.5 -71
t46 -48t68.5 -17q154 0 154 199v156zM442 1329h66q13 -46 50 -65t110 -19q70 0 107.5 20t49.5 64h66q-14 -103 -72 -158t-151 -55t-152 54.5t-74 158.5zM858 1626l49 2q-18 -94 -56 -138t-103 -44q-27 0 -41 4l-80 23q-19 4 -37 4q-54 0 -66 -66h-57q33 182 160 182
q35 0 53 -4l84 -20q24 -4 29 -4q48 0 65 61z" />
    <glyph glyph-name="aathnang" unicode="&#x1eb7;" horiz-adv-x="1270" 
d="M1079 598v-203q0 -87 5.5 -134.5t24 -71t56.5 -23.5q23 0 64 16l28 -55q-56 -66 -131 -102.5t-143 -36.5q-181 0 -215 172q-53 -81 -154 -128.5t-227 -47.5q-146 0 -228.5 66.5t-82.5 180.5q0 68 28.5 118.5t84 85t141.5 60t194 44.5q94 17 134.5 30t57.5 40t17 83
q0 90 -10 142.5t-39.5 79t-87.5 26.5q-63 0 -103 -39t-40 -102q0 -54 26 -117q-70 -37 -164 -37q-62 0 -99.5 35t-37.5 94q0 70 56 128.5t162.5 93t246.5 34.5q160 0 255.5 -45.5t138 -140t42.5 -246.5zM729 500q-118 -35 -170 -56t-83.5 -58.5t-31.5 -104.5q0 -40 16.5 -71
t46 -48t68.5 -17q154 0 154 199v156zM442 1329h66q13 -46 50 -65t110 -19q70 0 107.5 20t49.5 64h66q-14 -103 -72 -158t-151 -55t-152 54.5t-74 158.5zM635 -109q33 0 59.5 -15.5t42 -43t15.5 -57.5q0 -48 -33.5 -82.5t-83.5 -34.5q-49 0 -83 34t-34 83q0 51 33.5 83.5
t83.5 32.5z" />
    <glyph glyph-name="aahoasac" unicode="&#x1eae;" horiz-adv-x="1612" 
d="M680 1505l151 -24l154 24l293 -739q25 -64 99.5 -253t117 -272.5t88.5 -126t105 -42.5h6v-72q-198 6 -389 57q-199 -54 -371 -57v72q75 6 109 29t34 73q0 29 -18.5 94t-59.5 168l-36 96q-109 3 -248 3q-129 0 -252 -3l-39 -96q-39 -97 -58.5 -173t-19.5 -99q0 -43 29 -64
t98 -30v-70q-144 3 -278 49q-141 -43 -277 -49v72q74 3 129.5 47.5t103.5 127.5t92.5 190t139.5 341zM723 1184q-125 -284 -217 -539q74 -2 211 -2t205 2q-16 48 -69 192.5t-130 346.5zM621 1798h65q8 -29 27.5 -48t51 -27.5t81.5 -8.5q70 0 108 20t50 64h65
q-14 -103 -72 -158t-151 -55t-152 54.5t-73 158.5zM1104 1980l-225 -114h-80l194 205q59 65 105 65q19 0 37.5 -10t28.5 -28.5t10 -37.5q0 -46 -70 -80z" />
    <glyph glyph-name="aahoahuyen" unicode="&#x1eb0;" horiz-adv-x="1612" 
d="M680 1505l151 -24l154 24l293 -739q25 -64 99.5 -253t117 -272.5t88.5 -126t105 -42.5h6v-72q-198 6 -389 57q-199 -54 -371 -57v72q75 6 109 29t34 73q0 29 -18.5 94t-59.5 168l-36 96q-109 3 -248 3q-129 0 -252 -3l-39 -96q-39 -97 -58.5 -173t-19.5 -99q0 -43 29 -64
t98 -30v-70q-144 3 -278 49q-141 -43 -277 -49v72q74 3 129.5 47.5t103.5 127.5t92.5 190t139.5 341zM723 1184q-125 -284 -217 -539q74 -2 211 -2t205 2q-16 48 -69 192.5t-130 346.5zM621 1798h65q8 -29 27.5 -48t51 -27.5t81.5 -8.5q70 0 108 20t50 64h65
q-14 -103 -72 -158t-151 -55t-152 54.5t-73 158.5zM745 2062l197 -202h-80l-227 112q-38 20 -54 37.5t-16 42.5q0 34 22 55t54 21q46 0 104 -66z" />
    <glyph glyph-name="aahoahoi" unicode="&#x1eb2;" horiz-adv-x="1612" 
d="M680 1505l151 -24l154 24l293 -739q25 -64 99.5 -253t117 -272.5t88.5 -126t105 -42.5h6v-72q-198 6 -389 57q-199 -54 -371 -57v72q75 6 109 29t34 73q0 29 -18.5 94t-59.5 168l-36 96q-109 3 -248 3q-129 0 -252 -3l-39 -96q-39 -97 -58.5 -173t-19.5 -99q0 -43 29 -64
t98 -30v-70q-144 3 -278 49q-141 -43 -277 -49v72q74 3 129.5 47.5t103.5 127.5t92.5 190t139.5 341zM723 1184q-125 -284 -217 -539q74 -2 211 -2t205 2q-16 48 -69 192.5t-130 346.5zM621 1798h65q8 -29 27.5 -48t51 -27.5t81.5 -8.5q70 0 108 20t50 64h65
q-14 -103 -72 -158t-151 -55t-152 54.5t-73 158.5zM840 2073l2 -5q-25 -16 -62 -16q-59 0 -59 47q0 39 48.5 65.5t127.5 26.5q80 0 125 -31t45 -83q0 -25 -10.5 -45.5t-28 -36t-47 -34.5t-61.5 -38q-50 -27 -50 -53q0 -25 27 -25h8q0 -24 -8 -31.5t-33 -7.5t-42 17t-17 43
q0 43 61 104q31 31 43.5 54t12.5 67q0 22 -6.5 37t-18.5 23t-25 8q-20 0 -32.5 -11.5t-12.5 -31.5q0 -23 13 -43z" />
    <glyph glyph-name="aahoanga" unicode="&#x1eb4;" horiz-adv-x="1612" 
d="M680 1505l151 -24l154 24l293 -739q25 -64 99.5 -253t117 -272.5t88.5 -126t105 -42.5h6v-72q-198 6 -389 57q-199 -54 -371 -57v72q75 6 109 29t34 73q0 29 -18.5 94t-59.5 168l-36 96q-109 3 -248 3q-129 0 -252 -3l-39 -96q-39 -97 -58.5 -173t-19.5 -99q0 -43 29 -64
t98 -30v-70q-144 3 -278 49q-141 -43 -277 -49v72q74 3 129.5 47.5t103.5 127.5t92.5 190t139.5 341zM723 1184q-125 -284 -217 -539q74 -2 211 -2t205 2q-16 48 -69 192.5t-130 346.5zM621 1798h65q8 -29 27.5 -48t51 -27.5t81.5 -8.5q70 0 108 20t50 64h65
q-14 -103 -72 -158t-151 -55t-152 54.5t-73 158.5zM1036 2095l49 2q-18 -94 -56 -138t-103 -44q-27 0 -41 4l-80 23q-19 4 -37 4q-52 0 -66 -66h-57q34 182 160 182q35 0 53 -4l84 -20q24 -4 29 -4q25 0 40 13.5t25 47.5z" />
    <glyph glyph-name="aahoanang" unicode="&#x1eb6;" horiz-adv-x="1612" 
d="M680 1505l151 -24l154 24l293 -739q25 -64 99.5 -253t117 -272.5t88.5 -126t105 -42.5h6v-72q-198 6 -389 57q-199 -54 -371 -57v72q75 6 109 29t34 73q0 29 -18.5 94t-59.5 168l-36 96q-109 3 -248 3q-129 0 -252 -3l-39 -96q-39 -97 -58.5 -173t-19.5 -99q0 -43 29 -64
t98 -30v-70q-144 3 -278 49q-141 -43 -277 -49v72q74 3 129.5 47.5t103.5 127.5t92.5 190t139.5 341zM723 1184q-125 -284 -217 -539q74 -2 211 -2t205 2q-16 48 -69 192.5t-130 346.5zM621 1798h65q8 -29 27.5 -48t51 -27.5t81.5 -8.5q70 0 108 20t50 64h65
q-14 -103 -72 -158t-151 -55t-152 54.5t-73 158.5zM793 -111q33 0 59 -15.5t41.5 -41.5t15.5 -59q0 -48 -32.5 -82.5t-83.5 -34.5q-49 0 -83 34t-34 83q0 51 33.5 83.5t83.5 32.5z" />
    <glyph glyph-name="abthsac" unicode="&#x1ea5;" horiz-adv-x="1270" 
d="M1079 598v-203q0 -87 5.5 -134.5t24 -71t56.5 -23.5q23 0 64 16l28 -55q-56 -66 -131 -102.5t-143 -36.5q-181 0 -215 172q-53 -81 -154 -128.5t-227 -47.5q-146 0 -228.5 66.5t-82.5 180.5q0 68 28.5 118.5t84 85t141.5 60t194 44.5q94 17 134.5 30t57.5 40t17 83
q0 90 -10 142.5t-39.5 79t-87.5 26.5q-63 0 -103 -39t-40 -102q0 -54 26 -117q-70 -37 -164 -37q-62 0 -99.5 35t-37.5 94q0 70 56 128.5t162.5 93t246.5 34.5q160 0 255.5 -45.5t138 -140t42.5 -246.5zM729 500q-118 -35 -170 -56t-83.5 -58.5t-31.5 -104.5q0 -40 16.5 -71
t46 -48t68.5 -17q154 0 154 199v156zM555 1380h135l172 -258h-74l-165 119l-166 -119h-74zM1141 1409l-226 -115h-79l194 205q60 66 105 66q32 0 53.5 -21.5t21.5 -54.5q0 -46 -69 -80z" />
    <glyph glyph-name="abthhuyen" unicode="&#x1ea7;" horiz-adv-x="1270" 
d="M1079 598v-203q0 -87 5.5 -134.5t24 -71t56.5 -23.5q23 0 64 16l28 -55q-56 -66 -131 -102.5t-143 -36.5q-181 0 -215 172q-53 -81 -154 -128.5t-227 -47.5q-146 0 -228.5 66.5t-82.5 180.5q0 68 28.5 118.5t84 85t141.5 60t194 44.5q94 17 134.5 30t57.5 40t17 83
q0 90 -10 142.5t-39.5 79t-87.5 26.5q-63 0 -103 -39t-40 -102q0 -54 26 -117q-70 -37 -164 -37q-62 0 -99.5 35t-37.5 94q0 70 56 128.5t162.5 93t246.5 34.5q160 0 255.5 -45.5t138 -140t42.5 -246.5zM729 500q-118 -35 -170 -56t-83.5 -58.5t-31.5 -104.5q0 -40 16.5 -71
t46 -48t68.5 -17q154 0 154 199v156zM555 1380h135l172 -258h-74l-165 119l-166 -119h-74zM752 1583l196 -203h-80l-227 113q-38 20 -54 37.5t-16 42.5q0 34 22 55t54 21q45 0 105 -66z" />
    <glyph glyph-name="abthhoi" unicode="&#x1ea9;" horiz-adv-x="1270" 
d="M1079 598v-203q0 -87 5.5 -134.5t24 -71t56.5 -23.5q23 0 64 16l28 -55q-56 -66 -131 -102.5t-143 -36.5q-181 0 -215 172q-53 -81 -154 -128.5t-227 -47.5q-146 0 -228.5 66.5t-82.5 180.5q0 68 28.5 118.5t84 85t141.5 60t194 44.5q94 17 134.5 30t57.5 40t17 83
q0 90 -10 142.5t-39.5 79t-87.5 26.5q-63 0 -103 -39t-40 -102q0 -54 26 -117q-70 -37 -164 -37q-62 0 -99.5 35t-37.5 94q0 70 56 128.5t162.5 93t246.5 34.5q160 0 255.5 -45.5t138 -140t42.5 -246.5zM729 500q-118 -35 -170 -56t-83.5 -58.5t-31.5 -104.5q0 -40 16.5 -71
t46 -48t68.5 -17q154 0 154 199v156zM555 1380h135l172 -258h-74l-165 119l-166 -119h-74zM846 1542l2 -4q-25 -16 -62 -16q-59 0 -59 47q0 39 48 65.5t128 26.5t125 -31t45 -84q0 -24 -10.5 -44.5t-28 -36t-47 -34.5t-61.5 -38q-49 -28 -49 -54q0 -24 26 -24h8
q0 -24 -8 -31.5t-33 -7.5q-26 0 -42.5 15.5t-16.5 43.5q0 42 61 105q29 27 42.5 51.5t13.5 69.5q0 31 -14 49t-35 18q-45 0 -45 -43q0 -22 12 -43z" />
    <glyph glyph-name="abthnga" unicode="&#x1eab;" horiz-adv-x="1270" 
d="M1079 598v-203q0 -87 5.5 -134.5t24 -71t56.5 -23.5q23 0 64 16l28 -55q-56 -66 -131 -102.5t-143 -36.5q-181 0 -215 172q-53 -81 -154 -128.5t-227 -47.5q-146 0 -228.5 66.5t-82.5 180.5q0 68 28.5 118.5t84 85t141.5 60t194 44.5q94 17 134.5 30t57.5 40t17 83
q0 90 -10 142.5t-39.5 79t-87.5 26.5q-63 0 -103 -39t-40 -102q0 -54 26 -117q-70 -37 -164 -37q-62 0 -99.5 35t-37.5 94q0 70 56 128.5t162.5 93t246.5 34.5q160 0 255.5 -45.5t138 -140t42.5 -246.5zM729 500q-118 -35 -170 -56t-83.5 -58.5t-31.5 -104.5q0 -40 16.5 -71
t46 -48t68.5 -17q154 0 154 199v156zM555 1380h135l172 -258h-74l-165 119l-166 -119h-74zM827 1677l50 2q-18 -93 -56.5 -137.5t-103.5 -44.5q-27 0 -41 4l-80 23q-18 4 -37 4q-53 0 -65 -66h-58q18 93 57 138t103 45q35 0 53 -5l84 -20q24 -4 29 -4q25 0 40 13.5t25 47.5z
" />
    <glyph glyph-name="abthnang" unicode="&#x1ead;" horiz-adv-x="1270" 
d="M1079 598v-203q0 -87 5.5 -134.5t24 -71t56.5 -23.5q23 0 64 16l28 -55q-56 -66 -131 -102.5t-143 -36.5q-181 0 -215 172q-53 -81 -154 -128.5t-227 -47.5q-146 0 -228.5 66.5t-82.5 180.5q0 68 28.5 118.5t84 85t141.5 60t194 44.5q94 17 134.5 30t57.5 40t17 83
q0 90 -10 142.5t-39.5 79t-87.5 26.5q-63 0 -103 -39t-40 -102q0 -54 26 -117q-70 -37 -164 -37q-62 0 -99.5 35t-37.5 94q0 70 56 128.5t162.5 93t246.5 34.5q160 0 255.5 -45.5t138 -140t42.5 -246.5zM729 500q-118 -35 -170 -56t-83.5 -58.5t-31.5 -104.5q0 -40 16.5 -71
t46 -48t68.5 -17q154 0 154 199v156zM555 1380h135l172 -258h-74l-165 119l-166 -119h-74zM614 -119q51 0 84 -34t33 -83q0 -47 -33.5 -81.5t-83.5 -34.5q-48 0 -82 34t-34 82q0 50 33.5 83.5t82.5 33.5z" />
    <glyph glyph-name="abhoasac" unicode="&#x1ea4;" horiz-adv-x="1612" 
d="M680 1505l151 -24l154 24l293 -739q25 -64 99.5 -253t117 -272.5t88.5 -126t105 -42.5h6v-72q-198 6 -389 57q-199 -54 -371 -57v72q75 6 109 29t34 73q0 29 -18.5 94t-59.5 168l-36 96q-109 3 -248 3q-129 0 -252 -3l-39 -96q-39 -97 -58.5 -173t-19.5 -99q0 -43 29 -64
t98 -30v-70q-144 3 -278 49q-141 -43 -277 -49v72q74 3 129.5 47.5t103.5 127.5t92.5 190t139.5 341zM723 1184q-125 -284 -217 -539q74 -2 211 -2t205 2q-16 48 -69 192.5t-130 346.5zM764 1849h135l172 -258h-74l-166 119l-165 -119h-74zM1350 1878l-226 -115h-80l195 205
q60 66 104 66q19 0 37.5 -10t28.5 -28.5t10 -37.5q0 -46 -69 -80z" />
    <glyph glyph-name="abhoahuyen" unicode="&#x1ea6;" horiz-adv-x="1612" 
d="M680 1505l151 -24l154 24l293 -739q25 -64 99.5 -253t117 -272.5t88.5 -126t105 -42.5h6v-72q-198 6 -389 57q-199 -54 -371 -57v72q75 6 109 29t34 73q0 29 -18.5 94t-59.5 168l-36 96q-109 3 -248 3q-129 0 -252 -3l-39 -96q-39 -97 -58.5 -173t-19.5 -99q0 -43 29 -64
t98 -30v-70q-144 3 -278 49q-141 -43 -277 -49v72q74 3 129.5 47.5t103.5 127.5t92.5 190t139.5 341zM723 1184q-125 -284 -217 -539q74 -2 211 -2t205 2q-16 48 -69 192.5t-130 346.5zM764 1849h135l172 -258h-74l-166 119l-165 -119h-74zM961 2052l196 -203h-80l-227 113
q-38 20 -54 37.5t-16 42.5q0 34 22 55t54 21q45 0 105 -66z" />
    <glyph glyph-name="abhoahoi" unicode="&#x1ea8;" horiz-adv-x="1612" 
d="M680 1505l151 -24l154 24l293 -739q25 -64 99.5 -253t117 -272.5t88.5 -126t105 -42.5h6v-72q-198 6 -389 57q-199 -54 -371 -57v72q75 6 109 29t34 73q0 29 -18.5 94t-59.5 168l-36 96q-109 3 -248 3q-129 0 -252 -3l-39 -96q-39 -97 -58.5 -173t-19.5 -99q0 -43 29 -64
t98 -30v-70q-144 3 -278 49q-141 -43 -277 -49v72q74 3 129.5 47.5t103.5 127.5t92.5 190t139.5 341zM723 1184q-125 -284 -217 -539q74 -2 211 -2t205 2q-16 48 -69 192.5t-130 346.5zM764 1849h135l172 -258h-74l-166 119l-165 -119h-74zM1055 2011l2 -4q-25 -16 -62 -16
q-59 0 -59 47q0 39 48.5 65.5t127.5 26.5q80 0 125 -31t45 -84q0 -24 -10.5 -44.5t-28 -36t-47 -34.5t-61.5 -38q-50 -29 -50 -54q0 -24 27 -24h8q0 -24 -8 -31.5t-33 -7.5t-42 16t-17 43q0 44 61 105q29 27 42.5 51.5t13.5 69.5q0 31 -14 49t-36 18q-19 0 -32 -12t-13 -31
q0 -20 13 -43z" />
    <glyph glyph-name="abhoanga" unicode="&#x1eaa;" horiz-adv-x="1612" 
d="M680 1505l151 -24l154 24l293 -739q25 -64 99.5 -253t117 -272.5t88.5 -126t105 -42.5h6v-72q-198 6 -389 57q-199 -54 -371 -57v72q75 6 109 29t34 73q0 29 -18.5 94t-59.5 168l-36 96q-109 3 -248 3q-129 0 -252 -3l-39 -96q-39 -97 -58.5 -173t-19.5 -99q0 -43 29 -64
t98 -30v-70q-144 3 -278 49q-141 -43 -277 -49v72q74 3 129.5 47.5t103.5 127.5t92.5 190t139.5 341zM723 1184q-125 -284 -217 -539q74 -2 211 -2t205 2q-16 48 -69 192.5t-130 346.5zM764 1849h135l172 -258h-74l-166 119l-165 -119h-74zM1036 2146l49 2q-18 -94 -56 -138
t-103 -44q-27 0 -41 4l-80 23q-19 4 -37 4q-52 0 -66 -66h-57q18 93 57 138t103 45q35 0 53 -5l84 -20q24 -4 29 -4q25 0 40 13.5t25 47.5z" />
    <glyph glyph-name="abhoanang" unicode="&#x1eac;" horiz-adv-x="1612" 
d="M680 1505l151 -24l154 24l293 -739q25 -64 99.5 -253t117 -272.5t88.5 -126t105 -42.5h6v-72q-198 6 -389 57q-199 -54 -371 -57v72q75 6 109 29t34 73q0 29 -18.5 94t-59.5 168l-36 96q-109 3 -248 3q-129 0 -252 -3l-39 -96q-39 -97 -58.5 -173t-19.5 -99q0 -43 29 -64
t98 -30v-70q-144 3 -278 49q-141 -43 -277 -49v72q74 3 129.5 47.5t103.5 127.5t92.5 190t139.5 341zM723 1184q-125 -284 -217 -539q74 -2 211 -2t205 2q-16 48 -69 192.5t-130 346.5zM764 1849h135l172 -258h-74l-166 119l-165 -119h-74zM782 -121q51 0 84 -34t33 -83
q0 -47 -33.5 -81.5t-83.5 -34.5q-48 0 -82 34t-34 82q0 50 33.5 83.5t82.5 33.5z" />
    <glyph glyph-name="ebthsac" unicode="&#x1ebf;" horiz-adv-x="1165" 
d="M713 678q35 0 48 7.5t13 35.5q0 88 -53.5 152.5t-130.5 64.5q-75 0 -121.5 -60.5t-46.5 -160.5q1 -12 1.5 -21.5t0.5 -17.5h289zM1096 588h-561q-42 0 -64.5 -6.5t-30.5 -22t-8 -45.5q0 -104 46.5 -191t130.5 -138.5t192 -51.5q77 0 155 28.5t140 82.5l34 -66
q-78 -94 -213.5 -148.5t-306.5 -54.5q-123 0 -223.5 36t-173 104t-111.5 162.5t-39 207.5q0 156 74 282t204.5 196.5t291.5 70.5q134 0 240.5 -52t166.5 -140t60 -193q0 -21 -4 -61zM524 1376h135l172 -258h-73l-166 119l-166 -119h-74zM1110 1405l-225 -115h-80l194 205
q60 66 105 66q19 0 37.5 -10t28.5 -28.5t10 -37.5q0 -47 -70 -80z" />
    <glyph glyph-name="ebthhuyen" unicode="&#x1ec1;" horiz-adv-x="1165" 
d="M713 678q35 0 48 7.5t13 35.5q0 88 -53.5 152.5t-130.5 64.5q-75 0 -121.5 -60.5t-46.5 -160.5q1 -12 1.5 -21.5t0.5 -17.5h289zM1096 588h-561q-42 0 -64.5 -6.5t-30.5 -22t-8 -45.5q0 -104 46.5 -191t130.5 -138.5t192 -51.5q77 0 155 28.5t140 82.5l34 -66
q-78 -94 -213.5 -148.5t-306.5 -54.5q-123 0 -223.5 36t-173 104t-111.5 162.5t-39 207.5q0 156 74 282t204.5 196.5t291.5 70.5q134 0 240.5 -52t166.5 -140t60 -193q0 -21 -4 -61zM524 1376h135l172 -258h-73l-166 119l-166 -119h-74zM721 1579l197 -203h-80l-228 113
q-69 32 -69 80q0 33 21.5 54.5t53.5 21.5q45 0 105 -66z" />
    <glyph glyph-name="ebthhoi" unicode="&#x1ec3;" horiz-adv-x="1165" 
d="M713 678q35 0 48 7.5t13 35.5q0 88 -53.5 152.5t-130.5 64.5q-75 0 -121.5 -60.5t-46.5 -160.5q1 -12 1.5 -21.5t0.5 -17.5h289zM1096 588h-561q-42 0 -64.5 -6.5t-30.5 -22t-8 -45.5q0 -104 46.5 -191t130.5 -138.5t192 -51.5q77 0 155 28.5t140 82.5l34 -66
q-78 -94 -213.5 -148.5t-306.5 -54.5q-123 0 -223.5 36t-173 104t-111.5 162.5t-39 207.5q0 156 74 282t204.5 196.5t291.5 70.5q134 0 240.5 -52t166.5 -140t60 -193q0 -21 -4 -61zM524 1376h135l172 -258h-73l-166 119l-166 -119h-74zM815 1538l2 -4q-24 -16 -61 -16
q-60 0 -60 47q0 39 48 65.5t128 26.5t125 -31t45 -84q0 -48 -26 -70.5t-121 -82.5q-49 -28 -49 -54q0 -24 26 -24h9q0 -24 -8.5 -31.5t-32.5 -7.5q-25 0 -42.5 15.5t-17.5 43.5q0 27 15 50t47 55q29 29 42 52.5t13 67.5q0 33 -13 50.5t-36 17.5q-45 0 -45 -43q0 -22 12 -43z
" />
    <glyph glyph-name="ebthnga" unicode="&#x1ec5;" horiz-adv-x="1165" 
d="M713 678q35 0 48 7.5t13 35.5q0 88 -53.5 152.5t-130.5 64.5q-75 0 -121.5 -60.5t-46.5 -160.5q1 -12 1.5 -21.5t0.5 -17.5h289zM1096 588h-561q-42 0 -64.5 -6.5t-30.5 -22t-8 -45.5q0 -104 46.5 -191t130.5 -138.5t192 -51.5q77 0 155 28.5t140 82.5l34 -66
q-78 -94 -213.5 -148.5t-306.5 -54.5q-123 0 -223.5 36t-173 104t-111.5 162.5t-39 207.5q0 156 74 282t204.5 196.5t291.5 70.5q134 0 240.5 -52t166.5 -140t60 -193q0 -21 -4 -61zM524 1376h135l172 -258h-73l-166 119l-166 -119h-74zM797 1673l49 2q-18 -93 -56.5 -137.5
t-103.5 -44.5q-27 0 -41 4l-80 23q-18 4 -37 4q-53 0 -65 -66h-57q33 182 159 182q35 0 53 -4l84 -20q26 -4 29 -4q48 0 66 61z" />
    </font>
</defs>
</svg>
