<?xml version="1.0" standalone="no"?>
<!DOCTYPE svg PUBLIC "-//W3C//DTD SVG 1.1//EN" "http://www.w3.org/Graphics/SVG/1.1/DTD/svg11.dtd" >
<svg>
<metadata>
Created by FontForge 20120731 at Thu Nov  5 10:54:06 2015
 By www-data
Generated by NSW
</metadata>
<defs>
<font id="Circle3D" horiz-adv-x="712" >
  <font-face 
    font-family="Circle3D"
    font-weight="400"
    font-stretch="normal"
    units-per-em="1000"
    panose-1="2 11 7 3 2 1 2 2 2 4"
    ascent="800"
    descent="-200"
    x-height="529"
    cap-height="726"
    bbox="-58 -272 1349 1326"
    underline-thickness="50"
    underline-position="-50"
    unicode-range="U+0020-2122"
  />
<missing-glyph horiz-adv-x="0" 
 />
    <glyph glyph-name=".notdef" horiz-adv-x="0" 
 />
    <glyph glyph-name="space" unicode=" " horiz-adv-x="332" 
 />
    <glyph glyph-name="exclam" unicode="!" horiz-adv-x="391" 
d="M124 222q-16 103 -27.5 204t-11.5 205v35q20 23 47.5 41t73.5 18h5q32 -6 55 -25.5t40 -40.5v-2l26 -26q6 -6 11 -11.5t10 -11.5v-30q0 -96 -11 -192.5t-27 -196.5l38 -37q-4 -40 -8 -79t-9 -71q-14 -21 -37.5 -30.5t-48.5 -9.5q-26 0 -49.5 8.5t-40.5 25.5l-34 33
q-17 12 -27 26l-1 2q-2 17 -3 34t-3 34t-3.5 42t-2.5 43q40 -20 80 -26l-29 29q-4 0 -5 1zM108 59q14 -18 37 -28.5t48.5 -11.5t48.5 7.5t37 28.5q6 34 9.5 68t6.5 68q-21 -11 -47 -15.5t-52.5 -4t-52 6t-47.5 16.5q2 -35 6 -67.5t6 -67.5zM134 224q15 -2 30 -3.5t31 -1.5
t31.5 1t29.5 3q17 109 29.5 217t10.5 217q-15 19 -36 36t-51 22q-44 1 -70.5 -15.5t-43.5 -37.5q-2 -111 10 -219t29 -219z" />
    <glyph glyph-name="quotedbl" unicode="&#x22;" horiz-adv-x="494" 
d="M296 427h-6q3 23 4 43.5t1 39.5q0 50 -8 107t-20 118q40 -2 77.5 -8.5t69.5 -16.5q4 -8 6 -11l42 -42q15 -27 22 -54.5t7 -54.5q0 -78 -48 -149l-3 -2q-21 -9 -40 -11.5t-39 -4.5q-2 0 -9 -0.5t-9 -0.5zM101 443q-2 1 -4 1.5t-4 1.5q-21 34 -32.5 72t-11.5 77
q0 61 32 116q63 19 143 24q-1 -2 -1 -6l47 -47q-11 -60 -17.5 -119t-6.5 -118q0 -14 0.5 -28.5t1.5 -28.5l-8 -7q-23 3 -45.5 7t-48.5 11zM387 453q38 57 45.5 122.5t-24.5 125.5q-63 18 -128 23q14 -72 21.5 -143.5t-0.5 -143.5q22 2 44 5t42 11zM191 438q-5 72 2 143.5
t19 143.5q-66 -3 -124 -22q-35 -60 -28.5 -125.5t41.5 -122.5q23 -6 45 -10t45 -7z" />
    <glyph glyph-name="numbersign" unicode="#" horiz-adv-x="781" 
d="M496 32l2 8l-2 1v-9zM439 341l2 10l2 10h-34q-2 -5 -3 -10l-2 -10h35zM711 333l-1 -1l41 -40l7 -9q-4 -11 -7 -21t-6 -21q-4 -14 -9 -28t-11 -30q-23 -3 -47.5 -4.5t-47.5 -3.5q-5 -1 -11 -1q-5 0 -10 -1q-14 -45 -29.5 -90.5t-30.5 -90.5q0 1 -2.5 -8t-4.5 -17
q-35 -4 -66 -4.5t-63 -0.5l-47 47h-7q7 35 17 77t19 77q0 2 0.5 3.5t0.5 3.5h-25q-23 -101 -33 -202q-35 5 -62 12.5t-54 15.5l-46 45q-2 1 -3.5 1.5t-3.5 1.5q-2 18 -3 33.5t-1 28.5q0 36 3 77q-18 2 -35.5 4.5t-35.5 6.5l-46 45q-2 1 -4 1q-1 0 -3 1v8t1 8q0 6 2 12v-1
q2 20 4 41t7 39q14 0 33 -0.5t33 -1.5q7 0 13 -0.5t13 -0.5q9 -1 21 -1.5t23 -0.5l3 15q-16 0 -36 -0.5t-36 -1.5l-48 47h-6q8 32 18 61t21 55q28 3 63.5 6.5t67.5 5.5q5 21 12 44t14 43q2 6 3.5 12t3.5 12q6 18 12.5 39t11.5 40q24 3 44.5 4t40.5 1q10 0 25.5 -0.5
t25.5 -1.5q-1 -2 -1 -6l47 -47q-7 -34 -14.5 -69t-15.5 -70q5 0 9 -0.5t9 -0.5h9l5 35q1 3 1 5q0 3 1 6v-1q5 32 9 64t6 77q35 -5 66.5 -13t59.5 -17v-6l47 -46q2 -16 2 -34v-35v-26t-1 -26h9q6 -1 12.5 -1.5t13.5 -1.5q6 -1 13.5 -1.5t12.5 -1.5q0 -4 -1 -6l48 -47
q-2 -11 -3.5 -25.5t-2.5 -25.5t-2 -26t-3 -26q-28 2 -58 3.5t-59 2.5l-3 -15q14 0 26.5 0.5t25.5 1.5zM466 418q-4 -22 -8.5 -43t-9.5 -43q-29 0 -56.5 -0.5t-56.5 -0.5q5 22 9.5 43.5t9.5 43.5q28 -1 55.5 -0.5t56.5 0.5zM701 335q-15 -1 -30 -1.5t-31 -0.5h-30t-29 -1
q4 21 8.5 41.5t7.5 41.5q30 -1 59 -2t58 -3q3 23 4.5 45t4.5 44q-29 4 -55.5 7t-54.5 7q3 42 4 83.5t-2 83.5q-25 8 -51.5 15t-54.5 11q-2 -46 -9 -91.5t-14 -93.5q-27 1 -53.5 2t-54.5 1q13 48 24 95.5t20 95.5q-58 3 -115 -3q-14 -48 -29.5 -95.5t-28.5 -95.5
q-34 -2 -66.5 -4.5t-64.5 -6.5q-9 -23 -17.5 -47.5t-15.5 -49.5q17 1 34 1.5t33 0.5q17 0 34 0.5t34 1.5q-8 -42 -18 -84q-34 0 -68 2t-67 3q-5 -22 -7.5 -44.5t-4.5 -43.5q32 -6 65 -9.5t65 -6.5q-5 -45 -9 -91t2 -91q26 -8 51.5 -15t52.5 -11q10 102 33 201
q26 0 52.5 -0.5t53.5 -0.5q-13 -54 -26 -104.5t-23 -102.5q29 0 57.5 0.5t56.5 3.5q17 51 34.5 103t33.5 104q30 2 58.5 4t57.5 6q9 23 16 47.5t15 47.5z" />
    <glyph glyph-name="dollar" unicode="$" horiz-adv-x="781" 
d="M318 -66h-6v27q0 15 -1 26q0 1 -0.5 1.5l-0.5 0.5q-46 14 -87 38.5t-73 57.5l-24 24q-34 28 -60 61.5t-43 71.5q3 0 10 -0.5t12 -0.5h17q20 0 42 1.5t43 3.5q5 1 10 1t10 1q5 0 10 0.5t11 1.5t12.5 1.5t11.5 1.5q0 -2 2 -8l46 -45q2 -8 4 -13q23 -14 50 -22t54 -8h13
q19 0 39.5 3t38 10t30.5 18t16 28q-1 0 -2 1q-19 7 -37 10t-37 5q-4 1 -8 1q-3 0 -7 1q-33 6 -66.5 13t-65.5 17t-61.5 25t-54.5 36l-34 33l-18 15q-23 22 -35 50t-12 58v11q5 41 26 75t55 65q31 29 72 51t90 31q1 9 1.5 16.5t0.5 12.5v26t1 21q11 1 28 1h28t28 -0.5
t28 -1.5v-7l47 -46q1 -8 1 -17v-16q49 -17 90.5 -46t73.5 -66l26 -26q42 -42 67 -89q-25 -2 -54 -6t-54 -8q-12 -2 -27 -4t-28 -4l-47 47h-5q-2 5 -4 9t-5 9q-17 8 -35 13.5t-37 5.5h-19q-15 0 -31 -2.5t-29.5 -8.5t-23 -15.5t-12.5 -22.5q8 -2 16.5 -3.5t16.5 -3.5
q2 -1 4 -1q3 0 5 -1q3 -1 6 -1t6 -1q4 -1 8 -1.5t7 -1.5v-1q51 -8 100 -19t91 -28v-1q56 -22 92 -64v1q10 -12 16 -22l37 -36q19 -21 27 -44t8 -46v-5q-5 -41 -28 -75.5t-53 -64.5q-39 -37 -91.5 -60.5t-110.5 -32.5q-1 -12 -1.5 -24t-1.5 -23q-1 -9 -1.5 -19t-0.5 -24
q-4 0 -11.5 -0.5t-11.5 -0.5q-8 0 -15.5 -0.5t-15.5 -0.5q-11 0 -26 0.5t-26 1.5zM419 33q60 8 112.5 31.5t91.5 60.5q29 29 51.5 63t27.5 73q2 50 -33 89q-35 45 -95 67q-45 17 -93 28.5t-97 19.5q-18 4 -40 8t-40.5 10.5t-31 18.5t-10.5 33q1 18 12.5 30t28.5 19t36.5 9.5
t37.5 1.5q25 1 48 -5t42 -17t33.5 -27t21.5 -34q38 5 74 11t73 9q-17 31 -42.5 60.5t-57.5 53t-70 39.5t-81 21q-1 9 -1.5 18t-0.5 18v19t-1 18q-11 1 -23 1.5t-23 0.5h-23t-23 -1q-1 -9 -1 -18v-19t-0.5 -19t-1.5 -18q-49 -7 -91 -29t-74 -52q-32 -29 -52.5 -62.5
t-25.5 -71.5q-2 -30 9 -59t35 -52q24 -21 53 -35.5t60.5 -24t64.5 -16.5t66 -13q24 -3 46.5 -6t43.5 -11q32 -8 47.5 -23.5t13.5 -32.5q-3 -20 -16.5 -33.5t-33 -22t-42 -12t-43.5 -3.5q-28 -2 -56.5 4t-53 18.5t-42 31t-24.5 41.5q-42 -4 -83 -8t-84 -2q16 -38 44 -71
t65 -59.5t80.5 -44t91.5 -24.5q0 -23 1.5 -45t1.5 -44q23 -2 46 -1.5t46 1.5q1 22 3 44t2 45z" />
    <glyph glyph-name="percent" unicode="%" horiz-adv-x="917" 
d="M223 487q-2 -11 -4.5 -23.5t-2.5 -24.5q17 2 27.5 11t16.5 21t9 26.5t5 27.5q1 5 1.5 10t1.5 10v6q1 8 1.5 15.5t0.5 14.5v6q-26 -11 -36.5 -37t-16.5 -50q-2 -10 -3 -13zM687 101q15 6 25 17.5t16.5 25t10 28t6.5 26.5v-1q2 9 3 21t1 24v5q-18 -2 -28.5 -12t-16.5 -23.5
t-8.5 -29t-3.5 -29.5v-8t-1 -6v-1q-2 -9 -3 -18t-1 -17v-2zM197 50q36 77 80.5 147t92.5 139q-45 -31 -105 -31h-13q-35 0 -65 13t-51 34l-28 27q-29 20 -46.5 49t-17.5 61q0 10 1 19t6 19q10 30 29 59t44.5 54.5t57.5 45t70 28.5q13 3 29 3q35 0 61 -16.5t43 -42.5l30 -29
q23 -23 34.5 -54t11.5 -60q0 -11 -1 -15v-5q0 -19 -5 -41q45 63 87.5 127t81.5 135q17 -6 26 -8t17 -3q10 -2 26 -5.5t26 -5.5l-2 -4l48 -48q-35 -81 -79.5 -153.5t-93.5 -141.5q23 16 50 25t59 9h10q48 0 88 -21.5t61 -55.5l27 -27q17 -17 27 -37.5t10 -43.5q0 -19 -6 -35
q-11 -31 -30.5 -60.5t-46.5 -55t-60.5 -44.5t-71.5 -28q-6 -2 -13 -2h-13q-26 0 -45.5 9t-34.5 24l-32 31q-34 22 -50 60.5t-16 74.5v10t1 9v2q0 22 6 45q-45 -64 -89 -128.5t-82 -134.5q-23 3 -45 7t-42 10l-45 44q-2 1 -3.5 1.5t-3.5 1.5zM705 306q25 0 37 -12t15.5 -29.5
t1.5 -36.5t-4 -32q-3 -15 -7.5 -32.5t-13.5 -33.5t-23 -27.5t-35 -15.5q-15 -5 -28 3.5t-13 21.5q-5 25 -4.5 43t3.5 35q2 16 4 35.5t8.5 36.5t20 29.5t38.5 14.5zM657 30q37 9 70 27.5t59.5 43t45.5 53.5t29 59q11 30 2 59t-31.5 51.5t-55.5 35.5t-70 12q-44 1 -79.5 -15
t-60.5 -43t-38 -60.5t-12 -66.5q-3 -26 4 -56t24.5 -54.5t45.5 -38.5t67 -7zM206 47q19 -5 40 -9t41 -7q46 85 102.5 165t114 160t110.5 161.5t91 169.5q-19 5 -38.5 8t-38.5 8q-46 -85 -102.5 -165.5t-114 -160.5t-111 -161.5t-94.5 -168.5zM244 649q16 3 28.5 -4.5
t14.5 -20.5q1 -12 1.5 -22.5t0.5 -20.5q0 -9 -0.5 -18t-1.5 -19q-3 -15 -5.5 -34.5t-9.5 -37t-21 -30t-39 -13.5q-25 1 -36.5 13t-14.5 29t-0.5 35.5t5.5 32.5q4 15 8.5 32.5t12.5 33.5t21.5 28t35.5 16zM210 362q45 -1 81 15.5t61.5 44t38.5 61.5t12 67q3 25 -5 55.5
t-26.5 55t-47.5 38t-69 5.5q-36 -9 -67 -27.5t-56 -42.5t-43 -52.5t-28 -56.5q-12 -29 -4.5 -59t29 -53.5t54 -38t70.5 -12.5z" />
    <glyph glyph-name="ampersand" unicode="&#x26;" horiz-adv-x="956" 
d="M404 531q2 -3 6 -7zM750 425q-20 -29 -54.5 -51t-72.5 -36q14 -12 28 -25l28 -26q30 29 46 64.5t25 73.5zM444 502q3 -2 6 -4.5t7 -5.5q16 5 31.5 11.5t28 15t20.5 18.5t8 22v3q0 4 -1 7q-15 5 -30 5h-7q-13 0 -26.5 -3t-24.5 -9t-18.5 -14.5t-8.5 -19.5q0 -10 4 -18
q2 -2 5 -4zM312 184q1 -11 6 -22q17 -11 37.5 -17t42.5 -7h6q31 0 62.5 7t60.5 22l-19 16q-27 22 -53.5 43.5t-52.5 44.5q-17 -4 -33.5 -11t-29 -17.5t-20 -23.5t-7.5 -29v-6zM942 395v-1l41 -41l6 -8q-9 -46 -33.5 -85t-56.5 -74q4 1 9 1.5t11 2.5q-1 -2 -1.5 -3.5
t-1.5 -3.5l48 -47q-13 -34 -26 -62.5t-27 -51.5q-30 -17 -57 -25l-18 -6q-20 -7 -46 -7q-28 0 -53.5 9.5t-43.5 27.5l-2 1q-49 -32 -105.5 -51.5t-119.5 -19.5h-15q-7 0 -15 1q-67 5 -124 30.5t-105 62.5q-11 10 -22 19.5t-22 20.5l-8 8q-37 32 -69.5 67.5t-44.5 78.5
q-2 6 -2 12v13q0 31 17 57.5t44.5 47.5t61.5 37t68 28l-8 9q-13 14 -24.5 28.5t-19.5 33.5q-2 8 -3 15.5t-1 18.5q0 9 0.5 15t1.5 11q10 39 37.5 70.5t65 54t82.5 35.5t91 14h12q35 0 68.5 -8t63.5 -22.5t55 -35t42 -45.5l20 -20h-1v1l4 -3q44 -44 53 -98q1 -5 1.5 -10
t0.5 -10q0 -31 -19 -59q21 -2 46 -5.5t45 -6.5q12 -2 24 -3t25 -3q10 -2 20.5 -2.5t21.5 -2.5zM355 329q46 -42 95 -81t97 -81q-32 -20 -70.5 -30t-78.5 -9q-26 1 -50.5 9.5t-44 22.5t-32.5 32.5t-16 40.5q-2 19 6 35t22 28t33 20.5t39 12.5zM455 481q-10 8 -20.5 15.5
t-18.5 15.5q-16 13 -29.5 29.5t-14.5 37.5q1 12 9 22t20 16.5t27 10t29 3.5q18 1 35.5 -3.5t31.5 -13.5t22.5 -22.5t8.5 -29.5q1 -17 -8 -30t-24 -23t-33 -17t-35 -11zM932 396q-45 5 -86.5 11t-86.5 11q-9 -39 -27 -76.5t-53 -66.5q-31 29 -63.5 56.5t-64.5 56.5
q31 10 62.5 26t55.5 37.5t36.5 48t6.5 57.5q-6 38 -30 70.5t-60 55.5t-80 35.5t-90 10.5q-44 -1 -87.5 -13.5t-79.5 -34.5t-62.5 -53t-36.5 -68q-4 -27 3 -55q10 -22 27 -40t33 -36q-36 -11 -74.5 -27.5t-68.5 -40t-46.5 -53t-8.5 -66.5q11 -42 42.5 -76.5t67.5 -64.5
q48 -36 104 -61.5t122 -30.5q72 -6 136.5 15.5t118.5 57.5q24 -28 64.5 -37t77.5 3q19 7 37 13t34 15q28 45 48 100q-12 -2 -24.5 -5.5t-23.5 -5.5q-21 -5 -40 0t-33 17q25 22 49.5 46.5t44.5 51t35 55.5t21 61z" />
    <glyph glyph-name="quotesingle" unicode="'" horiz-adv-x="257" 
d="M81 437q-2 2 -5 3.5t-5 3.5q-9 45 -15.5 88.5t-6.5 86.5q0 23 2 45t6 43q14 14 32.5 21.5t38.5 7.5t39.5 -8t33.5 -23q0 -4 1 -5l46 -46q5 -22 6.5 -44t1.5 -45q0 -45 -7 -87t-18 -84l-4 -4q-23 -12 -51 -12q-27 0 -52 17zM174 446q17 63 23.5 127t-6.5 128
q-11 12 -27.5 18t-34 6.5t-34 -5t-28.5 -17.5q-12 -64 -6 -127.5t19 -126.5q20 -14 46 -14t48 11z" />
    <glyph glyph-name="parenleft" unicode="(" horiz-adv-x="389" 
d="M206 -166q-40 49 -73.5 101.5t-58.5 108t-40 113.5t-16 117q5 121 55.5 235t138.5 213q43 -8 74 -32.5t56 -52.5l-1 -1l27 -27q5 -5 10 -11t10 -11q-40 -37 -63 -81.5t-35.5 -91.5t-17 -95.5t-7.5 -93.5q2 -47 7 -96t17.5 -97t34.5 -92.5t59 -83.5q-20 -27 -50 -48
t-70 -24l-6 3l-44 44h-1zM212 -159q38 3 66 22t46 43q-36 38 -58 82.5t-34 92.5t-17 97t-7 97q3 46 7.5 95t16.5 96.5t34.5 91.5t61.5 80q-21 24 -48 45t-64 28q-85 -96 -134 -207.5t-54 -229.5q1 -59 15.5 -115.5t39 -111t57.5 -106.5t72 -100z" />
    <glyph glyph-name="parenright" unicode=")" horiz-adv-x="389" 
d="M183 719l8 -10l8 -10l33 -33q80 -98 129.5 -210.5t56.5 -230.5q-5 -121 -54.5 -233t-137.5 -209q-30 5 -53.5 19t-42.5 33l-27 27q-17 12 -30.5 26.5t-24.5 30.5q41 34 64.5 77t36 89.5t17 94.5t7.5 93q-2 47 -7 96.5t-17.5 98t-35.5 94t-62 85.5q23 29 55 49.5t71 25.5z
M177 712q-35 -5 -63.5 -23t-48.5 -42q37 -38 59.5 -83.5t35 -94t17 -98.5t6.5 -98q-3 -46 -7.5 -95t-16.5 -96t-35 -89.5t-63 -75.5q19 -26 46.5 -47.5t65.5 -28.5q87 94 135 205t53 229q-7 118 -56 229t-128 208z" />
    <glyph glyph-name="asterisk" unicode="*" horiz-adv-x="781" 
d="M611 377l24 -24l12 -12t11 -12l-1 -11q-17 -11 -33 -20.5t-32 -18.5h1q-16 -10 -35.5 -21t-35.5 -21l-47 47l-4 -2q-19 37 -41 70q-19 -25 -39 -53.5t-41 -60.5l-48 31q-21 14 -45.5 29t-46.5 28l-41 40q-4 2 -7.5 4.5t-6.5 4.5q14 12 32 29t32 30l8 8q-8 2 -15.5 3.5
t-15.5 3.5q-13 3 -30 6.5t-30 6.5l-46 46q-2 1 -4 1t-4 1q20 42 37.5 70.5t34.5 54.5q38 -11 79.5 -23t80.5 -26q-1 11 -1.5 21.5t-0.5 19.5q-1 19 -1.5 37.5t-0.5 38.5v28q17 1 39.5 1.5t39.5 0.5t39.5 -0.5t39.5 -1.5v-6l47 -47q0 -7 0.5 -16.5t0.5 -16.5q0 -11 -0.5 -22
t-1.5 -22q29 8 58 15t57 13q2 -4 8 -12l41 -41q17 -26 33 -55t30 -61q-17 -4 -38 -8t-38 -7q-25 -5 -49 -10t-50 -11q12 -11 23.5 -22t21.5 -22v-3zM603 374q-25 27 -52.5 52.5t-55.5 50.5q48 11 93.5 19.5t93.5 18.5q-11 26 -25.5 52t-31.5 51q-45 -9 -88.5 -21.5
t-86.5 -24.5q3 37 6.5 74t1.5 75q-17 1 -34.5 1.5t-34.5 0.5t-34.5 -0.5t-34.5 -1.5q-1 -38 1 -75t3 -74q-42 14 -82 27t-83 24q-17 -26 -33.5 -52.5t-29.5 -53.5q46 -10 92.5 -19.5t91.5 -20.5q-28 -25 -54 -50t-54 -50q33 -19 63.5 -39t62.5 -40q21 32 43.5 63.5
t46.5 60.5q26 -29 48.5 -60t38.5 -65q32 20 64 38.5t64 38.5z" />
    <glyph glyph-name="plus" unicode="+" horiz-adv-x="781" 
d="M727 422v-4l47 -47q1 -11 1.5 -21.5t0.5 -21.5q0 -13 -1 -29.5t-3 -36.5q-61 -5 -123 -7t-124 -2q-1 -50 -5 -100t-12 -102q-20 -2 -36 -3t-28 -1q-14 0 -32.5 1t-40.5 3l-46 46q-2 0 -3.5 0.5t-3.5 0.5q-4 35 -6.5 75t-4.5 80q-51 1 -100.5 3t-98.5 7l-47 46
q-2 0 -3 0.5t-3 0.5q-2 20 -3 36.5t-1 30.5t1 27.5t4 29.5q59 2 124 3.5t126 2.5q0 51 3.5 101.5t9.5 102.5q16 1 36 1.5t36 0.5t36 -0.5t36 -1.5q0 -2 0.5 -3.5t0.5 -3.5l46 -46q5 -36 7 -75.5t4 -76.5q49 -1 99 -3.5t98 -4.5zM717 421q-63 4 -125.5 6t-123.5 3
q-3 51 -5.5 102t-8.5 102q-16 1 -31.5 1.5t-31.5 0.5t-31.5 -0.5t-31.5 -1.5q-5 -52 -8.5 -102.5t-3.5 -101.5q-64 0 -126 -2t-125 -4q-5 -26 -4 -52t3 -52q63 -5 125.5 -7.5t126.5 -3.5q3 -101 12 -202q31 -2 61.5 -2.5t62.5 2.5q8 51 12 101.5t4 101.5q61 0 123 2t125 7
q2 26 2.5 51t-1.5 51z" />
    <glyph glyph-name="comma" unicode="," horiz-adv-x="342" 
d="M264 132q0 -2 1 -3l43 -43l3 -4q8 -26 11.5 -51.5t6.5 -51.5q1 -3 1.5 -8t1.5 -8q-21 -29 -43.5 -58t-43.5 -58q-11 -15 -23.5 -32t-23.5 -32q-38 9 -68 34l-36 36q-5 3 -9 6.5t-9 6.5q9 14 18.5 30t18.5 31q2 5 4.5 8.5t4.5 7.5q-3 1 -9 1l-47 47h-6q0 76 20 147
q39 30 88 30q26 0 49.5 -7.5t42.5 -22.5zM254 130q-17 13 -38.5 20t-44 7.5t-44 -5.5t-38.5 -19q-9 -32 -14 -65.5t-5 -66.5q13 -1 25 -1h25h50l-40 -66t-41 -66q24 -19 56 -27q33 45 65 87.5t64 85.5l-8 58t-12 58z" />
    <glyph glyph-name="hyphen" unicode="-" horiz-adv-x="342" 
d="M42 337q32 4 64.5 6t65.5 2t64.5 -3t63.5 -8q21 -12 31 -30l36 -36q17 -17 17 -38q0 -15 -10 -30t-28 -25q-62 -9 -126 -9q-32 0 -63 3t-63 8q-12 7 -18 13l-34 34q-19 9 -27 23t-8 30t8.5 32t25.5 27zM45 327q-13 -9 -20 -21.5t-8 -25.5t6 -25.5t22 -20.5q32 -5 63 -8
t62 -3q63 0 125 9q15 8 23 20t8.5 25.5t-6.5 26t-22 20.5q-32 5 -63 8t-63 3t-63.5 -2t-63.5 -6z" />
    <glyph glyph-name="period" unicode="." horiz-adv-x="342" 
d="M88 7q-2 1 -3.5 1.5t-3.5 1.5q-20 34 -20 74q0 39 22 77q45 12 89 12q23 0 45.5 -3t42.5 -11l6 -12l42 -41q21 -38 21 -74q0 -38 -19 -70l-4 -4q-42 -11 -85 -11q-44 0 -87 15zM254 15q19 32 18.5 67.5t-18.5 67.5q-38 13 -82 13q-41 0 -83 -11q-18 -32 -18.5 -67.5
t18.5 -66.5q42 -14 82 -14q41 0 83 11z" />
    <glyph glyph-name="slash" unicode="/" 
d="M-15 -93l-7 3.5l-7 3.5q61 101 134 205.5t150 210.5q64 88 127.5 179.5t120.5 182.5q24 -7 46.5 -17.5t45.5 -21.5l6 -3q1 -2 6 -3q2 -1 6 -2t5 -1q-2 -4 -3 -5l48 -48q-72 -130 -152 -245t-162 -227q-55 -75 -108 -149t-103 -151l-8 -3q-26 9 -52 22t-52 27zM82 -127
q63 97 132 191t137 188t133 190t120 196q-23 11 -46.5 22t-49.5 19q-61 -97 -128 -191.5t-135.5 -189t-134.5 -189.5t-124 -192q21 -12 45.5 -23.5t50.5 -20.5z" />
    <glyph glyph-name="zero" unicode="0" horiz-adv-x="781" 
d="M309 319q1 -45 4 -89t23 -86q23 -13 48 -13h7q31 0 56.5 12.5t37.5 34.5q23 38 28.5 80.5t7.5 86.5v7q0 2 0.5 4t0.5 4q-1 48 -5 95t-25 92q-2 2 -3 4q-10 4 -20 6.5t-21 2.5h-10q-29 0 -55.5 -14.5t-37.5 -37.5q-26 -44 -30.5 -92.5t-5.5 -96.5zM203 67q-30 25 -56 55
q-51 51 -83 112t-32 127v11q0 67 31.5 127.5t79.5 114.5q21 24 47 46t56.5 39t64.5 27t71 10h7q40 0 75 -10.5t65.5 -28t57 -40t48.5 -47.5q6 -7 12 -13.5t11 -13.5l2 -1l12 -12t11 -12q48 -51 79.5 -111.5t31.5 -127.5v-6q0 -67 -31.5 -128.5t-79.5 -112.5q-21 -23 -47 -45
t-56 -38.5t-64 -26.5t-71 -10h-7q-66 0 -121.5 29t-96.5 70zM391 617q34 2 62 -14t42 -40q26 -48 31 -100t6 -103q-2 -48 -7 -95.5t-31 -90.5q-14 -25 -42 -39t-61 -14q-32 -2 -60 14.5t-42 40.5q-26 45 -31 94.5t-6 98.5q1 48 6 98t31 95q12 25 41 40.5t61 14.5zM388 9
q37 -1 71.5 8.5t65 26t56.5 38t47 45.5q48 51 79 112t30 127q1 66 -30 126t-79 111q-21 24 -46.5 46.5t-55.5 39.5t-64 27t-73 10q-37 1 -71 -8.5t-64.5 -26.5t-56.5 -39t-47 -45q-48 -52 -78.5 -112t-29.5 -126q-2 -66 29.5 -127.5t82.5 -112.5q20 -24 45.5 -45.5t55 -38
t63.5 -26.5t70 -10z" />
    <glyph glyph-name="one" unicode="1" horiz-adv-x="781" 
d="M72 438q0 5 0.5 8t1.5 6t1 6q0 4 1 7v-1q4 27 9 54t13 53q6 3 14 6.5t15 6.5t13.5 6.5t13.5 6.5q63 28 123 59t104 80q11 1 24.5 1.5t24.5 0.5q24 0 48 -1.5t49 -6.5q0 -5 1 -7l46 -46q11 -92 16.5 -180t5.5 -176q0 -41 -1.5 -81.5t-3.5 -81.5q85 9 174 34q-1 -2 -3 -8
l47 -47q-11 -32 -22.5 -62.5t-26.5 -56.5q-66 -29 -139 -43.5t-146 -14.5q-79 0 -157 16.5t-149 49.5l-44 44q-6 2 -8 4q-14 30 -25.5 60.5t-21.5 60.5q65 -18 126.5 -28t121.5 -14q-4 56 -6 114.5t-2 114.5v83q-43 -22 -86 -43.5t-89 -39.5l-10 7l-40 40zM82 438
q63 26 122.5 55.5t119.5 59.5q-5 -103 -4 -205.5t9 -205.5q-130 6 -243 37q8 -25 17.5 -49.5t20.5 -48.5q66 -31 140 -47t150 -17t150.5 13t140.5 43q14 25 24 51t19 52q-54 -14 -107.5 -22t-110.5 -11q22 289 -12 578q-33 5 -67 6t-66 -1q-26 -29 -59 -51.5t-69.5 -41
t-74.5 -35t-75 -33.5q-10 -31 -15 -63z" />
    <glyph glyph-name="two" unicode="2" horiz-adv-x="781" 
d="M710 181l-1 -1l40 -39l8 -10q-6 -13 -11.5 -25.5t-11.5 -25.5q-15 -33 -32 -67q-60 -27 -126.5 -40t-133.5 -13q-77 0 -151.5 16.5t-140.5 49.5l-44 43q-2 2 -4 2.5t-4 2.5q-29 62 -44 118q5 2 10.5 4t10.5 4q18 7 36.5 14t35.5 15q10 5 20 10.5t21 10.5q5 2 10 5l10 6
q45 24 91 49.5t85.5 55.5t68.5 66t41 81q-1 6 -2.5 12.5t-4.5 11.5q-26 12 -55 12h-11q-31 0 -56 -12t-43.5 -31.5t-30 -44t-15.5 -48.5q-2 0 -8.5 0.5t-8.5 0.5q-41 5 -84.5 10t-83.5 7l-47 46q-2 0 -4 0.5t-4 0.5q22 46 55.5 92.5t77.5 83.5t98 60t118 23q66 0 124 -26.5
t104 -68.5q14 -13 28 -27t25 -29l19 -18q27 -27 46.5 -57.5t27.5 -64.5q1 -5 1 -10v-10q0 -41 -22 -77t-56 -65q-44 -37 -91.5 -67t-98.5 -56q53 3 104.5 11t103.5 22zM701 184q-99 -26 -198.5 -31.5t-202.5 -0.5q90 38 173 82.5t155 104.5q36 31 58.5 71t15.5 85
q-10 42 -37.5 79t-63.5 66q-42 38 -97.5 62.5t-118.5 24.5q-62 0 -114 -21.5t-93.5 -55.5t-73 -77t-52.5 -86q42 -2 83.5 -7t84.5 -10q4 25 16 49.5t32 44t47 31.5t61 11q25 1 48 -6t41 -20.5t28.5 -31.5t10.5 -39q-14 -53 -52 -94.5t-88 -75.5t-106 -62.5t-107 -56.5
l-42 -18t-42 -17q7 -26 16 -52t22 -52q60 -30 128.5 -46t140 -18t141.5 10.5t132 40.5q15 29 27.5 58t26.5 58z" />
    <glyph glyph-name="three" unicode="3" horiz-adv-x="781" 
d="M723 282l4 -4zM252 454h26q13 0 25 1h24q6 0 12 0.5t12 0.5q29 0 59 3.5t50 19.5q8 9 15 19t7 22v6q0 9 -3 17q-28 14 -58 14h-7q-47 0 -80.5 -26.5t-47.5 -63.5q-35 2 -71 3t-71 1h-43l-47 47h-9q27 44 59.5 83.5t77.5 69.5q38 29 84.5 47t97.5 18h11q60 0 110.5 -20
t94.5 -51q20 -17 40 -35.5t36 -38.5l22 -22q21 -21 36.5 -44.5t21.5 -50.5q3 -12 3 -25q0 -33 -23.5 -59t-56.5 -43q27 -19 42 -43l30 -29q15 -15 24 -33t9 -38v-11t-2 -11q-10 -47 -41.5 -82.5t-69.5 -67.5q-45 -35 -99 -58t-118 -23h-10q-64 0 -121 23.5t-102 60.5l-1 1
q-12 10 -23.5 20t-22.5 21l-11 10q-38 32 -71 70t-53 92q23 -2 54 -3t54 -1q20 0 45 0.5t45 2.5q0 -2 0.5 -4t0.5 -4l46 -45q1 -8 3.5 -15.5t5.5 -14.5q39 -28 88 -28h21q21 0 42 6.5t37.5 18t27 27.5t10.5 35q1 4 1 9q0 6 -1 9q-21 7 -46 10t-48 3h-18q-11 0 -22 0.5
t-22 0.5h-48l-47 47h-6v94v23q0 13 1 25zM253 444q-2 -33 -1.5 -65t0.5 -66q20 0 41.5 -0.5t43.5 -0.5q27 1 59 -1.5t58.5 -12.5t43 -28.5t11.5 -48.5q0 -22 -12.5 -40t-32.5 -30.5t-44.5 -19t-48.5 -4.5q-30 -2 -57.5 6.5t-49 23.5t-36.5 36t-20 45q-45 -3 -87.5 -2.5
t-85.5 2.5q17 -45 50 -80.5t71 -67.5q43 -36 99 -59t119 -23q66 -2 122 21.5t101 58.5q38 31 69 66t39 80q7 29 -5 53.5t-36 44t-55 32.5t-61 19q27 6 54 19t46.5 31t29 40.5t1.5 48.5q-9 42 -39.5 74.5t-65.5 60.5q-42 29 -92 49t-107 20q-54 2 -104 -16.5t-88 -49.5
q-39 -26 -67.5 -60.5t-51.5 -71.5q42 1 83.5 -0.5t83.5 -3.5q7 19 20.5 36t31.5 29.5t40 19t48 5.5q21 0 43 -6.5t39 -18.5t28 -28t11 -35q2 -16 -6 -30t-20 -25q-23 -17 -54 -21t-61 -4q-25 0 -48.5 -1t-49.5 -1z" />
    <glyph glyph-name="four" unicode="4" horiz-adv-x="781" 
d="M421 476q-35 -42 -69 -83.5t-68 -85.5q26 -1 51 -1h52h34v151v19zM598 703q0 -2 0.5 -3t0.5 -3l46 -45q23 -79 33.5 -159.5t10.5 -161.5v-19q16 1 34 2t32 3q0 -2 -0.5 -3t-0.5 -3l48 -47q-6 -65 -18 -118q-29 -7 -55.5 -11t-52.5 -7q-6 -38 -14.5 -73.5t-20.5 -70.5
q-44 -11 -89 -16.5t-96 -6.5l-47 47h-6q2 24 2.5 52t1.5 54q-78 1 -156.5 9.5t-155.5 26.5l-45 45q-4 0 -8 2q-7 26 -11 55t-7 60q66 84 136 166.5t141 163.5q10 11 20 23t21 24l42 48h12q52 0 100 -8t95 -19zM182 300q60 79 121.5 155.5t127.5 151.5q2 -7 1 -14t-1 -13
q-2 -8 -1 -16.5t0 -16.5q2 -63 1.5 -125.5t-0.5 -125.5q-63 -1 -124.5 0.5t-124.5 3.5zM588 700q-48 12 -98 20t-102 7q-91 -106 -180 -207.5t-174 -209.5q2 -26 6 -52t11 -52q91 -20 182.5 -28t185.5 -6q-1 -39 -1.5 -77.5t-3.5 -76.5q45 1 87 6t84 16q13 35 21.5 71
t13.5 73l54 8t54 10q5 25 9.5 51t6.5 53q-29 -3 -57.5 -4t-57.5 -3q7 102 -3 201.5t-38 199.5z" />
    <glyph glyph-name="five" unicode="5" horiz-adv-x="781" 
d="M91 312q-3 0 -7 2q2 103 27 195.5t58 182.5q53 17 109 25.5t113 8.5q66 0 131.5 -11.5t126.5 -36.5q0 -3 2 -7l45 -45q9 -29 11.5 -59t2.5 -59l-8 -7q-63 12 -127 17.5t-128 5.5q-27 0 -54.5 -1t-54.5 -3q-1 -12 -3 -24l-4 -24q54 21 115 21h14q60 0 113 -20.5t97 -53.5
q14 -10 26 -22t22 -26l28 -27q23 -23 36 -51t13 -58q0 -6 -0.5 -12t-1.5 -11q-6 -51 -39 -93.5t-74 -78.5q-46 -38 -100.5 -63.5t-119.5 -25.5h-12q-81 2 -147 35.5t-117 84.5l-16 15q-38 32 -69 70t-54 79q21 -2 50 -3t50 -1q24 0 51.5 0.5t51.5 2.5q2 -6 3 -8l45 -45
q1 -8 6 -17q17 -11 37 -17.5t42 -6.5h17q24 0 47 7.5t41.5 21t29.5 31t11 37.5v4q0 1 0.5 2t0.5 3q0 13 -7 29q-16 8 -34.5 13t-35.5 5h-10q-38 0 -72.5 -15t-54.5 -42q-43 6 -90 14.5t-87 16.5zM653 558q0 28 -2.5 56.5t-10.5 55.5q-54 21 -112.5 32.5t-118 13t-118.5 -6.5
t-114 -26q-33 -88 -57 -177t-26 -183q40 -8 82 -15.5t85 -13.5q20 27 57 42t77 14q27 1 53.5 -7.5t47.5 -24.5t32.5 -37t8.5 -44q0 -23 -12.5 -43t-33 -34.5t-46.5 -22.5t-53 -7q-26 -2 -50 5t-44.5 19.5t-35 30.5t-21.5 39q-45 -2 -89.5 -2.5t-89.5 2.5q23 -41 56.5 -79
t76 -68t93.5 -49t110 -20q67 -3 123.5 23t104.5 64q39 35 71.5 76.5t38.5 91.5q8 42 -13 81.5t-59 66.5q-42 32 -94.5 52t-109.5 20q-57 2 -109.5 -13.5t-88.5 -49.5q2 40 9 79t11 78q94 6 187 2t184 -21z" />
    <glyph glyph-name="six" unicode="6" horiz-adv-x="781" 
d="M408 129q25 0 46.5 8.5t37.5 22.5t25.5 32t9.5 37v8q0 1 0.5 2t0.5 3q0 14 -7 27q-30 15 -63 15h-6q-25 0 -48.5 -7.5t-41.5 -21t-29 -31.5t-11 -39v-6q0 -15 7 -32q28 -18 67 -18h12zM199 79q-38 30 -67 64t-51 69q-18 34 -28.5 72t-10.5 76v9q0 69 31.5 130.5
t82.5 115.5q22 25 49 47t58.5 38.5t67.5 26t75 9.5h8q55 -1 103.5 -23t86.5 -54q20 -17 39 -36t35 -39l15 -14q22 -22 40 -46t30 -50l-6 -10q-39 -2 -79.5 -6.5t-84.5 -10.5l-48 47h-4q-4 14 -9.5 27.5t-13.5 25.5q-26 13 -54 13q-31 -1 -54.5 -10.5t-40.5 -25t-28 -36
t-18 -43.5q58 26 126 26h12q60 0 115 -19t96 -56q9 -9 18 -18.5t17 -19.5l26 -26q23 -23 38.5 -51t15.5 -59q0 -5 -0.5 -9.5t-1.5 -9.5q-8 -47 -39 -86t-68 -73q-40 -38 -94.5 -65.5t-118.5 -27.5h-13q-56 0 -106.5 21.5t-88.5 53.5l-3 2q-13 10 -24 20.5t-22 21.5zM402 119
q-27 -1 -51.5 7.5t-43 24t-30 35.5t-12.5 43q-2 23 9 43.5t30.5 35.5t45 24t52.5 9q26 1 51.5 -7t45 -23t30.5 -35.5t8 -42.5q1 -22 -9 -43t-28.5 -37t-43.5 -25.5t-54 -8.5zM707 521q-17 38 -46 70.5t-63 60.5q-37 31 -83.5 52t-100.5 22q-79 2 -142.5 -32.5t-108.5 -85.5
q-51 -54 -82 -116.5t-29 -131.5q0 -37 10.5 -73t27.5 -69q47 -77 122 -137q40 -34 92.5 -55t110.5 -18q63 0 116 27t92 64q36 33 66.5 71.5t38.5 83.5q7 38 -12.5 73t-50.5 62q-39 35 -93 53.5t-111 18.5q-31 1 -62 -3.5t-59 -15t-51 -27.5t-38 -39q0 34 5.5 75.5t22.5 77.5
t49 61t86 27q28 0 50.5 -9.5t40 -25.5t28.5 -36t16 -41q40 6 79 10t79 6z" />
    <glyph glyph-name="seven" unicode="7" horiz-adv-x="781" 
d="M661 661q1 -2 1 -4q0 -1 1 -3l45 -44q9 -24 17.5 -48.5t15.5 -51.5q-28 -23 -48.5 -51t-38.5 -56h-1l-12 -21q-32 -51 -56 -103t-40 -108q-11 -39 -19.5 -77t-13.5 -77q-1 -5 -1 -13v-41q-14 -1 -31 -1.5t-31 -0.5q-39 0 -77.5 4t-78.5 14l-45 45q-4 0 -8 2
q-5 22 -6.5 43t-1.5 42q0 15 1 29.5t3 28.5q7 41 23 79t37 75q56 109 153 200h-12q-72 0 -147 -8t-153 -26l-47 47q-6 -2 -9 -2q18 37 33 78q2 5 3.5 9.5t3.5 9.5q4 10 9 21.5t10 22.5q59 26 123 38.5t127 12.5q71 0 138 -14.5t127 -44.5zM651 658q-56 28 -120 42.5
t-130 15.5t-131 -11t-123 -37q-12 -29 -23 -59.5t-25 -59.5q106 24 212.5 29t212.5 -4q-70 -54 -125.5 -118.5t-93.5 -136.5q-20 -36 -36 -73.5t-23 -77.5q-9 -67 3 -133q51 -12 102 -15.5t103 0.5q1 12 0 24.5t1 23.5q10 78 33 155q16 57 40.5 109.5t56.5 103.5l44 66
t54 60q-6 24 -14.5 48t-17.5 48z" />
    <glyph glyph-name="eight" unicode="8" horiz-adv-x="781" 
d="M753 478v-1h1zM435 460q3 -2 6.5 -2.5t7.5 -1.5q28 5 52 22t24 42l-2 8q-2 16 -7 27q-16 8 -34.5 12t-36.5 4h-15q-19 0 -38 -4.5t-34 -13.5t-25 -22t-11 -30v-5q21 -10 43.5 -16.5t46.5 -12.5q2 -1 3 -1q2 0 4 -1q9 -4 16 -5zM279 160q0 -5 2 -13q23 -13 51.5 -18.5
t56.5 -5.5q21 0 45.5 3t45.5 11t36 21t18 33v5q0 3 -1 5q-24 10 -51 17.5t-54 15.5q-12 3 -24.5 5.5t-24.5 6.5q-17 -3 -35 -9.5t-32.5 -16t-24 -22.5t-9.5 -29q0 -2 0.5 -4.5t0.5 -4.5zM697 571q20 -21 35.5 -44.5t19.5 -47.5l2 -1q3 -11 3 -24q0 -32 -21.5 -56.5
t-53.5 -41.5q23 -17 41 -40l32 -32q17 -17 26.5 -36t9.5 -42q0 -7 -0.5 -11.5t-1.5 -9.5q-15 -47 -48.5 -89t-80.5 -74t-104 -51t-118 -19h-11q-77 2 -145 33t-116 79l-16 16q-38 29 -66 65t-42 78v4q-1 3 -1.5 6t-0.5 11q0 20 9.5 37.5t25 32t35.5 26.5t41 20l-20 20
q-28 21 -47 48.5t-19 59.5q0 14 3 25q9 43 38 78t66 66q43 35 96 57t113 22h15q60 0 112.5 -22t98.5 -54q18 -15 36 -32t32 -36zM331 304q49 -14 97 -26.5t90 -35.5q11 -10 19.5 -23.5t6.5 -28.5q-3 -23 -19 -37.5t-38.5 -23.5t-48.5 -12.5t-49 -3.5q-27 0 -55.5 5.5
t-52.5 17.5t-40 30t-19 44q-3 20 6.5 35.5t25.5 27.5t36.5 19.5t40.5 11.5zM448 446l-80 22t-75 31q-30 20 -28 52q1 19 12.5 34t29 25t39 14.5t42.5 3.5q26 1 51.5 -5.5t46 -19t33.5 -31t14 -40.5q4 -17 -2 -31.5t-19 -25.5t-30 -18.5t-34 -10.5zM586 395q25 7 48 19.5
t39 29.5t23.5 37.5t0.5 44.5q-3 19 -12.5 36.5t-23 33t-29 30t-31.5 27.5q-45 32 -97 53t-112 20q-61 2 -116.5 -19.5t-97.5 -56.5q-35 -29 -63.5 -64t-36.5 -77q-6 -24 1.5 -46.5t23.5 -42t38 -34.5t46 -25q-26 -7 -52.5 -19t-47 -29t-31 -38.5t-4.5 -47.5q15 -44 46.5 -83
t75 -68.5t95.5 -47t108 -19.5q61 -2 118.5 16t105 49.5t82 74t49.5 89.5q6 28 -5.5 52.5t-33.5 44.5t-50.5 35t-56.5 25z" />
    <glyph glyph-name="nine" unicode="9" horiz-adv-x="781" 
d="M297 449q0 -6 0.5 -11t2.5 -10q29 -16 63 -16h20q23 0 44.5 7.5t38.5 20t27 29.5t10 36v3q-1 9 -4 18.5t-8 17.5q-29 17 -65 17q-25 0 -47.5 -8.5t-40 -23t-28.5 -33t-12 -37.5q0 -2 -0.5 -5t-0.5 -5zM255 203q2 -6 4 -8l43 -43q0 -2 1 -3q26 -17 62 -17h5q29 0 54 11
t43 27q14 16 22.5 33t13.5 37q-58 -25 -119 -25q-5 0 -8.5 0.5t-8.5 0.5h-4q-57 0 -109 18.5t-90 50.5l1 -1q-5 4 -9.5 8t-9.5 9l-24 24q-4 2 -10 8q-33 25 -50 58t-17 70q0 6 0.5 11.5t1.5 10.5v3q8 46 38 87.5t72 74.5q45 39 100 63.5t117 24.5h6q44 0 83 -12t73 -32.5
t62 -47t50 -55.5l8 -7q19 -19 35 -39.5t29 -40.5q28 -41 43.5 -85.5t16.5 -91.5v-9q0 -68 -30.5 -129.5t-80.5 -112.5q-21 -24 -47.5 -46.5t-58 -39t-66.5 -26.5t-73 -10h-13q-64 2 -117.5 30t-95.5 70l-23 23q-35 29 -63 64.5t-48 72.5q32 -5 52.5 -6t35.5 -1q38 0 77 3h8
q2 0 4.5 0.5t4.5 0.5zM376 618q27 0 51 -9t42.5 -24t30 -35t13.5 -41q1 -23 -10.5 -43t-31.5 -35t-45.5 -23t-52.5 -6q-27 -2 -52 6t-43.5 23t-29 35t-7.5 43q1 21 12.5 40.5t30 35t42.5 24.5t50 9zM246 199q-42 -2 -82 -3.5t-82 3.5q19 -35 46.5 -68t62.5 -59.5t78 -43.5
t92 -19q39 -2 75.5 7t69 26t60 39.5t48.5 47.5q51 52 81 114.5t28 131.5q-1 46 -16 89.5t-43 83.5q-21 33 -50 65.5t-66 58t-80.5 40.5t-93.5 14q-61 0 -115 -23.5t-96 -61.5q-39 -32 -68.5 -72t-37.5 -85q-7 -40 9.5 -78t52.5 -66q38 -32 89.5 -50t108.5 -17q60 -4 116 17
t95 59q-3 -24 -5 -48.5t-7 -48.5t-14.5 -46.5t-27.5 -42.5q-20 -17 -47.5 -29.5t-59.5 -11.5q-43 -1 -75 22t-46 55z" />
    <glyph glyph-name="colon" unicode=":" horiz-adv-x="342" 
d="M70 353q-2 0 -3 -0.5t-2 -0.5q1 36 3.5 58t5.5 42q1 5 1.5 11t1.5 11t1 11q0 7 1 12q14 22 38 32t50 10q29 0 55.5 -13t41.5 -39l32 -32q10 -10 15 -19q6 -30 9.5 -60.5t4.5 -62.5l-10 -6q-45 17 -93 17q-47 0 -104 -18zM110 23q-21 13 -31 32q-5 29 -9 65.5t-7 79.5
q30 -14 57 -19t51 -5q48 0 110 22q-1 -2 -1 -8l47 -47q-3 -36 -6 -71t-10 -69l-1 -3q-13 -22 -36 -32t-48 -10q-23 0 -44.5 7.5t-36.5 22.5zM254 54q7 32 10 64t5 64q-45 -16 -97.5 -16.5t-97.5 18.5q2 -32 5.5 -62.5t9.5 -62.5q12 -21 34.5 -32t47 -12t47.5 8.5t36 30.5z
M268 363q-1 31 -4.5 61t-9.5 61q-12 21 -34.5 32t-47 12t-47.5 -8t-36 -30q-4 -32 -8.5 -62.5t-5.5 -62.5q46 15 97 15t96 -18z" />
    <glyph glyph-name="semicolon" unicode=";" horiz-adv-x="342" 
d="M71 335q-2 -1 -5 -4q1 10 2 23.5t2 27.5t2.5 27.5t2.5 23.5q0 5 0.5 10.5t1.5 10.5t1 11t1 11q14 20 36 36.5t62 22.5q30 -5 49 -20t31 -35l29 -28q14 -14 24 -32l1 -3q5 -24 7 -49t4 -51q0 -7 0.5 -14.5t2.5 -23.5q-26 21 -55 32t-55 11q-49 0 -96 -35zM284 166v-4
l47 -47q0 -31 -2 -62.5t-4 -61.5q-5 -8 -9.5 -17t-9.5 -17q-23 -42 -48.5 -83t-60.5 -81q-12 5 -21 11t-16 13l-31 31q-15 9 -24.5 20.5t-18.5 23.5q1 -1 -0.5 2t-3.5 5q-5 5 -5 11q22 11 35 26t24 31q-9 4 -17 11l-40 39q-3 2 -6.5 4.5t-6.5 5.5q-2 34 -4 75.5t-2 75.5
q33 -4 64.5 -5.5t61.5 -1.5q22 0 44 1t44 3zM274 165q-51 -5 -102 -4t-102 6q0 -34 2 -67.5t4 -67.5q20 -15 44.5 -23.5t51.5 -8.5q-9 -12 -17.5 -25.5t-18 -26t-21 -24t-26.5 -19.5q11 -16 23.5 -31t32.5 -23q40 45 67.5 93.5t55.5 97.5q2 30 4 61t2 62zM254 466
q-12 20 -30 37t-47 22q-35 -5 -55 -20t-33 -33q-3 -30 -6.5 -60t-5.5 -60q20 15 45 21.5t51 5.5t50 -9.5t43 -23.5q-2 30 -4.5 60.5t-7.5 59.5z" />
    <glyph glyph-name="less" unicode="&#x3c;" horiz-adv-x="781" 
d="M619 618l3 -9l44 -43q13 -30 23.5 -60t19.5 -59q-90 -22 -169 -51.5t-156 -61.5q66 -27 134.5 -52t146.5 -42q-1 -2 -1 -3l-1 -2l48 -47q-9 -31 -19.5 -61.5t-28.5 -64.5q-57 7 -111 22t-106.5 35t-103.5 43t-101 47q-26 12 -53 25.5t-53 24.5l-44 44q-6 2 -9 4
q-2 12 -2 25v28q0 20 1 37.5t3 34.5q22 9 45 20.5t46 22.5q5 2 9.5 4.5t9.5 4.5q49 24 98.5 46.5t101.5 41.5t105.5 32.5t110.5 18.5zM610 613q-71 -6 -137.5 -26t-130.5 -46.5t-125.5 -57t-122.5 -57.5q-4 -29 -4.5 -56.5t2.5 -56.5q62 -28 124 -58t126 -57t130.5 -48
t137.5 -30q15 27 24.5 55.5t17.5 57.5q-99 22 -191 60t-184 74q91 38 182 74.5t191 60.5q-8 28 -18 55.5t-22 55.5z" />
    <glyph glyph-name="equal" unicode="=" horiz-adv-x="781" 
d="M725 325q0 -1 -1 -1v0l41 -40l7 -9q-18 -54 -65 -95q-126 -24 -260 -24q-69 0 -139.5 7t-141.5 22l-46 46q-4 0 -5 1q-43 41 -64 108q87 -5 178.5 -7.5t176.5 -2.5q77 0 154.5 2t155.5 5zM663 500q5 -7 10.5 -13t10.5 -13l28 -27q20 -22 36 -46.5t27 -55.5
q-82 3 -168 4.5t-167 1.5t-166.5 -1.5t-166.5 -3.5l-47 47h-7q12 36 29 62t37 49q129 24 264 24q71 0 139.5 -6.5t136.5 -19.5zM715 327q-166 -7 -325.5 -6.5t-324.5 8.5q16 -50 55 -88q132 -27 267 -28t267 24q45 39 61 90zM657 492q-132 25 -265.5 26t-267.5 -24
q-19 -21 -34 -43t-23 -48q81 2 161.5 3.5t161.5 1.5q161 0 325 -6q-8 25 -23.5 47t-34.5 43z" />
    <glyph glyph-name="greater" unicode="&#x3e;" horiz-adv-x="781" 
d="M160 119q-17 31 -26.5 62t-15.5 63q86 18 162 46t151 58q4 2 8 3t9 3q-65 26 -132 51t-142 46l-46 46q-2 1 -4 1t-4 1q7 32 18.5 64t25.5 65q56 -6 107.5 -19.5t100 -32t95.5 -40t94 -43.5q2 -2 6 -3.5t6 -3.5v1q30 -14 62.5 -29t63.5 -28v-6l47 -46q1 -11 1.5 -24.5
t0.5 -24.5q0 -20 -1 -37t-3 -35q-17 -8 -36 -17t-36 -17q-54 -26 -109 -51t-111 -46.5t-114.5 -37t-118.5 -21.5l-7 4l-43 43h-1zM168 124q70 7 136.5 26.5t131 45.5t127 56t124.5 59q3 29 3.5 56.5t-1.5 56.5q-63 27 -125.5 57.5t-126 58t-129.5 48.5t-138 29
q-11 -27 -20.5 -54.5t-16.5 -56.5q97 -27 189 -64t183 -75q-92 -36 -184 -72.5t-191 -57.5q5 -29 14.5 -57t23.5 -56z" />
    <glyph glyph-name="question" unicode="?" horiz-adv-x="679" 
d="M597 590q-1 3 -4 4zM229 212q0 1 -0.5 2t-0.5 3v28q0 4 -0.5 7t-0.5 7v15q0 22 3 41.5t11 34.5q26 32 50 49.5t49 31.5l8 4q1 0 2 1t2.5 1.5t2.5 1.5q26 14 47 34t21 46v12q0 6 -2 14q-21 8 -41 8h-11q-29 0 -50.5 -12t-36.5 -30.5t-24 -42t-11 -45.5q-42 3 -91.5 4
t-91.5 1l-47 47h-8q19 47 49.5 93.5t71.5 84t93 61t114 25.5q59 -1 110 -25t89 -59q17 -16 33 -32.5t30 -34.5l4 -3l7 -7q26 -26 47 -56t29 -65q1 -5 1.5 -10t0.5 -10q0 -26 -11 -48.5t-28.5 -42t-40 -36t-45.5 -30.5q-50 -24 -80 -55q-8 -12 -10 -25l-4 -26v-1
q0 -4 -0.5 -8.5t-1.5 -9.5l30 -30q-1 -43 -5.5 -80.5t-9.5 -72.5l-6 -6q-42 -6 -85 -6q-23 0 -48.5 2t-53.5 6l-46 46q-5 0 -7 1q-2 16 -2.5 34t-1.5 35q-1 9 -1 18t-1 18l-3 58q10 -1 20.5 -1.5t21.5 -0.5l-27 26q-1 0 -2 0.5t-2 0.5zM425 23q5 36 9.5 72.5t5.5 72.5
q-102 -6 -203 0q2 -36 4 -71.5t5 -72.5q45 -6 89.5 -6.5t89.5 5.5zM239 213q42 -3 85 -3h43q22 0 44 1q2 17 4 34.5t12 33.5q16 17 35.5 30.5t42.5 24.5q25 15 49.5 33t43 39.5t27.5 46t4 53.5q-8 42 -37.5 77t-62.5 65q-37 33 -86 56.5t-106 24.5q-60 -2 -109.5 -24
t-89 -56.5t-68 -77.5t-45.5 -86q42 0 83 -1t83 -4q2 23 11.5 46.5t26 42.5t40.5 30.5t55 10.5q21 1 41 -5t35.5 -17.5t24.5 -27t8 -33.5q2 -17 -4 -31t-16.5 -26t-24.5 -22t-29 -18q-29 -17 -57 -35t-48 -43q-16 -28 -16.5 -58.5t0.5 -61.5q0 -5 0.5 -9.5t0.5 -9.5z" />
    <glyph glyph-name="at" unicode="@" horiz-adv-x="1035" 
d="M495 260q25 1 44.5 11t33 25.5t20.5 34.5t7 38v13q0 8 -3 14q-15 5 -28 5q-23 0 -40.5 -9.5t-29 -24t-17.5 -32.5t-6 -35v-6q0 -17 4 -32q8 -2 15 -2zM756 543v-3l41 -41l6 -7q-2 -59 -8.5 -114t-17.5 -112q12 7 22.5 15.5t20.5 18.5q25 24 33.5 53t8.5 58q-4 56 -45 106
l-10 7q-45 35 -101.5 55.5t-119.5 21.5h-11q-66 0 -126.5 -23t-105.5 -63q-49 -40 -81 -91t-32 -109v-5q0 -67 42 -126q4 -3 7 -5.5t7 -5.5q48 -42 113.5 -64t135.5 -22h13q24 0 49 2.5t51 7.5v1q14 3 27 6t26 8q-23 9 -40 26h-1q-22 -20 -54 -31.5t-66 -11.5h-4
q-42 0 -78.5 16t-63.5 41q-2 2 -3 2.5t-3 2.5l-28 27q-5 4 -9 7.5t-9 8.5q-34 31 -51 69t-17 80v3q0 44 18.5 84.5t54.5 72.5q32 26 69.5 43t82.5 17h10q54 0 101 -27q2 2 2 3l2 5q2 6 4 9q29 -1 64 -2.5t66 -4.5zM188 122q-17 14 -32.5 28.5t-29.5 29.5q-37 39 -60.5 85
t-23.5 97v3q0 40 14 76t37.5 68.5t54 61t63.5 54.5q32 25 68 47t75 38.5t81.5 26t87.5 9.5h9q43 0 84 -9t79 -25t72.5 -36.5t64.5 -44.5t57.5 -49t49.5 -54l12 -11q34 -34 58 -72.5t29 -83.5q1 -5 1 -9v-9q0 -45 -23 -85.5t-62 -71.5h1q-23 -20 -48.5 -36.5t-54.5 -28.5
l15 -14q9 -23 11.5 -35.5t4.5 -25.5l4 -20q-68 -35 -141 -62t-152 -27h-8q-60 0 -115 14.5t-104.5 39t-93 57t-80.5 69.5zM495 250q-21 1 -35.5 10.5t-23.5 23.5t-13 30t-4 30q-1 19 4.5 39t18.5 36.5t32 27.5t45 11q19 0 36 -7t29.5 -18t19.5 -25.5t6 -29.5q2 -21 -5 -43.5
t-22 -41t-37.5 -30.5t-50.5 -13zM746 542q-31 3 -61.5 4.5t-59.5 2.5q-2 -6 -5.5 -11.5t-3.5 -10.5q-47 32 -107 32q-45 2 -84 -14.5t-71 -42.5q-35 -31 -53 -71t-17 -82q0 -39 16.5 -76t48.5 -66q26 -24 61.5 -39.5t75.5 -15.5q35 -1 69 11.5t55 35.5q18 -22 47 -32t60 -8
q54 3 100 26.5t83 55.5q42 33 64 77t17 92q-4 32 -18.5 61t-35.5 55.5t-47 50.5t-54 46q-59 46 -134 79.5t-160 33.5q-45 1 -88 -8t-83 -25.5t-76 -38.5t-68 -47t-62 -53t-53 -59.5t-36.5 -66t-13.5 -73.5q-1 -49 22 -94.5t59 -83.5q37 -39 82 -74.5t97 -62.5t110 -42
t122 -14q79 0 149 25.5t136 59.5q-3 17 -5.5 35t-9.5 34q-38 -19 -77.5 -34.5t-84.5 -25.5q-26 -5 -52 -8t-52 -3q-75 -2 -145.5 21t-122.5 68q-48 38 -78 89t-29 108q-1 60 32 112.5t84 94.5q48 42 112.5 66t134.5 22q63 -1 121.5 -22t103.5 -56q48 -32 78 -75t33 -94
q0 -31 -9.5 -62t-35.5 -56q-17 -18 -39 -32.5t-51 -16.5q-11 -1 -18 5.5t-5 15.5q1 10 1.5 20.5t2.5 20.5q24 116 28 236z" />
    <glyph glyph-name="A" unicode="A" horiz-adv-x="810" 
d="M414 433q-14 -35 -27.5 -69.5t-26.5 -69.5h108q-12 32 -24 63.5t-24 61.5q-2 4 -6 14zM519 715q1 -3 3 -7l44 -44q15 -33 32 -66.5t34 -67.5q28 -55 55 -111t48.5 -113t35 -115.5t13.5 -117.5q0 -31 -3 -55q-87 -35 -184 -48l-48 47h-5q-2 20 -5.5 39t-8.5 39v2h-61
q-86 0 -173 6q-9 -29 -16 -60t-12 -66q-74 16 -154 48l-45 44l-4 2l-4 2v18q0 65 14 128t37.5 124.5t53 122t59.5 120.5q17 32 34.5 68t32.5 68q27 2 55 3t57 1q28 0 55 -1.5t53 -3.5zM282 285q23 66 48 130t53 128l50 -128t49 -130q-100 -1 -200 0zM510 711q-26 2 -53 3.5
t-53 1.5t-52.5 -1t-53.5 -3q-36 -77 -76.5 -154t-74.5 -155.5t-56 -159t-20 -164.5q65 -26 141 -43q5 32 12.5 63t16.5 62q72 -6 143 -6.5t144 1.5q7 -32 14.5 -64t10.5 -64q88 12 171 45q9 84 -10 165.5t-53 161t-75 157t-76 154.5z" />
    <glyph glyph-name="B" unicode="B" horiz-adv-x="867" 
d="M358 538q-4 -21 -5.5 -41.5t-3.5 -40.5h22h83q29 0 58 3.5t49 17.5q17 23 17 46q-1 4 -3 14q-19 3 -37.5 5t-37.5 2h-10q-32 0 -65 -2t-67 -4zM347 238q1 -21 1.5 -42t2.5 -42q28 -2 54 -2h53h11q22 0 45 4.5t42 13.5t31.5 23.5t12.5 34.5v5q0 5 -1 7q-17 6 -35.5 9.5
t-35.5 3.5h-100h-41t-41 1q0 -4 0.5 -8t0.5 -8zM157 671q67 29 140.5 42.5t148.5 13.5q13 0 25.5 -0.5t25.5 -1.5q38 -3 75.5 -11.5t72.5 -29.5q53 -28 92 -70q15 -15 27 -30l26 -26q20 -19 32.5 -41.5t18.5 -45.5q2 -6 3 -12t1 -13q0 -34 -25.5 -59.5t-60.5 -42.5
q25 -19 41 -39l32 -32q17 -17 26.5 -37t9.5 -43v-8q0 -3 -2 -11q-11 -38 -38.5 -70t-61.5 -59h1q-43 -38 -99 -60t-121 -23q-11 -1 -23 -1h-23q-77 0 -153 15.5t-147 47.5l-45 44q-2 1 -3.5 2t-3.5 2q-35 72 -52.5 145t-17.5 145q0 156 73 304zM289 312q23 -1 45 -1.5
t44 -0.5h90q22 1 48 -3t47.5 -14t35 -26t11.5 -39q0 -24 -15 -41t-37.5 -27.5t-49 -14.5t-50.5 -3q-42 0 -80.5 1t-76.5 5q-5 42 -7.5 82t-4.5 82zM302 595q35 2 69.5 4t68.5 2q23 1 44.5 -1.5t43.5 -5.5q27 -7 42.5 -27.5t17.5 -42.5q0 -30 -19 -52q-22 -18 -53.5 -22
t-61.5 -4h-83q-20 0 -41 -0.5t-41 -1.5q2 38 4.5 75.5t8.5 75.5zM161 662q-69 -141 -72 -291.5t67 -291.5q79 -35 166 -50t175 -10q63 1 118 22.5t97 58.5q33 26 60 58t38 70q5 30 -8 55.5t-36.5 45t-55 33t-63.5 19.5q28 6 56 18t48.5 29.5t30.5 40.5t2 50q-12 49 -54 88
q-39 42 -89 68q-30 20 -68 28.5t-76 11.5q-85 5 -171.5 -7.5t-164.5 -45.5z" />
    <glyph glyph-name="C" unicode="C" horiz-adv-x="835" 
d="M185 99q-5 4 -9 7.5t-8 7.5q-57 49 -94.5 112.5t-37.5 135.5v7q0 36 10.5 69.5t28.5 64.5t42 60t51 56q51 48 118.5 82.5t147.5 34.5h9q94 -5 170 -49t127 -109l13 -13q75 -75 103 -166l-7 -9q-13 0 -26 0.5t-26 0.5q-22 1 -44 1h-44h-35t-36 -1l-48 47h-5v15
q0 40 -23 75q-32 16 -67 16h-5q-49 -1 -80.5 -22.5t-50 -54t-26 -70t-7.5 -71.5v-12q2 -38 6 -75.5t21 -70.5q20 -12 43.5 -18t48.5 -6h9q30 0 54.5 11.5t43.5 30.5t31.5 43t17.5 48h42q39 0 84.5 2t85.5 4q-1 -2 -1 -3t-1 -3l48 -47q-20 -60 -57.5 -110t-89.5 -86
q-43 -36 -100 -59.5t-120 -23.5h-13q-38 0 -74 9.5t-69 25.5t-62.5 36.5t-53.5 43.5q-7 6 -13.5 12t-12.5 12zM799 447q-16 51 -48 99.5t-78 87.5t-104.5 64t-125.5 28q-81 2 -149 -31.5t-119 -82.5q-54 -52 -91.5 -113t-37.5 -130q-2 -71 35 -134.5t94 -113.5
q25 -23 55 -44.5t64 -37t71.5 -24.5t76.5 -7q63 0 118.5 23t97.5 59q51 35 87.5 81.5t53.5 100.5q-48 -3 -94.5 -4.5t-94.5 -0.5q-5 -25 -18.5 -49t-34 -43t-48 -30.5t-60.5 -10.5q-37 -1 -71.5 11.5t-57.5 36.5q-17 19 -26.5 41t-14.5 45.5t-7 47.5t-3 48q-1 35 5.5 76
t25.5 76.5t53 59.5t87 25q37 1 66.5 -12.5t49.5 -35.5t30 -50t9 -55q51 2 101.5 1t102.5 -2z" />
    <glyph glyph-name="D" unicode="D" horiz-adv-x="862" 
d="M340 314q0 -39 1 -79t5 -80q9 0 18 -0.5t17 -0.5h15q45 0 85.5 15.5t63.5 46.5q28 33 43 72t15 81v4q-2 34 -13.5 69t-35.5 66q-4 2 -7 4.5t-7 4.5q-20 12 -44 16t-50 4h-13q-5 0 -10.5 -0.5t-10.5 -0.5q-15 -1 -30 -1q-14 0 -28 -2q-7 -56 -10.5 -110.5t-3.5 -108.5z
M157 671q53 24 106.5 35t107.5 17q11 1 21 1h22q49 0 98 -10t95 -39h-1q42 -24 75.5 -53.5t62.5 -63.5q5 -5 11 -13l5 -4q17 -17 32 -35q39 -40 60.5 -87.5t21.5 -99.5v-7q0 -35 -10.5 -67t-28.5 -61.5t-42 -56.5t-51 -51q-52 -48 -120.5 -81t-148.5 -33h-13t-12 1
q-63 5 -125.5 19.5t-121.5 41.5l-45 44q-2 1 -3.5 2t-3.5 2q-35 72 -52.5 145t-17.5 145q0 156 73 304zM298 590q21 2 42 2.5t43 1.5q29 1 57.5 -3t53.5 -18q30 -16 51.5 -38.5t36.5 -49t22.5 -55.5t8.5 -57q2 -91 -60 -163q-27 -35 -74 -52t-98 -14q-43 1 -85 6
q-13 111 -12.5 219.5t14.5 220.5zM161 662q-69 -141 -72 -291.5t67 -291.5q57 -26 118.5 -40t124.5 -19q86 -6 159.5 27t128.5 84q27 24 51.5 51t42 57t27.5 62.5t9 67.5q0 51 -21 97t-59 85q-30 35 -65.5 66t-80.5 55q-48 29 -105 37t-114 4q-54 -6 -107 -17t-104 -34z" />
    <glyph glyph-name="E" unicode="E" horiz-adv-x="759" 
d="M147 67q-2 2 -4 2.5t-4 2.5q-31 73 -46 146t-15 145q0 75 16 152.5t47 153.5q61 29 126.5 43t131.5 14q70 0 139 -15.5t132 -45.5l3 -7l45 -45l7 -18q10 -24 17.5 -46t11.5 -42l-9 -9q-144 36 -292 36q-23 0 -47 -1t-48 -3l-6 -75q12 1 24 1h23q60 0 123.5 -2t124.5 -6
v-6l47 -47q0 -17 0.5 -36.5t0.5 -36.5t-0.5 -36.5t-0.5 -36.5q-45 -2 -91 -3t-88 -1q-41 0 -81.5 0.5t-82.5 1.5v-44t2 -42q18 -1 35 -1h34q71 0 144 9t151 30q-1 -2 -1.5 -4t-1.5 -4l48 -47q-9 -31 -20.5 -62.5t-25.5 -63.5q-58 -29 -123 -43.5t-132 -14.5q-72 0 -140.5 16
t-129.5 48zM697 555q-6 27 -15 52t-19 51q-58 28 -123.5 42.5t-133 15.5t-133.5 -12.5t-125 -41.5q-58 -142 -60.5 -291.5t58.5 -291.5q57 -30 123 -45.5t134 -16t134.5 13t123.5 42.5q11 27 21.5 54.5t18.5 56.5q-97 -27 -197.5 -32t-202.5 2q-4 38 -5 75t-2 75
q44 -1 86.5 -1.5t84.5 -0.5t84.5 1t87.5 3q1 66 0 132q-88 5 -171.5 7t-171.5 -1q0 36 2.5 72t5.5 71q201 16 395 -32z" />
    <glyph glyph-name="F" unicode="F" horiz-adv-x="737" 
d="M148 67q-2 2 -4 2.5t-4 2.5q-31 72 -45.5 144.5t-14.5 144.5q0 77 16 154.5t47 153.5q60 29 124.5 43t130.5 14q69 0 137 -15.5t130 -45.5l2 -4l2 -4l44 -44q11 -25 17.5 -44.5t12.5 -38.5q2 -7 4 -13.5t4 -13.5l-9 -9q-72 19 -145.5 27.5t-148.5 8.5q-43 0 -86 -3
q-2 -23 -2.5 -45.5t-1.5 -45.5q14 1 28 1h28q55 0 115.5 -1.5t117.5 -5.5v-6l47 -47q0 -12 0.5 -27.5t0.5 -27.5q0 -21 -0.5 -45t-2.5 -44q-43 -2 -88 -3.5t-87 -1.5h-80t-80 1q0 -5 0.5 -9t0.5 -9q2 -60 4.5 -119.5t11.5 -126.5q-49 9 -94.5 23t-87.5 36zM694 551
q-8 26 -16 53.5t-20 53.5q-57 28 -121.5 42.5t-131 15.5t-132 -12.5t-123.5 -41.5q-57 -142 -60 -291.5t57 -291.5q38 -20 81 -33.5t88 -21.5q-8 66 -11 131t-5 131q42 -1 83 -1h84t83.5 1.5t84.5 3.5q2 32 2.5 65t-0.5 65q-88 5 -171 6t-168 -1q2 39 3 79t5 80
q100 7 197 -1t191 -32z" />
    <glyph glyph-name="G" unicode="G" horiz-adv-x="855" 
d="M791 392l47 -47v-27q0 -77 -17 -152t-52 -148q-21 -10 -38 -16t-31 -11l-1 1l-16 -8l-34 34q-38 -28 -82.5 -47.5t-95.5 -19.5h-7q-40 0 -75.5 9.5t-68 26t-60.5 38t-53 45.5q-3 2 -7 6l-12 12l3 -3l-2 2q-9 8 -17.5 15.5t-16.5 15.5q-53 50 -86 111.5t-33 130.5v7
q0 35 10 69t27 65.5t40 61t50 56.5q24 23 52.5 44.5t61 37.5t68.5 25.5t75 9.5h8q88 -5 159.5 -47.5t123.5 -103.5l20 -20q33 -33 58 -71t42 -77q-45 -1 -98.5 -2t-98.5 -3l-48 47h-5q-8 36 -30 67q-14 8 -31 13t-35 5h-5q-48 -1 -81.5 -21t-53.5 -51t-29 -67.5t-9 -70.5
v-12q0 -5 1 -10q0 -5 -0.5 -9.5t-0.5 -9.5q0 -30 8.5 -61.5t25.5 -59.5q19 -13 41.5 -20.5t51.5 -7.5h14q32 0 60.5 14.5t47.5 37.5h-97l-47 47h-6v160q35 0 73 -0.5t75 -1.5q17 0 34 -0.5t34 -0.5q40 -1 84 -1.5t85 -0.5v-6zM781 388q-94 1 -184 3t-181 2q0 -35 -0.5 -70
t0.5 -70q45 0 87.5 0.5t87.5 2.5q0 -25 -12 -47.5t-32.5 -39.5t-47.5 -26.5t-57 -8.5q-53 -2 -90.5 20t-61 56t-33 74.5t-6.5 76.5q-3 36 4 77.5t28 77.5t57 60t90 25q33 1 60.5 -10.5t48 -30.5t33.5 -43t18 -48q45 2 90.5 3t90.5 2q-20 45 -52.5 89t-76.5 79.5t-98 58
t-116 25.5q-40 1 -76 -8t-68.5 -24.5t-61 -36.5t-52.5 -45q-54 -54 -90 -117.5t-34 -134.5q0 -66 32.5 -126.5t83.5 -108.5q24 -23 52 -44.5t59.5 -37.5t66.5 -25.5t74 -9.5q34 -1 65.5 7.5t59.5 23t53 33.5t46 39q4 -15 4 -32v-17q0 -8 -1 -16q18 6 36.5 12.5t36.5 14.5
q37 75 53 154.5t14 160.5z" />
    <glyph glyph-name="H" unicode="H" horiz-adv-x="862" 
d="M719 662q1 -3 3 -7l44 -44q64 -146 64 -300q0 -75 -17 -149t-52 -144q-79 -37 -167 -51l-47 47q-3 -1 -7 -1q12 60 18.5 116.5t9.5 112.5h-61h-82q-39 0 -81 2q1 -68 6.5 -135.5t15.5 -137.5q-48 7 -89.5 21t-81.5 32l-45 44q-2 1 -3.5 2t-3.5 2q-32 72 -48 144t-16 144
q0 154 70 309q42 20 84.5 31t88.5 20q-1 -3 -1 -7l47 -47q-8 -53 -13.5 -103.5t-8.5 -102.5q16 1 31 1h32q38 0 79 -0.5t81 -2.5q-5 62 -12 131t-15 130q48 -9 91 -21t81 -31zM710 658q-37 17 -75.5 28.5t-80.5 19.5q9 -66 15 -130t11 -128q-75 2 -147.5 2.5t-145.5 -1.5
q2 66 8 129t15 129q-42 -8 -80 -18t-74 -27q-64 -141 -67 -291.5t61 -291.5q38 -17 77 -30.5t81 -19.5q-9 69 -14.5 136.5t-6.5 136.5q75 -2 147 -2.5t147 1.5q-3 -69 -8.5 -137.5t-19.5 -137.5q78 12 153 47q35 69 51.5 142.5t16 148.5t-17 149t-46.5 145z" />
    <glyph glyph-name="I" unicode="I" horiz-adv-x="386" 
d="M147 21q-17 9 -29 23t-20 29q-10 71 -14.5 142.5t-4.5 144.5q0 152 21 305q8 10 17 20.5t20 19t26 14t35 7.5q32 -5 50 -21.5t32 -34.5l27 -27q6 -6 10.5 -12t9.5 -12q1 -2 2.5 -4t2.5 -4l1 -2q10 -76 15 -151t5 -151q0 -72 -4.5 -142.5t-15.5 -142.5
q-13 -23 -34.5 -40.5t-63.5 -19.5q-18 2 -32.5 10t-25.5 19zM276 658q-14 18 -31.5 36t-46.5 22q-36 -3 -55 -19.5t-33 -34.5q-20 -147 -21 -291.5t19 -291.5q12 -20 30.5 -38t47.5 -22q39 2 59 18t31 36q21 147 20 292t-20 293z" />
    <glyph glyph-name="J" unicode="J" horiz-adv-x="507" 
d="M397 656q0 -2 1 -3l44 -44l2 -3q40 -142 40 -291q0 -34 -2 -67t-6 -66q-4 -37 -21 -77.5t-46.5 -74t-69.5 -55.5t-90 -22q-12 0 -23.5 1.5t-22.5 3.5q-65 22 -114 66l-32 31l-21 18q-9 29 -15 62t-11 68q29 -17 56.5 -28.5t52.5 -16.5q12 -3 22 -3q16 0 32 6.5t28 20.5
q5 11 7 23t2 24v496q55 0 102 -17.5t82 -46.5zM387 654q-33 28 -76 44.5t-91 16.5v-486q0 -14 -2 -28t-9 -26q-14 -20 -41.5 -26.5t-50.5 -0.5q-26 5 -49.5 14.5t-44.5 21.5q4 -27 9 -53.5t13 -52.5q46 -41 111 -63q57 -12 104 5.5t81 51.5t54 77.5t24 83.5q13 106 5 211
t-37 210z" />
    <glyph glyph-name="K" unicode="K" horiz-adv-x="838" 
d="M326 705q0 -1 -0.5 -2t-0.5 -2l48 -47q-9 -45 -15.5 -88t-10.5 -87q12 14 24 27t23 26q41 46 82 94t78 96q47 -8 89.5 -18t86.5 -26q-1 -1 -1.5 -2t-1.5 -2l49 -48q-38 -58 -76.5 -107.5t-80.5 -97.5q14 -25 28.5 -49.5t29.5 -49.5q21 -36 41.5 -72t38.5 -73.5
t31.5 -76.5t20.5 -81q-45 -22 -92.5 -34.5t-98.5 -18.5l-48 47h-4q-24 62 -54.5 116.5t-62.5 108.5q-11 -14 -22.5 -26.5t-22.5 -25.5q-14 -15 -27 -29.5t-26 -30.5l6 -46q3 -25 7.5 -54.5t9.5 -53.5q-45 9 -89 21t-84 31l-44 44q-6 2 -8 4q-35 72 -52.5 145t-17.5 145
q0 78 19 155t56 152q40 17 81 28t81 18zM316 705q-40 -7 -79.5 -17t-75.5 -26q-69 -141 -72 -291.5t67 -291.5q37 -17 77 -28.5t82 -19.5q-7 36 -11.5 72.5t-9.5 73.5q29 35 60 69.5t60 70.5q43 -72 86.5 -143.5t72.5 -149.5q48 6 92 17.5t86 31.5q-9 54 -30 104.5t-48 100
t-56.5 97.5t-55.5 98q42 49 80.5 97t73.5 102q-38 14 -76.5 23.5t-80.5 15.5q-64 -84 -136 -162t-139 -160q1 81 9.5 159.5t23.5 156.5z" />
    <glyph glyph-name="L" unicode="L" horiz-adv-x="669" 
d="M144 64q-3 2 -5.5 3.5t-5.5 3.5q-28 71 -41 143.5t-13 146.5q0 157 58 309q37 21 84.5 34t96.5 20q0 -2 -0.5 -3t-0.5 -3l48 -47q-6 -85 -9.5 -172.5t-3.5 -172.5q0 -84 3 -166h33q62 0 124.5 8t131.5 32q-1 -2 -1 -4t-1 -4l48 -47q-6 -35 -15.5 -66t-22.5 -60
q-51 -29 -108.5 -43.5t-117.5 -14.5q-64 0 -126 16t-115 47zM301 152q-8 142 -6 280.5t12 280.5q-42 -6 -84 -18t-78 -33q-54 -143 -56.5 -291t52.5 -292q49 -29 107.5 -44.5t119.5 -16.5t120 13t109 43q24 54 34 110q-78 -27 -161.5 -31.5t-168.5 -0.5z" />
    <glyph glyph-name="M" unicode="M" horiz-adv-x="1145" 
d="M482 17q-13 29 -26 57t-27 57q-32 66 -62.5 133t-54.5 136q-2 -23 -3 -44.5t-1 -43.5q0 -81 15 -163t46 -166q-7 2 -20 5t-20 5q-26 7 -52.5 13.5t-56.5 16.5l-45 45q-2 0 -6 2q-46 67 -68.5 140t-22.5 148q0 81 24.5 160.5t71.5 151.5q63 20 131 32t137 20q0 -2 0.5 -4
t0.5 -4l46 -45q17 -81 41 -157.5t52 -151.5q2 5 4.5 11t4.5 11q32 84 62.5 168t49.5 171q72 -8 138.5 -21.5t130.5 -33.5q2 -4 4.5 -7.5t4.5 -6.5l38 -38q45 -69 69 -146.5t24 -156.5q0 -77 -24 -151.5t-74 -142.5q-35 -14 -69.5 -21.5t-71.5 -14.5q-5 -1 -16 -3t-16 -3
l-48 47h-6q32 88 46.5 172t14.5 165v8q-33 -96 -75.5 -188.5t-87.5 -185.5q-3 -7 -7.5 -16t-7.5 -16q-32 0 -66 0.5t-64 2.5l-5 4l-43 42q-1 0 -1.5 0.5t-1.5 0.5zM491 21q30 -2 61.5 -2.5t63.5 -0.5l66 138t62 139t53 141.5t39 144.5q26 -138 20.5 -275t-54.5 -272
q42 8 81 16.5t77 22.5q49 66 72 140.5t22.5 151t-23.5 151.5t-67 142q-61 19 -124 32t-129 20q-24 -106 -64 -210t-78 -207q-40 103 -76.5 206.5t-59.5 211.5q-64 -7 -127.5 -18.5t-123.5 -30.5q-44 -67 -68 -141.5t-25.5 -150t19.5 -150t67 -141.5q32 -11 66 -19.5
t67 -16.5q-48 132 -55.5 267.5t25.5 270.5q10 -74 33 -144.5t52.5 -140t63 -138t64.5 -137.5z" />
    <glyph glyph-name="N" unicode="N" horiz-adv-x="860" 
d="M715 662q1 -2 1.5 -4t1.5 -4l44 -43q67 -149 67 -304q0 -73 -16.5 -145.5t-51.5 -143.5q-35 -16 -70 -28.5t-73 -17.5l-48 47h-4q-37 67 -80.5 126t-88.5 119q-2 3 -5 6.5t-5 6.5t-5 6.5t-5 6.5q-20 25 -39.5 50t-37.5 50v-1q-1 -14 -1 -27v-27q0 -177 36 -360
q-38 9 -72 21t-68 28l-44 44q-6 2 -8 4q-32 72 -48 144t-16 144q0 154 70 309q86 40 186 52l9 -15l39 -38q35 -53 73 -105.5t76 -103.5l38 -52t39 -53v9q0 83 -9.5 170t-27.5 178q42 -9 75 -20t63 -24zM706 658q-29 13 -59 23t-62 17q17 -88 26 -174.5t8 -174.5
q-2 -13 0 -24.5t4 -24.5q-69 105 -147 205t-147 205q-93 -12 -173 -48q-64 -141 -67 -291.5t61 -291.5q30 -14 61 -25t65 -19q-39 200 -33 404q0 8 0.5 15.5t0.5 15.5q-1 5 -0.5 11t0.5 12q37 -60 80 -117t86.5 -113.5t85 -114t75.5 -118.5q36 5 69.5 17t65.5 26
q34 70 50 143.5t15.5 148t-17.5 148.5t-48 145z" />
    <glyph glyph-name="O" unicode="O" horiz-adv-x="850" 
d="M312 305q0 -33 7 -69.5t25 -68.5q17 -11 38.5 -17t47.5 -6q48 1 78.5 21.5t48 51t24 66.5t6.5 69v24q0 36 -8 77t-31 74q-26 14 -70 17q-49 -1 -81 -22.5t-51 -53.5t-26.5 -69.5t-7.5 -71.5v-22zM199 86q-22 17 -43 39q-24 25 -46 52.5t-38.5 57.5t-26 62t-9.5 66v7
q0 71 35.5 132.5t90.5 114.5q24 24 53 45.5t62 38t69.5 26t75.5 9.5h8q41 0 79 -10.5t71.5 -28t62.5 -41.5t53 -51q7 -8 13 -14.5t12 -14.5l4 -3q5 -5 9.5 -10t9.5 -10q24 -26 45 -53.5t36.5 -57t25 -61.5t9.5 -65v-7q0 -66 -34 -126t-84 -110q-24 -23 -52.5 -45t-61 -39
t-68.5 -27t-75 -10h-13q-40 0 -77 10t-70.5 27.5t-62.5 40t-54 47.5zM428 601q53 -2 86.5 -26t52.5 -59t25 -76t5 -76q1 -35 -5 -74.5t-24.5 -74t-51.5 -57.5t-86 -24q-53 0 -87.5 23t-54.5 58t-27 75.5t-6 75.5q-1 35 6 75.5t26.5 75.5t53.5 59t87 25zM422 9
q40 -2 77.5 7.5t71 26t62.5 39t54 46.5q51 51 84.5 111t31.5 127q0 33 -9 63.5t-24.5 60t-36.5 56.5t-44 52q-23 26 -51.5 49.5t-61 41t-69.5 27.5t-77 10q-40 1 -76.5 -8t-69.5 -25t-62 -37.5t-53 -45.5q-54 -51 -88.5 -111t-34.5 -129q-2 -69 33 -128t84 -110
q24 -24 53 -46.5t61.5 -39.5t69 -27t75.5 -10z" />
    <glyph glyph-name="P" unicode="P" horiz-adv-x="803" 
d="M352 535q-3 -30 -4.5 -59.5t-2.5 -58.5h46q9 0 18 0.5t18 0.5h13q21 0 42.5 4.5t39.5 13.5t29 22.5t11 31.5q0 4 -1 8q0 14 -6 28q-31 14 -66 14h-12q-31 0 -62 -1.5t-63 -3.5zM148 68q-2 1 -3.5 2t-3.5 2q-32 72 -48 144.5t-16 144.5q0 155 71 308q67 32 141.5 44.5
t148.5 12.5q44 -2 83.5 -9.5t76.5 -27.5q32 -16 57 -38.5t49 -45.5q9 -9 17 -18t16 -19l15 -15q25 -25 44 -53t24 -62q1 -6 1.5 -12t0.5 -13q0 -43 -23 -82t-64 -65q-21 -13 -43 -24.5t-48 -18.5q-35 -5 -72 -6.5t-74 -1.5h-77h-35q-17 0 -35 1q3 -62 8.5 -122.5
t14.5 -123.5q-98 15 -181 54zM287 407q1 48 2.5 92.5t6.5 92.5q34 2 66.5 3.5t64.5 1.5q26 2 51.5 -4.5t46 -19t33.5 -31t13 -41.5q4 -24 -8.5 -42.5t-34.5 -30.5t-49 -17t-52 -3q-35 0 -70.5 -0.5t-69.5 -0.5zM294 274q20 -1 39 -1.5t38 -0.5h77q35 0 71.5 1.5t71.5 6.5
q26 7 48 18t42 24q45 29 67.5 74t14.5 91q-5 32 -23.5 59.5t-42.5 51.5q-23 23 -47.5 45t-55.5 37q-35 20 -74.5 27t-81.5 9q-73 0 -146 -12t-137 -42q-66 -141 -68 -291.5t61 -291.5q79 -38 168 -51q-8 61 -13.5 122t-8.5 124z" />
    <glyph glyph-name="Q" unicode="Q" horiz-adv-x="857" 
d="M312 295q0 -32 6 -68t22 -67q34 -23 84 -23h11q46 0 76.5 20t48 50.5t24.5 66.5t7 68v19q0 37 -8.5 81t-32.5 79q-28 17 -72 19q-50 -1 -82 -24t-50.5 -56.5t-25.5 -72.5t-7 -72q0 -5 -0.5 -10t-0.5 -10zM865 282q0 -69 -33 -130t-88 -110q1 1 6 3l10 5l4 -3
q0 -1 -0.5 -1.5t-0.5 -1.5l48 -47q-9 -32 -18 -60.5t-19 -53.5l-3 -4q-13 -10 -28.5 -17t-33.5 -13l-1 1q-29 -13 -60 -13q-20 0 -37 5.5t-31 17.5l-37 37q-8 4 -15 11q-16 19 -24 37q-8 -1 -17 -1h-19q-82 0 -152 34t-121 85l-14 13q-20 16 -38 35q-48 48 -76.5 103.5
t-28.5 116.5q0 8 0.5 15t1.5 14q4 68 38 128.5t84 114.5q23 25 51 48.5t60.5 41.5t69 28.5t77.5 10.5h8q42 0 80 -11t72 -29t62.5 -42t51.5 -51q5 -5 9.5 -10.5t9.5 -11.5l8 -7q6 -6 11 -11.5t10 -11.5q49 -52 83 -113.5t39 -128.5q1 -5 1 -12v-11zM428 597q53 -1 87 -25
t53 -59.5t26 -76.5t7 -75q2 -35 -4 -76.5t-25.5 -77t-54 -59t-89.5 -21.5q-56 -1 -90.5 23t-53 60t-24.5 78t-4 77q0 34 7.5 74.5t26.5 75t52.5 58t85.5 24.5zM717 -65q19 51 33 99q-17 -6 -34 -11.5t-35 -9.5q-11 -5 -23.5 -4t-22 6t-14.5 13.5t-1 19.5q44 26 80 60
t61.5 73.5t37.5 83.5t8 89q-5 66 -38.5 126.5t-81.5 111.5q-22 26 -50 49.5t-61 41.5t-70.5 28.5t-77.5 10.5q-41 1 -78 -9t-69.5 -27.5t-60.5 -41t-51 -48.5q-48 -52 -81.5 -111.5t-37.5 -125.5q-8 -66 20.5 -128t79.5 -113t119 -84t149 -33q22 0 41.5 1t39.5 3
q3 -22 10 -46t26 -44q12 -11 27 -15.5t31.5 -5.5t33 2.5t30.5 9.5q17 6 32.5 13t27.5 16z" />
    <glyph glyph-name="R" unicode="R" horiz-adv-x="875" 
d="M358 537q-3 -28 -5.5 -55t-4.5 -55h40q9 0 18 0.5t18 0.5h9q17 0 36.5 0.5t37.5 4t33 10.5t24 20q7 9 13 19.5t6 21.5v5q-2 6 -3.5 12t-4.5 12l-9 3h-1q-20 5 -42 5.5t-42 0.5h-10q-29 0 -57 -1.5t-56 -3.5zM156 68q-2 1 -3.5 2t-3.5 2q-35 72 -52.5 145t-17.5 145
q0 78 19 155t56 152q70 31 144.5 44t149.5 13h28q81 0 147.5 -34.5t112.5 -87.5q3 -4 5.5 -7t5.5 -7l21 -20q5 -5 8.5 -9t7.5 -9q21 -24 39 -50t24 -56q2 -7 3 -13.5t1 -14.5q0 -25 -11 -48t-29.5 -42.5t-42.5 -34.5t-51 -25q5 -9 8.5 -18.5t8.5 -17.5q24 -49 44 -99.5
t20 -103.5v-10q-45 -22 -91.5 -34t-97.5 -19l-48 47h-4q-17 60 -41 112.5t-50 105.5q-30 0 -59.5 0.5t-59.5 1.5q3 -64 10 -129t18 -132q-48 7 -91 20.5t-83 31.5zM302 594q29 2 59 3.5t60 1.5q23 0 48.5 -0.5t48.5 -5.5q32 -8 51.5 -32t23.5 -51q2 -14 -5 -27.5t-16 -25.5
q-11 -16 -28.5 -24t-38 -11.5t-42.5 -3.5h-39q-35 0 -68 -0.5t-67 -0.5q1 45 4.5 88.5t8.5 88.5zM290 291q78 -3 158 -3q33 -66 65.5 -130t50.5 -134q48 6 91.5 17.5t85.5 31.5q1 33 -6.5 64.5t-20.5 62.5t-28 61.5t-29 60.5q30 10 57.5 27.5t47 40t28 49t0.5 55.5
q-5 29 -23 54.5t-38 48.5q-45 51 -110 85t-143 34q-81 2 -162 -10t-153 -44q-69 -141 -72 -291.5t67 -291.5q38 -17 78.5 -30t82.5 -19q-10 66 -17 130.5t-10 130.5z" />
    <glyph glyph-name="S" unicode="S" horiz-adv-x="773" 
d="M268 511q1 -1 1.5 -2t2.5 -2zM108 352q-2 1 -2.5 2t-2.5 2q-29 21 -46 51.5t-17 65.5q0 17 3 29q8 43 35 80t65 69q44 37 98.5 61t113.5 24h10q49 0 93 -12.5t82.5 -34t70.5 -50.5t58 -61l9 -9q34 -34 60 -74l-5 -11q-39 -3 -77.5 -8.5t-79.5 -14.5l-47 47q-2 -1 -5 -1
q-2 5 -5 10l-6 10q-38 22 -81 22h-20q-17 0 -34.5 -3t-32.5 -9.5t-25.5 -16.5t-12.5 -25q21 -6 44 -9q4 -1 8 -1.5t8 -1.5t7 -1.5t8 -1.5q53 -9 104.5 -20t101.5 -32q66 -26 104 -73l9 -12l23 -22q5 -5 9 -9.5t8 -9.5l-1 1q17 -18 26.5 -39t9.5 -44q0 -5 -0.5 -9.5
t-1.5 -9.5q-9 -49 -42 -87.5t-74 -71.5h1q-48 -40 -108.5 -65t-126.5 -25h-14q-84 2 -155 37.5t-125 89.5l-17 16q-36 30 -65 64.5t-51 72.5h34q35 0 68.5 2.5t66.5 5.5q7 0 12 1q7 0 16 3q1 -3 2 -5.5t2 -5.5l44 -43l6 -15q24 -17 53 -25.5t59 -8.5h14q20 0 42.5 3.5t42 11
t34 20t17.5 30.5q-13 4 -26 6.5t-27 5.5q-13 2 -27.5 4t-19.5 5q-67 11 -133.5 29t-121.5 53q-11 7 -20 17zM682 541q-24 36 -56.5 69.5t-72.5 59t-87 41t-101 15.5q-60 2 -113.5 -20t-95.5 -57q-38 -31 -66.5 -68.5t-36.5 -82.5q-8 -37 7 -72.5t49 -60.5q55 -35 121 -52.5
t132 -28.5q21 -6 47.5 -9.5t50.5 -10.5t41 -20t19 -37q-3 -21 -18 -35.5t-36 -23.5t-45.5 -13t-46.5 -4q-30 -2 -59.5 4.5t-55 19.5t-44.5 32.5t-28 44.5q-42 -4 -84.5 -7.5t-87.5 -2.5q24 -41 59 -79t79 -67.5t96 -47.5t111 -19q69 -3 132.5 21.5t111.5 66.5
q39 32 71.5 69.5t41.5 85.5q5 26 -4 50.5t-28 45.5q-18 23 -43.5 41.5t-57.5 29.5q-48 20 -99.5 31t-103.5 20q-29 7 -58 11.5t-55 19.5q-24 18 -18 41q0 19 12.5 32t31 20.5t40 10t40.5 1.5q51 2 94.5 -22.5t61.5 -64.5q74 16 152 22z" />
    <glyph glyph-name="T" unicode="T" horiz-adv-x="651" 
d="M597 662q1 -2 1.5 -4t1.5 -4l44 -43q14 -32 24 -61.5t19 -58.5q-107 24 -199 34q4 -59 6 -116t2 -115q0 -80 -5 -161t-17 -166q-26 -4 -48 -5t-42 -1q-25 0 -51.5 1.5t-55.5 6.5l-46 45q-2 1 -4 1q-1 0 -3 1q-9 90 -14 176.5t-5 170.5q0 37 1 76t3 81q-34 -5 -69 -11
t-72 -14l-48 47q-2 0 -3 -0.5t-3 -0.5q9 35 16 57t15 42l3 9q1 2 1.5 4t2.5 5q1 2 2 5.5t2 5.5q62 29 128 43t135 14q72 0 141 -15t132 -44zM588 658q-60 28 -126.5 42.5t-135 15.5t-135.5 -12.5t-127 -41.5q-10 -26 -19.5 -52.5t-16.5 -54.5q48 12 96.5 18.5t99.5 10.5
q-12 -141 -8.5 -279.5t17.5 -279.5q96 -14 185 -2q20 141 21 280t-8 280q51 -5 98.5 -13t96.5 -19q-8 27 -17.5 54t-20.5 53z" />
    <glyph glyph-name="U" unicode="U" horiz-adv-x="864" 
d="M727 658q2 -6 4 -8l43 -43q70 -145 70 -298q0 -19 -1 -37.5t-3 -36.5q-2 -37 -16 -73t-38 -66q-22 -30 -51 -54t-64 -44q-38 -23 -82 -35t-90 -12h-22q-78 0 -146 32t-118 82l-17 17q-33 26 -61 60q-55 67 -61 146q-2 18 -3 36t-1 37q0 77 18.5 153t52.5 152
q45 20 92.5 32.5t97.5 20.5q-1 -2 -1 -6l48 -48q-24 -182 -24 -354v-43q0 -21 1 -42q0 -17 1.5 -33.5t7.5 -32.5q1 0 1.5 -0.5t2.5 -0.5q41 -16 86 -16q19 0 39.5 2.5t39 9t33.5 17t23 25.5q16 38 16 79q3 48 3 94q0 167 -37 343q42 -9 80 -21t71 -29zM718 654
q-32 16 -65.5 27t-68.5 19q43 -209 31 -424q0 -21 -4 -42t-13 -41q-9 -17 -25 -28.5t-36 -18.5t-41.5 -10t-41.5 -3q-45 0 -90 17q-21 9 -34 23t-20 31t-9.5 35.5t-2.5 36.5q-4 109 2 215.5t20 215.5q-45 -7 -87.5 -18.5t-84.5 -29.5q-40 -90 -57.5 -182t-6.5 -188
q6 -77 58 -141q25 -30 57 -56t69.5 -45t79.5 -29.5t87 -9.5q48 -2 95 10.5t87 35.5q34 20 63 43.5t50 52.5q48 62 53 136q11 94 -6 187t-59 181z" />
    <glyph glyph-name="V" unicode="V" horiz-adv-x="740" 
d="M684 660v-3l43 -42l4 -6q1 -8 1 -17v-17q0 -66 -14 -130.5t-36.5 -127.5t-52 -125t-59.5 -123q-12 -25 -25 -52t-25 -52q-23 -2 -46 -3.5t-47 -1.5q-29 0 -57 2t-56 5l-47 46q-2 0 -2.5 0.5t-2.5 0.5q-11 25 -23.5 51.5t-24.5 51.5q-3 5 -5.5 11t-4.5 11
q-28 58 -54.5 116.5t-47.5 118t-34 120.5t-13 124q0 11 0.5 25t1.5 25q43 19 88.5 30t96.5 19q0 -2 0.5 -4t0.5 -4l46 -45q20 -103 50 -198.5t64 -190.5q42 109 79 216t54 217q45 -8 78 -18t64 -22zM674 658q-32 13 -63.5 23t-66.5 16q-10 -63 -26.5 -124.5t-37.5 -122
t-44 -121t-47 -120.5q-45 124 -88 246.5t-68 250.5q-45 -6 -86 -16.5t-80 -27.5q-7 -84 10.5 -165t48.5 -160.5t69.5 -157.5t72.5 -155q51 -6 99 -6.5t99 4.5q36 77 75 154.5t70 156t49.5 160t13.5 165.5z" />
    <glyph glyph-name="W" unicode="W" horiz-adv-x="1162" 
d="M1051 662q1 -2 1 -4q0 -1 1 -3l45 -44q17 -39 24 -77.5t7 -76.5q0 -63 -17 -125.5t-45.5 -123t-65 -118t-75.5 -110.5q-39 -6 -82.5 -10t-93.5 -6l-47 47h-6q-8 90 -32.5 173.5t-51.5 167.5h-1v1q-30 -96 -57 -192t-45 -196q-45 3 -89 7t-88 13l-46 46q-4 0 -5 1
q-37 54 -73 112.5t-64.5 119.5t-46.5 123.5t-18 124.5q0 38 7.5 77.5t26.5 81.5q38 11 76.5 18.5t76.5 14.5l20 4q-1 -2 -1 -6l48 -48q-3 -24 -4 -46t-1 -43q0 -60 8.5 -119t23.5 -118q21 79 47 152t55 145h1q4 11 8.5 23.5t9.5 24.5q5 13 10 26.5t10 25.5q19 1 41 1.5
t40 0.5q25 0 52 -0.5t52 -2.5q2 -6 4 -9l44 -44q38 -87 73 -171t63 -170q20 64 33.5 127.5t13.5 127.5q0 46 -12 114q39 -6 73 -14.5l66 -16.5zM1042 658q-31 8 -61.5 15.5t-61.5 12.5q9 -50 9 -101q0 -76 -17 -150.5t-43 -148.5q-2 -11 -7.5 -22.5t-10.5 -21.5
q-25 123 -71.5 239t-97.5 233q-42 2 -84.5 2.5t-87.5 -1.5q-22 -59 -44.5 -117t-43.5 -117t-39.5 -118.5t-31.5 -120.5q-5 11 -9.5 21.5t-9.5 22.5q-33 100 -49.5 203t-5.5 206q-39 -7 -78 -14.5t-77 -18.5q-35 -81 -31 -162t32.5 -160t73 -154.5t91.5 -144.5
q42 -8 83.5 -12t83.5 -7q22 118 56 233t71 232q17 -58 36.5 -115.5t37 -115.5t31.5 -116.5t20 -118.5q42 2 83 6t83 10q49 68 94.5 143.5t73.5 154.5t32 160.5t-30 162.5z" />
    <glyph glyph-name="X" unicode="X" horiz-adv-x="799" 
d="M703 665l45 -44l4 -9q-28 -71 -71.5 -137t-91.5 -132q15 -23 31 -46t33 -46q39 -54 73 -110.5t50 -122.5q-48 -18 -97 -31t-101 -20l-48 47h-4q-23 48 -50 92t-59 86q-39 -54 -74.5 -107.5t-63.5 -108.5q-41 8 -81.5 20t-82.5 30l-43 43q-6 1 -11 5q22 60 54.5 110
t66.5 99q3 5 6 8.5t6 8.5q14 20 30.5 44t30.5 47q-4 5 -8 10.5t-6 9.5l-18 27q-39 56 -75.5 113.5t-59.5 126.5q48 17 101 27t107 16l6 -12l42 -41q17 -32 38 -65t44 -66q30 44 59.5 88t58.5 94q1 -1 4 -2t5 -2l6 -2q34 -8 68.5 -16t72.5 -24zM695 665q-35 14 -72 23t-75 17
q-29 -51 -61 -97.5t-66 -94.5q-35 48 -68 97t-62 101q-48 -5 -96 -14.5t-94 -25.5q13 -38 32 -73.5t41.5 -70t46.5 -68.5t47 -68q-25 -39 -52 -77t-53.5 -76t-49.5 -77.5t-39 -81.5q35 -15 73.5 -26t78.5 -19q31 60 69 116.5t80 113.5q45 -58 86.5 -116.5t70.5 -122.5
q48 6 94 18.5t91 29.5q-10 44 -31.5 84.5t-47.5 80t-54.5 78t-52.5 78.5q48 66 92 132.5t72 138.5z" />
    <glyph glyph-name="Y" unicode="Y" horiz-adv-x="693" 
d="M663 658l44 -44l4 -8q-21 -74 -60 -140t-84 -132q-14 -20 -27 -40t-25 -40q0 -4 -0.5 -8t-0.5 -8q-2 -67 -5.5 -134t-14.5 -140q-24 -2 -49.5 -2.5t-48.5 -0.5q-22 0 -46 1t-52 5l-46 46q-5 0 -7 1q-9 77 -12.5 148t-4.5 143q-6 8 -10 14l-12 18q-54 79 -103 159.5
t-76 171.5q94 37 201 51q2 -3 2.5 -5.5t2.5 -5.5l43 -42q24 -47 50.5 -91.5t54.5 -87.5q2 2 3.5 4t4.5 5h-1q4 6 7.5 12.5t7.5 12.5q29 47 57 93.5t51 97.5q37 -9 73.5 -19.5t74.5 -26.5zM654 658q-33 14 -67.5 24t-69.5 18q-28 -63 -65 -122t-75 -119q-42 61 -81.5 123
t-73.5 126q-48 -5 -93.5 -17t-88.5 -29q14 -47 36 -92.5t48.5 -89t55.5 -86.5l58 -86q1 -72 4.5 -142.5t11.5 -142.5q48 -5 92 -4.5t92 2.5q11 72 14.5 143t5.5 143q27 43 56 85.5t55.5 85.5t48.5 87.5t36 92.5z" />
    <glyph glyph-name="Z" unicode="Z" horiz-adv-x="770" 
d="M72 553q-2 0 -3 -0.5t-3 -0.5q9 33 19.5 64.5t24.5 62.5q63 25 132 37t138 12q75 0 148.5 -15t142.5 -44q0 -2 0.5 -3.5t0.5 -3.5l46 -45q2 -5 4.5 -11.5t4.5 -11.5q8 -20 15 -39t12 -35l-2 -7q-87 -92 -173 -181t-179 -177h3q80 0 161 8t167 30q-2 -6 -2 -7l47 -47
q-10 -31 -22 -61.5t-29 -59.5q-66 -29 -139 -43.5t-148 -14.5q-79 0 -156 16t-147 48l-45 44q-2 1 -3.5 2t-3.5 2q-13 23 -19.5 40.5t-11.5 34.5q-1 2 -2 5l-2 6l-2 5.5t-3 7.5q26 26 54 54.5t54 55.5q13 13 25 25.5t25 25.5q50 51 99.5 102t101.5 102q-70 -2 -140 -9.5
t-142 -20.5zM697 568q-6 23 -15.5 47t-18.5 47q-63 27 -132.5 41t-140 14.5t-140.5 -11t-133 -35.5q-11 -26 -20.5 -52.5t-16.5 -53.5q97 19 195.5 25t198.5 1q-109 -103 -211 -209.5t-208 -212.5q8 -23 16 -45.5t19 -44.5q66 -30 140 -45.5t149.5 -16.5t150 13t140.5 43
q15 26 26 52.5t19 53.5q-106 -27 -215.5 -31.5t-220.5 0.5q112 103 214 207t204 213z" />
    <glyph glyph-name="bracketleft" unicode="[" horiz-adv-x="389" 
d="M342 -40q-1 -1 -1 -2t-1 -2l48 -48q-2 -8 -2.5 -14t-1.5 -11l-2 -14t-2 -13q-17 -28 -46.5 -50t-80.5 -22h-9q-23 4 -39.5 14t-30.5 24l-27 27q-20 13 -34 30t-26 34q-14 89 -20 178t-6 181q0 95 6.5 188.5t19.5 187.5q10 12 22.5 25t28 23.5t35.5 17.5t46 7h10
q34 -7 57 -28t41 -44l23 -22q8 -8 15.5 -17.5t14.5 -18.5q1 -25 6 -48q0 -1 0.5 -12t0.5 -12l-38 38q-6 4 -8 6q0 -3 1 -4q-6 6 -9 10q-13 9 -26.5 15.5t-27.5 8.5q3 -173 3 -341q0 -81 -0.5 -161.5t-1.5 -160.5q14 8 24.5 17.5t20.5 20.5zM331 -40q-19 -23 -46.5 -40
t-62.5 -19q2 189 2.5 374.5t-2.5 375.5q35 -3 61.5 -21.5t46.5 -41.5q-2 13 -4 25t-3 25q-17 23 -40 44.5t-56 28.5q-26 1 -46 -5t-35.5 -15.5t-27 -21.5t-21.5 -24q-25 -184 -26 -365t26 -363q17 -24 39.5 -47t58.5 -29q25 -1 45.5 4.5t36 15t27 22t19.5 26.5q2 13 4 25.5
t4 25.5z" />
    <glyph glyph-name="backslash" unicode="\" 
d="M626 -141l-8 4q-50 88 -111.5 175.5t-126.5 175.5q-77 104 -150 209.5t-133 225.5q36 17 60.5 26t44.5 17q2 1 4 1.5t4 1.5l9 -15l39 -39q55 -91 114.5 -174.5t120.5 -167.5q77 -106 151.5 -214t139.5 -229q-29 -15 -54.5 -26t-51.5 -19l-8 4zM626 -132q53 17 99 41
q-53 100 -118.5 196.5t-134.5 191.5t-138 190.5t-129 194.5q-25 -8 -48 -17t-47 -20q52 -103 117.5 -199.5t135 -191.5t138 -190.5t125.5 -195.5z" />
    <glyph glyph-name="bracketright" unicode="]" horiz-adv-x="389" 
d="M116 -150q-19 13 -33 29.5t-26 33.5v5q-2 12 -4 27t-2 52q21 -28 49 -51.5t60 -31.5q-1 90 -1.5 181.5t-0.5 181.5v300q-13 -8 -23.5 -17t-18.5 -19l-12 7l-41 40l-13 8q4 15 4 24q0 15 3 27q10 13 23 26t29.5 23.5t36 17.5t43.5 7h9q32 -6 55 -26t42 -43l24 -24
q8 -8 14.5 -17t13.5 -18l1 -1q1 0 2 -1q13 -94 19.5 -188t6.5 -190q0 -91 -6 -179.5t-20 -177.5q-19 -28 -49 -50t-80 -22h-9q-21 4 -37 13.5t-30 23.5zM61 596q19 22 46 38.5t62 18.5q-1 -95 -1 -189v-187t0.5 -187.5t1.5 -187.5q-35 3 -63 22t-46 43q0 -13 2 -25t4 -25
q17 -24 39.5 -47t56.5 -29q25 -1 45 4.5t36 15t28 22t21 26.5q28 183 26.5 364t-26.5 365q-18 23 -40.5 44.5t-56.5 28.5q-25 1 -44.5 -5t-35 -15.5t-27.5 -21.5t-22 -24q-3 -12 -3 -25q0 -12 -3 -24z" />
    <glyph glyph-name="asciicircum" unicode="^" horiz-adv-x="665" 
d="M63 395q-2 1 -4 1.5t-4 1.5q-2 9 -2 15v12q0 35 11.5 67.5t29.5 64t40.5 61t45.5 58.5q10 12 20 25.5t19 26.5q2 2 3.5 4.5t3.5 4.5q24 2 49.5 3t48.5 1q59 0 116 -6q4 -6 10 -14l39 -39q11 -16 24 -33t25 -34l2 -1h-1q21 -27 42 -54.5t37.5 -56.5t26.5 -59t10 -62
q0 -7 -0.5 -15.5t-2.5 -19.5q-37 -9 -74.5 -15t-82.5 -8l-47 47h-6q-11 48 -30.5 88t-42.5 78q-5 -8 -9 -15.5t-8 -15.5q-24 -43 -46.5 -85.5t-38.5 -90.5l-8 -5q-38 4 -76 9.5t-75 16.5zM210 382q20 63 55 122t67 119q16 -30 34 -59t34.5 -59t30 -60.5t20.5 -63.5
q38 2 73.5 8t71.5 14q8 45 -6.5 87t-40 82t-57 78t-57.5 75q-54 5 -103 5.5t-101 -3.5q-27 -37 -58 -74.5t-56.5 -77t-41 -81.5t-11.5 -87q35 -10 72 -15.5t74 -9.5z" />
    <glyph glyph-name="underscore" unicode="_" horiz-adv-x="665" 
d="M64 -51q67 5 134.5 7.5t134.5 2.5t134.5 -2.5t135.5 -7.5q17 -8 34.5 -18.5t30.5 -31.5l34 -34q13 -13 20 -31q-5 -23 -24.5 -34t-40.5 -19l-1 1q-2 -1 -3.5 -1.5t-3.5 -1.5q-65 -5 -129 -8t-130 -3q-69 0 -139 3t-140 8q-2 1 -3.5 1.5t-3.5 1.5q-11 5 -22.5 10.5
t-20.5 14.5l-36 36q-11 7 -20.5 17.5t-15.5 30.5q10 22 28.5 33.5t39.5 21.5h1q2 2 4 3h2zM65 -61q-19 -9 -38 -19t-27 -29q8 -26 25.5 -36.5t36.5 -18.5q135 -10 268 -10.5t268 10.5q21 8 41 18t25 30q-9 24 -27 35.5t-36 19.5q-269 21 -536 0z" />
    <glyph glyph-name="grave" unicode="`" horiz-adv-x="665" 
d="M222 812q63 -26 131 -58t129 -61q-1 -1 -1.5 -2t-1.5 -2l48 -47q-14 -17 -28 -33t-33 -31q-70 21 -138 43.5t-135 48.5l-46 45q-2 1 -4.5 2t-4.5 2q14 23 31.5 43.5t35.5 40.5l3 3q1 1 2 2.5t2 2.5zM218 803q-17 -19 -34.5 -38.5t-29.5 -40.5q64 -25 129 -46.5t132 -41.5
q15 12 27.5 25.5t23.5 28.5q-61 29 -123 58t-125 55z" />
    <glyph glyph-name="a" unicode="a" horiz-adv-x="722" 
d="M396 390q-32 0 -59.5 -14.5t-39.5 -39.5q35 5 71.5 7.5t73.5 4.5v25q0 4 -2 12q-15 5 -30 5h-14zM298 107q10 -3 24 -3h12q21 0 39.5 7.5t33 20t23.5 29t12 33.5q-25 -3 -49.5 -9t-44.5 -16t-33.5 -25t-16.5 -36v-1zM62 363h-8q19 46 49 80t66 56q44 21 89.5 35.5
t92.5 14.5h13q57 -1 108 -19.5t93 -49.5l8 -8q6 -6 9 -8l3 -3q8 -8 16.5 -16t14.5 -18l29 -29q5 -5 10 -11t9 -13q12 -21 20.5 -42.5t10.5 -42.5q2 -17 3.5 -33.5t1.5 -33.5q0 -38 -5.5 -74.5t-16.5 -71.5q-7 -26 -13 -42h-1q-3 -8 -5.5 -16.5t-4.5 -16.5l-4 -4
q-73 -30 -156 -37l-33 33q-26 -19 -57 -31.5t-66 -12.5q-17 0 -33 3q-46 8 -87 28.5t-72 51.5l-22 22q-29 21 -50.5 48.5t-31.5 58.5q-3 10 -3 23q0 22 12 42t30.5 36.5t42 29t46.5 20.5l12 3q-20 1 -38 1h-35zM455 258q0 -12 -0.5 -24t-0.5 -25q0 -21 -9.5 -42t-26 -37.5
t-39.5 -26.5t-50 -9q-36 -2 -61 17t-27 48q4 31 27 49t54.5 28t67 14.5t65.5 7.5zM597 53q5 19 12 37t12 38q15 51 20 103.5t-3 106.5q-2 21 -10.5 42t-19.5 41q-9 15 -22.5 26.5t-26.5 24.5q-40 30 -90 48t-105 19q-48 2 -93 -11t-87 -33q-39 -23 -69.5 -54t-45.5 -68
q42 0 82.5 -1t82.5 -3q2 18 13 33t27.5 25.5t37 15.5t42.5 4q41 2 70.5 -20.5t27.5 -57.5v-15q0 -5 2 -15q-72 -4 -142 -10.5t-139 -26.5q-24 -8 -49 -21.5t-43 -31t-27 -39.5t-2 -46q10 -29 30 -54.5t47 -46t59.5 -34.5t67.5 -20q31 -6 59.5 -1t54 17.5t47 30t38.5 36.5
q-4 -19 -3.5 -37t-0.5 -37q78 7 146 35z" />
    <glyph glyph-name="b" unicode="b" horiz-adv-x="724" 
d="M328 167q0 -23 8 -42q18 -8 37 -8h3q20 0 39 10t33 24q17 23 22 50.5t7 56.5v6q0 2 0.5 3.5t0.5 3.5v37q0 20 -2.5 39.5t-10.5 37.5q-19 7 -36 7h-7q-27 0 -45.5 -11t-30 -28t-16.5 -37.5t-5 -39.5v-8q0 -50 3 -101zM298 707q0 -1 -0.5 -2t-0.5 -2l48 -47
q-4 -29 -6.5 -57.5t-4.5 -57.5q21 10 44 15.5t47 5.5q2 0 3.5 -0.5t3.5 -0.5h7q65 -4 115.5 -33t82.5 -74l23 -22q37 -37 56.5 -83t19.5 -94v-12q0 -6 -1 -11q-6 -44 -27 -90.5t-55.5 -86.5t-81.5 -68t-106 -35h-10q-23 0 -47 4.5t-44 15.5q-14 7 -24 14.5t-18 15.5l-31 30
q-6 4 -9 7q-7 -10 -9.5 -20.5t-4.5 -21.5q-1 -2 -1.5 -6.5t-1.5 -6.5q-22 8 -45 18.5t-45 21.5l-43 42q-2 2 -5 3t-5 3q-26 69 -39 141.5t-13 145.5q0 159 57 306q39 20 78.5 33.5t82.5 18.5zM271 217q-3 51 -3 101q-1 20 4 43.5t17.5 43.5t34 32.5t52.5 11.5q24 1 45 -8
t36 -23q20 -24 25.5 -52.5t5.5 -57.5v-37q-3 -33 -8 -67t-28 -63q-14 -15 -35 -25t-44 -9q-25 0 -44 10.5t-32 26.5t-19.5 35.5t-6.5 37.5zM288 707q-42 -5 -79 -17.5t-72 -30.5q-55 -142 -57.5 -290t51.5 -291q19 -10 39 -19t40 -16q4 16 8.5 32.5t18.5 29.5q18 -21 35 -42
t45 -35q22 -12 47 -16t50 -3q58 7 104 34.5t79.5 66t54 84t26.5 89.5q5 45 -9.5 91t-46 84.5t-78 64t-105.5 28.5q-51 4 -98 -17.5t-72 -59.5q4 60 8 116.5t11 116.5z" />
    <glyph glyph-name="c" unicode="c" horiz-adv-x="681" 
d="M636 392l4 -4zM662 209l-1 -1l41 -40l7 -9q-14 -42 -43.5 -79.5t-69.5 -66.5t-89 -47t-102 -20q-63 0 -116.5 26.5t-97.5 61.5v-1q-17 13 -31 28l-16 16q-49 38 -80.5 87.5t-31.5 104.5v2q0 54 29.5 101t74.5 85h-1q47 40 103 66t121 26h10q53 0 98 -22t86 -51
q20 -17 39.5 -35.5t34.5 -39.5l17 -16q23 -23 40.5 -49.5t25.5 -59.5q-35 2 -73.5 3t-73.5 1h-38l-47 47h-6q-2 24 -12 43q-7 2 -15 4t-16 2h-10q-32 0 -53 -13.5t-34 -34t-18 -45t-5 -46.5v-9q0 -22 0.5 -45t8.5 -43q11 -5 25 -7.5t28 -2.5h5q19 0 35.5 8t29.5 20.5t21 29
t11 33.5q21 -1 47 -1h47h43t43 1zM652 211q-84 -2 -170 0q-3 -17 -12 -34t-23.5 -30t-33.5 -20.5t-42 -6.5q-24 0 -46 7t-37 20q-27 27 -31.5 62t-4.5 69q-1 24 4 51.5t19 51t38 38.5t61 14q24 1 43.5 -7t33.5 -22t22 -31.5t9 -35.5q45 1 85.5 -0.5t83.5 -3.5
q-9 42 -39 74.5t-65 61.5q-38 28 -82 49t-96 21q-66 2 -121 -22t-100 -62q-45 -37 -75.5 -83.5t-30.5 -100.5q-1 -54 28.5 -100.5t74.5 -81.5q43 -35 95.5 -60.5t114.5 -25.5q52 2 100 19.5t87 46t67.5 65t42.5 77.5z" />
    <glyph glyph-name="d" unicode="d" horiz-adv-x="718" 
d="M447 324q0 15 -2.5 31t-9.5 30q-6 2 -12.5 3t-13.5 1q-35 -1 -57 -17t-34 -39.5t-16.5 -51.5t-4.5 -52v-17q0 -20 2.5 -42t10.5 -42q16 -9 40 -9q22 0 39.5 9t29 22.5t18 30.5t7.5 34v24q0 13 1 25t1.5 24t0.5 25v11zM590 656q0 -2 1 -3l43 -43l3 -4q28 -73 42.5 -149
t14.5 -153q0 -72 -14 -144.5t-43 -144.5q-35 -19 -73 -31.5t-82 -18.5l-27 27q-22 -17 -47.5 -28.5t-54.5 -11.5q-6 0 -11 0.5t-10 1.5q-44 9 -79.5 29.5t-64.5 49.5l-19 18q-57 43 -90 105t-41 123v-1q-2 8 -2 15v17q0 45 18 89.5t51 80t79.5 58.5t103.5 24h11q39 0 77 -13
t66 -39q-2 45 -5.5 90.5t-8.5 90.5q0 2 -0.5 5t-0.5 7v16q45 -10 85.5 -22.5t72.5 -32.5zM457 313q0 -25 -1.5 -49t-1.5 -49q-1 -18 -8.5 -37t-20.5 -34t-32 -25t-43 -10q-35 1 -56.5 16.5t-33.5 38.5t-16 49t-4 49q-1 25 2 57t15.5 59.5t36.5 47t65 20.5q31 0 50.5 -13
t30.5 -33t14.5 -43.5t2.5 -43.5zM580 654q-33 20 -69 32t-74 20q5 -57 10 -111t7 -111q-26 35 -72 52.5t-94 15.5q-60 -1 -107.5 -26.5t-79.5 -65t-46 -87t-7 -93.5q6 -42 24 -85t47.5 -80.5t70.5 -65t93 -38.5q28 -4 52.5 2.5t46 19.5t39 30.5t31.5 35.5q-2 -19 -3.5 -38
t-6.5 -37q38 5 73 17t67 29q57 143 54.5 292t-56.5 292z" />
    <glyph glyph-name="e" unicode="e" 
d="M410 390q-29 0 -50.5 -11.5t-36.5 -28.5h50t50 -1q8 0 15 -0.5t15 -0.5h19q-3 16 -13 35q-19 7 -35 7h-14zM298 164q0 -17 6 -32q29 -16 61 -16h16q35 0 63.5 20t38.5 50h-186v-6q0 -6 1 -10v-6zM154 69q-51 38 -83.5 89.5t-38.5 107.5v3q0 54 30.5 102t75.5 86h-1
q45 38 101 65.5t120 27.5h6q60 0 110.5 -26t92.5 -59q32 -27 56 -59l19 -18q38 -39 61 -84.5t23 -95.5v-12l-7 -7q-10 -1 -20 -1t-20 -1l42 -41q-23 -38 -54 -73.5t-70 -63.5t-85 -45t-98 -17q-72 2 -135 31t-109 75zM241 339q2 21 11.5 41t26 35.5t39 24.5t51.5 7
q25 1 46.5 -8.5t36.5 -25.5t23.5 -36t8.5 -39q-61 1 -121.5 2t-121.5 -1zM669 246q4 61 -26.5 115t-81.5 97q-42 32 -91 57.5t-109 24.5q-63 1 -116 -24t-95 -61q-46 -36 -77.5 -84.5t-30.5 -103.5q6 -50 34 -96.5t71.5 -83t99 -59t117.5 -24.5q51 0 95.5 16t81.5 42
t66.5 59t50.5 68q-20 -1 -41 -1.5t-41 -0.5h-41q-20 0 -40 1q-3 -18 -14 -33.5t-27.5 -26.5t-37 -17t-42.5 -5q-28 -2 -52.5 6.5t-43 24.5t-28.5 37t-9 44q-1 12 0 25q109 0 215.5 -0.5t212.5 3.5z" />
    <glyph glyph-name="f" unicode="f" horiz-adv-x="426" 
d="M343 548q-2 -4 -2 -5q17 -2 32.5 -5.5t31.5 -7.5v-7l47 -46q2 -26 3 -59.5t2 -59.5q-22 2 -47 2q-24 0 -45 1h-11q-5 0 -10 1q0 -99 -3 -198t-10 -197q-32 -6 -61 -6q-30 0 -59.5 7t-56.5 21l-43 42q-2 2 -5 3t-5 3q-11 79 -16 159.5t-6 162.5h-10q-4 0 -9 -1l-48 47h-5
q0 2 0.5 6t0.5 7q2 15 3 31t2 30l3 50q16 5 32 8.5t36 6.5q2 28 7.5 52.5t13.5 46.5q23 55 68 83q17 11 37.5 16t41.5 5q34 0 63 -13q11 -5 20.5 -11.5t19.5 -13.5l-1 1q2 -1 3 -2t3 -2q2 -2 8.5 -6t17.5 -12l1 -8l46 -45l7 -29q4 -16 8.5 -38t7.5 -39q-6 2 -17.5 7t-16.5 7
l-35 14h-1q-1 0 -1.5 0.5l-0.5 0.5q-10 2 -16 2q-13 0 -25 -12zM287 419q28 -1 56 -1.5t57 -2.5q-1 26 -2 53t-3 53q-58 14 -112 20v20q1 11 0 21.5t5 20.5q13 15 26.5 14t24.5 -3q16 -5 29.5 -11.5t28.5 -12.5q-4 23 -9.5 45.5t-10.5 45.5q-17 11 -31.5 23.5t-34.5 20.5
q-32 14 -67.5 12t-64.5 -20q-44 -29 -62 -71q-19 -56 -23 -110q-18 -3 -34 -6.5t-34 -8.5q-2 -26 -3.5 -52.5t-4.5 -52.5q9 1 18 1h17h18t18 1q-1 -94 4.5 -187.5t17.5 -187.5q35 -19 78 -23.5t85 3.5q7 100 10 198t3 198z" />
    <glyph glyph-name="g" unicode="g" horiz-adv-x="736" 
d="M750 39l-2 2zM277 -46q-16 -3 -27 -11q32 -8 63 -11.5t60 -4.5h9q2 0 5 0.5t6 0.5q27 2 57 4t53 12h-31h-42t-42 1q-6 0 -11 0.5t-10 0.5h-17q-14 0 -26.5 1t-23.5 3q-5 0 -7.5 0.5t-4.5 1.5q-3 1 -6 1q-2 0 -5 1zM306 320q19 -6 42 -6h6q2 0 3 0.5t3 0.5h7
q18 0 35.5 4.5t31.5 12.5t22.5 20t8.5 27v6q0 4 -0.5 7t-1.5 7q-11 4 -23 6.5t-23 2.5h-7q-18 0 -36.5 -4.5t-33.5 -13t-24 -21t-9 -28.5v-9q-1 -4 -1 -10v-2zM116 -104q-24 20 -46 43t-36 53q-1 2 -1 12q0 21 18 32.5t43 16.5l-6 6q-23 16 -38.5 36.5t-17.5 44.5v6
q0 17 8 31.5t21.5 26.5t30 22t34.5 18l-24 25q-22 16 -35.5 37t-13.5 46q0 5 0.5 9t1.5 9q9 43 40 77.5t74 57.5t93.5 35.5t99.5 12.5q40 0 79 -7t76 -20q1 13 4.5 26t14.5 27q16 12 37 12q17 0 31.5 -4t26.5 -9q8 -3 17.5 -7.5t17.5 -9.5l-1 -1l4 -1q4 -2 7 -2l3 -9l45 -44
q10 -24 16.5 -42.5t11.5 -35.5l-10 -8q-8 4 -18 7.5t-23 8.5q-9 3 -18 3t-20 -4q-2 -2 -3 -5t-3 -6q-1 -2 -1 -3l-1 -2l9 -8q19 -20 32.5 -42t18.5 -46v-9q0 -45 -28 -74.5t-70.5 -47t-92.5 -25t-94 -7.5h-19q-30 0 -57 2t-53 6q-16 -8 -22 -18q28 -5 56 -6l56 -2
q23 -2 45.5 -2.5t45.5 -1.5q30 -1 60.5 -2.5t61.5 -4.5q53 -5 92 -32q8 -5 13 -11.5t9 -13.5l35 -35q18 -18 18 -43q0 -11 -3 -20q-11 -35 -40 -64.5t-60 -55.5q-50 -41 -114.5 -61t-133.5 -20h-15q-67 3 -127.5 21.5t-109.5 53.5l-3 3q-8 7 -16.5 14t-16.5 15zM229 11
q6 -1 11 -2t11 -2q11 -2 23.5 -3t25.5 -1q9 0 18 -0.5t20 -0.5q45 -2 89.5 -1t89.5 -2q11 -3 21 -9t9 -17q-9 -21 -29 -32t-45 -16t-51.5 -6t-48.5 -2q-32 1 -64.5 4.5t-64.5 11.5q-20 3 -36 15.5t-21 29.5q0 14 13 22.5t29 10.5zM360 465q21 1 41.5 -4.5t37 -16t26.5 -26
t10 -33.5q2 -20 -8 -35t-27 -25.5t-38 -15.5t-42 -4q-21 -2 -42.5 2.5t-38 15t-25 26t-4.5 35.5q-2 19 7 34t25.5 25.5t37 16t40.5 5.5zM695 474q-5 19 -11.5 36.5t-14.5 37.5q-10 5 -20 10.5t-21 9.5q-19 7 -42.5 12.5t-42.5 -8.5q-11 -14 -13 -29.5t-3 -30.5
q-39 15 -80.5 23t-84.5 8q-48 0 -97 -11.5t-90.5 -34t-71 -55t-38.5 -73.5q-5 -21 2 -40t21.5 -34.5t34.5 -27t42 -17.5q-20 -8 -42.5 -17.5t-41 -23t-30 -30.5t-9.5 -38q3 -31 29 -54.5t58 -38.5q-15 -1 -32 -4t-30.5 -9.5t-20 -17t-1.5 -25.5q12 -26 33 -47.5t44 -40.5
q48 -35 107.5 -53t125.5 -21q72 -2 140 17.5t119 61.5q30 25 58 54t39 63q11 38 -21 63q-37 25 -87 30q-54 5 -106 6t-106 5q-37 1 -73.5 3.5t-71.5 10.5q-29 11 -29 36q-1 14 9 25.5t25 17.5q27 -4 54 -6t56 -2q44 -2 97 4.5t98.5 24t75 48t26.5 78.5q-5 27 -21.5 51.5
t-39.5 44.5q3 6 5 12.5t7 11.5q16 5 26 4t18 -3q11 -4 21.5 -8t20.5 -9z" />
    <glyph glyph-name="h" unicode="h" horiz-adv-x="724" 
d="M289 710q0 -1 -0.5 -2t-0.5 -2l48 -47q-3 -31 -5.5 -61t-4.5 -60q22 11 47 17t51 6h11q6 0 12 -1q57 -3 106 -28.5t74 -66.5l24 -23q14 -15 25 -31q15 -25 19 -50t4 -51q0 -73 -12.5 -146.5t-43.5 -145.5q-35 -21 -75 -34t-87 -20l-48 48q-2 -1 -5 -1q10 76 13.5 147.5
t5.5 144.5q-1 8 -1 15v17v14v10q0 6 -2 11q-2 1 -4 1q-1 0 -3 1q-5 0 -7.5 0.5t-5.5 1.5h-2q-19 0 -36.5 -7t-31.5 -17q-24 -17 -29 -43.5t-5 -51.5q1 -72 4 -143t12 -146q-45 8 -86 23t-75 35l-41 40q-3 2 -5.5 3.5t-5.5 3.5q-28 71 -41 143.5t-13 146.5q0 157 57 307
q38 22 76 34.5t77 17.5zM279 710q-77 -11 -144 -48q-54 -143 -56.5 -291t52.5 -292q32 -19 70 -33t77 -21q-8 70 -11 139t-4 141q0 26 5.5 54t31.5 47q15 11 35 18.5t41 6.5q14 -2 27.5 -3.5t22.5 -11.5q16 -10 22 -23.5t7.5 -28.5t0.5 -30.5t1 -29.5q-2 -72 -5.5 -141
t-12.5 -141q42 6 79 18.5t70 32.5q29 69 41.5 141.5t12.5 145.5q0 25 -4 49.5t-18 47.5q-24 40 -71.5 65t-101.5 28q-28 3 -55.5 -1.5t-52 -15t-44 -26.5t-31.5 -37q3 118 15 240z" />
    <glyph glyph-name="i" unicode="i" horiz-adv-x="352" 
d="M192 552q1 0 2 -0.5t2 -0.5h-1v1h-3zM279 516v-1l44 -44l3 -6q2 -41 3.5 -81t1.5 -80q0 -72 -4.5 -141.5t-14.5 -140.5q-11 -21 -31 -39.5t-61 -21.5q-15 3 -26 9.5t-20 15.5l-32 31q-15 9 -25.5 22t-20.5 27l-8 11q-10 72 -14 143.5t-4 145.5q0 38 1 79.5t3 80.5
q35 21 77 26q-5 2 -6 5l-41 40q-21 9 -21 37v10q2 9 2.5 17.5t1.5 16.5q1 5 1 9q0 5 1 10v2q0 1 0.5 3t0.5 3q12 20 33 37.5t64 24.5q27 -5 43 -19t27 -31l26 -27h-1v1l4 -3q8 -8 14.5 -18t12.5 -19l1 -3q2 -14 4 -28.5t3 -31.5q0 -3 0.5 -6t0.5 -5q0 -22 -11 -25
q-5 -8 -17 -8q-5 0 -9.5 0.5t-9.5 1.5q-8 2 -17 3t-20 1q-6 0 -11 0.5t-10 0.5h-20q44 -6 79 -29zM257 697q-11 19 -27 37t-44 23q-37 -5 -56 -21.5t-30 -34.5q-2 -14 -3.5 -29t-3.5 -30q-3 -29 15 -35q28 3 38 2q7 -1 17 -1q11 0 25 -1q15 0 26.5 -2t20 -3.5t14 0t7.5 7.5
q11 0 8 29q-1 15 -3 30t-4 29zM269 515q-20 13 -43.5 20t-48.5 7.5t-49 -5t-44 -17.5q-6 -111 -3.5 -219.5t17.5 -219.5q14 -20 29 -39t43 -24q38 3 56.5 19.5t28.5 35.5q16 111 18.5 220.5t-4.5 221.5z" />
    <glyph glyph-name="j" unicode="j" horiz-adv-x="359" 
d="M106 628q-1 1 -4 1q-17 17 -23 38t-6 44q0 9 0.5 18t1.5 19v3q0 2 0.5 5t0.5 7v13q22 7 42 7q42 0 78 -23t56 -52l27 -27q14 -14 23 -29l1 -3q6 -33 6 -54q0 -8 -1 -15t-5 -12q-14 -9 -35 -9q-20 0 -41 6q-23 7 -41.5 11t-32.5 6zM275 502v-4l44 -43l3 -5q5 -57 7.5 -114
t2.5 -115q0 -51 -1.5 -101.5t-6.5 -101.5q-2 -35 -7 -68t-24 -67q-8 -17 -21 -36.5t-30 -35.5t-38.5 -26.5t-45.5 -10.5q-20 0 -41 8q-14 7 -25.5 15.5t-22.5 19.5l-24 24q-21 14 -36.5 31.5t-28.5 37.5q0 22 -1 27t-2 7l-1 2.5t-2 5.5q-2 13 -4 29t-3 40q24 -14 31 -21
q12 -12 21 -16q9 -7 23 -7q10 0 19 9q9 22 9 41v7q-3 165 -3 329v92q0 48 1 93q14 2 25.5 2.5t21.5 0.5q43 0 84 -11t73 -32zM246 698q-11 17 -28 32.5t-38 26.5t-45 14.5t-49 -3.5q-1 -18 -2.5 -36t-0.5 -35t6 -31.5t17 -26.5q13 -2 31 -6t42 -11q47 -13 69 1q9 14 -2 75z
M265 499q-39 25 -87.5 36t-99.5 4q-2 -128 -1 -252.5t3 -252.5q1 -14 -1.5 -26t-7.5 -26q-14 -17 -30.5 -14.5t-27.5 9.5q-11 5 -18.5 12.5t-16.5 13.5q1 -21 5.5 -43.5t6.5 -45.5q15 -22 34 -42t46 -33q30 -12 56.5 -6t48 22.5t37.5 38.5t25 42q18 32 23 65t7 67
q9 109 8.5 215.5t-10.5 215.5z" />
    <glyph glyph-name="k" unicode="k" horiz-adv-x="723" 
d="M338 664q-22 -151 -27 -300q48 48 99 94t102 91q45 -3 95 -9t105 -16q-2 -2 -3 -2.5t-2 -1.5l48 -48q-28 -24 -58.5 -53t-56.5 -54q-16 -15 -31 -30t-31 -29q10 -18 20.5 -36t21.5 -35l1 -1q30 -51 58 -102.5t42 -111.5q-44 -23 -88 -36t-91 -19l-48 47h-4
q-17 42 -37.5 81.5t-43.5 77.5q-17 -15 -33.5 -29t-33.5 -28l-10 -8t-10 -9q2 -17 4 -33l4 -32l7 -61q-42 9 -79.5 21.5t-75.5 31.5l-44 44q-6 2 -8 4q-31 71 -45.5 142t-14.5 143q0 157 67 312q37 18 76 30t79 19q-1 -3 -1 -7zM520 358q42 39 83 80t86 80q-88 15 -173 21
q-51 -45 -101 -90.5t-99 -93.5l-16 -16t-16 -17q-8 -7 -14.5 -13.5l-14.5 -14.5q-3 103 4 205.5t21 205.5q-35 -6 -69.5 -16.5t-66.5 -26.5q-60 -142 -64 -291.5t57 -291.5q35 -17 70 -29t72 -20q-3 30 -7.5 60t-6.5 61q28 23 55.5 46t54.5 48q35 -54 67.5 -108t54.5 -114
q45 6 86.5 18t79.5 32q-9 38 -25.5 74t-36 71t-41 70t-40.5 70z" />
    <glyph glyph-name="l" unicode="l" horiz-adv-x="352" 
d="M88 76q-10 71 -14.5 141t-4.5 142q0 78 5 154.5t14 152.5q13 18 34 35.5t63 24.5q29 -6 47 -23t30 -36l24 -23q8 -8 14.5 -16.5t11.5 -16.5q9 -76 14 -151.5t5 -152.5q0 -73 -4.5 -144t-14.5 -143q-12 -20 -31.5 -37.5t-61.5 -20.5q-15 2 -26 8.5t-19 14.5l-32 32
q-15 8 -25 20t-19 25q-4 4 -5 6t-2 3t-2 3zM98 79q14 -19 29 -37.5t43 -22.5q38 2 56 18.5t29 35.5q20 147 19 292t-19 293q-11 19 -28 36t-43 22q-37 -5 -56 -21t-30 -33q-17 -147 -18.5 -291.5t18.5 -291.5z" />
    <glyph glyph-name="m" unicode="m" horiz-adv-x="1097" 
d="M165 47q-2 1 -3 1l-2 1q-45 50 -67 108t-22 118t22.5 118t66.5 109q32 8 72 15t85 13l-3 -6l15 -16q28 17 60.5 28t67.5 13h13q48 0 89 -20.5t68 -52.5q20 29 52.5 46t70.5 17q18 0 32 -3v-1q51 -9 95.5 -31.5t79.5 -55.5q8 -8 15 -16t13 -16l30 -29q20 -20 32 -43
t18 -49q8 -35 8 -68q0 -61 -24.5 -120t-70.5 -107l-3 -2q-34 -10 -75 -17.5t-84 -13.5l-47 47q-3 -1 -8 -1q35 68 49 134t14 129v24q0 31 -9 61q-2 1 -5 1t-5 1q-5 0 -8 0.5t-6 1.5q-2 0 -4 0.5t-4 0.5q-14 0 -25.5 -4.5t-23.5 -9.5h1q-18 -14 -21.5 -33.5t-3.5 -39.5v-15
t-1 -14v-35q0 -64 -4 -128t-18 -130q-22 -1 -46 -1h-46q-21 0 -45 0.5t-46 1.5l-47 46q-2 0 -3 0.5t-3 0.5q-8 66 -13.5 130.5t-5.5 127.5v19q0 5 0.5 9.5t0.5 9.5v31q0 3 0.5 6t0.5 6q0 5 -0.5 10t-1.5 10l-1 1q-4 1 -8 1q-3 0 -7 1h-4q-25 0 -43.5 -10.5t-31 -26.5
t-18.5 -35.5t-6 -38.5v-6q0 -6 -0.5 -12t-0.5 -12q0 -62 14.5 -125.5t41.5 -128.5q-42 7 -82.5 14t-74.5 16zM923 55q58 60 80.5 136.5t4.5 151.5q-7 28 -21 53t-37 45q-34 32 -77.5 54t-94.5 31q-24 4 -47 1t-43 -12t-35.5 -24t-24.5 -34q-24 38 -70.5 62t-100.5 20
q-55 -2 -103 -27.5t-77 -63.5q9 34 24 69q-35 -5 -68.5 -11t-67.5 -14q-42 -48 -63 -103.5t-21 -113.5q0 -57 20.5 -112.5t63.5 -103.5q35 -10 71 -16.5t71 -11.5q-27 66 -40.5 133t-10.5 136q-1 21 5 43t20 40.5t35.5 30t50.5 10.5q13 -2 24.5 -3t22.5 -7q20 -11 24 -29
q7 -20 6 -41.5t-1 -42.5q-2 -72 3.5 -143t13.5 -143q22 -1 43 -1.5t42 -0.5h43t43 1q15 72 18.5 143.5t2.5 143.5q1 7 1 13v15q0 22 4 43t24 36q15 7 29.5 11.5t32.5 2.5q13 -2 27 -3.5t24 -10.5q18 -11 27 -30q6 -19 9.5 -38.5t3.5 -39.5q2 -69 -10 -138.5t-46 -135.5
q37 5 74 12t71 17z" />
    <glyph glyph-name="n" unicode="n" horiz-adv-x="730" 
d="M131 48q-2 1 -3.5 2t-3.5 2q-54 108 -54 220q0 58 14 116t43 114q33 13 74.5 21.5t86.5 15.5q-2 -4 -2 -6l23 -23q22 17 47.5 27.5t57.5 10.5h11t11 -1q35 -5 69 -20t62 -36v1q28 -22 48 -50l19 -18q-1 1 -2 1l-1 1l11 -10q26 -27 41 -59t21 -66q2 -17 3 -34t1 -34
q0 -57 -13 -113t-43 -108l-3 -3q-38 -16 -78.5 -26t-85.5 -13l-48 47h-6q14 70 18 132t4 122v45q0 15 -1 31t-5 33q-5 1 -11 1q-5 0 -11 1h-5q-26 0 -44 -10t-29 -25.5t-16.5 -34.5t-5.5 -38v-8q0 -10 -0.5 -19.5t-0.5 -19.5q0 -61 5 -126t12 -131q-44 5 -85.5 16t-79.5 28z
M596 55q38 66 48.5 139t2.5 146q-7 39 -26 75.5t-55 64.5q-26 22 -60.5 37t-70.5 20q-30 4 -55.5 -2.5t-47 -20t-39 -31.5t-30.5 -36q2 20 4 39.5t7 39.5q-36 -5 -72 -13t-69 -21q-52 -103 -53 -216.5t51 -216.5q35 -16 73.5 -26t78.5 -15q-7 72 -12 144t-3 144
q-1 21 4.5 43t18 40t33.5 29.5t51 10.5q15 -1 28.5 -3.5t24.5 -10.5q9 -8 17 -16t10 -19q5 -19 6.5 -37.5t1.5 -36.5q1 -73 -2 -144.5t-17 -143.5q40 3 78 12.5t74 24.5z" />
    <glyph glyph-name="o" unicode="o" 
d="M297 224q0 -25 3 -53.5t14 -54.5q9 -4 19.5 -6.5t22.5 -2.5h3q20 0 40 9.5t35 23.5q19 26 24 59.5t6 65.5q0 30 -3.5 60.5t-16.5 57.5q-19 7 -35 7q-53 0 -80 -33q-23 -28 -27.5 -63t-4.5 -70zM360 549q64 0 120 -28t96 -65q30 -26 53 -56l20 -19q34 -35 55.5 -75.5
t21.5 -87.5v-2q0 -54 -31 -100t-74 -82q-41 -35 -95 -61t-117 -26h-9q-65 0 -117.5 27.5t-94.5 64.5q-6 5 -12 10.5t-12 11.5l-13 13q-4 3 -7.5 6t-7.5 7q-20 18 -39 38.5t-33.5 43t-23 46.5t-8.5 50v10q4 51 31 99.5t70 86.5t99.5 62t119.5 26h8zM359 447q24 0 47 -10.5
t36 -28.5q22 -33 27 -70t5 -73q-1 -35 -7 -70.5t-29 -64.5q-15 -15 -36.5 -24.5t-45.5 -8.5q-39 1 -62 19.5t-35 45t-15.5 56.5t-3.5 56q0 35 5 71t29 66q30 36 85 36zM352 539q-61 -2 -115.5 -25t-96.5 -60t-68 -84t-30 -96q-2 -26 5.5 -50.5t22 -47t33.5 -43.5t40 -39
q42 -36 93 -63t114 -27q31 -1 61 5.5t57.5 18.5t52 27.5t45.5 33.5t40 38t33 42.5t22 47t8 51.5q0 54 -28.5 99t-71.5 82q-40 38 -96.5 65t-120.5 25z" />
    <glyph glyph-name="p" unicode="p" horiz-adv-x="718" 
d="M319 180q0 -16 0.5 -30.5t2.5 -30.5q11 -6 24 -7.5t26 -2.5q20 0 37 8t30 22q17 24 22.5 51.5t5.5 56.5v17t-1 18q0 22 -3.5 47.5t-14.5 47.5q-6 2 -13 3l-14 2q-27 0 -46 -11t-31 -28t-17.5 -37t-5.5 -39v-7q-1 -18 -1.5 -35t-0.5 -36v-9zM123 -104q-53 139 -53 285
q0 153 56 300q71 35 164 50q-1 -3 -3 -7l17 -16q21 17 47.5 26.5t56.5 9.5h9q5 0 10 -1q57 -11 101 -40.5t76 -69.5l23 -22q42 -42 66 -93t32 -101q3 -17 3 -34q0 -44 -18 -87t-50.5 -78t-79 -57t-103.5 -24h-11q-42 0 -79.5 13t-63.5 39l-3 2q2 -51 7 -103.5t10 -101.5
q-43 9 -83.5 22t-74.5 34l-39 39q-3 2 -6 3.5t-6 3.5zM262 239q0 20 0.5 39t1.5 39q0 20 6 41.5t19 39.5t33 29.5t49 11.5q34 -2 54.5 -18.5t31.5 -39.5t15 -49.5t4 -48.5q2 -38 -1.5 -77t-27.5 -73q-14 -15 -33 -24.5t-42 -9.5q-17 1 -34.5 4.5t-30.5 14.5
q-14 7 -22.5 17.5t-16.5 21.5q-5 20 -5.5 40.5t-0.5 41.5zM133 -102q33 -20 70.5 -32.5t75.5 -20.5q-6 54 -10 108t-6 109q24 -36 69 -53t95 -15q61 2 109.5 27.5t80 64.5t45.5 86.5t6 93.5q-7 42 -25.5 85t-48.5 80t-72 64.5t-96 37.5q-26 3 -50.5 -2.5t-45.5 -17
t-37.5 -28t-26.5 -35.5q2 17 2.5 34t5.5 34q-73 -12 -139 -44q-54 -141 -55 -288t53 -288z" />
    <glyph glyph-name="q" unicode="q" horiz-adv-x="724" 
d="M450 330q-1 11 -4.5 23.5t-8.5 23.5q-13 4 -31 6h-3q-19 0 -36 -7.5t-30 -20.5q-22 -23 -27.5 -52.5t-7.5 -58.5q-1 -6 -1 -12t-1 -12v-20q0 -22 1 -43.5t8 -41.5q17 -7 41 -7q24 1 43 11.5t32 26t20 34.5t7 38v24v21q0 11 -1 22t-1 22v23zM606 474q1 -3 3 -7l44 -44
q4 -9 5.5 -17t2.5 -15q1 -5 1.5 -10t2.5 -11q18 -58 27.5 -118.5t9.5 -120.5q0 -151 -62 -298q-69 -39 -159 -48l-48 48q-2 0 -3 -0.5t-3 -0.5q5 32 9 62t7 60q-40 -17 -85 -17h-10q-57 1 -104.5 22.5t-82.5 56.5l-23 22q-48 37 -75.5 88.5t-27.5 105.5q0 18 3 33v-1
q7 46 28.5 93.5t56.5 87t83.5 67t109.5 33.5h12q48 0 89.5 -23.5t70.5 -57.5q9 12 14.5 24.5t10.5 25.5q22 -8 43.5 -16t44.5 -19zM460 330q0 -26 1.5 -52.5t0.5 -53.5q1 -21 -6 -42.5t-21 -40t-35.5 -30.5t-49.5 -13q-24 0 -45.5 9t-35.5 26q-11 15 -16.5 31.5t-7.5 34.5
t-2 36v36q2 18 3 36t4.5 36t10.5 35t21 32q14 14 33.5 22.5t40.5 7.5q26 -1 45 -11.5t31.5 -26.5t19.5 -35t8 -37zM597 470q-19 9 -38.5 16.5t-39.5 14.5q-5 -14 -11.5 -27.5t-19.5 -24.5q-13 18 -31.5 34.5t-40.5 28.5t-47 18.5t-52 4.5q-59 -6 -105.5 -32.5t-80.5 -65
t-55 -84t-28 -90.5q-8 -47 7 -94t49 -85.5t83.5 -63.5t110.5 -26q48 -2 91.5 15t71.5 48q-2 -54 -8 -107t-14 -107q82 8 146 45q54 128 59.5 263t-36.5 267q-4 13 -5 26t-6 26z" />
    <glyph glyph-name="r" unicode="r" horiz-adv-x="462" 
d="M116 43q-5 2 -13 8q-18 55 -26 110.5t-8 109.5q0 57 8.5 114t25.5 114q34 21 76 31t87 10v-6l24 -24q11 9 24 15t28 6q9 0 21 -3t28 -13h-2q2 -2 2.5 -3t2.5 -2q1 -1 3 -2t10 -4q2 -6 3 -8l45 -45q11 -28 16.5 -56t10.5 -56q1 -2 3 -11t3 -11q-30 8 -50 8
q-25 0 -48 -10.5t-40 -36.5h-1q-14 -26 -18.5 -53t-5.5 -56v-103q0 -26 -0.5 -55t-1.5 -55h-18q-41 0 -79.5 13.5t-70.5 34.5zM266 13q1 26 1.5 51.5t0.5 51.5v103q1 29 6.5 58t19.5 55q12 19 28.5 30.5t34 16t35.5 3.5t35 -5q-5 30 -11 59.5t-17 58.5q-8 3 -12 8.5t-12 8.5
q-22 13 -42 8.5t-35.5 -17.5t-26.5 -31t-15 -33q-1 23 -0.5 45.5t0.5 45.5q-38 0 -75.5 -9.5t-69.5 -29.5q-31 -106 -32 -216t32 -216q33 -22 73 -35t82 -11z" />
    <glyph glyph-name="s" unicode="s" horiz-adv-x="629" 
d="M559 415l4 -4zM352 395q-10 0 -22 -1t-24 -4t-22.5 -7.5t-16.5 -11.5q8 -1 15.5 -1.5t15.5 -1.5l20 -3q2 0 3 -0.5t3 -0.5h7q32 -4 63 -8.5t61 -12.5l-22 24q-2 -1 -5 -1q-4 10 -6 14q-33 15 -70 15zM410 136q-60 5 -119.5 14t-115.5 32l3 -9l44 -44q19 -10 41 -15t45 -5
h10q23 0 50 6t43 21h-1zM86 246q-4 2 -5 3q-25 18 -40 43.5t-15 54.5q0 8 0.5 13t1.5 10q11 37 37.5 69.5t63.5 57t81 38.5t91 14h14q38 0 72 -10t64 -27t55 -40t44 -48l17 -16q14 -14 26 -29.5t22 -31.5l-6 -11q-2 0 -3 -0.5t-3 -0.5q-22 -2 -45 -4.5t-46 -5.5
q40 -17 65 -47q6 -8 8 -12l31 -30q6 -6 9 -10q14 -17 20 -37t6 -41v-9q-12 -40 -41 -75t-68.5 -61.5t-87 -41.5t-98.5 -15q-72 0 -134.5 29.5t-110.5 77.5l-22 21q-28 23 -51.5 50t-40.5 57q2 0 7.5 -0.5t8.5 -0.5q14 -1 29.5 -1.5t26.5 -0.5q25 0 52.5 1t52.5 3
q-21 8 -43 21q-4 3 -7.5 6t-7.5 7zM559 393q-18 29 -43.5 56t-58 47t-70 32t-79.5 11q-45 1 -89 -12t-80.5 -37t-63 -56t-37.5 -69q-7 -31 7.5 -59.5t42.5 -48.5q60 -34 131 -46t142 -18q10 -1 23 -3.5t24.5 -7t18.5 -12t6 -19.5q-4 -15 -16.5 -25t-29 -16t-35 -8.5
t-34.5 -2.5q-23 -1 -47 3t-44.5 13t-36 23t-22.5 34q-38 -2 -75.5 -3.5t-76.5 1.5q20 -35 50 -65t67.5 -53t81 -36t91.5 -13q49 0 96 15t85.5 40.5t66.5 59.5t40 73q1 21 -4 42t-20 38q-31 37 -83 52q-42 14 -84 20.5t-85 11.5q-26 4 -50.5 7t-47.5 12q-8 6 -13 13.5
t-3 16.5q1 15 11.5 24.5t25 14.5t31 7t30.5 2q22 0 43 -4.5t39 -14t31.5 -23.5t19.5 -32q30 5 61.5 8.5t62.5 6.5z" />
    <glyph glyph-name="t" unicode="t" horiz-adv-x="469" 
d="M482 83l-23 23h-1zM352 539q21 -3 42.5 -7.5t42.5 -11.5q0 -2 0.5 -3.5t0.5 -3.5l46 -45q5 -23 6.5 -43t3.5 -40q1 -6 1.5 -17t1.5 -18q-25 3 -54.5 5t-55.5 4q-7 1 -13.5 0.5t-12.5 0.5v-49q0 -84 -3 -168q9 1 18 6q15 3 33.5 11t37.5 18l-3 -9l48 -47l-10 -39
q-4 -15 -7 -30t-11 -38q-20 -20 -45.5 -33.5t-54.5 -22.5q-24 -6 -51 -6q-30 0 -58.5 9t-48.5 28l-6 6l-28 28q-9 5 -18 14q-32 27 -43.5 62.5t-14.5 73.5q-5 45 -6 90.5t-1 92.5q-5 0 -11 -0.5t-11 -1.5q-4 0 -11.5 -0.5t-11.5 -0.5l-47 47h-6q1 13 2.5 31.5t3.5 31.5
q1 8 1.5 16t1.5 16l3 26q27 9 53 14t53 9q11 76 26 139q28 9 54 13t51 4q15 0 29.5 -1t30.5 -4v-7l47 -46q2 -19 2.5 -40.5t2.5 -40.5v-23zM304 418l68 -4t67 -6l-4 52t-7 52q-31 10 -63.5 15.5t-64.5 10.5q-3 37 -5 74.5t-5 74.5q-74 12 -146 -11q-8 -35 -14.5 -70
t-11.5 -70q-28 -4 -54 -8.5t-51 -12.5q-2 -26 -6 -52t-6 -52q26 2 50 4t48 3q-1 -60 0.5 -121.5t6.5 -121.5q3 -35 14 -69.5t41 -60.5q14 -13 32 -21t38 -11.5t41 -2.5t40 6q28 9 52.5 22t43.5 31q8 23 13 45.5t10 44.5q-12 -6 -25 -11.5t-28 -8.5q-26 -11 -52 -5
q-21 13 -23 28t-2 28q4 114 3 228z" />
    <glyph glyph-name="u" unicode="u" horiz-adv-x="722" 
d="M597 489q2 -6 4 -8l43 -43q54 -108 54 -226q0 -54 -13 -108t-40 -106q-71 -29 -154 -38l-27 27q-23 -17 -51 -27.5t-59 -10.5q-8 0 -14 0.5t-13 1.5q-42 7 -77 25.5t-61 44.5l-22 21q-41 29 -65.5 70t-29.5 86q-2 15 -3 30t-1 31q0 60 15 118.5t43 116.5q37 16 78 26
t86 16q0 -2 -0.5 -3t-0.5 -2l48 -48q-9 -68 -14.5 -133t-5.5 -128q0 -43 3 -85v-9q4 -1 7.5 -1.5t8.5 -0.5h5q29 1 55.5 12.5t37.5 34.5q6 14 8 29.5t2 32.5v24q0 69 -4 137t-13 139q92 -13 165 -41zM588 485q-71 28 -150 39q9 -72 13 -144t3 -145q0 -17 -2 -33.5t-9 -32.5
q-12 -26 -41 -39t-61 -14q-18 -1 -32.5 5t-25 16t-16 23t-4.5 27q-5 85 0 169t16 169q-38 -5 -75 -14.5t-71 -23.5q-33 -69 -47 -141t-4 -147q4 -33 19.5 -64.5t41 -57t60 -44t75.5 -25.5q29 -5 57 1t52 19t43 31.5t31 39.5q-2 -21 -4.5 -41t-6.5 -40q37 4 71.5 12.5
t68.5 22.5q27 51 39.5 106t11.5 110t-14.5 110t-38.5 106z" />
    <glyph glyph-name="v" unicode="v" horiz-adv-x="601" 
d="M547 487l47 -47v-10q0 -52 -11.5 -101.5t-30.5 -98t-43.5 -95.5t-49.5 -94q-11 -20 -22.5 -41.5t-21.5 -41.5q-17 -1 -35.5 -1.5t-35.5 -0.5q-20 0 -37 1.5t-33 3.5l-46 46q-4 0 -6 1q-12 25 -26 52.5t-27 52.5q-23 43 -45.5 87.5t-39.5 89.5t-27.5 92t-10.5 97v19
q43 17 84 25t86 14q0 -2 0.5 -3.5t0.5 -3.5l47 -46q15 -58 34.5 -113.5t39.5 -109.5q26 63 48 128.5t36 139.5q34 -7 64.5 -15t60.5 -22v-5zM537 486q-24 11 -50.5 18t-55.5 13q-14 -82 -44.5 -161t-60.5 -158q-32 82 -63 162.5t-54 165.5q-40 -5 -77.5 -13t-75.5 -22
q-2 -65 14.5 -125t42.5 -118.5t57 -115.5t58 -114q16 -2 32.5 -3.5t33.5 -1.5t33.5 0.5t33.5 1.5q29 57 60.5 114t57.5 115.5t42.5 118.5t15.5 123z" />
    <glyph glyph-name="w" unicode="w" horiz-adv-x="959" 
d="M868 490q1 -2 1 -4q0 -1 1 -3l45 -44q11 -26 16 -52t5 -52q0 -50 -15.5 -98.5t-40.5 -95t-56.5 -90t-64.5 -82.5q-33 -5 -70 -7.5t-77 -3.5l-47 47h-6q-7 57 -21.5 109.5t-31.5 103.5q-20 -63 -37.5 -127t-28.5 -133l-45 4h-1q-29 2 -54 4.5t-48 5.5l-47 46q-1 0 -2 0.5
t-2 0.5q-31 42 -62.5 86.5t-56.5 91.5t-40.5 95t-15.5 97q0 54 24 111q36 9 78.5 16t91.5 13q0 -2 -0.5 -3t-0.5 -3l48 -47q-2 -18 -2 -27v-16q0 -70 15 -137q13 38 28 75t30 75q4 11 8.5 23.5t9.5 23.5t9 23t9 23q12 1 28 1h30h34q18 0 35 -1q5 0 10 -0.5t11 -0.5h24
q2 -6 4 -9l44 -44q22 -49 43 -97.5t39 -97.5q12 40 19.5 79.5t7.5 80.5q0 13 -1 30.5t-6 43.5q5 -3 9 -4t7 -2q8 -2 10 -2q26 -5 50.5 -9.5t49.5 -10.5zM859 486q-27 7 -54 12t-56 10q12 -76 -5.5 -151.5t-46.5 -147.5q-17 84 -49.5 162.5t-67.5 156.5q-39 1 -79 2t-79 -1
q-30 -78 -63 -157t-53 -161q-29 75 -45.5 152t-11.5 155q-78 -9 -152 -27q-26 -62 -20 -122.5t31 -119t62.5 -114t75.5 -106.5q34 -5 68.5 -7.5t69.5 -5.5q14 87 40 169t51 167q12 -42 26 -83.5t27.5 -83.5t24 -84.5t15.5 -85.5q35 1 69.5 3.5t68.5 7.5q40 49 78.5 104
t63 114t30.5 120t-19 122z" />
    <glyph glyph-name="x" unicode="x" horiz-adv-x="657" 
d="M579 494l44 -43l5 -10q-19 -48 -50 -92.5t-64 -89.5q-3 -5 -6.5 -8.5t-6.5 -7.5q11 -17 23.5 -33t24.5 -32q32 -42 60.5 -84.5t40.5 -95.5q-47 -17 -91 -26t-92 -14l-48 47h-4q-17 34 -35 61t-38 51l-8 -10q-26 -35 -50.5 -69.5t-44.5 -70.5q-33 6 -69 15.5t-71 22.5
l-45 44q-2 1 -4.5 2t-4.5 2q19 53 46.5 94t57.5 81l12 15q8 11 17.5 23.5t17.5 25.5q-2 3 -4 6.5t-4 5.5l-12 18q-30 42 -57 85t-47 97q43 15 84 21t83 11q6 0 11 1q2 0 6 0.5t9 2.5l6 -12l43 -42q21 -38 44 -69q17 23 34.5 51t36.5 57l8 10q39 -7 74 -14.5t64 -16.5z
M571 494q-31 10 -63.5 17.5t-65.5 12.5q-20 -32 -41 -64t-45 -63l-50 64t-45 67q-45 -5 -89 -11t-87 -20q19 -55 54 -104.5t70 -99.5q-19 -29 -41 -57t-42.5 -56.5t-38.5 -58.5t-29 -62q31 -11 63.5 -20t64.5 -14q23 43 52 82t58 79q34 -42 68 -82.5t57 -87.5
q45 5 86.5 13.5t83.5 23.5q-8 33 -25 63.5t-38 60t-43.5 58t-41.5 58.5q37 49 72 97.5t56 103.5z" />
    <glyph glyph-name="y" unicode="y" horiz-adv-x="593" 
d="M540 465v-1l43 -43l4 -6q-3 -48 -14 -94t-26 -91.5t-33 -90t-37 -89.5q-8 -20 -17 -40t-17 -40q-29 -62 -64 -117q-26 -36 -72 -57q-13 -6 -25 -8t-25 -2q-16 0 -31 2t-29 5q-2 2 -10 4.5t-16 5.5l-24 10t-26 15l-41 41q-4 2 -12 8q-3 12 -7.5 27t-8.5 30.5t-7.5 31
t-6.5 27.5q26 -11 51 -19t49 -11q15 -5 22 -5q22 0 40 13t22 30q-7 16 -14.5 31.5t-15.5 31.5q-24 49 -47.5 98.5t-43 100.5t-34.5 104t-22 109q39 21 83 33.5t91 19.5q0 -3 2 -7l46 -46q17 -55 35 -103t37 -95q2 3 2.5 6.5t2.5 6.5q2 5 3.5 9t3.5 9q19 51 37 102.5
t31 107.5q32 -10 61 -20.5t55 -24.5zM530 465q-25 14 -50.5 23.5t-53.5 17.5q-17 -73 -44 -143t-53 -142q-31 75 -62.5 148.5t-54.5 148.5q-42 -6 -81.5 -17.5t-74.5 -30.5q8 -61 26.5 -120.5t43 -117.5t52.5 -115.5t55 -114.5q-2 -14 -11.5 -25.5t-23 -18.5t-30.5 -9t-34 4
q-21 2 -41.5 9t-40.5 15q5 -24 11.5 -48t13.5 -47q16 -11 34.5 -17.5t36.5 -14.5q26 -5 54 -7t52 9q44 19 69 55q36 55 64 116q22 54 45.5 108t44 109t35 111t18.5 114z" />
    <glyph glyph-name="z" unicode="z" horiz-adv-x="570" 
d="M493 494q0 -3 1 -4v-1l46 -46q1 -2 1.5 -4t1.5 -4l-1 1q8 -20 14.5 -37.5t10.5 -34.5q-99 -119 -210 -234q45 2 91 8t96 18l-3 -7l48 -47l-10 -30q-6 -17 -13 -35.5t-18 -38.5q-98 -42 -206 -42q-58 0 -114.5 12.5t-107.5 35.5l-45 44q-2 1 -3.5 2t-3.5 2
q-11 26 -20.5 50t-16.5 45q14 15 29.5 31.5t29.5 32.5q9 10 17.5 19.5t17.5 18.5q29 30 57.5 61.5t58.5 62.5q-33 -2 -67 -7t-67 -11l-47 47q-3 -1 -7 -1q6 26 14.5 52t19.5 52q46 18 95.5 26.5t99.5 8.5q54 0 105.5 -10t99.5 -30zM483 491q-45 19 -94.5 29t-99.5 10.5
t-100 -8t-95 -25.5q-16 -40 -27 -83q60 12 122.5 15.5t126.5 1.5q-75 -69 -140 -141.5t-134 -144.5q7 -22 15.5 -43.5t17.5 -42.5q47 -22 100 -33.5t107.5 -12.5t108.5 9t102 31q11 21 19 43.5t16 45.5q-72 -17 -145 -20.5t-145 -1.5q72 72 139.5 146t131.5 150
q-4 19 -11 37t-15 38z" />
    <glyph glyph-name="braceleft" unicode="{" horiz-adv-x="389" 
d="M144 176q0 1 -1 1zM295 -54l9 -9v1l-9 9v-1zM186 -150q-21 13 -36 36q-13 25 -20.5 50t-8.5 51q-1 9 -1.5 18.5t-0.5 19.5q-1 10 -1 19v19v8q-1 23 -1.5 48t-2.5 48q1 4 1 10q0 9 -3 17q-4 2 -7.5 2.5t-6.5 1.5l-46 45q-2 1 -4 1q-1 0 -3 1v71q32 2 51 21t19 41
q0 1 -0.5 2t-0.5 2v4q0 26 1 50.5t3 48.5q2 21 3 42t1 43q1 29 10 58t34 63q29 26 65 26q9 0 20 -2.5t24 -9.5l10 -5l15 -12q13 -13 25.5 -25t23.5 -25v-3l24 -23q6 -6 12 -12.5t11 -12.5q1 -6 1.5 -12t1.5 -11q1 -6 3 -15t7 -32l-22 22q-2 2 -4.5 4t-5.5 4q-2 1 -2.5 2
t-2.5 3l-1 1q-2 2 -4 3t-4 3v-1h1l-3 2q-6 5 -16 7q-2 -4 -2 -13q0 -3 0.5 -6.5t0.5 -6.5v-15q2 -34 2 -67t1 -66q0 -11 0.5 -21.5t0.5 -21.5q1 -5 1 -15q0 -32 -17.5 -60.5t-49.5 -46.5l28 -28q20 -20 29 -45t9 -51v-8q0 -11 -0.5 -21.5t-0.5 -21.5q-1 -20 -1 -39v-38l9 9
q0 -2 -0.5 -4.5t-0.5 -4.5l48 -48q-2 -29 -4 -43t-4 -25q-13 -15 -25 -27.5t-24 -22.5l-9 -6l-15 -8q-15 -9 -34 -9q-18 0 -36.5 8.5t-32.5 22.5zM209 274q43 17 65 52t17 73q-1 45 -1.5 88.5t-2.5 88.5q1 12 -1 24.5t5 23.5q12 1 22 -6t18 -15q5 -4 8 -7t7 -6
q-2 11 -3.5 22t-3.5 23q-10 12 -21.5 23.5t-23.5 22.5l-11 9l-12 6q-23 15 -51 10.5t-46 -21.5q-23 -32 -32 -60t-10 -55q-1 -48 -4.5 -92t-3.5 -92q2 -14 -2 -27.5t-13 -24.5t-23 -18.5t-31 -8.5v-53q38 -7 56 -34t13 -56q3 -45 4 -88.5t3 -88.5q1 -24 8.5 -48t18.5 -47
q20 -31 52 -42.5t58 2.5l12 6l11 8q25 21 46 46l4 24t3 24q-5 -5 -9 -9.5t-9 -8.5q-7 -6 -14.5 -12t-18.5 -6q-10 15 -7.5 27t1.5 24q2 42 2.5 85t1.5 86q1 19 -3.5 38.5t-14.5 36.5t-26 31t-38 22z" />
    <glyph glyph-name="bar" unicode="|" horiz-adv-x="665" 
d="M252 649q5 11 12.5 23t18.5 22.5t26.5 17.5t38.5 8q17 -9 28 -20.5t20 -24.5l28 -28q11 -11 18.5 -23.5t15.5 -25.5q1 -2 2.5 -4.5t2.5 -4.5q18 -185 18 -370q0 -181 -18 -361l-3 -6q-6 -12 -13 -23.5t-17 -21t-24 -15.5t-33 -6h-7q-16 8 -30 22l-30 30q-24 14 -37 35.5
t-23 41.5q-15 165 -15 331q0 102 5 201t15 200zM261 645q-18 -184 -20 -364.5t15 -363.5q10 -20 23 -41t38 -33q21 -1 35.5 5t24.5 16t16.5 22t12.5 23q19 183 18.5 364t-18.5 365q-11 20 -24 40t-36 32q-20 -1 -33.5 -7.5t-23.5 -16t-16.5 -20.5t-11.5 -21z" />
    <glyph glyph-name="braceright" unicode="}" horiz-adv-x="389" 
d="M120 163q0 32 18 61t51 48l-3 4q-32 20 -48.5 52.5t-16.5 66.5v7q0 11 0.5 22t0.5 22v22q0 12 1 23v42l-4 -4l-48 48l-5 -5q2 30 3.5 46t3.5 24q0 1 0.5 2t0.5 2l20 20l16 16t19 14v-1l10 8l2 1q13 8 24 11t22 3q25 0 48.5 -14t38.5 -39l31 -30q5 -5 9.5 -10.5t8.5 -12.5
q14 -23 18.5 -47t6.5 -49q2 -46 3.5 -91.5t1.5 -91.5v-12t2 -12q5 -2 11 -3t13 -1v-6l47 -47q0 -8 -0.5 -18t-0.5 -16q-1 -6 -1 -15v-16q-32 -5 -50.5 -25.5t-18.5 -43.5v-5q-1 -23 -1.5 -44.5t-1.5 -44.5t-1.5 -45.5t-2.5 -45.5q-2 -27 -9 -55t-32 -60q-12 -14 -30 -22
t-37 -8q-25 0 -44 12l-1 1q-12 6 -20 14l-34 34q-2 1 -3.5 2t-3.5 2h1q-8 6 -12 10l-18 18q-9 9 -17.5 18t-14.5 18q-1 2 -2 11t-2 17v1q-2 6 -2 9q-1 2 -1 6v7l17 6q3 -6 4 -7.5t3 -3.5t4.5 -5t4.5 -5q5 -3 12 -6t15 -6q2 8 2 10t-0.5 3t-0.5 3v6q0 2 -0.5 3t-0.5 3v7
q-2 42 -3 83.5t-2 85.5q-1 5 -1 18zM215 274q-45 -17 -67.5 -52t-16.5 -74q1 -45 2 -87t3 -85q0 -12 1.5 -24t-6.5 -23q-24 5 -41 19q-4 5 -7.5 8.5t-6.5 8.5q2 -12 3.5 -23t4.5 -22q9 -14 22 -25.5t24 -24.5q4 -4 9.5 -7.5t10.5 -6.5q12 -8 26.5 -10t28.5 0.5t26 9t21 16.5
q23 31 30 58.5t9 53.5q2 45 3.5 89.5t3.5 89.5q-2 27 16.5 51t52.5 29q0 14 1 26t1 26q-20 1 -33.5 9.5t-22.5 21.5t-13 28t-4 29q0 46 -1.5 91.5t-3.5 91.5q-2 23 -6.5 46.5t-17.5 45.5q-9 16 -23 28t-30 17.5t-32 4.5t-31 -10l-10 -5l-11 -9q-14 -9 -24.5 -20t-21.5 -22
l-4 -22t-3 -23q5 5 9.5 8.5t9.5 7.5q8 6 18.5 13t20.5 -1q2 -17 1.5 -26.5t-0.5 -18.5q-2 -45 -2.5 -89t-2.5 -89q-1 -19 4 -38.5t15.5 -37t26.5 -31t38 -21.5z" />
    <glyph glyph-name="asciitilde" unicode="~" horiz-adv-x="781" 
d="M78 308q-6 2 -8 3q2 34 22.5 61.5t51 48t67 32.5t71.5 15h7q24 0 45 -4.5t41 -9.5q4 -2 8.5 -3t10.5 -2q5 -2 9.5 -2.5t9.5 -1.5q29 -8 55.5 -15t52.5 -10h6q14 0 27.5 6t14.5 17l-3 10.5t-6 18.5q2 -2 10.5 -5.5t13.5 -5.5t8.5 -3.5t6.5 -3.5l1 1q25 -9 53 -20t52 -22
q0 -2 -0.5 -2.5t-0.5 -2.5l48 -47q-1 -33 -21 -59t-50.5 -44t-66.5 -29t-69 -14q-29 1 -54.5 6t-50.5 13q-4 2 -9 3.5t-12 2.5q-8 2 -16.5 4t-16.5 4q-22 5 -42 9.5t-40 6.5q-2 0 -4 0.5t-4 0.5q-17 0 -30 -10t-13 -23q0 -5 3 -11l-9 -10q-31 14 -62 27t-62 25zM200 267
q-6 11 -3 21.5t11.5 18.5t20.5 12t25 2q30 -2 58.5 -9.5t58.5 -14.5q30 -8 60.5 -16t62.5 -9q32 3 67 13t64.5 27t49 41t20.5 54q-29 13 -58.5 24t-59.5 22q4 -10 -0.5 -18t-13 -14t-20 -9t-22.5 -2q-29 4 -56 10.5t-56 14.5q-32 7 -62 15.5t-64 7.5q-33 -3 -68 -14
t-64.5 -29t-49 -42.5t-21.5 -54.5q31 -12 60 -24.5t60 -26.5z" />
    <glyph glyph-name="Adieresis" unicode="&#xc4;" horiz-adv-x="810" 
d="M414 433q-14 -35 -27.5 -69.5t-26.5 -69.5h108q-12 32 -24 63.5t-24 61.5q-2 4 -6 14zM519 715q1 -3 3 -7l44 -44q15 -33 32 -66.5t34 -67.5q28 -55 55 -111t48.5 -113t35 -115.5t13.5 -117.5q0 -31 -3 -55q-87 -35 -184 -48l-48 47h-5q-2 20 -5.5 39t-8.5 39v2h-61
q-86 0 -173 6q-9 -29 -16 -60t-12 -66q-74 16 -154 48l-45 44l-4 2l-4 2v18q0 65 14 128t37.5 124.5t53 122t59.5 120.5q17 32 34.5 68t32.5 68q27 2 55 3t57 1q28 0 55 -1.5t53 -3.5zM282 285q23 66 48 130t53 128l50 -128t49 -130q-100 -1 -200 0zM510 711q-26 2 -53 3.5
t-53 1.5t-52.5 -1t-53.5 -3q-36 -77 -76.5 -154t-74.5 -155.5t-56 -159t-20 -164.5q65 -26 141 -43q5 32 12.5 63t16.5 62q72 -6 143 -6.5t144 1.5q7 -32 14.5 -64t10.5 -64q88 12 171 45q9 84 -10 165.5t-53 161t-75 157t-76 154.5zM227 852q-29 16 -35 42q5 15 16 26
t25.5 19t30.5 13.5t31 8.5h4q21 0 37 -11t24 -26l35 -35q-1 1 -2 1l-1 1l3 -2q19 -19 19 -43v-6q0 -21 -17.5 -40t-43.5 -19q-2 0 -3.5 0.5t-3.5 0.5h-1q-22 3 -46 12t-39 25zM448 834q-17 9 -26.5 26.5t-9.5 34.5q0 11 4.5 22.5t12.5 21.5t20 16t27 6h8q13 -3 27.5 -7
t28 -10t24.5 -15t17 -21l36 -36q12 -12 15 -26q-4 -17 -14.5 -28t-25 -18.5t-30 -12t-29.5 -7.5h-7q-13 0 -23 4.5t-18 12.5zM296 839q13 -2 25 2.5t20 12.5t12.5 18.5t3.5 21.5q1 21 -15.5 39.5t-44.5 17.5q-14 -3 -29 -8t-28 -11.5t-23 -16t-14 -21.5q3 -12 12.5 -21.5
t23 -16t28.5 -11t29 -6.5zM481 837q13 3 28.5 7t29 11t23.5 16.5t13 23.5q-3 13 -13 22.5t-23.5 16t-29 10.5t-28.5 7q-28 2 -43.5 -17t-15.5 -39q0 -21 15.5 -40.5t43.5 -17.5z" />
    <glyph glyph-name="Aring" unicode="&#xc5;" horiz-adv-x="810" 
d="M442 923q-18 -3 -28 -15q16 3 28 15zM415 427l-52 -132h103zM321 860q-22 15 -36.5 35t-16.5 44q3 20 15.5 38.5t30.5 33t41 24t47 11.5q37 -3 71 -23t52 -49l30 -29q12 -12 20.5 -26.5t10.5 -29.5q-3 -21 -15.5 -39t-30.5 -31.5t-40.5 -22t-46.5 -10.5h-2
q-29 2 -55.5 14.5t-45.5 31.5zM517 721l2 -8l46 -45l218 -650l-185 -49l-48 47l-4 -1l-18 85l-231 4l-30 -127l-155 47l-46 45l-8 3l233 650zM383 543l99 -258h-200zM298 712l-227 -633l141 -43l29 125l287 -5l25 -128l171 45l-214 638zM403 898q-21 -1 -37.5 11.5
t-17.5 29.5q0 17 17 30t38 12q21 0 38 -12.5t19 -30.5q-2 -17 -19 -29t-38 -11zM402 843q23 2 44.5 10t39 20.5t29 29t14.5 36.5q-3 18 -15 35t-29.5 30t-39 21.5t-43.5 10.5q-22 -2 -43 -10.5t-38 -21.5t-28.5 -30t-14.5 -35q2 -19 13 -35.5t28.5 -29.5t39 -21t43.5 -10z
" />
    <glyph glyph-name="Ccedilla" unicode="&#xc7;" horiz-adv-x="835" 
d="M327 282q0 -32 4.5 -63t19.5 -59q21 -14 45.5 -19.5t48.5 -5.5h13q31 0 57 12.5t45 32.5t30.5 45t14.5 50q9 -1 20 -1t21 -1q9 -1 17 -1.5t16 -0.5q31 -2 67 -3.5t68 -1.5q0 -2 -0.5 -3t-0.5 -2l48 -48q-7 -52 -33.5 -98t-67 -82.5t-93 -60.5t-110.5 -32q12 -11 19 -23
l36 -36q17 -17 17 -38v-6q0 -4 -1 -6q-4 -21 -17.5 -39.5t-34 -32t-44.5 -21t-49 -7.5q-44 0 -82 13.5t-74 36.5l-40 40l-15 9q8 11 10 16t3 8q1 1 1 2q1 2 3.5 7.5t8.5 16.5q2 -1 6 -2.5t7 -3.5q2 -1 3.5 -1.5t3.5 -1.5v2q2 -1 4.5 -2t4.5 -2q18 -7 37 -13t36 -8h8
q20 0 32 9h-37q-4 0 -9 -0.5t-19 -2.5l-47 47q-5 0 -7 -1q5 17 9.5 33.5t9.5 27.5q-89 30 -151 94l-22 22q-60 48 -94 111.5t-34 130.5q0 18 3 36q7 70 42.5 132.5t87.5 117.5q23 26 51.5 49t62 40t71 27t78.5 10h8q87 -5 154.5 -47t116.5 -102l13 -13q44 -43 74.5 -95
t48.5 -103q-49 5 -107 9.5t-109 6.5l-47 47h-6q0 49 -28 93q-26 13 -56 13h-5q-50 -1 -82 -24t-50 -57t-25 -73t-7 -72q-1 -8 -1 -16v-16zM442 -7q67 -2 129.5 18t111.5 56t81 84.5t39 104.5q-48 0 -94.5 3.5t-94.5 5.5q-3 -26 -16 -52t-34 -46t-50 -32t-65 -10
q-38 -1 -74 11.5t-59 38.5q-34 42 -40.5 91.5t-4.5 98.5q0 34 7 74t26 75t52 58.5t86 24.5q37 1 64.5 -12.5t46.5 -36t28.5 -50t9.5 -54.5q100 -5 198 -15q-18 49 -48.5 99.5t-73.5 92t-99 69t-125 31.5q-82 2 -149.5 -34t-114.5 -89q-51 -54 -85.5 -114.5t-41.5 -129.5
q-9 -60 12 -119t63.5 -107.5t104 -83t133.5 -44.5q-7 -22 -15 -43t-15 -44q13 2 25.5 1.5t25.5 -0.5q10 0 23 -2t24 -6.5t19 -12t9 -17.5q-1 -20 -20.5 -30t-40.5 -8q-27 2 -51 11.5t-47 18.5q-5 -9 -7.5 -18t-7.5 -17q32 -20 68 -32.5t78 -12.5q24 0 47.5 7t42.5 20t32 30
t16 38q4 19 -6 33.5t-27.5 23.5t-39 13t-40.5 2q-8 0 -17 0.5t-19 -1.5q7 9 9.5 19.5t10.5 19.5z" />
    <glyph glyph-name="Eacute" unicode="&#xc9;" horiz-adv-x="759" 
d="M147 67q-2 2 -4 2.5t-4 2.5q-31 73 -46 146t-15 145q0 75 16 152.5t47 153.5q61 29 126.5 43t131.5 14q70 0 139 -15.5t132 -45.5l3 -7l45 -45l7 -18q10 -24 17.5 -46t11.5 -42l-9 -9q-144 36 -292 36q-23 0 -47 -1t-48 -3l-6 -75q12 1 24 1h23q60 0 123.5 -2t124.5 -6
v-6l47 -47q0 -17 0.5 -36.5t0.5 -36.5t-0.5 -36.5t-0.5 -36.5q-45 -2 -91 -3t-88 -1q-41 0 -81.5 0.5t-82.5 1.5v-44t2 -42q18 -1 35 -1h34q71 0 144 9t151 30q-1 -2 -1.5 -4t-1.5 -4l48 -47q-9 -31 -20.5 -62.5t-25.5 -63.5q-58 -29 -123 -43.5t-132 -14.5q-72 0 -140.5 16
t-129.5 48zM697 555q-6 27 -15 52t-19 51q-58 28 -123.5 42.5t-133 15.5t-133.5 -12.5t-125 -41.5q-58 -142 -60.5 -291.5t58.5 -291.5q57 -30 123 -45.5t134 -16t134.5 13t123.5 42.5q11 27 21.5 54.5t18.5 56.5q-97 -27 -197.5 -32t-202.5 2q-4 38 -5 75t-2 75
q44 -1 86.5 -1.5t84.5 -0.5t84.5 1t87.5 3q1 66 0 132q-88 5 -171.5 7t-171.5 -1q0 36 2.5 72t5.5 71q201 16 395 -32zM542 1023q8 -9 17 -18.5t17 -20.5l15 -14q18 -19 36 -40.5t36 -47.5l-42 -15q-58 -21 -115.5 -41t-120.5 -34q-5 4 -9 8l-9 9l-31 30h-1q-17 14 -31.5 30
t-31.5 36q60 29 128 60.5t132 58.5zM536 1015q-64 -27 -126.5 -56t-122.5 -58q21 -27 50 -51q69 16 134 39t131 47q-14 21 -31 40.5t-35 38.5z" />
    <glyph glyph-name="Ntilde" unicode="&#xd1;" horiz-adv-x="860" 
d="M715 662q1 -2 1.5 -4t1.5 -4l44 -43q67 -149 67 -304q0 -73 -16.5 -145.5t-51.5 -143.5q-35 -16 -70 -28.5t-73 -17.5l-48 47h-4q-37 67 -80.5 126t-88.5 119q-2 3 -5 6.5t-5 6.5t-5 6.5t-5 6.5q-20 25 -39.5 50t-37.5 50v-1q-1 -14 -1 -27v-27q0 -177 36 -360
q-38 9 -72 21t-68 28l-44 44q-6 2 -8 4q-32 72 -48 144t-16 144q0 154 70 309q86 40 186 52l9 -15l39 -38q35 -53 73 -105.5t76 -103.5l38 -52t39 -53v9q0 83 -9.5 170t-27.5 178q42 -9 75 -20t63 -24zM706 658q-29 13 -59 23t-62 17q17 -88 26 -174.5t8 -174.5
q-2 -13 0 -24.5t4 -24.5q-69 105 -147 205t-147 205q-93 -12 -173 -48q-64 -141 -67 -291.5t61 -291.5q30 -14 61 -25t65 -19q-39 200 -33 404q0 8 0.5 15.5t0.5 15.5q-1 5 -0.5 11t0.5 12q37 -60 80 -117t86.5 -113.5t85 -114t75.5 -118.5q36 5 69.5 17t65.5 26
q34 70 50 143.5t15.5 148t-17.5 148.5t-48 145zM209 909q3 -4 7 -7zM669 918l47 -46l1 -11q-29 -30 -71.5 -47t-87.5 -22q-23 0 -42 5t-36 11l-18 6q-2 1 -5 1.5t-5 1.5q-10 3 -19.5 5t-18.5 2h-5q-16 0 -32 -5.5t-24 -22.5q-6 4 -16 9.5t-17 9.5q-14 8 -28.5 17t-32.5 27
l-23 23q-12 8 -31 27q35 28 77 45t83 20q26 -1 49.5 -6t45.5 -13q2 -1 4 -1.5t4 -1.5t4 -1q3 0 5 -1t3 -1t3 -1q11 -3 19.5 -5t15.5 -3q17 0 33 10t17 31q7 -2 9 -3t9 -5q20 -11 41.5 -23.5t41.5 -26.5v-5zM662 916q-19 14 -41 26.5t-43 23.5q-1 -18 -20.5 -27t-39.5 -9
q-17 1 -32 6t-29 9q-22 8 -44.5 13t-46.5 6q-39 -3 -77.5 -18t-68.5 -38q17 -17 38.5 -28t41.5 -24q7 15 24.5 20t34.5 5q14 1 27.5 -2.5t27.5 -7.5q22 -7 44.5 -14.5t48.5 -7.5q43 5 85 21.5t70 45.5z" />
    <glyph glyph-name="Odieresis" unicode="&#xd6;" horiz-adv-x="850" 
d="M312 305q0 -33 7 -69.5t25 -68.5q17 -11 38.5 -17t47.5 -6q48 1 78.5 21.5t48 51t24 66.5t6.5 69v24q0 36 -8 77t-31 74q-26 14 -70 17q-49 -1 -81 -22.5t-51 -53.5t-26.5 -69.5t-7.5 -71.5v-22zM199 86q-22 17 -43 39q-24 25 -46 52.5t-38.5 57.5t-26 62t-9.5 66v7
q0 71 35.5 132.5t90.5 114.5q24 24 53 45.5t62 38t69.5 26t75.5 9.5h8q41 0 79 -10.5t71.5 -28t62.5 -41.5t53 -51q7 -8 13 -14.5t12 -14.5l4 -3q5 -5 9.5 -10t9.5 -10q24 -26 45 -53.5t36.5 -57t25 -61.5t9.5 -65v-7q0 -66 -34 -126t-84 -110q-24 -23 -52.5 -45t-61 -39
t-68.5 -27t-75 -10h-13q-40 0 -77 10t-70.5 27.5t-62.5 40t-54 47.5zM428 601q53 -2 86.5 -26t52.5 -59t25 -76t5 -76q1 -35 -5 -74.5t-24.5 -74t-51.5 -57.5t-86 -24q-53 0 -87.5 23t-54.5 58t-27 75.5t-6 75.5q-1 35 6 75.5t26.5 75.5t53.5 59t87 25zM422 9
q40 -2 77.5 7.5t71 26t62.5 39t54 46.5q51 51 84.5 111t31.5 127q0 33 -9 63.5t-24.5 60t-36.5 56.5t-44 52q-23 26 -51.5 49.5t-61 41t-69.5 27.5t-77 10q-40 1 -76.5 -8t-69.5 -25t-62 -37.5t-53 -45.5q-54 -51 -88.5 -111t-34.5 -129q-2 -69 33 -128t84 -110
q24 -24 53 -46.5t61.5 -39.5t69 -27t75.5 -10zM271 852q-29 16 -35 42q5 15 16 26t25.5 19t30.5 13.5t31 8.5h4q21 0 37 -11t24 -26l35 -35q-1 1 -2 1l-1 1l3 -2q19 -19 19 -43v-6q0 -21 -17.5 -40t-43.5 -19q-2 0 -3.5 0.5t-3.5 0.5h-1q-22 3 -46 12t-39 25zM492 834
q-17 9 -26.5 26.5t-9.5 34.5q0 11 4.5 22.5t12.5 21.5t20 16t27 6h8q13 -3 27.5 -7t28 -10t24.5 -15t17 -21l36 -36q12 -12 15 -26q-4 -17 -14.5 -28t-25 -18.5t-30 -12t-29.5 -7.5h-7q-13 0 -23 4.5t-18 12.5zM340 839q13 -2 25 2.5t20 12.5t12.5 18.5t3.5 21.5
q1 21 -15.5 39.5t-44.5 17.5q-14 -3 -29 -8t-28 -11.5t-23 -16t-14 -21.5q3 -12 12.5 -21.5t23 -16t28.5 -11t29 -6.5zM525 837q13 3 28.5 7t29 11t23.5 16.5t13 23.5q-3 13 -13 22.5t-23.5 16t-29 10.5t-28.5 7q-28 2 -43.5 -17t-15.5 -39q0 -21 15.5 -40.5t43.5 -17.5z
" />
    <glyph glyph-name="Udieresis" unicode="&#xdc;" horiz-adv-x="864" 
d="M727 658q2 -6 4 -8l43 -43q70 -145 70 -298q0 -19 -1 -37.5t-3 -36.5q-2 -37 -16 -73t-38 -66q-22 -30 -51 -54t-64 -44q-38 -23 -82 -35t-90 -12h-22q-78 0 -146 32t-118 82l-17 17q-33 26 -61 60q-55 67 -61 146q-2 18 -3 36t-1 37q0 77 18.5 153t52.5 152
q45 20 92.5 32.5t97.5 20.5q-1 -2 -1 -6l48 -48q-24 -182 -24 -354v-43q0 -21 1 -42q0 -17 1.5 -33.5t7.5 -32.5q1 0 1.5 -0.5t2.5 -0.5q41 -16 86 -16q19 0 39.5 2.5t39 9t33.5 17t23 25.5q16 38 16 79q3 48 3 94q0 167 -37 343q42 -9 80 -21t71 -29zM718 654
q-32 16 -65.5 27t-68.5 19q43 -209 31 -424q0 -21 -4 -42t-13 -41q-9 -17 -25 -28.5t-36 -18.5t-41.5 -10t-41.5 -3q-45 0 -90 17q-21 9 -34 23t-20 31t-9.5 35.5t-2.5 36.5q-4 109 2 215.5t20 215.5q-45 -7 -87.5 -18.5t-84.5 -29.5q-40 -90 -57.5 -182t-6.5 -188
q6 -77 58 -141q25 -30 57 -56t69.5 -45t79.5 -29.5t87 -9.5q48 -2 95 10.5t87 35.5q34 20 63 43.5t50 52.5q48 62 53 136q11 94 -6 187t-59 181zM281 852q-29 16 -35 42q5 15 16 26t25.5 19t30.5 13.5t31 8.5h4q21 0 37 -11t24 -26l35 -35q-1 1 -2 1l-1 1l3 -2
q19 -19 19 -43v-6q0 -21 -17.5 -40t-43.5 -19q-2 0 -3.5 0.5t-3.5 0.5h-1q-22 3 -46 12t-39 25zM502 834q-17 9 -26.5 26.5t-9.5 34.5q0 11 4.5 22.5t12.5 21.5t20 16t27 6h8q13 -3 27.5 -7t28 -10t24.5 -15t17 -21l36 -36q12 -12 15 -26q-4 -17 -14.5 -28t-25 -18.5
t-30 -12t-29.5 -7.5h-7q-13 0 -23 4.5t-18 12.5zM350 839q13 -2 25 2.5t20 12.5t12.5 18.5t3.5 21.5q1 21 -15.5 39.5t-44.5 17.5q-14 -3 -29 -8t-28 -11.5t-23 -16t-14 -21.5q3 -12 12.5 -21.5t23 -16t28.5 -11t29 -6.5zM535 837q13 3 28.5 7t29 11t23.5 16.5t13 23.5
q-3 13 -13 22.5t-23.5 16t-29 10.5t-28.5 7q-28 2 -43.5 -17t-15.5 -39q0 -21 15.5 -40.5t43.5 -17.5z" />
    <glyph glyph-name="aacute" unicode="&#xe1;" horiz-adv-x="722" 
d="M396 390q-32 0 -59.5 -14.5t-39.5 -39.5q35 5 71.5 7.5t73.5 4.5v25q0 4 -2 12q-15 5 -30 5h-14zM298 107q10 -3 24 -3h12q21 0 39.5 7.5t33 20t23.5 29t12 33.5q-25 -3 -49.5 -9t-44.5 -16t-33.5 -25t-16.5 -36v-1zM62 363h-8q19 46 49 80t66 56q44 21 89.5 35.5
t92.5 14.5h13q57 -1 108 -19.5t93 -49.5l8 -8q6 -6 9 -8l3 -3q8 -8 16.5 -16t14.5 -18l29 -29q5 -5 10 -11t9 -13q12 -21 20.5 -42.5t10.5 -42.5q2 -17 3.5 -33.5t1.5 -33.5q0 -38 -5.5 -74.5t-16.5 -71.5q-7 -26 -13 -42h-1q-3 -8 -5.5 -16.5t-4.5 -16.5l-4 -4
q-73 -30 -156 -37l-33 33q-26 -19 -57 -31.5t-66 -12.5q-17 0 -33 3q-46 8 -87 28.5t-72 51.5l-22 22q-29 21 -50.5 48.5t-31.5 58.5q-3 10 -3 23q0 22 12 42t30.5 36.5t42 29t46.5 20.5l12 3q-20 1 -38 1h-35zM455 258q0 -12 -0.5 -24t-0.5 -25q0 -21 -9.5 -42t-26 -37.5
t-39.5 -26.5t-50 -9q-36 -2 -61 17t-27 48q4 31 27 49t54.5 28t67 14.5t65.5 7.5zM597 53q5 19 12 37t12 38q15 51 20 103.5t-3 106.5q-2 21 -10.5 42t-19.5 41q-9 15 -22.5 26.5t-26.5 24.5q-40 30 -90 48t-105 19q-48 2 -93 -11t-87 -33q-39 -23 -69.5 -54t-45.5 -68
q42 0 82.5 -1t82.5 -3q2 18 13 33t27.5 25.5t37 15.5t42.5 4q41 2 70.5 -20.5t27.5 -57.5v-15q0 -5 2 -15q-72 -4 -142 -10.5t-139 -26.5q-24 -8 -49 -21.5t-43 -31t-27 -39.5t-2 -46q10 -29 30 -54.5t47 -46t59.5 -34.5t67.5 -20q31 -6 59.5 -1t54 17.5t47 30t38.5 36.5
q-4 -19 -3.5 -37t-0.5 -37q78 7 146 35zM523 851q8 -9 17 -18.5t17 -20.5l15 -14q18 -19 36 -40.5t36 -47.5l-42 -15q-58 -21 -115.5 -41t-120.5 -34q-5 4 -9 8l-9 9l-31 30h-1q-17 14 -31.5 30t-31.5 36q60 29 128 60.5t132 58.5zM517 843q-64 -27 -126.5 -56t-122.5 -58
q21 -27 50 -51q69 16 134 39t131 47q-14 21 -31 40.5t-35 38.5z" />
    <glyph glyph-name="agrave" unicode="&#xe0;" horiz-adv-x="722" 
d="M396 390q-32 0 -59.5 -14.5t-39.5 -39.5q35 5 71.5 7.5t73.5 4.5v25q0 4 -2 12q-15 5 -30 5h-14zM298 107q10 -3 24 -3h12q21 0 39.5 7.5t33 20t23.5 29t12 33.5q-25 -3 -49.5 -9t-44.5 -16t-33.5 -25t-16.5 -36v-1zM62 363h-8q19 46 49 80t66 56q44 21 89.5 35.5
t92.5 14.5h13q57 -1 108 -19.5t93 -49.5l8 -8q6 -6 9 -8l3 -3q8 -8 16.5 -16t14.5 -18l29 -29q5 -5 10 -11t9 -13q12 -21 20.5 -42.5t10.5 -42.5q2 -17 3.5 -33.5t1.5 -33.5q0 -38 -5.5 -74.5t-16.5 -71.5q-7 -26 -13 -42h-1q-3 -8 -5.5 -16.5t-4.5 -16.5l-4 -4
q-73 -30 -156 -37l-33 33q-26 -19 -57 -31.5t-66 -12.5q-17 0 -33 3q-46 8 -87 28.5t-72 51.5l-22 22q-29 21 -50.5 48.5t-31.5 58.5q-3 10 -3 23q0 22 12 42t30.5 36.5t42 29t46.5 20.5l12 3q-20 1 -38 1h-35zM455 258q0 -12 -0.5 -24t-0.5 -25q0 -21 -9.5 -42t-26 -37.5
t-39.5 -26.5t-50 -9q-36 -2 -61 17t-27 48q4 31 27 49t54.5 28t67 14.5t65.5 7.5zM597 53q5 19 12 37t12 38q15 51 20 103.5t-3 106.5q-2 21 -10.5 42t-19.5 41q-9 15 -22.5 26.5t-26.5 24.5q-40 30 -90 48t-105 19q-48 2 -93 -11t-87 -33q-39 -23 -69.5 -54t-45.5 -68
q42 0 82.5 -1t82.5 -3q2 18 13 33t27.5 25.5t37 15.5t42.5 4q41 2 70.5 -20.5t27.5 -57.5v-15q0 -5 2 -15q-72 -4 -142 -10.5t-139 -26.5q-24 -8 -49 -21.5t-43 -31t-27 -39.5t-2 -46q10 -29 30 -54.5t47 -46t59.5 -34.5t67.5 -20q31 -6 59.5 -1t54 17.5t47 30t38.5 36.5
q-4 -19 -3.5 -37t-0.5 -37q78 7 146 35zM226 854q63 -26 131 -58t129 -61q-1 -1 -1.5 -2t-1.5 -2l48 -47q-14 -17 -28 -33t-33 -31q-70 21 -138 43.5t-135 48.5l-46 45q-2 1 -4.5 2t-4.5 2q14 23 31.5 43.5t35.5 40.5l3 3q1 1 2 2.5t2 2.5zM222 845q-17 -19 -34.5 -38.5
t-29.5 -40.5q64 -25 129 -46.5t132 -41.5q15 12 27.5 25.5t23.5 28.5q-61 29 -123 58t-125 55z" />
    <glyph glyph-name="acircumflex" unicode="&#xe2;" horiz-adv-x="722" 
d="M396 390q-32 0 -59.5 -14.5t-39.5 -39.5q35 5 71.5 7.5t73.5 4.5v25q0 4 -2 12q-15 5 -30 5h-14zM298 107q10 -3 24 -3h12q21 0 39.5 7.5t33 20t23.5 29t12 33.5q-25 -3 -49.5 -9t-44.5 -16t-33.5 -25t-16.5 -36v-1zM62 363h-8q19 46 49 80t66 56q44 21 89.5 35.5
t92.5 14.5h13q57 -1 108 -19.5t93 -49.5l8 -8q6 -6 9 -8l3 -3q8 -8 16.5 -16t14.5 -18l29 -29q5 -5 10 -11t9 -13q12 -21 20.5 -42.5t10.5 -42.5q2 -17 3.5 -33.5t1.5 -33.5q0 -38 -5.5 -74.5t-16.5 -71.5q-7 -26 -13 -42h-1q-3 -8 -5.5 -16.5t-4.5 -16.5l-4 -4
q-73 -30 -156 -37l-33 33q-26 -19 -57 -31.5t-66 -12.5q-17 0 -33 3q-46 8 -87 28.5t-72 51.5l-22 22q-29 21 -50.5 48.5t-31.5 58.5q-3 10 -3 23q0 22 12 42t30.5 36.5t42 29t46.5 20.5l12 3q-20 1 -38 1h-35zM455 258q0 -12 -0.5 -24t-0.5 -25q0 -21 -9.5 -42t-26 -37.5
t-39.5 -26.5t-50 -9q-36 -2 -61 17t-27 48q4 31 27 49t54.5 28t67 14.5t65.5 7.5zM597 53q5 19 12 37t12 38q15 51 20 103.5t-3 106.5q-2 21 -10.5 42t-19.5 41q-9 15 -22.5 26.5t-26.5 24.5q-40 30 -90 48t-105 19q-48 2 -93 -11t-87 -33q-39 -23 -69.5 -54t-45.5 -68
q42 0 82.5 -1t82.5 -3q2 18 13 33t27.5 25.5t37 15.5t42.5 4q41 2 70.5 -20.5t27.5 -57.5v-15q0 -5 2 -15q-72 -4 -142 -10.5t-139 -26.5q-24 -8 -49 -21.5t-43 -31t-27 -39.5t-2 -46q10 -29 30 -54.5t47 -46t59.5 -34.5t67.5 -20q31 -6 59.5 -1t54 17.5t47 30t38.5 36.5
q-4 -19 -3.5 -37t-0.5 -37q78 7 146 35zM152 675q-4 0 -8 2q39 47 77.5 75t76.5 51q16 10 34 20.5t32 20.5q5 -5 25 -16.5t40 -24.5h-1q3 -2 5.5 -3.5t5.5 -3.5q36 -23 71 -47t61 -59l26 -25q15 -15 24 -28l-4 -11q-25 -8 -54.5 -12t-61.5 -7l-21 21q-11 9 -23.5 17
t-24.5 16q-5 3 -9 5.5t-9 5.5l-18 -12q-19 -13 -38 -25.5t-34 -26.5q-29 4 -63.5 10t-61.5 11zM565 683q-17 24 -41 43.5t-51 36.5t-55.5 34t-53.5 35q-26 -18 -53.5 -34.5t-54.5 -34t-51.5 -37t-43.5 -42.5q27 -5 54.5 -10t56.5 -9q20 19 44.5 34.5t47.5 31.5
q23 -16 47.5 -31.5t42.5 -35.5q29 3 56.5 7t54.5 12z" />
    <glyph glyph-name="adieresis" unicode="&#xe4;" horiz-adv-x="722" 
d="M396 390q-32 0 -59.5 -14.5t-39.5 -39.5q35 5 71.5 7.5t73.5 4.5v25q0 4 -2 12q-15 5 -30 5h-14zM298 107q10 -3 24 -3h12q21 0 39.5 7.5t33 20t23.5 29t12 33.5q-25 -3 -49.5 -9t-44.5 -16t-33.5 -25t-16.5 -36v-1zM62 363h-8q19 46 49 80t66 56q44 21 89.5 35.5
t92.5 14.5h13q57 -1 108 -19.5t93 -49.5l8 -8q6 -6 9 -8l3 -3q8 -8 16.5 -16t14.5 -18l29 -29q5 -5 10 -11t9 -13q12 -21 20.5 -42.5t10.5 -42.5q2 -17 3.5 -33.5t1.5 -33.5q0 -38 -5.5 -74.5t-16.5 -71.5q-7 -26 -13 -42h-1q-3 -8 -5.5 -16.5t-4.5 -16.5l-4 -4
q-73 -30 -156 -37l-33 33q-26 -19 -57 -31.5t-66 -12.5q-17 0 -33 3q-46 8 -87 28.5t-72 51.5l-22 22q-29 21 -50.5 48.5t-31.5 58.5q-3 10 -3 23q0 22 12 42t30.5 36.5t42 29t46.5 20.5l12 3q-20 1 -38 1h-35zM455 258q0 -12 -0.5 -24t-0.5 -25q0 -21 -9.5 -42t-26 -37.5
t-39.5 -26.5t-50 -9q-36 -2 -61 17t-27 48q4 31 27 49t54.5 28t67 14.5t65.5 7.5zM597 53q5 19 12 37t12 38q15 51 20 103.5t-3 106.5q-2 21 -10.5 42t-19.5 41q-9 15 -22.5 26.5t-26.5 24.5q-40 30 -90 48t-105 19q-48 2 -93 -11t-87 -33q-39 -23 -69.5 -54t-45.5 -68
q42 0 82.5 -1t82.5 -3q2 18 13 33t27.5 25.5t37 15.5t42.5 4q41 2 70.5 -20.5t27.5 -57.5v-15q0 -5 2 -15q-72 -4 -142 -10.5t-139 -26.5q-24 -8 -49 -21.5t-43 -31t-27 -39.5t-2 -46q10 -29 30 -54.5t47 -46t59.5 -34.5t67.5 -20q31 -6 59.5 -1t54 17.5t47 30t38.5 36.5
q-4 -19 -3.5 -37t-0.5 -37q78 7 146 35zM202 680q-29 16 -35 42q5 15 16 26t25.5 19t30.5 13.5t31 8.5h4q21 0 37 -11t24 -26l35 -35q-1 1 -2 1l-1 1l3 -2q19 -19 19 -43v-6q0 -21 -17.5 -40t-43.5 -19q-2 0 -3.5 0.5t-3.5 0.5h-1q-22 3 -46 12t-39 25zM423 662
q-17 9 -26.5 26.5t-9.5 34.5q0 11 4.5 22.5t12.5 21.5t20 16t27 6h8q13 -3 27.5 -7t28 -10t24.5 -15t17 -21l36 -36q12 -12 15 -26q-4 -17 -14.5 -28t-25 -18.5t-30 -12t-29.5 -7.5h-7q-13 0 -23 4.5t-18 12.5zM271 667q13 -2 25 2.5t20 12.5t12.5 18.5t3.5 21.5
q1 21 -15.5 39.5t-44.5 17.5q-14 -3 -29 -8t-28 -11.5t-23 -16t-14 -21.5q3 -12 12.5 -21.5t23 -16t28.5 -11t29 -6.5zM456 665q13 3 28.5 7t29 11t23.5 16.5t13 23.5q-3 13 -13 22.5t-23.5 16t-29 10.5t-28.5 7q-28 2 -43.5 -17t-15.5 -39q0 -21 15.5 -40.5t43.5 -17.5z
" />
    <glyph glyph-name="atilde" unicode="&#xe3;" horiz-adv-x="722" 
d="M396 390q-32 0 -59.5 -14.5t-39.5 -39.5q35 5 71.5 7.5t73.5 4.5v25q0 4 -2 12q-15 5 -30 5h-14zM298 107q10 -3 24 -3h12q21 0 39.5 7.5t33 20t23.5 29t12 33.5q-25 -3 -49.5 -9t-44.5 -16t-33.5 -25t-16.5 -36v-1zM62 363h-8q19 46 49 80t66 56q44 21 89.5 35.5
t92.5 14.5h13q57 -1 108 -19.5t93 -49.5l8 -8q6 -6 9 -8l3 -3q8 -8 16.5 -16t14.5 -18l29 -29q5 -5 10 -11t9 -13q12 -21 20.5 -42.5t10.5 -42.5q2 -17 3.5 -33.5t1.5 -33.5q0 -38 -5.5 -74.5t-16.5 -71.5q-7 -26 -13 -42h-1q-3 -8 -5.5 -16.5t-4.5 -16.5l-4 -4
q-73 -30 -156 -37l-33 33q-26 -19 -57 -31.5t-66 -12.5q-17 0 -33 3q-46 8 -87 28.5t-72 51.5l-22 22q-29 21 -50.5 48.5t-31.5 58.5q-3 10 -3 23q0 22 12 42t30.5 36.5t42 29t46.5 20.5l12 3q-20 1 -38 1h-35zM455 258q0 -12 -0.5 -24t-0.5 -25q0 -21 -9.5 -42t-26 -37.5
t-39.5 -26.5t-50 -9q-36 -2 -61 17t-27 48q4 31 27 49t54.5 28t67 14.5t65.5 7.5zM597 53q5 19 12 37t12 38q15 51 20 103.5t-3 106.5q-2 21 -10.5 42t-19.5 41q-9 15 -22.5 26.5t-26.5 24.5q-40 30 -90 48t-105 19q-48 2 -93 -11t-87 -33q-39 -23 -69.5 -54t-45.5 -68
q42 0 82.5 -1t82.5 -3q2 18 13 33t27.5 25.5t37 15.5t42.5 4q41 2 70.5 -20.5t27.5 -57.5v-15q0 -5 2 -15q-72 -4 -142 -10.5t-139 -26.5q-24 -8 -49 -21.5t-43 -31t-27 -39.5t-2 -46q10 -29 30 -54.5t47 -46t59.5 -34.5t67.5 -20q31 -6 59.5 -1t54 17.5t47 30t38.5 36.5
q-4 -19 -3.5 -37t-0.5 -37q78 7 146 35zM136 737q3 -4 7 -7zM596 746l47 -46l1 -11q-29 -30 -71.5 -47t-87.5 -22q-23 0 -42 5t-36 11l-18 6q-2 1 -5 1.5t-5 1.5q-10 3 -19.5 5t-18.5 2h-5q-16 0 -32 -5.5t-24 -22.5q-6 4 -16 9.5t-17 9.5q-14 8 -28.5 17t-32.5 27l-23 23
q-12 8 -31 27q35 28 77 45t83 20q26 -1 49.5 -6t45.5 -13q2 -1 4 -1.5t4 -1.5t4 -1q3 0 5 -1t3 -1t3 -1q11 -3 19.5 -5t15.5 -3q17 0 33 10t17 31q7 -2 9 -3t9 -5q20 -11 41.5 -23.5t41.5 -26.5v-5zM589 744q-19 14 -41 26.5t-43 23.5q-1 -18 -20.5 -27t-39.5 -9
q-17 1 -32 6t-29 9q-22 8 -44.5 13t-46.5 6q-39 -3 -77.5 -18t-68.5 -38q17 -17 38.5 -28t41.5 -24q7 15 24.5 20t34.5 5q14 1 27.5 -2.5t27.5 -7.5q22 -7 44.5 -14.5t48.5 -7.5q43 5 85 21.5t70 45.5z" />
    <glyph glyph-name="aring" unicode="&#xe5;" horiz-adv-x="722" 
d="M404 746q-19 -3 -30 -16q19 3 30 16zM329 107l27 25l-38 -18zM317 331l126 17l-1 10l-38 30zM282 683q-22 14 -36 34t-16 44q3 20 15 38.5t30.5 33t41 24t46.5 11.5q37 -3 72 -23.5t53 -50.5l29 -28q12 -12 20.5 -26t10.5 -29q-3 -21 -15.5 -39t-31 -32t-41.5 -22.5
t-47 -9.5h-1q-28 2 -54.5 14t-45.5 31zM56 363h-10l134 142l184 45l200 -69l53 -56v-2l47 -49l31 -85l-17 -213l-25 -79l-160 -38l-48 47l-5 -1v3l-136 -57l-212 162l-37 37l-17 13l130 149l18 2l-83 2zM454 209l-125 -115l-88 65l214 99zM621 128l17 210l-30 83l-49 51
l-195 67l-180 -44l-115 -122l165 -4l120 78l98 -78l2 -30l-281 -37l-121 -138l204 -155l199 83l-4 -74l146 35zM364 720q-20 -1 -37 11.5t-19 29.5q0 17 18 30t38 12q21 0 38 -12.5t19 -30.5q-2 -18 -19 -29.5t-38 -10.5zM363 665q23 1 45 9t39.5 21t29 30t14.5 36
q-3 18 -15 35t-30 30t-39.5 21.5t-43.5 10.5q-22 -2 -43 -10.5t-37.5 -21.5t-28 -30t-14.5 -35q2 -19 13 -36t28.5 -29.5t38.5 -20.5t43 -10z" />
    <glyph glyph-name="ccedilla" unicode="&#xe7;" horiz-adv-x="681" 
d="M664 207q0 -2 -0.5 -3t-0.5 -3l48 -47q-2 -44 -23.5 -81t-56 -65.5t-78.5 -46.5t-91 -24q11 -9 17 -20l38 -38q15 -15 15 -36q0 -2 -0.5 -4.5t-0.5 -4.5q-2 -19 -13.5 -35.5t-28.5 -29t-39 -20t-44 -7.5h-6q-35 1 -68 13t-62 31l-38 38q-5 2 -8.5 5t-7.5 5l6 15t6 16
q1 2 1.5 5t2.5 6l2.5 5t3.5 10q34 -20 65 -29l-42 42h-8q6 14 11.5 26t9.5 20q0 1 0.5 1.5t0.5 1.5q-35 12 -64.5 31t-52.5 42l-23 22q-46 35 -72.5 82t-26.5 99q0 8 0.5 14.5t1.5 13.5q6 56 37 103.5t73 88.5q38 40 92 67t118 27h11q57 -1 101 -25.5t80 -56.5
q27 -25 48 -52l18 -17q28 -28 50.5 -61.5t34.5 -74.5q-47 8 -91.5 12t-86.5 6l-47 47h-6q-2 11 -5 22.5t-9 22.5q-15 6 -32 6h-4q-31 0 -52 -13t-33.5 -33t-18 -44t-5.5 -45v-16q0 -23 0.5 -45t8.5 -42q11 -5 24 -6.5t27 -1.5h9q20 0 37 8t29 21.5t19 30.5t8 35q5 0 12 -0.5
t12 -0.5q20 -2 40 -3t37 -3q10 -1 21 -2l22 -2t23.5 -1.5t23.5 -1.5zM371 -9q51 0 101 15t90 42.5t65 65.5t27 83q-43 3 -84.5 7t-86.5 7q-1 -18 -9.5 -36t-23 -31.5t-35 -21.5t-44.5 -6q-25 0 -47 6.5t-37 21.5q-26 29 -29.5 64.5t-3.5 69.5q-1 23 4 50t19 49.5t37.5 37.5
t59.5 14q24 0 42.5 -9t32 -23t21 -31.5t9.5 -34.5q40 -2 81 -5.5t81 -10.5q-11 39 -38.5 74.5t-59.5 64.5q-35 31 -77.5 54.5t-96.5 24.5q-66 3 -121 -24t-93 -67q-42 -40 -71.5 -86t-35.5 -100q-8 -48 10 -93t53.5 -81t85.5 -59.5t107 -29.5q-7 -20 -17.5 -39.5
t-18.5 -39.5q8 0 18 0.5t18 -0.5q10 0 22 -2t22 -6t17 -11t8 -17q1 -16 -14.5 -24t-32.5 -7q-23 2 -43.5 10t-39.5 19q-4 -10 -7 -19.5t-7 -17.5q26 -17 57 -28t64 -12q22 -1 43.5 5.5t38.5 18t28.5 28t13.5 34.5q3 18 -6 31t-24.5 21.5t-35 12t-36.5 3.5q-6 -2 -10.5 -1.5
t-10.5 -1.5q4 11 9.5 20.5t10.5 20.5z" />
    <glyph glyph-name="eacute" unicode="&#xe9;" 
d="M410 390q-29 0 -50.5 -11.5t-36.5 -28.5h50t50 -1q8 0 15 -0.5t15 -0.5h19q-3 16 -13 35q-19 7 -35 7h-14zM298 164q0 -17 6 -32q29 -16 61 -16h16q35 0 63.5 20t38.5 50h-186v-6q0 -6 1 -10v-6zM154 69q-51 38 -83.5 89.5t-38.5 107.5v3q0 54 30.5 102t75.5 86h-1
q45 38 101 65.5t120 27.5h6q60 0 110.5 -26t92.5 -59q32 -27 56 -59l19 -18q38 -39 61 -84.5t23 -95.5v-12l-7 -7q-10 -1 -20 -1t-20 -1l42 -41q-23 -38 -54 -73.5t-70 -63.5t-85 -45t-98 -17q-72 2 -135 31t-109 75zM241 339q2 21 11.5 41t26 35.5t39 24.5t51.5 7
q25 1 46.5 -8.5t36.5 -25.5t23.5 -36t8.5 -39q-61 1 -121.5 2t-121.5 -1zM669 246q4 61 -26.5 115t-81.5 97q-42 32 -91 57.5t-109 24.5q-63 1 -116 -24t-95 -61q-46 -36 -77.5 -84.5t-30.5 -103.5q6 -50 34 -96.5t71.5 -83t99 -59t117.5 -24.5q51 0 95.5 16t81.5 42
t66.5 59t50.5 68q-20 -1 -41 -1.5t-41 -0.5h-41q-20 0 -40 1q-3 -18 -14 -33.5t-27.5 -26.5t-37 -17t-42.5 -5q-28 -2 -52.5 6.5t-43 24.5t-28.5 37t-9 44q-1 12 0 25q109 0 215.5 -0.5t212.5 3.5zM483 851q8 -9 17 -18.5t17 -20.5l15 -14q18 -19 36 -40.5t36 -47.5l-42 -15
q-58 -21 -115.5 -41t-120.5 -34q-5 4 -9 8l-9 9l-31 30h-1q-17 14 -31.5 30t-31.5 36q60 29 128 60.5t132 58.5zM477 843q-64 -27 -126.5 -56t-122.5 -58q21 -27 50 -51q69 16 134 39t131 47q-14 21 -31 40.5t-35 38.5z" />
    <glyph glyph-name="egrave" unicode="&#xe8;" 
d="M410 390q-29 0 -50.5 -11.5t-36.5 -28.5h50t50 -1q8 0 15 -0.5t15 -0.5h19q-3 16 -13 35q-19 7 -35 7h-14zM298 164q0 -17 6 -32q29 -16 61 -16h16q35 0 63.5 20t38.5 50h-186v-6q0 -6 1 -10v-6zM154 69q-51 38 -83.5 89.5t-38.5 107.5v3q0 54 30.5 102t75.5 86h-1
q45 38 101 65.5t120 27.5h6q60 0 110.5 -26t92.5 -59q32 -27 56 -59l19 -18q38 -39 61 -84.5t23 -95.5v-12l-7 -7q-10 -1 -20 -1t-20 -1l42 -41q-23 -38 -54 -73.5t-70 -63.5t-85 -45t-98 -17q-72 2 -135 31t-109 75zM241 339q2 21 11.5 41t26 35.5t39 24.5t51.5 7
q25 1 46.5 -8.5t36.5 -25.5t23.5 -36t8.5 -39q-61 1 -121.5 2t-121.5 -1zM669 246q4 61 -26.5 115t-81.5 97q-42 32 -91 57.5t-109 24.5q-63 1 -116 -24t-95 -61q-46 -36 -77.5 -84.5t-30.5 -103.5q6 -50 34 -96.5t71.5 -83t99 -59t117.5 -24.5q51 0 95.5 16t81.5 42
t66.5 59t50.5 68q-20 -1 -41 -1.5t-41 -0.5h-41q-20 0 -40 1q-3 -18 -14 -33.5t-27.5 -26.5t-37 -17t-42.5 -5q-28 -2 -52.5 6.5t-43 24.5t-28.5 37t-9 44q-1 12 0 25q109 0 215.5 -0.5t212.5 3.5zM260 854q63 -26 131 -58t129 -61q-1 -1 -1.5 -2t-1.5 -2l48 -47
q-14 -17 -28 -33t-33 -31q-70 21 -138 43.5t-135 48.5l-46 45q-2 1 -4.5 2t-4.5 2q14 23 31.5 43.5t35.5 40.5l3 3q1 1 2 2.5t2 2.5zM256 845q-17 -19 -34.5 -38.5t-29.5 -40.5q64 -25 129 -46.5t132 -41.5q15 12 27.5 25.5t23.5 28.5q-61 29 -123 58t-125 55z" />
    <glyph glyph-name="ecircumflex" unicode="&#xea;" 
d="M410 390q-29 0 -50.5 -11.5t-36.5 -28.5h50t50 -1q8 0 15 -0.5t15 -0.5h19q-3 16 -13 35q-19 7 -35 7h-14zM298 164q0 -17 6 -32q29 -16 61 -16h16q35 0 63.5 20t38.5 50h-186v-6q0 -6 1 -10v-6zM154 69q-51 38 -83.5 89.5t-38.5 107.5v3q0 54 30.5 102t75.5 86h-1
q45 38 101 65.5t120 27.5h6q60 0 110.5 -26t92.5 -59q32 -27 56 -59l19 -18q38 -39 61 -84.5t23 -95.5v-12l-7 -7q-10 -1 -20 -1t-20 -1l42 -41q-23 -38 -54 -73.5t-70 -63.5t-85 -45t-98 -17q-72 2 -135 31t-109 75zM241 339q2 21 11.5 41t26 35.5t39 24.5t51.5 7
q25 1 46.5 -8.5t36.5 -25.5t23.5 -36t8.5 -39q-61 1 -121.5 2t-121.5 -1zM669 246q4 61 -26.5 115t-81.5 97q-42 32 -91 57.5t-109 24.5q-63 1 -116 -24t-95 -61q-46 -36 -77.5 -84.5t-30.5 -103.5q6 -50 34 -96.5t71.5 -83t99 -59t117.5 -24.5q51 0 95.5 16t81.5 42
t66.5 59t50.5 68q-20 -1 -41 -1.5t-41 -0.5h-41q-20 0 -40 1q-3 -18 -14 -33.5t-27.5 -26.5t-37 -17t-42.5 -5q-28 -2 -52.5 6.5t-43 24.5t-28.5 37t-9 44q-1 12 0 25q109 0 215.5 -0.5t212.5 3.5zM152 675q-4 0 -8 2q39 47 77.5 75t76.5 51q16 10 34 20.5t32 20.5
q5 -5 25 -16.5t40 -24.5h-1q3 -2 5.5 -3.5t5.5 -3.5q36 -23 71 -47t61 -59l26 -25q15 -15 24 -28l-4 -11q-25 -8 -54.5 -12t-61.5 -7l-21 21q-11 9 -23.5 17t-24.5 16q-5 3 -9 5.5t-9 5.5l-18 -12q-19 -13 -38 -25.5t-34 -26.5q-29 4 -63.5 10t-61.5 11zM565 683
q-17 24 -41 43.5t-51 36.5t-55.5 34t-53.5 35q-26 -18 -53.5 -34.5t-54.5 -34t-51.5 -37t-43.5 -42.5q27 -5 54.5 -10t56.5 -9q20 19 44.5 34.5t47.5 31.5q23 -16 47.5 -31.5t42.5 -35.5q29 3 56.5 7t54.5 12z" />
    <glyph glyph-name="edieresis" unicode="&#xeb;" 
d="M410 390q-29 0 -50.5 -11.5t-36.5 -28.5h50t50 -1q8 0 15 -0.5t15 -0.5h19q-3 16 -13 35q-19 7 -35 7h-14zM298 164q0 -17 6 -32q29 -16 61 -16h16q35 0 63.5 20t38.5 50h-186v-6q0 -6 1 -10v-6zM154 69q-51 38 -83.5 89.5t-38.5 107.5v3q0 54 30.5 102t75.5 86h-1
q45 38 101 65.5t120 27.5h6q60 0 110.5 -26t92.5 -59q32 -27 56 -59l19 -18q38 -39 61 -84.5t23 -95.5v-12l-7 -7q-10 -1 -20 -1t-20 -1l42 -41q-23 -38 -54 -73.5t-70 -63.5t-85 -45t-98 -17q-72 2 -135 31t-109 75zM241 339q2 21 11.5 41t26 35.5t39 24.5t51.5 7
q25 1 46.5 -8.5t36.5 -25.5t23.5 -36t8.5 -39q-61 1 -121.5 2t-121.5 -1zM669 246q4 61 -26.5 115t-81.5 97q-42 32 -91 57.5t-109 24.5q-63 1 -116 -24t-95 -61q-46 -36 -77.5 -84.5t-30.5 -103.5q6 -50 34 -96.5t71.5 -83t99 -59t117.5 -24.5q51 0 95.5 16t81.5 42
t66.5 59t50.5 68q-20 -1 -41 -1.5t-41 -0.5h-41q-20 0 -40 1q-3 -18 -14 -33.5t-27.5 -26.5t-37 -17t-42.5 -5q-28 -2 -52.5 6.5t-43 24.5t-28.5 37t-9 44q-1 12 0 25q109 0 215.5 -0.5t212.5 3.5zM211 680q-29 16 -35 42q5 15 16 26t25.5 19t30.5 13.5t31 8.5h4
q21 0 37 -11t24 -26l35 -35q-1 1 -2 1l-1 1l3 -2q19 -19 19 -43v-6q0 -21 -17.5 -40t-43.5 -19q-2 0 -3.5 0.5t-3.5 0.5h-1q-22 3 -46 12t-39 25zM432 662q-17 9 -26.5 26.5t-9.5 34.5q0 11 4.5 22.5t12.5 21.5t20 16t27 6h8q13 -3 27.5 -7t28 -10t24.5 -15t17 -21l36 -36
q12 -12 15 -26q-4 -17 -14.5 -28t-25 -18.5t-30 -12t-29.5 -7.5h-7q-13 0 -23 4.5t-18 12.5zM280 667q13 -2 25 2.5t20 12.5t12.5 18.5t3.5 21.5q1 21 -15.5 39.5t-44.5 17.5q-14 -3 -29 -8t-28 -11.5t-23 -16t-14 -21.5q3 -12 12.5 -21.5t23 -16t28.5 -11t29 -6.5zM465 665
q13 3 28.5 7t29 11t23.5 16.5t13 23.5q-3 13 -13 22.5t-23.5 16t-29 10.5t-28.5 7q-28 2 -43.5 -17t-15.5 -39q0 -21 15.5 -40.5t43.5 -17.5z" />
    <glyph glyph-name="iacute" unicode="&#xed;" horiz-adv-x="352" 
d="M265 489v-3l32 -31l7.5 -7.5t6.5 -7.5l1 -3q9 -56 14 -111.5t5 -112.5q0 -54 -4.5 -106t-14.5 -105q-13 -23 -35.5 -33.5t-46.5 -10.5q-20 0 -40 7.5t-34 21.5l-35 34q-21 13 -33 36q-18 106 -18 216q0 111 18 222q17 17 39.5 30t57.5 15q25 -2 45 -17t34 -33zM255 486
q-12 16 -30 29t-41 15q-32 -2 -52 -13.5t-34 -25.5q-17 -109 -17.5 -216t17.5 -216q11 -21 32.5 -32t45.5 -12t45.5 8.5t33.5 29.5q20 109 19 216.5t-19 216.5zM319 851q8 -9 17 -18.5t17 -20.5l15 -14q18 -19 36 -40.5t36 -47.5l-42 -15q-58 -21 -115.5 -41t-120.5 -34
q-5 4 -9 8l-9 9l-31 30h-1q-17 14 -31.5 30t-31.5 36q60 29 128 60.5t132 58.5zM313 843q-64 -27 -126.5 -56t-122.5 -58q21 -27 50 -51q69 16 134 39t131 47q-14 21 -31 40.5t-35 38.5z" />
    <glyph glyph-name="igrave" unicode="&#xec;" horiz-adv-x="352" 
d="M265 489v-3l32 -31l7.5 -7.5t6.5 -7.5l1 -3q9 -56 14 -111.5t5 -112.5q0 -54 -4.5 -106t-14.5 -105q-13 -23 -35.5 -33.5t-46.5 -10.5q-20 0 -40 7.5t-34 21.5l-35 34q-21 13 -33 36q-18 106 -18 216q0 111 18 222q17 17 39.5 30t57.5 15q25 -2 45 -17t34 -33zM255 486
q-12 16 -30 29t-41 15q-32 -2 -52 -13.5t-34 -25.5q-17 -109 -17.5 -216t17.5 -216q11 -21 32.5 -32t45.5 -12t45.5 8.5t33.5 29.5q20 109 19 216.5t-19 216.5zM60 854q63 -26 131 -58t129 -61q-1 -1 -1.5 -2t-1.5 -2l48 -47q-14 -17 -28 -33t-33 -31q-70 21 -138 43.5
t-135 48.5l-46 45q-2 1 -4.5 2t-4.5 2q14 23 31.5 43.5t35.5 40.5l3 3q1 1 2 2.5t2 2.5zM56 845q-17 -19 -34.5 -38.5t-29.5 -40.5q64 -25 129 -46.5t132 -41.5q15 12 27.5 25.5t23.5 28.5q-61 29 -123 58t-125 55z" />
    <glyph glyph-name="icircumflex" unicode="&#xee;" horiz-adv-x="352" 
d="M265 489v-3l32 -31l7.5 -7.5t6.5 -7.5l1 -3q9 -56 14 -111.5t5 -112.5q0 -54 -4.5 -106t-14.5 -105q-13 -23 -35.5 -33.5t-46.5 -10.5q-20 0 -40 7.5t-34 21.5l-35 34q-21 13 -33 36q-18 106 -18 216q0 111 18 222q17 17 39.5 30t57.5 15q25 -2 45 -17t34 -33zM255 486
q-12 16 -30 29t-41 15q-32 -2 -52 -13.5t-34 -25.5q-17 -109 -17.5 -216t17.5 -216q11 -21 32.5 -32t45.5 -12t45.5 8.5t33.5 29.5q20 109 19 216.5t-19 216.5zM-34 675q-4 0 -8 2q39 47 77.5 75t76.5 51q16 10 34 20.5t32 20.5q5 -5 25 -16.5t40 -24.5h-1q3 -2 5.5 -3.5
t5.5 -3.5q36 -23 71 -47t61 -59l26 -25q15 -15 24 -28l-4 -11q-25 -8 -54.5 -12t-61.5 -7l-21 21q-11 9 -23.5 17t-24.5 16q-5 3 -9 5.5t-9 5.5l-18 -12q-19 -13 -38 -25.5t-34 -26.5q-29 4 -63.5 10t-61.5 11zM379 683q-17 24 -41 43.5t-51 36.5t-55.5 34t-53.5 35
q-26 -18 -53.5 -34.5t-54.5 -34t-51.5 -37t-43.5 -42.5q27 -5 54.5 -10t56.5 -9q20 19 44.5 34.5t47.5 31.5q23 -16 47.5 -31.5t42.5 -35.5q29 3 56.5 7t54.5 12z" />
    <glyph glyph-name="idieresis" unicode="&#xef;" horiz-adv-x="352" 
d="M266 489v-3l32 -31l7.5 -7.5t6.5 -7.5l1 -3q9 -56 14 -111.5t5 -112.5q0 -54 -4.5 -106t-14.5 -105q-13 -23 -35.5 -33.5t-46.5 -10.5q-20 0 -40 7.5t-34 21.5l-35 34q-21 13 -33 36q-18 106 -18 216q0 111 18 222q17 17 39.5 30t57.5 15q25 -2 45 -17t34 -33zM256 486
q-12 16 -30 29t-41 15q-32 -2 -52 -13.5t-34 -25.5q-17 -109 -17.5 -216t17.5 -216q11 -21 32.5 -32t45.5 -12t45.5 8.5t33.5 29.5q20 109 19 216.5t-19 216.5zM29 680q-29 16 -35 42q5 15 16 26t25.5 19t30.5 13.5t31 8.5h4q21 0 37 -11t24 -26l35 -35q-1 1 -2 1l-1 1l3 -2
q19 -19 19 -43v-6q0 -21 -17.5 -40t-43.5 -19q-2 0 -3.5 0.5t-3.5 0.5h-1q-22 3 -46 12t-39 25zM250 662q-17 9 -26.5 26.5t-9.5 34.5q0 11 4.5 22.5t12.5 21.5t20 16t27 6h8q13 -3 27.5 -7t28 -10t24.5 -15t17 -21l36 -36q12 -12 15 -26q-4 -17 -14.5 -28t-25 -18.5
t-30 -12t-29.5 -7.5h-7q-13 0 -23 4.5t-18 12.5zM98 667q13 -2 25 2.5t20 12.5t12.5 18.5t3.5 21.5q1 21 -15.5 39.5t-44.5 17.5q-14 -3 -29 -8t-28 -11.5t-23 -16t-14 -21.5q3 -12 12.5 -21.5t23 -16t28.5 -11t29 -6.5zM283 665q13 3 28.5 7t29 11t23.5 16.5t13 23.5
q-3 13 -13 22.5t-23.5 16t-29 10.5t-28.5 7q-28 2 -43.5 -17t-15.5 -39q0 -21 15.5 -40.5t43.5 -17.5z" />
    <glyph glyph-name="ntilde" unicode="&#xf1;" horiz-adv-x="730" 
d="M131 48q-2 1 -3.5 2t-3.5 2q-54 108 -54 220q0 58 14 116t43 114q33 13 74.5 21.5t86.5 15.5q-2 -4 -2 -6l23 -23q22 17 47.5 27.5t57.5 10.5h11t11 -1q35 -5 69 -20t62 -36v1q28 -22 48 -50l19 -18q-1 1 -2 1l-1 1l11 -10q26 -27 41 -59t21 -66q2 -17 3 -34t1 -34
q0 -57 -13 -113t-43 -108l-3 -3q-38 -16 -78.5 -26t-85.5 -13l-48 47h-6q14 70 18 132t4 122v45q0 15 -1 31t-5 33q-5 1 -11 1q-5 0 -11 1h-5q-26 0 -44 -10t-29 -25.5t-16.5 -34.5t-5.5 -38v-8q0 -10 -0.5 -19.5t-0.5 -19.5q0 -61 5 -126t12 -131q-44 5 -85.5 16t-79.5 28z
M596 55q38 66 48.5 139t2.5 146q-7 39 -26 75.5t-55 64.5q-26 22 -60.5 37t-70.5 20q-30 4 -55.5 -2.5t-47 -20t-39 -31.5t-30.5 -36q2 20 4 39.5t7 39.5q-36 -5 -72 -13t-69 -21q-52 -103 -53 -216.5t51 -216.5q35 -16 73.5 -26t78.5 -15q-7 72 -12 144t-3 144
q-1 21 4.5 43t18 40t33.5 29.5t51 10.5q15 -1 28.5 -3.5t24.5 -10.5q9 -8 17 -16t10 -19q5 -19 6.5 -37.5t1.5 -36.5q1 -73 -2 -144.5t-17 -143.5q40 3 78 12.5t74 24.5zM124 737q3 -4 7 -7zM584 746l47 -46l1 -11q-29 -30 -71.5 -47t-87.5 -22q-23 0 -42 5t-36 11l-18 6
q-2 1 -5 1.5t-5 1.5q-10 3 -19.5 5t-18.5 2h-5q-16 0 -32 -5.5t-24 -22.5q-6 4 -16 9.5t-17 9.5q-14 8 -28.5 17t-32.5 27l-23 23q-12 8 -31 27q35 28 77 45t83 20q26 -1 49.5 -6t45.5 -13q2 -1 4 -1.5t4 -1.5t4 -1q3 0 5 -1t3 -1t3 -1q11 -3 19.5 -5t15.5 -3q17 0 33 10
t17 31q7 -2 9 -3t9 -5q20 -11 41.5 -23.5t41.5 -26.5v-5zM577 744q-19 14 -41 26.5t-43 23.5q-1 -18 -20.5 -27t-39.5 -9q-17 1 -32 6t-29 9q-22 8 -44.5 13t-46.5 6q-39 -3 -77.5 -18t-68.5 -38q17 -17 38.5 -28t41.5 -24q7 15 24.5 20t34.5 5q14 1 27.5 -2.5t27.5 -7.5
q22 -7 44.5 -14.5t48.5 -7.5q43 5 85 21.5t70 45.5z" />
    <glyph glyph-name="oacute" unicode="&#xf3;" 
d="M297 224q0 -25 3 -53.5t14 -54.5q9 -4 19.5 -6.5t22.5 -2.5h3q20 0 40 9.5t35 23.5q19 26 24 59.5t6 65.5q0 30 -3.5 60.5t-16.5 57.5q-19 7 -35 7q-53 0 -80 -33q-23 -28 -27.5 -63t-4.5 -70zM360 549q64 0 120 -28t96 -65q30 -26 53 -56l20 -19q34 -35 55.5 -75.5
t21.5 -87.5v-2q0 -54 -31 -100t-74 -82q-41 -35 -95 -61t-117 -26h-9q-65 0 -117.5 27.5t-94.5 64.5q-6 5 -12 10.5t-12 11.5l-13 13q-4 3 -7.5 6t-7.5 7q-20 18 -39 38.5t-33.5 43t-23 46.5t-8.5 50v10q4 51 31 99.5t70 86.5t99.5 62t119.5 26h8zM359 447q24 0 47 -10.5
t36 -28.5q22 -33 27 -70t5 -73q-1 -35 -7 -70.5t-29 -64.5q-15 -15 -36.5 -24.5t-45.5 -8.5q-39 1 -62 19.5t-35 45t-15.5 56.5t-3.5 56q0 35 5 71t29 66q30 36 85 36zM352 539q-61 -2 -115.5 -25t-96.5 -60t-68 -84t-30 -96q-2 -26 5.5 -50.5t22 -47t33.5 -43.5t40 -39
q42 -36 93 -63t114 -27q31 -1 61 5.5t57.5 18.5t52 27.5t45.5 33.5t40 38t33 42.5t22 47t8 51.5q0 54 -28.5 99t-71.5 82q-40 38 -96.5 65t-120.5 25zM510 851q8 -9 17 -18.5t17 -20.5l15 -14q18 -19 36 -40.5t36 -47.5l-42 -15q-58 -21 -115.5 -41t-120.5 -34q-5 4 -9 8
l-9 9l-31 30h-1q-17 14 -31.5 30t-31.5 36q60 29 128 60.5t132 58.5zM504 843q-64 -27 -126.5 -56t-122.5 -58q21 -27 50 -51q69 16 134 39t131 47q-14 21 -31 40.5t-35 38.5z" />
    <glyph glyph-name="ograve" unicode="&#xf2;" 
d="M297 224q0 -25 3 -53.5t14 -54.5q9 -4 19.5 -6.5t22.5 -2.5h3q20 0 40 9.5t35 23.5q19 26 24 59.5t6 65.5q0 30 -3.5 60.5t-16.5 57.5q-19 7 -35 7q-53 0 -80 -33q-23 -28 -27.5 -63t-4.5 -70zM360 549q64 0 120 -28t96 -65q30 -26 53 -56l20 -19q34 -35 55.5 -75.5
t21.5 -87.5v-2q0 -54 -31 -100t-74 -82q-41 -35 -95 -61t-117 -26h-9q-65 0 -117.5 27.5t-94.5 64.5q-6 5 -12 10.5t-12 11.5l-13 13q-4 3 -7.5 6t-7.5 7q-20 18 -39 38.5t-33.5 43t-23 46.5t-8.5 50v10q4 51 31 99.5t70 86.5t99.5 62t119.5 26h8zM359 447q24 0 47 -10.5
t36 -28.5q22 -33 27 -70t5 -73q-1 -35 -7 -70.5t-29 -64.5q-15 -15 -36.5 -24.5t-45.5 -8.5q-39 1 -62 19.5t-35 45t-15.5 56.5t-3.5 56q0 35 5 71t29 66q30 36 85 36zM352 539q-61 -2 -115.5 -25t-96.5 -60t-68 -84t-30 -96q-2 -26 5.5 -50.5t22 -47t33.5 -43.5t40 -39
q42 -36 93 -63t114 -27q31 -1 61 5.5t57.5 18.5t52 27.5t45.5 33.5t40 38t33 42.5t22 47t8 51.5q0 54 -28.5 99t-71.5 82q-40 38 -96.5 65t-120.5 25zM253 854q63 -26 131 -58t129 -61q-1 -1 -1.5 -2t-1.5 -2l48 -47q-14 -17 -28 -33t-33 -31q-70 21 -138 43.5t-135 48.5
l-46 45q-2 1 -4.5 2t-4.5 2q14 23 31.5 43.5t35.5 40.5l3 3q1 1 2 2.5t2 2.5zM249 845q-17 -19 -34.5 -38.5t-29.5 -40.5q64 -25 129 -46.5t132 -41.5q15 12 27.5 25.5t23.5 28.5q-61 29 -123 58t-125 55z" />
    <glyph glyph-name="ocircumflex" unicode="&#xf4;" 
d="M297 224q0 -25 3 -53.5t14 -54.5q9 -4 19.5 -6.5t22.5 -2.5h3q20 0 40 9.5t35 23.5q19 26 24 59.5t6 65.5q0 30 -3.5 60.5t-16.5 57.5q-19 7 -35 7q-53 0 -80 -33q-23 -28 -27.5 -63t-4.5 -70zM360 549q64 0 120 -28t96 -65q30 -26 53 -56l20 -19q34 -35 55.5 -75.5
t21.5 -87.5v-2q0 -54 -31 -100t-74 -82q-41 -35 -95 -61t-117 -26h-9q-65 0 -117.5 27.5t-94.5 64.5q-6 5 -12 10.5t-12 11.5l-13 13q-4 3 -7.5 6t-7.5 7q-20 18 -39 38.5t-33.5 43t-23 46.5t-8.5 50v10q4 51 31 99.5t70 86.5t99.5 62t119.5 26h8zM359 447q24 0 47 -10.5
t36 -28.5q22 -33 27 -70t5 -73q-1 -35 -7 -70.5t-29 -64.5q-15 -15 -36.5 -24.5t-45.5 -8.5q-39 1 -62 19.5t-35 45t-15.5 56.5t-3.5 56q0 35 5 71t29 66q30 36 85 36zM352 539q-61 -2 -115.5 -25t-96.5 -60t-68 -84t-30 -96q-2 -26 5.5 -50.5t22 -47t33.5 -43.5t40 -39
q42 -36 93 -63t114 -27q31 -1 61 5.5t57.5 18.5t52 27.5t45.5 33.5t40 38t33 42.5t22 47t8 51.5q0 54 -28.5 99t-71.5 82q-40 38 -96.5 65t-120.5 25zM148 675q-4 0 -8 2q39 47 77.5 75t76.5 51q16 10 34 20.5t32 20.5q5 -5 25 -16.5t40 -24.5h-1q3 -2 5.5 -3.5t5.5 -3.5
q36 -23 71 -47t61 -59l26 -25q15 -15 24 -28l-4 -11q-25 -8 -54.5 -12t-61.5 -7l-21 21q-11 9 -23.5 17t-24.5 16q-5 3 -9 5.5t-9 5.5l-18 -12q-19 -13 -38 -25.5t-34 -26.5q-29 4 -63.5 10t-61.5 11zM561 683q-17 24 -41 43.5t-51 36.5t-55.5 34t-53.5 35
q-26 -18 -53.5 -34.5t-54.5 -34t-51.5 -37t-43.5 -42.5q27 -5 54.5 -10t56.5 -9q20 19 44.5 34.5t47.5 31.5q23 -16 47.5 -31.5t42.5 -35.5q29 3 56.5 7t54.5 12z" />
    <glyph glyph-name="odieresis" unicode="&#xf6;" 
d="M297 224q0 -25 3 -53.5t14 -54.5q9 -4 19.5 -6.5t22.5 -2.5h3q20 0 40 9.5t35 23.5q19 26 24 59.5t6 65.5q0 30 -3.5 60.5t-16.5 57.5q-19 7 -35 7q-53 0 -80 -33q-23 -28 -27.5 -63t-4.5 -70zM360 549q64 0 120 -28t96 -65q30 -26 53 -56l20 -19q34 -35 55.5 -75.5
t21.5 -87.5v-2q0 -54 -31 -100t-74 -82q-41 -35 -95 -61t-117 -26h-9q-65 0 -117.5 27.5t-94.5 64.5q-6 5 -12 10.5t-12 11.5l-13 13q-4 3 -7.5 6t-7.5 7q-20 18 -39 38.5t-33.5 43t-23 46.5t-8.5 50v10q4 51 31 99.5t70 86.5t99.5 62t119.5 26h8zM359 447q24 0 47 -10.5
t36 -28.5q22 -33 27 -70t5 -73q-1 -35 -7 -70.5t-29 -64.5q-15 -15 -36.5 -24.5t-45.5 -8.5q-39 1 -62 19.5t-35 45t-15.5 56.5t-3.5 56q0 35 5 71t29 66q30 36 85 36zM352 539q-61 -2 -115.5 -25t-96.5 -60t-68 -84t-30 -96q-2 -26 5.5 -50.5t22 -47t33.5 -43.5t40 -39
q42 -36 93 -63t114 -27q31 -1 61 5.5t57.5 18.5t52 27.5t45.5 33.5t40 38t33 42.5t22 47t8 51.5q0 54 -28.5 99t-71.5 82q-40 38 -96.5 65t-120.5 25zM198 680q-29 16 -35 42q5 15 16 26t25.5 19t30.5 13.5t31 8.5h4q21 0 37 -11t24 -26l35 -35q-1 1 -2 1l-1 1l3 -2
q19 -19 19 -43v-6q0 -21 -17.5 -40t-43.5 -19q-2 0 -3.5 0.5t-3.5 0.5h-1q-22 3 -46 12t-39 25zM419 662q-17 9 -26.5 26.5t-9.5 34.5q0 11 4.5 22.5t12.5 21.5t20 16t27 6h8q13 -3 27.5 -7t28 -10t24.5 -15t17 -21l36 -36q12 -12 15 -26q-4 -17 -14.5 -28t-25 -18.5
t-30 -12t-29.5 -7.5h-7q-13 0 -23 4.5t-18 12.5zM267 667q13 -2 25 2.5t20 12.5t12.5 18.5t3.5 21.5q1 21 -15.5 39.5t-44.5 17.5q-14 -3 -29 -8t-28 -11.5t-23 -16t-14 -21.5q3 -12 12.5 -21.5t23 -16t28.5 -11t29 -6.5zM452 665q13 3 28.5 7t29 11t23.5 16.5t13 23.5
q-3 13 -13 22.5t-23.5 16t-29 10.5t-28.5 7q-28 2 -43.5 -17t-15.5 -39q0 -21 15.5 -40.5t43.5 -17.5z" />
    <glyph glyph-name="otilde" unicode="&#xf5;" 
d="M297 224q0 -25 3 -53.5t14 -54.5q9 -4 19.5 -6.5t22.5 -2.5h3q20 0 40 9.5t35 23.5q19 26 24 59.5t6 65.5q0 30 -3.5 60.5t-16.5 57.5q-19 7 -35 7q-53 0 -80 -33q-23 -28 -27.5 -63t-4.5 -70zM360 549q64 0 120 -28t96 -65q30 -26 53 -56l20 -19q34 -35 55.5 -75.5
t21.5 -87.5v-2q0 -54 -31 -100t-74 -82q-41 -35 -95 -61t-117 -26h-9q-65 0 -117.5 27.5t-94.5 64.5q-6 5 -12 10.5t-12 11.5l-13 13q-4 3 -7.5 6t-7.5 7q-20 18 -39 38.5t-33.5 43t-23 46.5t-8.5 50v10q4 51 31 99.5t70 86.5t99.5 62t119.5 26h8zM359 447q24 0 47 -10.5
t36 -28.5q22 -33 27 -70t5 -73q-1 -35 -7 -70.5t-29 -64.5q-15 -15 -36.5 -24.5t-45.5 -8.5q-39 1 -62 19.5t-35 45t-15.5 56.5t-3.5 56q0 35 5 71t29 66q30 36 85 36zM352 539q-61 -2 -115.5 -25t-96.5 -60t-68 -84t-30 -96q-2 -26 5.5 -50.5t22 -47t33.5 -43.5t40 -39
q42 -36 93 -63t114 -27q31 -1 61 5.5t57.5 18.5t52 27.5t45.5 33.5t40 38t33 42.5t22 47t8 51.5q0 54 -28.5 99t-71.5 82q-40 38 -96.5 65t-120.5 25zM112 737q3 -4 7 -7zM572 746l47 -46l1 -11q-29 -30 -71.5 -47t-87.5 -22q-23 0 -42 5t-36 11l-18 6q-2 1 -5 1.5t-5 1.5
q-10 3 -19.5 5t-18.5 2h-5q-16 0 -32 -5.5t-24 -22.5q-6 4 -16 9.5t-17 9.5q-14 8 -28.5 17t-32.5 27l-23 23q-12 8 -31 27q35 28 77 45t83 20q26 -1 49.5 -6t45.5 -13q2 -1 4 -1.5t4 -1.5t4 -1q3 0 5 -1t3 -1t3 -1q11 -3 19.5 -5t15.5 -3q17 0 33 10t17 31q7 -2 9 -3t9 -5
q20 -11 41.5 -23.5t41.5 -26.5v-5zM565 744q-19 14 -41 26.5t-43 23.5q-1 -18 -20.5 -27t-39.5 -9q-17 1 -32 6t-29 9q-22 8 -44.5 13t-46.5 6q-39 -3 -77.5 -18t-68.5 -38q17 -17 38.5 -28t41.5 -24q7 15 24.5 20t34.5 5q14 1 27.5 -2.5t27.5 -7.5q22 -7 44.5 -14.5
t48.5 -7.5q43 5 85 21.5t70 45.5z" />
    <glyph glyph-name="uacute" unicode="&#xfa;" horiz-adv-x="722" 
d="M597 489q2 -6 4 -8l43 -43q54 -108 54 -226q0 -54 -13 -108t-40 -106q-71 -29 -154 -38l-27 27q-23 -17 -51 -27.5t-59 -10.5q-8 0 -14 0.5t-13 1.5q-42 7 -77 25.5t-61 44.5l-22 21q-41 29 -65.5 70t-29.5 86q-2 15 -3 30t-1 31q0 60 15 118.5t43 116.5q37 16 78 26
t86 16q0 -2 -0.5 -3t-0.5 -2l48 -48q-9 -68 -14.5 -133t-5.5 -128q0 -43 3 -85v-9q4 -1 7.5 -1.5t8.5 -0.5h5q29 1 55.5 12.5t37.5 34.5q6 14 8 29.5t2 32.5v24q0 69 -4 137t-13 139q92 -13 165 -41zM588 485q-71 28 -150 39q9 -72 13 -144t3 -145q0 -17 -2 -33.5t-9 -32.5
q-12 -26 -41 -39t-61 -14q-18 -1 -32.5 5t-25 16t-16 23t-4.5 27q-5 85 0 169t16 169q-38 -5 -75 -14.5t-71 -23.5q-33 -69 -47 -141t-4 -147q4 -33 19.5 -64.5t41 -57t60 -44t75.5 -25.5q29 -5 57 1t52 19t43 31.5t31 39.5q-2 -21 -4.5 -41t-6.5 -40q37 4 71.5 12.5
t68.5 22.5q27 51 39.5 106t11.5 110t-14.5 110t-38.5 106zM498 851q8 -9 17 -18.5t17 -20.5l15 -14q18 -19 36 -40.5t36 -47.5l-42 -15q-58 -21 -115.5 -41t-120.5 -34q-5 4 -9 8l-9 9l-31 30h-1q-17 14 -31.5 30t-31.5 36q60 29 128 60.5t132 58.5zM492 843
q-64 -27 -126.5 -56t-122.5 -58q21 -27 50 -51q69 16 134 39t131 47q-14 21 -31 40.5t-35 38.5z" />
    <glyph glyph-name="ugrave" unicode="&#xf9;" horiz-adv-x="722" 
d="M597 489q2 -6 4 -8l43 -43q54 -108 54 -226q0 -54 -13 -108t-40 -106q-71 -29 -154 -38l-27 27q-23 -17 -51 -27.5t-59 -10.5q-8 0 -14 0.5t-13 1.5q-42 7 -77 25.5t-61 44.5l-22 21q-41 29 -65.5 70t-29.5 86q-2 15 -3 30t-1 31q0 60 15 118.5t43 116.5q37 16 78 26
t86 16q0 -2 -0.5 -3t-0.5 -2l48 -48q-9 -68 -14.5 -133t-5.5 -128q0 -43 3 -85v-9q4 -1 7.5 -1.5t8.5 -0.5h5q29 1 55.5 12.5t37.5 34.5q6 14 8 29.5t2 32.5v24q0 69 -4 137t-13 139q92 -13 165 -41zM588 485q-71 28 -150 39q9 -72 13 -144t3 -145q0 -17 -2 -33.5t-9 -32.5
q-12 -26 -41 -39t-61 -14q-18 -1 -32.5 5t-25 16t-16 23t-4.5 27q-5 85 0 169t16 169q-38 -5 -75 -14.5t-71 -23.5q-33 -69 -47 -141t-4 -147q4 -33 19.5 -64.5t41 -57t60 -44t75.5 -25.5q29 -5 57 1t52 19t43 31.5t31 39.5q-2 -21 -4.5 -41t-6.5 -40q37 4 71.5 12.5
t68.5 22.5q27 51 39.5 106t11.5 110t-14.5 110t-38.5 106zM225 854q63 -26 131 -58t129 -61q-1 -1 -1.5 -2t-1.5 -2l48 -47q-14 -17 -28 -33t-33 -31q-70 21 -138 43.5t-135 48.5l-46 45q-2 1 -4.5 2t-4.5 2q14 23 31.5 43.5t35.5 40.5l3 3q1 1 2 2.5t2 2.5zM221 845
q-17 -19 -34.5 -38.5t-29.5 -40.5q64 -25 129 -46.5t132 -41.5q15 12 27.5 25.5t23.5 28.5q-61 29 -123 58t-125 55z" />
    <glyph glyph-name="ucircumflex" unicode="&#xfb;" horiz-adv-x="722" 
d="M597 489q2 -6 4 -8l43 -43q54 -108 54 -226q0 -54 -13 -108t-40 -106q-71 -29 -154 -38l-27 27q-23 -17 -51 -27.5t-59 -10.5q-8 0 -14 0.5t-13 1.5q-42 7 -77 25.5t-61 44.5l-22 21q-41 29 -65.5 70t-29.5 86q-2 15 -3 30t-1 31q0 60 15 118.5t43 116.5q37 16 78 26
t86 16q0 -2 -0.5 -3t-0.5 -2l48 -48q-9 -68 -14.5 -133t-5.5 -128q0 -43 3 -85v-9q4 -1 7.5 -1.5t8.5 -0.5h5q29 1 55.5 12.5t37.5 34.5q6 14 8 29.5t2 32.5v24q0 69 -4 137t-13 139q92 -13 165 -41zM588 485q-71 28 -150 39q9 -72 13 -144t3 -145q0 -17 -2 -33.5t-9 -32.5
q-12 -26 -41 -39t-61 -14q-18 -1 -32.5 5t-25 16t-16 23t-4.5 27q-5 85 0 169t16 169q-38 -5 -75 -14.5t-71 -23.5q-33 -69 -47 -141t-4 -147q4 -33 19.5 -64.5t41 -57t60 -44t75.5 -25.5q29 -5 57 1t52 19t43 31.5t31 39.5q-2 -21 -4.5 -41t-6.5 -40q37 4 71.5 12.5
t68.5 22.5q27 51 39.5 106t11.5 110t-14.5 110t-38.5 106zM145 675q-4 0 -8 2q39 47 77.5 75t76.5 51q16 10 34 20.5t32 20.5q5 -5 25 -16.5t40 -24.5h-1q3 -2 5.5 -3.5t5.5 -3.5q36 -23 71 -47t61 -59l26 -25q15 -15 24 -28l-4 -11q-25 -8 -54.5 -12t-61.5 -7l-21 21
q-11 9 -23.5 17t-24.5 16q-5 3 -9 5.5t-9 5.5l-18 -12q-19 -13 -38 -25.5t-34 -26.5q-29 4 -63.5 10t-61.5 11zM558 683q-17 24 -41 43.5t-51 36.5t-55.5 34t-53.5 35q-26 -18 -53.5 -34.5t-54.5 -34t-51.5 -37t-43.5 -42.5q27 -5 54.5 -10t56.5 -9q20 19 44.5 34.5
t47.5 31.5q23 -16 47.5 -31.5t42.5 -35.5q29 3 56.5 7t54.5 12z" />
    <glyph glyph-name="udieresis" unicode="&#xfc;" horiz-adv-x="722" 
d="M597 489q2 -6 4 -8l43 -43q54 -108 54 -226q0 -54 -13 -108t-40 -106q-71 -29 -154 -38l-27 27q-23 -17 -51 -27.5t-59 -10.5q-8 0 -14 0.5t-13 1.5q-42 7 -77 25.5t-61 44.5l-22 21q-41 29 -65.5 70t-29.5 86q-2 15 -3 30t-1 31q0 60 15 118.5t43 116.5q37 16 78 26
t86 16q0 -2 -0.5 -3t-0.5 -2l48 -48q-9 -68 -14.5 -133t-5.5 -128q0 -43 3 -85v-9q4 -1 7.5 -1.5t8.5 -0.5h5q29 1 55.5 12.5t37.5 34.5q6 14 8 29.5t2 32.5v24q0 69 -4 137t-13 139q92 -13 165 -41zM588 485q-71 28 -150 39q9 -72 13 -144t3 -145q0 -17 -2 -33.5t-9 -32.5
q-12 -26 -41 -39t-61 -14q-18 -1 -32.5 5t-25 16t-16 23t-4.5 27q-5 85 0 169t16 169q-38 -5 -75 -14.5t-71 -23.5q-33 -69 -47 -141t-4 -147q4 -33 19.5 -64.5t41 -57t60 -44t75.5 -25.5q29 -5 57 1t52 19t43 31.5t31 39.5q-2 -21 -4.5 -41t-6.5 -40q37 4 71.5 12.5
t68.5 22.5q27 51 39.5 106t11.5 110t-14.5 110t-38.5 106zM196 680q-29 16 -35 42q5 15 16 26t25.5 19t30.5 13.5t31 8.5h4q21 0 37 -11t24 -26l35 -35q-1 1 -2 1l-1 1l3 -2q19 -19 19 -43v-6q0 -21 -17.5 -40t-43.5 -19q-2 0 -3.5 0.5t-3.5 0.5h-1q-22 3 -46 12t-39 25z
M417 662q-17 9 -26.5 26.5t-9.5 34.5q0 11 4.5 22.5t12.5 21.5t20 16t27 6h8q13 -3 27.5 -7t28 -10t24.5 -15t17 -21l36 -36q12 -12 15 -26q-4 -17 -14.5 -28t-25 -18.5t-30 -12t-29.5 -7.5h-7q-13 0 -23 4.5t-18 12.5zM265 667q13 -2 25 2.5t20 12.5t12.5 18.5t3.5 21.5
q1 21 -15.5 39.5t-44.5 17.5q-14 -3 -29 -8t-28 -11.5t-23 -16t-14 -21.5q3 -12 12.5 -21.5t23 -16t28.5 -11t29 -6.5zM450 665q13 3 28.5 7t29 11t23.5 16.5t13 23.5q-3 13 -13 22.5t-23.5 16t-29 10.5t-28.5 7q-28 2 -43.5 -17t-15.5 -39q0 -21 15.5 -40.5t43.5 -17.5z
" />
    <glyph glyph-name="dagger" unicode="&#x2020;" horiz-adv-x="781" 
d="M66 400q3 21 6 38t6 33q0 2 0.5 3t0.5 3l7 34q49 12 99 20.5t106 13.5q1 6 1 11t1 10q2 36 4 75t4 74q46 6 90 6q22 0 44.5 -1.5t45.5 -5.5v-7l47 -46q2 -30 4 -60.5t4 -61.5q41 -6 81 -15t81 -20q0 -2 0.5 -3.5t0.5 -3.5l46 -45q6 -27 11 -54.5t7 -59.5q-111 16 -219 21
q3 -84 3 -167q0 -97 -4.5 -195.5t-16.5 -201.5q-47 -6 -81 -6q-21 0 -44 1.5t-48 5.5l-46 46q-3 1 -7 1q-8 114 -12.5 229.5t-4.5 227.5v56q-39 -3 -78.5 -5.5t-77.5 -7.5l-48 47h-3zM76 400q54 6 109 10.5t110 6.5q-4 -143 1 -282t14 -283q40 -5 79 -5.5t81 4.5
q16 143 18.5 282.5t-1.5 282.5q55 -2 109.5 -7t108.5 -13q-2 26 -6.5 50.5t-9.5 49.5q-104 30 -207 39q-2 43 -4.5 85t-6.5 85q-39 7 -79.5 6.5t-80.5 -5.5q-3 -43 -5.5 -85t-4.5 -85q-54 -4 -104.5 -12.5t-101.5 -21.5q-5 -26 -10.5 -51t-8.5 -51z" />
    <glyph glyph-name="degree" unicode="&#xb0;" horiz-adv-x="781" 
d="M391 528q32 0 57 19t25 45q0 8 -3 14q-15 6 -31 6t-31.5 -5.5t-27.5 -14.5t-19.5 -21.5t-7.5 -26.5v-9q8 -4 18 -5.5t20 -1.5zM272 477q-3 2 -6 4.5t-6 5.5q-23 22 -43.5 47.5t-20.5 59.5q0 32 20 58.5t46 46.5q26 21 56.5 36t66.5 15h6q38 0 70 -16.5t56 -36.5
q12 -11 23.5 -23t21.5 -24l28 -28q17 -17 28.5 -36t11.5 -42v-2q-1 -32 -19 -58t-47 -46q-23 -18 -52.5 -34.5t-65.5 -16.5h-7q-38 0 -69 15.5t-58 36.5q-5 4 -8.5 8t-8.5 8zM391 518q-19 0 -36 6t-30 16.5t-21 24t-8 29.5q0 15 8 29t21 24t29.5 16t34.5 6q19 0 36 -6.5
t30 -17.5t20.5 -24.5t7.5 -28.5t-7.5 -28.5t-20.5 -23.5t-29.5 -16t-34.5 -6zM389 444q37 -2 67 15t54 35q27 19 44.5 43.5t18.5 54.5q1 29 -19.5 53t-43.5 45q-23 20 -54 35.5t-68 14.5q-35 1 -65.5 -13.5t-54.5 -34.5q-23 -19 -42.5 -44t-19.5 -54q0 -30 19 -54.5
t42 -44.5q26 -20 56.5 -35.5t65.5 -15.5z" />
    <glyph glyph-name="cent" unicode="&#xa2;" horiz-adv-x="781" 
d="M227 161q1 0 1.5 -0.5t1.5 -0.5q-1 0 -1.5 0.5t-1.5 0.5zM704 309q0 -1 -1 -1v-1l41 -40l7 -8q-8 -36 -28 -68.5t-49.5 -58.5t-67.5 -44.5t-80 -26.5q-1 -11 -2 -22.5t-2 -22.5q-2 -19 -3 -40.5t-3 -39.5q-4 0 -11 -0.5t-11 -0.5q-8 0 -16 -0.5t-16 -0.5q-11 0 -26.5 0.5
t-27.5 1.5l-47 47h-6q-1 19 -1.5 43t-0.5 48q-38 14 -70 34t-57 46l-35 34q-43 37 -67.5 82.5t-24.5 96.5v5q0 48 20 93t60 82q32 34 76 59.5t98 34.5q0 19 0.5 38.5t1.5 38.5v23q15 2 24 2h17q17 0 35.5 -1t39.5 -4v-6l47 -47q1 -13 1.5 -28.5t1.5 -27.5v-5
q37 -15 68 -37.5t56 -51.5l3 -3l31 -30q27 -27 46.5 -59.5t29.5 -67.5q-20 1 -45 1h-45h-86l-47 47h-6q-3 22 -14 44l-16 4t-16 2h-12q-33 0 -55.5 -14.5t-36 -36t-19 -47.5t-5.5 -50v-20q0 -34 14 -62q21 -12 50 -12h17q20 0 37 8t29 21t19 30.5t7 35.5q40 -3 85 -4.5
t85 -1.5zM694 310q-40 0 -79.5 1t-79.5 4q0 -19 -8.5 -36.5t-23 -31t-35 -21t-44.5 -5.5q-35 -2 -60 11.5t-41 35t-23 47.5t-5 50q-1 25 4 54.5t19.5 54.5t39.5 41t64 15q24 2 44 -6t35 -22t23.5 -32.5t10.5 -36.5h80h40t40 -1q-10 35 -31 67.5t-50 59t-66 45t-80 26.5
q-2 25 -3.5 49.5t-3.5 49.5q-50 6 -96 3q-1 -26 -1.5 -50.5t-0.5 -49.5q-54 -5 -99.5 -31t-77.5 -61q-38 -35 -57.5 -79t-19.5 -89q-1 -45 18.5 -87.5t54 -77t81.5 -58.5t100 -33q0 -32 0.5 -62.5t1.5 -60.5q24 -2 47.5 -1.5t47.5 1.5q2 30 4.5 61.5t4.5 62.5q42 7 80 25
t68 43.5t50 57.5t27 67z" />
    <glyph glyph-name="sterling" unicode="&#xa3;" horiz-adv-x="781" 
d="M68 453q13 0 25.5 0.5t24.5 1.5q8 0 17.5 0.5t19.5 1.5q-2 10 -2.5 19t-0.5 18v13q0 3 0.5 6.5t0.5 6.5q4 42 26 81t57.5 69t81.5 48t97 18h12q7 0 13 -1q73 -5 133 -44.5t101 -93.5l11 -10q16 -16 30 -34t26 -36q-42 -5 -81 -12.5t-78 -17.5l-47 47q-2 -1 -5 -1
q-2 5 -3.5 10.5t-4.5 10.5q-9 4 -22 4h-10q-32 0 -51 -20.5t-19 -44.5v-5v-15q0 -6 2 -13q8 -1 15 -1h16q19 -1 43 -1h44v-7l47 -46q1 -14 1 -33v-32v-32t1 -32q-17 0 -38 -0.5t-38 -0.5h-62q-2 -26 -6.5 -53.5t-18.5 -56.5q-2 -4 -5 -7t-5 -6h10h6q24 0 46 8.5t41 23
t32.5 33t21.5 38.5q44 -10 87.5 -15.5t91.5 -8.5q-2 -4 -3 -5l48 -48q-23 -41 -55 -79t-73 -68t-89.5 -48.5t-103.5 -20.5q-12 -1 -24 -1h-23q-80 0 -157.5 16t-150.5 49l-44 43q-2 2 -4.5 2.5t-4.5 2.5q-14 24 -23 48.5t-17 50.5q-2 2 -4 9q-2 4 -3 7.5t-1 8.5q17 -5 31 -9
t20 -5q2 -1 4 -1t4 -1q6 -2 10 -2q8 -2 14 -3t11 -1q16 0 30 6t24.5 15.5t16.5 21.5t6 25q0 6 -3 15q-1 5 -1 9q0 5 -1 10q-2 0 -4.5 0.5t-4.5 0.5q-15 1 -33 1t-33 1l-47 46q-2 0 -3 0.5t-3 0.5q-1 13 -1.5 30.5t-0.5 29.5q0 30 3 57zM69 443q-6 -47 -1 -105q30 -1 59 -2
t59 -2q4 -18 7.5 -36t4.5 -36q6 -20 -1 -40t-23 -34t-39 -20t-50 2q-12 3 -24.5 5.5t-24.5 6.5q8 -26 17 -51.5t23 -49.5q81 -37 170 -52t180 -10q54 2 101 19.5t86.5 46t70.5 64t52 73.5q-42 2 -80 7.5t-76 13.5q-8 -20 -23 -38.5t-35 -33t-44.5 -22.5t-51.5 -7
q-34 -1 -67 -0.5t-68 2.5q24 17 45 36t36 42q13 26 17 54t6 56q33 0 68 0.5t69 0.5q-1 14 -1 28v29v29t-1 29q-38 0 -76.5 1t-76.5 1q-3 23 -8.5 44t-5.5 44q-1 15 5 29.5t17 25.5t27 17.5t36 4.5q35 1 58.5 -21t30.5 -48q35 9 70 16t72 11q-18 28 -43 54.5t-55 47t-66 34
t-76 16.5q-54 5 -102 -11t-85.5 -45t-61 -68.5t-27.5 -81.5q-1 -18 -0.5 -36t5.5 -35q-26 -1 -49.5 -2.5t-49.5 -2.5z" />
    <glyph glyph-name="section" unicode="&#xa7;" horiz-adv-x="781" 
d="M444 230q10 -3 20 -5.5t21 -5.5q15 10 27.5 23t12.5 27q-1 2 -1.5 5t-1.5 5q-18 9 -37.5 15.5t-39.5 13.5q-5 2 -10 3t-10 3q-17 5 -33 10t-30 9q-19 -8 -32.5 -22t-16.5 -32v-3q29 -15 62.5 -25.5t68.5 -20.5zM248 19q13 -15 29 -29.5t35 -26.5t41 -19t46 -7h11
q17 0 36 3.5t34.5 10.5t27 17.5t13.5 24.5q-23 8 -47 15t-48 15q-10 3 -20 5.5t-20 5.5q-36 11 -71.5 23.5t-70.5 31.5q-31 17 -61 47l-16 16q-15 11 -30 25.5t-29 31.5q-8 14 -14 30.5t-6 39.5v6q0 42 23.5 80.5t60.5 70.5q-20 14 -30.5 34t-10.5 40v12t2 11q7 36 29 68
t52 59q35 33 83 52.5t102 19.5h4q36 -2 69 -13t62.5 -29.5t55 -42.5t47.5 -51l12 -12q21 -21 39 -44.5t33 -46.5q-58 11 -99 11q-7 0 -16 -0.5t-17 -0.5l-47 47h-5q-2 2 -2.5 4.5t-2.5 4.5q-35 19 -75 19h-12q-26 0 -50.5 -9t-35.5 -27q8 -2 15 -4.5t14 -4.5q5 -2 10.5 -3.5
t10.5 -3.5q21 -8 42.5 -15t42.5 -15q51 -19 98.5 -45t78.5 -68l27 -27q13 -13 21 -25q14 -18 20 -36.5t8 -39.5v-3q0 -37 -19 -70t-47 -59q2 -2 2 -3l35 -34q27 -27 27 -59q0 -12 -3 -22q-8 -43 -34.5 -78t-59.5 -68q-37 -35 -87 -60.5t-109 -25.5h-3q-69 2 -126 32t-102 75
l-18 18q-38 32 -69.5 70.5t-56.5 76.5q42 -11 78.5 -17.5t68.5 -6.5h19zM486 207q-49 15 -99 29t-93 39q-14 10 -26 23.5t-12 30.5q4 20 18.5 37t36.5 25q23 -5 44 -12l42 -14q31 -10 62 -22t56 -32q17 -17 20 -42q0 -20 -16 -35.5t-33 -26.5zM242 11q-70 -3 -141 17
q22 -35 51.5 -70t66.5 -63t82 -46t98 -19q58 -1 107.5 24t86.5 60q32 32 58.5 66.5t33.5 76.5q6 17 2 33.5t-15.5 30.5t-28 25t-34.5 17q34 28 58 63.5t23 77.5q-2 20 -8 38t-19 35q-29 40 -75 65t-97 44q-42 16 -83.5 29.5t-83.5 27.5q-14 4 -19 15t-7 22q2 15 12.5 25.5
t26 17.5t33.5 10t34 2q45 1 83.5 -20t55.5 -55q62 3 113 -7q-19 30 -44.5 59.5t-57 53.5t-69.5 39t-82 17q-52 1 -100 -18t-82 -51q-29 -26 -51 -57.5t-27 -66.5q-7 -26 5 -52t41 -40q-39 -30 -65.5 -69.5t-25.5 -84.5q-1 -22 6.5 -41.5t19.5 -37.5q28 -34 73 -59
q33 -17 68.5 -30t72.5 -24q43 -13 84.5 -24.5t83.5 -31.5q11 -8 20.5 -18.5t5.5 -23.5q-2 -17 -14 -29.5t-29.5 -20.5t-38.5 -12t-40 -4q-27 -2 -51.5 5t-45.5 19t-39 28t-32 32z" />
    <glyph glyph-name="bullet" unicode="&#x2022;" horiz-adv-x="888" 
d="M646 402q17 -17 28 -36t11 -42q0 -32 -20.5 -58t-46.5 -47q-24 -18 -53 -33t-64 -15h-8q-37 0 -70 15t-58 36q-5 4 -9 8l-8 8l-21 21q-8 4 -14 11q-24 21 -42.5 45.5t-18.5 56.5v4q0 32 20 58t46 46q24 20 54.5 35t67.5 15h3q39 -1 70.5 -15.5t57.5 -36.5
q12 -11 23.5 -22.5t21.5 -24.5zM628 374q0 29 -20.5 53t-43.5 44q-24 20 -54 34t-67 15q-35 1 -65.5 -13.5t-53.5 -34.5q-25 -19 -44 -43.5t-18 -54.5q-1 -29 17 -53t41 -44q24 -20 56 -34.5t67 -14.5q36 -2 66 13.5t55 33.5q25 20 44.5 44.5t19.5 54.5z" />
    <glyph glyph-name="paragraph" unicode="&#xb6;" horiz-adv-x="781" 
d="M687 638q-73 39 -157 58t-171 17q-41 -2 -80 -8.5t-77 -17.5q-19 -6 -34.5 -16t-32.5 -20q-38 -29 -65.5 -66t-38.5 -79q-6 -23 -4.5 -47t17.5 -44q14 -17 34 -30t45 -18q39 -8 79 -8h78q35 0 69.5 0.5t68.5 -0.5q0 -131 -0.5 -260t-6.5 -260q19 2 36 2t35 3
q25 201 23.5 401t-17.5 401q19 -1 36.5 -5t34.5 -7q28 -195 26.5 -390t-39.5 -388q17 3 31 7.5t30 9.5q54 184 55 371.5t-39 373.5q21 -6 41.5 -14t30.5 -16q5 13 1 25t-9 25zM416 426q-10 1 -20 0.5t-20 -0.5q-29 1 -60 1q-30 0 -59 5q-21 2 -35 12.5t-22.5 25t-10.5 31
t1 31.5q2 20 8 38.5t18 34.5q11 11 26 21.5t32 15.5q25 7 51.5 9.5t52.5 1.5q8 0 17.5 0.5t17.5 -1.5q3 -114 3 -226zM716 568q4 -17 9 -33q-20 9 -34 13t-18 2q30 -118 29 -305.5t-75 -441.5q-26 13 -40 18t-41 25q38 203 39.5 398t-24.5 330q-19 7 -26.5 9t-6.5 3
q16 -141 17.5 -341t-23.5 -451q-28 4 -55 17q-27 10 -56 28q6 131 6.5 260t0.5 220q-34 1 -68.5 0.5t-69.5 -0.5q-38 0 -78 2q-40 0 -86 25q-31 19 -49.5 35.5t-32.5 33.5q-16 20 -17.5 44t4.5 47q11 42 43.5 84t70.5 71q17 10 32.5 20t34.5 16q38 11 77 17.5t80 8.5
q87 2 171 -13t164 -72q18 -53 22 -70zM401 609q-6 2 -13.5 1.5t-13.5 -0.5q-19 1 -39 -1t-39 -7q-13 -4 -24.5 -12t-19.5 -16q-9 -12 -13.5 -26.5t-6.5 -29.5q-2 -11 -0.5 -23.5t8 -23.5t17 -19t26.5 -9q22 -4 45 -4t45 -1q7 0 14.5 0.5t15.5 -0.5q0 85 -2 171z" />
    <glyph glyph-name="germandbls" unicode="&#xdf;" horiz-adv-x="832" 
d="M751 546v-1h1zM355 549q-5 -14 -8.5 -26.5t-5.5 -26.5q18 22 47 43q5 0 8 1q2 0 8 2q17 3 34.5 7.5t32.5 11.5t25 17t12 24q0 2 -1 3q-20 7 -42 7h-3q-36 0 -65.5 -17.5t-42.5 -45.5h1zM336 308q0 -129 9 -261l7 13q3 5 5.5 11t5.5 12q15 32 26 52q8 -2 15 -3.5t13 -3.5
q2 0 3 -0.5t3 -0.5q18 -5 34.5 -8t32.5 -3h9q5 0 10 1q16 0 33.5 4t31.5 12t24 19.5t12 25.5q-14 6 -29 11t-30 11q-10 4 -20 7.5t-20 7.5h-1q-32 10 -65 23.5t-56 37.5l-29 29q-7 5 -13 9.5t-11 10.5v-17zM129 -1q-29 81 -43.5 161.5t-17.5 163.5h-9l-47 47h-6q0 25 2 42.5
t4 34.5q0 8 1 17l2 18q0 2 0.5 6t0.5 6q17 1 32 2t30 3q11 55 40.5 104t74.5 87h-1q48 42 109 66.5t126 24.5h11q52 -3 99.5 -21.5t88.5 -53.5h-1q16 -14 30 -27.5t25 -29.5l23 -22q17 -19 29.5 -38.5t17.5 -42.5l2 -1q3 -9 3 -19q0 -19 -10.5 -36.5t-27.5 -29.5
q-21 -20 -49 -30t-57 -15q-3 -1 -7 -1l26 -10t30 -12q21 -11 39.5 -22t35.5 -24q14 -11 27 -24t23 -27l24 -24q17 -17 28.5 -37t11.5 -43q0 -5 -0.5 -9.5t-1.5 -9.5q-7 -43 -36.5 -76t-64.5 -63q-43 -35 -96.5 -58t-113.5 -26h-17q-66 0 -133 21l-38 37q2 -25 5 -49.5
t6 -50.5q-51 6 -94 17.5t-84 25.5l-46 46q-2 1 -3 1t-3 1zM78 381q-1 -97 13 -190t46 -184q40 -14 80.5 -25t83.5 -16q-16 137 -20 271.5t1 272.5q1 23 4.5 46t11.5 45q6 15 18 27.5t27.5 21.5t34 14t37.5 5q18 0 35.5 -4.5t32 -13t24 -21t11.5 -27.5q-1 -20 -14 -32.5
t-31.5 -20.5t-40 -12.5t-40.5 -8.5q-32 -23 -54.5 -55t-22.5 -68q0 -16 3.5 -31.5t13.5 -29.5q22 -30 58.5 -46t73.5 -27q33 -13 66.5 -24t63.5 -28q12 -8 21 -19.5t5 -25.5q-2 -16 -13 -28.5t-26.5 -21.5t-34 -13.5t-36.5 -4.5q-29 -4 -57.5 2.5t-57.5 13.5
q-14 -24 -25.5 -48.5t-23.5 -48.5q69 -22 140 -19q60 3 112 25.5t94 56.5q34 29 63 61.5t35 73.5q4 17 0.5 33t-12.5 30.5t-21.5 27.5t-27.5 24q-17 13 -35 24t-38 21q-26 11 -53.5 20t-54.5 18q-20 7 -38.5 14t-35.5 15l9 7q19 4 38.5 8t38.5 7q29 5 56 15t47 29
q20 14 29.5 35t2.5 42q-6 33 -29.5 60.5t-52.5 50.5q-35 30 -79.5 47t-95.5 20q-66 2 -127 -21t-106 -62q-48 -40 -79.5 -90.5t-39.5 -107.5q-29 -5 -60 -6q-2 -26 -6 -52t-4 -52h62z" />
    <glyph glyph-name="registered" unicode="&#xae;" horiz-adv-x="1028" 
d="M291 148q4 -3 7.5 -6t8.5 -5l-10 10q-2 0 -3 0.5t-3 0.5zM489 450q0 -10 -0.5 -19.5t-1.5 -19.5q5 0 10 0.5t10 0.5q2 0 3.5 -0.5t3.5 -0.5h8q13 0 26.5 1.5t24.5 6t18 12t7 19.5q-5 1 -13 1h-30q-9 0 -18 -0.5t-18 -0.5h-30zM540 252q-2 3 -6 11h-47q0 -44 3 -86
q1 -19 2 -41t1 -41q-25 1 -52 1t-53 1q61 -22 125 -22h6q33 0 64 6t60 17l-43 44h-5q-13 26 -27 55t-28 55zM275 369q0 59 6 122q-39 -35 -64 -77.5t-25 -90.5v-12q0 -31 11 -60.5t30 -55.5q15 -15 30 -26q7 -5 13.5 -10.5t14.5 -10.5q-8 57 -12 112t-4 109zM883 371
q0 42 -19.5 79.5t-50.5 70.5q-50 40 -112 66.5t-133 26.5q-30 0 -59 -5.5t-56 -13.5h44h48q28 0 57 -5.5t56 -16t49 -26t36 -36.5l31 -31q15 -16 24 -34.5t10 -41.5q1 -4 1 -14q0 -35 -26.5 -62.5t-64.5 -42.5q15 -29 29.5 -56t27.5 -55q48 37 78 86t30 103v8zM191 134
q-29 23 -55 49t-45.5 54.5t-31.5 60t-12 66.5v5q0 37 14 72t37 66.5t53.5 60t63.5 52.5v-1q60 50 136.5 84t164.5 34q45 0 87 -10t80.5 -27.5t73.5 -40.5t66 -48q27 -23 52.5 -47t46.5 -51l7 -6q42 -42 70 -89t28 -102v-5q0 -35 -13.5 -68t-35 -63t-49.5 -57t-58 -50
q-30 -24 -64 -46t-71.5 -39.5t-78.5 -27.5t-84 -10h-16q-44 0 -85 10.5t-78.5 27.5t-71.5 39.5t-64 46.5q-17 14 -33.5 28.5t-32.5 30.5zM433 507q18 0 36 0.5t36 0.5h30q16 0 31 -3q19 -5 29.5 -19t12.5 -29q2 -18 -7.5 -29.5t-24.5 -17.5t-33.5 -7.5t-35.5 -0.5
q-19 0 -38.5 -1t-38.5 -1q0 54 3 107zM516 320q21 -42 43 -83.5t42 -84.5q37 0 72.5 2t73.5 4q-19 48 -41.5 92t-47.5 89q21 7 39.5 18.5t31 26.5t19 32t3.5 36q0 34 -20 59.5t-51.5 42t-69.5 24.5t-74 7q-116 1 -234 -6q-8 -53 -12.5 -105t-4.5 -105q0 -105 15 -211
q33 -3 67 -4t69 -2q-1 42 -3.5 84t-2.5 84h86zM893 365q1 -60 -34 -113.5t-88 -93.5q-52 -40 -117 -67t-138 -26q-75 -1 -141 27t-118 70q-26 20 -48.5 43t-39 49t-26 54.5t-8.5 58.5q-1 31 8.5 60t26.5 55t40.5 49.5t50.5 44.5q51 42 117.5 68.5t139.5 26.5t137.5 -28
t115.5 -70q25 -20 47.5 -44t39.5 -50t26.5 -55t8.5 -59zM515 7q43 -1 84.5 8.5t79.5 26.5t73 39.5t65 46.5q29 23 57 50t50 57t34.5 63t11.5 68q0 36 -13 68.5t-34.5 62.5t-49 56.5t-56.5 50.5q-30 25 -64.5 47.5t-72 39t-79 26.5t-85.5 10t-85 -9.5t-79 -25.5t-72 -37.5
t-64 -46.5q-31 -23 -60 -50t-51 -57t-35 -63t-13 -69q-1 -36 12 -69t34.5 -63t50 -56.5t58.5 -50.5q31 -24 65.5 -46.5t72.5 -40t79 -27.5t86 -9z" />
    <glyph glyph-name="copyright" unicode="&#xa9;" horiz-adv-x="1028" 
d="M342 191q-42 30 -66 72t-24 89v7q0 2 0.5 3.5t0.5 3.5q0 42 15 82t47 72q-25 -20 -47.5 -42t-39 -47t-26.5 -52t-10 -56v-12q0 -31 11 -60.5t30 -55.5q15 -15 30 -26q49 -40 113 -67t137 -27h6q47 0 91 12h-19h-26q-59 0 -111 22t-89 59zM883 371q0 42 -19.5 79.5
t-50.5 70.5q-50 40 -112 66.5t-133 26.5q-31 0 -60 -5t-57 -14q38 8 73 8h16q63 0 117 -27t86 -72l27 -26q47 -47 54 -106l-7 -8q-19 -1 -38 -1q-18 0 -37 -1q-17 -1 -37 -1.5t-36 -0.5l-47 47h-6v15q0 15 -6 29q-11 4 -25 4h-8q-33 0 -54 -14.5t-32.5 -36t-15.5 -46.5
t-4 -46q0 -3 -0.5 -6.5t-0.5 -6.5q0 -14 2.5 -29.5t7.5 -29.5q19 -8 42 -8h17q35 0 59 25.5t30 57.5q16 0 36.5 -0.5t36.5 -1.5l77 -3q-1 -2 -1 -5l48 -48q-6 -31 -25 -62q37 35 60 78t23 90v8zM191 134q-29 23 -55 49t-45.5 54.5t-31.5 60t-12 66.5v5q0 37 14 72t37 66.5
t53.5 60t63.5 52.5v-1q60 50 136.5 84t164.5 34q45 0 87 -10t80.5 -27.5t73.5 -40.5t66 -48q27 -23 52.5 -47t46.5 -51l7 -6q42 -42 70 -89t28 -102v-5q0 -35 -13.5 -68t-35 -63t-49.5 -57t-58 -50q-30 -24 -64 -46t-71.5 -39.5t-78.5 -27.5t-84 -10h-16q-44 0 -85 10.5
t-78.5 27.5t-71.5 39.5t-64 46.5q-17 14 -33.5 28.5t-32.5 30.5zM767 421q-4 37 -25 69t-53 55.5t-73.5 36.5t-86.5 11q-54 1 -104.5 -15.5t-86.5 -49.5q-38 -32 -56.5 -74.5t-18.5 -87.5q-4 -45 16.5 -86.5t58 -72.5t87.5 -48.5t105 -14.5q41 -2 81 9.5t72.5 32.5t55 50.5
t28.5 63.5q-33 1 -65.5 2.5t-64.5 2.5q-3 -17 -12 -32.5t-23.5 -27.5t-32.5 -18.5t-39 -4.5q-35 -2 -58 11.5t-36.5 34.5t-18.5 46.5t-3 47.5q0 22 4.5 48.5t16.5 49t34 37.5t58 15q24 2 42.5 -6t31.5 -22t19.5 -31.5t5.5 -35.5q34 1 69.5 2t71.5 2zM893 365
q1 -60 -34 -113.5t-88 -93.5q-52 -40 -117 -67t-138 -26q-75 -1 -141 27t-118 70q-26 20 -48.5 43t-39 49t-26 54.5t-8.5 58.5q-1 31 8.5 60t26.5 55t40.5 49.5t50.5 44.5q51 42 117.5 68.5t139.5 26.5t137.5 -28t115.5 -70q25 -20 47.5 -44t39.5 -50t26.5 -55t8.5 -59z
M515 7q43 -1 84.5 8.5t79.5 26.5t73 39.5t65 46.5q29 23 57 50t50 57t34.5 63t11.5 68q0 36 -13 68.5t-34.5 62.5t-49 56.5t-56.5 50.5q-30 25 -64.5 47.5t-72 39t-79 26.5t-85.5 10t-85 -9.5t-79 -25.5t-72 -37.5t-64 -46.5q-31 -23 -60 -50t-51 -57t-35 -63t-13 -69
q-1 -36 12 -69t34.5 -63t50 -56.5t58.5 -50.5q31 -24 65.5 -46.5t72.5 -40t79 -27.5t86 -9z" />
    <glyph glyph-name="trademark" unicode="&#x2122;" horiz-adv-x="1148" 
d="M446 720v-1l20 -20q1 8 2 16.5t3 17.5q17 1 37 1h38q31 0 63.5 -0.5t63.5 -2.5q2 -3 4 -6.5t4 -6.5l41 -40q22 -33 42.5 -65.5t38.5 -66.5q11 29 18 57t7 57q0 23 -9 61q39 -3 75.5 -7.5t71.5 -9.5q3 -1 6 -1t7 -1t7.5 -1.5t8.5 -0.5q45 -30 70 -66l24 -23
q30 -30 45 -66.5t15 -73.5q0 -49 -27 -95t-83 -75q-23 -5 -56.5 -9t-72.5 -9l-38 37q-11 -11 -21.5 -22t-21.5 -22q-7 0 -15 -0.5t-15 -0.5q-14 -1 -27 -1.5t-27 -0.5l-47 47h-4l-9 9q0 38 -9.5 74t-23.5 71v-47q0 -76 -12 -157h-81h-21t-18 1l-47 46q-2 0 -3 0.5t-3 0.5
q-12 108 -12 207v29t1 30q-14 -1 -28 -0.5t-26 0.5q-17 0 -32.5 -0.5t-31.5 -1.5q-9 -26 -13 -52.5t-4 -52.5q0 -49 15 -99.5t41 -101.5q-18 2 -42.5 4t-41.5 4q-11 2 -22 3l-22 2l-47 47h-4q-38 42 -60 90.5t-22 99.5q0 11 1 22.5t3 23.5q-11 -1 -24.5 -1.5t-21.5 -1.5
l-48 47h-8q23 29 44 50t40 36q81 14 164.5 21t170.5 9zM695 330q21 0 41 1l40 2q31 31 60.5 64.5t52 69.5t37 75t15.5 81q16 -35 20.5 -72.5t-3 -74.5t-27 -71.5t-50.5 -62.5q27 3 54 7t53 9q53 28 78.5 72t25.5 91q0 48 -26 93.5t-76 75.5q-42 6 -79 11.5t-79 8.5
q13 -56 -1.5 -110.5t-39.5 -105.5q-21 60 -53.5 116t-69.5 111q-48 2 -94 3t-94 -1q-15 -99 -15 -198q0 -49 3 -98t8 -99q28 -2 54.5 -1t53.5 0q5 38 8 75t3 75v75t-1 75q15 -36 32.5 -72.5t33 -73t25.5 -74.5t10 -77zM436 722q-85 -2 -167.5 -9t-163.5 -21q-19 -15 -36 -31
t-31 -34q30 2 59.5 3.5t58.5 4.5q-21 -35 -27 -73.5t1 -76.5t25.5 -73.5t46.5 -65.5q29 -3 56.5 -6.5t56.5 -5.5q-38 72 -48 151t16 154q17 1 34.5 1.5t34.5 0.5h34q18 0 35 1q3 20 6.5 40t8.5 40z" />
    <glyph glyph-name="acute" unicode="&#xb4;" horiz-adv-x="665" 
d="M455 811q8 -9 17 -18.5t17 -20.5l15 -14q18 -19 36 -40.5t36 -47.5l-42 -15q-58 -21 -115.5 -41t-120.5 -34q-5 4 -9 8l-9 9l-31 30h-1q-17 14 -31.5 30t-31.5 36q60 29 128 60.5t132 58.5zM449 803q-64 -27 -126.5 -56t-122.5 -58q21 -27 50 -51q69 16 134 39t131 47
q-14 21 -31 40.5t-35 38.5z" />
    <glyph glyph-name="dieresis" unicode="&#xa8;" horiz-adv-x="665" 
d="M170 680q-29 16 -35 42q5 15 16 26t25.5 19t30.5 13.5t31 8.5h4q21 0 37 -11t24 -26l35 -35q-1 1 -2 1l-1 1l3 -2q19 -19 19 -43v-6q0 -21 -17.5 -40t-43.5 -19q-2 0 -3.5 0.5t-3.5 0.5h-1q-22 3 -46 12t-39 25zM391 662q-17 9 -26.5 26.5t-9.5 34.5q0 11 4.5 22.5
t12.5 21.5t20 16t27 6h8q13 -3 27.5 -7t28 -10t24.5 -15t17 -21l36 -36q12 -12 15 -26q-4 -17 -14.5 -28t-25 -18.5t-30 -12t-29.5 -7.5h-7q-13 0 -23 4.5t-18 12.5zM239 667q13 -2 25 2.5t20 12.5t12.5 18.5t3.5 21.5q1 21 -15.5 39.5t-44.5 17.5q-14 -3 -29 -8t-28 -11.5
t-23 -16t-14 -21.5q3 -12 12.5 -21.5t23 -16t28.5 -11t29 -6.5zM424 665q13 3 28.5 7t29 11t23.5 16.5t13 23.5q-3 13 -13 22.5t-23.5 16t-29 10.5t-28.5 7q-28 2 -43.5 -17t-15.5 -39q0 -21 15.5 -40.5t43.5 -17.5z" />
    <glyph glyph-name="AE" unicode="&#xc6;" horiz-adv-x="1122" 
d="M457 390q-14 -22 -26.5 -44.5t-25.5 -45.5h24h28v82v8zM87 69q-2 1 -3.5 1.5t-3.5 1.5q1 72 20.5 137t51 126.5t71 120t81.5 116.5q26 37 53 75.5t50 75.5q29 2 61 2.5t61 0.5q117 0 230.5 -13.5t225.5 -45.5l2.5 -5t3.5 -6l43 -42q3 -5 6.5 -10t6.5 -10q13 -20 25.5 -40
t22.5 -44l-7 -10q-88 12 -176 20t-177 12q1 -11 1.5 -22t1.5 -22q1 -9 0.5 -18t0.5 -17q27 -1 54.5 -1.5t53.5 -0.5q37 -2 75.5 -2.5t75.5 -1.5h16q0 -5 1 -7l46 -46q6 -38 6 -70q0 -14 -1 -31.5t-3 -38.5q-80 -3 -159.5 -4t-157.5 -2q-2 -22 -3 -43t-3 -42q79 4 159.5 12
t164.5 22l-3 -6l48 -48q-32 -69 -79 -127q-100 -30 -204 -42.5t-212 -12.5q-22 0 -47.5 0.5t-47.5 1.5l-47 46q-2 0 -3 0.5t-3 0.5q-1 10 -1 23t-1 24q0 10 -0.5 20t-0.5 19q0 5 -0.5 10.5t-0.5 10.5q-35 1 -71 2t-71 3q0 -1 -0.5 -1.5t-0.5 -1.5q-12 -29 -22 -60t-15 -71
q-3 1 -9.5 2t-9.5 2q-32 6 -63.5 13t-66.5 19zM316 291q35 69 73.5 133.5t80.5 130.5q-2 -66 -3 -132.5t1 -132.5q-39 0 -77 0.5t-75 0.5zM1039 557q-11 26 -27 51l-32 50q-138 40 -280.5 51t-286.5 4q-48 -77 -104.5 -152t-104.5 -152.5t-80.5 -159t-33.5 -170.5
q33 -11 67 -18t69 -14q4 35 15.5 68t24.5 65q51 -3 102 -4.5t102 -2.5q1 -38 3 -76.5t3 -76.5q129 -5 254.5 6t246.5 47q42 51 70 111q-91 -15 -183 -22.5t-185 -9.5q3 39 5.5 76.5t4.5 76.5q81 1 159 2t159 4q3 31 3 63q0 16 -1.5 31.5t-3.5 31.5q-79 2 -158 4.5t-158 4.5
q-5 36 -6.5 71.5t-4.5 72.5q182 -7 361 -33z" />
    <glyph glyph-name="Oslash" unicode="&#xd8;" horiz-adv-x="850" 
d="M351 476q-21 -39 -30.5 -81.5t-9.5 -84.5q31 44 62.5 87.5t62.5 87.5q9 12 18 24.5t18 25.5q4 6 6 10h-8q-38 0 -71.5 -19.5t-47.5 -49.5zM587 368q-41 -57 -82 -113t-83 -113h7h6q46 1 76 21.5t46.5 50.5t23 66t6.5 68v13v7zM715 714l44 -44l4 -8q-4 -14 -10.5 -28
t-14.5 -28q-3 -6 -6.5 -12t-5.5 -12q27 -28 51.5 -58.5t42.5 -63.5t29 -68t11 -71v-15q0 -66 -31 -125.5t-81 -110.5q-48 -53 -118 -87.5t-155 -34.5h-9q-41 2 -79 11t-71 26q-8 -14 -16.5 -28t-16.5 -26q-26 8 -50.5 16t-49.5 22l-44 43q-2 2 -5 3t-5 3q1 2 3 6.5t4 8.5
q2 5 6 13l3 6q5 12 11 25t15 27q-28 27 -52.5 56.5t-43 62t-29 66.5t-10.5 69v10q0 69 33.5 131.5t82.5 114.5q48 53 115.5 89t151.5 36h12q38 -1 76.5 -10t73.5 -26q4 7 7 11.5t6 9.5l-1 -1q7 12 15 25q2 2 3.5 5.5t3.5 5.5q19 -6 43 -15t53 -22zM337 155q63 85 123 167
t117 170q12 -32 16 -65t4 -66q1 -34 -4.5 -73.5t-23.5 -73.5t-50 -57.5t-84 -24.5q-27 -1 -52.5 5t-45.5 18zM277 243q-12 26 -17 53.5t-6 54.5q0 45 9 90.5t32 87.5q16 33 53 54t79 19q23 -1 47.5 -6t41.5 -17q-60 -85 -120.5 -168t-118.5 -168zM706 714q-20 9 -42 17
t-45 15q-8 -14 -17 -27.5t-17 -27.5q-34 17 -73 27t-81 11q-84 3 -154 -32.5t-118 -89.5q-48 -51 -81 -113t-32 -129q-1 -37 9.5 -72.5t29.5 -68t44.5 -62.5t54.5 -57q-14 -20 -23 -41t-19 -42q20 -11 42.5 -18.5t45.5 -14.5q8 13 16.5 27t16.5 28q34 -17 72.5 -27t80.5 -12
q85 -2 156.5 32t120.5 88q51 51 81.5 112t28.5 127q1 37 -9.5 73t-29 69.5t-43.5 64.5t-53 59q10 22 20.5 41.5t17.5 42.5z" />
    <glyph glyph-name="plusminus" unicode="&#xb1;" horiz-adv-x="781" 
d="M701 102q-1 -1 -1 -3l48 -48q-6 -21 -16 -43.5t-23 -48.5q-62 -26 -128.5 -39t-133.5 -13q-73 0 -144.5 15t-137.5 46l-45 44q-2 1 -3.5 2t-3.5 2q-11 26 -21.5 52t-18.5 55q69 -19 136 -30t132 -15l-26 27q-2 0 -3 0.5t-3 0.5q-2 33 -2.5 71.5t-0.5 76.5h-201l-47 47h-6
q1 33 2.5 63.5t7.5 57.5q59 6 123 10.5t122 6.5q0 5 0.5 8.5t0.5 6.5v12t1 12q2 38 4 80.5t6 81.5q33 3 78 3q16 0 32.5 -1t34.5 -4v-7l47 -46q3 -36 5.5 -73.5t4.5 -75.5q97 -6 191 -18l8 -8q0 -4 1 -5l46 -46q9 -50 9 -108h-66q-34 0 -66 1q-30 1 -60 1.5t-59 0.5v-91
q0 -19 -0.5 -39.5t-0.5 -40.5q83 9 166 30zM691 103q-148 -37 -302.5 -36t-300.5 41q6 -22 14.5 -43t17.5 -42q61 -29 128.5 -43.5t137 -15.5t138 11.5t130.5 38.5q11 23 20.5 44.5t16.5 44.5zM710 408q-125 17 -244 21q-3 100 -12 200q-31 5 -63 4t-63 -3q-5 -51 -7 -100
t-4 -100q-60 -2 -121.5 -6t-124.5 -11q-5 -25 -6.5 -50.5t-2.5 -51.5h254q0 -99 3 -195q18 -1 36 -1.5t37 -0.5t37.5 0.5t36.5 1.5q1 24 1.5 48t0.5 49v98q63 0 125.5 -1.5t125.5 -1.5q0 50 -9 100z" />
    <glyph glyph-name="yen" unicode="&#xa5;" horiz-adv-x="782" 
d="M583 317l-3 -4.5t-2 -3.5q38 1 76 2.5t73 4.5h-48h-48t-48 1zM698 664q-1 -2 -1 -3l-1 -2l48 -47q-12 -39 -28 -73.5t-35 -67.5q14 -1 27 -1.5t25 -1.5q0 -5 1 -7l46 -46q4 -26 5.5 -51t1.5 -48h-49v-5l47 -47q0 -26 -3 -48t-9 -45q-63 -10 -120.5 -14.5t-114.5 -6.5
q-2 -46 -6 -92t-10 -95q-20 -2 -41.5 -2.5t-40.5 -0.5t-39 1t-42 5l-46 45q-2 1 -4 1q-1 0 -3 1q-4 33 -6.5 70t-4.5 70q-46 2 -93 7t-95 13l-46 46q-5 0 -7 1q-1 5 -1.5 12t-1.5 13t-1.5 11.5t-1.5 10.5v-1q-2 11 -3.5 23.5t-2.5 29.5q57 -5 118 -7.5t120 -3.5q-4 6 -6 10
h-180l-47 47h-6q0 27 1.5 53t5.5 52q20 2 43 3t43 3q5 0 9 0.5t9 0.5q5 1 10 1h10h4q-2 2 -3.5 4.5t-2.5 5.5v-1q-25 42 -48 85t-38 96q45 20 92 32.5t97 17.5q1 -2 2 -5t2 -5l44 -43q23 -48 49.5 -92t55.5 -88q35 55 66.5 109.5t59.5 114.5q33 -6 65 -16.5t64 -22.5
q4 -2 8.5 -3t8.5 -3zM590 466q28 48 54 94.5t41 97.5q-32 12 -63 22.5t-64 16.5q-29 -63 -63.5 -121t-73.5 -118q-43 61 -82 122t-72 127q-91 -11 -170 -45q14 -51 41 -98t55 -95q-35 -2 -68 -4t-68 -5q-6 -44 -6 -85q51 0 101.5 -0.5t101.5 0.5q11 -19 22 -38.5t24 -38.5
q-63 1 -123.5 3t-123.5 7q2 -20 5 -39.5t5 -39.5q120 -18 239 -21q3 -48 5.5 -93t7.5 -93q37 -5 75 -4.5t76 2.5q6 48 10 93.5t5 93.5q60 2 118 6.5t118 13.5q5 20 8 39.5t3 39.5q-61 -5 -122.5 -6t-122.5 -2q14 18 24 38t22 38q26 -1 50 -1h50h101q0 41 -6 85
q-34 3 -67 4.5t-67 3.5z" />
    <glyph glyph-name="mu1" unicode="&#xb5;" horiz-adv-x="781" 
d="M136 -105q-28 67 -41 136.5t-13 141.5q0 152 62 305q39 19 80.5 32t86.5 20q0 -2 -0.5 -3.5t-0.5 -3.5l48 -47q-7 -66 -13 -134t-8 -132v-39q0 -15 2 -30t7 -29q21 -8 42 -8q23 0 44.5 6.5t33.5 22.5q15 20 19 44.5t6 50.5q0 4 0.5 7.5t0.5 7.5v9q0 5 1 9q-2 21 -3 42
t-3 41q-3 44 -7 93t-9 93q46 -8 87 -22.5t79 -34.5q1 -2 1 -4q0 -1 1 -3l46 -45q61 -144 61 -295q0 -75 -15 -154q-38 -10 -76.5 -15t-80.5 -10l-25 25q-18 -17 -41.5 -27t-52.5 -10h-6q-23 0 -44.5 5.5t-39.5 17.5q-13 8 -22 17l-3 3q3 -48 7 -96t9 -95q-94 15 -164 55
l-40 40q-3 2 -5.5 3t-5.5 3zM146 -102q69 -40 152 -53q-5 55 -9.5 108.5t-6.5 110.5q0 -16 11.5 -28.5t25.5 -21.5q17 -11 38 -16.5t42 -5.5q24 -1 45.5 6t38.5 19.5t30 29t20 34.5v-38v-19q0 -9 -1 -19q37 4 72.5 9t70.5 14q21 111 10.5 221.5t-55.5 216.5q-68 38 -148 51
q8 -66 12 -129.5t9 -129.5q-2 -16 -2.5 -33t-3 -34t-8 -33.5t-16.5 -30.5q-14 -18 -37 -25.5t-48 -7.5q-18 1 -34.5 5t-30.5 14q-27 21 -35 50t-8 58v39q2 64 7.5 128t12.5 130q-78 -12 -149 -47q-57 -141 -59.5 -287.5t54.5 -285.5z" />
    <glyph glyph-name="ordfeminine" unicode="&#xaa;" horiz-adv-x="473" 
d="M84 445q-19 14 -34 31.5t-23 38.5q-1 2 -1 11q0 19 12.5 35.5t29.5 27.5l6 3l-33 34h-8q12 29 33.5 52t48.5 39t58 24.5t62 8.5h8q47 -2 86 -19t67 -48l6 -8l6 -8l36 -36q12 -13 18.5 -29t9.5 -33q1 -11 1.5 -22.5t0.5 -22.5q0 -23 -2.5 -43.5t-10.5 -40.5q-1 -4 -2 -7.5
t-2 -6.5q-2 -7 -4.5 -14.5t-7.5 -20.5l-4 -4q-25 -9 -53 -14t-58 -7l-17 16q-17 -10 -36.5 -15.5t-40.5 -5.5q-3 0 -7 0.5t-7 0.5q-32 6 -60.5 20t-49.5 36zM288 542q0 -12 -5.5 -24t-15.5 -22t-23 -15.5t-28 -4.5q-19 -1 -33.5 10t-13.5 27q2 17 14.5 27t30.5 15t37.5 7
t36.5 4v-24zM389 444q5 13 8 24.5t7 24.5q11 30 12.5 61.5t-1.5 63.5q-3 15 -9 30.5t-17 27.5q-26 29 -63.5 45.5t-82.5 18.5q-31 1 -61.5 -6t-56.5 -20.5t-46.5 -33t-30.5 -44.5q29 0 59 -1t58 -3q1 21 20.5 34.5t44.5 12.5q23 1 40.5 -11t16.5 -31q0 -5 -1 -8t1 -8
q-27 -2 -55 -3.5t-56 -5.5t-54 -11.5t-48 -20.5q-18 -11 -30.5 -29t-5.5 -37q15 -37 52.5 -62t82.5 -33q32 -3 61.5 8t52.5 31v-9q1 -12 0.5 -17t-0.5 -8q26 2 51.5 6.5t50.5 13.5z" />
    <glyph glyph-name="ordmasculine" unicode="&#xba;" horiz-adv-x="469" 
d="M226 530q0 -9 0.5 -19.5t2.5 -20.5h5q18 0 29 9t17 22t8 28t2 27q0 10 -1 22t-4 24h-2q-20 0 -31.5 -9.5t-17 -24t-7 -30.5t-1.5 -28zM231 751q56 -2 105 -28.5t78 -67.5l27 -26q22 -22 35.5 -48t16.5 -54q-3 -33 -22 -63t-49 -52.5t-67 -36.5t-76 -15q-45 4 -85.5 23
t-69.5 48l-24 23q-33 24 -54.5 56.5t-23.5 69.5q0 36 23 68t57 55q26 20 56.5 34t64.5 14h8zM237 679q22 -1 34.5 -12t19 -26.5t8 -33t1.5 -31.5t-2.5 -30.5t-9.5 -31t-20 -24.5t-34 -10q-21 1 -34 11.5t-20 25.5t-9 32t-2 31t2 31.5t8.5 33t20 25.5t37.5 9zM231 741
q-36 2 -69 -13.5t-59 -35.5q-30 -21 -50.5 -50t-20.5 -62q2 -32 19.5 -60t45 -50t62 -36t71.5 -17q37 1 73 14.5t64.5 35t47 50t21.5 60.5q-3 31 -21 60.5t-46 52t-63.5 36.5t-74.5 15z" />
    <glyph glyph-name="ae" unicode="&#xe6;" horiz-adv-x="1065" 
d="M768 385q-23 0 -40 -10.5t-28 -26.5h14q29 -1 60 -1q32 0 62 -1q-2 8 -5.5 15t-7.5 14q-20 9 -43 9q-3 0 -6 0.5t-6 0.5zM403 386q-31 0 -58 -13.5t-43 -35.5q17 2 34 3t34 3q14 1 29.5 2.5t29.5 3.5v12v12q0 7 1 12q-10 2 -14 2q-8 0 -13 -1zM294 117q13 -5 32 -7h8
q21 0 37.5 7.5t29 19.5t19.5 27.5t8 31.5q-24 -2 -48 -6.5t-43 -13t-31 -22t-12 -34.5v-3zM681 173q1 -12 1 -23t3 -22q12 -5 24.5 -6.5t26.5 -1.5q34 2 63.5 19.5t44.5 45.5q-42 -1 -82 -0.5t-82 0.5q1 -4 1 -12zM68 359q-2 0 -4 0.5t-4 0.5q12 24 28 44t35 36.5t40 29.5
t41 24q42 18 84 32t89 17h2q8 1 15.5 1.5t15.5 0.5q35 0 70.5 -9t67.5 -28q30 17 62 26t64 9q7 0 13.5 -0.5t13.5 -1.5h2q55 -4 106 -27t94 -53v1q27 -17 49.5 -38t39.5 -45l18 -17q32 -32 50.5 -70t18.5 -80v-9q0 -4 -1 -8l-7 -6q-10 -1 -20 -1h-18l43 -43
q-27 -38 -62 -70.5t-76 -57.5t-87 -41.5t-96 -22.5q-6 -1 -12 -1h-12q-57 0 -107.5 22.5t-89.5 55.5q-31 -29 -74 -49.5t-91 -20.5q-22 0 -39 4q-53 10 -101 34t-83 59l-17 17q-25 17 -44.5 38.5t-31.5 46.5q-8 15 -8 34q0 26 15.5 50t40.5 39q15 8 31.5 15.5t33.5 12.5
q-27 1 -51 3zM437 258q1 -13 0 -25.5t1 -25.5q1 -20 -6.5 -39.5t-22 -35.5t-35.5 -25t-48 -7q-16 1 -31.5 6.5t-27.5 14t-20 20t-10 24.5q-2 31 18.5 49t51.5 27t66.5 12t63.5 5zM625 340q0 18 7 37.5t20.5 34.5t33 23.5t44.5 5.5q26 0 47 -9.5t36 -24.5t24.5 -34t12.5 -38
q-57 3 -112.5 3.5t-112.5 1.5zM1021 246q6 63 -29.5 116.5t-94.5 90.5q-42 29 -91.5 51.5t-103.5 26.5q-42 5 -80.5 -4.5t-72.5 -30.5q-35 23 -80 32.5t-91 4.5q-45 -3 -86.5 -16.5t-83.5 -31.5q-40 -21 -76.5 -49.5t-55.5 -66.5q40 -2 79.5 -3t77.5 -2q4 17 15 31.5t27 25
t36 16.5t41 6q18 2 35 -1t29.5 -11.5t19.5 -20.5t4 -28q-1 -5 -1 -11v-10v-11q0 -5 -1 -10q-42 -5 -85.5 -8.5t-86 -9.5t-83 -17.5t-76.5 -31.5q-30 -19 -45 -49t0 -61q14 -27 37 -50.5t52.5 -41.5t62.5 -31t68 -19q29 -6 57.5 -2.5t54.5 13t49 25t41 33.5q42 -38 99 -62
t121 -18q99 11 178 60t130 118q-40 1 -77.5 0t-75.5 2q-12 -33 -46.5 -55.5t-76.5 -24.5q-23 0 -44 5t-38 18q-12 11 -18 24.5t-8.5 27.5t-3 28.5t-1.5 28.5q100 0 199 0.5t199 3.5z" />
    <glyph glyph-name="oslash" unicode="&#xf8;" 
d="M365 384q-28 -11 -43 -34.5t-21 -51.5q16 22 32 43.5t32 42.5zM393 113q29 11 43.5 36t20.5 53q-14 -20 -29 -40.5t-29 -40.5zM591 543l45 -45l4 -10q-2 -5 -4 -8.5t-4 -8.5q-5 -12 -10 -23.5t-12 -22.5q4 -4 7 -7.5t7 -8.5l7 -6l11 -11q36 -36 60 -78t24 -90v-8
q0 -52 -28.5 -99t-70.5 -83q-42 -39 -98.5 -64.5t-120.5 -25.5h-3q-29 1 -58 6.5t-56 14.5q-4 -5 -7 -9.5t-7 -9.5t-9 -11.5t-10 -13.5q-26 6 -43 11.5t-34 11.5l-16 5l-45 45l-9 3q9 20 17.5 37.5t18.5 33.5l-3 4q-48 38 -80 88.5t-32 104.5v6q0 54 26.5 102t68.5 86
q41 42 98.5 67.5t123.5 25.5h12q27 0 54.5 -5t53.5 -16q4 8 10 16q2 2 5 7t16 22q20 -5 44 -11.5t44 -13.5zM298 112q42 60 85 118.5t81 119.5q9 -45 9 -89q0 -24 -4.5 -53t-17 -53.5t-36 -41.5t-61.5 -17q-30 0 -56 16zM244 198q-2 24 -3 48.5t-1 48.5q-1 23 3.5 50.5
t18 50.5t36.5 38t58 14q15 0 30.5 -3.5t26.5 -11.5q-45 -60 -86 -117.5t-83 -117.5zM584 541q-20 7 -40 13t-40 11q-8 -11 -15.5 -23.5t-15.5 -23.5q-27 14 -58 19.5t-63 4.5q-64 1 -121 -23.5t-97 -66.5q-40 -37 -66 -83.5t-26 -97.5q-1 -29 8 -56.5t25.5 -53t38.5 -48.5
t47 -42q-11 -16 -20 -32.5t-17 -34.5q20 -7 40 -13.5t41 -11.5q8 11 17 22t17 22q28 -10 57.5 -15.5t58.5 -6.5q63 -1 119 24t98 64q42 36 70 82t27 97q1 30 -8.5 58t-26 54t-38.5 49t-47 43q11 17 19 34.5t16 34.5z" />
    <glyph glyph-name="questiondown" unicode="&#xbf;" horiz-adv-x="679" 
d="M263 537q43 6 90 6q48 0 98 -9q0 -2 0.5 -4t0.5 -4l46 -45q5 -29 7 -55.5t4 -51.5l4 -50q-14 1 -26 2l-24 2l32 -32l4 -11v-24q0 -26 -2 -52t-16 -52q-23 -29 -51 -47t-57 -35q-26 -14 -47 -34t-21 -46q0 -6 1 -10q0 -3 -0.5 -6t0.5 -6q22 -10 42 -10h11q28 0 49 11.5
t36 30t23.5 41.5t10.5 45q5 -1 11 -1.5t14 -0.5q6 -1 12 -1h11h5q18 -2 35.5 -3t35.5 -1q12 0 28.5 1t37.5 4q-1 -2 -1.5 -3.5t-1.5 -3.5l48 -47q-17 -46 -46.5 -91.5t-70.5 -82t-92.5 -60t-112.5 -24.5q-59 1 -109 25t-91 57l-8 8q-4 3 -7.5 6.5l-6.5 6.5l-16 16
q-4 3 -7.5 5.5t-6.5 5.5l-32.5 32.5t-30.5 35t-24.5 38t-13.5 41.5v1q-1 4 -1.5 8t-0.5 9q0 27 12 50.5t31 44t43 37.5t49 31l21 12q14 7 28 16t25 20q8 13 11 30.5t3 36.5h13l-24 24h-5q2 24 4 54.5t4 55.5q0 5 0.5 10.5t1.5 10.5t1 11t1 12zM440 339q-42 3 -84 2.5
t-87 -1.5q0 -16 -3 -32t-12 -30q-16 -17 -37.5 -28.5t-41.5 -23.5q-26 -14 -50.5 -32t-43.5 -39.5t-28.5 -46.5t-4.5 -53q3 -20 13 -39t23.5 -36.5t29.5 -34t32 -31.5q39 -32 88.5 -55.5t106.5 -24.5q60 1 110 23t89.5 56.5t67.5 77.5t44 86q-42 -5 -82.5 -2t-82.5 5
q-2 -23 -11.5 -46t-26 -41.5t-40.5 -29.5t-55 -10q-20 -1 -39 5t-33.5 17.5t-23.5 26t-9 31.5q-6 33 17 57t54 41q30 17 57.5 35t47.5 43q14 26 15.5 55t1.5 57v12zM265 527q-3 -35 -6.5 -71.5t-5.5 -71.5q51 3 101 3q25 0 50 -1.5t51 -3.5q-3 35 -5.5 71t-7.5 72
q-46 8 -89 8q-45 0 -88 -6z" />
    <glyph glyph-name="exclamdown" unicode="&#xa1;" horiz-adv-x="391" 
d="M292 494v-3l38 -37q6 -6 8 -9l1 -3q5 -27 6.5 -55t3.5 -56q0 -2 1 -12t3 -22q-20 9 -39 14.5t-39 8.5l38 -38l7 -47q13 -91 24.5 -179.5t11.5 -179.5q0 -8 -0.5 -18.5t-0.5 -18.5q-17 -23 -43.5 -40.5t-68.5 -17.5h-10q-24 3 -42.5 15t-33.5 27l-25 25q-14 10 -25.5 22
t-22.5 24v33q0 83 9 165.5t21 164.5q1 9 2 18.5t3 19.5q1 5 1.5 11t1.5 12l-30 30q-2 0 -2.5 -1t-2.5 -1q2 23 4.5 52.5t4.5 51.5q0 5 0.5 11t1.5 12t1 12q0 7 1 13q18 21 42.5 31.5t50.5 10.5q28 0 54.5 -11t43.5 -34zM257 326q-29 6 -61 6q-16 0 -31 -1t-31 -3
q-14 -108 -28.5 -215t-11.5 -215q17 -20 38 -38t52 -22q43 -2 70.5 14.5t43.5 39.5q3 109 -11 217t-30 217zM282 491q-15 19 -38 28.5t-47.5 10.5t-48 -8t-38.5 -27q-3 -34 -6.5 -67t-5.5 -67q46 19 98.5 18.5t97.5 -21.5q-2 33 -4.5 66.5t-7.5 66.5z" />
    <glyph glyph-name="logicalnot" unicode="&#xac;" horiz-adv-x="781" 
d="M473 13q9 23 13 46.5t6 46.5h-55h-145t-145 -1l-47 47h-6q3 38 20 70t40 58q58 11 115.5 16.5t114.5 5.5q126 0 243 -24q14 -14 27 -32l22 -21h-1l6 -5q26 -27 40 -59.5t14 -65.5t-14 -65t-43 -58q-35 -8 -71 -12.5t-74 -6.5l-47 47h-4zM483 10q36 2 71 6.5t71 12.5
q27 24 40.5 55.5t12.5 64t-14.5 63.5t-40.5 56q-114 23 -231.5 24t-232.5 -21q-21 -24 -36 -52t-18 -57q100 1 199.5 1.5t199.5 -0.5q1 -39 -3 -77.5t-18 -75.5z" />
    <glyph glyph-name="florin" unicode="&#x192;" horiz-adv-x="781" 
d="M249 578q10 1 19.5 1.5t18.5 0.5q5 0 9.5 0.5t9.5 0.5h10q11 38 26.5 76t48.5 67h-1q22 19 46.5 27t48.5 8q41 0 77 -17q20 -9 39.5 -21t39.5 -26v-4l47 -47q0 -7 2 -15q2 -14 3 -28t1 -30v-23q-14 7 -26.5 12.5t-26.5 10.5h-1l-13 3q-12 3 -21 3q-10 0 -17 -4h1
q-5 -4 -8 -10q4 -1 7 -1t7 -1t7 -1.5t7 -1.5q4 -2 9 -2q3 -1 6 -1h6q0 -2 -0.5 -3t-0.5 -3l48 -47q-2 -28 -5.5 -61t-7.5 -60q-15 1 -32.5 2t-31.5 3q-13 2 -26 2q-12 0 -25 2q-19 -99 -41 -196.5t-48 -195.5q-6 -29 -17.5 -56t-32.5 -53l1 -1q-15 -20 -36.5 -33t-47.5 -19
q-8 -2 -16.5 -3t-17.5 -1q-22 0 -43 5.5t-39 15.5q-20 11 -37.5 21t-34.5 21l-39 39q-4 2 -7.5 4.5t-6.5 4.5q0 11 -0.5 18t-1.5 14q0 3 -0.5 4.5t-0.5 2.5q-1 4 -1.5 9.5t-0.5 18.5q0 3 1.5 14t3.5 25q39 -24 54 -28q16 -8 32 -8q18 0 28 11q4 7 6 22q0 2 0.5 3t0.5 3
q0 1 0.5 2t0.5 2q0 2 1 4q13 82 28 165.5t33 165.5q-5 -1 -9 -1h-7l-48 47h-7q5 15 12 37t12 38q4 11 7 26q2 8 5 16.5t5 16.5zM251 568q-10 -30 -18 -61t-18 -60q39 1 81 3q-23 -99 -41.5 -195.5t-34.5 -196.5q-2 -11 -4 -20.5t-7 -19.5q-11 -14 -31.5 -14.5t-35.5 6.5
q-26 7 -48 21q-3 -21 -0.5 -41.5t3.5 -40.5q35 -23 68 -40q24 -13 53.5 -18t57.5 2q24 5 45 17.5t35 31.5q20 25 31 52t17 56q26 100 49 199t42 199q29 -2 57 -5t57 -5q4 27 6.5 53.5t4.5 54.5q-27 5 -53 10t-52 8q2 17 4.5 35.5t16.5 29.5q14 8 28 4.5t29 -5.5
q22 -7 44 -19q1 20 -1.5 40.5t-4.5 40.5q-17 13 -35 23.5t-38 19.5q-18 8 -39 12t-42 3.5t-40 -7t-34 -19.5q-36 -30 -52 -70t-27 -80q-18 -1 -36 -1.5t-37 -2.5z" />
    <glyph glyph-name="guillemotleft" unicode="&#xab;" horiz-adv-x="454" 
d="M154 133q-9 12 -18.5 23.5t-19.5 22.5q-4 5 -7.5 8.5t-7.5 8.5q-17 20 -35 41.5t-36 46.5q12 16 27 33.5t29 34.5l15 18q14 16 28.5 33.5t28.5 34.5h9q7 1 13 1.5t12 0.5t14.5 0.5t31.5 2.5l-3 -6l48 -48l-8 -14t-8 -15q12 17 23 34.5t22 37.5q19 -5 24.5 -7t13.5 -4
q3 -1 11 -3q3 -1 7 -2t6 -2v-5l47 -47q1 -8 2 -14.5t1 -11.5q0 -26 -9 -52.5t-20 -51.5q6 -18 7 -20.5t3 -6.5q7 -19 13.5 -38t6.5 -37q0 -13 -4 -26q-4 -2 -9.5 -3.5t-9.5 -3.5q-8 -3 -16.5 -5.5t-18.5 -4.5l-7 4l-43 43l-9 5q-12 26 -30.5 51.5t-37.5 50.5q-4 5 -7.5 9.5
t-7.5 9.5q-1 1 -1.5 2t-1.5 2q-5 -8 -9 -16l-8 -16q8 -15 15 -29.5t15 -28.5q11 -21 22.5 -42t23.5 -53h-17q-8 0 -15 0.5t-15 1.5q-6 1 -12 1.5t-11 0.5l-6 3l-44 44h-1zM161 140q16 -1 30.5 -3t29.5 -1q-16 38 -35.5 73t-37.5 73q19 37 36.5 74.5t36.5 74.5q-8 -1 -15 -1
h-14t-14.5 -0.5t-15.5 -1.5q-29 -36 -60 -71.5t-60 -72.5q26 -38 58.5 -72.5t60.5 -71.5zM316 144q12 2 24.5 6.5t24.5 8.5q4 16 2 31.5t-6.5 31t-11 30.5t-11.5 30q12 29 22 60.5t5 63.5q-11 3 -23 7.5t-25 6.5q-20 -37 -45 -70.5t-51 -67.5q25 -34 51.5 -67t43.5 -71z" />
    <glyph glyph-name="guillemotright" unicode="&#xbb;" horiz-adv-x="454" 
d="M345 384q13 -17 27 -34t28 -33q18 -20 35.5 -40.5t33.5 -43.5q-21 -29 -43.5 -56t-45.5 -53l-18 -20t-17 -20l-3 -2q-14 -3 -31 -3h-18q-9 0 -24 -2l-47 47q-2 0 -4 -0.5t-4 -0.5q2 5 5 10.5t6 12.5q-10 -14 -18 -27l-16 -26l-9 -3l-5 1l-10 2q-13 3 -38 15l-43 43
q-5 2 -10 5q-2 6 -2 10v9q0 25 7.5 46.5t17.5 44.5l7 17q-14 27 -21.5 54.5t-7.5 55.5v9q0 2 0.5 6t0.5 6q37 15 63 19l6 -12l42 -41q18 -32 40.5 -65.5t48.5 -65.5q4 8 7.5 16t7.5 16q-14 28 -26 55q-4 8 -7 14.5t-7 14.5v-1q-2 4 -4 9l-4 10l-15 30t-13 27h23
q8 0 14.5 -0.5t14.5 -1.5h3q5 -1 10 -1h14q3 -5 6.5 -9t6.5 -9zM290 139q30 35 61.5 70.5t58.5 73.5q-27 38 -58.5 72t-60.5 72q-15 1 -29 2.5t-29 0.5q18 -37 35 -74t36 -74q-18 -38 -36.5 -74t-36.5 -73q8 1 15 1h15q15 0 29 3zM135 146q20 37 46.5 70t51.5 66
q-26 34 -51.5 69t-45.5 71q-12 -2 -23.5 -5.5t-24.5 -8.5q-3 -32 6 -63.5t23 -61.5q-12 -30 -24 -59.5t-8 -61.5q12 -6 25 -9t25 -7z" />
    <glyph glyph-name="ellipsis" unicode="&#x2026;" horiz-adv-x="1054" 
d="M737 -3h-6l-4 17q25 14 37.5 31.5t12.5 36.5q0 23 -18 44l-12 13q-4 3 -8.5 6.5t-9.5 6.5l6 16l65 -3q23 -1 47 -2t47 -3q23 -9 46.5 -21t38.5 -38l34 -33q15 -15 24 -39q-8 -26 -30 -39.5t-47 -24.5q-6 -2 -10 -3.5t-6 -2.5l-3 -1q-23 -2 -46 -3l-46 -2
q-16 -1 -32.5 -1.5t-32.5 -1.5zM111 29q-15 10 -27.5 24t-17.5 35q11 29 35 43t49 25l6 3q2 1 3.5 1.5t3.5 1.5q4 0 8 0.5t9 0.5h8t9 1q15 1 35 1.5t42 1.5t42.5 1.5t35.5 0.5l-9 -6l47 -47q-32 -20 -48.5 -42t-16.5 -42t9 -35l32 -32l-4 -13q-13 1 -26 1.5t-26 1.5
q-26 2 -52 3t-52 3q-2 0 -2 1v0h-1l-1 1q-15 7 -31 15t-30 22zM437 -5h-5q-22 45 -22 90q0 43 22 88q22 1 47 1h48t48 -0.5t47 -1.5q1 -3 2 -5.5t2 -4.5l44 -43q22 -44 22 -88q0 -21 -5.5 -43t-17.5 -42h-71h-57t-57 2zM891 15q13 6 27 11.5t26 13t21.5 16.5t13.5 23
q-6 16 -15.5 27.5t-21 19.5t-25 13.5t-26.5 10.5q-37 3 -75 4.5t-76 3.5q23 -14 35 -34.5t11.5 -42t-12.5 -41.5t-37 -33q38 2 76.5 3.5t77.5 4.5zM615 3q21 37 20.5 79t-19.5 80q-22 1 -44 1.5t-45 0.5h-45t-44 -1q-18 -38 -17.5 -79t17.5 -79q45 -2 88.5 -1.5t88.5 -0.5z
M312 9q-23 14 -33.5 34t-10 41t12 41t34.5 34q-38 0 -75 -2.5t-75 -4.5q-13 -6 -27 -12t-26 -13.5t-21.5 -17t-14.5 -21.5q4 -16 13.5 -27t21 -19t24 -13.5t23.5 -10.5q38 -4 77 -5.5t77 -3.5z" />
    <glyph glyph-name="nonbreakingspace" unicode="&#xa0;" horiz-adv-x="332" 
 />
    <glyph glyph-name="Agrave" unicode="&#xc0;" horiz-adv-x="810" 
d="M414 433q-14 -35 -27.5 -69.5t-26.5 -69.5h108q-12 32 -24 63.5t-24 61.5q-2 4 -6 14zM519 715q1 -3 3 -7l44 -44q15 -33 32 -66.5t34 -67.5q28 -55 55 -111t48.5 -113t35 -115.5t13.5 -117.5q0 -31 -3 -55q-87 -35 -184 -48l-48 47h-5q-2 20 -5.5 39t-8.5 39v2h-61
q-86 0 -173 6q-9 -29 -16 -60t-12 -66q-74 16 -154 48l-45 44l-4 2l-4 2v18q0 65 14 128t37.5 124.5t53 122t59.5 120.5q17 32 34.5 68t32.5 68q27 2 55 3t57 1q28 0 55 -1.5t53 -3.5zM282 285q23 66 48 130t53 128l50 -128t49 -130q-100 -1 -200 0zM510 711q-26 2 -53 3.5
t-53 1.5t-52.5 -1t-53.5 -3q-36 -77 -76.5 -154t-74.5 -155.5t-56 -159t-20 -164.5q65 -26 141 -43q5 32 12.5 63t16.5 62q72 -6 143 -6.5t144 1.5q7 -32 14.5 -64t10.5 -64q88 12 171 45q9 84 -10 165.5t-53 161t-75 157t-76 154.5zM260 1026q63 -26 131 -58t129 -61
q-1 -1 -1.5 -2t-1.5 -2l48 -47q-14 -17 -28 -33t-33 -31q-70 21 -138 43.5t-135 48.5l-46 45q-2 1 -4.5 2t-4.5 2q14 23 31.5 43.5t35.5 40.5l3 3q1 1 2 2.5t2 2.5zM256 1017q-17 -19 -34.5 -38.5t-29.5 -40.5q64 -25 129 -46.5t132 -41.5q15 12 27.5 25.5t23.5 28.5
q-61 29 -123 58t-125 55z" />
    <glyph glyph-name="Atilde" unicode="&#xc3;" horiz-adv-x="810" 
d="M414 433q-14 -35 -27.5 -69.5t-26.5 -69.5h108q-12 32 -24 63.5t-24 61.5q-2 4 -6 14zM519 715q1 -3 3 -7l44 -44q15 -33 32 -66.5t34 -67.5q28 -55 55 -111t48.5 -113t35 -115.5t13.5 -117.5q0 -31 -3 -55q-87 -35 -184 -48l-48 47h-5q-2 20 -5.5 39t-8.5 39v2h-61
q-86 0 -173 6q-9 -29 -16 -60t-12 -66q-74 16 -154 48l-45 44l-4 2l-4 2v18q0 65 14 128t37.5 124.5t53 122t59.5 120.5q17 32 34.5 68t32.5 68q27 2 55 3t57 1q28 0 55 -1.5t53 -3.5zM282 285q23 66 48 130t53 128l50 -128t49 -130q-100 -1 -200 0zM510 711q-26 2 -53 3.5
t-53 1.5t-52.5 -1t-53.5 -3q-36 -77 -76.5 -154t-74.5 -155.5t-56 -159t-20 -164.5q65 -26 141 -43q5 32 12.5 63t16.5 62q72 -6 143 -6.5t144 1.5q7 -32 14.5 -64t10.5 -64q88 12 171 45q9 84 -10 165.5t-53 161t-75 157t-76 154.5zM170 909q3 -4 7 -7zM630 918l47 -46
l1 -11q-29 -30 -71.5 -47t-87.5 -22q-23 0 -42 5t-36 11l-18 6q-2 1 -5 1.5t-5 1.5q-10 3 -19.5 5t-18.5 2h-5q-16 0 -32 -5.5t-24 -22.5q-6 4 -16 9.5t-17 9.5q-14 8 -28.5 17t-32.5 27l-23 23q-12 8 -31 27q35 28 77 45t83 20q26 -1 49.5 -6t45.5 -13q2 -1 4 -1.5t4 -1.5
t4 -1q3 0 5 -1t3 -1t3 -1q11 -3 19.5 -5t15.5 -3q17 0 33 10t17 31q7 -2 9 -3t9 -5q20 -11 41.5 -23.5t41.5 -26.5v-5zM623 916q-19 14 -41 26.5t-43 23.5q-1 -18 -20.5 -27t-39.5 -9q-17 1 -32 6t-29 9q-22 8 -44.5 13t-46.5 6q-39 -3 -77.5 -18t-68.5 -38q17 -17 38.5 -28
t41.5 -24q7 15 24.5 20t34.5 5q14 1 27.5 -2.5t27.5 -7.5q22 -7 44.5 -14.5t48.5 -7.5q43 5 85 21.5t70 45.5z" />
    <glyph glyph-name="Otilde" unicode="&#xd5;" horiz-adv-x="850" 
d="M312 305q0 -33 7 -69.5t25 -68.5q17 -11 38.5 -17t47.5 -6q48 1 78.5 21.5t48 51t24 66.5t6.5 69v24q0 36 -8 77t-31 74q-26 14 -70 17q-49 -1 -81 -22.5t-51 -53.5t-26.5 -69.5t-7.5 -71.5v-22zM199 86q-22 17 -43 39q-24 25 -46 52.5t-38.5 57.5t-26 62t-9.5 66v7
q0 71 35.5 132.5t90.5 114.5q24 24 53 45.5t62 38t69.5 26t75.5 9.5h8q41 0 79 -10.5t71.5 -28t62.5 -41.5t53 -51q7 -8 13 -14.5t12 -14.5l4 -3q5 -5 9.5 -10t9.5 -10q24 -26 45 -53.5t36.5 -57t25 -61.5t9.5 -65v-7q0 -66 -34 -126t-84 -110q-24 -23 -52.5 -45t-61 -39
t-68.5 -27t-75 -10h-13q-40 0 -77 10t-70.5 27.5t-62.5 40t-54 47.5zM428 601q53 -2 86.5 -26t52.5 -59t25 -76t5 -76q1 -35 -5 -74.5t-24.5 -74t-51.5 -57.5t-86 -24q-53 0 -87.5 23t-54.5 58t-27 75.5t-6 75.5q-1 35 6 75.5t26.5 75.5t53.5 59t87 25zM422 9
q40 -2 77.5 7.5t71 26t62.5 39t54 46.5q51 51 84.5 111t31.5 127q0 33 -9 63.5t-24.5 60t-36.5 56.5t-44 52q-23 26 -51.5 49.5t-61 41t-69.5 27.5t-77 10q-40 1 -76.5 -8t-69.5 -25t-62 -37.5t-53 -45.5q-54 -51 -88.5 -111t-34.5 -129q-2 -69 33 -128t84 -110
q24 -24 53 -46.5t61.5 -39.5t69 -27t75.5 -10zM195 909q3 -4 7 -7zM655 918l47 -46l1 -11q-29 -30 -71.5 -47t-87.5 -22q-23 0 -42 5t-36 11l-18 6q-2 1 -5 1.5t-5 1.5q-10 3 -19.5 5t-18.5 2h-5q-16 0 -32 -5.5t-24 -22.5q-6 4 -16 9.5t-17 9.5q-14 8 -28.5 17t-32.5 27
l-23 23q-12 8 -31 27q35 28 77 45t83 20q26 -1 49.5 -6t45.5 -13q2 -1 4 -1.5t4 -1.5t4 -1q3 0 5 -1t3 -1t3 -1q11 -3 19.5 -5t15.5 -3q17 0 33 10t17 31q7 -2 9 -3t9 -5q20 -11 41.5 -23.5t41.5 -26.5v-5zM648 916q-19 14 -41 26.5t-43 23.5q-1 -18 -20.5 -27t-39.5 -9
q-17 1 -32 6t-29 9q-22 8 -44.5 13t-46.5 6q-39 -3 -77.5 -18t-68.5 -38q17 -17 38.5 -28t41.5 -24q7 15 24.5 20t34.5 5q14 1 27.5 -2.5t27.5 -7.5q22 -7 44.5 -14.5t48.5 -7.5q43 5 85 21.5t70 45.5z" />
    <glyph glyph-name="OE" unicode="&#x152;" horiz-adv-x="1237" 
d="M556 392v70q0 36 2 72q-11 3 -21.5 5t-21.5 2q-3 0 -6.5 -0.5t-6.5 -0.5h-3q-40 0 -74.5 -17.5t-54.5 -45.5q-29 -35 -39.5 -76t-10.5 -85v-13q0 -31 7.5 -63.5t24.5 -61.5q19 -13 41.5 -20.5t51.5 -8.5q5 -1 9 -1h10q28 0 53.5 10.5t42.5 30.5q-2 51 -3 101.5t-1 101.5z
M164 142q-26 22 -49.5 47t-41 52.5t-28 57.5t-10.5 62v6q0 37 12.5 70t33 62.5t47 56.5t54.5 52q60 48 132.5 83t159.5 40q10 1 20.5 1.5t20.5 0.5q34 0 64 -6h36q125 0 245.5 -14t240.5 -46q2 -4 5 -7.5t6 -7.5l38 -38q20 -26 34.5 -52t28.5 -54l-7 -10q-93 14 -184.5 21.5
t-182.5 12.5q1 -11 1.5 -21t1.5 -20t1.5 -19t1.5 -19q8 0 14.5 -0.5t13.5 -0.5q20 -1 38.5 -1.5t37.5 -0.5h15q39 -1 81.5 -1.5t81.5 -2.5q0 -5 1 -7l46 -46q3 -20 4 -37t1 -33t-0.5 -35t-1.5 -35q-81 -2 -163.5 -3.5t-165.5 -1.5q-1 -21 -1.5 -42.5t-2.5 -42.5q82 4 165 12
t170 22l-3 -6l48 -48q-17 -36 -35.5 -68.5t-42.5 -58.5q-112 -33 -228.5 -44.5t-236.5 -11.5q-15 0 -29.5 0.5t-28.5 0.5h-1q-17 -2 -33.5 -3.5t-34.5 -1.5h-18q-9 0 -17 1q-86 7 -160 43t-132 85l-3 3q-12 9 -22.5 18.5t-21.5 20.5zM570 551q-5 -93 -4 -182.5t4 -182.5
q-20 -26 -54.5 -39t-71.5 -8q-51 1 -86.5 23.5t-57 56t-30.5 73t-7 74.5q0 45 11.5 86.5t40.5 78.5q20 30 57.5 48.5t79.5 17.5q34 3 67 -9t51 -37zM1157 555q-14 27 -28.5 52.5t-32.5 50.5q-128 34 -257.5 47.5t-262.5 11.5q-25 5 -50.5 5.5t-50.5 -1.5q-85 -4 -156.5 -38
t-129.5 -82q-27 -24 -53 -50.5t-46.5 -55.5t-32.5 -61t-12 -67q-1 -33 10 -64t30 -60t44 -55t53 -48q57 -48 130 -84t158 -42q26 -2 52 -1t50 5q134 -2 264 8t256 47q23 26 39.5 54t30.5 57q-94 -15 -188 -22.5t-191 -9.5q4 38 5.5 76t2.5 77q85 0 166 1.5t163 3.5
q1 16 1.5 31.5t0.5 31.5t-1 31.5t-3 31.5q-82 2 -162 4t-165 4q-1 37 -4 73t-5 73q94 -5 187.5 -13t187.5 -22z" />
    <glyph glyph-name="oe" unicode="&#x153;" horiz-adv-x="1118" 
d="M764 198l-53 2q1 -32 -0.5 -47.5t15.5 -24t51 -4.5q22 0 42 6.5t36.5 17t29.5 20t18 25.5q40 -1 80 -1q41 0 81 1l62 -59q-46 -53 -86 -87t-88.5 -56t-100.5 -31t-112 -5q-52 9 -106 48l-41 -24l-55 -22l-32 -9l-50 -1q-44 4 -82 15l-43 18q-54 21 -99 48q-45 30 -84 57
q-30 27 -49.5 50t-33 41t-24.5 47t-9 56q4 30 14.5 55.5t30 48t41.5 41.5t49 37q51 31 102.5 54t112.5 27q50 4 97.5 -8t86.5 -36q40 21 83.5 34.5t91.5 7.5q44 -3 84 -17t77 -35q34 -20 68 -42.5t57 -51.5q37 -29 66.5 -68t42.5 -122q-167 -4 -371 -6zM665 340q0 18 6.5 38
t20 35.5t33.5 24.5t47 6q26 -1 48 -10.5t38.5 -24.5t27 -34.5t13.5 -39.5q-58 2 -116.5 3.5t-117.5 1.5zM372 443q27 1 50.5 -10.5t31.5 -34.5q15 -38 17 -69.5t3 -61.5q0 -23 -1.5 -52t-10.5 -54.5t-30 -42.5t-60 -16q-39 2 -65.5 19t-42 42t-22 54t-4.5 56q-2 26 4.5 55.5
t22.5 54t42 41.5t65 19zM1075 246q4 38 -8.5 75t-39.5 66q-23 29 -56.5 51t-67.5 42q-36 20 -76 34t-83 17q-48 6 -91 -7.5t-82 -33.5q-39 23 -86 35t-96 8q-61 -4 -114.5 -26t-101.5 -54q-25 -17 -48.5 -36t-42 -41.5t-29.5 -48t-11 -53.5q-2 -27 8 -52t27.5 -46.5t40 -41
t45.5 -36.5q49 -32 104 -56.5t118 -30.5q49 -5 97 6.5t89 34.5q38 -22 82.5 -34t92.5 -8q49 7 95.5 22.5t88 38.5t76.5 53t59 65q-40 -1 -80 -1t-80 2q-5 -17 -17.5 -31.5t-29 -25t-36.5 -16.5t-41 -6q-34 -4 -57 8t-36.5 32t-19 45t-3.5 47q103 0 204 0.5t206 2.5z
M819 351.5q31 -0.5 61 -1.5q-2 10 -7.5 19t-14 16t-20 12t-25.5 5q-14 1 -24.5 -3t-17.5 -11.5t-10.5 -17t-3.5 -18.5q31 0 62 -0.5zM347 401q-18 -15 -29 -36.5t-16 -47.5t-3 -49q-2 -24 3 -49.5t15.5 -47.5t29 -37t45.5 -17q27 -1 41.5 14t21 37.5t7.5 48t1 46.5
q-1 26 -2 54t-12 61q-5 20 -21.5 30.5t-35.5 9.5q-27 -2 -45 -17z" />
    <glyph glyph-name="endash" unicode="&#x2013;" horiz-adv-x="781" 
d="M154 336q6 3 2 0l4 1q57 4 114.5 6t115.5 2q60 0 117 -3t114 -8q14 -6 29 -14.5t24 -26.5l35 -35q-1 1 -2 1l-1 1l3 -2q7 -7 12 -15.5t7 -21.5q-6 -19 -23.5 -28.5t-34.5 -17.5q-55 -5 -109.5 -6.5t-109.5 -1.5q-63 0 -123.5 2.5t-122.5 7.5q-2 1 -4.5 2t-4.5 2
q-8 4 -16 8.5t-14 10.5l-36 36q-13 8 -22 19t-11 34q8 17 22 25.5t28 15.5l-1 -1q4 2 6 4t4 3h-2zM161 327q-15 -8 -30.5 -16.5t-23.5 -23.5q1 -12 6 -20.5t12 -14.5t15 -10l16 -8q117 -10 231 -10.5t232 8.5q16 7 31.5 15.5t20.5 24.5q-5 25 -20.5 35t-31.5 17
q-57 5 -114 8t-115 3t-115 -2t-114 -6z" />
    <glyph glyph-name="emdash" unicode="&#x2014;" horiz-adv-x="888" 
d="M68 338q95 4 188.5 6.5t188.5 2.5q94 0 189.5 -3t190.5 -8l9 -3q2 -1 4 -1q3 0 5 -1q20 -6 39.5 -15.5t33.5 -34.5l34 -33q11 -11 18 -26q-13 -21 -35 -29.5t-45 -14.5q-4 -1 -7.5 -2t-7.5 -2q-91 -5 -180.5 -6.5t-179.5 -1.5q-102 0 -202.5 2.5t-201.5 7.5q-5 2 -8.5 3
t-8.5 3q-14 5 -29 10.5t-27 17.5l-34 34q-11 6 -21 16t-16 27q20 21 39.5 29.5t39.5 14.5q6 2 10 3q2 1 5 2l6 2h3zM68 328q-24 -8 -49 -15.5t-42 -26.5q5 -14 14.5 -22.5t21 -14t24 -9t24.5 -7.5q190 -10 379.5 -10.5t381.5 8.5q24 7 49.5 14.5t38.5 27.5q-6 14 -16 22.5
t-22 14t-25 9t-25 7.5q-190 11 -377 10.5t-377 -8.5z" />
    <glyph glyph-name="quotedblleft" unicode="&#x201c;" horiz-adv-x="583" 
d="M318 442q5 36 6 73t1 74q24 31 45.5 65t38.5 75q21 -8 28 -8q2 0 3 -0.5t3 -0.5q6 -1 12 -2.5t19 -7.5v-5l47 -47q0 -33 -14 -64h9v-6l47 -47v-11q0 -32 -11.5 -64t-34.5 -61q-68 -20 -139 -20l-47 47h-4zM109 460q-42 54 -42 126q18 27 36.5 47t37.5 40q2 2 3 3.5t3 3.5
q12 12 24.5 25.5t23.5 26.5q15 2 34.5 3t45.5 1q-1 -1 -3 -5l48 -48q-9 -14 -21.5 -32.5t-22.5 -32.5q-5 -6 -9.5 -12t-8.5 -12h3v-6l47 -47q0 -35 1.5 -77.5t3.5 -78.5q-40 2 -78 7.5t-70 16.5l-4 3l-43 43q-2 0 -3 1zM328 442q68 0 136 20q22 27 32.5 58.5t9.5 63.5
q-23 0 -43.5 -0.5t-43.5 0.5q16 28 30.5 58t14.5 62q-11 5 -24 6.5t-25 5.5q-14 -35 -35 -67.5t-45 -63.5q0 -35 -1 -71t-6 -72zM117 466q33 -11 68.5 -16.5t70.5 -7.5q-2 36 -3.5 71.5t-1.5 70.5h-90q21 36 47 71.5t49 70.5q-14 0 -28 -1t-29 -3q-31 -35 -64 -67.5
t-59 -70.5q0 -66 40 -118z" />
    <glyph glyph-name="quotedblright" unicode="&#x201d;" horiz-adv-x="583" 
d="M264 726q0 -1 -0.5 -1.5t-0.5 -1.5l41 -40l7 -8q-3 -35 -4 -72t-1 -74q-5 -7 -10.5 -14t-10.5 -14q-18 -24 -34 -48t-30 -59q-20 7 -33 8q-2 1 -4 1q-1 0 -3.5 0.5t-7 2t-13.5 6.5l-43 43q-2 1 -4.5 2t-5.5 3q0 19 3.5 35t9.5 30l-1 1l-47 46q-2 0 -3 0.5t-3 0.5v13
q0 35 13.5 66t31.5 60q70 22 144 24zM474 709q2 -4 4 -7t4 -7l38 -37q17 -28 30 -58.5t13 -63.5v-6q-21 -28 -46.5 -55t-51.5 -54q-8 -8 -15.5 -16t-15.5 -16q-14 -3 -32 -3q-5 0 -17.5 -1t-26.5 -3l-47 47q-3 -1 -9 -1q4 5 11 15t12 18t10 15t9 12q5 8 10 14.5t10 14.5
q2 2 3.5 5t3.5 5l-44 45h-6q0 41 -1.5 81.5t-6.5 82.5q45 -1 82.5 -7t70.5 -15zM254 726q-35 -1 -69 -6.5t-66 -15.5q-18 -28 -31 -58.5t-12 -62.5q23 -1 43.5 -0.5t42.5 -0.5q-15 -27 -30 -55.5t-15 -60.5q11 -5 23 -6.5t26 -6.5q14 36 37 66.5t46 62.5q0 36 1 72.5t4 71.5
zM464 704q-34 9 -68.5 15t-71.5 7q4 -36 5.5 -72t1.5 -72q23 1 45 0t45 0q-23 -37 -48 -71.5t-50 -69.5q7 1 14 1.5t15 0.5q15 0 29 3q32 34 65 67.5t60 69.5q1 32 -11.5 62.5t-30.5 58.5z" />
    <glyph glyph-name="quoteleft" unicode="&#x2018;" horiz-adv-x="342" 
d="M257 705l46 -46l2 -9q-9 -15 -16.5 -28t-15.5 -26h3v-6l47 -47q0 -36 -3 -69.5t-15 -65.5q-18 -12 -39 -17.5t-42 -5.5q-23 0 -46 7.5t-41 22.5l-39 38q-8 4 -14 11q-17 51 -18 111q8 13 24.5 34.5t35.5 44.5q2 4 4 6h-1q13 17 29.5 38t28.5 38q19 -4 37 -9.5t32 -14.5z
M249 703q-27 17 -58 22q-28 -39 -58.5 -76.5t-56.5 -77.5q1 -50 18 -103q15 -12 35 -18.5t41 -7t41.5 4.5t37.5 16q11 30 14 60.5t3 62.5q-22 0 -45 0.5t-46 0.5q20 29 38.5 57.5t35.5 58.5z" />
    <glyph glyph-name="quoteright" unicode="&#x2019;" horiz-adv-x="342" 
d="M106 507l12 18l-46 45q-2 0 -3 0.5t-3 0.5v17q0 33 6 61.5t14 57.5q20 15 41.5 22t43.5 7q23 0 46 -7t42 -21q0 -2 0.5 -3t0.5 -3l46 -45q6 -26 11 -53t6 -59q-18 -30 -39 -56.5t-42 -53.5q-10 -11 -20 -24.5t-19 -25.5q-17 4 -35 11.5t-33 20.5l-38 37q-9 6 -16 13z
M94 468q11 -10 26 -16t30 -9q29 38 60 75t56 79q-1 26 -6 53t-11 53q-16 12 -36.5 17.5t-41.5 5.5t-40.5 -5.5t-34.5 -17.5q-9 -30 -15 -60t-5 -62q11 -1 22 -1h23h45q-17 -29 -35.5 -56.5t-36.5 -55.5z" />
    <glyph glyph-name="divide" unicode="&#xf7;" horiz-adv-x="781" 
d="M726 423q0 -4 1 -5l46 -46q4 -20 4 -44q0 -25 -3 -49q0 -3 -0.5 -9t-0.5 -8q-80 -5 -161.5 -7.5t-160.5 -2.5h-9q25 -12 38 -34l35 -35q18 -18 18 -40v-7q-2 -14 -10 -27t-20.5 -23.5t-29 -17t-35.5 -6.5q-20 0 -37.5 7.5t-30.5 20.5l-33 33q-19 11 -30 28t-13 36v6
q0 20 14 35.5t34 24.5q-59 1 -118 3.5t-116 7.5l-47 46q-2 0 -3 0.5t-3 0.5q-2 20 -3 35.5t-1 29.5t1 27t4 29q82 4 167.5 6t166.5 2h1q-15 7 -25 18l-33 33q-17 9 -27.5 23.5t-10.5 32.5v7q1 15 9.5 28.5t21 24t29 17t34.5 6.5q29 0 52 -14t35 -34l33 -33q19 -19 24 -46v-5
q0 -19 -11.5 -34t-30.5 -25q57 -1 113 -3t113 -5zM476 187q2 15 -5 27t-19 21t-28 13.5t-33 3.5q-16 1 -32 -3.5t-29 -13t-20.5 -20.5t-5.5 -27q1 -13 8 -25.5t18.5 -22t26 -15.5t31.5 -6q18 0 33 6t26.5 15.5t19 21.5t9.5 25zM716 421q-164 9 -326 9q-81 0 -162 -2t-163 -6
q-5 -26 -4 -50.5t3 -50.5q164 -11 325.5 -11.5t326.5 9.5q2 26 3.5 51t-3.5 51zM476 552q-4 26 -28 47t-59 21q-15 0 -30 -5.5t-26.5 -15t-19 -21.5t-8.5 -25q-2 -14 5 -26.5t19 -21.5t27.5 -14t31.5 -5q37 -2 63.5 18t24.5 48z" />
    <glyph glyph-name="ydieresis" unicode="&#xff;" horiz-adv-x="593" 
d="M540 465v-1l43 -43l4 -6q-3 -48 -14 -94t-26 -91.5t-33 -90t-37 -89.5q-8 -20 -17 -40t-17 -40q-29 -62 -64 -117q-26 -36 -72 -57q-13 -6 -25 -8t-25 -2q-16 0 -31 2t-29 5q-2 2 -10 4.5t-16 5.5l-24 10t-26 15l-41 41q-4 2 -12 8q-3 12 -7.5 27t-8.5 30.5t-7.5 31
t-6.5 27.5q26 -11 51 -19t49 -11q15 -5 22 -5q22 0 40 13t22 30q-7 16 -14.5 31.5t-15.5 31.5q-24 49 -47.5 98.5t-43 100.5t-34.5 104t-22 109q39 21 83 33.5t91 19.5q0 -3 2 -7l46 -46q17 -55 35 -103t37 -95q2 3 2.5 6.5t2.5 6.5q2 5 3.5 9t3.5 9q19 51 37 102.5
t31 107.5q32 -10 61 -20.5t55 -24.5zM530 465q-25 14 -50.5 23.5t-53.5 17.5q-17 -73 -44 -143t-53 -142q-31 75 -62.5 148.5t-54.5 148.5q-42 -6 -81.5 -17.5t-74.5 -30.5q8 -61 26.5 -120.5t43 -117.5t52.5 -115.5t55 -114.5q-2 -14 -11.5 -25.5t-23 -18.5t-30.5 -9t-34 4
q-21 2 -41.5 9t-40.5 15q5 -24 11.5 -48t13.5 -47q16 -11 34.5 -17.5t36.5 -14.5q26 -5 54 -7t52 9q44 19 69 55q36 55 64 116q22 54 45.5 108t44 109t35 111t18.5 114zM140 680q-29 16 -35 42q5 15 16 26t25.5 19t30.5 13.5t31 8.5h4q21 0 37 -11t24 -26l35 -35q-1 1 -2 1
l-1 1l3 -2q19 -19 19 -43v-6q0 -21 -17.5 -40t-43.5 -19q-2 0 -3.5 0.5t-3.5 0.5h-1q-22 3 -46 12t-39 25zM361 662q-17 9 -26.5 26.5t-9.5 34.5q0 11 4.5 22.5t12.5 21.5t20 16t27 6h8q13 -3 27.5 -7t28 -10t24.5 -15t17 -21l36 -36q12 -12 15 -26q-4 -17 -14.5 -28
t-25 -18.5t-30 -12t-29.5 -7.5h-7q-13 0 -23 4.5t-18 12.5zM209 667q13 -2 25 2.5t20 12.5t12.5 18.5t3.5 21.5q1 21 -15.5 39.5t-44.5 17.5q-14 -3 -29 -8t-28 -11.5t-23 -16t-14 -21.5q3 -12 12.5 -21.5t23 -16t28.5 -11t29 -6.5zM394 665q13 3 28.5 7t29 11t23.5 16.5
t13 23.5q-3 13 -13 22.5t-23.5 16t-29 10.5t-28.5 7q-28 2 -43.5 -17t-15.5 -39q0 -21 15.5 -40.5t43.5 -17.5z" />
    <glyph glyph-name="Ydieresis" unicode="&#x178;" horiz-adv-x="693" 
d="M663 658l44 -44l4 -8q-21 -74 -60 -140t-84 -132q-14 -20 -27 -40t-25 -40q0 -4 -0.5 -8t-0.5 -8q-2 -67 -5.5 -134t-14.5 -140q-24 -2 -49.5 -2.5t-48.5 -0.5q-22 0 -46 1t-52 5l-46 46q-5 0 -7 1q-9 77 -12.5 148t-4.5 143q-6 8 -10 14l-12 18q-54 79 -103 159.5
t-76 171.5q94 37 201 51q2 -3 2.5 -5.5t2.5 -5.5l43 -42q24 -47 50.5 -91.5t54.5 -87.5q2 2 3.5 4t4.5 5h-1q4 6 7.5 12.5t7.5 12.5q29 47 57 93.5t51 97.5q37 -9 73.5 -19.5t74.5 -26.5zM654 658q-33 14 -67.5 24t-69.5 18q-28 -63 -65 -122t-75 -119q-42 61 -81.5 123
t-73.5 126q-48 -5 -93.5 -17t-88.5 -29q14 -47 36 -92.5t48.5 -89t55.5 -86.5l58 -86q1 -72 4.5 -142.5t11.5 -142.5q48 -5 92 -4.5t92 2.5q11 72 14.5 143t5.5 143q27 43 56 85.5t55.5 85.5t48.5 87.5t36 92.5zM174 852q-29 16 -35 42q5 15 16 26t25.5 19t30.5 13.5t31 8.5
h4q21 0 37 -11t24 -26l35 -35q-1 1 -2 1l-1 1l3 -2q19 -19 19 -43v-6q0 -21 -17.5 -40t-43.5 -19q-2 0 -3.5 0.5t-3.5 0.5h-1q-22 3 -46 12t-39 25zM395 834q-17 9 -26.5 26.5t-9.5 34.5q0 11 4.5 22.5t12.5 21.5t20 16t27 6h8q13 -3 27.5 -7t28 -10t24.5 -15t17 -21l36 -36
q12 -12 15 -26q-4 -17 -14.5 -28t-25 -18.5t-30 -12t-29.5 -7.5h-7q-13 0 -23 4.5t-18 12.5zM243 839q13 -2 25 2.5t20 12.5t12.5 18.5t3.5 21.5q1 21 -15.5 39.5t-44.5 17.5q-14 -3 -29 -8t-28 -11.5t-23 -16t-14 -21.5q3 -12 12.5 -21.5t23 -16t28.5 -11t29 -6.5zM428 837
q13 3 28.5 7t29 11t23.5 16.5t13 23.5q-3 13 -13 22.5t-23.5 16t-29 10.5t-28.5 7q-28 2 -43.5 -17t-15.5 -39q0 -21 15.5 -40.5t43.5 -17.5z" />
    <glyph glyph-name="currency" unicode="&#xa4;" horiz-adv-x="888" 
d="M629 416q0 31 -21 60q-47 30 -103 30h-21q-34 0 -65 -11.5t-55 -31.5q-23 -19 -39.5 -44.5t-16.5 -53.5v-10q0 -28 11 -49q26 -18 58 -28.5t67 -10.5h10q35 0 65.5 12.5t55.5 29.5q24 19 39 44.5t15 52.5v10zM81 205q20 19 38.5 33t37.5 27v-1q1 1 2 1.5t3 2.5
q-29 31 -47 66.5t-18 72.5v6q0 37 17.5 73t46.5 65q-8 7 -15 14l-13 13l-16 15q-9 8 -19.5 17.5t-18.5 17.5q20 16 48 39t49 41q5 -4 11 -9t11 -10t10 -9l10 -8l18 -15q6 -5 13.5 -11.5t15.5 -13.5q39 22 82 36.5t90 14.5h11q45 0 89.5 -14t85.5 -37q17 14 36 30.5t35 30.5
q2 2 6 5.5t6 5.5q5 -4 11 -9l12 -10q4 -4 8 -6.5t8 -5.5v1q12 -9 30.5 -24.5t29.5 -25.5l-2 -2l48 -48q-44 -44 -83 -73q29 -30 50 -66t21 -77v-7q0 -36 -17.5 -68t-41.5 -60q19 -15 35 -29q-1 -1 -2 -1l-1 -1l49 -48q-18 -14 -39 -30t-38 -30l-24 -20l-43 43q-2 1 -3 2
t-3 2l-1 -1q-5 5 -9 9.5t-9 9.5l-4 4l-12 9q-40 -21 -82.5 -36t-89.5 -15h-20q-48 0 -89.5 16t-80.5 36q-11 -8 -21 -16.5t-20 -16.5q-11 -9 -24 -19t-24 -18q-4 3 -9 7.5t-9 7.5q-18 14 -35 27.5t-37 27.5l-38 38q-4 2 -7.5 5t-7.5 6zM639 409q1 -30 -15 -58.5t-43 -49.5
q-28 -20 -63.5 -33t-73.5 -11q-38 0 -73.5 12t-62.5 32.5t-42.5 48t-14.5 59.5q-2 31 15.5 60t43.5 49q26 22 61.5 34.5t72.5 10.5q39 2 74 -10.5t64 -35.5q26 -22 42.5 -49.5t14.5 -58.5zM89 199q23 -17 43.5 -33.5t42.5 -33.5q23 17 44 34.5t44 34.5q42 -20 86 -37.5
t95 -15.5q51 -2 96.5 14.5t87.5 38.5q21 -19 43 -38t40 -40q22 18 44 36.5t45 35.5q-21 19 -42.5 36.5t-43.5 34.5q28 31 49 66.5t19 75.5q0 42 -22 78t-53 66q23 17 43.5 34.5t40.5 37.5q-20 17 -41.5 33.5t-42.5 33.5q-20 -18 -41 -36t-43 -35q-38 23 -82.5 38t-92.5 15
q-51 2 -97 -14t-86 -39q-21 19 -43.5 37.5t-44.5 37.5q-43 -37 -83 -68q20 -19 41.5 -36.5t42.5 -37.5q-32 -29 -52 -66t-19 -77q-1 -39 19 -76t51 -67q-23 -17 -45 -33t-43 -35z" />
    <glyph glyph-name="guilsinglleft" unicode="&#x2039;" horiz-adv-x="275" 
d="M150 126l-8 4q-14 21 -24.5 36.5t-20.5 28.5q-3 5 -6.5 8.5t-6.5 8.5q-12 16 -26 35.5t-26 36.5q3 5 7 10.5t8 10.5t7.5 10t7.5 10q20 28 43 57t46 56q20 -3 37 -10.5t31 -18.5q-1 -1 -1 -2t-1 -2l48 -47q-11 -31 -23.5 -62t-28.5 -64l14 -30q11 -23 20.5 -46.5
t14.5 -46.5q-22 -22 -60 -30l-7 3zM151 136q34 6 53 25q-7 31 -21 61t-27 60q14 30 26.5 60.5t23.5 62.5q-11 8 -24.5 14.5t-27.5 8.5q-29 -35 -56 -71.5t-54 -72.5q26 -38 54 -74t53 -74z" />
    <glyph glyph-name="guilsinglright" unicode="&#x203a;" horiz-adv-x="275" 
d="M71 149q-4 2 -7 4.5t-6 4.5q7 26 14 43l14 34q1 2 2 5t2 5l16 38q-16 33 -28.5 65t-20.5 64q15 11 32 18t35 11q5 -6 8.5 -11.5t8.5 -10.5l32 -31q28 -34 46.5 -60t36.5 -52q7 -10 15.5 -21.5t15.5 -21.5q-26 -37 -54.5 -75t-56.5 -73l-7 -3q-17 3 -30.5 10t-27.5 17z
M120 139q55 70 108 144l-52 74t-55 73q-31 -6 -52 -22q9 -32 21.5 -63t26.5 -62q-12 -31 -26 -60t-22 -61q11 -8 23 -14.5t28 -8.5z" />
    <glyph glyph-name="daggerdbl" unicode="&#x2021;" horiz-adv-x="781" 
d="M66 400q3 21 6 38t6 33q0 2 0.5 3t0.5 3l7 34q49 12 99 20.5t106 13.5q1 6 1 11t1 10q2 36 4 75t4 74q46 6 90 6q22 0 44.5 -1.5t45.5 -5.5v-7l47 -46q2 -30 4 -60.5t4 -61.5q41 -6 81 -15t81 -20q0 -2 0.5 -3.5t0.5 -3.5l46 -45q6 -27 11 -54.5t7 -59.5q-111 16 -219 21
q3 -66 3 -129v-37q0 -18 -1 -36q42 3 83.5 7t86.5 12q0 -2 -0.5 -3.5t-0.5 -3.5l48 -47q0 -4 -0.5 -11t-0.5 -11q-2 -23 -4.5 -45.5t-8.5 -45.5q-50 -15 -102 -24.5t-106 -12.5q-2 -30 -4.5 -61t-5.5 -63q-1 -12 -2 -26.5t-2 -26.5q-47 -6 -82 -6q-21 0 -44 1.5t-48 5.5
l-46 46q-3 1 -7 1q-2 33 -3.5 67.5t-3.5 67.5q-41 5 -81.5 12.5t-79.5 21.5l-45 45q-6 2 -8 3q-10 52 -15 120q58 -11 112.5 -17t107.5 -8q-1 31 -1 64v62v75q-39 -3 -78.5 -5.5t-77.5 -7.5l-48 47h-3zM76 400q54 6 109 10.5t110 6.5q-3 -136 0 -272q-57 2 -111.5 7
t-108.5 15q2 -25 5 -49.5t8 -49.5q51 -17 104.5 -25.5t107.5 -13.5q2 -45 4.5 -88.5t5.5 -88.5q40 -5 79 -5.5t81 4.5q4 45 8 89t6 89q110 5 209 36q6 25 8.5 49.5t4.5 49.5q-54 -9 -109 -13t-110 -6q6 135 0 271q55 -2 109.5 -7t108.5 -13q-2 26 -6.5 50.5t-9.5 49.5
q-104 30 -207 39q-2 43 -4.5 85t-6.5 85q-39 7 -79.5 6.5t-80.5 -5.5q-3 -43 -5.5 -85t-4.5 -85q-54 -4 -104.5 -12.5t-101.5 -21.5q-5 -26 -10.5 -51t-8.5 -51z" />
    <glyph glyph-name="quotesinglbase" unicode="&#x201a;" horiz-adv-x="342" 
d="M85 -107l13 20q3 5 6 9.5t6 9.5h-1q2 4 4 7t4 7l-45 45h-6q0 39 5.5 73t15.5 66q19 14 41 20.5t44 6.5q23 0 45.5 -7t41.5 -22q0 -4 1 -6l46 -45q6 -26 11 -52t6 -58q-19 -29 -40.5 -57t-42.5 -55q-8 -11 -18.5 -24t-18.5 -24q-36 4 -63 27l-39 39q-6 4 -14 10zM94 -111
q24 -19 56 -24q29 38 59.5 76t56.5 78q-1 26 -6 52t-11 52q-16 12 -36 18t-41 6t-41 -5.5t-35 -16.5q-9 -30 -14.5 -61t-5.5 -63q11 -1 22 -1h23h45q-17 -27 -35.5 -55t-36.5 -56z" />
    <glyph glyph-name="quotedblbase" unicode="&#x201e;" horiz-adv-x="583" 
d="M264 144q0 -1 -0.5 -1.5t-0.5 -1.5l41 -40l7 -8q-3 -35 -4 -72.5t-1 -73.5q-4 -5 -8.5 -10.5t-8.5 -10.5q-20 -26 -37.5 -52t-31.5 -60q-7 2 -15.5 4.5t-14.5 4.5t-11 2.5t-19 7.5l-44 44q-3 1 -9 4v9q0 28 11 55l-46 46h-6q0 39 13.5 74.5t34.5 66.5q34 10 69.5 15.5
t71.5 6.5zM472 127q4 -8 7 -12l41 -40q18 -27 30.5 -57.5t12.5 -63.5v-6q-20 -26 -44 -51t-49 -51q-8 -9 -18 -18.5t-18 -18.5q-14 -3 -32 -3q-5 0 -17.5 -1t-26.5 -3l-47 47q-6 0 -9 -1q4 6 10.5 15t13 18.5t13 18.5t11.5 15q5 8 10.5 15t11.5 15l-45 45h-6q0 42 -1.5 82.5
t-6.5 80.5q91 -5 153 -22zM254 144q-35 -1 -69 -6.5t-66 -14.5q-19 -28 -31 -59t-12 -63q23 0 43.5 -0.5t42.5 -0.5q-15 -26 -30.5 -54t-14.5 -59q11 -5 23 -7t26 -7q14 36 37 66t46 61q0 35 1 72t4 72zM464 121q-64 19 -140 22q4 -35 5.5 -71t1.5 -72q23 1 45 0.5t45 -0.5
q-22 -35 -47.5 -69.5t-50.5 -69.5q7 1 14 1.5t15 0.5q15 0 29 3q32 34 65 67t60 68q1 32 -11.5 62.5t-30.5 57.5z" />
    </font>
</defs>
</svg>
