<?xml version="1.0" standalone="no"?>
<!DOCTYPE svg PUBLIC "-//W3C//DTD SVG 1.1//EN" "http://www.w3.org/Graphics/SVG/1.1/DTD/svg11.dtd" >
<svg>
<metadata>
Created by FontForge 20120731 at Thu Nov  5 10:59:05 2015
 By www-data
Generated by NSW
</metadata>
<defs>
<font id="Rockstone" horiz-adv-x="812" >
  <font-face 
    font-family="Rockstone"
    font-weight="400"
    font-stretch="normal"
    units-per-em="1000"
    panose-1="0 0 4 0 0 0 0 0 0 0"
    ascent="800"
    descent="-200"
    cap-height="715"
    bbox="-33 -226 1644 1151"
    underline-thickness="20"
    underline-position="-190"
    unicode-range="U+0020-F002"
  />
<missing-glyph horiz-adv-x="500" 
d="M63 0v800h375v-800h-375zM125 63h250v675h-250v-675z" />
    <glyph glyph-name=".notdef" horiz-adv-x="500" 
d="M63 0v800h375v-800h-375zM125 63h250v675h-250v-675z" />
    <glyph glyph-name=".null" horiz-adv-x="0" 
 />
    <glyph glyph-name="nonmarkingreturn" horiz-adv-x="282" 
 />
    <glyph glyph-name="space" unicode=" " horiz-adv-x="282" 
 />
    <glyph glyph-name="exclam" unicode="!" horiz-adv-x="363" 
d="M122 699l35 3q9 2 20 2q23 0 50 -9v0l29 5l55 2q16 -3 16 -18q0 -8 -4 -34q-1 -4 -4 -14l-1 -10l-1 -14q-2 -28 -13 -64l-4 -13l-2 -10l-4 -24q0 -2 -21 -36l-1 -2l-14 -36q-5 -12 -18 -35q-4 -8 -16 -28l-9 -13l-9 -12q-20 -33 -34 -33q-6 0 -10 4q-10 13 -19 47
q-2 8 -15 24q0 36 -10 56q-25 23 -38 70l-6 22l-3 12q-1 4 -13 34q-2 3 -2 39q0 8 -21 43q-5 9 -3 18q5 21 35 25q13 0 48 -1h7zM39 120l1 26l-1 11l-1 37q4 19 14 35l-5 44q10 9 31 9q8 0 17 -1q9 0 22 5q28 5 73 -11q6 -2 9 -2q12 0 35 11q8 4 28 -3l34 -3q11 -16 14 -30
v-38q0 -23 2 -34t-14 -31q8 -12 11 -21v0l1 -29q0 -12 2 -30v0l-7 -28q-3 -11 -5 -28l-16 -7q-10 5 -22 5h-4l-9 -1q-6 0 -19 5q-2 1 -25 -10q-12 -6 -33 12q-15 -15 -36 -15q-16 0 -53 8l-9 3q-7 2 -25 -8l-10 33q-2 7 -2 26v26q0 6 1 18t1 16z" />
    <glyph glyph-name="quotedbl" unicode="&#x22;" horiz-adv-x="702" 
d="M59 478q0 25 -2 29l-4 7l1 22q1 33 29 65l-24 25q-6 6 -8 43q-1 15 10.5 25t26.5 10q12 0 25 -7q18 12 41 12q18 0 35 -9q5 -7 15 -18l17 20v1l12 8h24l19 -9q12 -11 19 -11t21 7q3 2 5 -2q7 -22 7 -61l6 -18l-15 -5q-8 -3 -12 -24l-1 -1l-21 -40q-15 -29 -34 -29
q-2 0 -7 1h-8q-9 0 -18 -3q-1 0 -4.5 -12t-6.5 -17l-6 -11l-5 -11q-9 -20 -14 -26q-11 -13 -45 -29q3 0 -27 -10q-1 -1 -13 -25q-6 -12 -25 -22.5t-32 -7.5q-20 2 -17 15q0 28 7 31l12 6l-7 28q-1 4 -1 10q0 18 25 43zM389 478q0 25 -2 29l-4 7l1 22q1 33 29 65l-24 25
q-6 6 -8 43q-1 15 10.5 25t26.5 10q12 0 25 -7q18 12 41 12q18 0 35 -9q5 -7 15 -18l17 20v1l12 8h24l19 -9q12 -11 19 -11t21 7q3 2 5 -2q7 -22 7 -61l6 -18l-15 -5q-8 -3 -12 -24l-1 -1l-21 -40q-15 -29 -34 -29q-2 0 -7 1h-8q-9 0 -18 -3q-1 0 -4.5 -12t-6.5 -17l-6 -11
l-5 -11q-9 -20 -14 -26q-11 -13 -45 -29q3 0 -27 -10q-1 -1 -13 -25q-6 -12 -25 -22.5t-32 -7.5q-20 2 -17 15q0 28 7 31l12 6l-7 28q-1 4 -1 10q0 18 25 43z" />
    <glyph glyph-name="numbersign" unicode="#" horiz-adv-x="734" 
d="M263 266h1q11 8 25 18l18 -7q22 -4 69 -3l2 -1l39 3q2 1 5 0q19 34 14 68q-2 14 -4 35q11 8 20 26v5l2 19q-5 2 -10 3q-25 5 -46 -2l-44 -15q-6 10 -24 14h-5l-24 -3l1 -2q3 -3 6 -9l-11 -19q-9 -23 -18 -70l-1 -3l-5 -38q0 -3 -8 -17zM610 160l-36 7q-2 0 -8 2l-23 -1
l-19 -4l-12 -1q2 -11 2 -18q-13 -8 -18 -27q-3 -11 -4 -31q-1 -5 -10 -20l1 2q-4 -6 -4 -22q0 -11 2 -27v-3q-6 -14 -11 -14q-3 0 -15 4q-3 2 -10 7q-13 7 -25 4q-13 -4 -16 -17v-2q-6 1 -36 7q-3 1 -9 0l1 1q8 5 16 13q3 6 3 11t-3 8l-1 2q-7 9 -5 27q0 4 13 34l6 11l3 23
l1 19l2 16q-3 0 -7 1q-22 5 -47 -3l-43 -14q-6 10 -23 14h-6l-17 -2q1 -7 2 -22q-13 -8 -18 -27q-3 -11 -4 -31q-1 -5 -10 -20l1 2q-4 -6 -4 -22q0 -11 2 -27v-3q-6 -14 -11 -14q-3 0 -15 4q-3 2 -10 7q-13 7 -25 4q-13 -4 -16 -17v-2q-6 1 -36 7q-3 1 -9 0l1 1q8 5 16 13
q3 6 3 11t-3 8l-1 2q-7 9 -5 27q0 4 13 34l6 11l3 23l1 19l1 14q-19 -1 -35 9q-17 10 -67 -8q-4 4 -2 58l20 25l-2 24l23 16q2 -3 14 -8l23 -4q35 19 32 21q7 -15 21 -21h4q2 5 5 11q7 19 7 37q0 -7 -5 50q11 8 20 26v5l2 20q-22 -2 -39 8q-6 4 -16 4q-19 0 -52 -12
q-3 4 7 39l-9 17l14 30l4 27l24 13q7 -10 13 -11l23 -4q35 19 33 21q6 -15 20 -21h5q3 23 17 42q9 12 9 35q0 13 -3 30q23 20 20 46l-1 9q8 0 22 -1q5 -17 19 -17q9 0 16 10q2 2 11 14q-2 -2 19 -3q10 0 18 -4q2 -17 2 -31q0 -22 -5 -37q-4 -3 -12 -14l-9 -24q8 -14 15 -28
q-17 -10 -26 -25q-2 -5 -3 -10l4 3q4 3 11 8l18 -7q22 -4 69 -3l2 -1l39 3q3 1 7 0v0q4 28 18 47q9 12 9 35q0 13 -3 30q23 20 20 46l-1 9q8 0 22 -1q5 -17 19 -17q9 0 16 10q2 2 11 14q-2 -2 19 -3q10 0 18 -4q2 -17 2 -31q0 -22 -5 -37q-4 -3 -12 -14l-9 -24q8 -14 15 -28
q-17 -10 -26 -25l-1 -3q8 3 24 8q4 -11 20 -13q9 -1 35 2q18 6 20 6q5 0 8 -2l-15 -36q4 -1 13 -25l-8 -25l-5 -32l-20 -4q-9 1 -31 7q-3 1 -11 3l-23 -1l-19 -4l-17 -1q2 -3 5 -8l-11 -19q-9 -23 -18 -70l-1 -3l-5 -38q0 -2 -2 -6q9 3 29 9q4 -11 20 -13q9 -1 35 2l6 -8
q6 -8 9 -9l11 13q4 -1 13 -27l-15 -27l5 -25l-16 -49z" />
    <glyph glyph-name="dollar" unicode="$" horiz-adv-x="512" 
d="M50 227q14 -16 30 -16q12 0 34 8q4 2 11 2q10 0 26 -4q20 -7 31 -16q19 17 59 21q7 0 16.5 5.5t9.5 12.5q0 5 -5 10q-9 12 -26 22l-4 3l-28 18l-10 6l-21 15q-36 0 -53 33l-11 17l-28 22l-2 3l-10 14q-23 32 -23 60q0 14 6 30l1 44q4 23 18 40q32 40 54 40q7 0 14 -3
q3 16 16 21q5 2 28 4q10 1 21 21q4 7 7 42q1 12 26 22q16 -11 31 -11q13 0 38 9l5 -35q6 -42 38 -42q6 0 13 2q16 8 46 8q34 0 34 -21q0 -8 -5 -16q-1 -2 -5 -9q3 -12 11 -36q3 -10 3 -18q0 -60 -42 -60q-9 0 -34 10q-9 6 -27 -13q-8 -9 -46 1q-2 2 -6 -14q8 -21 25 -29
q11 -5 39 -9q7 -2 32 -15q46 -24 50 -63q21 1 28 -14q2 -4 10 -35l10 -38q6 -23 6 -36q0 -17 -10 -41l-2 -12q-9 -20 -26 -37q-30 -30 -39 -37q-23 -18 -48 -20q-1 -6 -7 -20q-15 -19 -36 -21q-10 -16 -10 -35t10 -35q-34 -10 -71 -2q-9 2 -25 -3q-4 0 -5 1
q-12 6 -11.5 29.5t-3.5 28.5q-13 16 -55 16q-8 0 -35 9q-7 2 -32 -5q-45 -13 -57 1v34q0 10 -5 34q0 13 3 43q0 3 -5 25q-1 4 -1 15q3 20 22 20q4 0 8 -1z" />
    <glyph glyph-name="percent" unicode="%" horiz-adv-x="1097" 
d="M46 548q-9 17 -9 29q0 29 61 95q21 23 45 23q11 0 24 -4q1 -1 24 18q13 15 55 21q9 1 53 -6l6 -1l26 -6q-2 0 31 -3q5 0 44 -18l46 -21q29 -13 50 -37q44 -50 44 -98q0 -22 -10 -43q2 -11 2 -21q0 -11 -3 -21l-1 -3l-19 -34l-18 -35q-20 -29 -63 -43l-6 -2l-28 -7
q-7 -8 -30 -24q-4 7 -33 11l-13 -1l-20 1q-17 1 -38 -3q-4 -1 -38 19l-56 -8q-19 0 -36 8q-81 37 -102 119q-8 31 -8 48q0 27 20 47zM324 42q20 12 33 47q4 5 21 23q6 7 28 52l14 29l5 9v2l20 34q7 12 21 35l1 1l25 33q18 23 23 34l2 4l18 34q2 3 21 37q17 17 25 43
q9 7 20 18l1 1l12 21q6 10 23 33q7 12 15 29q3 5 28 21q4 4 9 29l6 32q0 3 27 25q10 8 22 31q1 4 32 3l30 -1l2 -5l-9 -14q2 -19 -8 -33q-3 -4 -25 -24q-11 -10 -22 -34q0 -15 -6 -27l-2 -1l-19 -19q-26 -26 -36 -63q-3 -7 -30 -31q-4 -2 -9 -34l-26 -29l-17 -23
q-19 -25 -30 -54q-2 -8 -33 -46q-7 -7 -11 -10l-7 -29q-18 -20 -28 -44q-2 -5 -5 -17q-29 -32 -43 -66q-3 -8 -24 -24q-3 -15 -11 -40q-21 -35 -40 -35q-5 0 -27 3q-8 1 -31 -4l-2 1l-3 2q-16 11 -8 29q8 19 28 12zM567 189q-12 13 -12 26q0 14 14 40l18 33q26 47 71 54
l21 -2q31 36 106 44q31 3 68 -4l25 -1l19 -7l14 -20l27 7l35 1q4 -3 11 -16t15 -18q2 -1 14 -6q4 -2 35 -49q10 -15 18 -58q0 -2 4 -7t4 -8t-4 -9.5t-4 -9.5q-16 -124 -102 -167q-12 -4 -34 -11l-20 -9l-10 -5l-6 -14l-35 11q-6 2 -38 -5q-9 -3 -28 1l-25 5q-22 -6 -49 -12
q-6 -1 -16 5.5t-22 14.5q-15 8 -24 20q-51 4 -85 63q-22 38 -22 66q0 26 17 47zM268 454q8 -2 29 -2l8 35q13 6 13 16q-2 4 -13 34q3 11 3 26l-11 5q-11 3 -27 3q-35 0 -35 -21q0 -5 3 -13l9 -24q-6 -12 -6 -25q0 -27 27 -34zM763 184q-1 -8 -1 -15q0 -25 14.5 -41t38.5 -12
l5 12q27 6 26 41q-6 5 -14 15l-6 42l-14 -2l-6 4q-2 1 -6 1q-8 0 -26 -6l1 -19q-5 -6 -12 -20z" />
    <glyph glyph-name="ampersand" unicode="&#x26;" horiz-adv-x="852" 
d="M142 470q-22 28 -22 67q0 37 36 81q19 23 27 30q14 12 37 16h19q8 0 7 21q11 6 28 14l8 3l21 8q39 15 85 7q2 -1 24 10.5t34 10.5q49 -2 49 -46q0 -15 -7 -25q18 -19 30 -50q3 -9 8 -31q2 -9 2 -14q0 -28 -36 -25q-22 2 -34 17q-6 6 -14 3q-9 -5 -12 -17q-37 -2 -65 -22
l-16 -16q5 -46 52 -53q8 12 23 12q30 0 30 -31q0 -13 -9 -31q-1 -1 6 -16l2 -6q8 -23 -14 -45q-6 0 -18 -1q-33 -3 -41.5 -7t-30.5 -28q-3 -5 -28 -21q-8 -5 -21 -29t-13 -34q0 -17 56 -59q20 -15 37 -15q25 0 34 28l25 33l-29 38q-3 5 -11 15q4 5 30 21q3 1 19 17
q9 7 25 13q18 17 62 32q9 3 25 27q63 63 117 75q3 32 32 43q6 -2 10 -2q18 0 20 34l35 25q7 5 30 28l24 -8q1 -4 4 -15q10 -45 4 -81q-1 -4 -5 -15q0 -5 9 -25q5 -11 -4 -27q-4 -7 -21 -22v-1l-25 -16l-6 -5l-22 -17q-22 -17 -50 -24v0l-18 -24q-6 -8 -22 -30l8 -27
q2 -7 4 -28q17 -17 17 -43q0 -19 -13 -35l-24 -41q-10 -32 -47 -48l-7 -3l-18 -8q-11 -5 -22 -13q-8 -4 -23 -9l-3 -1l-21 -2h-3l-24 -6q-8 -2 -28 -2q-32 -10 -66 -14h-8q-5 -1 -8 -1q-38 -1 -48 1q-16 3 -42 18q-3 3 -28 0l-27 -3q-24 -3 -68 16.5t-49 40.5q-7 -1 -14 0
q-29 5 -40 23l-11 30l-7 14q-1 3 -6 13q-22 49 -22 62q1 48 5 62q6 20 35 49q3 3 18 32q10 20 45 38l32 16q13 8 13 12l-15 19q-11 19 -17 43z" />
    <glyph glyph-name="quotesingle" unicode="'" horiz-adv-x="320" 
d="M29 478q0 25 -2 29l-4 7l1 22q1 33 29 65l-24 25q-6 6 -8 43q-1 15 10.5 25t26.5 10q12 0 25 -7q18 12 41 12q18 0 35 -9q5 -7 15 -18l17 20v1l12 8h24l19 -9q12 -11 19 -11t21 7q3 2 5 -2q7 -22 7 -61l6 -18l-15 -5q-8 -3 -12 -24l-1 -1l-21 -40q-15 -29 -34 -29
q-2 0 -7 1h-8q-9 0 -18 -3q-1 0 -4.5 -12t-6.5 -17l-6 -11l-5 -11q-9 -20 -14 -26q-11 -13 -45 -29q3 0 -27 -10q-1 -1 -13 -25q-6 -12 -25 -22.5t-32 -7.5q-20 2 -17 15q0 28 7 31l12 6l-7 28q-1 4 -1 10q0 18 25 43z" />
    <glyph glyph-name="parenleft" unicode="(" horiz-adv-x="386" 
d="M36 425q-2 32 19 56q-1 5 -1 16q0 69 59 105l12 21q8 11 17 20q13 9 25 30.5t19 27t13 4.5q5 -1 34 -10q4 -1 31 8q3 1 33 -10q8 1 39 7q5 1 21 0q4 -7 4 -12q0 -7 -17 -26q-5 -5 -8 -26q-6 -37 -29 -47q-7 -38 -24 -78q-5 -12 -5 -39q-12 -40 -12 -80q0 -13 -15 -34
l3 -8l6 -14q9 -21 9 -63q0 -30 5 -47q4 -12 19 -45q1 -4 4 -33q1 -15 19 -36q24 -29 29 -70q2 -18 26 -32q2 -2 0 -4q-5 -5 -9 -6h-1l-34 2l-30 -1h-57q-7 0 -20 -1.5t-20 -1.5q-17 0 -22 19q-6 23 -30 32q-21 13 -27 37q-3 6 -3 14q-5 4 -14 14q-27 30 -32 69q0 3 -21 23
q-4 6 -10 31v2l-3 28q-10 93 -10 100t10 30q3 7 -2 28z" />
    <glyph glyph-name="parenright" unicode=")" horiz-adv-x="386" 
d="M144 703q7 0 19.5 1.5t19.5 1.5q14 0 20 -9q1 -3 8 -22q4 -12 25 -21q22 -12 28 -36q3 -7 3 -15q40 -32 45 -83q2 -4 21 -23q5 -4 10 -30v-2l4 -28q11 -77 11 -97q0 -7 -11 -33q-4 -9 1 -28q3 -30 -18 -56q0 -2 1 -8v-8q0 -70 -59 -106q-12 -22 -29 -41q-20 -14 -40 -50
q-1 -3 -5 -7q-7 -5 -13 -5q-9 1 -34 10q-5 2 -30 -7q-3 -1 -33 10q-3 0 -40 -7q-5 -1 -20 0q-5 7 -5 12q0 6 18 26q4 4 7 26q6 37 30 47q6 36 23 77q5 12 5 40q12 35 12 79q0 11 15 34l-3 8l-5 14q-9 25 -9 64q0 30 -5 47q-3 10 -19 45q-3 5 -5 32q-1 15 -19 37
q-31 31 -28 70q1 16 -26 32q-1 1 -1 2q0 2 1 2q3 5 9 6v0l34 -3l31 2h56z" />
    <glyph glyph-name="asterisk" unicode="*" horiz-adv-x="465" 
d="M88 647q24 -7 34 -17l23 -23q16 -16 27 -16t17 12q16 30 14 35t-35 8q-17 11 -17 36q0 30 23 31q15 1 31 -5q13 -8 44 -15q5 -1 21 4q21 7 23 7l45 -6l-19 -51q-33 -20 -29 -62l29 13l37 5q-3 9 -3 18q0 40 36 26q11 -4 15 -18q1 -4 6 -46q3 -26 47 -89q-13 -15 -32 -15
q-21 0 -40 15q-10 1 -27.5 -3t-25.5 -4h-16q24 -37 61 -55q6 4 13 4t12 -4q14 -8 14 -20q0 -27 -60 -52q-9 2 -21 4l-35 -42q-3 -10 -11 -14q-12 -7 -23 4q-13 18 -13 65q0 14 1 30q1 2 -11 13l-37 -36q5 -18 3 -43q-3 -33 -21 -33q-8 0 -23 17l-13 15q-15 4 -44 24
q-2 8 -7 21q-11 11 -35 18q-16 5 -4 28q10 19 62 33q21 6 23 8q7 4 15 20l-47 -5l-21 1l-21 17l-21 -15l-20 2q-7 12 -5 19l20 40l3 41q14 13 33 35q1 2 5 20z" />
    <glyph glyph-name="plus" unicode="+" horiz-adv-x="775" 
d="M437 628q7 8 16 8q23 0 24 -60l1 -53q-3 -16 -11 -45q-9 -17 -9 -19q5 -5 13 -18q1 -6 -5 -20.5t-6 -19.5q11 0 36 3.5t39 2.5q9 -8 26 -17q8 9 28 20l3 1q27 -9 39 -7q38 7 45 7q29 0 24 -21l-9 -35v-4l-12 -19q9 -13 30 -38q12 -13 8 -22q-2 -5 -17 -15.5t-15 -12.5
l-5 -23q-1 -2 -9 -2q-13 0 -46 4q-6 0 -40 -1q-30 -1 -50 9q-4 3 -14 -4q-13 -8 -15 -8t-18 5.5t-19 6.5q0 -11 6.5 -34.5t5.5 -37.5q-11 -10 -23 -29q18 -13 20 -27l1 -3v-33q0 -83 1 -56q-1 -20 -14 -20q-4 0 -8 1l-35 9h-4l-19 12q-7 -6 -15 -10q-4 -2 -23 -20
q-13 -12 -23 -8q-5 2 -15 17t-12 15l-23 5q-4 0 2 55q2 19 -2 93q-6 12 -13 31q0 1 8 20t9 23l-47 3q-21 1 -32 -11l-12 -12h-5l-121 6v1q-14 8 -8 35l3 13l3 7q-10 6 -32 30q-3 6 9 15q18 14 25 24q5 8 -12 24q-9 8 -9 16q0 23 61 24l53 1q21 -11 45 -11q7 -2 16 0
q6 1 21 4q8 2 26.5 -3t24.5 -4l3 50q1 21 -11 33l-12 11v5q-6 3 -6 17q0 13 5 31l4 10l3 63h1q7 14 35 8l13 -3l7 -3q5 10 30 31q5 3 15 -9q15 -18 24 -24q8 -5 24 12z" />
    <glyph glyph-name="comma" unicode="," horiz-adv-x="320" 
d="M29 61q0 10 -2 29l-3 29q-4 35 16 56l-11 34q-7 21 -8 42q-2 36 38 36q11 0 24 -7q18 12 41 12q18 0 35 -9q3 -2 16 -9l16 11v1h23l12 -1h11q12 -11 25 -11q10 0 24 7q3 2 5 -2q7 -22 7 -61l-3 -10l-6 -14l-12 -24h-1l-28 -34q-27 -33 -29 -34q-5 -6 -28 -12
q-5 -1 -14 -20l-11 -22q-16 -33 -78 -63q-10 -5 -21 -27q-6 -12 -25 -22.5t-32 -8.5q-20 3 -17 16q2 9 7 31l1 4l4 30q4 32 24 53z" />
    <glyph glyph-name="hyphen" unicode="-" horiz-adv-x="483" 
d="M29 369q-5 7 -5 16q0 23 40 24l35 1q12 -9 30 -11q8 -1 11 0q1 1 14 4q23 6 41 6q26 0 47 -13l29 5q19 8 44 8q13 0 28 -2q6 -8 18 -17q1 5 3 8q4 9 15 12l2 1h22q46 0 41 1q12 -2 9 -22l-6 -35v-4l-8 -19q6 -12 20 -38q8 -13 6 -22q-11 -12 -22 -28l-3 -23q0 -4 -37 2
q-19 3 -62 -2q-11 0 -17 -2q-7 -2 -27 5q-7 1 -23 -9q-8 2 -12 2q-12 3 -30 -4q-7 -3 -16 -3q-17 0 -33 12l-33 15q-15 0 -22 -11l-7 -12h-3l-81 6v1q-9 8 -5 35l2 13l2 7q-7 6 -21 30q-1 4 13 24q7 10 9 15q3 8 -8 24z" />
    <glyph glyph-name="hyphen" unicode="&#x2010;" horiz-adv-x="483" 
d="M29 369q-5 7 -5 16q0 23 40 24l35 1q12 -9 30 -11q8 -1 11 0q1 1 14 4q23 6 41 6q26 0 47 -13l29 5q19 8 44 8q13 0 28 -2q6 -8 18 -17q1 5 3 8q4 9 15 12l2 1h22q46 0 41 1q12 -2 9 -22l-6 -35v-4l-8 -19q6 -12 20 -38q8 -13 6 -22q-11 -12 -22 -28l-3 -23q0 -4 -37 2
q-19 3 -62 -2q-11 0 -17 -2q-7 -2 -27 5q-7 1 -23 -9q-8 2 -12 2q-12 3 -30 -4q-7 -3 -16 -3q-17 0 -33 12l-33 15q-15 0 -22 -11l-7 -12h-3l-81 6v1q-9 8 -5 35l2 13l2 7q-7 6 -21 30q-1 4 13 24q7 10 9 15q3 8 -8 24z" />
    <glyph glyph-name="period" unicode="." horiz-adv-x="318" 
d="M23 120l1 26l-1 11l-1 37q1 7 9 17q11 14 15 18l-15 44q11 9 32 9q8 0 17 -1q8 0 21 5q28 5 73 -11q6 -2 10 -2q1 0 14 11.5t18 13.5q-2 -1 31 -17l33 -3q13 -6 28 -23l-13 -9v-36q0 -21 2 -34q0 -4 -23 -31q9 -7 19 -21h1l1 -29q0 -12 2 -30v0l-7 -28q-3 -11 -5 -28
l-17 -7q-9 5 -21 5h-5l-9 -1q-5 0 -18 5q-3 1 -25 -10q-6 -3 -35 23q-25 -23 -50 -23q-15 0 -38 5l-9 3q-7 1 -25 -8l-10 33q0 1 -9 4t-9 8q0 3 3 7l13 19v14q0 6 1 18t1 16z" />
    <glyph glyph-name="slash" unicode="/" horiz-adv-x="655" 
d="M109 125l9 18l7 18l9 19l-2 28q13 9 34 27l11 20l11 18q16 6 32 27.5t18 38.5q4 32 9 45q7 1 32 20l1 2l13 29l6 56q4 2 30 11q16 5 26 25q16 32 44 53q19 14 20 62q0 5 14 11q9 4 19 8q5 15 13 36q3 7 53 5q6 0 10 -1q0 -6 2 -9q3 -8 6 -5q4 4 20 15q7 5 44 4
q16 0 34 -7q-10 -52 -30 -78q-8 -6 -21 -16l-13 -16q3 -16 3 -25q0 -13 -11 -17q-18 -7 -29 -16q-3 -4 -24 -45q-2 -5 -20 -13q-24 -11 -34 -20q0 -6 5.5 -18t5.5 -18q0 -3 -2 -6l-2 -2l-20 -19q-12 -11 -32 -46l-11 -19l-2 -2l-16 -32q-1 -5 -24 -28q-2 -1 -14 -34v-2
l-22 -34q-1 -16 -13 -51q-2 -4 -13 -7t-13 -5q-6 -8 -15 -29q-4 -9 -24 -27q-3 -2 -10 -37l-3 -6q-24 -30 -37 -30q-8 0 -32 7q-6 3 -12 7q-9 4 -17 3q-3 -6 -17 -17q-9 -3 -62 5q-2 1 -20 -5q-13 3 -13 10q0 3 2 7q18 8 46 23q2 2 -1 8t-3 7q0 24 36 60z" />
    <glyph glyph-name="zero" unicode="0" horiz-adv-x="622" 
d="M34 439q15 25 16 68l11 46q7 29 21 38q14 5 29 11q4 11 11 22l3 3l15 14q3 3 18 24v0l28 15q30 16 37 16q6 0 29 -6q4 0 35 16q23 12 46 12q27 0 54 -14q19 -10 27 -12l25 -24l22 4l11 -12l17 -15l11 -12l15 -17q25 -29 37 -68q1 -4 24 -25q6 -11 16 -58q5 -25 1 -61
q1 -2 3 -15q4 -25 4 -41q0 -22 -19 -57q1 -5 10 -29q-1 -9 1.5 -25t2.5 -23q0 -30 -32 -68l-20 -24l-1 -3q-6 -10 -21 -19l-17 -31q-1 -9 -5 -22q-11 -16 -37 -20q-1 -1 -44 -4q-2 -5 -33 -26q-13 -7 -42 -11l3 1q-2 2 -18 4q-25 3 -26 1q1 -1 5 -2l-21 -13l-14 18
q-6 4 -26 8l-34 7q-18 0 -39.5 12.5t-27.5 28.5l-14 36q-8 4 -28 18q-2 2 -7 9q-21 29 -24 76q-10 -1 -40 22q-1 8 -4 87q-1 19 -7 45v2l9 41q0 1 -2 6t-2 8q0 6 6 11l14 11zM273 482q1 -15 -1 -36l-24 -34l15 -13q3 -19 1 -26q-1 -4 -3 -8q-5 -34 -13 -58q9 -11 22 -31
l9 -31l-7 -18q-2 -5 -2 -9q0 -7 8 -12l15 -9q15 -12 29 -12q25 0 43 39l10 22q-11 31 -10 39q1 4 10 22q9 14 7 24l-20 92q6 37 6 42q0 27 -21 47q-7 0 -19 3.5t-19 3.5q-29 0 -36 -37z" />
    <glyph glyph-name="one" unicode="1" horiz-adv-x="621" 
d="M166 603q10 9 49 17q2 9 11 25l5 9l5 12q3 6 24 22q28 21 52 21q14 0 37 -5q5 -1 17 -12l38 16l8 -4q6 -16 9 -30q8 -34 -1 -80q-5 -5 -12 -14q22 -30 22 -78q0 -20 -2 -46l-2 -26l-3 -27q5 -17 5 -29l-1 -5l-8 -28q1 9 7 -38l5 -41q-2 -5 -14 -41l9 -11l4 -19
q7 -33 1 -66l-5 -27l-11 -10l14 -35q1 -3 3 -42q-5 -20 -26 -20q-16 0 -44 14q-3 2 -11 6q-16 -15 -37 -15q-18 0 -35 13l-29 -8l-23 -7q-10 -3 -26 0q-23 5 -23 24q0 15 21 33q-20 31 -20 65q0 19 7 41q6 7 15 20q0 -1 1 -2v0q0 8 -15 34q-2 -1 -4 -1v1l1 30q1 22 0 40
l-1 25l-1 14q-2 25 7 38l2 3l10 6l-17 30l-1 93l-11 10q-10 -4 -21 -4q-14 0 -28 6q-6 18 -6 39q0 14 7 20.5t27 18.5q3 6 15 25z" />
    <glyph glyph-name="two" unicode="2" horiz-adv-x="624" 
d="M128 151q1 2 7 36q4 22 22 34l32 22l10 14q4 8 16 31l7 11l11 20q8 15 14 33q2 10 2 21q0 12 -3 25l4 42q-7 -1 -12 -1q-21 0 -43 34q-2 4 -5 11l-15 17l-16 -9l-30 13q-12 3 -36 8l13 23q6 14 25 23q-3 0 9 52q1 6 6 10q8 8 29 15q8 0 20 4q0 10 6 39l21 28q21 28 33 28
q10 0 42 -14q7 -3 37 -44l24 12q15 -5 30 -14l28 -17q28 -17 33 -25q10 -16 18 -31q3 -6 43 -9q5 0 30 -42q6 -18 11 -56q2 -18 1 -33q-3 -35 -13 -53.5t-38 -36.5q-8 -2 -18 -16q3 1 5 1q3 0 3 -5q0 -6 -10 -30q-17 0 -34 -16l-1 -2l-27 -36l-14 -16q-5 -9 -4 -20
q1 -9 14 -9q12 0 26 6q7 0 24 -6.5t26 -4.5l12 3q24 3 35 3q26 0 33 -24q2 -7 2 -47q0 -10 -26 -36q25 -39 21 -53l-1 -7l-6 -24q-8 -31 -28 -31q-11 0 -43 5q-6 0 -14 3q-11 -3 -20 -4l-73 -10q-26 0 -50 12q-13 -7 -28 -7q-20 0 -37 11q-22 -13 -56 -13q-22 0 -54 13
q-2 2 -17 0q-23 -14 -47 -14q-48 0 -48 27q0 6 3 14v1l12 20l19 32q8 14 33 29q10 6 15 30z" />
    <glyph glyph-name="three" unicode="3" horiz-adv-x="621" 
d="M138 178q19 19 41 23q10 2 24 1q16 -1 24 -1q41 -7 59 50q3 5 3 10q-3 22 -18 33q-37 28 -55 28q-7 0 -21 -2q-20 0 -35 24l10 8q-1 5 -1 9q0 11 10 11q4 0 10 -2l8 9q50 26 58 79q5 7 5 14q0 22 -37 22l-32 28q-13 -2 -27 -2q-20 0 -42 4q-28 8 -28 17q0 13 32 45
q0 13 1 34q4 12 61 44q2 5 2 11t-2.5 17t-2.5 17q0 8 3 14q12 11 27 11t40 -8l35 -11l4 -2q14 -1 54 -7q18 -17 46 -42l6 5q6 4 17 4q38 0 56 -40l2 -2l2 -26q5 -2 27 -24q6 -8 6 -24q0 -7 -1 -16v-2l-7 -26l-4 -21q-8 -40 -48 -76l14 -15l8 -9l23 -30q9 -4 39 -24
q4 -8 4 -13q0 -2 -3.5 -9t-3.5 -12q0 -6 3 -16q5 0 23 -17q9 -13 9 -34q0 -19 -7 -44q-13 -45 -62 -65q-7 -34 -19 -46q-28 -36 -64 -33l-27 2q-4 -9 -12 -22q-36 -26 -68 -26q1 0 -21 1q-5 0 -25 -9q-26 -12 -44 -12q-34 0 -60 47q2 4 2 9q0 6 -2 12q-4 3 -11 2q-8 -1 -9 0
q-45 33 -55 77q-10 6 -19 18q-2 5 -6 13q-1 4 -1 8q0 24 26 27q28 0 43 -10q12 -8 13 -8z" />
    <glyph glyph-name="four" unicode="4" horiz-adv-x="624" 
d="M69 323q1 11 7 31l1 2l10 26l14 33q0 7 17 31q5 5 14 7l8 2l3 7l3 26l1 1l13 33q10 25 23 35l26 20q2 35 3 42q3 20 15 40q13 12 28 33q3 7 23 8q2 0 24 -4l2 -6l31 16l9 4l39 -7q19 -3 42 -4q15 0 23 -7l22 8q5 2 11 2q34 1 42.5 -8.5t8.5 -44.5v-42q-6 -9 -13 -26l5 -6
l4 -32q1 -3 1 -13q1 -65 -8 -100q-1 -4 -4 -12q1 -2 4 -10q7 -12 12 -30q-2 2 -14 -40q-3 -11 2.5 -23t16.5 -15q1 0 39 -3q21 -2 23 -30q0 11 -1 -32l-1 -43q0 -12 -7 -45q4 -9 4 -15q0 -13 -45 -26q-21 -6 -21 -32q0 -9 4 -25.5t4 -25.5q0 -24 -22 -30l-31 2l-32 3
q-15 -1 -37 -8q-12 -4 -36 16q-17 -9 -46 -12q-5 0 -12 -1h-4q-38 0 -48 10t-10 47v42q0 4 -1 6q-3 23 -22 25l-38 -7q-15 -3 -39 5q-7 0 -20 5.5t-18 5.5h-3l-36 -12q-20 -7 -42.5 4.5t-22.5 32.5q0 18 11 40l16 31q3 6 5 24l1 10l-5 21l19 31q1 2 5 9zM207 389l-18 -21
l-4 -7q-13 -38 -11 -54q2 -18 18 -21q4 -1 10 5l7 7q1 0 9 -6.5t9 -6.5q27 3 32.5 6.5t4.5 27.5q-1 32 12 83q-7 13 -16 33v35q-24 16 -21 16q-2 0 -11 -23q-12 -28 -16.5 -36.5t-4.5 -22.5v-15z" />
    <glyph glyph-name="five" unicode="5" horiz-adv-x="621" 
d="M114 167q21 5 50 7l11 4l20 7q28 10 56 8q9 4 21 12q7 10 8 20v10q18 36 18 51q0 10 -7 16h-1l-29 6q-13 3 -29 12l-26 -5l-25 -13h-5l-24 12l-28 4q-16 8 -16 26q0 13 8 29q4 8 6 10q-12 21 -12 44q0 31 10 70v1l-7 32q-7 33 7 62q1 2 -11 30q-1 3 1 29q1 10 -2 28
q-3 19 17 27h1l26 -3q12 0 27 3q17 -3 31 -3h3l27 3q34 7 42 7q4 0 15 -4.5t16 -3.5h9l18 2q-15 0 41 -10v6l42 2q2 0 12 -1q33 -3 40 -8q10 -8 10 -38v-4l-2 -28l-9 -18l17 -21l-9 -33q2 -17 2 -24q0 -17 -18 -17q3 0 -29 1l-32 1l-6 1l-38 -7q5 1 -43 8q-26 -9 -23 -9
q-15 1 -24 3q-8 2 -16 -19q-3 -8 -3 -14q0 -16 40 -19l-4 -2q7 -7 23 -7q10 0 13 7h5q86 0 39 1q20 0 43.5 -11t34.5 -26t22 -32q79 -17 76 -125q2 -14 2 -34q-1 -3 -11 -10t-10 -19q0 8 -2 6q-4 -8 -4 -36q0 -6 2 -7q1 1 2 3l-7 -33l-4 -6q-18 -27 -65 -49
q-20 -9 -37.5 -34t-24.5 -28q-13 -1 -32 -3l-3 -1l-25 -19q-8 -6 -32 -16l-21 5q-13 0 -27 -17l-16 -5q-19 -6 -30 -6q-22 0 -36 24q-12 20 -12 43l-3 3l-16 15q-14 13 -16.5 21.5t-1.5 29.5q-1 3 -18 16h-1l-8 22q-5 15 -10 22q-4 6 11 15q7 3 14 3q6 0 12 -2z" />
    <glyph glyph-name="six" unicode="6" horiz-adv-x="621" 
d="M50 421l8 20l8 17q28 13 26 44q3 26 15 44q18 27 31 40q20 20 44 22q15 38 71 63l27 12h1q16 6 29 7q41 41 87 41q19 0 37 -12l10 -34q20 -2 33 -23q3 -4 19 -39v-14q1 -14 2 -15q1 1 1 4l21 -12q3 -3 8 -10q14 -20 14 -25q0 -7 -26 -18l-25 -11q-26 -16 -65 -28
q-8 2 -24 2q-6 -8 -27 -31q-8 -9 -8 -19q0 -18 26 -27l3 -1l32 1q15 0 34 -15q13 -14 27 -28q7 1 38 -6q11 -5 45 -73q6 -12 4 -68q3 -15 3 -27q0 -28 -14 -45l-6 -40q-17 -65 -56 -69l-22 -2l-11 -19q-59 -34 -114 -33q-15 0 -25 2q-15 -6 -27 -7q-22 -3 -35 1l-92 27
q-17 7 -32 35l-14 -8q-5 4 -16 11q-20 16 -28 33q-9 28 -19 55q-7 7 -27 38q-11 21 -9 123l11 30q10 27 9 48zM329 174q8 9 22 12q6 1 6 24q0 18 -3 24q-7 13 -32 24q-4 8 -12 17q-12 10 -27 10q-27 0 -38 -27q2 -6 0 -16q-11 -11 -11 -24q0 -10 11 -28l26 -16
q6 -4 14.5 -17.5t9.5 -13.5q4 0 13 6z" />
    <glyph glyph-name="seven" unicode="7" horiz-adv-x="622" 
d="M71 565l-1 5l-2 18l-1 16l-1 4q0 3 -8.5 21.5t-5.5 35.5q4 27 23 33q15 5 82 5q15 0 38 -10q11 -5 30 8h6l32 7q14 3 18 3q9 0 20 -6l19 -11q8 -4 14 -8q5 -4 20 10q20 6 30 6h40l16 10l24 -8q6 -2 19 -1q15 3 18 3h30q37 0 37 -23q0 -7 -4 -21q-9 -31 -27 -51
q-8 -2 -19 -7q3 -4 6 -38q0 -4 -29 -26q1 -15 -1 -40l-1 -3l-9 -36q-9 -10 -20 -29q-1 -5 -16 -21q-6 -4 -10 -22l-1 -3l5 -25l-9 -6q-10 -6 -9 -19l1 -17l-5 -18l-10 -31q-6 -9 -20 -39q-6 -13 -4 -38q2 -28 0 -42q2 10 2 -36q-2 -2 -16 -25l3 -9q7 -32 7 -48
q0 -35 -55 -30q-9 0 -26 7q-1 1 -9 5q-2 1 -31 -15q-6 -3 -15 -3q-22 0 -54 18q-1 1 -45 -16q-23 -9 -50 6q-19 10 -19 33q0 19 13 32l11 11q-2 4 0 42q0 7 8.5 19.5t9.5 16.5l1 3l20 38q30 57 55 75q0 17 -1 33q1 19 16 32l12 10l22 22l11 36l6 10l10 22v20q-8 5 -21 2
q-19 -4 -29 -7q3 0 3 1q-1 3 -9 7q-14 8 -22 10q-2 2 -36 -4q-40 -8 -54 -8q-33 0 -40 11q-4 5 -9 45q-3 24 16 48z" />
    <glyph glyph-name="eight" unicode="8" horiz-adv-x="623" 
d="M32 227l1 21q1 6 3 13q10 38 12 43q9 21 29 32q4 1 5 28q0 1 22.5 18t22.5 32q0 16 -17 40q-27 12 -51 38q-3 6 -3 15q0 18 10 41q0 32 10 45q8 5 20 17q16 31 23 41q11 16 22 21h1l33 8l4 2q13 9 36 23q12 5 35 6q7 0 24.5 -7t22.5 -12q30 17 42 17t30 -6q8 -4 41 -5
q4 -6 34 -30q6 4 41 3q18 0 43 -53q1 -4 6 -16l5 -12l-2 -15l11 -8l6 -11q5 -14 11 -36q3 -45 -52 -84q-25 -18 -22 -34l20 -18q28 -25 34 -34q13 -19 14 -45q0 -3 18 -16q14 -10 14 -66q0 -16 -4 -32l-2 -8l-5 -14q-1 -1 1 -15t2 -15q-5 0 -22 -17l-1 -1l-11 -26
q-27 -65 -78 -65q-2 -6 -9 -14q-23 -34 -50 -34q-12 0 -69 21q-17 -12 -32 -17q-17 -6 -49 2q-35 8 -42 23q-46 -3 -51 -1q-35 15 -48 29q-5 7 -14 30q-9 4 -17 10q-39 27 -39 70q0 8 1 16q-16 18 -20 45q-1 4 0 17zM332 494q7 -2 14 -2q20 0 20 15q0 4 -3 33q0 3 2 22
q1 11 -5 13q-1 15 -14 15q-9 0 -23 -8l-26 3q-20 -8 -20 -33q0 -10 4 -18q0 -14 7 -29q2 -5 44 -11zM363 219q-5 15 -14 31q-3 2 -7 2q-2 0 -14 -3.5t-14 -1.5q-17 32 -34 31q-19 -1 -27 -20h9l-8 -27q-10 -34 -10 -44q0 -23 30 -25q4 0 20.5 -9.5t27.5 -9.5q5 0 10 1
q9 -2 24 -2l16 32q2 24 -9 45z" />
    <glyph glyph-name="nine" unicode="9" horiz-adv-x="621" 
d="M35 469q-5 32 28 72l-2 42q17 61 57 69l20 4l14 17q22 27 51 32q11 2 61 1q15 -5 29 -9q7 6 23 14q34 6 45 3q65 -18 82 -29l24 -28l22 -2q2 -1 17 -10q22 -18 46 -89q11 -5 35 -33q3 -5 0 -28q-5 -43 -5 -90q-1 -6 4.5 -26t5.5 -27q0 -16 -7 -35l-14 -38l-9 -20l-8 -17
q-28 -14 -25 -44q-9 -48 -47 -85q-20 -19 -44 -21q-15 -38 -71 -63l-27 -12h-1q-13 -6 -29 -7q-5 -6 -16 -14q-40 -27 -70 -27q-19 0 -37 12l-11 33q-20 2 -34 24q-3 6 -18 39q0 10 -3 24l-21 13q-2 2 -8 9q-14 19 -14 26t26 18l26 11q26 15 64 27q19 6 27 9q36 20 36 48
q0 10 -7 15q-8 1 -23 4l-2 1l-31 5q-21 3 -60 43q-4 -1 -33 6q-32 14 -57 63q-11 22 -9 70zM296 529q-28 -24 -29 -44q0 -11 5 -15q12 -9 27 -20q4 -11 11 -25q17 -13 31 -13q24 0 34 30q5 5 12 15q1 7 1 13q0 19 -13 40l-27 13q-15 7 -21 18q-5 7 -11 5z" />
    <glyph glyph-name="colon" unicode=":" horiz-adv-x="342" 
d="M37 120l1 26l-1 11l-1 37q1 16 14 35l-5 44q5 5 11 5q-11 0 37 -8q9 7 22 16q14 3 68 -16q2 -1 7.5 1t6.5 2q13 0 34 11q10 3 30 -3l33 -3q9 -12 14 -30v-2l11 -34l-9 -36q2 -11 -14 -31q9 -12 10 -21h1l1 -29q0 -12 2 -30v0l-7 -28q-3 -11 -5 -28l-16 -7q-10 5 -21 5h-5
l-9 -1q-6 0 -19 5q-1 1 -25 -10q-12 -6 -33 12q-15 -15 -36 -15q-16 0 -53 8l-9 3q-7 2 -25 -8l-10 33l-4 3q-5 2 -5 8q0 3 2 8l5 19v14q0 6 1 18t1 16zM37 439l1 27l-1 11l-1 37q11 12 28 33l-19 46q10 9 31 9q8 0 17 -1q9 0 22 5q28 5 73 -11q6 -2 9 -2q17 0 45 17
q9 4 17 4q4 0 8 -1l27 -15q8 -11 14 -30v-38q0 -21 2 -34q1 -6 -23 -36q9 -4 19 -16h1l1 -29q0 -6 8 -12.5t8 -8.5l-14 -9l-7 -28q-3 -11 -5 -28l-16 -7q-10 5 -21 5h-5l-9 -1q-6 0 -19 5q3 -3 -22 -15q-10 -5 -36 16q-15 -14 -35 -14q-17 0 -54 8l-9 3q-7 2 -25 -8l-10 33
l-6 4q-7 5 -7 10q0 4 3 8l8 16v13q0 6 1 18t1 16z" />
    <glyph glyph-name="semicolon" unicode=";" horiz-adv-x="353" 
d="M45 439v38l-21 43l12 12q1 5 9.5 9t10.5 7l-4 45q11 9 31 9q8 0 17 -1q3 0 15 7.5t16 8.5q13 2 27 -5q24 -12 37 -17q1 0 7 -8t7 -8q3 0 14.5 11.5t15.5 13.5q10 3 28 -3l34 -3q11 -15 14 -30v-38q0 -17 3 -34q2 -11 -15 -31q8 -9 11 -21v0l1 -29q1 -5 4 -18l13 -13
l-22 -27q-1 -6 -5 -28l-16 -7q-9 5 -22 5h-4l-8 -1q-6 0 -20 5q-2 1 -24 -10q-5 -2 -14 8l-19 21q-33 -28 -58 -28q-14 0 -32 4q-2 2 -9 3q-8 2 -25 -8l-9 33q0 5 -2 26l-1 12l1 13q2 26 2 34zM47 61q0 9 -2 29l-1 10l-11 20q-3 5 -3 12q0 12 27 43l-10 34q-8 19 -17 53
q-1 26 37 26q18 0 33 -8q18 12 41 12q19 0 36 -9q5 -9 13 -21l18 23v1l11 7l14 3l12 -5l10 -6q11 -11 24 -11q11 0 24 7q3 2 5 -2q8 -22 8 -61l-4 -10l-6 -14q-4 -8 -11 -24l2 -19l-32 -15q-18 -8 -22 -30q-3 -17 -19 -17q-7 0 -16 1q-3 0 -14 -20l-5 -12l-5 -10
q-12 -24 -18 -32q-14 -18 -48 -34q4 1 -21 1q-2 -2 -12 -25q-7 -12 -27 -23q-14 -10 -31 -8q-18 4 -16 16q3 10 6 31l1 4l4 30q4 32 25 53z" />
    <glyph glyph-name="less" unicode="&#x3c;" horiz-adv-x="624" 
d="M28 288q3 4 0 8q-3 5 -2 6q-2 2 -3 7q1 2 3 7q-1 1 4 14q1 5 -1 18q-1 8 8 13q13 10 27 17l25 13q6 3 23 4l3 4l11 2q18 3 30 12q3 2 15 11q58 43 106 45l50 29q27 26 81 46q11 -3 28 -4v8q2 10 13 19l2 2l26 12q52 24 55 26q9 0 12 -14l7 -32l1 -3l-2 -20q7 -3 14 -8
q3 -1 25 -11q14 -6 15 -15q0 -5 -7.5 -19.5t-6.5 -15.5l5 -20q2 -4 -44 -20q-6 -2 -71 -37q-5 -3 -20 -11q-8 -6 -33 -11q-9 -3 -23 -21q-5 -1 -15 -5q-31 -12 -52 -29q-2 -2 -8 -6l8 -6q24 -20 52 -29q3 -2 15 -5q15 -18 23 -20q26 -7 33 -12q4 -4 20 -11q56 -25 112 -53
q4 -2 3 -3l-5 -21q-1 -1 6.5 -15.5t7.5 -19.5q-1 -10 -15 -15q-23 -9 -25 -11q-7 -5 -14 -8l2 -20l-1 -3l-7 -32q-3 -14 -12 -14q-8 4 -55 26l-26 12l-2 2q-11 9 -13 19v8q-11 -3 -28 -4q-54 20 -81 46l-50 30q-48 1 -106 44q-11 8 -27 18q-6 2 -18 5l-16 4q-6 0 -21 7
l-25 12q-40 19 -40 36q0 6 4 12z" />
    <glyph glyph-name="equal" unicode="=" horiz-adv-x="775" 
d="M64 249q-9 8 -9 16q0 23 61 24l53 1q16 -9 45 -11q12 -1 16 0q5 1 21 4q33 6 62 6q39 0 70 -13l44 5q27 8 66 8q20 0 42 -2q9 -8 26 -17q8 9 28 20l3 1h33q83 0 56 1q20 -1 20 -13q0 -5 -1 -9l-9 -35v-4l-12 -19q9 -13 30 -38q12 -13 8 -22q-2 -5 -17 -15.5t-15 -12.5
l-5 -23q0 -4 -55 2q-18 2 -93 -2q-7 0 -26 -2q-12 -2 -40 5q-11 1 -35 -9q-12 2 -18 2q-16 3 -45 -4q-38 -9 -73 9l-49 15q-18 0 -44 -23h-5l-121 6v1q-14 8 -8 35l3 13l3 7q-10 6 -32 30q-3 6 9 15q18 14 25 24q5 8 -12 24zM64 489q-9 8 -9 16q0 23 61 24l53 1
q16 -9 45 -11q12 -1 16 0q5 1 21 4q33 6 62 6q39 0 70 -13l44 5q27 8 66 8q20 0 42 -2q9 -8 26 -17q8 9 28 20l3 1h33q83 0 56 1q20 -1 20 -13q0 -5 -1 -9l-9 -35v-4l-12 -19q9 -13 30 -38q12 -13 8 -22q-2 -5 -17 -15.5t-15 -12.5l-5 -23q0 -4 -55 2q-18 2 -93 -2
q-7 0 -26 -2q-12 -2 -40 5q-11 1 -35 -9q-12 2 -18 2q-16 3 -45 -4q-38 -9 -73 9l-49 15q-18 0 -44 -23h-5l-121 6v1q-14 8 -8 35l3 13l3 7q-10 6 -32 30q-3 6 9 15q18 14 25 24q5 8 -12 24z" />
    <glyph glyph-name="greater" unicode="&#x3e;" horiz-adv-x="624" 
d="M598 288q-3 4 0 8q2 4 6 13q-1 1 -7 21q-2 5 0 18q2 12 -34 30l-26 13q-6 3 -23 4l-3 4l-10 2q-20 4 -31 12q-4 2 -15 11q-57 43 -105 45l-50 29q-28 26 -82 46q-11 -3 -28 -4v8q-1 10 -13 19l-2 2l-26 12q-56 26 -54 26q-9 0 -12 -14l-7 -32l-2 -3l2 -20q-7 -3 -14 -8
q-3 -2 -24 -11q-14 -6 -16 -15q1 -5 8 -19.5t7 -15.5l-6 -20q-2 -4 44 -20q19 -7 72 -37q5 -3 19 -11q8 -6 33 -11q10 -3 24 -21l15 -5q26 -10 51 -29q3 -1 8 -6q-3 -3 -8 -6q-29 -22 -51 -29q-4 -2 -15 -5q-14 -17 -24 -20q-25 -6 -33 -12q-2 -1 -19 -11q-39 -16 -113 -53
q-4 -2 -3 -3l6 -21q0 -1 -7 -15.5t-8 -19.5q2 -10 18 -16q20 -8 22 -10q7 -5 14 -8l-2 -20l2 -3l7 -32q3 -14 12 -14q11 6 54 26l26 12l2 2q12 9 13 19v8q11 -3 28 -4q54 20 82 46l50 30q47 1 105 44q11 8 27 18q2 1 19 5l16 4q5 0 20 7l26 12q40 24 40 36q0 6 -5 12z" />
    <glyph glyph-name="question" unicode="?" horiz-adv-x="453" 
d="M37 583l13 9q0 2 2 12q8 42 45 74q1 15 15 43q3 6 13 13q14 2 28 0h12l13 -2l16 -25q3 0 15.5 8t15.5 8q17 -1 40 -26q6 -1 13 -3q21 -1 55 -11q32 -20 35 -21q15 -11 18 -20l5 -16l4 -24q7 0 26 -10q17 -16 10 -68q-3 -22 -13 -33q-5 -4 -30 -21q-6 -2 -6 -17v-2l1 -7
q1 -9 -6.5 -15.5t-16.5 -5.5l-9 -23l-22 -4q-19 -17 -35 -22q-22 -6 -28.5 -10t-14.5 -17q-11 -10 -16 -12q-17 -13 -51 -23q-10 3 -10 11q0 9 19 34q1 3 4 4l21 17l-1 21l2 7q0 1 -4 6t-4 6q2 36 2 44q0 37 -26 41q-30 -1 -63 29l-28 -7q-8 6 -17 12q-13 9 -16 7l-30 -7h-4
q-3 0 -8 10q-2 7 -2 13q0 17 18 23zM80 120v37q0 8 -8.5 15l-8.5 7q0 4 7 12l5 9q8 10 22 27l-10 46q11 9 32 9q8 0 17 -1q9 0 21 5q7 1 15 1q24 0 58 -12q1 0 6.5 -7t6.5 -7q4 0 15 10q15 13 16 13q10 3 29 -3l38 7q1 -2 9 -40l1 -2l-1 -36q0 -11 3 -34q1 -6 -23 -34
q8 -6 19 -18v0l1 -29q4 -7 11 -23l-2 -13q3 -1 3 -4q0 -8 -13 -21l-3 3q-3 -11 -5 -28l-16 -7q-10 5 -22 5h-5l-8 -1q-6 0 -19 5q-3 1 -25 -10q-6 -3 -33 22q-34 -31 -54 -31q-13 0 -30 4q-5 6 -14 13q-8 2 -26 -8l-9 33q-2 7 -2 26v26q0 14 2 34z" />
    <glyph glyph-name="at" unicode="@" horiz-adv-x="782" 
d="M505 480q-5 2 -12 13l-7 10q-38 29 -95 29h-50q-25 0 -56 -31q-75 -30 -88 -125q-1 -4 -7 -11.5t-6 -16.5t-1 -28t-1 -29q0 -64 42 -90q2 -18 42 -36q36 -17 57 -17q13 0 26 2h21q31 0 86 52q-3 -62 40 -62q3 0 13 1h15q18 0 75 22q26 13 30 13t31 21q6 9 27 25
q20 11 29 33l17 42q6 10 10 27q4 21 7 28q12 31 12 70q0 18 -23 106q-8 31 -17 42q-31 39 -52 47q-11 4 -19 16q-11 15 -15 19q-75 52 -125 52q-5 0 -14 3t-14 3q-15 0 -26 8q-14 7 -103 7q-12 0 -31 -8.5t-28 -8.5q-26 0 -24 -19q-3 6 -10 6q-5 0 -17.5 -4t-18.5 -4
q-13 0 -50 -22q-53 -32 -100 -110l-26 -57q-29 -63 -29 -140q0 -43 7 -68q1 -1 18 -85q5 -23 24 -55.5t37 -46.5q26 -20 79 -45q16 -8 42 -29q17 -14 68 -30q48 -14 73 -14q10 0 26 -1q15 -1 23 0q12 1 35.5 7t36.5 6q7 0 17.5 5.5t14.5 6.5q110 24 146 69q5 6 7 19.5
t3 15.5t10 8t9 11q0 14 -25 14h-34q-28 0 -43 -15l-30 -30q-10 -7 -58 -11q-12 -1 -38 -12t-41 -11q-72 0 -126 33q-44 27 -56 32q-14 1 -48 18q-12 10 -17 20l-28 43q-16 27 -18 47q4 15 2 49q-1 4 -11 24q-7 14 -7 25q0 5 16 48q23 87 31 105q20 44 70 85q19 16 32 16
q3 0 13 -5t16 -5q12 0 44.5 18.5t45.5 18.5q6 0 14 -4q38 -20 70 -22q-17 1 59 1q14 0 46 -29q91 -65 91 -150q0 -25 -12 -101q1 -5 1 -12q0 -12 -3 -29q-9 -15 -37.5 -35t-36.5 -31q-13 0 -16.5 2.5t-3.5 14.5q0 8 6 18t7 14q4 24 15 92q2 12 0 25q-2 14 1 25q17 62 17 89
q0 23 -32 23q-42 0 -51 -11q-13 -13 -18 -40q1 0 2 1zM435 424q37 0 37 -85q0 -1 2 -18q1 -10 0 -18q0 -12 -3 -19q-1 -1 -27 -10q-11 -4 -31 -16.5t-36 -12.5q-7 0 -38.5 18.5t-33.5 24.5q-2 7 1 21.5t3 18.5q0 5 -5.5 12t-5.5 11q0 24 50 67q13 18 21 18q11 0 33 -6t33 -6
z" />
    <glyph glyph-name="A" unicode="A" horiz-adv-x="754" 
d="M40 151q9 11 17 61q8 7 32 31q4 3 10 9q-2 8 -2 15q0 17 24 44l4 25q4 27 29 56q2 3 4 23l1 13l-7 16q-1 3 6 12t8 12q4 7 -8 25q-7 -1 -13 -1q-61 2 -61 39q0 10 3 26q0 8 1 12l7 26v4q-1 -7 -16 32q-2 3 3 18t5 20.5t2 19.5q7 20 31 20q12 0 26 -7q3 -7 9 -18l38 25
q16 -6 42 -13q26 0 36 2q51 10 69 6q9 -6 25 -14q3 0 31 9q15 5 24 5q19 0 28 -16q0 -8 15 -1q23 11 26 12q8 1 14 1q50 0 50 -80v0l29 -32q12 -13 12 -33q0 -11 -2 -33.5t-2 -33.5t15 -38q9 -1 22 -7q15 -17 15 -43q0 -19 -8 -39q11 -24 28 -43q7 -3 16 -10q10 -21 10 -37
q0 31 -2 -32q0 -2 19 -31l1 -1l-1 -40q0 -5 13.5 -12t15.5 -10v-42q11 -11 22 -33.5t11 -37.5q0 -34 -44 -38h-16q-7 12 -17 15l-3 9l-33 -18q-9 -5 -21 -5q-18 0 -54 14q-3 1 -38 -12q-11 -4 -21 -1q-19 5 -38 51q-11 26 -18 36.5t-24 10.5q-14 0 -43 -7l-38 15
q-4 0 -14.5 -6t-14.5 -7l-6 6q-7 6 -14 7q-27 5 -46 -10q-4 -3 -7 -20q-12 -71 -41 -71q-8 4 -48 15q-5 1 -47 -8l-9 -2l-25 -3l-2 -1l-42 -8q-10 -2 -21 -2q-17 0 -29 15q-7 7 -7 15q0 12 14 41q4 4 37 38q3 3 3 50zM377 324q-6 4 -13 4q-5 0 -10 -2q-15 -8 -16 -21
q2 -8 1 -25q-1 -3 -9 -10.5t-8 -14.5q0 -14 10 -22.5t24 -6.5q5 -4 16 -7q28 6 28 21q0 3 -4 17q-2 7 1 21q2 10 0 19q-4 2 -10 7q-1 8 -10 20z" />
    <glyph glyph-name="A" unicode="a" horiz-adv-x="754" 
d="M40 151q9 11 17 61q8 7 32 31q4 3 10 9q-2 8 -2 15q0 17 24 44l4 25q4 27 29 56q2 3 4 23l1 13l-7 16q-1 3 6 12t8 12q4 7 -8 25q-7 -1 -13 -1q-61 2 -61 39q0 10 3 26q0 8 1 12l7 26v4q-1 -7 -16 32q-2 3 3 18t5 20.5t2 19.5q7 20 31 20q12 0 26 -7q3 -7 9 -18l38 25
q16 -6 42 -13q26 0 36 2q51 10 69 6q9 -6 25 -14q3 0 31 9q15 5 24 5q19 0 28 -16q0 -8 15 -1q23 11 26 12q8 1 14 1q50 0 50 -80v0l29 -32q12 -13 12 -33q0 -11 -2 -33.5t-2 -33.5t15 -38q9 -1 22 -7q15 -17 15 -43q0 -19 -8 -39q11 -24 28 -43q7 -3 16 -10q10 -21 10 -37
q0 31 -2 -32q0 -2 19 -31l1 -1l-1 -40q0 -5 13.5 -12t15.5 -10v-42q11 -11 22 -33.5t11 -37.5q0 -34 -44 -38h-16q-7 12 -17 15l-3 9l-33 -18q-9 -5 -21 -5q-18 0 -54 14q-3 1 -38 -12q-11 -4 -21 -1q-19 5 -38 51q-11 26 -18 36.5t-24 10.5q-14 0 -43 -7l-38 15
q-4 0 -14.5 -6t-14.5 -7l-6 6q-7 6 -14 7q-27 5 -46 -10q-4 -3 -7 -20q-12 -71 -41 -71q-8 4 -48 15q-5 1 -47 -8l-9 -2l-25 -3l-2 -1l-42 -8q-10 -2 -21 -2q-17 0 -29 15q-7 7 -7 15q0 12 14 41q4 4 37 38q3 3 3 50zM377 324q-6 4 -13 4q-5 0 -10 -2q-15 -8 -16 -21
q2 -8 1 -25q-1 -3 -9 -10.5t-8 -14.5q0 -14 10 -22.5t24 -6.5q5 -4 16 -7q28 6 28 21q0 3 -4 17q-2 7 1 21q2 10 0 19q-4 2 -10 7q-1 8 -10 20z" />
    <glyph glyph-name="B" unicode="B" horiz-adv-x="707" 
d="M45 511v29q-15 15 -15 40q0 16 8 39q3 6 8 17q-1 4 -12 23q-6 10 0 27q8 24 35 24q25 0 40 -15q12 -2 32 12q11 11 20 11q6 0 15 -3l33 -11h3q5 -2 31 2q2 0 16 -7.5t17 -8.5q13 25 40 25q17 0 48 -13q35 13 73 13q16 0 32 -2l10 4q20 3 33 -6q17 -16 35 -32q-6 3 35 3
q20 0 44 -40q-3 -8 -5 -21q12 -2 27 -9q19 -27 19 -56q0 -30 -19 -53q3 -10 3 -20q0 -28 -21 -47q-12 -22 -36 -46q2 -1 8 -7q26 -23 32 -31q9 -12 15 -40q1 -3 22 -22q11 -10 11 -30q2 -10 -5 -45q0 -9 7 -35q4 -15 -21 -56q-17 -21 -29 -48q0 -28 -65 -51q-11 -4 -19 -5
q-14 -10 -24 -11v-1l-39 -1l-42 -2q-13 -1 -39 5q-4 -1 -19 -4q-40 -7 -90 3l-15 3q-2 1 -39 -10q-12 -1 -43 2l-30 3l-9 2h-1l-46 -11q-11 -3 -17 -3q-11 -2 -33 -2q-26 0 -32 15q-4 10 -4 40v38q6 19 15 33q1 3 -15 38q-4 8 8 41l7 20l1 2q2 9 0 26q0 3 -11 45
q-5 19 -5 34q0 26 15 56q-1 2 -10 25q-12 30 3 82q2 7 9 23zM314 488q-2 -10 1 -26q2 -7 19 -7t26 6q-1 3 -1 8q0 7 3 19q19 8 19 28q0 8 -4 17q-13 22 -34 22q-12 0 -27 -17q-9 -7 -17 -25q-1 -11 15 -25zM307 229q5 -9 14 -28q19 -8 27 -8q9 0 12 10q5 17 10 22
q14 15 14 39q0 30 -16 31q-6 0 -14 5.5t-9 5.5q-6 0 -17 -12q-7 -1 -15 -6q-2 -4 -2 -11q0 -6 2 -15q0 -4 -3.5 -16t-2.5 -17z" />
    <glyph glyph-name="B" unicode="b" horiz-adv-x="707" 
d="M45 511v29q-15 15 -15 40q0 16 8 39q3 6 8 17q-1 4 -12 23q-6 10 0 27q8 24 35 24q25 0 40 -15q12 -2 32 12q11 11 20 11q6 0 15 -3l33 -11h3q5 -2 31 2q2 0 16 -7.5t17 -8.5q13 25 40 25q17 0 48 -13q35 13 73 13q16 0 32 -2l10 4q20 3 33 -6q17 -16 35 -32q-6 3 35 3
q20 0 44 -40q-3 -8 -5 -21q12 -2 27 -9q19 -27 19 -56q0 -30 -19 -53q3 -10 3 -20q0 -28 -21 -47q-12 -22 -36 -46q2 -1 8 -7q26 -23 32 -31q9 -12 15 -40q1 -3 22 -22q11 -10 11 -30q2 -10 -5 -45q0 -9 7 -35q4 -15 -21 -56q-17 -21 -29 -48q0 -28 -65 -51q-11 -4 -19 -5
q-14 -10 -24 -11v-1l-39 -1l-42 -2q-13 -1 -39 5q-4 -1 -19 -4q-40 -7 -90 3l-15 3q-2 1 -39 -10q-12 -1 -43 2l-30 3l-9 2h-1l-46 -11q-11 -3 -17 -3q-11 -2 -33 -2q-26 0 -32 15q-4 10 -4 40v38q6 19 15 33q1 3 -15 38q-4 8 8 41l7 20l1 2q2 9 0 26q0 3 -11 45
q-5 19 -5 34q0 26 15 56q-1 2 -10 25q-12 30 3 82q2 7 9 23zM314 488q-2 -10 1 -26q2 -7 19 -7t26 6q-1 3 -1 8q0 7 3 19q19 8 19 28q0 8 -4 17q-13 22 -34 22q-12 0 -27 -17q-9 -7 -17 -25q-1 -11 15 -25zM307 229q5 -9 14 -28q19 -8 27 -8q9 0 12 10q5 17 10 22
q14 15 14 39q0 30 -16 31q-6 0 -14 5.5t-9 5.5q-6 0 -17 -12q-7 -1 -15 -6q-2 -4 -2 -11q0 -6 2 -15q0 -4 -3.5 -16t-2.5 -17z" />
    <glyph glyph-name="C" unicode="C" horiz-adv-x="685" 
d="M27 396q0 5 -4 17t-4 17q4 29 20 50q3 4 38 39l10 10l9 8q5 5 13 20q4 19 19 48q8 6 25 7.5t22 3.5q11 5 37 34q6 10 16 22q28 15 55 15q7 0 42 -4q24 6 74 21q23 7 34 7q9 0 21 -2q20 -10 29 -10q6 0 13 1l8 8q5 5 13 5q7 0 15 -4l25 -12h9q16 13 38 13q45 0 45 -35
q0 -16 -10 -39q0 -1 4 -5.5t4 -6.5q8 -26 8 -37q0 -19 -14 -35q-2 -2 5 -16t7 -15q3 -14 4 -23q1 -16 -12 -22t-29 -4q-7 7 -26 20l-24 -16q-26 -17 -43 -16q-20 2 -36 18q-5 6 -17 18l-21 -29q-2 -2 -31 -4q-7 -1 -17 -3l-4 -12q-6 -13 -25 -26q-5 -5 -20 -6t-16 -2
q0 -10 5 -32.5t4 -36.5q0 -1 -4 -10t-3 -10v-1l21 -21l-2 -30h1q26 3 37 -5t19 -34l11 -9q-12 0 13 5t30 5q12 -8 33 -19q0 19 7 23q9 5 26 -3l2 -2h2q4 0 29 9t39 9q53 0 53 -58q0 -18 -7 -36q2 -3 6 -11q5 -13 5 -27q0 -17 -7 -36q-2 -4 0 -26l2 -21l1 -7q7 -26 -45 -33
l-37 -5h-3l-33 7q-14 3 -30 -4q-28 -12 -41 -16q-4 -1 -33 9q-19 6 -37 12q-4 2 -13 4q-9 -8 -28 -19l-31 9q-14 4 -26 13q-30 -9 -33 -9q-5 0 -8 1q-4 8 -13 17l-12 5q-15 19 -74 38q-23 7 -35 52q-23 10 -28 14q-13 8 -23 22q-24 33 -29 58q-3 15 -3 62q0 3 -16 27
q-7 4 -14 13q-2 4 -2 7t7 21.5t8 24.5q2 11 0 36z" />
    <glyph glyph-name="C" unicode="c" horiz-adv-x="685" 
d="M27 396q0 5 -4 17t-4 17q4 29 20 50q3 4 38 39l10 10l9 8q5 5 13 20q4 19 19 48q8 6 25 7.5t22 3.5q11 5 37 34q6 10 16 22q28 15 55 15q7 0 42 -4q24 6 74 21q23 7 34 7q9 0 21 -2q20 -10 29 -10q6 0 13 1l8 8q5 5 13 5q7 0 15 -4l25 -12h9q16 13 38 13q45 0 45 -35
q0 -16 -10 -39q0 -1 4 -5.5t4 -6.5q8 -26 8 -37q0 -19 -14 -35q-2 -2 5 -16t7 -15q3 -14 4 -23q1 -16 -12 -22t-29 -4q-7 7 -26 20l-24 -16q-26 -17 -43 -16q-20 2 -36 18q-5 6 -17 18l-21 -29q-2 -2 -31 -4q-7 -1 -17 -3l-4 -12q-6 -13 -25 -26q-5 -5 -20 -6t-16 -2
q0 -10 5 -32.5t4 -36.5q0 -1 -4 -10t-3 -10v-1l21 -21l-2 -30h1q26 3 37 -5t19 -34l11 -9q-12 0 13 5t30 5q12 -8 33 -19q0 19 7 23q9 5 26 -3l2 -2h2q4 0 29 9t39 9q53 0 53 -58q0 -18 -7 -36q2 -3 6 -11q5 -13 5 -27q0 -17 -7 -36q-2 -4 0 -26l2 -21l1 -7q7 -26 -45 -33
l-37 -5h-3l-33 7q-14 3 -30 -4q-28 -12 -41 -16q-4 -1 -33 9q-19 6 -37 12q-4 2 -13 4q-9 -8 -28 -19l-31 9q-14 4 -26 13q-30 -9 -33 -9q-5 0 -8 1q-4 8 -13 17l-12 5q-15 19 -74 38q-23 7 -35 52q-23 10 -28 14q-13 8 -23 22q-24 33 -29 58q-3 15 -3 62q0 3 -16 27
q-7 4 -14 13q-2 4 -2 7t7 21.5t8 24.5q2 11 0 36z" />
    <glyph glyph-name="D" unicode="D" horiz-adv-x="780" 
d="M37 567l9 45q-7 8 -14 23q-2 64 50 67l18 1l9 1l11 -1l27 -17q1 -1 18.5 7.5t23.5 8.5q2 1 28 -5l27 3l17 -18l33 20q10 6 26 5q17 -1 25 -0.5t42 -8.5q9 -7 20 -16q15 18 31 22t50 -7q20 -7 73 -56q4 2 13 2q10 0 25 -2q18 -7 25 -16q9 -16 18 -31l-4 -17l26 -2l4 -3
q2 -3 3 -5q33 -34 37 -45l1 -3l16 -19q-1 -17 5 -33l7 -19l-5 -19l19 -14l1 -5q8 -8 10 -28q1 -10 -1 -30q-2 -23 -2 -16q-1 -16 -15 -26t-14 -16q0 -9 6 -28t7 -27q1 -14 -13 -35q-8 -4 -34 -26q1 -1 1 -4q0 -9 -8 -35q-6 -13 -30 -39q-36 -39 -72 -43q-16 -26 -39 -36
q-13 -6 -49 -14t-51 -8q-14 0 -44 12q-3 1 -36 -9q-13 7 -39 18q9 0 -9 -8.5t-26 -9.5q-11 -3 -40 -2l-26 1h-13q-2 1 -24 -1q-15 -1 -17 6l-2 6l-40 -12q-6 -2 -17 -2q-52 -1 -67 8q-21 13 -20 60q11 20 26 52v0l-17 43q-2 4 -3 25q0 6 -3 22q-2 13 -2 22q0 13 2 29
q1 2 11.5 11t10.5 16v1l-14 27q-2 4 -4 46l-1 21l-8 25q-2 6 -2 11q0 8 7 25.5t8 23.5q7 6 14 17v1l-13 35v24q0 11 -3 24zM326 285q4 -53 25 -53q7 0 17 4q8 8 19 16l25 -1l2 1q11 5 40 58q11 6 23 18q2 5 2 11q0 10 -8 28.5t-7 29.5l2 31l-1 4q-12 5 -29 14l-12 30
q-1 1 -11.5 -2.5t-12.5 -3.5q-6 0 -13 4l-22 12l-9 1q-30 -18 -25 -64q1 -12 -11 -39q7 -34 7 -38q-3 -9 -7 -23q5 -30 6 -38z" />
    <glyph glyph-name="D" unicode="d" horiz-adv-x="780" 
d="M37 567l9 45q-7 8 -14 23q-2 64 50 67l18 1l9 1l11 -1l27 -17q1 -1 18.5 7.5t23.5 8.5q2 1 28 -5l27 3l17 -18l33 20q10 6 26 5q17 -1 25 -0.5t42 -8.5q9 -7 20 -16q15 18 31 22t50 -7q20 -7 73 -56q4 2 13 2q10 0 25 -2q18 -7 25 -16q9 -16 18 -31l-4 -17l26 -2l4 -3
q2 -3 3 -5q33 -34 37 -45l1 -3l16 -19q-1 -17 5 -33l7 -19l-5 -19l19 -14l1 -5q8 -8 10 -28q1 -10 -1 -30q-2 -23 -2 -16q-1 -16 -15 -26t-14 -16q0 -9 6 -28t7 -27q1 -14 -13 -35q-8 -4 -34 -26q1 -1 1 -4q0 -9 -8 -35q-6 -13 -30 -39q-36 -39 -72 -43q-16 -26 -39 -36
q-13 -6 -49 -14t-51 -8q-14 0 -44 12q-3 1 -36 -9q-13 7 -39 18q9 0 -9 -8.5t-26 -9.5q-11 -3 -40 -2l-26 1h-13q-2 1 -24 -1q-15 -1 -17 6l-2 6l-40 -12q-6 -2 -17 -2q-52 -1 -67 8q-21 13 -20 60q11 20 26 52v0l-17 43q-2 4 -3 25q0 6 -3 22q-2 13 -2 22q0 13 2 29
q1 2 11.5 11t10.5 16v1l-14 27q-2 4 -4 46l-1 21l-8 25q-2 6 -2 11q0 8 7 25.5t8 23.5q7 6 14 17v1l-13 35v24q0 11 -3 24zM326 285q4 -53 25 -53q7 0 17 4q8 8 19 16l25 -1l2 1q11 5 40 58q11 6 23 18q2 5 2 11q0 10 -8 28.5t-7 29.5l2 31l-1 4q-12 5 -29 14l-12 30
q-1 1 -11.5 -2.5t-12.5 -3.5q-6 0 -13 4l-22 12l-9 1q-30 -18 -25 -64q1 -12 -11 -39q7 -34 7 -38q-3 -9 -7 -23q5 -30 6 -38z" />
    <glyph glyph-name="E" unicode="E" horiz-adv-x="511" 
d="M29 684q12 14 27 14q13 0 46 -14q5 3 28 18q36 0 39 -1l39 -13q6 11 24 25q7 2 19 -3.5t16 -5.5l6 -11l35 13q1 1 19.5 -9.5t21.5 -10.5q10 -3 18 5q13 13 27 18q1 1 7.5 -1.5t7.5 -2.5q38 0 46 -19v0l-6 -25q-1 -5 4.5 -12.5t5.5 -11.5q4 -30 4 -28q0 -18 -18 -28l7 -9
q5 -9 9 -27q3 -13 -5 -23.5t-21 -11.5q-4 0 -25 -4q-16 -3 -26 -1q-3 1 -13.5 7t-13.5 6q-35 0 -60 -20q-14 -11 -14 -25q0 -7 6.5 -15.5t13.5 -8.5q3 0 11 3t12 3h3l31 -8l29 1l9 1l20 2q17 2 29 -7.5t10 -26.5q-1 -13 -10 -20q10 -25 19 -51q0 -4 -13 -27q-10 -7 -24 -5
q-10 1 -36 5q-1 0 -12 -5.5t-14 -6.5q-5 1 -19 5l-7 2q-10 3 -27 -6q-12 0 -30 -7l-2 -42q0 -3 2 -12q11 -49 42 -49q13 0 26 7l15 8l22 7l4 -5q5 -6 17 -6q2 0 15.5 6t17.5 7q6 1 23 -18q14 -12 14 -28q0 -5 -1 -11l-8 -19q11 -21 11 -40q0 -7 -2 -15q0 -2 -5 -6t-5 -6
q6 -39 6 -55q0 -25 -18 -25q-4 0 -26 3l-36 5q-16 2 -44 -6q-35 -10 -44 -11q-3 0 -22.5 7.5t-25.5 8.5q9 0 -10 -6.5t-24 -7.5l-11 8.5t-19 9.5q-6 0 -18 -5t-17 -5h-9l-29 10q-3 1 -19.5 -5.5t-21.5 -6.5q-53 -5 -53 56q0 24 5 34q-10 50 -10 45q0 13 8 24l12 16l-9 21v2
l-12 36v4l19 33l-9 24l-1 26q0 4 5.5 19t6.5 19v12l-10 33q-4 13 -4 27q0 21 21 69q-1 2 -13 15.5t-12 20.5q0 11 11 58q7 5 14 14q-9 11 -23 37q-2 5 -2 14q0 10 3 27z" />
    <glyph glyph-name="E" unicode="e" horiz-adv-x="511" 
d="M29 684q12 14 27 14q13 0 46 -14q5 3 28 18q36 0 39 -1l39 -13q6 11 24 25q7 2 19 -3.5t16 -5.5l6 -11l35 13q1 1 19.5 -9.5t21.5 -10.5q10 -3 18 5q13 13 27 18q1 1 7.5 -1.5t7.5 -2.5q38 0 46 -19v0l-6 -25q-1 -5 4.5 -12.5t5.5 -11.5q4 -30 4 -28q0 -18 -18 -28l7 -9
q5 -9 9 -27q3 -13 -5 -23.5t-21 -11.5q-4 0 -25 -4q-16 -3 -26 -1q-3 1 -13.5 7t-13.5 6q-35 0 -60 -20q-14 -11 -14 -25q0 -7 6.5 -15.5t13.5 -8.5q3 0 11 3t12 3h3l31 -8l29 1l9 1l20 2q17 2 29 -7.5t10 -26.5q-1 -13 -10 -20q10 -25 19 -51q0 -4 -13 -27q-10 -7 -24 -5
q-10 1 -36 5q-1 0 -12 -5.5t-14 -6.5q-5 1 -19 5l-7 2q-10 3 -27 -6q-12 0 -30 -7l-2 -42q0 -3 2 -12q11 -49 42 -49q13 0 26 7l15 8l22 7l4 -5q5 -6 17 -6q2 0 15.5 6t17.5 7q6 1 23 -18q14 -12 14 -28q0 -5 -1 -11l-8 -19q11 -21 11 -40q0 -7 -2 -15q0 -2 -5 -6t-5 -6
q6 -39 6 -55q0 -25 -18 -25q-4 0 -26 3l-36 5q-16 2 -44 -6q-35 -10 -44 -11q-3 0 -22.5 7.5t-25.5 8.5q9 0 -10 -6.5t-24 -7.5l-11 8.5t-19 9.5q-6 0 -18 -5t-17 -5h-9l-29 10q-3 1 -19.5 -5.5t-21.5 -6.5q-53 -5 -53 56q0 24 5 34q-10 50 -10 45q0 13 8 24l12 16l-9 21v2
l-12 36v4l19 33l-9 24l-1 26q0 4 5.5 19t6.5 19v12l-10 33q-4 13 -4 27q0 21 21 69q-1 2 -13 15.5t-12 20.5q0 11 11 58q7 5 14 14q-9 11 -23 37q-2 5 -2 14q0 10 3 27z" />
    <glyph glyph-name="F" unicode="F" horiz-adv-x="509" 
d="M32 690q22 15 49 16q6 0 18.5 -2t18.5 -2q-2 0 57 11q10 0 38 -9.5t38 -10.5q4 -1 13 -2q7 -1 25 4q29 8 53 12q10 0 17 3q-13 0 14 -8q24 -8 30 -9l35 12q12 4 21 4q22 0 33 -26q6 -14 -10 -39q2 -6 12 -24t10 -26q0 -14 -13 -31l2 -39q5 -27 -24 -27q-9 0 -21.5 5
t-19.5 5q-6 0 -16.5 -4.5t-15.5 -4.5q-2 0 -9.5 3.5t-9.5 3.5q-27 5 -25 5q-26 0 -36 -11q-17 -18 -17 -60q0 -19 10 -24l36 9q11 3 25 -31v0l25 22l22 11q27 1 36 -2q18 -6 18 -27q0 -4 -1 -21q0 -4 -5 -14.5t-4 -15.5q1 -17 13 -45q3 -12 -12.5 -25.5t-28.5 -13.5
q-8 0 -27 12l-11 -3l-13 -3l-17 -12l-18 12q-9 6 -13 6q-10 0 -22 -31l-1 -1l7 -46q1 -3 -6 -17q-7 -18 -8 -21q9 -24 9 -40q0 -22 -17 -30q7 -5 16 -14q5 -22 5 -34q0 -28 -48 -35l-35 -5q7 0 -41 16q-20 -13 -37 -18q-4 -1 -40 14q-42 -11 -57 -7q-8 2 -18 6q0 1 -3.5 7.5
t-2.5 9.5q-11 30 -11 51q0 14 16 56l-2 30q-2 10 -2 15l-3 14q-13 18 -13 29q0 12 14 29l2 57l-12 50l10 43v8l-8 28q-3 10 -3 18q0 4 12 49q-8 31 -8 43q0 13 10 34t10 27q0 5 -9 23t-10 25q-2 11 4 33z" />
    <glyph glyph-name="F" unicode="f" horiz-adv-x="509" 
d="M32 690q22 15 49 16q6 0 18.5 -2t18.5 -2q-2 0 57 11q10 0 38 -9.5t38 -10.5q4 -1 13 -2q7 -1 25 4q29 8 53 12q10 0 17 3q-13 0 14 -8q24 -8 30 -9l35 12q12 4 21 4q22 0 33 -26q6 -14 -10 -39q2 -6 12 -24t10 -26q0 -14 -13 -31l2 -39q5 -27 -24 -27q-9 0 -21.5 5
t-19.5 5q-6 0 -16.5 -4.5t-15.5 -4.5q-2 0 -9.5 3.5t-9.5 3.5q-27 5 -25 5q-26 0 -36 -11q-17 -18 -17 -60q0 -19 10 -24l36 9q11 3 25 -31v0l25 22l22 11q27 1 36 -2q18 -6 18 -27q0 -4 -1 -21q0 -4 -5 -14.5t-4 -15.5q1 -17 13 -45q3 -12 -12.5 -25.5t-28.5 -13.5
q-8 0 -27 12l-11 -3l-13 -3l-17 -12l-18 12q-9 6 -13 6q-10 0 -22 -31l-1 -1l7 -46q1 -3 -6 -17q-7 -18 -8 -21q9 -24 9 -40q0 -22 -17 -30q7 -5 16 -14q5 -22 5 -34q0 -28 -48 -35l-35 -5q7 0 -41 16q-20 -13 -37 -18q-4 -1 -40 14q-42 -11 -57 -7q-8 2 -18 6q0 1 -3.5 7.5
t-2.5 9.5q-11 30 -11 51q0 14 16 56l-2 30q-2 10 -2 15l-3 14q-13 18 -13 29q0 12 14 29l2 57l-12 50l10 43v8l-8 28q-3 10 -3 18q0 4 12 49q-8 31 -8 43q0 13 10 34t10 27q0 5 -9 23t-10 25q-2 11 4 33z" />
    <glyph glyph-name="G" unicode="G" horiz-adv-x="701" 
d="M58 455q0 3 -3 12t-2 13q7 46 63 76q9 27 16 36q13 19 47 44q23 5 57 13q1 6 25 26q19 12 72 22q5 1 17 3h2l34 -11l29 13l27 2l12 -6q11 -7 31 -9l14 7q14 7 37 9q3 0 21.5 -6.5t21.5 -7.5q5 5 13 10q54 3 55 -30q-5 -9 -11 -29v-1l5 -27l5 -6q4 -6 4 -12q0 -4 -1 -8
l-7 -18l-11 -16q0 -1 7 -14t8 -16q5 -24 -20 -31q-10 -1 -35 -6l-34 -9q-2 -1 -17.5 7.5t-18.5 9.5q-4 0 -17 -4t-17 -5q-5 0 -13.5 4.5t-13.5 4.5q-84 -2 -116 -51l-20 -3l-8 -6q2 -30 -16 -89q-4 -13 -8 -51q3 -18 17 -30q35 -29 41 -33q-1 -10 9 -35h13q34 0 41 7
q3 3 0 20q-4 20 2 34l12 29l-14 18l-6 22q-3 8 -3 29q10 25 42 25q11 0 26 -2q5 -7 17 -14q-3 0 -3 1q0 9 26 16q6 2 24 -4q27 -9 41 -11q1 0 14 7.5t16 8.5q10 3 14 2q49 -3 49 -45q0 -25 -8 -56q5 -8 12 -24q4 -24 4 -45q0 -10 -8 -63q9 -3 9 -9t-13 -18l-2 -6q0 -5 -2 -3
q0 1 -1 2q2 -4 8 -18l1 -71q-18 -19 -39 -25h-50l-14 -4q-14 -4 -35 -6q-13 -1 -32 7l-38 16q-2 2 -35 -11q-55 -11 -97 3l-18 6q-20 -6 -33 -6q-31 0 -106 55q-38 14 -62 46l-6 8l-25 22l-13 65l-24 30l-1 4l-4 11l-10 30q-7 21 -7 31v3l15 27q-10 36 -10 43q0 17 7 41
q2 7 12.5 16t12.5 14z" />
    <glyph glyph-name="G" unicode="g" horiz-adv-x="701" 
d="M58 455q0 3 -3 12t-2 13q7 46 63 76q9 27 16 36q13 19 47 44q23 5 57 13q1 6 25 26q19 12 72 22q5 1 17 3h2l34 -11l29 13l27 2l12 -6q11 -7 31 -9l14 7q14 7 37 9q3 0 21.5 -6.5t21.5 -7.5q5 5 13 10q54 3 55 -30q-5 -9 -11 -29v-1l5 -27l5 -6q4 -6 4 -12q0 -4 -1 -8
l-7 -18l-11 -16q0 -1 7 -14t8 -16q5 -24 -20 -31q-10 -1 -35 -6l-34 -9q-2 -1 -17.5 7.5t-18.5 9.5q-4 0 -17 -4t-17 -5q-5 0 -13.5 4.5t-13.5 4.5q-84 -2 -116 -51l-20 -3l-8 -6q2 -30 -16 -89q-4 -13 -8 -51q3 -18 17 -30q35 -29 41 -33q-1 -10 9 -35h13q34 0 41 7
q3 3 0 20q-4 20 2 34l12 29l-14 18l-6 22q-3 8 -3 29q10 25 42 25q11 0 26 -2q5 -7 17 -14q-3 0 -3 1q0 9 26 16q6 2 24 -4q27 -9 41 -11q1 0 14 7.5t16 8.5q10 3 14 2q49 -3 49 -45q0 -25 -8 -56q5 -8 12 -24q4 -24 4 -45q0 -10 -8 -63q9 -3 9 -9t-13 -18l-2 -6q0 -5 -2 -3
q0 1 -1 2q2 -4 8 -18l1 -71q-18 -19 -39 -25h-50l-14 -4q-14 -4 -35 -6q-13 -1 -32 7l-38 16q-2 2 -35 -11q-55 -11 -97 3l-18 6q-20 -6 -33 -6q-31 0 -106 55q-38 14 -62 46l-6 8l-25 22l-13 65l-24 30l-1 4l-4 11l-10 30q-7 21 -7 31v3l15 27q-10 36 -10 43q0 17 7 41
q2 7 12.5 16t12.5 14z" />
    <glyph glyph-name="H" unicode="H" horiz-adv-x="710" 
d="M48 716q6 0 19 -6t17 -6l12 -2l19 -13q1 -1 16.5 10.5t21.5 12.5l34 -10l30 -1q8 -6 26 -14q2 -1 50 13q8 2 15 -21h4l-1 -17l8 -19q1 -2 1 -5q0 -5 -6.5 -15t-6.5 -15q2 -13 2 -22q0 -10 -2 -24q-6 -4 -14 -12q2 -3 14 -15q16 -27 19 -27q30 9 61 18q18 10 23 54
q-2 9 -14 54q-2 4 2.5 17.5t4.5 16.5q2 17 15 29t30 12q6 0 11 -1q10 10 19 10q6 0 22.5 -5.5t27.5 -4.5q1 0 15.5 -8.5t18.5 -9.5l17 14l27 2h13q13 2 24 2q23 0 35 -9l-4 -53l9 -35l-18 -20q-4 -4 -4 -10q0 -5 5.5 -13.5t5.5 -12t5 -27.5q1 -2 -14 -25q4 -6 9 -16
q9 -44 0 -88q-3 -16 -1 -22q4 -11 12 -28q3 -6 -7 -64q-2 -12 -4 -17q9 -26 9 -68q0 -28 -16 -60q2 -8 12 -50q0 -3 3 -14q1 -40 0 -47q-5 -34 -24 -34q-7 0 -21 5l-33 12l-15 -10h-14l-15 1l-23 -13q-3 1 -30 9q-16 5 -29 5t-29 -4q-12 -3 -24 4q-23 13 -23 44q0 6 1 14
q1 2 6 6t5 5q-12 10 -25 24q-1 4 -1 7q0 7 6 18t7 16q1 24 0 60q-5 12 -12 30q0 2 6 9.5t7 14.5q2 13 -16 24q-27 17 -62 12q-7 -1 -10 -34l-1 -1l6 -30q-6 -1 -16 -15q2 -5 5 -16q7 -26 7 -44q0 -21 -11 -45q-4 -9 5 -24q5 -6 10 -16q3 -37 -6.5 -49t-45.5 -12h-6l-23 -2
h-3l-43 14l-11 -7q-11 -7 -28 -6q-34 10 -51 4q-16 -6 -28 -6q-39 0 -39 42v41l1 9l2 14l8 15q1 1 -4 13t-5 14l-9 24l14 22l3 24l9 17q-8 12 -18 31q-4 15 -4 30q0 27 15 68q-7 31 -15 66q-1 9 -1 18t1 18q5 6 13 19q-2 4 -13 39q-4 12 -4 27q0 33 24 50l-11 9
q-12 8 -16 24l9 28q4 12 5 36q1 15 11 19z" />
    <glyph glyph-name="H" unicode="h" horiz-adv-x="710" 
d="M48 716q6 0 19 -6t17 -6l12 -2l19 -13q1 -1 16.5 10.5t21.5 12.5l34 -10l30 -1q8 -6 26 -14q2 -1 50 13q8 2 15 -21h4l-1 -17l8 -19q1 -2 1 -5q0 -5 -6.5 -15t-6.5 -15q2 -13 2 -22q0 -10 -2 -24q-6 -4 -14 -12q2 -3 14 -15q16 -27 19 -27q30 9 61 18q18 10 23 54
q-2 9 -14 54q-2 4 2.5 17.5t4.5 16.5q2 17 15 29t30 12q6 0 11 -1q10 10 19 10q6 0 22.5 -5.5t27.5 -4.5q1 0 15.5 -8.5t18.5 -9.5l17 14l27 2h13q13 2 24 2q23 0 35 -9l-4 -53l9 -35l-18 -20q-4 -4 -4 -10q0 -5 5.5 -13.5t5.5 -12t5 -27.5q1 -2 -14 -25q4 -6 9 -16
q9 -44 0 -88q-3 -16 -1 -22q4 -11 12 -28q3 -6 -7 -64q-2 -12 -4 -17q9 -26 9 -68q0 -28 -16 -60q2 -8 12 -50q0 -3 3 -14q1 -40 0 -47q-5 -34 -24 -34q-7 0 -21 5l-33 12l-15 -10h-14l-15 1l-23 -13q-3 1 -30 9q-16 5 -29 5t-29 -4q-12 -3 -24 4q-23 13 -23 44q0 6 1 14
q1 2 6 6t5 5q-12 10 -25 24q-1 4 -1 7q0 7 6 18t7 16q1 24 0 60q-5 12 -12 30q0 2 6 9.5t7 14.5q2 13 -16 24q-27 17 -62 12q-7 -1 -10 -34l-1 -1l6 -30q-6 -1 -16 -15q2 -5 5 -16q7 -26 7 -44q0 -21 -11 -45q-4 -9 5 -24q5 -6 10 -16q3 -37 -6.5 -49t-45.5 -12h-6l-23 -2
h-3l-43 14l-11 -7q-11 -7 -28 -6q-34 10 -51 4q-16 -6 -28 -6q-39 0 -39 42v41l1 9l2 14l8 15q1 1 -4 13t-5 14l-9 24l14 22l3 24l9 17q-8 12 -18 31q-4 15 -4 30q0 27 15 68q-7 31 -15 66q-1 9 -1 18t1 18q5 6 13 19q-2 4 -13 39q-4 12 -4 27q0 33 24 50l-11 9
q-12 8 -16 24l9 28q4 12 5 36q1 15 11 19z" />
    <glyph glyph-name="I" unicode="I" horiz-adv-x="343" 
d="M97 686q7 14 16 29q11 3 28 -13q8 3 18 3q14 0 65 -20q5 10 16 23q13 4 24 4q41 0 39 -50l-1 -25l-2 -24l-11 -15q0 10 6 -8.5t7 -23.5q3 -22 -12 -78l6 -6q5 -6 11 -22v0l-2 -53l9 -46l-6 -41v-84l-10 -29q0 -4 3.5 -14t3.5 -16l4 -33q-6 -19 -6 -39t6 -39q3 -15 -2 -36
q-8 -33 -30 -33q-6 0 -14 4l-29 6q-11 -8 -36 -17q-2 0 -7.5 5t-7.5 5q-9 1 -22 6l-6 6l-28 -12q-19 -8 -59 6q-8 3 -28 -4l-10 43q-1 0 -2 -1q-4 10 -6 29l1 -1l9 36q1 2 7 9.5t6 11.5v2l-12 25q-1 11 0 33l1 19l1 15q1 3 8 15q5 8 5 15q0 5 -6 15.5t-7 13.5l-7 37
q-4 21 -4 43q0 10 10 52q5 5 12 14q-4 0 -16 19l-10 36v7l9 28q0 13 1 36q2 13 9 21q4 3 7 6l-16 17q-6 6 -7 43q-2 68 39 68q11 0 25 -4q3 -8 10 -19z" />
    <glyph glyph-name="I" unicode="i" horiz-adv-x="343" 
d="M97 686q7 14 16 29q11 3 28 -13q8 3 18 3q14 0 65 -20q5 10 16 23q13 4 24 4q41 0 39 -50l-1 -25l-2 -24l-11 -15q0 10 6 -8.5t7 -23.5q3 -22 -12 -78l6 -6q5 -6 11 -22v0l-2 -53l9 -46l-6 -41v-84l-10 -29q0 -4 3.5 -14t3.5 -16l4 -33q-6 -19 -6 -39t6 -39q3 -15 -2 -36
q-8 -33 -30 -33q-6 0 -14 4l-29 6q-11 -8 -36 -17q-2 0 -7.5 5t-7.5 5q-9 1 -22 6l-6 6l-28 -12q-19 -8 -59 6q-8 3 -28 -4l-10 43q-1 0 -2 -1q-4 10 -6 29l1 -1l9 36q1 2 7 9.5t6 11.5v2l-12 25q-1 11 0 33l1 19l1 15q1 3 8 15q5 8 5 15q0 5 -6 15.5t-7 13.5l-7 37
q-4 21 -4 43q0 10 10 52q5 5 12 14q-4 0 -16 19l-10 36v7l9 28q0 13 1 36q2 13 9 21q4 3 7 6l-16 17q-6 6 -7 43q-2 68 39 68q11 0 25 -4q3 -8 10 -19z" />
    <glyph glyph-name="J" unicode="J" horiz-adv-x="532" 
d="M157 229l41 15q1 20 12 56q4 6 10 16q-14 21 -14 35q1 16 20 38l-14 44q-7 22 -7 37q0 4 11 33l3 5q1 3 1 5q2 3 -11 34q0 -10 5 10.5t5 24.5q0 -3 -1 -3q-2 0 -8 12q-10 19 -11 29v2l13 36q6 16 2 31q-3 11 0 13q5 2 40 2q6 -6 15 -13q12 -3 18 -3t23 11t21 13
q5 1 70 -12q6 -7 17 -15q48 21 64 19q22 -18 22 -41q0 -5 -2 -19l-4 -28l-11 -17v-3l15 -41v-2l10 -39l-8 -48l-17 -34q16 -15 16 -39q0 -15 -11 -65q6 -31 6 -43l-5 -9q-7 -12 -10 -26q-11 -47 -34 -66q2 -42 -11 -62q-29 -44 -40 -51q-4 -2 -30 -6q-3 -10 -10 -17
q-20 -34 -79 -49q-9 -2 -39 -21v0q2 -9 -7 -9q-22 0 -38 16q2 1 5 2q-8 -8 -32 -19q-12 -3 -22 -3q-37 0 -57 39q6 12 11 28q-8 1 -22 6q-31 29 -53 78q2 9 2 23q-5 -2 -29 13q-9 8 -12 23q-2 8 2.5 13.5t12.5 4.5q7 -1 18 -5q7 -6 25 -13l8 15l25 -6h29q17 -4 30 16l17 27z
" />
    <glyph glyph-name="J" unicode="j" horiz-adv-x="532" 
d="M157 229l41 15q1 20 12 56q4 6 10 16q-14 21 -14 35q1 16 20 38l-14 44q-7 22 -7 37q0 4 11 33l3 5q1 3 1 5q2 3 -11 34q0 -10 5 10.5t5 24.5q0 -3 -1 -3q-2 0 -8 12q-10 19 -11 29v2l13 36q6 16 2 31q-3 11 0 13q5 2 40 2q6 -6 15 -13q12 -3 18 -3t23 11t21 13
q5 1 70 -12q6 -7 17 -15q48 21 64 19q22 -18 22 -41q0 -5 -2 -19l-4 -28l-11 -17v-3l15 -41v-2l10 -39l-8 -48l-17 -34q16 -15 16 -39q0 -15 -11 -65q6 -31 6 -43l-5 -9q-7 -12 -10 -26q-11 -47 -34 -66q2 -42 -11 -62q-29 -44 -40 -51q-4 -2 -30 -6q-3 -10 -10 -17
q-20 -34 -79 -49q-9 -2 -39 -21v0q2 -9 -7 -9q-22 0 -38 16q2 1 5 2q-8 -8 -32 -19q-12 -3 -22 -3q-37 0 -57 39q6 12 11 28q-8 1 -22 6q-31 29 -53 78q2 9 2 23q-5 -2 -29 13q-9 8 -12 23q-2 8 2.5 13.5t12.5 4.5q7 -1 18 -5q7 -6 25 -13l8 15l25 -6h29q17 -4 30 16l17 27z
" />
    <glyph glyph-name="K" unicode="K" horiz-adv-x="700" 
d="M28 570q0 28 12 56q-8 27 -7 50l7 22q15 9 28 9q17 0 40 -14q9 5 23 13q11 7 26 1q9 -8 26 -17q6 -1 16 3l28 15h34q31 0 39 -4q13 -6 13 -27q0 -8 -2 -21q0 3 -10 -17q-8 -32 -8 -36t13 -31q5 -11 3 -30q0 -6 14 -3q9 2 19 20q7 12 48 31q7 31 19.5 45t42.5 28
q19 6 30 35q4 10 7 13q12 9 42 9q1 0 7.5 -11t8.5 -11l38 -14q24 -9 49 -53q-1 -11 -1 -28q13 -1 33 -13q4 -5 10 -14q3 -7 3 -15q0 -23 -19 -23q-5 0 -12 3q-13 -20 -30 -42l-33 -10l-2 -2l-5 -27q-23 -14 -58 -37q-17 -8 -17 -56q0 -7 7 -21l12 -24q8 2 16 2q21 0 57 -40
q24 -26 37 -26q3 0 6 1q11 5 24 3q19 -3 17 -24q-6 -7 -13 -23q-3 -9 -3 -17q0 -10 16 -52q5 -12 -11 -34q7 -13 7 -23t-15 -50q2 -3 9 -38q3 -13 -30 -14q-17 9 -39 20q-2 -1 -9 -4q-11 -7 -28 -10q-26 0 -46.5 14.5t-24.5 38.5q-45 3 -80 38q-1 11 -22 45q-7 -2 -29 9
q-9 8 -17 21l-14 23q-6 13 -23 17l4 -28l1 -10l8 -39q-9 -8 -18 -23t-9 -29q0 -4 1 -9q20 -13 20 -29q0 -20 -32 -28q-16 -4 -26 -4q-23 0 -43 17q-24 -19 -54 -19q-21 0 -46 9q-3 1 -16 7q-11 5 -45 -14q-2 -1 -3 -1q-7 0 -15 18v1l6 34q0 6 -3 20l-5 17q-2 13 3 35
q1 5 8.5 18t7.5 21v4l-17 29q-2 14 -2 34v9l12 39v5l-11 42q-1 4 3 23t4 23l-7 44q-2 5 -3 13q-6 38 10 77q1 2 1 6q0 8 -6.5 24.5t-6.5 34.5z" />
    <glyph glyph-name="K" unicode="k" horiz-adv-x="700" 
d="M28 570q0 28 12 56q-8 27 -7 50l7 22q15 9 28 9q17 0 40 -14q9 5 23 13q11 7 26 1q9 -8 26 -17q6 -1 16 3l28 15h34q31 0 39 -4q13 -6 13 -27q0 -8 -2 -21q0 3 -10 -17q-8 -32 -8 -36t13 -31q5 -11 3 -30q0 -6 14 -3q9 2 19 20q7 12 48 31q7 31 19.5 45t42.5 28
q19 6 30 35q4 10 7 13q12 9 42 9q1 0 7.5 -11t8.5 -11l38 -14q24 -9 49 -53q-1 -11 -1 -28q13 -1 33 -13q4 -5 10 -14q3 -7 3 -15q0 -23 -19 -23q-5 0 -12 3q-13 -20 -30 -42l-33 -10l-2 -2l-5 -27q-23 -14 -58 -37q-17 -8 -17 -56q0 -7 7 -21l12 -24q8 2 16 2q21 0 57 -40
q24 -26 37 -26q3 0 6 1q11 5 24 3q19 -3 17 -24q-6 -7 -13 -23q-3 -9 -3 -17q0 -10 16 -52q5 -12 -11 -34q7 -13 7 -23t-15 -50q2 -3 9 -38q3 -13 -30 -14q-17 9 -39 20q-2 -1 -9 -4q-11 -7 -28 -10q-26 0 -46.5 14.5t-24.5 38.5q-45 3 -80 38q-1 11 -22 45q-7 -2 -29 9
q-9 8 -17 21l-14 23q-6 13 -23 17l4 -28l1 -10l8 -39q-9 -8 -18 -23t-9 -29q0 -4 1 -9q20 -13 20 -29q0 -20 -32 -28q-16 -4 -26 -4q-23 0 -43 17q-24 -19 -54 -19q-21 0 -46 9q-3 1 -16 7q-11 5 -45 -14q-2 -1 -3 -1q-7 0 -15 18v1l6 34q0 6 -3 20l-5 17q-2 13 3 35
q1 5 8.5 18t7.5 21v4l-17 29q-2 14 -2 34v9l12 39v5l-11 42q-1 4 3 23t4 23l-7 44q-2 5 -3 13q-6 38 10 77q1 2 1 6q0 8 -6.5 24.5t-6.5 34.5z" />
    <glyph glyph-name="L" unicode="L" horiz-adv-x="516" 
d="M29 193l1 45l-8 37q-3 9 -3 17q0 12 6 28q10 28 11 31q1 4 -7 37v1l13 44v3l-10 42v14l-5 31q4 11 10 35q1 4 1 13q-2 8 -2 10q-8 54 -8 74q0 28 20 47q17 5 34 5q27 0 55 -12q26 17 54 17q19 0 41 -13q3 -2 31 9q5 2 12 2q26 0 26 -45v-4l-13 -35q0 -3 5.5 -18.5
t5.5 -21.5q4 -16 3 -40l-1 -4l-4 -31q-10 -38 -9 -45q16 -66 15 -85l-2 -43q-1 -15 -7 -27l-6 -11v-2l13 -29q5 -11 5 -24q0 -4 -1 -11t-1 -11q0 -10 12 -10q6 0 24 4l37 8l12 -1l26 -13l32 4q16 2 30 2q18 0 23 -20q2 -5 2 -11q0 -7 -4 -15q0 -1 -2 -14q-5 -31 -4 -53
q0 -11 5.5 -34t5.5 -35q0 -37 -42 -31q-12 7 -25 15q-5 0 -11 -7l-11 -11l-34 13l-47 -14q-10 9 -19 9q-10 0 -31 -8l-7 6q-7 6 -21 9h-1l-26 -15h-44l-20 11l-27 -12q-11 7 -23 7h-3l-24 -6q-8 -2 -15 -1q-33 1 -39 7q-11 10 -10 59q5 40 5 95v6q2 2 5 4q5 7 5 12
q0 7 -9 10z" />
    <glyph glyph-name="L" unicode="l" horiz-adv-x="516" 
d="M29 193l1 45l-8 37q-3 9 -3 17q0 12 6 28q10 28 11 31q1 4 -7 37v1l13 44v3l-10 42v14l-5 31q4 11 10 35q1 4 1 13q-2 8 -2 10q-8 54 -8 74q0 28 20 47q17 5 34 5q27 0 55 -12q26 17 54 17q19 0 41 -13q3 -2 31 9q5 2 12 2q26 0 26 -45v-4l-13 -35q0 -3 5.5 -18.5
t5.5 -21.5q4 -16 3 -40l-1 -4l-4 -31q-10 -38 -9 -45q16 -66 15 -85l-2 -43q-1 -15 -7 -27l-6 -11v-2l13 -29q5 -11 5 -24q0 -4 -1 -11t-1 -11q0 -10 12 -10q6 0 24 4l37 8l12 -1l26 -13l32 4q16 2 30 2q18 0 23 -20q2 -5 2 -11q0 -7 -4 -15q0 -1 -2 -14q-5 -31 -4 -53
q0 -11 5.5 -34t5.5 -35q0 -37 -42 -31q-12 7 -25 15q-5 0 -11 -7l-11 -11l-34 13l-47 -14q-10 9 -19 9q-10 0 -31 -8l-7 6q-7 6 -21 9h-1l-26 -15h-44l-20 11l-27 -12q-11 7 -23 7h-3l-24 -6q-8 -2 -15 -1q-33 1 -39 7q-11 10 -10 59q5 40 5 95v6q2 2 5 4q5 7 5 12
q0 7 -9 10z" />
    <glyph glyph-name="M" unicode="M" horiz-adv-x="863" 
d="M77 703q19 -4 41 -4q16 0 34 2l7 -4q6 -5 19 -7q2 0 16.5 5t18.5 6q13 2 36 -9q17 12 36 12q7 0 14 -2q28 -30 34 -66q19 -7 50 -44q2 -10 21 -32l25 -1q21 8 43 40q7 10 26 24q-2 3 5 31h1l22 21q12 18 19.5 23t27.5 5h3l29 -10q2 -1 16.5 4t17.5 5q32 3 69 -16l15 11
l21 13l25 -6l2 1q21 4 40 1q27 -4 27 -37q0 -13 -5 -26q-10 -8 -28 -24v0l18 -28q1 -5 3 -14q1 -18 -10 -54q-1 -3 13 -41q2 -3 2 -9t-4 -21t-4 -17l3 -36l2 -12q0 8 -15 -37q1 -9 10 -56q-11 -32 4 -70q1 -3 1 -7q0 -14 -22 -28l3 -15q4 -21 15 -39q2 -23 1 -34
q-5 -11 -12 -33q5 -3 13 -10q9 -19 9 -32q0 -17 -13 -20q-28 -6 -98 1q-12 -7 -32 -15l-25 12l-5 1l-27 2l-1 5l-30 -10h-7q-5 -1 -8 -1q-31 -3 -40.5 7t-9.5 42v7l-2 -2q-9 9 -9 25q0 5 3 6q-1 14 -1 25q0 15 14 77q-2 6 -2 7q-5 19 -5 29q0 9 10 23q1 6 -8 23q-7 13 -19 8
q-3 -1 -17 -10l-13 -8l-10 -17q1 2 -22 2q-6 0 -10 -2q3 -13 -6.5 -32t-22.5 -19q-14 0 -51 27q-5 4 -23 41q-11 0 -28 5q-14 11 -20 20q-6 3 -10 3q-13 0 -13 -35q0 -18 3 -44q1 -4 -4.5 -20.5t-5.5 -20.5q1 -4 9 -24q6 -16 6 -25v-4l-4 -47q3 -13 6 -40q-3 -31 -43 -31
q-23 0 -42 15q-27 -7 -65 -5q-3 0 -9 3.5t-8 3.5q-5 -5 -14 -11q-15 -3 -26 -3q-45 0 -47 51q7 19 15 44v8l-11 25v32q0 22 -4 43q0 8 14 36q-3 12 -11 38q-10 32 7 73v1l-7 25q-6 22 5 110q0 1 1 4v4q1 6 -11 40q-2 4 5 28l9 32q1 3 -3 12l-10 23q-4 10 0 38q6 39 33 39
q7 0 15 -3z" />
    <glyph glyph-name="M" unicode="m" horiz-adv-x="863" 
d="M77 703q19 -4 41 -4q16 0 34 2l7 -4q6 -5 19 -7q2 0 16.5 5t18.5 6q13 2 36 -9q17 12 36 12q7 0 14 -2q28 -30 34 -66q19 -7 50 -44q2 -10 21 -32l25 -1q21 8 43 40q7 10 26 24q-2 3 5 31h1l22 21q12 18 19.5 23t27.5 5h3l29 -10q2 -1 16.5 4t17.5 5q32 3 69 -16l15 11
l21 13l25 -6l2 1q21 4 40 1q27 -4 27 -37q0 -13 -5 -26q-10 -8 -28 -24v0l18 -28q1 -5 3 -14q1 -18 -10 -54q-1 -3 13 -41q2 -3 2 -9t-4 -21t-4 -17l3 -36l2 -12q0 8 -15 -37q1 -9 10 -56q-11 -32 4 -70q1 -3 1 -7q0 -14 -22 -28l3 -15q4 -21 15 -39q2 -23 1 -34
q-5 -11 -12 -33q5 -3 13 -10q9 -19 9 -32q0 -17 -13 -20q-28 -6 -98 1q-12 -7 -32 -15l-25 12l-5 1l-27 2l-1 5l-30 -10h-7q-5 -1 -8 -1q-31 -3 -40.5 7t-9.5 42v7l-2 -2q-9 9 -9 25q0 5 3 6q-1 14 -1 25q0 15 14 77q-2 6 -2 7q-5 19 -5 29q0 9 10 23q1 6 -8 23q-7 13 -19 8
q-3 -1 -17 -10l-13 -8l-10 -17q1 2 -22 2q-6 0 -10 -2q3 -13 -6.5 -32t-22.5 -19q-14 0 -51 27q-5 4 -23 41q-11 0 -28 5q-14 11 -20 20q-6 3 -10 3q-13 0 -13 -35q0 -18 3 -44q1 -4 -4.5 -20.5t-5.5 -20.5q1 -4 9 -24q6 -16 6 -25v-4l-4 -47q3 -13 6 -40q-3 -31 -43 -31
q-23 0 -42 15q-27 -7 -65 -5q-3 0 -9 3.5t-8 3.5q-5 -5 -14 -11q-15 -3 -26 -3q-45 0 -47 51q7 19 15 44v8l-11 25v32q0 22 -4 43q0 8 14 36q-3 12 -11 38q-10 32 7 73v1l-7 25q-6 22 5 110q0 1 1 4v4q1 6 -11 40q-2 4 5 28l9 32q1 3 -3 12l-10 23q-4 10 0 38q6 39 33 39
q7 0 15 -3z" />
    <glyph glyph-name="N" unicode="N" horiz-adv-x="700" 
d="M127 679l18 23q9 2 19 2q25 0 43 -14l23 4l24 5q9 -2 41 -36q9 -14 17 -45q6 -1 43 -24l11 -44h1l16 -11q9 -6 22 -21q7 -6 14 -9q9 -4 17 0t8 14q0 7 -8 20q-1 5 -1 14q0 16 4 43q6 7 14 21q-5 -1 -18 20q-4 6 -4 14q-3 50 47 50q23 0 62 -7q2 0 8.5 -5.5t8.5 -6.5
q9 0 31 11q35 6 45 9q7 2 12 -1q9 -4 9 -17v-23q1 -8 3 -17l11 -44q-14 -37 -5 -76q5 -21 1 -38q-3 -13 -20 -30l11 -12l15 -17q5 -6 5 -13q0 -5 -5.5 -17.5t-5.5 -19.5v-16l-1 -13l8 -20l-10 -13q-1 -1 -1 -9q0 -9 1 -24q-13 -44 -6 -75q9 -40 9 -43q0 -13 -8 -34
q-3 -7 7 -37q10 -33 5 -56q-10 -44 -45 -44q-15 0 -29 10q-4 2 -15 16l-32 -18q-12 -7 -22 -7q-22 0 -46 33q-18 27 -26 53q-1 2 -32 16q-24 19 -37 48q-1 10 -3 27q-14 4 -39 17q-16 13 -31 33l-10 4q-22 1 -22 -25q0 -9 1 -19q2 -20 0 -40q-6 -11 -17 -35q10 -10 21 -28
v-2l-3 -25q0 -5 3.5 -16t3.5 -16q3 -22 -45 -22h-27q-14 10 -25 10q-12 0 -35 -10h-30q-24 0 -47 -2q-24 -2 -35 18q-10 17 -9 42q0 9 8.5 20.5t9.5 15.5l-8 18l-2 14l-2 15v9q2 4 2 15t-2 29l-9 27l1 6q6 9 17 30q-14 12 -14 29q0 8 3 16q-4 12 -4 25q0 20 15 62
q-11 28 -22 61q1 8 9 18t9 14q-5 9 -9 24q-7 26 0 68q5 30 3 42t-14 36q-2 3 -2 8q0 18 17.5 31t36.5 13q16 0 30 -11z" />
    <glyph glyph-name="N" unicode="n" horiz-adv-x="700" 
d="M127 679l18 23q9 2 19 2q25 0 43 -14l23 4l24 5q9 -2 41 -36q9 -14 17 -45q6 -1 43 -24l11 -44h1l16 -11q9 -6 22 -21q7 -6 14 -9q9 -4 17 0t8 14q0 7 -8 20q-1 5 -1 14q0 16 4 43q6 7 14 21q-5 -1 -18 20q-4 6 -4 14q-3 50 47 50q23 0 62 -7q2 0 8.5 -5.5t8.5 -6.5
q9 0 31 11q35 6 45 9q7 2 12 -1q9 -4 9 -17v-23q1 -8 3 -17l11 -44q-14 -37 -5 -76q5 -21 1 -38q-3 -13 -20 -30l11 -12l15 -17q5 -6 5 -13q0 -5 -5.5 -17.5t-5.5 -19.5v-16l-1 -13l8 -20l-10 -13q-1 -1 -1 -9q0 -9 1 -24q-13 -44 -6 -75q9 -40 9 -43q0 -13 -8 -34
q-3 -7 7 -37q10 -33 5 -56q-10 -44 -45 -44q-15 0 -29 10q-4 2 -15 16l-32 -18q-12 -7 -22 -7q-22 0 -46 33q-18 27 -26 53q-1 2 -32 16q-24 19 -37 48q-1 10 -3 27q-14 4 -39 17q-16 13 -31 33l-10 4q-22 1 -22 -25q0 -9 1 -19q2 -20 0 -40q-6 -11 -17 -35q10 -10 21 -28
v-2l-3 -25q0 -5 3.5 -16t3.5 -16q3 -22 -45 -22h-27q-14 10 -25 10q-12 0 -35 -10h-30q-24 0 -47 -2q-24 -2 -35 18q-10 17 -9 42q0 9 8.5 20.5t9.5 15.5l-8 18l-2 14l-2 15v9q2 4 2 15t-2 29l-9 27l1 6q6 9 17 30q-14 12 -14 29q0 8 3 16q-4 12 -4 25q0 20 15 62
q-11 28 -22 61q1 8 9 18t9 14q-5 9 -9 24q-7 26 0 68q5 30 3 42t-14 36q-2 3 -2 8q0 18 17.5 31t36.5 13q16 0 30 -11z" />
    <glyph glyph-name="O" unicode="O" 
d="M29 370l2 15q-7 20 -5 38l1 3l24 67q2 7 22 29q4 4 17 35q8 19 31 33q6 7 36 22h1l28 28q27 27 59 34h35l29 21l15 2l30 3q38 4 58 3q55 -2 77 -7q35 -8 71 -29q8 -5 34 -10q3 -1 23 -26q3 -3 40 -18q17 -7 36 -31q10 -32 41 -53q24 -28 34 -76q2 -10 5 -35
q0 -3 -5 -10.5t-5 -9.5q1 -2 8 -8q9 -10 16 -28q2 -8 1 -43q-1 -52 -29 -82q4 -42 -30 -83q-24 -29 -52 -44q-6 -3 -21 -34q-1 -2 -24 -15q-11 -6 -21 -21l-42 -19q-31 -1 -65 -25q-6 -2 -37 -6l-39 -5l-35 1q-22 1 -33 11l-21 19q-3 0 -14.5 -7t-13.5 -7q-24 2 -58 11l-6 3
l-19 6q-19 6 -26 12q-2 2 -20 22q-6 3 -33 15q-12 5 -32 22q-36 30 -43 68q-4 12 -10 24l-2 4l-10 16q-14 22 -32 87v8l-1 15q-2 30 10 55zM308 363l-12 -33q1 -5 12 -18.5t9 -16.5l-12 -40l21 -52q8 -7 32 -9q23 -2 34 2l50 13q19 5 23 23l10 49q-4 11 -5 27q-2 7 7 15
t10 10q4 13 0 37q0 55 -4 68q-7 23 -34 30l-27 7q-6 1 -21 10.5t-16 9.5q-4 0 -8 -3q-25 -7 -51 -14q-27 -11 -25 -33l4 -37q1 -5 4 -21q3 -13 -1 -24z" />
    <glyph glyph-name="O" unicode="o" 
d="M29 370l2 15q-7 20 -5 38l1 3l24 67q2 7 22 29q4 4 17 35q8 19 31 33q6 7 36 22h1l28 28q27 27 59 34h35l29 21l15 2l30 3q38 4 58 3q55 -2 77 -7q35 -8 71 -29q8 -5 34 -10q3 -1 23 -26q3 -3 40 -18q17 -7 36 -31q10 -32 41 -53q24 -28 34 -76q2 -10 5 -35
q0 -3 -5 -10.5t-5 -9.5q1 -2 8 -8q9 -10 16 -28q2 -8 1 -43q-1 -52 -29 -82q4 -42 -30 -83q-24 -29 -52 -44q-6 -3 -21 -34q-1 -2 -24 -15q-11 -6 -21 -21l-42 -19q-31 -1 -65 -25q-6 -2 -37 -6l-39 -5l-35 1q-22 1 -33 11l-21 19q-3 0 -14.5 -7t-13.5 -7q-24 2 -58 11l-6 3
l-19 6q-19 6 -26 12q-2 2 -20 22q-6 3 -33 15q-12 5 -32 22q-36 30 -43 68q-4 12 -10 24l-2 4l-10 16q-14 22 -32 87v8l-1 15q-2 30 10 55zM308 363l-12 -33q1 -5 12 -18.5t9 -16.5l-12 -40l21 -52q8 -7 32 -9q23 -2 34 2l50 13q19 5 23 23l10 49q-4 11 -5 27q-2 7 7 15
t10 10q4 13 0 37q0 55 -4 68q-7 23 -34 30l-27 7q-6 1 -21 10.5t-16 9.5q-4 0 -8 -3q-25 -7 -51 -14q-27 -11 -25 -33l4 -37q1 -5 4 -21q3 -13 -1 -24z" />
    <glyph glyph-name="P" unicode="P" horiz-adv-x="668" 
d="M297 683q30 13 56 14q69 4 103 -23q11 3 19 3t13 -2h2l30 -21l34 -20q0 -9 9 -42q5 -9 22 -16q12 -5 35 -16q2 -8 4 -17q6 -18 18 -30l14 -14l-2 -34q-1 -18 0 -28q1 -6 2 -19q0 -16 -9 -28l-13 -18q-2 -3 2.5 -12t4.5 -11q-9 -38 -20.5 -55.5t-43.5 -45.5q-1 -8 -10 -27
q-4 2 -23 -1q-2 -2 -25 -30l-15 -18q-10 -10 -21 -11q7 0 -9 5.5t-22 6.5l-30 4q-46 -23 -82 -25q-8 0 -26 4q-7 0 -7 -39v-2l5 -35l11 -44q2 -6 -5 -15q-7 -12 -8 -15q-2 -13 -22 -13q-13 0 -28 7q-23 11 -27 15q-3 -2 -16 -11l-1 -1l-29 11l-9 -10q-10 -10 -20 -12
q7 0 -7 6.5t-20 8.5q-8 2 -26 -3q-11 -6 -34 -6q-44 -1 -44 39q0 15 11 44q-3 1 -14 24q-1 3 6 35q1 5 11 29q15 23 15 27l-9 5q-10 6 -17 22v1l2 41q2 33 0 39l-12 41v2l18 36q5 10 5 19q0 4 -10 41v1l-1 40l-1 9l-9 37q-2 8 -2 12q0 7 7.5 23t9 22.5t4.5 14.5q2 2 -11 30
q-5 11 2 35q1 5 7 14q13 20 37 20q18 0 54 -11q7 -4 17 -11q-15 0 37 20q11 1 40 1q43 -1 73 -17zM312 474q3 -37 -2 -52l-12 -37v-2q0 -33 16 -33q3 0 7 2l43 -1q22 28 20 39q-2 12 -2 24q16 28 14 36q-13 54 -56 64q-29 -22 -28 -40z" />
    <glyph glyph-name="P" unicode="p" horiz-adv-x="668" 
d="M297 683q30 13 56 14q69 4 103 -23q11 3 19 3t13 -2h2l30 -21l34 -20q0 -9 9 -42q5 -9 22 -16q12 -5 35 -16q2 -8 4 -17q6 -18 18 -30l14 -14l-2 -34q-1 -18 0 -28q1 -6 2 -19q0 -16 -9 -28l-13 -18q-2 -3 2.5 -12t4.5 -11q-9 -38 -20.5 -55.5t-43.5 -45.5q-1 -8 -10 -27
q-4 2 -23 -1q-2 -2 -25 -30l-15 -18q-10 -10 -21 -11q7 0 -9 5.5t-22 6.5l-30 4q-46 -23 -82 -25q-8 0 -26 4q-7 0 -7 -39v-2l5 -35l11 -44q2 -6 -5 -15q-7 -12 -8 -15q-2 -13 -22 -13q-13 0 -28 7q-23 11 -27 15q-3 -2 -16 -11l-1 -1l-29 11l-9 -10q-10 -10 -20 -12
q7 0 -7 6.5t-20 8.5q-8 2 -26 -3q-11 -6 -34 -6q-44 -1 -44 39q0 15 11 44q-3 1 -14 24q-1 3 6 35q1 5 11 29q15 23 15 27l-9 5q-10 6 -17 22v1l2 41q2 33 0 39l-12 41v2l18 36q5 10 5 19q0 4 -10 41v1l-1 40l-1 9l-9 37q-2 8 -2 12q0 7 7.5 23t9 22.5t4.5 14.5q2 2 -11 30
q-5 11 2 35q1 5 7 14q13 20 37 20q18 0 54 -11q7 -4 17 -11q-15 0 37 20q11 1 40 1q43 -1 73 -17zM312 474q3 -37 -2 -52l-12 -37v-2q0 -33 16 -33q3 0 7 2l43 -1q22 28 20 39q-2 12 -2 24q16 28 14 36q-13 54 -56 64q-29 -22 -28 -40z" />
    <glyph glyph-name="Q" unicode="Q" horiz-adv-x="798" 
d="M396 -15l-32 1q-36 1 -57 15q-31 0 -69 12l-5 3l-17 6q-15 5 -21 15q-15 25 -16 26q-4 -2 -35 8q-49 24 -60 93q-6 7 -16 21l-2 4l-9 16q-12 22 -29 87v8l-1 15q-2 28 9 55l9 17q-10 35 -11 36l1 3l21 67q10 11 22 25q13 59 41 72q3 1 23 11l11 4l25 35q18 25 53 34h31
l26 21l14 2l31 -3q12 -1 28.5 4t19.5 5q49 -2 70 -7q30 -7 63 -29q8 -5 31 -10q6 -3 11.5 -15t6.5 -13q9 -4 39 -16q15 -6 32 -31q-1 -20 11 -33q2 -1 26 -20q21 -28 31 -76q1 -10 4 -35q0 -4 -1.5 -10.5t-1.5 -10.5q0 -7 7.5 -18.5t8.5 -16.5q1 -14 1 -43q0 -59 -19 -82
q3 -24 -8 -41q-3 -4 -26 -32q-3 -4 -3 -7q0 -2 24 -13q29 -13 35 -13t14 11q11 16 28 16q28 0 26 -51q-1 -21 -11 -44q-1 -2 4 -14l5 -13q4 -10 -7 -29q-16 -3 -16 -16q0 -3 1 -4q23 -26 23 -33q0 -15 -12.5 -23.5t-28.5 -7.5l-22 1l-12 1q-35 3 -49 14q-28 -14 -50 -14
q-23 0 -47.5 15t-37.5 36q-31 5 -37 7q-24 8 -34 27q-1 2 -4 2q-6 0 -30 -14.5t-27 -12.5h-3zM271 367l-5 -37q1 -4 7.5 -19.5t6.5 -17.5l-5 -58l31 -41q15 -15 50 -15q6 0 9 1l32 12q18 7 21 27q7 46 8 50q5 5 17 22q6 8 5 23l-1 19l5 52q4 43 -10 54q-12 4 -38 24l-16 21
q-8 10 -17 10q-4 0 -30 -16l-10 -2q-29 -7 -33 -8q-26 -10 -23 -31l5 -38q0 3 -9 -32z" />
    <glyph glyph-name="Q" unicode="q" horiz-adv-x="798" 
d="M396 -15l-32 1q-36 1 -57 15q-31 0 -69 12l-5 3l-17 6q-15 5 -21 15q-15 25 -16 26q-4 -2 -35 8q-49 24 -60 93q-6 7 -16 21l-2 4l-9 16q-12 22 -29 87v8l-1 15q-2 28 9 55l9 17q-10 35 -11 36l1 3l21 67q10 11 22 25q13 59 41 72q3 1 23 11l11 4l25 35q18 25 53 34h31
l26 21l14 2l31 -3q12 -1 28.5 4t19.5 5q49 -2 70 -7q30 -7 63 -29q8 -5 31 -10q6 -3 11.5 -15t6.5 -13q9 -4 39 -16q15 -6 32 -31q-1 -20 11 -33q2 -1 26 -20q21 -28 31 -76q1 -10 4 -35q0 -4 -1.5 -10.5t-1.5 -10.5q0 -7 7.5 -18.5t8.5 -16.5q1 -14 1 -43q0 -59 -19 -82
q3 -24 -8 -41q-3 -4 -26 -32q-3 -4 -3 -7q0 -2 24 -13q29 -13 35 -13t14 11q11 16 28 16q28 0 26 -51q-1 -21 -11 -44q-1 -2 4 -14l5 -13q4 -10 -7 -29q-16 -3 -16 -16q0 -3 1 -4q23 -26 23 -33q0 -15 -12.5 -23.5t-28.5 -7.5l-22 1l-12 1q-35 3 -49 14q-28 -14 -50 -14
q-23 0 -47.5 15t-37.5 36q-31 5 -37 7q-24 8 -34 27q-1 2 -4 2q-6 0 -30 -14.5t-27 -12.5h-3zM271 367l-5 -37q1 -4 7.5 -19.5t6.5 -17.5l-5 -58l31 -41q15 -15 50 -15q6 0 9 1l32 12q18 7 21 27q7 46 8 50q5 5 17 22q6 8 5 23l-1 19l5 52q4 43 -10 54q-12 4 -38 24l-16 21
q-8 10 -17 10q-4 0 -30 -16l-10 -2q-29 -7 -33 -8q-26 -10 -23 -31l5 -38q0 3 -9 -32z" />
    <glyph glyph-name="R" unicode="R" horiz-adv-x="705" 
d="M87 682q27 17 43 17h3l43 -1q41 -1 46 -2t19 -6q10 -5 12 -5q15 0 28 21l1 -11q18 12 39 12q19 0 37 -11q4 2 16 5q38 9 68 5q58 -8 82 -39q1 -1 22 7q16 4 47 -41q5 -8 7 -12q30 -13 49 -51q12 -24 12 -35t-5 -20q-1 -2 -5 -9q-3 -1 23 -17q9 -6 2 -85q-1 -8 -21 -35
q-1 -2 -3 -28q-3 -37 -36 -65q-10 -9 -17 -12q-5 1 -11 1q-23 0 -39 -23q-7 -10 29 -28q27 -13 35 -13q6 0 14 11q11 16 28 16q28 0 26 -51q-1 -21 -11 -44q-1 -2 4 -14l5 -13q4 -10 -7 -29q-16 -3 -16 -16q0 -3 1 -4q23 -26 23 -33q0 -15 -12.5 -23.5t-28.5 -7.5l-22 1
l-12 1q-35 3 -49 14q-28 -14 -50 -14q-23 0 -47.5 15t-37.5 36q-28 4 -50 31q-27 32 -38 32q-14 0 -24 -30q-4 -12 -4 -18l1 -2l6 -14q2 -4 2 -10q1 -43 -30 -43q-23 0 -45 16q-20 -12 -43 -12q-18 0 -35 7q-4 3 -13 8q-24 -23 -56 -20q-35 3 -47.5 17t-9.5 49l3 40
q1 17 8 38q3 22 -5 38q-1 6 -6 12l-2 9q0 22 9 41q1 3 6 11v1l-12 29q-10 24 -2 89q5 40 20 59l-19 26q-2 43 1 102q16 5 16 21q0 2 -1 4q-22 24 -24 30q-5 11 1 41q9 43 37 43q12 0 22 -9zM319 370q6 -19 6 -33q0 -16 -15 -43l36 -24l17 3q7 18 14 24q16 13 20 17q1 8 8 43
q3 15 15 37q-19 38 -19 33q8 30 8 38q0 9 -24 48l-11 18q-12 1 -20 0q-43 -6 -53 -43q1 -1 14 -22q8 -13 8 -24q0 -10 -6 -21l-15 -27l-1 -9q8 -5 18 -15z" />
    <glyph glyph-name="R" unicode="r" horiz-adv-x="705" 
d="M87 682q27 17 43 17h3l43 -1q41 -1 46 -2t19 -6q10 -5 12 -5q15 0 28 21l1 -11q18 12 39 12q19 0 37 -11q4 2 16 5q38 9 68 5q58 -8 82 -39q1 -1 22 7q16 4 47 -41q5 -8 7 -12q30 -13 49 -51q12 -24 12 -35t-5 -20q-1 -2 -5 -9q-3 -1 23 -17q9 -6 2 -85q-1 -8 -21 -35
q-1 -2 -3 -28q-3 -37 -36 -65q-10 -9 -17 -12q-5 1 -11 1q-23 0 -39 -23q-7 -10 29 -28q27 -13 35 -13q6 0 14 11q11 16 28 16q28 0 26 -51q-1 -21 -11 -44q-1 -2 4 -14l5 -13q4 -10 -7 -29q-16 -3 -16 -16q0 -3 1 -4q23 -26 23 -33q0 -15 -12.5 -23.5t-28.5 -7.5l-22 1
l-12 1q-35 3 -49 14q-28 -14 -50 -14q-23 0 -47.5 15t-37.5 36q-28 4 -50 31q-27 32 -38 32q-14 0 -24 -30q-4 -12 -4 -18l1 -2l6 -14q2 -4 2 -10q1 -43 -30 -43q-23 0 -45 16q-20 -12 -43 -12q-18 0 -35 7q-4 3 -13 8q-24 -23 -56 -20q-35 3 -47.5 17t-9.5 49l3 40
q1 17 8 38q3 22 -5 38q-1 6 -6 12l-2 9q0 22 9 41q1 3 6 11v1l-12 29q-10 24 -2 89q5 40 20 59l-19 26q-2 43 1 102q16 5 16 21q0 2 -1 4q-22 24 -24 30q-5 11 1 41q9 43 37 43q12 0 22 -9zM319 370q6 -19 6 -33q0 -16 -15 -43l36 -24l17 3q7 18 14 24q16 13 20 17q1 8 8 43
q3 15 15 37q-19 38 -19 33q8 30 8 38q0 9 -24 48l-11 18q-12 1 -20 0q-43 -6 -53 -43q1 -1 14 -22q8 -13 8 -24q0 -10 -6 -21l-15 -27l-1 -9q8 -5 18 -15z" />
    <glyph glyph-name="S" unicode="S" horiz-adv-x="595" 
d="M11 198q17 13 44 13q23 0 53 -17q1 -1 20 4l18 5h2l31 -14q4 -2 16 4.5t16 6.5q8 2 22 -10q7 0 21 -1q15 -1 25 5q6 12 16 27q3 4 3 11q0 14 -17 27l-40 13q-6 10 -24 29q-35 4 -72 39q-2 2 -15 16q-54 7 -78 58q1 8 1 22l-3 14l-11 18q-2 7 -2 15q0 24 18 50l2 39
q14 64 62 105q33 28 55 28q9 0 27 -3t27 -3q1 0 15 7.5t17 8.5q40 38 101 32q12 -1 39 -6q-5 5 20 19q6 -2 34 -2q14 2 25 2q43 0 51 -46q3 -6 12 -22l1 -2l1 -42q10 -10 24 -29q5 -11 5 -28q0 -10 -3 -16q-8 -22 -29 -22q-11 0 -25.5 11t-23.5 11q-11 0 -33 -8l-39 10
l-15 -8l-26 -10q-34 17 -37 18q-10 0 -21.5 -13t-11.5 -23q0 -11 10 -26.5t20 -20.5l22 -3q49 -7 72 -43q28 4 46 -10q27 -21 42 -34q22 -23 22 -47q0 2 -1 -18q0 -4 25 -27q7 -7 7 -60q0 -47 -30 -77q1 -12 1 -22q0 -52 -33 -54l-17 -1l-16 -25l-31 -24q-23 -18 -40 -18
q-11 0 -23 6q-27 -5 -51 -25l-35 -4l-36 10l-29 -20q-3 -2 -29 1l-21 5q-9 3 -25 5q-54 -11 -63 -11q-12 0 -19 8l-1 2l-16 27q-4 7 -17 29v32v5q-8 2 -26 12q-13 10 -9 70q0 6 3 15z" />
    <glyph glyph-name="S" unicode="s" horiz-adv-x="595" 
d="M11 198q17 13 44 13q23 0 53 -17q1 -1 20 4l18 5h2l31 -14q4 -2 16 4.5t16 6.5q8 2 22 -10q7 0 21 -1q15 -1 25 5q6 12 16 27q3 4 3 11q0 14 -17 27l-40 13q-6 10 -24 29q-35 4 -72 39q-2 2 -15 16q-54 7 -78 58q1 8 1 22l-3 14l-11 18q-2 7 -2 15q0 24 18 50l2 39
q14 64 62 105q33 28 55 28q9 0 27 -3t27 -3q1 0 15 7.5t17 8.5q40 38 101 32q12 -1 39 -6q-5 5 20 19q6 -2 34 -2q14 2 25 2q43 0 51 -46q3 -6 12 -22l1 -2l1 -42q10 -10 24 -29q5 -11 5 -28q0 -10 -3 -16q-8 -22 -29 -22q-11 0 -25.5 11t-23.5 11q-11 0 -33 -8l-39 10
l-15 -8l-26 -10q-34 17 -37 18q-10 0 -21.5 -13t-11.5 -23q0 -11 10 -26.5t20 -20.5l22 -3q49 -7 72 -43q28 4 46 -10q27 -21 42 -34q22 -23 22 -47q0 2 -1 -18q0 -4 25 -27q7 -7 7 -60q0 -47 -30 -77q1 -12 1 -22q0 -52 -33 -54l-17 -1l-16 -25l-31 -24q-23 -18 -40 -18
q-11 0 -23 6q-27 -5 -51 -25l-35 -4l-36 10l-29 -20q-3 -2 -29 1l-21 5q-9 3 -25 5q-54 -11 -63 -11q-12 0 -19 8l-1 2l-16 27q-4 7 -17 29v32v5q-8 2 -26 12q-13 10 -9 70q0 6 3 15z" />
    <glyph glyph-name="T" unicode="T" horiz-adv-x="508" 
d="M332 696l37 -17q10 9 29 27q10 -2 17 -2q23 -3 53 6q5 1 8 1q9 0 13 -12l11 -34l13 -29q4 -9 4 -20q0 -15 -25 -59q15 -8 15 -27q0 -16 -18 -22q-23 -7 -63 4q-7 2 -15 0q-22 -6 -35 -65q-1 -3 -1 -10q1 -3 4 -13q7 -26 7 -47q0 -24 -14 -45q12 -22 14 -52q-2 -5 -3 -10
q-7 -26 -7 -38q1 -9 8 -36v-1l13 -31l-10 -37v-3q-2 -21 -8 -39l6 -12q9 -25 9 -40q0 -16 -10 -29q-11 -5 -20 -5q-13 0 -36 13q-16 9 -40 -10q-9 -1 -29 -1q-6 0 -15.5 6t-13.5 7l-8 -1l-37 -13q-20 -7 -33 -7q-32 0 -31 69l1 47q0 14 8 45q0 4 -8 24q-2 4 -2 12
q0 21 12 68q4 10 5 16q-24 55 -24 83q0 18 5 41q5 7 12 21q1 2 0 7q0 49 -10 62q-3 5 -35 11l-32 6q-10 0 -27 -3q-29 -5 -29 35q0 15 3 36q5 6 11 32q1 9 -4 20.5t-5 13.5v10l-2 15q-3 24 9 32q7 5 35 8q4 1 9 1q36 0 58 -12l10 -8l5 7q5 7 18 14q6 4 24 0l5 -1l28 7
q2 1 16 -11t22 -12q7 0 14 5q3 -1 8.5 4.5t7.5 5.5q37 4 63 -8z" />
    <glyph glyph-name="T" unicode="t" horiz-adv-x="508" 
d="M332 696l37 -17q10 9 29 27q10 -2 17 -2q23 -3 53 6q5 1 8 1q9 0 13 -12l11 -34l13 -29q4 -9 4 -20q0 -15 -25 -59q15 -8 15 -27q0 -16 -18 -22q-23 -7 -63 4q-7 2 -15 0q-22 -6 -35 -65q-1 -3 -1 -10q1 -3 4 -13q7 -26 7 -47q0 -24 -14 -45q12 -22 14 -52q-2 -5 -3 -10
q-7 -26 -7 -38q1 -9 8 -36v-1l13 -31l-10 -37v-3q-2 -21 -8 -39l6 -12q9 -25 9 -40q0 -16 -10 -29q-11 -5 -20 -5q-13 0 -36 13q-16 9 -40 -10q-9 -1 -29 -1q-6 0 -15.5 6t-13.5 7l-8 -1l-37 -13q-20 -7 -33 -7q-32 0 -31 69l1 47q0 14 8 45q0 4 -8 24q-2 4 -2 12
q0 21 12 68q4 10 5 16q-24 55 -24 83q0 18 5 41q5 7 12 21q1 2 0 7q0 49 -10 62q-3 5 -35 11l-32 6q-10 0 -27 -3q-29 -5 -29 35q0 15 3 36q5 6 11 32q1 9 -4 20.5t-5 13.5v10l-2 15q-3 24 9 32q7 5 35 8q4 1 9 1q36 0 58 -12l10 -8l5 7q5 7 18 14q6 4 24 0l5 -1l28 7
q2 1 16 -11t22 -12q7 0 14 5q3 -1 8.5 4.5t7.5 5.5q37 4 63 -8z" />
    <glyph glyph-name="U" unicode="U" horiz-adv-x="694" 
d="M35 695q4 8 11 10t12 -3l9 -9q2 -2 4 -2q4 0 11 5q11 -6 18 -6q10 0 47 17q17 8 49 -10l13 -14h4l23 14q16 10 29 10q28 0 24 -64l-3 -46q-5 -15 -11 -24q-2 -2 19 -44q1 -3 -2 -49q6 -4 6 -15t-5 -22q-2 -2 -4 -3q0 -4 6 -12.5t6 -12.5l-1 -7l-11 -18q-4 -7 -3 -17
q3 -15 3 -13q2 -9 -14 -25q17 -22 16 -65q-1 -4 6 -24q5 -2 19 -14q2 -10 9 -24q8 -7 19 -7q41 0 42 75q0 9 -8 26t-9 24l11 99l9 31q1 3 1 10q0 2 -11.5 23t-9.5 42q5 8 18 50q1 5 3 13q-2 5 -8 43q-3 17 -1 30q4 36 48 36q31 0 46 -15l44 17l15 -2l9 -1l19 -1h5q7 0 25 -7
q1 -1 21 12q4 2 7 2q26 -1 33 -13q4 -7 5 -37l1 -37q-1 -15 -8 -35q-5 -14 -4 -16q0 -3 10 -26v-1l-7 -44q-1 -8 12 -48q0 -1 -8 -29q-1 -4 3 -27l8 -44q3 -17 3 -31q0 -30 -30 -57q2 -11 16 -21q2 -1 3 -39q0 -26 3 -40q2 -7 -3 -25q-1 -4 9 -21l3 -5q18 -4 18 -14
q0 -6 -4 -9q19 -31 19 -55q0 -33 -40 -33h-2l-30 -11q-7 3 -15 7q-14 5 -30 4q-3 0 -21.5 7.5t-23.5 8.5q-6 -1 -19 -9.5t-22 -8.5q-28 0 -37 3.5t-26 22.5q-6 6 -27 7q-14 0 -27 -4l-3 -1l-17 -20q-9 1 -31 -2q-23 -6 -46 -6q-13 0 -27 2q-29 11 -63 11l-25 18q-2 1 -28 9
q-7 -3 -26 4q-4 9 -12 26v1l-29 23l4 20l-11 32q-1 3 -16 14t-18.5 20.5t-2.5 27.5q2 34 2 29v8q3 7 3 16q0 8 -4 24.5t-4 24.5q0 6 1 11q5 2 13 37v3l-13 34q0 20 1 43q5 11 5 26v2l-14 28q-2 4 -2 10q0 7 8 29l9 27q2 11 4 18q4 0 4 4q0 8 -14 30q-4 16 -2 42q1 22 7 42z
" />
    <glyph glyph-name="U" unicode="u" horiz-adv-x="694" 
d="M35 695q4 8 11 10t12 -3l9 -9q2 -2 4 -2q4 0 11 5q11 -6 18 -6q10 0 47 17q17 8 49 -10l13 -14h4l23 14q16 10 29 10q28 0 24 -64l-3 -46q-5 -15 -11 -24q-2 -2 19 -44q1 -3 -2 -49q6 -4 6 -15t-5 -22q-2 -2 -4 -3q0 -4 6 -12.5t6 -12.5l-1 -7l-11 -18q-4 -7 -3 -17
q3 -15 3 -13q2 -9 -14 -25q17 -22 16 -65q-1 -4 6 -24q5 -2 19 -14q2 -10 9 -24q8 -7 19 -7q41 0 42 75q0 9 -8 26t-9 24l11 99l9 31q1 3 1 10q0 2 -11.5 23t-9.5 42q5 8 18 50q1 5 3 13q-2 5 -8 43q-3 17 -1 30q4 36 48 36q31 0 46 -15l44 17l15 -2l9 -1l19 -1h5q7 0 25 -7
q1 -1 21 12q4 2 7 2q26 -1 33 -13q4 -7 5 -37l1 -37q-1 -15 -8 -35q-5 -14 -4 -16q0 -3 10 -26v-1l-7 -44q-1 -8 12 -48q0 -1 -8 -29q-1 -4 3 -27l8 -44q3 -17 3 -31q0 -30 -30 -57q2 -11 16 -21q2 -1 3 -39q0 -26 3 -40q2 -7 -3 -25q-1 -4 9 -21l3 -5q18 -4 18 -14
q0 -6 -4 -9q19 -31 19 -55q0 -33 -40 -33h-2l-30 -11q-7 3 -15 7q-14 5 -30 4q-3 0 -21.5 7.5t-23.5 8.5q-6 -1 -19 -9.5t-22 -8.5q-28 0 -37 3.5t-26 22.5q-6 6 -27 7q-14 0 -27 -4l-3 -1l-17 -20q-9 1 -31 -2q-23 -6 -46 -6q-13 0 -27 2q-29 11 -63 11l-25 18q-2 1 -28 9
q-7 -3 -26 4q-4 9 -12 26v1l-29 23l4 20l-11 32q-1 3 -16 14t-18.5 20.5t-2.5 27.5q2 34 2 29v8q3 7 3 16q0 8 -4 24.5t-4 24.5q0 6 1 11q5 2 13 37v3l-13 34q0 20 1 43q5 11 5 26v2l-14 28q-2 4 -2 10q0 7 8 29l9 27q2 11 4 18q4 0 4 4q0 8 -14 30q-4 16 -2 42q1 22 7 42z
" />
    <glyph glyph-name="V" unicode="V" horiz-adv-x="744" 
d="M-14 664l8 39q9 2 19 2q28 0 59 -14q2 -2 40 9q11 3 26 3q28 0 63 -16q5 -2 37 17q13 8 41 -6.5t37 -28.5q13 -20 19 -66l27 -33q6 -7 16.5 -33.5t17.5 -31.5q4 -3 8 -3q19 0 37 71q6 24 32 42q-2 28 6 43q22 40 25 42l1 1l20 15l20 -7l6 1l8 -6q8 -6 21 -10q-7 0 5 5
t18 7l2 1l29 -10l10 5.5t15 6.5q13 -9 24 -9q8 0 22 5.5t20 5.5q25 0 32 -26q4 -16 -10 -55l-12 -33q-7 -5 -26 -25l2 -17l-7 -28l-12 -30q-6 -15 -11 -42q-18 -7 -21 -22v-36l-22 -42q-5 -10 -8 -36q-2 -16 -28 -41q1 -40 -29 -99q-8 -16 -8 -22q0 -8 19 -36q7 -10 7 -34
q-12 -16 -20 -23q-12 -11 -25 -13q-4 0 -13 3.5t-13 3.5q-24 -34 -92 -71l-15 -6q-1 -2 -11 -9q-13 -7 -24 -7q-22 0 -38 38q-3 16 -22 54q-8 4 -21 15q-3 4 0 14q4 14 4 29q-9 4 -23 14q-35 48 -48 89q-12 9 -36 34q-2 13 -17 51q-5 40 -41 76l-1 1l-31 34q-6 6 -7.5 26
t-4.5 25q-7 9 -12 45h-5q-8 0 -23 11l-8 9l-8 48q-4 22 -37 68q-1 2 -13 18z" />
    <glyph glyph-name="V" unicode="v" horiz-adv-x="744" 
d="M-14 664l8 39q9 2 19 2q28 0 59 -14q2 -2 40 9q11 3 26 3q28 0 63 -16q5 -2 37 17q13 8 41 -6.5t37 -28.5q13 -20 19 -66l27 -33q6 -7 16.5 -33.5t17.5 -31.5q4 -3 8 -3q19 0 37 71q6 24 32 42q-2 28 6 43q22 40 25 42l1 1l20 15l20 -7l6 1l8 -6q8 -6 21 -10q-7 0 5 5
t18 7l2 1l29 -10l10 5.5t15 6.5q13 -9 24 -9q8 0 22 5.5t20 5.5q25 0 32 -26q4 -16 -10 -55l-12 -33q-7 -5 -26 -25l2 -17l-7 -28l-12 -30q-6 -15 -11 -42q-18 -7 -21 -22v-36l-22 -42q-5 -10 -8 -36q-2 -16 -28 -41q1 -40 -29 -99q-8 -16 -8 -22q0 -8 19 -36q7 -10 7 -34
q-12 -16 -20 -23q-12 -11 -25 -13q-4 0 -13 3.5t-13 3.5q-24 -34 -92 -71l-15 -6q-1 -2 -11 -9q-13 -7 -24 -7q-22 0 -38 38q-3 16 -22 54q-8 4 -21 15q-3 4 0 14q4 14 4 29q-9 4 -23 14q-35 48 -48 89q-12 9 -36 34q-2 13 -17 51q-5 40 -41 76l-1 1l-31 34q-6 6 -7.5 26
t-4.5 25q-7 9 -12 45h-5q-8 0 -23 11l-8 9l-8 48q-4 22 -37 68q-1 2 -13 18z" />
    <glyph glyph-name="W" unicode="W" horiz-adv-x="1266" 
d="M100 681q2 21 28 21q11 0 28 -5q5 -2 12 -5l10 2q41 8 74 -6q7 -3 32 11q11 6 44 -52q4 -7 4 -12q7 -18 9 -25q5 0 28 -16q7 -6 14 -55q4 -27 6.5 -32t23.5 -20q3 -13 8 -31q3 -8 13 -8q6 0 14 3l14 20q19 17 19 35v3q0 14 6 26q7 4 17 11q4 9 3 35q-18 34 -19 66
q-24 3 -27 32q-2 16 7 18q11 -4 32 -4l24 10h5q17 0 44 -5q8 2 17 2q15 1 50 -17l34 11q15 5 36 4q5 0 42 14l20 -30q4 -5 17 -20q4 -4 2 -14q-3 -17 -3 -24q42 -36 48 -80q3 -21 28 -22q16 -1 39 27q7 9 7 11l-1 18l7 10l5 12l19 13q4 9 20 33q3 10 12 45q1 5 34 12
q15 3 62 -20q1 0 11 9.5t12 10.5l19 1q-1 3 -1 6q0 9 16 7q8 0 16 -13l26 -11q2 -1 16 6.5t18 8.5q12 2 14 2q57 -3 49 -35q-5 -21 -24 -46q-9 -4 -24 -12q7 -12 6 -30q-7 -6 -23 -29q-8 -12 -23 -68q-1 -3 -16 -18q-11 -11 -11 -19q0 -2 1 -9v-15q0 -14 -2 -32l-14 -5
l-28 -53q-5 -18 -19 -63q-15 -9 -37 -24l-15 -40l-22 -38q-6 -10 -6 -21q0 -6 18 -49q4 -9 2 -17q-1 -27 -26 -27q-5 0 -10 2q-6 -7 -32.5 -20t-37.5 -27l-19 -23l-21 6q-11 3 -16 3q-16 0 -32 -15l-16 -15q-16 0 -27 29q-4 12 -16 43q-1 14 -7 38l-2 4l-25 27q-10 7 -28 31
q0 15 -5 43q-12 5 -29 20q-3 14 -9 36q-17 31 -24 31q-4 0 -9 -5q-17 -11 -21 -15q-8 -8 -15 -21q0 -10 -3 -27q-2 -5 -28 -21q-2 -1 -7 -24l-14 -21q-2 -3 -2 -10q0 -12 6 -35q2 -9 7 -21l-33 -8l-37 -11l-35 -32l-3 -2h-1l-37 2l-12 -11l-11 -3l-11 -26q-6 -14 -19 -20
q-22 -10 -34 9l-1 2q-4 7 -12 20l-1 2l-1 46q-1 9 -15.5 26t-16.5 23l-14 26q-3 9 -5 33l-12 4q-13 6 -21 29l1 4q4 16 -10 46q-17 10 -19 12q-6 5 -14 19q-22 39 -25 79q-18 9 -44 32q-5 7 -6.5 27.5t-5.5 38.5q-3 5 -17 28q-6 9 -31 29q-19 15 -20 29l-3 48q-1 24 -40 68
q-9 14 -9 32q0 23 25 23q9 0 21 -2h2l42 -3z" />
    <glyph glyph-name="W" unicode="w" horiz-adv-x="1266" 
d="M100 681q2 21 28 21q11 0 28 -5q5 -2 12 -5l10 2q41 8 74 -6q7 -3 32 11q11 6 44 -52q4 -7 4 -12q7 -18 9 -25q5 0 28 -16q7 -6 14 -55q4 -27 6.5 -32t23.5 -20q3 -13 8 -31q3 -8 13 -8q6 0 14 3l14 20q19 17 19 35v3q0 14 6 26q7 4 17 11q4 9 3 35q-18 34 -19 66
q-24 3 -27 32q-2 16 7 18q11 -4 32 -4l24 10h5q17 0 44 -5q8 2 17 2q15 1 50 -17l34 11q15 5 36 4q5 0 42 14l20 -30q4 -5 17 -20q4 -4 2 -14q-3 -17 -3 -24q42 -36 48 -80q3 -21 28 -22q16 -1 39 27q7 9 7 11l-1 18l7 10l5 12l19 13q4 9 20 33q3 10 12 45q1 5 34 12
q15 3 62 -20q1 0 11 9.5t12 10.5l19 1q-1 3 -1 6q0 9 16 7q8 0 16 -13l26 -11q2 -1 16 6.5t18 8.5q12 2 14 2q57 -3 49 -35q-5 -21 -24 -46q-9 -4 -24 -12q7 -12 6 -30q-7 -6 -23 -29q-8 -12 -23 -68q-1 -3 -16 -18q-11 -11 -11 -19q0 -2 1 -9v-15q0 -14 -2 -32l-14 -5
l-28 -53q-5 -18 -19 -63q-15 -9 -37 -24l-15 -40l-22 -38q-6 -10 -6 -21q0 -6 18 -49q4 -9 2 -17q-1 -27 -26 -27q-5 0 -10 2q-6 -7 -32.5 -20t-37.5 -27l-19 -23l-21 6q-11 3 -16 3q-16 0 -32 -15l-16 -15q-16 0 -27 29q-4 12 -16 43q-1 14 -7 38l-2 4l-25 27q-10 7 -28 31
q0 15 -5 43q-12 5 -29 20q-3 14 -9 36q-17 31 -24 31q-4 0 -9 -5q-17 -11 -21 -15q-8 -8 -15 -21q0 -10 -3 -27q-2 -5 -28 -21q-2 -1 -7 -24l-14 -21q-2 -3 -2 -10q0 -12 6 -35q2 -9 7 -21l-33 -8l-37 -11l-35 -32l-3 -2h-1l-37 2l-12 -11l-11 -3l-11 -26q-6 -14 -19 -20
q-22 -10 -34 9l-1 2q-4 7 -12 20l-1 2l-1 46q-1 9 -15.5 26t-16.5 23l-14 26q-3 9 -5 33l-12 4q-13 6 -21 29l1 4q4 16 -10 46q-17 10 -19 12q-6 5 -14 19q-22 39 -25 79q-18 9 -44 32q-5 7 -6.5 27.5t-5.5 38.5q-3 5 -17 28q-6 9 -31 29q-19 15 -20 29l-3 48q-1 24 -40 68
q-9 14 -9 32q0 23 25 23q9 0 21 -2h2l42 -3z" />
    <glyph glyph-name="X" unicode="X" horiz-adv-x="815" 
d="M232 657q8 3 17 3q17 0 42 -17q6 -5 15 -14l17 -24q12 2 30 1l22 -21h2q3 -1 5 -1q8 0 17 9l1 1l9 21v1l15 20l2 4l20 8l-2 23l5 9q12 28 42 28q19 0 48 -11q4 -1 46 10q4 1 12 -4l2 -1q14 -9 20 -11q19 3 30 3q12 0 25 -10q11 7 37 7q5 1 23 0q12 -5 12 -22
q0 -12 -6 -24l-5 -10l-22 -20l-8 -38l-6 -11l-24 -14l-2 -31q-3 -44 -23 -75q-13 -10 -39 -37q-11 -14 -23 -43q3 -21 44 -52q16 -16 37 -82q40 -32 58 -84q0 -11 2 -30q25 -12 36 -19q22 -13 30 -25q32 -18 32 -54q0 -7 -2 -15q-15 2 -30 2q-26 0 -50 -6q-45 8 -84 5
q-9 -1 -24.5 3.5t-22.5 4.5h-7l-46 -7q-35 -5 -51 5l-37 23q1 14 -11 44q-1 1 -5 8q-26 44 -44 44q-9 0 -21 -12l-1 -1l-16 -31q-10 -3 -33 -25q-4 -5 -3 -19q2 -16 0 -20q-4 -10 -19 -18q-3 -2 -13 -5q-15 -3 -47 12q6 -6 -33 -13q-14 5 -37 12q-8 0 -38 -7q-15 7 -41 13
q5 -1 -53 -13q-14 -3 -26 7q-12 7 -12 16q0 5 3 9.5t34 44.5q1 12 6 28h8q7 1 14 15q13 5 33 14l3 26l6 12l10 17l5 11l3 5l11 21q9 24 11 27q5 11 30 30q6 4 9 13q21 32 21 65q0 22 -16 40q-39 2 -72 35q-4 10 -12 26l-46 -12q-12 -7 -44 -15q-16 -1 -28 7q-15 8 -11 24
q5 21 32 57q-2 7 7 54q5 16 16 27l32 26q10 4 24 19q-3 8 -3 29q5 24 37 24q20 0 54 -11q10 -3 35 -38z" />
    <glyph glyph-name="X" unicode="x" horiz-adv-x="815" 
d="M232 657q8 3 17 3q17 0 42 -17q6 -5 15 -14l17 -24q12 2 30 1l22 -21h2q3 -1 5 -1q8 0 17 9l1 1l9 21v1l15 20l2 4l20 8l-2 23l5 9q12 28 42 28q19 0 48 -11q4 -1 46 10q4 1 12 -4l2 -1q14 -9 20 -11q19 3 30 3q12 0 25 -10q11 7 37 7q5 1 23 0q12 -5 12 -22
q0 -12 -6 -24l-5 -10l-22 -20l-8 -38l-6 -11l-24 -14l-2 -31q-3 -44 -23 -75q-13 -10 -39 -37q-11 -14 -23 -43q3 -21 44 -52q16 -16 37 -82q40 -32 58 -84q0 -11 2 -30q25 -12 36 -19q22 -13 30 -25q32 -18 32 -54q0 -7 -2 -15q-15 2 -30 2q-26 0 -50 -6q-45 8 -84 5
q-9 -1 -24.5 3.5t-22.5 4.5h-7l-46 -7q-35 -5 -51 5l-37 23q1 14 -11 44q-1 1 -5 8q-26 44 -44 44q-9 0 -21 -12l-1 -1l-16 -31q-10 -3 -33 -25q-4 -5 -3 -19q2 -16 0 -20q-4 -10 -19 -18q-3 -2 -13 -5q-15 -3 -47 12q6 -6 -33 -13q-14 5 -37 12q-8 0 -38 -7q-15 7 -41 13
q5 -1 -53 -13q-14 -3 -26 7q-12 7 -12 16q0 5 3 9.5t34 44.5q1 12 6 28h8q7 1 14 15q13 5 33 14l3 26l6 12l10 17l5 11l3 5l11 21q9 24 11 27q5 11 30 30q6 4 9 13q21 32 21 65q0 22 -16 40q-39 2 -72 35q-4 10 -12 26l-46 -12q-12 -7 -44 -15q-16 -1 -28 7q-15 8 -11 24
q5 21 32 57q-2 7 7 54q5 16 16 27l32 26q10 4 24 19q-3 8 -3 29q5 24 37 24q20 0 54 -11q10 -3 35 -38z" />
    <glyph glyph-name="Y" unicode="Y" horiz-adv-x="763" 
d="M134 714q7 2 13 2q9 -2 52 -16v0l23 6q19 5 37 4q2 -3 5 -6q7 -4 21 -11q3 -2 6 -3q28 18 30 18q44 0 57 -66q24 -13 42 -32q2 -2 14 -6q20 17 34 51q2 1 13 4q3 2 13 31q8 24 34 24q14 0 35 -7q4 -7 11 -17q56 31 84 29q10 -1 36 -5q23 -4 35 -2q2 1 11 3q11 3 21 -6
t11 -20t-13 -36l-20 -35q-11 -11 -24 -18q-3 -13 -20 -42.5t-21 -50.5l-7 -37l-6 -9l-21 -11l-11 -20l-12 -19l-7 -9l-17 -25q-7 -14 -7 -53q-3 -14 -15 -28q-10 -4 -23 -11l-1 -31q0 -8 -10 -22q-11 -17 -12 -21q-8 -17 -24 -39q1 -5 2 -24q1 -16 -29 -51l-15 -10v-14
q-6 -46 -15 -57q-13 -16 -54 -15q-18 1 -45 15q-2 1 -43 -16q-5 -2 -13 -2q-22 0 -68 18q-21 -10 -49 -20q-8 -3 -20 -3q-44 0 -47 35l25 20q9 28 23 46.5t28 37.5q0 17 11 44q7 1 31 21q-5 10 -7 40q3 17 34 53q5 8 5 22q0 10 -2 22q-7 10 -23 20q-20 12 -24 16
q-9 9 -13 24.5t-7 20.5l-8 12l-15 24q-1 1 1 8.5t2 8.5q0 8 -8 11l-22 7l-5 6q-14 23 -18 42l-24 2q-5 6 -6.5 16.5t-3.5 13.5q-5 10 -3 23q2 12 2 16q-19 -5 -25 -5q-12 0 -21 5q-7 20 -20 46q-7 15 -7 25q0 23 37 29q33 5 65 -8z" />
    <glyph glyph-name="Y" unicode="y" horiz-adv-x="763" 
d="M134 714q7 2 13 2q9 -2 52 -16v0l23 6q19 5 37 4q2 -3 5 -6q7 -4 21 -11q3 -2 6 -3q28 18 30 18q44 0 57 -66q24 -13 42 -32q2 -2 14 -6q20 17 34 51q2 1 13 4q3 2 13 31q8 24 34 24q14 0 35 -7q4 -7 11 -17q56 31 84 29q10 -1 36 -5q23 -4 35 -2q2 1 11 3q11 3 21 -6
t11 -20t-13 -36l-20 -35q-11 -11 -24 -18q-3 -13 -20 -42.5t-21 -50.5l-7 -37l-6 -9l-21 -11l-11 -20l-12 -19l-7 -9l-17 -25q-7 -14 -7 -53q-3 -14 -15 -28q-10 -4 -23 -11l-1 -31q0 -8 -10 -22q-11 -17 -12 -21q-8 -17 -24 -39q1 -5 2 -24q1 -16 -29 -51l-15 -10v-14
q-6 -46 -15 -57q-13 -16 -54 -15q-18 1 -45 15q-2 1 -43 -16q-5 -2 -13 -2q-22 0 -68 18q-21 -10 -49 -20q-8 -3 -20 -3q-44 0 -47 35l25 20q9 28 23 46.5t28 37.5q0 17 11 44q7 1 31 21q-5 10 -7 40q3 17 34 53q5 8 5 22q0 10 -2 22q-7 10 -23 20q-20 12 -24 16
q-9 9 -13 24.5t-7 20.5l-8 12l-15 24q-1 1 1 8.5t2 8.5q0 8 -8 11l-22 7l-5 6q-14 23 -18 42l-24 2q-5 6 -6.5 16.5t-3.5 13.5q-5 10 -3 23q2 12 2 16q-19 -5 -25 -5q-12 0 -21 5q-7 20 -20 46q-7 15 -7 25q0 23 37 29q33 5 65 -8z" />
    <glyph glyph-name="Z" unicode="Z" horiz-adv-x="695" 
d="M28 132q0 5 -3.5 15t-3.5 14t2 6v1l33 24q-4 -2 13 -2q12 0 20 16l14 29l7 7q5 5 9 19.5t7 17.5q17 7 42 19q-2 5 5 32q2 7 41 29q10 7 17 23l2 22l2 4l2 2l29 14q15 7 18 28q3 22 -21 22q-16 0 -36 -2q-41 -10 -45 -9q-8 9 -20 21h-1l-27 -12q-6 -8 -30 -19h-9l-23 9
q-9 3 -29 11q-9 6 -7 21q1 6 9 25q3 7 -15 34q12 23 12 39q0 11 -5 20q-6 19 -4 36q4 38 27 48q14 6 59 4q29 -1 61 -17l9 10q19 21 40 21l9 -8q9 -8 37 -9q2 0 18 -3q2 0 6.5 -5.5t6.5 -6.5q1 0 10 11.5t12 12t18 4.5q10 2 13 -2l9 -9l25 -2q17 -1 43 2q14 2 40 -9
q6 4 30 18l34 -9q30 -8 36 -8q30 10 28 10q25 -2 25 -21q0 -20 -16 -44q2 -3 5 -12q9 -29 0 -80q-1 -6 5 -34l-7 -5q-9 -8 -19 -31q-5 -19 -19 -44q-5 -4 -17 -3.5t-16 -1.5l-3 -19q-17 -32 -50 -59q-9 -2 -25 -6q7 -9 -4 -55q-3 -12 -12 -22q-8 -2 -21 -8q-16 -16 0 -37
q11 -15 30 -12q9 -2 17 -2q11 0 22 3q6 6 16 15q5 2 16.5 -1.5t15.5 -3.5t15 -7t14 -8q13 9 47 21q50 4 50 -31q0 -26 -19 -47q17 -21 17 -49q0 -12 -3 -26q-7 -3 -15 -12q6 -4 14 -12q4 -14 4 -24q0 -25 -28 -25h-1l-25 2l-9 -6q-7 -5 -24 -6l-13 7q-14 8 -21 9t-35 -5
q-8 -2 -29 10q-4 -2 -13 -4q-1 -1 -27 -9q-16 -5 -25 -5q-18 0 -39 12q-7 4 -19 4t-84 -14q-6 -1 -36 12q-4 1 -31 -7q-10 -3 -31 6q-19 -6 -34 -6h-5l-31 -12q-3 -2 -18.5 5t-21.5 6q-13 -2 -21 -2q-38 0 -38 49q0 14 9 43t7 45z" />
    <glyph glyph-name="Z" unicode="z" horiz-adv-x="695" 
d="M28 132q0 5 -3.5 15t-3.5 14t2 6v1l33 24q-4 -2 13 -2q12 0 20 16l14 29l7 7q5 5 9 19.5t7 17.5q17 7 42 19q-2 5 5 32q2 7 41 29q10 7 17 23l2 22l2 4l2 2l29 14q15 7 18 28q3 22 -21 22q-16 0 -36 -2q-41 -10 -45 -9q-8 9 -20 21h-1l-27 -12q-6 -8 -30 -19h-9l-23 9
q-9 3 -29 11q-9 6 -7 21q1 6 9 25q3 7 -15 34q12 23 12 39q0 11 -5 20q-6 19 -4 36q4 38 27 48q14 6 59 4q29 -1 61 -17l9 10q19 21 40 21l9 -8q9 -8 37 -9q2 0 18 -3q2 0 6.5 -5.5t6.5 -6.5q1 0 10 11.5t12 12t18 4.5q10 2 13 -2l9 -9l25 -2q17 -1 43 2q14 2 40 -9
q6 4 30 18l34 -9q30 -8 36 -8q30 10 28 10q25 -2 25 -21q0 -20 -16 -44q2 -3 5 -12q9 -29 0 -80q-1 -6 5 -34l-7 -5q-9 -8 -19 -31q-5 -19 -19 -44q-5 -4 -17 -3.5t-16 -1.5l-3 -19q-17 -32 -50 -59q-9 -2 -25 -6q7 -9 -4 -55q-3 -12 -12 -22q-8 -2 -21 -8q-16 -16 0 -37
q11 -15 30 -12q9 -2 17 -2q11 0 22 3q6 6 16 15q5 2 16.5 -1.5t15.5 -3.5t15 -7t14 -8q13 9 47 21q50 4 50 -31q0 -26 -19 -47q17 -21 17 -49q0 -12 -3 -26q-7 -3 -15 -12q6 -4 14 -12q4 -14 4 -24q0 -25 -28 -25h-1l-25 2l-9 -6q-7 -5 -24 -6l-13 7q-14 8 -21 9t-35 -5
q-8 -2 -29 10q-4 -2 -13 -4q-1 -1 -27 -9q-16 -5 -25 -5q-18 0 -39 12q-7 4 -19 4t-84 -14q-6 -1 -36 12q-4 1 -31 -7q-10 -3 -31 6q-19 -6 -34 -6h-5l-31 -12q-3 -2 -18.5 5t-21.5 6q-13 -2 -21 -2q-38 0 -38 49q0 14 9 43t7 45z" />
    <glyph glyph-name="bracketleft" unicode="[" horiz-adv-x="516" 
d="M66 581q0 -4 2 -10q0 -9 -1 -13q-4 -11 -10 -35l5 -31v-14l10 -42v-3l-13 -45q8 -33 7 -37q-2 -5 -11 -31q-6 -16 -6 -28q0 -8 3 -17l8 -37v-5q0 -4 -1 -40q9 -3 9 -10q0 -5 -5 -12q-3 -2 -5 -4v-6q0 -55 -5 -95q-1 -49 10 -59q6 -6 39 -7q7 -1 15 1l24 6h3q12 0 23 -7
l27 12l-30 -11h44l26 15h1q14 -3 21 -9l7 -6q21 8 31 8q9 0 19 -9l47 14l34 -13l11 11q6 7 11 7q3 -7 15 -15q44 -11 38 -11q4 0 4 6q0 25 -7 32v-1q0 -12 4 -12q3 0 5 19q-4 5 -7 14q2 5 4 21q2 17 0 22q-1 3 -4 3t-11.5 -5.5t-12.5 -5.5q-3 0 -12.5 5t-14.5 4l-22 -4
l-26 13l-12 1l-37 -8q-36 -8 -36 66q0 11 1 33.5t1 33.5q0 28 -5 39l-13 29v2l6 11q6 12 7 27l2 43q1 19 -15 85q-1 7 9 45l4 31l1 4q1 19 -3 40q-1 11 19.5 24l20.5 13l38 -9l12 1l26 14l22 -4q4 -1 14.5 -8t14.5 -7q15 0 24 33q2 5 2 10q0 8 -4 16q0 3 -2 14q-3 18 -4 19
q-1 -5 -1 -8q0 -5 3 -5t7 17q2 9 2 15t-4 6q-3 0 -18 -5t-20.5 -6t-14.5 -15q-5 0 -11 7l-11 11l-34 -13l-47 14q-10 -9 -19 -9q-10 0 -31 8l-7 -6q-7 -6 -21 -9h-1l-26 15h-44l30 -11l-27 12q-11 -7 -23 -7h-3l-24 6q-8 2 -15 1q-42 -1 -42 -69q0 -40 6 -70z" />
    <glyph glyph-name="backslash" unicode="\" horiz-adv-x="655" 
d="M547 125l-9 18l-7 18l-9 19l2 28q-13 9 -34 27l-11 20l-11 18q-16 6 -32 27.5t-18 38.5q-4 32 -9 45q-7 1 -32 20l-1 2l-13 29l-6 56q-4 2 -30 11q-16 5 -26 25q-16 32 -44 53q-19 14 -20 62q0 6 -14 11q-18 7 -19 8q-5 15 -13 36q-3 7 -53 5q-5 0 -10 -1q0 -6 -2 -9
q-3 -8 -6 -5q-4 4 -20 15q-7 5 -44 4q-16 0 -34 -7q10 -52 30 -78q8 -6 21 -16l13 -16q-3 -16 -3 -25q0 -13 11 -17q18 -7 29 -16q3 -4 24 -45q2 -5 20 -13q24 -11 34 -20q0 -6 -5.5 -18t-5.5 -18q0 -3 2 -6l2 -2l20 -19q12 -11 32 -46l11 -19l2 -2l16 -32q1 -5 24 -28
q2 -1 14 -34v-2l22 -34q1 -16 13 -51q2 -4 13 -7t13 -5q6 -8 15 -29q4 -9 24 -27q3 -2 10 -37l3 -6q24 -30 37 -30q8 0 32 7q22 11 29 10q3 -6 17 -17q9 -3 62 5q2 1 20 -5q13 3 13 10q0 3 -3 7.5t-21 11.5q-21 9 -24 11q-2 2 1 8t3 7q0 24 -36 60z" />
    <glyph glyph-name="bracketright" unicode="]" horiz-adv-x="516" 
d="M461 139q0 4 -2 10q0 3 11 47l-5 32v14l-10 42v3l13 45q-8 33 -7 37q1 5 10 29q7 18 7 30q0 8 -3 17l-8 37v5q-1 4 1 40q-9 3 -9 10q0 5 5 12q3 2 5 4v6q0 55 5 95q1 49 -10 59q-6 6 -39 7q-7 1 -15 -1l-24 -6h-3q-12 0 -23 7l-27 -12l30 11h-44l-26 -15h-1q-14 3 -21 9
l-7 6q-22 -8 -31 -8t-19 9l-47 -14l-34 13l-11 -11q-6 -7 -11 -7q-3 7 -15 15q-5 1 -20 6t-18 5q-4 0 -4 -6q0 -25 7 -32v1q0 12 -4 12q-3 0 -5 -20q4 -4 7 -13q-4 -7 -5 -22q-2 -24 5 -24q3 0 11.5 5t11.5 5q4 0 13.5 -4.5t14.5 -3.5l22 4l26 -14l12 -1l37 9q36 9 36 -66
q0 -11 -1 -33.5t-1 -33.5q0 -28 5 -39l13 -29v-2l-6 -11q-6 -12 -7 -27l-2 -43q-1 -19 15 -85q0 -7 -9 -45l-4 -31l-1 -4q-2 -19 3 -40q0 -12 -20 -24.5l-20 -12.5l-38 8l-12 -1l-26 -13l-22 4q-4 1 -14.5 8t-14.5 7q-15 0 -24 -33q-2 -5 -2 -11q0 -7 4 -15q0 -3 2 -13
l4 -20q1 5 1 8q0 5 -3 5t-7 -17q-2 -9 -2 -15t4 -6q-11 0 39 11q4 1 9 8q3 2 5 7q5 0 11 -7l11 -11l34 13l47 -14q10 9 19 9t31 -8l7 6q7 6 21 9h1l26 -15h44l-30 11l27 -12q11 7 23 7h3l24 -6q8 -2 15 -1q42 1 42 69q0 40 -6 70z" />
    <glyph glyph-name="asciicircum" unicode="^" horiz-adv-x="537" 
d="M560 286h-163l-128 257l-130 -257h-162l217 414h148z" />
    <glyph glyph-name="underscore" unicode="_" horiz-adv-x="546" 
d="M-7 244v169h560v-169h-560z" />
    <glyph glyph-name="grave" unicode="`" horiz-adv-x="387" 
d="M297 560l-66 -43l-162 133l97 64z" />
    <glyph glyph-name="braceleft" unicode="{" horiz-adv-x="418" 
d="M379 700q-40 10 -43 10q-8 0 -23.5 -1.5t-23 -1.5t-23 -1.5t-23.5 -1.5q-10 0 -30 4t-30 4q-21 0 -26 -15q-4 2 -13.5 -6.5t-12.5 -8.5q-38 0 -35 -102q0 -5 5 -14.5t4 -10.5q-14 -49 -14 -60q0 -7 2.5 -21.5t2.5 -21.5q0 -55 -20 -79q-9 -10 -29 -18q-28 -11 -32 -13
q4 -4 53 -15q34 -8 34 -37q0 -13 -7.5 -38.5t-7.5 -38.5q0 -23 20 -33q-14 -20 -9 -46q1 -3 7.5 -9.5t6.5 -9.5q0 -5 -5 -14t-5 -13q0 -12 28 -40q11 -35 13 -40q11 -20 33 -20q9 0 28 1t28 1q8 0 23.5 -2t23.5 -2q11 0 31.5 4t31.5 4q4 0 17 -6.5t20 -5.5q4 1 10 10.5
t10 10.5q-4 15 -40.5 31t-52.5 12l-16 24q0 23 -8 37q19 16 19 29q0 8 -6 23q-7 19 -8 24q-2 8 3 17.5t8 15.5l-10 68q0 4 -7 26h-5q-20 20 -28 20h-23q-7 2 -13 18q6 14 36 31t31 20t1 5t-4.5 7.5t-2.5 11.5q2 8 11 12q12 9 12 19q0 38 -25 69q24 -3 24 54q0 19 -3 49
l-3 30q14 -5 80 26q5 3 7 9.5t3 8.5z" />
    <glyph glyph-name="bar" unicode="|" horiz-adv-x="262" 
d="M59 125l-1 18l-3 18l-2 19l-16 28q1 6 7.5 15.5t6.5 11.5l-1 20v18q5 8 13 25q1 7 1 14q0 11 -9 35q-10 30 -12 37l7 5q6 4 9 15v2l-4 29l-22 56q5 3 17 9.5t10 26.5q-2 31 10 53q8 14 -15 62q2 -2 4 -2q6 0 13 21q-1 -2 -7 36q0 6 18 6q21 0 31 -2q3 -6 6 -9q5 -7 7 -5
q1 2 9 15q3 5 33 4q13 0 31 -7q17 -52 14 -78q-4 -6 -9 -16l-3 -16q18 -28 18 -36q0 -2 -8.5 -8.5t-10.5 -13.5q-1 -4 2 -45q1 -4 -12 -16.5t-15 -16.5q2 -5 15 -20t13 -22l-1 -2l-6 -19q-5 -25 -4 -46l1 -19l-1 -2l3 -32q2 -5 -5 -28q-1 -1 5 -34l1 -2l-1 -34
q0 -2 6.5 -23.5t7.5 -27.5q1 -3 -6.5 -6t-8.5 -6q-1 -11 2 -29q2 -10 -6 -27q2 -6 8 -29l2 -8l1 -6q-5 -30 -15 -30q-9 0 -29 7l-28 10q1 -6 -5 -17q-7 -3 -52 5q-3 1 -14 -5q-17 4 -17 17q0 4 12 12t14 11l-8 14q-8 14 -9 24q-2 16 6 37z" />
    <glyph glyph-name="braceright" unicode="}" horiz-adv-x="418" 
d="M35 -8q40 -10 43 -10q8 0 24 1.5t24 1.5t22.5 1.5t22.5 1.5q10 0 30 -4t30 -4q21 0 26 15q4 -2 13.5 6.5t12.5 8.5q38 0 35 102q0 5 -5 14.5t-4 10.5q14 49 14 60q0 7 -2.5 21.5t-2.5 21.5q0 55 20 79q9 10 29 18q28 11 32 13q-4 4 -53 15q-34 8 -34 37q0 13 7.5 38.5
t7.5 38.5q0 23 -20 33q14 20 9 46q-1 3 -7.5 9.5t-6.5 9.5q0 5 5 14t5 13q0 12 -28 40q-11 35 -13 40q-11 20 -33 20q-9 0 -28 -1t-28 -1q-8 0 -23.5 2t-23.5 2q-11 0 -31.5 -4t-31.5 -4q-4 0 -17 6.5t-20 5.5q-4 0 -10 -10t-10 -11q4 -15 40.5 -31t52.5 -12l16 -24
q0 -23 8 -37q-19 -16 -19 -29q0 -8 6 -23q7 -18 8 -24q2 -10 -4.5 -21.5l-6.5 -11.5q1 -9 10 -68q0 -4 7 -26h5q20 -20 28 -20h23q7 -2 13 -18q-6 -14 -36 -31t-31 -20t-1 -5t4.5 -7.5t2.5 -11.5q-2 -8 -11 -12q-4 -3 -9 -5q-3 -5 -3 -14q0 -38 25 -69q-24 3 -24 -54
q0 -13 3 -39.5t3 -39.5q-14 5 -80 -26q-5 -3 -7 -8q-2 -8 -3 -10z" />
    <glyph glyph-name="asciitilde" unicode="~" horiz-adv-x="627" 
d="M596 276q-28 -52 -68 -91q-54 -54 -103 -54q-44 0 -125 51.5t-100 51.5q-43 0 -83 -74l-86 86q28 54 68 91q49 45 100 45q41 0 117.5 -51t104.5 -51q38 0 85 88z" />
    <glyph glyph-name="Adieresis" unicode="&#xc4;" horiz-adv-x="762" 
d="M40 151q9 11 17 61q8 7 32 31q4 3 10 9q-2 8 -2 15q0 17 24 44l4 25q4 27 29 56q2 3 4 23l1 13l-7 16q-1 3 6 12t8 12q4 7 -8 25q-7 -1 -13 -1q-61 2 -61 39q0 10 3 26q0 8 1 12l7 26v4q-1 -7 -16 32q-2 3 3 18t5 20.5t2 19.5q7 20 31 20q12 0 26 -7q3 -7 9 -18l38 25
q16 -6 42 -13q26 0 36 2q51 10 69 6q9 -6 25 -14q3 0 31 9q15 5 24 5q19 0 28 -16q0 -8 15 -1q23 11 26 12q8 1 14 1q50 0 50 -80v0l29 -32q12 -13 12 -33q0 -11 -2 -33.5t-2 -33.5t15 -38q9 -1 22 -7q15 -17 15 -43q0 -19 -8 -39q11 -24 28 -43q7 -3 16 -10q10 -21 10 -37
q0 31 -2 -32q0 -2 19 -31l1 -1l-1 -40q0 -5 13.5 -12t15.5 -10v-42q11 -11 22 -33.5t11 -37.5q0 -34 -44 -38h-16q-7 12 -17 15l-3 9l-33 -18q-9 -5 -21 -5q-18 0 -54 14q-3 1 -38 -12q-11 -4 -21 -1q-19 5 -38 51q-11 26 -18 36.5t-24 10.5q-14 0 -43 -7l-38 15
q-4 0 -14.5 -6t-14.5 -7l-6 6q-7 6 -14 7q-27 5 -46 -10q-4 -3 -7 -20q-12 -71 -41 -71q-8 4 -48 15q-5 1 -47 -8l-9 -2l-25 -3l-2 -1l-42 -8q-10 -2 -21 -2q-17 0 -29 15q-7 7 -7 15q0 12 14 41q4 4 37 38q3 3 3 50zM377 324q-6 4 -13 4q-5 0 -10 -2q-15 -8 -16 -21
q2 -8 1 -25q-1 -3 -9 -10.5t-8 -14.5q0 -14 10 -22.5t24 -6.5q5 -4 16 -7q28 6 28 21q0 3 -4 17q-2 7 1 21q2 10 0 19q-4 2 -10 7q-1 8 -10 20zM523 853q0 -29 -22.5 -47.5t-51.5 -18.5q-30 0 -52 18t-22 48q0 29 22 47.5t52 18.5q29 0 51.5 -18.5t22.5 -47.5zM319 853
q0 -29 -22 -47.5t-50 -18.5q-30 0 -52.5 18.5t-22.5 47.5t22.5 47.5t52.5 18.5q28 0 50 -19t22 -47z" />
    <glyph glyph-name="Adieresis" unicode="&#xe4;" horiz-adv-x="762" 
d="M40 151q9 11 17 61q8 7 32 31q4 3 10 9q-2 8 -2 15q0 17 24 44l4 25q4 27 29 56q2 3 4 23l1 13l-7 16q-1 3 6 12t8 12q4 7 -8 25q-7 -1 -13 -1q-61 2 -61 39q0 10 3 26q0 8 1 12l7 26v4q-1 -7 -16 32q-2 3 3 18t5 20.5t2 19.5q7 20 31 20q12 0 26 -7q3 -7 9 -18l38 25
q16 -6 42 -13q26 0 36 2q51 10 69 6q9 -6 25 -14q3 0 31 9q15 5 24 5q19 0 28 -16q0 -8 15 -1q23 11 26 12q8 1 14 1q50 0 50 -80v0l29 -32q12 -13 12 -33q0 -11 -2 -33.5t-2 -33.5t15 -38q9 -1 22 -7q15 -17 15 -43q0 -19 -8 -39q11 -24 28 -43q7 -3 16 -10q10 -21 10 -37
q0 31 -2 -32q0 -2 19 -31l1 -1l-1 -40q0 -5 13.5 -12t15.5 -10v-42q11 -11 22 -33.5t11 -37.5q0 -34 -44 -38h-16q-7 12 -17 15l-3 9l-33 -18q-9 -5 -21 -5q-18 0 -54 14q-3 1 -38 -12q-11 -4 -21 -1q-19 5 -38 51q-11 26 -18 36.5t-24 10.5q-14 0 -43 -7l-38 15
q-4 0 -14.5 -6t-14.5 -7l-6 6q-7 6 -14 7q-27 5 -46 -10q-4 -3 -7 -20q-12 -71 -41 -71q-8 4 -48 15q-5 1 -47 -8l-9 -2l-25 -3l-2 -1l-42 -8q-10 -2 -21 -2q-17 0 -29 15q-7 7 -7 15q0 12 14 41q4 4 37 38q3 3 3 50zM377 324q-6 4 -13 4q-5 0 -10 -2q-15 -8 -16 -21
q2 -8 1 -25q-1 -3 -9 -10.5t-8 -14.5q0 -14 10 -22.5t24 -6.5q5 -4 16 -7q28 6 28 21q0 3 -4 17q-2 7 1 21q2 10 0 19q-4 2 -10 7q-1 8 -10 20zM523 853q0 -29 -22.5 -47.5t-51.5 -18.5q-30 0 -52 18t-22 48q0 29 22 47.5t52 18.5q29 0 51.5 -18.5t22.5 -47.5zM319 853
q0 -29 -22 -47.5t-50 -18.5q-30 0 -52.5 18.5t-22.5 47.5t22.5 47.5t52.5 18.5q28 0 50 -19t22 -47z" />
    <glyph glyph-name="Aring" unicode="&#xc5;" horiz-adv-x="772" 
d="M40 151q9 11 17 61q8 7 32 31q4 3 10 9q-2 8 -2 15q0 17 24 44l4 25q4 27 29 56q2 3 4 23l1 13l-7 16q-1 3 6 12t8 12q4 7 -8 25q-7 -1 -13 -1q-61 2 -61 39q0 10 3 26q0 8 1 12l7 26v4q-1 -7 -16 32q-2 3 3 18t5 20.5t2 19.5q7 20 31 20q12 0 26 -7q3 -7 9 -18l38 25
q16 -6 42 -13q26 0 36 2q51 10 69 6q9 -6 25 -14q3 0 31 9q15 5 24 5q19 0 28 -16q0 -8 15 -1q23 11 26 12q8 1 14 1q50 0 50 -80v0l29 -32q12 -13 12 -33q0 -11 -2 -33.5t-2 -33.5t15 -38q9 -1 22 -7q15 -17 15 -43q0 -19 -8 -39q11 -24 28 -43q7 -3 16 -10q10 -21 10 -37
q0 31 -2 -32q0 -2 19 -31l1 -1l-1 -40q0 -5 13.5 -12t15.5 -10v-42q11 -11 22 -33.5t11 -37.5q0 -34 -44 -38h-16q-7 12 -17 15l-3 9l-33 -18q-9 -5 -21 -5q-18 0 -54 14q-3 1 -38 -12q-11 -4 -21 -1q-19 5 -38 51q-11 26 -18 36.5t-24 10.5q-14 0 -43 -7l-38 15
q-4 0 -14.5 -6t-14.5 -7l-6 6q-7 6 -14 7q-27 5 -46 -10q-4 -3 -7 -20q-12 -71 -41 -71q-8 4 -48 15q-5 1 -47 -8l-9 -2l-25 -3l-2 -1l-42 -8q-10 -2 -21 -2q-17 0 -29 15q-7 7 -7 15q0 12 14 41q4 4 37 38q3 3 3 50zM377 324q-6 4 -13 4q-5 0 -10 -2q-15 -8 -16 -21
q2 -8 1 -25q-1 -3 -9 -10.5t-8 -14.5q0 -14 10 -22.5t24 -6.5q5 -4 16 -7q28 6 28 21q0 3 -4 17q-2 7 1 21q2 10 0 19q-4 2 -10 7q-1 8 -10 20zM460 883q0 -45 -31.5 -70.5t-78.5 -25.5q-45 0 -75 25q-33 27 -33 71q0 45 32 73q30 25 76 25t77 -25q33 -28 33 -73zM389 884
q0 32 -39 32q-38 0 -38 -32q0 -33 38 -33q39 0 39 33z" />
    <glyph glyph-name="Aring" unicode="&#xe5;" horiz-adv-x="772" 
d="M40 151q9 11 17 61q8 7 32 31q4 3 10 9q-2 8 -2 15q0 17 24 44l4 25q4 27 29 56q2 3 4 23l1 13l-7 16q-1 3 6 12t8 12q4 7 -8 25q-7 -1 -13 -1q-61 2 -61 39q0 10 3 26q0 8 1 12l7 26v4q-1 -7 -16 32q-2 3 3 18t5 20.5t2 19.5q7 20 31 20q12 0 26 -7q3 -7 9 -18l38 25
q16 -6 42 -13q26 0 36 2q51 10 69 6q9 -6 25 -14q3 0 31 9q15 5 24 5q19 0 28 -16q0 -8 15 -1q23 11 26 12q8 1 14 1q50 0 50 -80v0l29 -32q12 -13 12 -33q0 -11 -2 -33.5t-2 -33.5t15 -38q9 -1 22 -7q15 -17 15 -43q0 -19 -8 -39q11 -24 28 -43q7 -3 16 -10q10 -21 10 -37
q0 31 -2 -32q0 -2 19 -31l1 -1l-1 -40q0 -5 13.5 -12t15.5 -10v-42q11 -11 22 -33.5t11 -37.5q0 -34 -44 -38h-16q-7 12 -17 15l-3 9l-33 -18q-9 -5 -21 -5q-18 0 -54 14q-3 1 -38 -12q-11 -4 -21 -1q-19 5 -38 51q-11 26 -18 36.5t-24 10.5q-14 0 -43 -7l-38 15
q-4 0 -14.5 -6t-14.5 -7l-6 6q-7 6 -14 7q-27 5 -46 -10q-4 -3 -7 -20q-12 -71 -41 -71q-8 4 -48 15q-5 1 -47 -8l-9 -2l-25 -3l-2 -1l-42 -8q-10 -2 -21 -2q-17 0 -29 15q-7 7 -7 15q0 12 14 41q4 4 37 38q3 3 3 50zM377 324q-6 4 -13 4q-5 0 -10 -2q-15 -8 -16 -21
q2 -8 1 -25q-1 -3 -9 -10.5t-8 -14.5q0 -14 10 -22.5t24 -6.5q5 -4 16 -7q28 6 28 21q0 3 -4 17q-2 7 1 21q2 10 0 19q-4 2 -10 7q-1 8 -10 20zM460 883q0 -45 -31.5 -70.5t-78.5 -25.5q-45 0 -75 25q-33 27 -33 71q0 45 32 73q30 25 76 25t77 -25q33 -28 33 -73zM389 884
q0 32 -39 32q-38 0 -38 -32q0 -33 38 -33q39 0 39 33z" />
    <glyph glyph-name="Ccedilla" unicode="&#xc7;" horiz-adv-x="722" 
d="M27 396q0 5 -4 17t-4 17q4 29 20 50q3 4 38 39l10 10l9 8q5 5 13 20q4 19 19 48q8 6 25 7.5t22 3.5q11 5 37 34q6 10 16 22q28 15 55 15q7 0 42 -4q24 6 74 21q23 7 34 7q9 0 21 -2q20 -10 29 -10q6 0 13 1l8 8q5 5 13 5q7 0 15 -4l25 -12h9q16 13 38 13q45 0 45 -35
q0 -16 -10 -39q0 -1 4 -5.5t4 -6.5q8 -26 8 -37q0 -19 -14 -35q-2 -2 5 -16t7 -15q3 -15 4 -23q1 -16 -12 -22t-29 -4q-7 7 -26 20l-24 -16q-26 -17 -43 -16q-20 2 -36 18q-5 6 -17 18l-21 -29q-2 -2 -31 -4q-7 -1 -17 -3l-4 -12q-6 -13 -25 -26q-5 -5 -20 -6t-16 -2
q0 -10 5 -32.5t4 -36.5q0 -1 -4 -10t-3 -10v-1l21 -21l-2 -30h1q26 3 37 -5t19 -34l9 -7q3 1 13 3q21 5 32 5q12 -8 33 -19q0 19 7 23q9 5 26 -3l2 -2h2q4 0 29 9t39 9q53 0 53 -58q0 -18 -7 -36q2 -3 6 -11q5 -13 5 -27q0 -17 -7 -36q-2 -4 0 -26l2 -21l1 -7q7 -26 -45 -33
l-37 -5h-3l-33 7q-14 3 -30 -4q-28 -12 -41 -16q-4 -1 -33 9q-19 6 -37 12q-3 2 -9 3l-51 -65q19 5 32 5q36 0 59.5 -19.5t23.5 -55.5q0 -46 -39 -71q-33 -22 -81 -22t-96 23l18 40q37 -16 66 -16q55 0 55 41q0 19 -14.5 29.5t-33.5 10.5h-12q-6 -1 -27 -8l-18 20l60 78
l-5 1q-14 4 -26 13q-30 -9 -33 -9q-5 0 -8 1q-4 8 -13 17l-12 5q-15 19 -74 38q-23 7 -35 52q-23 10 -28 14q-13 8 -23 22q-24 33 -29 58q-3 15 -3 62q0 3 -16 27q-7 4 -14 13q-2 4 -2 7t7 21.5t8 24.5q2 11 0 36z" />
    <glyph glyph-name="Ccedilla" unicode="&#xe7;" horiz-adv-x="722" 
d="M27 396q0 5 -4 17t-4 17q4 29 20 50q3 4 38 39l10 10l9 8q5 5 13 20q4 19 19 48q8 6 25 7.5t22 3.5q11 5 37 34q6 10 16 22q28 15 55 15q7 0 42 -4q24 6 74 21q23 7 34 7q9 0 21 -2q20 -10 29 -10q6 0 13 1l8 8q5 5 13 5q7 0 15 -4l25 -12h9q16 13 38 13q45 0 45 -35
q0 -16 -10 -39q0 -1 4 -5.5t4 -6.5q8 -26 8 -37q0 -19 -14 -35q-2 -2 5 -16t7 -15q3 -15 4 -23q1 -16 -12 -22t-29 -4q-7 7 -26 20l-24 -16q-26 -17 -43 -16q-20 2 -36 18q-5 6 -17 18l-21 -29q-2 -2 -31 -4q-7 -1 -17 -3l-4 -12q-6 -13 -25 -26q-5 -5 -20 -6t-16 -2
q0 -10 5 -32.5t4 -36.5q0 -1 -4 -10t-3 -10v-1l21 -21l-2 -30h1q26 3 37 -5t19 -34l9 -7q3 1 13 3q21 5 32 5q12 -8 33 -19q0 19 7 23q9 5 26 -3l2 -2h2q4 0 29 9t39 9q53 0 53 -58q0 -18 -7 -36q2 -3 6 -11q5 -13 5 -27q0 -17 -7 -36q-2 -4 0 -26l2 -21l1 -7q7 -26 -45 -33
l-37 -5h-3l-33 7q-14 3 -30 -4q-28 -12 -41 -16q-4 -1 -33 9q-19 6 -37 12q-3 2 -9 3l-51 -65q19 5 32 5q36 0 59.5 -19.5t23.5 -55.5q0 -46 -39 -71q-33 -22 -81 -22t-96 23l18 40q37 -16 66 -16q55 0 55 41q0 19 -14.5 29.5t-33.5 10.5h-12q-6 -1 -27 -8l-18 20l60 78
l-5 1q-14 4 -26 13q-30 -9 -33 -9q-5 0 -8 1q-4 8 -13 17l-12 5q-15 19 -74 38q-23 7 -35 52q-23 10 -28 14q-13 8 -23 22q-24 33 -29 58q-3 15 -3 62q0 3 -16 27q-7 4 -14 13q-2 4 -2 7t7 21.5t8 24.5q2 11 0 36z" />
    <glyph glyph-name="Eacute" unicode="&#xc9;" horiz-adv-x="528" 
d="M29 684q12 14 27 14q13 0 46 -14q5 3 28 18q36 0 39 -1l39 -13q6 11 24 25q7 2 19 -3.5t16 -5.5l6 -11l35 13q1 1 19.5 -9.5t21.5 -10.5q10 -3 18 5q13 13 27 18q1 1 7.5 -1.5t7.5 -2.5q38 0 46 -19v0l-6 -25q-1 -5 4.5 -12.5t5.5 -11.5q4 -30 4 -28q0 -18 -18 -28l7 -9
q5 -9 9 -27q3 -13 -5 -23.5t-21 -11.5q-4 0 -25 -4q-16 -3 -26 -1q-3 1 -13.5 7t-13.5 6q-35 0 -60 -20q-14 -11 -14 -25q0 -7 6.5 -15.5t13.5 -8.5q3 0 11 3t12 3h3l31 -8l29 1l9 1l20 2q17 2 29 -7.5t10 -26.5q-1 -13 -10 -20q10 -25 19 -51q0 -4 -13 -27q-10 -7 -24 -5
q-10 1 -36 5q-1 0 -12 -5.5t-14 -6.5q-5 1 -19 5l-7 2q-10 3 -27 -6q-12 0 -30 -7l-2 -42q0 -3 2 -12q11 -49 42 -49q13 0 26 7l15 8l22 7l4 -5q5 -6 17 -6q2 0 15.5 6t17.5 7q6 1 23 -18q14 -12 14 -28q0 -5 -1 -11l-8 -19q11 -21 11 -40q0 -7 -2 -15q0 -2 -5 -6t-5 -6
q6 -39 6 -55q0 -25 -18 -25q-4 0 -26 3l-36 5q-16 2 -44 -6q-35 -10 -44 -11q-3 0 -22.5 7.5t-25.5 8.5q9 0 -10 -6.5t-24 -7.5l-11 8.5t-19 9.5q-6 0 -18 -5t-17 -5h-9l-29 10q-3 1 -19.5 -5.5t-21.5 -6.5q-53 -5 -53 56q0 24 5 34q-10 50 -10 45q0 13 8 24l12 16l-9 21v2
l-12 36v4l19 33l-9 24l-1 26q0 4 5.5 19t6.5 19v12l-10 33q-4 13 -4 27q0 21 21 69q-1 2 -13 15.5t-12 20.5q0 11 11 58q7 5 14 14q-9 11 -23 37q-2 5 -2 14q0 10 3 27zM403 920l-164 -134l-66 44l131 154z" />
    <glyph glyph-name="Eacute" unicode="&#xe9;" horiz-adv-x="528" 
d="M29 684q12 14 27 14q13 0 46 -14q5 3 28 18q36 0 39 -1l39 -13q6 11 24 25q7 2 19 -3.5t16 -5.5l6 -11l35 13q1 1 19.5 -9.5t21.5 -10.5q10 -3 18 5q13 13 27 18q1 1 7.5 -1.5t7.5 -2.5q38 0 46 -19v0l-6 -25q-1 -5 4.5 -12.5t5.5 -11.5q4 -30 4 -28q0 -18 -18 -28l7 -9
q5 -9 9 -27q3 -13 -5 -23.5t-21 -11.5q-4 0 -25 -4q-16 -3 -26 -1q-3 1 -13.5 7t-13.5 6q-35 0 -60 -20q-14 -11 -14 -25q0 -7 6.5 -15.5t13.5 -8.5q3 0 11 3t12 3h3l31 -8l29 1l9 1l20 2q17 2 29 -7.5t10 -26.5q-1 -13 -10 -20q10 -25 19 -51q0 -4 -13 -27q-10 -7 -24 -5
q-10 1 -36 5q-1 0 -12 -5.5t-14 -6.5q-5 1 -19 5l-7 2q-10 3 -27 -6q-12 0 -30 -7l-2 -42q0 -3 2 -12q11 -49 42 -49q13 0 26 7l15 8l22 7l4 -5q5 -6 17 -6q2 0 15.5 6t17.5 7q6 1 23 -18q14 -12 14 -28q0 -5 -1 -11l-8 -19q11 -21 11 -40q0 -7 -2 -15q0 -2 -5 -6t-5 -6
q6 -39 6 -55q0 -25 -18 -25q-4 0 -26 3l-36 5q-16 2 -44 -6q-35 -10 -44 -11q-3 0 -22.5 7.5t-25.5 8.5q9 0 -10 -6.5t-24 -7.5l-11 8.5t-19 9.5q-6 0 -18 -5t-17 -5h-9l-29 10q-3 1 -19.5 -5.5t-21.5 -6.5q-53 -5 -53 56q0 24 5 34q-10 50 -10 45q0 13 8 24l12 16l-9 21v2
l-12 36v4l19 33l-9 24l-1 26q0 4 5.5 19t6.5 19v12l-10 33q-4 13 -4 27q0 21 21 69q-1 2 -13 15.5t-12 20.5q0 11 11 58q7 5 14 14q-9 11 -23 37q-2 5 -2 14q0 10 3 27zM403 920l-164 -134l-66 44l131 154z" />
    <glyph glyph-name="Ntilde" unicode="&#xd1;" horiz-adv-x="722" 
d="M127 679l18 23q9 2 19 2q25 0 43 -14l23 4l24 5q9 -2 41 -36q9 -14 17 -45q6 -1 43 -24l11 -44h1l16 -11q9 -6 22 -21q7 -6 14 -9q9 -4 17 0t8 14q0 7 -8 20q-1 5 -1 14q0 16 4 43q6 7 14 21q-5 -1 -18 20q-4 6 -4 14q-3 50 47 50q23 0 62 -7q2 0 8.5 -5.5t8.5 -6.5
q9 0 31 11q35 6 45 9q7 2 12 -1q9 -4 9 -17v-23q1 -8 3 -17l11 -44q-14 -37 -5 -76q5 -21 1 -38q-3 -13 -20 -30l11 -12l15 -17q5 -6 5 -13q0 -5 -5.5 -17.5t-5.5 -19.5v-16l-1 -13l8 -20l-10 -13q-1 -1 -1 -9q0 -9 1 -24q-13 -44 -6 -75q9 -40 9 -43q0 -13 -8 -34
q-3 -7 7 -37q10 -33 5 -56q-10 -44 -45 -44q-15 0 -29 10q-4 2 -15 16l-32 -18q-12 -7 -22 -7q-22 0 -46 33q-18 27 -26 53q-1 2 -32 16q-24 19 -37 48q-1 10 -3 27q-14 4 -39 17q-16 13 -31 33l-10 4q-22 1 -22 -25q0 -9 1 -19q2 -20 0 -40q-6 -11 -17 -35q10 -10 21 -28
v-2l-3 -25q0 -5 3.5 -16t3.5 -16q3 -22 -45 -22h-27q-14 10 -25 10q-12 0 -35 -10h-30q-24 0 -47 -2q-24 -2 -35 18q-10 17 -9 42q0 9 8.5 20.5t9.5 15.5l-8 18l-2 14l-2 15v9q2 4 2 15t-2 29l-9 27l1 6q6 9 17 30q-14 12 -14 29q0 8 3 16q-4 12 -4 25q0 20 15 62
q-11 28 -22 61q1 8 9 18t9 14q-5 9 -9 24q-7 26 0 68q5 30 3 42t-14 36q-2 3 -2 8q0 18 17.5 31t36.5 13q16 0 30 -11zM544 885q-49 -94 -122 -94q-27 0 -75 23.5t-63 23.5q-29 0 -51 -44l-65 47q48 89 122 89q29 0 73 -24t60 -24q28 0 55 47z" />
    <glyph glyph-name="Ntilde" unicode="&#xf1;" horiz-adv-x="722" 
d="M127 679l18 23q9 2 19 2q25 0 43 -14l23 4l24 5q9 -2 41 -36q9 -14 17 -45q6 -1 43 -24l11 -44h1l16 -11q9 -6 22 -21q7 -6 14 -9q9 -4 17 0t8 14q0 7 -8 20q-1 5 -1 14q0 16 4 43q6 7 14 21q-5 -1 -18 20q-4 6 -4 14q-3 50 47 50q23 0 62 -7q2 0 8.5 -5.5t8.5 -6.5
q9 0 31 11q35 6 45 9q7 2 12 -1q9 -4 9 -17v-23q1 -8 3 -17l11 -44q-14 -37 -5 -76q5 -21 1 -38q-3 -13 -20 -30l11 -12l15 -17q5 -6 5 -13q0 -5 -5.5 -17.5t-5.5 -19.5v-16l-1 -13l8 -20l-10 -13q-1 -1 -1 -9q0 -9 1 -24q-13 -44 -6 -75q9 -40 9 -43q0 -13 -8 -34
q-3 -7 7 -37q10 -33 5 -56q-10 -44 -45 -44q-15 0 -29 10q-4 2 -15 16l-32 -18q-12 -7 -22 -7q-22 0 -46 33q-18 27 -26 53q-1 2 -32 16q-24 19 -37 48q-1 10 -3 27q-14 4 -39 17q-16 13 -31 33l-10 4q-22 1 -22 -25q0 -9 1 -19q2 -20 0 -40q-6 -11 -17 -35q10 -10 21 -28
v-2l-3 -25q0 -5 3.5 -16t3.5 -16q3 -22 -45 -22h-27q-14 10 -25 10q-12 0 -35 -10h-30q-24 0 -47 -2q-24 -2 -35 18q-10 17 -9 42q0 9 8.5 20.5t9.5 15.5l-8 18l-2 14l-2 15v9q2 4 2 15t-2 29l-9 27l1 6q6 9 17 30q-14 12 -14 29q0 8 3 16q-4 12 -4 25q0 20 15 62
q-11 28 -22 61q1 8 9 18t9 14q-5 9 -9 24q-7 26 0 68q5 30 3 42t-14 36q-2 3 -2 8q0 18 17.5 31t36.5 13q16 0 30 -11zM544 885q-49 -94 -122 -94q-27 0 -75 23.5t-63 23.5q-29 0 -51 -44l-65 47q48 89 122 89q29 0 73 -24t60 -24q28 0 55 47z" />
    <glyph glyph-name="Odieresis" unicode="&#xd6;" horiz-adv-x="824" 
d="M29 370l2 15q-7 20 -5 38l1 3l24 67q2 7 22 29q4 4 17 35q8 19 31 33q6 7 36 22h1l28 28q27 27 59 34h35l29 21l15 2l30 3q38 4 58 3q55 -2 77 -7q35 -8 71 -29q8 -5 34 -10q3 -1 23 -26q3 -3 40 -18q17 -7 36 -31q10 -32 41 -53q24 -28 34 -76q2 -10 5 -35
q0 -3 -5 -10.5t-5 -9.5q1 -2 8 -8q9 -10 16 -28q2 -8 1 -43q-1 -52 -29 -82q4 -42 -30 -83q-24 -29 -52 -44q-6 -3 -21 -34q-1 -2 -24 -15q-11 -6 -21 -21l-42 -19q-31 -1 -65 -25q-6 -2 -37 -6l-39 -5l-35 1q-22 1 -33 11l-21 19q-3 0 -14.5 -7t-13.5 -7q-24 2 -58 11l-6 3
l-19 6q-19 6 -26 12q-2 2 -20 22q-6 3 -33 15q-12 5 -32 22q-36 30 -43 68q-4 12 -10 24l-2 4l-10 16q-14 22 -32 87v8l-1 15q-2 30 10 55zM308 363l-12 -33q1 -5 12 -18.5t9 -16.5l-12 -40l21 -52q8 -7 32 -9q23 -2 34 2l50 13q19 5 23 23l10 49q-4 11 -5 27q-2 7 7 15
t10 10q4 13 0 37q0 55 -4 68q-7 23 -34 30l-27 7q-6 1 -21 10.5t-16 9.5q-4 0 -8 -3q-25 -7 -51 -14q-27 -11 -25 -33l4 -37q1 -5 4 -21q3 -13 -1 -24zM553 853q0 -29 -22.5 -47.5t-51.5 -18.5q-30 0 -52 18t-22 48q0 29 22 47.5t52 18.5q29 0 51.5 -18.5t22.5 -47.5z
M349 853q0 -29 -22 -47.5t-50 -18.5q-30 0 -52.5 18.5t-22.5 47.5t22.5 47.5t52.5 18.5q28 0 50 -19t22 -47z" />
    <glyph glyph-name="Odieresis" unicode="&#xf6;" horiz-adv-x="824" 
d="M29 370l2 15q-7 20 -5 38l1 3l24 67q2 7 22 29q4 4 17 35q8 19 31 33q6 7 36 22h1l28 28q27 27 59 34h35l29 21l15 2l30 3q38 4 58 3q55 -2 77 -7q35 -8 71 -29q8 -5 34 -10q3 -1 23 -26q3 -3 40 -18q17 -7 36 -31q10 -32 41 -53q24 -28 34 -76q2 -10 5 -35
q0 -3 -5 -10.5t-5 -9.5q1 -2 8 -8q9 -10 16 -28q2 -8 1 -43q-1 -52 -29 -82q4 -42 -30 -83q-24 -29 -52 -44q-6 -3 -21 -34q-1 -2 -24 -15q-11 -6 -21 -21l-42 -19q-31 -1 -65 -25q-6 -2 -37 -6l-39 -5l-35 1q-22 1 -33 11l-21 19q-3 0 -14.5 -7t-13.5 -7q-24 2 -58 11l-6 3
l-19 6q-19 6 -26 12q-2 2 -20 22q-6 3 -33 15q-12 5 -32 22q-36 30 -43 68q-4 12 -10 24l-2 4l-10 16q-14 22 -32 87v8l-1 15q-2 30 10 55zM308 363l-12 -33q1 -5 12 -18.5t9 -16.5l-12 -40l21 -52q8 -7 32 -9q23 -2 34 2l50 13q19 5 23 23l10 49q-4 11 -5 27q-2 7 7 15
t10 10q4 13 0 37q0 55 -4 68q-7 23 -34 30l-27 7q-6 1 -21 10.5t-16 9.5q-4 0 -8 -3q-25 -7 -51 -14q-27 -11 -25 -33l4 -37q1 -5 4 -21q3 -13 -1 -24zM553 853q0 -29 -22.5 -47.5t-51.5 -18.5q-30 0 -52 18t-22 48q0 29 22 47.5t52 18.5q29 0 51.5 -18.5t22.5 -47.5z
M349 853q0 -29 -22 -47.5t-50 -18.5q-30 0 -52.5 18.5t-22.5 47.5t22.5 47.5t52.5 18.5q28 0 50 -19t22 -47z" />
    <glyph glyph-name="Udieresis" unicode="&#xdc;" horiz-adv-x="722" 
d="M35 695q4 8 11 10t12 -3l9 -9q2 -2 4 -2q4 0 11 5q11 -6 18 -6q10 0 47 17q17 8 49 -10l13 -14h4l23 14q16 10 29 10q28 0 24 -64l-3 -46q-5 -15 -11 -24q-2 -2 19 -44q1 -3 -2 -49q6 -4 6 -15t-5 -22q-2 -2 -4 -3q0 -4 6 -12.5t6 -12.5l-1 -7l-11 -18q-4 -7 -3 -17
q3 -15 3 -13q2 -9 -14 -25q17 -22 16 -65q-1 -4 6 -24q5 -2 19 -14q2 -10 9 -24q8 -7 19 -7q41 0 42 75q0 9 -8 26t-9 24l11 99l9 31q1 3 1 10q0 2 -11.5 23t-9.5 42q5 8 18 50q1 5 3 13q-2 5 -8 43q-3 17 -1 30q4 36 48 36q31 0 46 -15l44 17l15 -2l9 -1l19 -1h5q7 0 25 -7
q1 -1 21 12q4 2 7 2q26 -1 33 -13q4 -7 5 -37l1 -37q-1 -15 -8 -35q-5 -14 -4 -16q0 -3 10 -26v-1l-7 -44q-1 -8 12 -48q0 -1 -8 -29q-1 -4 3 -27l8 -44q3 -17 3 -31q0 -30 -30 -57q2 -11 16 -21q2 -1 3 -39q0 -26 3 -40q2 -7 -3 -25q-1 -4 9 -21l3 -5q18 -4 18 -14
q0 -6 -4 -9q19 -31 19 -55q0 -33 -40 -33h-2l-30 -11q-7 3 -15 7q-14 5 -30 4q-3 0 -21.5 7.5t-23.5 8.5q-6 -1 -19 -9.5t-22 -8.5q-28 0 -37 3.5t-26 22.5q-6 6 -27 7q-14 0 -27 -4l-3 -1l-17 -20q-9 1 -31 -2q-23 -6 -46 -6q-13 0 -27 2q-29 11 -63 11l-25 18q-2 1 -28 9
q-7 -3 -26 4q-4 9 -12 26v1l-29 23l4 20l-11 32q-1 3 -16 14t-18.5 20.5t-2.5 27.5q2 34 2 29v8q3 7 3 16q0 8 -4 24.5t-4 24.5q0 6 1 11q5 2 13 37v3l-13 34q0 20 1 43q5 11 5 26v2l-14 28q-2 4 -2 10q0 7 8 29l9 27q2 11 4 18q4 0 4 4q0 8 -14 30q-4 16 -2 42q1 22 7 42z
M518 853q0 -29 -22.5 -47.5t-51.5 -18.5q-30 0 -52 18t-22 48q0 29 22 47.5t52 18.5q29 0 51.5 -18.5t22.5 -47.5zM314 853q0 -29 -22 -47.5t-50 -18.5q-30 0 -52.5 18.5t-22.5 47.5t22.5 47.5t52.5 18.5q28 0 50 -19t22 -47z" />
    <glyph glyph-name="Udieresis" unicode="&#xfc;" horiz-adv-x="722" 
d="M35 695q4 8 11 10t12 -3l9 -9q2 -2 4 -2q4 0 11 5q11 -6 18 -6q10 0 47 17q17 8 49 -10l13 -14h4l23 14q16 10 29 10q28 0 24 -64l-3 -46q-5 -15 -11 -24q-2 -2 19 -44q1 -3 -2 -49q6 -4 6 -15t-5 -22q-2 -2 -4 -3q0 -4 6 -12.5t6 -12.5l-1 -7l-11 -18q-4 -7 -3 -17
q3 -15 3 -13q2 -9 -14 -25q17 -22 16 -65q-1 -4 6 -24q5 -2 19 -14q2 -10 9 -24q8 -7 19 -7q41 0 42 75q0 9 -8 26t-9 24l11 99l9 31q1 3 1 10q0 2 -11.5 23t-9.5 42q5 8 18 50q1 5 3 13q-2 5 -8 43q-3 17 -1 30q4 36 48 36q31 0 46 -15l44 17l15 -2l9 -1l19 -1h5q7 0 25 -7
q1 -1 21 12q4 2 7 2q26 -1 33 -13q4 -7 5 -37l1 -37q-1 -15 -8 -35q-5 -14 -4 -16q0 -3 10 -26v-1l-7 -44q-1 -8 12 -48q0 -1 -8 -29q-1 -4 3 -27l8 -44q3 -17 3 -31q0 -30 -30 -57q2 -11 16 -21q2 -1 3 -39q0 -26 3 -40q2 -7 -3 -25q-1 -4 9 -21l3 -5q18 -4 18 -14
q0 -6 -4 -9q19 -31 19 -55q0 -33 -40 -33h-2l-30 -11q-7 3 -15 7q-14 5 -30 4q-3 0 -21.5 7.5t-23.5 8.5q-6 -1 -19 -9.5t-22 -8.5q-28 0 -37 3.5t-26 22.5q-6 6 -27 7q-14 0 -27 -4l-3 -1l-17 -20q-9 1 -31 -2q-23 -6 -46 -6q-13 0 -27 2q-29 11 -63 11l-25 18q-2 1 -28 9
q-7 -3 -26 4q-4 9 -12 26v1l-29 23l4 20l-11 32q-1 3 -16 14t-18.5 20.5t-2.5 27.5q2 34 2 29v8q3 7 3 16q0 8 -4 24.5t-4 24.5q0 6 1 11q5 2 13 37v3l-13 34q0 20 1 43q5 11 5 26v2l-14 28q-2 4 -2 10q0 7 8 29l9 27q2 11 4 18q4 0 4 4q0 8 -14 30q-4 16 -2 42q1 22 7 42z
M518 853q0 -29 -22.5 -47.5t-51.5 -18.5q-30 0 -52 18t-22 48q0 29 22 47.5t52 18.5q29 0 51.5 -18.5t22.5 -47.5zM314 853q0 -29 -22 -47.5t-50 -18.5q-30 0 -52.5 18.5t-22.5 47.5t22.5 47.5t52.5 18.5q28 0 50 -19t22 -47z" />
    <glyph glyph-name="aacute" unicode="&#xc1;" horiz-adv-x="754" 
d="M40 151q9 11 17 61q8 7 32 31q4 3 10 9q-2 8 -2 15q0 17 24 44l4 25q4 27 29 56q2 3 4 23l1 13l-7 16q-1 3 6 12t8 12q4 7 -8 25q-7 -1 -13 -1q-61 2 -61 39q0 10 3 26q0 8 1 12l7 26v4q-1 -7 -16 32q-2 3 3 18t5 20.5t2 19.5q7 20 31 20q12 0 26 -7q3 -7 9 -18l38 25
q16 -6 42 -13q26 0 36 2q51 10 69 6q9 -6 25 -14q3 0 31 9q15 5 24 5q19 0 28 -16q0 -8 15 -1q23 11 26 12q8 1 14 1q50 0 50 -80v0l29 -32q12 -13 12 -33q0 -11 -2 -33.5t-2 -33.5t15 -38q9 -1 22 -7q15 -17 15 -43q0 -19 -8 -39q11 -24 28 -43q7 -3 16 -10q10 -21 10 -37
q0 31 -2 -32q0 -2 19 -31l1 -1l-1 -40q0 -5 13.5 -12t15.5 -10v-42q11 -11 22 -33.5t11 -37.5q0 -34 -44 -38h-16q-7 12 -17 15l-3 9l-33 -18q-9 -5 -21 -5q-18 0 -54 14q-3 1 -38 -12q-11 -4 -21 -1q-19 5 -38 51q-11 26 -18 36.5t-24 10.5q-14 0 -43 -7l-38 15
q-4 0 -14.5 -6t-14.5 -7l-6 6q-7 6 -14 7q-27 5 -46 -10q-4 -3 -7 -20q-12 -71 -41 -71q-8 4 -48 15q-5 1 -47 -8l-9 -2l-25 -3l-2 -1l-42 -8q-10 -2 -21 -2q-17 0 -29 15q-7 7 -7 15q0 12 14 41q4 4 37 38q3 3 3 50zM377 324q-6 4 -13 4q-5 0 -10 -2q-15 -8 -16 -21
q2 -8 1 -25q-1 -3 -9 -10.5t-8 -14.5q0 -14 10 -22.5t24 -6.5q5 -4 16 -7q28 6 28 21q0 3 -4 17q-2 7 1 21q2 10 0 19q-4 2 -10 7q-1 8 -10 20zM503 920l-164 -134l-66 44l131 154z" />
    <glyph glyph-name="aacute" unicode="&#xe1;" horiz-adv-x="754" 
d="M40 151q9 11 17 61q8 7 32 31q4 3 10 9q-2 8 -2 15q0 17 24 44l4 25q4 27 29 56q2 3 4 23l1 13l-7 16q-1 3 6 12t8 12q4 7 -8 25q-7 -1 -13 -1q-61 2 -61 39q0 10 3 26q0 8 1 12l7 26v4q-1 -7 -16 32q-2 3 3 18t5 20.5t2 19.5q7 20 31 20q12 0 26 -7q3 -7 9 -18l38 25
q16 -6 42 -13q26 0 36 2q51 10 69 6q9 -6 25 -14q3 0 31 9q15 5 24 5q19 0 28 -16q0 -8 15 -1q23 11 26 12q8 1 14 1q50 0 50 -80v0l29 -32q12 -13 12 -33q0 -11 -2 -33.5t-2 -33.5t15 -38q9 -1 22 -7q15 -17 15 -43q0 -19 -8 -39q11 -24 28 -43q7 -3 16 -10q10 -21 10 -37
q0 31 -2 -32q0 -2 19 -31l1 -1l-1 -40q0 -5 13.5 -12t15.5 -10v-42q11 -11 22 -33.5t11 -37.5q0 -34 -44 -38h-16q-7 12 -17 15l-3 9l-33 -18q-9 -5 -21 -5q-18 0 -54 14q-3 1 -38 -12q-11 -4 -21 -1q-19 5 -38 51q-11 26 -18 36.5t-24 10.5q-14 0 -43 -7l-38 15
q-4 0 -14.5 -6t-14.5 -7l-6 6q-7 6 -14 7q-27 5 -46 -10q-4 -3 -7 -20q-12 -71 -41 -71q-8 4 -48 15q-5 1 -47 -8l-9 -2l-25 -3l-2 -1l-42 -8q-10 -2 -21 -2q-17 0 -29 15q-7 7 -7 15q0 12 14 41q4 4 37 38q3 3 3 50zM377 324q-6 4 -13 4q-5 0 -10 -2q-15 -8 -16 -21
q2 -8 1 -25q-1 -3 -9 -10.5t-8 -14.5q0 -14 10 -22.5t24 -6.5q5 -4 16 -7q28 6 28 21q0 3 -4 17q-2 7 1 21q2 10 0 19q-4 2 -10 7q-1 8 -10 20zM503 920l-164 -134l-66 44l131 154z" />
    <glyph glyph-name="agrave" unicode="&#xc0;" horiz-adv-x="754" 
d="M40 151q9 11 17 61q8 7 32 31q4 3 10 9q-2 8 -2 15q0 17 24 44l4 25q4 27 29 56q2 3 4 23l1 13l-7 16q-1 3 6 12t8 12q4 7 -8 25q-7 -1 -13 -1q-61 2 -61 39q0 10 3 26q0 8 1 12l7 26v4q-1 -7 -16 32q-2 3 3 18t5 20.5t2 19.5q7 20 31 20q12 0 26 -7q3 -7 9 -18l38 25
q16 -6 42 -13q26 0 36 2q51 10 69 6q9 -6 25 -14q3 0 31 9q15 5 24 5q19 0 28 -16q0 -8 15 -1q23 11 26 12q8 1 14 1q50 0 50 -80v0l29 -32q12 -13 12 -33q0 -11 -2 -33.5t-2 -33.5t15 -38q9 -1 22 -7q15 -17 15 -43q0 -19 -8 -39q11 -24 28 -43q7 -3 16 -10q10 -21 10 -37
q0 31 -2 -32q0 -2 19 -31l1 -1l-1 -40q0 -5 13.5 -12t15.5 -10v-42q11 -11 22 -33.5t11 -37.5q0 -34 -44 -38h-16q-7 12 -17 15l-3 9l-33 -18q-9 -5 -21 -5q-18 0 -54 14q-3 1 -38 -12q-11 -4 -21 -1q-19 5 -38 51q-11 26 -18 36.5t-24 10.5q-14 0 -43 -7l-38 15
q-4 0 -14.5 -6t-14.5 -7l-6 6q-7 6 -14 7q-27 5 -46 -10q-4 -3 -7 -20q-12 -71 -41 -71q-8 4 -48 15q-5 1 -47 -8l-9 -2l-25 -3l-2 -1l-42 -8q-10 -2 -21 -2q-17 0 -29 15q-7 7 -7 15q0 12 14 41q4 4 37 38q3 3 3 50zM377 324q-6 4 -13 4q-5 0 -10 -2q-15 -8 -16 -21
q2 -8 1 -25q-1 -3 -9 -10.5t-8 -14.5q0 -14 10 -22.5t24 -6.5q5 -4 16 -7q28 6 28 21q0 3 -4 17q-2 7 1 21q2 10 0 19q-4 2 -10 7q-1 8 -10 20zM417 829l-66 -43l-162 133l97 64z" />
    <glyph glyph-name="agrave" unicode="&#xe0;" horiz-adv-x="754" 
d="M40 151q9 11 17 61q8 7 32 31q4 3 10 9q-2 8 -2 15q0 17 24 44l4 25q4 27 29 56q2 3 4 23l1 13l-7 16q-1 3 6 12t8 12q4 7 -8 25q-7 -1 -13 -1q-61 2 -61 39q0 10 3 26q0 8 1 12l7 26v4q-1 -7 -16 32q-2 3 3 18t5 20.5t2 19.5q7 20 31 20q12 0 26 -7q3 -7 9 -18l38 25
q16 -6 42 -13q26 0 36 2q51 10 69 6q9 -6 25 -14q3 0 31 9q15 5 24 5q19 0 28 -16q0 -8 15 -1q23 11 26 12q8 1 14 1q50 0 50 -80v0l29 -32q12 -13 12 -33q0 -11 -2 -33.5t-2 -33.5t15 -38q9 -1 22 -7q15 -17 15 -43q0 -19 -8 -39q11 -24 28 -43q7 -3 16 -10q10 -21 10 -37
q0 31 -2 -32q0 -2 19 -31l1 -1l-1 -40q0 -5 13.5 -12t15.5 -10v-42q11 -11 22 -33.5t11 -37.5q0 -34 -44 -38h-16q-7 12 -17 15l-3 9l-33 -18q-9 -5 -21 -5q-18 0 -54 14q-3 1 -38 -12q-11 -4 -21 -1q-19 5 -38 51q-11 26 -18 36.5t-24 10.5q-14 0 -43 -7l-38 15
q-4 0 -14.5 -6t-14.5 -7l-6 6q-7 6 -14 7q-27 5 -46 -10q-4 -3 -7 -20q-12 -71 -41 -71q-8 4 -48 15q-5 1 -47 -8l-9 -2l-25 -3l-2 -1l-42 -8q-10 -2 -21 -2q-17 0 -29 15q-7 7 -7 15q0 12 14 41q4 4 37 38q3 3 3 50zM377 324q-6 4 -13 4q-5 0 -10 -2q-15 -8 -16 -21
q2 -8 1 -25q-1 -3 -9 -10.5t-8 -14.5q0 -14 10 -22.5t24 -6.5q5 -4 16 -7q28 6 28 21q0 3 -4 17q-2 7 1 21q2 10 0 19q-4 2 -10 7q-1 8 -10 20zM417 829l-66 -43l-162 133l97 64z" />
    <glyph glyph-name="acircumflex" unicode="&#xc2;" horiz-adv-x="754" 
d="M40 151q9 11 17 61q8 7 32 31q4 3 10 9q-2 8 -2 15q0 17 24 44l4 25q4 27 29 56q2 3 4 23l1 13l-7 16q-1 3 6 12t8 12q4 7 -8 25q-7 -1 -13 -1q-61 2 -61 39q0 10 3 26q0 8 1 12l7 26v4q-1 -7 -16 32q-2 3 3 18t5 20.5t2 19.5q7 20 31 20q12 0 26 -7q3 -7 9 -18l38 25
q16 -6 42 -13q26 0 36 2q51 10 69 6q9 -6 25 -14q3 0 31 9q15 5 24 5q19 0 28 -16q0 -8 15 -1q23 11 26 12q8 1 14 1q50 0 50 -80v0l29 -32q12 -13 12 -33q0 -11 -2 -33.5t-2 -33.5t15 -38q9 -1 22 -7q15 -17 15 -43q0 -19 -8 -39q11 -24 28 -43q7 -3 16 -10q10 -21 10 -37
q0 31 -2 -32q0 -2 19 -31l1 -1l-1 -40q0 -5 13.5 -12t15.5 -10v-42q11 -11 22 -33.5t11 -37.5q0 -34 -44 -38h-16q-7 12 -17 15l-3 9l-33 -18q-9 -5 -21 -5q-18 0 -54 14q-3 1 -38 -12q-11 -4 -21 -1q-19 5 -38 51q-11 26 -18 36.5t-24 10.5q-14 0 -43 -7l-38 15
q-4 0 -14.5 -6t-14.5 -7l-6 6q-7 6 -14 7q-27 5 -46 -10q-4 -3 -7 -20q-12 -71 -41 -71q-8 4 -48 15q-5 1 -47 -8l-9 -2l-25 -3l-2 -1l-42 -8q-10 -2 -21 -2q-17 0 -29 15q-7 7 -7 15q0 12 14 41q4 4 37 38q3 3 3 50zM377 324q-6 4 -13 4q-5 0 -10 -2q-15 -8 -16 -21
q2 -8 1 -25q-1 -3 -9 -10.5t-8 -14.5q0 -14 10 -22.5t24 -6.5q5 -4 16 -7q28 6 28 21q0 3 -4 17q-2 7 1 21q2 10 0 19q-4 2 -10 7q-1 8 -10 20zM514 839l-55 -70l-115 73l-116 -72l-54 70l171 114z" />
    <glyph glyph-name="acircumflex" unicode="&#xe2;" horiz-adv-x="754" 
d="M40 151q9 11 17 61q8 7 32 31q4 3 10 9q-2 8 -2 15q0 17 24 44l4 25q4 27 29 56q2 3 4 23l1 13l-7 16q-1 3 6 12t8 12q4 7 -8 25q-7 -1 -13 -1q-61 2 -61 39q0 10 3 26q0 8 1 12l7 26v4q-1 -7 -16 32q-2 3 3 18t5 20.5t2 19.5q7 20 31 20q12 0 26 -7q3 -7 9 -18l38 25
q16 -6 42 -13q26 0 36 2q51 10 69 6q9 -6 25 -14q3 0 31 9q15 5 24 5q19 0 28 -16q0 -8 15 -1q23 11 26 12q8 1 14 1q50 0 50 -80v0l29 -32q12 -13 12 -33q0 -11 -2 -33.5t-2 -33.5t15 -38q9 -1 22 -7q15 -17 15 -43q0 -19 -8 -39q11 -24 28 -43q7 -3 16 -10q10 -21 10 -37
q0 31 -2 -32q0 -2 19 -31l1 -1l-1 -40q0 -5 13.5 -12t15.5 -10v-42q11 -11 22 -33.5t11 -37.5q0 -34 -44 -38h-16q-7 12 -17 15l-3 9l-33 -18q-9 -5 -21 -5q-18 0 -54 14q-3 1 -38 -12q-11 -4 -21 -1q-19 5 -38 51q-11 26 -18 36.5t-24 10.5q-14 0 -43 -7l-38 15
q-4 0 -14.5 -6t-14.5 -7l-6 6q-7 6 -14 7q-27 5 -46 -10q-4 -3 -7 -20q-12 -71 -41 -71q-8 4 -48 15q-5 1 -47 -8l-9 -2l-25 -3l-2 -1l-42 -8q-10 -2 -21 -2q-17 0 -29 15q-7 7 -7 15q0 12 14 41q4 4 37 38q3 3 3 50zM377 324q-6 4 -13 4q-5 0 -10 -2q-15 -8 -16 -21
q2 -8 1 -25q-1 -3 -9 -10.5t-8 -14.5q0 -14 10 -22.5t24 -6.5q5 -4 16 -7q28 6 28 21q0 3 -4 17q-2 7 1 21q2 10 0 19q-4 2 -10 7q-1 8 -10 20zM514 839l-55 -70l-115 73l-116 -72l-54 70l171 114z" />
    <glyph glyph-name="atilde" unicode="&#xc3;" horiz-adv-x="754" 
d="M40 151q9 11 17 61q8 7 32 31q4 3 10 9q-2 8 -2 15q0 17 24 44l4 25q4 27 29 56q2 3 4 23l1 13l-7 16q-1 3 6 12t8 12q4 7 -8 25q-7 -1 -13 -1q-61 2 -61 39q0 10 3 26q0 8 1 12l7 26v4q-1 -7 -16 32q-2 3 3 18t5 20.5t2 19.5q7 20 31 20q12 0 26 -7q3 -7 9 -18l38 25
q16 -6 42 -13q26 0 36 2q51 10 69 6q9 -6 25 -14q3 0 31 9q15 5 24 5q19 0 28 -16q0 -8 15 -1q23 11 26 12q8 1 14 1q50 0 50 -80v0l29 -32q12 -13 12 -33q0 -11 -2 -33.5t-2 -33.5t15 -38q9 -1 22 -7q15 -17 15 -43q0 -19 -8 -39q11 -24 28 -43q7 -3 16 -10q10 -21 10 -37
q0 31 -2 -32q0 -2 19 -31l1 -1l-1 -40q0 -5 13.5 -12t15.5 -10v-42q11 -11 22 -33.5t11 -37.5q0 -34 -44 -38h-16q-7 12 -17 15l-3 9l-33 -18q-9 -5 -21 -5q-18 0 -54 14q-3 1 -38 -12q-11 -4 -21 -1q-19 5 -38 51q-11 26 -18 36.5t-24 10.5q-14 0 -43 -7l-38 15
q-4 0 -14.5 -6t-14.5 -7l-6 6q-7 6 -14 7q-27 5 -46 -10q-4 -3 -7 -20q-12 -71 -41 -71q-8 4 -48 15q-5 1 -47 -8l-9 -2l-25 -3l-2 -1l-42 -8q-10 -2 -21 -2q-17 0 -29 15q-7 7 -7 15q0 12 14 41q4 4 37 38q3 3 3 50zM377 324q-6 4 -13 4q-5 0 -10 -2q-15 -8 -16 -21
q2 -8 1 -25q-1 -3 -9 -10.5t-8 -14.5q0 -14 10 -22.5t24 -6.5q5 -4 16 -7q28 6 28 21q0 3 -4 17q-2 7 1 21q2 10 0 19q-4 2 -10 7q-1 8 -10 20zM534 885q-49 -94 -122 -94q-27 0 -75 23.5t-63 23.5q-29 0 -51 -44l-65 47q48 89 122 89q29 0 73 -24t60 -24q28 0 55 47z" />
    <glyph glyph-name="atilde" unicode="&#xe3;" horiz-adv-x="754" 
d="M40 151q9 11 17 61q8 7 32 31q4 3 10 9q-2 8 -2 15q0 17 24 44l4 25q4 27 29 56q2 3 4 23l1 13l-7 16q-1 3 6 12t8 12q4 7 -8 25q-7 -1 -13 -1q-61 2 -61 39q0 10 3 26q0 8 1 12l7 26v4q-1 -7 -16 32q-2 3 3 18t5 20.5t2 19.5q7 20 31 20q12 0 26 -7q3 -7 9 -18l38 25
q16 -6 42 -13q26 0 36 2q51 10 69 6q9 -6 25 -14q3 0 31 9q15 5 24 5q19 0 28 -16q0 -8 15 -1q23 11 26 12q8 1 14 1q50 0 50 -80v0l29 -32q12 -13 12 -33q0 -11 -2 -33.5t-2 -33.5t15 -38q9 -1 22 -7q15 -17 15 -43q0 -19 -8 -39q11 -24 28 -43q7 -3 16 -10q10 -21 10 -37
q0 31 -2 -32q0 -2 19 -31l1 -1l-1 -40q0 -5 13.5 -12t15.5 -10v-42q11 -11 22 -33.5t11 -37.5q0 -34 -44 -38h-16q-7 12 -17 15l-3 9l-33 -18q-9 -5 -21 -5q-18 0 -54 14q-3 1 -38 -12q-11 -4 -21 -1q-19 5 -38 51q-11 26 -18 36.5t-24 10.5q-14 0 -43 -7l-38 15
q-4 0 -14.5 -6t-14.5 -7l-6 6q-7 6 -14 7q-27 5 -46 -10q-4 -3 -7 -20q-12 -71 -41 -71q-8 4 -48 15q-5 1 -47 -8l-9 -2l-25 -3l-2 -1l-42 -8q-10 -2 -21 -2q-17 0 -29 15q-7 7 -7 15q0 12 14 41q4 4 37 38q3 3 3 50zM377 324q-6 4 -13 4q-5 0 -10 -2q-15 -8 -16 -21
q2 -8 1 -25q-1 -3 -9 -10.5t-8 -14.5q0 -14 10 -22.5t24 -6.5q5 -4 16 -7q28 6 28 21q0 3 -4 17q-2 7 1 21q2 10 0 19q-4 2 -10 7q-1 8 -10 20zM534 885q-49 -94 -122 -94q-27 0 -75 23.5t-63 23.5q-29 0 -51 -44l-65 47q48 89 122 89q29 0 73 -24t60 -24q28 0 55 47z" />
    <glyph glyph-name="egrave" unicode="&#xc8;" horiz-adv-x="511" 
d="M29 684q12 14 27 14q13 0 46 -14q5 3 28 18q36 0 39 -1l39 -13q6 11 24 25q7 2 19 -3.5t16 -5.5l6 -11l35 13q1 1 19.5 -9.5t21.5 -10.5q10 -3 18 5q13 13 27 18q1 1 7.5 -1.5t7.5 -2.5q38 0 46 -19v0l-6 -25q-1 -5 4.5 -12.5t5.5 -11.5q4 -30 4 -28q0 -18 -18 -28l7 -9
q5 -9 9 -27q3 -13 -5 -23.5t-21 -11.5q-4 0 -25 -4q-16 -3 -26 -1q-3 1 -13.5 7t-13.5 6q-35 0 -60 -20q-14 -11 -14 -25q0 -7 6.5 -15.5t13.5 -8.5q3 0 11 3t12 3h3l31 -8l29 1l9 1l20 2q17 2 29 -7.5t10 -26.5q-1 -13 -10 -20q10 -25 19 -51q0 -4 -13 -27q-10 -7 -24 -5
q-10 1 -36 5q-1 0 -12 -5.5t-14 -6.5q-5 1 -19 5l-7 2q-10 3 -27 -6q-12 0 -30 -7l-2 -42q0 -3 2 -12q11 -49 42 -49q13 0 26 7l15 8l22 7l4 -5q5 -6 17 -6q2 0 15.5 6t17.5 7q6 1 23 -18q14 -12 14 -28q0 -5 -1 -11l-8 -19q11 -21 11 -40q0 -7 -2 -15q0 -2 -5 -6t-5 -6
q6 -39 6 -55q0 -25 -18 -25q-4 0 -26 3l-36 5q-16 2 -44 -6q-35 -10 -44 -11q-3 0 -22.5 7.5t-25.5 8.5q9 0 -10 -6.5t-24 -7.5l-11 8.5t-19 9.5q-6 0 -18 -5t-17 -5h-9l-29 10q-3 1 -19.5 -5.5t-21.5 -6.5q-53 -5 -53 56q0 24 5 34q-10 50 -10 45q0 13 8 24l12 16l-9 21v2
l-12 36v4l19 33l-9 24l-1 26q0 4 5.5 19t6.5 19v12l-10 33q-4 13 -4 27q0 21 21 69q-1 2 -13 15.5t-12 20.5q0 11 11 58q7 5 14 14q-9 11 -23 37q-2 5 -2 14q0 10 3 27zM377 829l-66 -43l-162 133l97 64z" />
    <glyph glyph-name="egrave" unicode="&#xe8;" horiz-adv-x="511" 
d="M29 684q12 14 27 14q13 0 46 -14q5 3 28 18q36 0 39 -1l39 -13q6 11 24 25q7 2 19 -3.5t16 -5.5l6 -11l35 13q1 1 19.5 -9.5t21.5 -10.5q10 -3 18 5q13 13 27 18q1 1 7.5 -1.5t7.5 -2.5q38 0 46 -19v0l-6 -25q-1 -5 4.5 -12.5t5.5 -11.5q4 -30 4 -28q0 -18 -18 -28l7 -9
q5 -9 9 -27q3 -13 -5 -23.5t-21 -11.5q-4 0 -25 -4q-16 -3 -26 -1q-3 1 -13.5 7t-13.5 6q-35 0 -60 -20q-14 -11 -14 -25q0 -7 6.5 -15.5t13.5 -8.5q3 0 11 3t12 3h3l31 -8l29 1l9 1l20 2q17 2 29 -7.5t10 -26.5q-1 -13 -10 -20q10 -25 19 -51q0 -4 -13 -27q-10 -7 -24 -5
q-10 1 -36 5q-1 0 -12 -5.5t-14 -6.5q-5 1 -19 5l-7 2q-10 3 -27 -6q-12 0 -30 -7l-2 -42q0 -3 2 -12q11 -49 42 -49q13 0 26 7l15 8l22 7l4 -5q5 -6 17 -6q2 0 15.5 6t17.5 7q6 1 23 -18q14 -12 14 -28q0 -5 -1 -11l-8 -19q11 -21 11 -40q0 -7 -2 -15q0 -2 -5 -6t-5 -6
q6 -39 6 -55q0 -25 -18 -25q-4 0 -26 3l-36 5q-16 2 -44 -6q-35 -10 -44 -11q-3 0 -22.5 7.5t-25.5 8.5q9 0 -10 -6.5t-24 -7.5l-11 8.5t-19 9.5q-6 0 -18 -5t-17 -5h-9l-29 10q-3 1 -19.5 -5.5t-21.5 -6.5q-53 -5 -53 56q0 24 5 34q-10 50 -10 45q0 13 8 24l12 16l-9 21v2
l-12 36v4l19 33l-9 24l-1 26q0 4 5.5 19t6.5 19v12l-10 33q-4 13 -4 27q0 21 21 69q-1 2 -13 15.5t-12 20.5q0 11 11 58q7 5 14 14q-9 11 -23 37q-2 5 -2 14q0 10 3 27zM377 829l-66 -43l-162 133l97 64z" />
    <glyph glyph-name="ecircumflex" unicode="&#xca;" horiz-adv-x="511" 
d="M29 684q12 14 27 14q13 0 46 -14q5 3 28 18q36 0 39 -1l39 -13q6 11 24 25q7 2 19 -3.5t16 -5.5l6 -11l35 13q1 1 19.5 -9.5t21.5 -10.5q10 -3 18 5q13 13 27 18q1 1 7.5 -1.5t7.5 -2.5q38 0 46 -19v0l-6 -25q-1 -5 4.5 -12.5t5.5 -11.5q4 -30 4 -28q0 -18 -18 -28l7 -9
q5 -9 9 -27q3 -13 -5 -23.5t-21 -11.5q-4 0 -25 -4q-16 -3 -26 -1q-3 1 -13.5 7t-13.5 6q-35 0 -60 -20q-14 -11 -14 -25q0 -7 6.5 -15.5t13.5 -8.5q3 0 11 3t12 3h3l31 -8l29 1l9 1l20 2q17 2 29 -7.5t10 -26.5q-1 -13 -10 -20q10 -25 19 -51q0 -4 -13 -27q-10 -7 -24 -5
q-10 1 -36 5q-1 0 -12 -5.5t-14 -6.5q-5 1 -19 5l-7 2q-10 3 -27 -6q-12 0 -30 -7l-2 -42q0 -3 2 -12q11 -49 42 -49q13 0 26 7l15 8l22 7l4 -5q5 -6 17 -6q2 0 15.5 6t17.5 7q6 1 23 -18q14 -12 14 -28q0 -5 -1 -11l-8 -19q11 -21 11 -40q0 -7 -2 -15q0 -2 -5 -6t-5 -6
q6 -39 6 -55q0 -25 -18 -25q-4 0 -26 3l-36 5q-16 2 -44 -6q-35 -10 -44 -11q-3 0 -22.5 7.5t-25.5 8.5q9 0 -10 -6.5t-24 -7.5l-11 8.5t-19 9.5q-6 0 -18 -5t-17 -5h-9l-29 10q-3 1 -19.5 -5.5t-21.5 -6.5q-53 -5 -53 56q0 24 5 34q-10 50 -10 45q0 13 8 24l12 16l-9 21v2
l-12 36v4l19 33l-9 24l-1 26q0 4 5.5 19t6.5 19v12l-10 33q-4 13 -4 27q0 21 21 69q-1 2 -13 15.5t-12 20.5q0 11 11 58q7 5 14 14q-9 11 -23 37q-2 5 -2 14q0 10 3 27zM413 839l-55 -70l-115 73l-116 -72l-54 70l171 114z" />
    <glyph glyph-name="ecircumflex" unicode="&#xea;" horiz-adv-x="511" 
d="M29 684q12 14 27 14q13 0 46 -14q5 3 28 18q36 0 39 -1l39 -13q6 11 24 25q7 2 19 -3.5t16 -5.5l6 -11l35 13q1 1 19.5 -9.5t21.5 -10.5q10 -3 18 5q13 13 27 18q1 1 7.5 -1.5t7.5 -2.5q38 0 46 -19v0l-6 -25q-1 -5 4.5 -12.5t5.5 -11.5q4 -30 4 -28q0 -18 -18 -28l7 -9
q5 -9 9 -27q3 -13 -5 -23.5t-21 -11.5q-4 0 -25 -4q-16 -3 -26 -1q-3 1 -13.5 7t-13.5 6q-35 0 -60 -20q-14 -11 -14 -25q0 -7 6.5 -15.5t13.5 -8.5q3 0 11 3t12 3h3l31 -8l29 1l9 1l20 2q17 2 29 -7.5t10 -26.5q-1 -13 -10 -20q10 -25 19 -51q0 -4 -13 -27q-10 -7 -24 -5
q-10 1 -36 5q-1 0 -12 -5.5t-14 -6.5q-5 1 -19 5l-7 2q-10 3 -27 -6q-12 0 -30 -7l-2 -42q0 -3 2 -12q11 -49 42 -49q13 0 26 7l15 8l22 7l4 -5q5 -6 17 -6q2 0 15.5 6t17.5 7q6 1 23 -18q14 -12 14 -28q0 -5 -1 -11l-8 -19q11 -21 11 -40q0 -7 -2 -15q0 -2 -5 -6t-5 -6
q6 -39 6 -55q0 -25 -18 -25q-4 0 -26 3l-36 5q-16 2 -44 -6q-35 -10 -44 -11q-3 0 -22.5 7.5t-25.5 8.5q9 0 -10 -6.5t-24 -7.5l-11 8.5t-19 9.5q-6 0 -18 -5t-17 -5h-9l-29 10q-3 1 -19.5 -5.5t-21.5 -6.5q-53 -5 -53 56q0 24 5 34q-10 50 -10 45q0 13 8 24l12 16l-9 21v2
l-12 36v4l19 33l-9 24l-1 26q0 4 5.5 19t6.5 19v12l-10 33q-4 13 -4 27q0 21 21 69q-1 2 -13 15.5t-12 20.5q0 11 11 58q7 5 14 14q-9 11 -23 37q-2 5 -2 14q0 10 3 27zM413 839l-55 -70l-115 73l-116 -72l-54 70l171 114z" />
    <glyph glyph-name="edieresis" unicode="&#xcb;" horiz-adv-x="511" 
d="M29 684q12 14 27 14q13 0 46 -14q5 3 28 18q36 0 39 -1l39 -13q6 11 24 25q7 2 19 -3.5t16 -5.5l6 -11l35 13q1 1 19.5 -9.5t21.5 -10.5q10 -3 18 5q13 13 27 18q1 1 7.5 -1.5t7.5 -2.5q38 0 46 -19v0l-6 -25q-1 -5 4.5 -12.5t5.5 -11.5q4 -30 4 -28q0 -18 -18 -28l7 -9
q5 -9 9 -27q3 -13 -5 -23.5t-21 -11.5q-4 0 -25 -4q-16 -3 -26 -1q-3 1 -13.5 7t-13.5 6q-35 0 -60 -20q-14 -11 -14 -25q0 -7 6.5 -15.5t13.5 -8.5q3 0 11 3t12 3h3l31 -8l29 1l9 1l20 2q17 2 29 -7.5t10 -26.5q-1 -13 -10 -20q10 -25 19 -51q0 -4 -13 -27q-10 -7 -24 -5
q-10 1 -36 5q-1 0 -12 -5.5t-14 -6.5q-5 1 -19 5l-7 2q-10 3 -27 -6q-12 0 -30 -7l-2 -42q0 -3 2 -12q11 -49 42 -49q13 0 26 7l15 8l22 7l4 -5q5 -6 17 -6q2 0 15.5 6t17.5 7q6 1 23 -18q14 -12 14 -28q0 -5 -1 -11l-8 -19q11 -21 11 -40q0 -7 -2 -15q0 -2 -5 -6t-5 -6
q6 -39 6 -55q0 -25 -18 -25q-4 0 -26 3l-36 5q-16 2 -44 -6q-35 -10 -44 -11q-3 0 -22.5 7.5t-25.5 8.5q9 0 -10 -6.5t-24 -7.5l-11 8.5t-19 9.5q-6 0 -18 -5t-17 -5h-9l-29 10q-3 1 -19.5 -5.5t-21.5 -6.5q-53 -5 -53 56q0 24 5 34q-10 50 -10 45q0 13 8 24l12 16l-9 21v2
l-12 36v4l19 33l-9 24l-1 26q0 4 5.5 19t6.5 19v12l-10 33q-4 13 -4 27q0 21 21 69q-1 2 -13 15.5t-12 20.5q0 11 11 58q7 5 14 14q-9 11 -23 37q-2 5 -2 14q0 10 3 27zM433 853q0 -29 -22.5 -47.5t-51.5 -18.5q-30 0 -52 18t-22 48q0 29 22 47.5t52 18.5q29 0 51.5 -18.5
t22.5 -47.5zM229 853q0 -29 -22 -47.5t-50 -18.5q-30 0 -52.5 18.5t-22.5 47.5t22.5 47.5t52.5 18.5q28 0 50 -19t22 -47z" />
    <glyph glyph-name="edieresis" unicode="&#xeb;" horiz-adv-x="511" 
d="M29 684q12 14 27 14q13 0 46 -14q5 3 28 18q36 0 39 -1l39 -13q6 11 24 25q7 2 19 -3.5t16 -5.5l6 -11l35 13q1 1 19.5 -9.5t21.5 -10.5q10 -3 18 5q13 13 27 18q1 1 7.5 -1.5t7.5 -2.5q38 0 46 -19v0l-6 -25q-1 -5 4.5 -12.5t5.5 -11.5q4 -30 4 -28q0 -18 -18 -28l7 -9
q5 -9 9 -27q3 -13 -5 -23.5t-21 -11.5q-4 0 -25 -4q-16 -3 -26 -1q-3 1 -13.5 7t-13.5 6q-35 0 -60 -20q-14 -11 -14 -25q0 -7 6.5 -15.5t13.5 -8.5q3 0 11 3t12 3h3l31 -8l29 1l9 1l20 2q17 2 29 -7.5t10 -26.5q-1 -13 -10 -20q10 -25 19 -51q0 -4 -13 -27q-10 -7 -24 -5
q-10 1 -36 5q-1 0 -12 -5.5t-14 -6.5q-5 1 -19 5l-7 2q-10 3 -27 -6q-12 0 -30 -7l-2 -42q0 -3 2 -12q11 -49 42 -49q13 0 26 7l15 8l22 7l4 -5q5 -6 17 -6q2 0 15.5 6t17.5 7q6 1 23 -18q14 -12 14 -28q0 -5 -1 -11l-8 -19q11 -21 11 -40q0 -7 -2 -15q0 -2 -5 -6t-5 -6
q6 -39 6 -55q0 -25 -18 -25q-4 0 -26 3l-36 5q-16 2 -44 -6q-35 -10 -44 -11q-3 0 -22.5 7.5t-25.5 8.5q9 0 -10 -6.5t-24 -7.5l-11 8.5t-19 9.5q-6 0 -18 -5t-17 -5h-9l-29 10q-3 1 -19.5 -5.5t-21.5 -6.5q-53 -5 -53 56q0 24 5 34q-10 50 -10 45q0 13 8 24l12 16l-9 21v2
l-12 36v4l19 33l-9 24l-1 26q0 4 5.5 19t6.5 19v12l-10 33q-4 13 -4 27q0 21 21 69q-1 2 -13 15.5t-12 20.5q0 11 11 58q7 5 14 14q-9 11 -23 37q-2 5 -2 14q0 10 3 27zM433 853q0 -29 -22.5 -47.5t-51.5 -18.5q-30 0 -52 18t-22 48q0 29 22 47.5t52 18.5q29 0 51.5 -18.5
t22.5 -47.5zM229 853q0 -29 -22 -47.5t-50 -18.5q-30 0 -52.5 18.5t-22.5 47.5t22.5 47.5t52.5 18.5q28 0 50 -19t22 -47z" />
    <glyph glyph-name="iacute" unicode="&#xcd;" horiz-adv-x="343" 
d="M97 686q7 14 16 29q11 3 28 -13q8 3 18 3q14 0 65 -20q5 10 16 23q13 4 24 4q41 0 39 -50l-1 -25l-2 -24l-11 -15q0 10 6 -8.5t7 -23.5q3 -22 -12 -78l6 -6q5 -6 11 -22v0l-2 -53l9 -46l-6 -41v-84l-10 -29q0 -4 3.5 -14t3.5 -16l4 -33q-6 -19 -6 -39t6 -39q3 -15 -2 -36
q-8 -33 -30 -33q-6 0 -14 4l-29 6q-11 -8 -36 -17q-2 0 -7.5 5t-7.5 5q-9 1 -22 6l-6 6l-28 -12q-19 -8 -59 6q-8 3 -28 -4l-10 43q-1 0 -2 -1q-4 10 -6 29l1 -1l9 36q1 2 7 9.5t6 11.5v2l-12 25q-1 11 0 33l1 19l1 15q1 3 8 15q5 8 5 15q0 5 -6 15.5t-7 13.5l-7 37
q-4 21 -4 43q0 10 10 52q5 5 12 14q-4 0 -16 19l-10 36v7l9 28q0 13 1 36q2 13 9 21q4 3 7 6l-16 17q-6 6 -7 43q-2 68 39 68q11 0 25 -4q3 -8 10 -19zM313 920l-164 -134l-66 44l131 154z" />
    <glyph glyph-name="iacute" unicode="&#xed;" horiz-adv-x="343" 
d="M97 686q7 14 16 29q11 3 28 -13q8 3 18 3q14 0 65 -20q5 10 16 23q13 4 24 4q41 0 39 -50l-1 -25l-2 -24l-11 -15q0 10 6 -8.5t7 -23.5q3 -22 -12 -78l6 -6q5 -6 11 -22v0l-2 -53l9 -46l-6 -41v-84l-10 -29q0 -4 3.5 -14t3.5 -16l4 -33q-6 -19 -6 -39t6 -39q3 -15 -2 -36
q-8 -33 -30 -33q-6 0 -14 4l-29 6q-11 -8 -36 -17q-2 0 -7.5 5t-7.5 5q-9 1 -22 6l-6 6l-28 -12q-19 -8 -59 6q-8 3 -28 -4l-10 43q-1 0 -2 -1q-4 10 -6 29l1 -1l9 36q1 2 7 9.5t6 11.5v2l-12 25q-1 11 0 33l1 19l1 15q1 3 8 15q5 8 5 15q0 5 -6 15.5t-7 13.5l-7 37
q-4 21 -4 43q0 10 10 52q5 5 12 14q-4 0 -16 19l-10 36v7l9 28q0 13 1 36q2 13 9 21q4 3 7 6l-16 17q-6 6 -7 43q-2 68 39 68q11 0 25 -4q3 -8 10 -19zM313 920l-164 -134l-66 44l131 154z" />
    <glyph glyph-name="igrave" unicode="&#xcc;" horiz-adv-x="343" 
d="M97 686q7 14 16 29q11 3 28 -13q8 3 18 3q14 0 65 -20q5 10 16 23q13 4 24 4q41 0 39 -50l-1 -25l-2 -24l-11 -15q0 10 6 -8.5t7 -23.5q3 -22 -12 -78l6 -6q5 -6 11 -22v0l-2 -53l9 -46l-6 -41v-84l-10 -29q0 -4 3.5 -14t3.5 -16l4 -33q-6 -19 -6 -39t6 -39q3 -15 -2 -36
q-8 -33 -30 -33q-6 0 -14 4l-29 6q-11 -8 -36 -17q-2 0 -7.5 5t-7.5 5q-9 1 -22 6l-6 6l-28 -12q-19 -8 -59 6q-8 3 -28 -4l-10 43q-1 0 -2 -1q-4 10 -6 29l1 -1l9 36q1 2 7 9.5t6 11.5v2l-12 25q-1 11 0 33l1 19l1 15q1 3 8 15q5 8 5 15q0 5 -6 15.5t-7 13.5l-7 37
q-4 21 -4 43q0 10 10 52q5 5 12 14q-4 0 -16 19l-10 36v7l9 28q0 13 1 36q2 13 9 21q4 3 7 6l-16 17q-6 6 -7 43q-2 68 39 68q11 0 25 -4q3 -8 10 -19zM271 829l-66 -43l-162 133l97 64z" />
    <glyph glyph-name="igrave" unicode="&#xec;" horiz-adv-x="343" 
d="M97 686q7 14 16 29q11 3 28 -13q8 3 18 3q14 0 65 -20q5 10 16 23q13 4 24 4q41 0 39 -50l-1 -25l-2 -24l-11 -15q0 10 6 -8.5t7 -23.5q3 -22 -12 -78l6 -6q5 -6 11 -22v0l-2 -53l9 -46l-6 -41v-84l-10 -29q0 -4 3.5 -14t3.5 -16l4 -33q-6 -19 -6 -39t6 -39q3 -15 -2 -36
q-8 -33 -30 -33q-6 0 -14 4l-29 6q-11 -8 -36 -17q-2 0 -7.5 5t-7.5 5q-9 1 -22 6l-6 6l-28 -12q-19 -8 -59 6q-8 3 -28 -4l-10 43q-1 0 -2 -1q-4 10 -6 29l1 -1l9 36q1 2 7 9.5t6 11.5v2l-12 25q-1 11 0 33l1 19l1 15q1 3 8 15q5 8 5 15q0 5 -6 15.5t-7 13.5l-7 37
q-4 21 -4 43q0 10 10 52q5 5 12 14q-4 0 -16 19l-10 36v7l9 28q0 13 1 36q2 13 9 21q4 3 7 6l-16 17q-6 6 -7 43q-2 68 39 68q11 0 25 -4q3 -8 10 -19zM271 829l-66 -43l-162 133l97 64z" />
    <glyph glyph-name="icircumflex" unicode="&#xce;" horiz-adv-x="343" 
d="M97 686q7 14 16 29q11 3 28 -13q8 3 18 3q14 0 65 -20q5 10 16 23q13 4 24 4q41 0 39 -50l-1 -25l-2 -24l-11 -15q0 10 6 -8.5t7 -23.5q3 -22 -12 -78l6 -6q5 -6 11 -22v0l-2 -53l9 -46l-6 -41v-84l-10 -29q0 -4 3.5 -14t3.5 -16l4 -33q-6 -19 -6 -39t6 -39q3 -15 -2 -36
q-8 -33 -30 -33q-6 0 -14 4l-29 6q-11 -8 -36 -17q-2 0 -7.5 5t-7.5 5q-9 1 -22 6l-6 6l-28 -12q-19 -8 -59 6q-8 3 -28 -4l-10 43q-1 0 -2 -1q-4 10 -6 29l1 -1l9 36q1 2 7 9.5t6 11.5v2l-12 25q-1 11 0 33l1 19l1 15q1 3 8 15q5 8 5 15q0 5 -6 15.5t-7 13.5l-7 37
q-4 21 -4 43q0 10 10 52q5 5 12 14q-4 0 -16 19l-10 36v7l9 28q0 13 1 36q2 13 9 21q4 3 7 6l-16 17q-6 6 -7 43q-2 68 39 68q11 0 25 -4q3 -8 10 -19zM331 839l-55 -70l-115 73l-116 -72l-54 70l171 114z" />
    <glyph glyph-name="icircumflex" unicode="&#xee;" horiz-adv-x="343" 
d="M97 686q7 14 16 29q11 3 28 -13q8 3 18 3q14 0 65 -20q5 10 16 23q13 4 24 4q41 0 39 -50l-1 -25l-2 -24l-11 -15q0 10 6 -8.5t7 -23.5q3 -22 -12 -78l6 -6q5 -6 11 -22v0l-2 -53l9 -46l-6 -41v-84l-10 -29q0 -4 3.5 -14t3.5 -16l4 -33q-6 -19 -6 -39t6 -39q3 -15 -2 -36
q-8 -33 -30 -33q-6 0 -14 4l-29 6q-11 -8 -36 -17q-2 0 -7.5 5t-7.5 5q-9 1 -22 6l-6 6l-28 -12q-19 -8 -59 6q-8 3 -28 -4l-10 43q-1 0 -2 -1q-4 10 -6 29l1 -1l9 36q1 2 7 9.5t6 11.5v2l-12 25q-1 11 0 33l1 19l1 15q1 3 8 15q5 8 5 15q0 5 -6 15.5t-7 13.5l-7 37
q-4 21 -4 43q0 10 10 52q5 5 12 14q-4 0 -16 19l-10 36v7l9 28q0 13 1 36q2 13 9 21q4 3 7 6l-16 17q-6 6 -7 43q-2 68 39 68q11 0 25 -4q3 -8 10 -19zM331 839l-55 -70l-115 73l-116 -72l-54 70l171 114z" />
    <glyph glyph-name="idieresis" unicode="&#xcf;" horiz-adv-x="343" 
d="M97 686q7 14 16 29q11 3 28 -13q8 3 18 3q14 0 65 -20q5 10 16 23q13 4 24 4q41 0 39 -50l-1 -25l-2 -24l-11 -15q0 10 6 -8.5t7 -23.5q3 -22 -12 -78l6 -6q5 -6 11 -22v0l-2 -53l9 -46l-6 -41v-84l-10 -29q0 -4 3.5 -14t3.5 -16l4 -33q-6 -19 -6 -39t6 -39q3 -15 -2 -36
q-8 -33 -30 -33q-6 0 -14 4l-29 6q-11 -8 -36 -17q-2 0 -7.5 5t-7.5 5q-9 1 -22 6l-6 6l-28 -12q-19 -8 -59 6q-8 3 -28 -4l-10 43q-1 0 -2 -1q-4 10 -6 29l1 -1l9 36q1 2 7 9.5t6 11.5v2l-12 25q-1 11 0 33l1 19l1 15q1 3 8 15q5 8 5 15q0 5 -6 15.5t-7 13.5l-7 37
q-4 21 -4 43q0 10 10 52q5 5 12 14q-4 0 -16 19l-10 36v7l9 28q0 13 1 36q2 13 9 21q4 3 7 6l-16 17q-6 6 -7 43q-2 68 39 68q11 0 25 -4q3 -8 10 -19zM332 853q0 -29 -22.5 -47.5t-51.5 -18.5q-30 0 -52 18t-22 48q0 29 22 47.5t52 18.5q29 0 51.5 -18.5t22.5 -47.5z
M128 853q0 -29 -22 -47.5t-50 -18.5q-30 0 -52.5 18.5t-22.5 47.5t22.5 47.5t52.5 18.5q28 0 50 -19t22 -47z" />
    <glyph glyph-name="idieresis" unicode="&#xef;" horiz-adv-x="343" 
d="M97 686q7 14 16 29q11 3 28 -13q8 3 18 3q14 0 65 -20q5 10 16 23q13 4 24 4q41 0 39 -50l-1 -25l-2 -24l-11 -15q0 10 6 -8.5t7 -23.5q3 -22 -12 -78l6 -6q5 -6 11 -22v0l-2 -53l9 -46l-6 -41v-84l-10 -29q0 -4 3.5 -14t3.5 -16l4 -33q-6 -19 -6 -39t6 -39q3 -15 -2 -36
q-8 -33 -30 -33q-6 0 -14 4l-29 6q-11 -8 -36 -17q-2 0 -7.5 5t-7.5 5q-9 1 -22 6l-6 6l-28 -12q-19 -8 -59 6q-8 3 -28 -4l-10 43q-1 0 -2 -1q-4 10 -6 29l1 -1l9 36q1 2 7 9.5t6 11.5v2l-12 25q-1 11 0 33l1 19l1 15q1 3 8 15q5 8 5 15q0 5 -6 15.5t-7 13.5l-7 37
q-4 21 -4 43q0 10 10 52q5 5 12 14q-4 0 -16 19l-10 36v7l9 28q0 13 1 36q2 13 9 21q4 3 7 6l-16 17q-6 6 -7 43q-2 68 39 68q11 0 25 -4q3 -8 10 -19zM332 853q0 -29 -22.5 -47.5t-51.5 -18.5q-30 0 -52 18t-22 48q0 29 22 47.5t52 18.5q29 0 51.5 -18.5t22.5 -47.5z
M128 853q0 -29 -22 -47.5t-50 -18.5q-30 0 -52.5 18.5t-22.5 47.5t22.5 47.5t52.5 18.5q28 0 50 -19t22 -47z" />
    <glyph glyph-name="oacute" unicode="&#xd3;" 
d="M29 370l2 15q-7 20 -5 38l1 3l24 67q2 7 22 29q4 4 17 35q8 19 31 33q6 7 36 22h1l28 28q27 27 59 34h35l29 21l15 2l30 3q38 4 58 3q55 -2 77 -7q35 -8 71 -29q8 -5 34 -10q3 -1 23 -26q3 -3 40 -18q17 -7 36 -31q10 -32 41 -53q24 -28 34 -76q2 -10 5 -35
q0 -3 -5 -10.5t-5 -9.5q1 -2 8 -8q9 -10 16 -28q2 -8 1 -43q-1 -52 -29 -82q4 -42 -30 -83q-24 -29 -52 -44q-6 -3 -21 -34q-1 -2 -24 -15q-11 -6 -21 -21l-42 -19q-31 -1 -65 -25q-6 -2 -37 -6l-39 -5l-35 1q-22 1 -33 11l-21 19q-3 0 -14.5 -7t-13.5 -7q-24 2 -58 11l-6 3
l-19 6q-19 6 -26 12q-2 2 -20 22q-6 3 -33 15q-12 5 -32 22q-36 30 -43 68q-4 12 -10 24l-2 4l-10 16q-14 22 -32 87v8l-1 15q-2 30 10 55zM308 363l-12 -33q1 -5 12 -18.5t9 -16.5l-12 -40l21 -52q8 -7 32 -9q23 -2 34 2l50 13q19 5 23 23l10 49q-4 11 -5 27q-2 7 7 15
t10 10q4 13 0 37q0 55 -4 68q-7 23 -34 30l-27 7q-6 1 -21 10.5t-16 9.5q-4 0 -8 -3q-25 -7 -51 -14q-27 -11 -25 -33l4 -37q1 -5 4 -21q3 -13 -1 -24zM533 920l-164 -134l-66 44l131 154z" />
    <glyph glyph-name="oacute" unicode="&#xf3;" 
d="M29 370l2 15q-7 20 -5 38l1 3l24 67q2 7 22 29q4 4 17 35q8 19 31 33q6 7 36 22h1l28 28q27 27 59 34h35l29 21l15 2l30 3q38 4 58 3q55 -2 77 -7q35 -8 71 -29q8 -5 34 -10q3 -1 23 -26q3 -3 40 -18q17 -7 36 -31q10 -32 41 -53q24 -28 34 -76q2 -10 5 -35
q0 -3 -5 -10.5t-5 -9.5q1 -2 8 -8q9 -10 16 -28q2 -8 1 -43q-1 -52 -29 -82q4 -42 -30 -83q-24 -29 -52 -44q-6 -3 -21 -34q-1 -2 -24 -15q-11 -6 -21 -21l-42 -19q-31 -1 -65 -25q-6 -2 -37 -6l-39 -5l-35 1q-22 1 -33 11l-21 19q-3 0 -14.5 -7t-13.5 -7q-24 2 -58 11l-6 3
l-19 6q-19 6 -26 12q-2 2 -20 22q-6 3 -33 15q-12 5 -32 22q-36 30 -43 68q-4 12 -10 24l-2 4l-10 16q-14 22 -32 87v8l-1 15q-2 30 10 55zM308 363l-12 -33q1 -5 12 -18.5t9 -16.5l-12 -40l21 -52q8 -7 32 -9q23 -2 34 2l50 13q19 5 23 23l10 49q-4 11 -5 27q-2 7 7 15
t10 10q4 13 0 37q0 55 -4 68q-7 23 -34 30l-27 7q-6 1 -21 10.5t-16 9.5q-4 0 -8 -3q-25 -7 -51 -14q-27 -11 -25 -33l4 -37q1 -5 4 -21q3 -13 -1 -24zM533 920l-164 -134l-66 44l131 154z" />
    <glyph glyph-name="ograve" unicode="&#xd2;" 
d="M29 370l2 15q-7 20 -5 38l1 3l24 67q2 7 22 29q4 4 17 35q8 19 31 33q6 7 36 22h1l28 28q27 27 59 34h35l29 21l15 2l30 3q38 4 58 3q55 -2 77 -7q35 -8 71 -29q8 -5 34 -10q3 -1 23 -26q3 -3 40 -18q17 -7 36 -31q10 -32 41 -53q24 -28 34 -76q2 -10 5 -35
q0 -3 -5 -10.5t-5 -9.5q1 -2 8 -8q9 -10 16 -28q2 -8 1 -43q-1 -52 -29 -82q4 -42 -30 -83q-24 -29 -52 -44q-6 -3 -21 -34q-1 -2 -24 -15q-11 -6 -21 -21l-42 -19q-31 -1 -65 -25q-6 -2 -37 -6l-39 -5l-35 1q-22 1 -33 11l-21 19q-3 0 -14.5 -7t-13.5 -7q-24 2 -58 11l-6 3
l-19 6q-19 6 -26 12q-2 2 -20 22q-6 3 -33 15q-12 5 -32 22q-36 30 -43 68q-4 12 -10 24l-2 4l-10 16q-14 22 -32 87v8l-1 15q-2 30 10 55zM308 363l-12 -33q1 -5 12 -18.5t9 -16.5l-12 -40l21 -52q8 -7 32 -9q23 -2 34 2l50 13q19 5 23 23l10 49q-4 11 -5 27q-2 7 7 15
t10 10q4 13 0 37q0 55 -4 68q-7 23 -34 30l-27 7q-6 1 -21 10.5t-16 9.5q-4 0 -8 -3q-25 -7 -51 -14q-27 -11 -25 -33l4 -37q1 -5 4 -21q3 -13 -1 -24zM487 829l-66 -43l-162 133l97 64z" />
    <glyph glyph-name="ograve" unicode="&#xf2;" 
d="M29 370l2 15q-7 20 -5 38l1 3l24 67q2 7 22 29q4 4 17 35q8 19 31 33q6 7 36 22h1l28 28q27 27 59 34h35l29 21l15 2l30 3q38 4 58 3q55 -2 77 -7q35 -8 71 -29q8 -5 34 -10q3 -1 23 -26q3 -3 40 -18q17 -7 36 -31q10 -32 41 -53q24 -28 34 -76q2 -10 5 -35
q0 -3 -5 -10.5t-5 -9.5q1 -2 8 -8q9 -10 16 -28q2 -8 1 -43q-1 -52 -29 -82q4 -42 -30 -83q-24 -29 -52 -44q-6 -3 -21 -34q-1 -2 -24 -15q-11 -6 -21 -21l-42 -19q-31 -1 -65 -25q-6 -2 -37 -6l-39 -5l-35 1q-22 1 -33 11l-21 19q-3 0 -14.5 -7t-13.5 -7q-24 2 -58 11l-6 3
l-19 6q-19 6 -26 12q-2 2 -20 22q-6 3 -33 15q-12 5 -32 22q-36 30 -43 68q-4 12 -10 24l-2 4l-10 16q-14 22 -32 87v8l-1 15q-2 30 10 55zM308 363l-12 -33q1 -5 12 -18.5t9 -16.5l-12 -40l21 -52q8 -7 32 -9q23 -2 34 2l50 13q19 5 23 23l10 49q-4 11 -5 27q-2 7 7 15
t10 10q4 13 0 37q0 55 -4 68q-7 23 -34 30l-27 7q-6 1 -21 10.5t-16 9.5q-4 0 -8 -3q-25 -7 -51 -14q-27 -11 -25 -33l4 -37q1 -5 4 -21q3 -13 -1 -24zM487 829l-66 -43l-162 133l97 64z" />
    <glyph glyph-name="ocircumflex" unicode="&#xd4;" 
d="M29 370l2 15q-7 20 -5 38l1 3l24 67q2 7 22 29q4 4 17 35q8 19 31 33q6 7 36 22h1l28 28q27 27 59 34h35l29 21l15 2l30 3q38 4 58 3q55 -2 77 -7q35 -8 71 -29q8 -5 34 -10q3 -1 23 -26q3 -3 40 -18q17 -7 36 -31q10 -32 41 -53q24 -28 34 -76q2 -10 5 -35
q0 -3 -5 -10.5t-5 -9.5q1 -2 8 -8q9 -10 16 -28q2 -8 1 -43q-1 -52 -29 -82q4 -42 -30 -83q-24 -29 -52 -44q-6 -3 -21 -34q-1 -2 -24 -15q-11 -6 -21 -21l-42 -19q-31 -1 -65 -25q-6 -2 -37 -6l-39 -5l-35 1q-22 1 -33 11l-21 19q-3 0 -14.5 -7t-13.5 -7q-24 2 -58 11l-6 3
l-19 6q-19 6 -26 12q-2 2 -20 22q-6 3 -33 15q-12 5 -32 22q-36 30 -43 68q-4 12 -10 24l-2 4l-10 16q-14 22 -32 87v8l-1 15q-2 30 10 55zM308 363l-12 -33q1 -5 12 -18.5t9 -16.5l-12 -40l21 -52q8 -7 32 -9q23 -2 34 2l50 13q19 5 23 23l10 49q-4 11 -5 27q-2 7 7 15
t10 10q4 13 0 37q0 55 -4 68q-7 23 -34 30l-27 7q-6 1 -21 10.5t-16 9.5q-4 0 -8 -3q-25 -7 -51 -14q-27 -11 -25 -33l4 -37q1 -5 4 -21q3 -13 -1 -24zM564 839l-55 -70l-115 73l-116 -72l-54 70l171 114z" />
    <glyph glyph-name="ocircumflex" unicode="&#xf4;" 
d="M29 370l2 15q-7 20 -5 38l1 3l24 67q2 7 22 29q4 4 17 35q8 19 31 33q6 7 36 22h1l28 28q27 27 59 34h35l29 21l15 2l30 3q38 4 58 3q55 -2 77 -7q35 -8 71 -29q8 -5 34 -10q3 -1 23 -26q3 -3 40 -18q17 -7 36 -31q10 -32 41 -53q24 -28 34 -76q2 -10 5 -35
q0 -3 -5 -10.5t-5 -9.5q1 -2 8 -8q9 -10 16 -28q2 -8 1 -43q-1 -52 -29 -82q4 -42 -30 -83q-24 -29 -52 -44q-6 -3 -21 -34q-1 -2 -24 -15q-11 -6 -21 -21l-42 -19q-31 -1 -65 -25q-6 -2 -37 -6l-39 -5l-35 1q-22 1 -33 11l-21 19q-3 0 -14.5 -7t-13.5 -7q-24 2 -58 11l-6 3
l-19 6q-19 6 -26 12q-2 2 -20 22q-6 3 -33 15q-12 5 -32 22q-36 30 -43 68q-4 12 -10 24l-2 4l-10 16q-14 22 -32 87v8l-1 15q-2 30 10 55zM308 363l-12 -33q1 -5 12 -18.5t9 -16.5l-12 -40l21 -52q8 -7 32 -9q23 -2 34 2l50 13q19 5 23 23l10 49q-4 11 -5 27q-2 7 7 15
t10 10q4 13 0 37q0 55 -4 68q-7 23 -34 30l-27 7q-6 1 -21 10.5t-16 9.5q-4 0 -8 -3q-25 -7 -51 -14q-27 -11 -25 -33l4 -37q1 -5 4 -21q3 -13 -1 -24zM564 839l-55 -70l-115 73l-116 -72l-54 70l171 114z" />
    <glyph glyph-name="otilde" unicode="&#xd5;" 
d="M29 370l2 15q-7 20 -5 38l1 3l24 67q2 7 22 29q4 4 17 35q8 19 31 33q6 7 36 22h1l28 28q27 27 59 34h35l29 21l15 2l30 3q38 4 58 3q55 -2 77 -7q35 -8 71 -29q8 -5 34 -10q3 -1 23 -26q3 -3 40 -18q17 -7 36 -31q10 -32 41 -53q24 -28 34 -76q2 -10 5 -35
q0 -3 -5 -10.5t-5 -9.5q1 -2 8 -8q9 -10 16 -28q2 -8 1 -43q-1 -52 -29 -82q4 -42 -30 -83q-24 -29 -52 -44q-6 -3 -21 -34q-1 -2 -24 -15q-11 -6 -21 -21l-42 -19q-31 -1 -65 -25q-6 -2 -37 -6l-39 -5l-35 1q-22 1 -33 11l-21 19q-3 0 -14.5 -7t-13.5 -7q-24 2 -58 11l-6 3
l-19 6q-19 6 -26 12q-2 2 -20 22q-6 3 -33 15q-12 5 -32 22q-36 30 -43 68q-4 12 -10 24l-2 4l-10 16q-14 22 -32 87v8l-1 15q-2 30 10 55zM308 363l-12 -33q1 -5 12 -18.5t9 -16.5l-12 -40l21 -52q8 -7 32 -9q23 -2 34 2l50 13q19 5 23 23l10 49q-4 11 -5 27q-2 7 7 15
t10 10q4 13 0 37q0 55 -4 68q-7 23 -34 30l-27 7q-6 1 -21 10.5t-16 9.5q-4 0 -8 -3q-25 -7 -51 -14q-27 -11 -25 -33l4 -37q1 -5 4 -21q3 -13 -1 -24zM584 885q-49 -94 -122 -94q-27 0 -75 23.5t-63 23.5q-29 0 -51 -44l-65 47q48 89 122 89q29 0 73 -24t60 -24q28 0 55 47
z" />
    <glyph glyph-name="otilde" unicode="&#xf5;" 
d="M29 370l2 15q-7 20 -5 38l1 3l24 67q2 7 22 29q4 4 17 35q8 19 31 33q6 7 36 22h1l28 28q27 27 59 34h35l29 21l15 2l30 3q38 4 58 3q55 -2 77 -7q35 -8 71 -29q8 -5 34 -10q3 -1 23 -26q3 -3 40 -18q17 -7 36 -31q10 -32 41 -53q24 -28 34 -76q2 -10 5 -35
q0 -3 -5 -10.5t-5 -9.5q1 -2 8 -8q9 -10 16 -28q2 -8 1 -43q-1 -52 -29 -82q4 -42 -30 -83q-24 -29 -52 -44q-6 -3 -21 -34q-1 -2 -24 -15q-11 -6 -21 -21l-42 -19q-31 -1 -65 -25q-6 -2 -37 -6l-39 -5l-35 1q-22 1 -33 11l-21 19q-3 0 -14.5 -7t-13.5 -7q-24 2 -58 11l-6 3
l-19 6q-19 6 -26 12q-2 2 -20 22q-6 3 -33 15q-12 5 -32 22q-36 30 -43 68q-4 12 -10 24l-2 4l-10 16q-14 22 -32 87v8l-1 15q-2 30 10 55zM308 363l-12 -33q1 -5 12 -18.5t9 -16.5l-12 -40l21 -52q8 -7 32 -9q23 -2 34 2l50 13q19 5 23 23l10 49q-4 11 -5 27q-2 7 7 15
t10 10q4 13 0 37q0 55 -4 68q-7 23 -34 30l-27 7q-6 1 -21 10.5t-16 9.5q-4 0 -8 -3q-25 -7 -51 -14q-27 -11 -25 -33l4 -37q1 -5 4 -21q3 -13 -1 -24zM584 885q-49 -94 -122 -94q-27 0 -75 23.5t-63 23.5q-29 0 -51 -44l-65 47q48 89 122 89q29 0 73 -24t60 -24q28 0 55 47
z" />
    <glyph glyph-name="uacute" unicode="&#xda;" horiz-adv-x="694" 
d="M35 695q4 8 11 10t12 -3l9 -9q2 -2 4 -2q4 0 11 5q11 -6 18 -6q10 0 47 17q17 8 49 -10l13 -14h4l23 14q16 10 29 10q28 0 24 -64l-3 -46q-5 -15 -11 -24q-2 -2 19 -44q1 -3 -2 -49q6 -4 6 -15t-5 -22q-2 -2 -4 -3q0 -4 6 -12.5t6 -12.5l-1 -7l-11 -18q-4 -7 -3 -17
q3 -15 3 -13q2 -9 -14 -25q17 -22 16 -65q-1 -4 6 -24q5 -2 19 -14q2 -10 9 -24q8 -7 19 -7q41 0 42 75q0 9 -8 26t-9 24l11 99l9 31q1 3 1 10q0 2 -11.5 23t-9.5 42q5 8 18 50q1 5 3 13q-2 5 -8 43q-3 17 -1 30q4 36 48 36q31 0 46 -15l44 17l15 -2l9 -1l19 -1h5q7 0 25 -7
q1 -1 21 12q4 2 7 2q26 -1 33 -13q4 -7 5 -37l1 -37q-1 -15 -8 -35q-5 -14 -4 -16q0 -3 10 -26v-1l-7 -44q-1 -8 12 -48q0 -1 -8 -29q-1 -4 3 -27l8 -44q3 -17 3 -31q0 -30 -30 -57q2 -11 16 -21q2 -1 3 -39q0 -26 3 -40q2 -7 -3 -25q-1 -4 9 -21l3 -5q18 -4 18 -14
q0 -6 -4 -9q19 -31 19 -55q0 -33 -40 -33h-2l-30 -11q-7 3 -15 7q-14 5 -30 4q-3 0 -21.5 7.5t-23.5 8.5q-6 -1 -19 -9.5t-22 -8.5q-28 0 -37 3.5t-26 22.5q-6 6 -27 7q-14 0 -27 -4l-3 -1l-17 -20q-9 1 -31 -2q-23 -6 -46 -6q-13 0 -27 2q-29 11 -63 11l-25 18q-2 1 -28 9
q-7 -3 -26 4q-4 9 -12 26v1l-29 23l4 20l-11 32q-1 3 -16 14t-18.5 20.5t-2.5 27.5q2 34 2 29v8q3 7 3 16q0 8 -4 24.5t-4 24.5q0 6 1 11q5 2 13 37v3l-13 34q0 20 1 43q5 11 5 26v2l-14 28q-2 4 -2 10q0 7 8 29l9 27q2 11 4 18q4 0 4 4q0 8 -14 30q-4 16 -2 42q1 22 7 42z
M503 920l-164 -134l-66 44l131 154z" />
    <glyph glyph-name="uacute" unicode="&#xfa;" horiz-adv-x="694" 
d="M35 695q4 8 11 10t12 -3l9 -9q2 -2 4 -2q4 0 11 5q11 -6 18 -6q10 0 47 17q17 8 49 -10l13 -14h4l23 14q16 10 29 10q28 0 24 -64l-3 -46q-5 -15 -11 -24q-2 -2 19 -44q1 -3 -2 -49q6 -4 6 -15t-5 -22q-2 -2 -4 -3q0 -4 6 -12.5t6 -12.5l-1 -7l-11 -18q-4 -7 -3 -17
q3 -15 3 -13q2 -9 -14 -25q17 -22 16 -65q-1 -4 6 -24q5 -2 19 -14q2 -10 9 -24q8 -7 19 -7q41 0 42 75q0 9 -8 26t-9 24l11 99l9 31q1 3 1 10q0 2 -11.5 23t-9.5 42q5 8 18 50q1 5 3 13q-2 5 -8 43q-3 17 -1 30q4 36 48 36q31 0 46 -15l44 17l15 -2l9 -1l19 -1h5q7 0 25 -7
q1 -1 21 12q4 2 7 2q26 -1 33 -13q4 -7 5 -37l1 -37q-1 -15 -8 -35q-5 -14 -4 -16q0 -3 10 -26v-1l-7 -44q-1 -8 12 -48q0 -1 -8 -29q-1 -4 3 -27l8 -44q3 -17 3 -31q0 -30 -30 -57q2 -11 16 -21q2 -1 3 -39q0 -26 3 -40q2 -7 -3 -25q-1 -4 9 -21l3 -5q18 -4 18 -14
q0 -6 -4 -9q19 -31 19 -55q0 -33 -40 -33h-2l-30 -11q-7 3 -15 7q-14 5 -30 4q-3 0 -21.5 7.5t-23.5 8.5q-6 -1 -19 -9.5t-22 -8.5q-28 0 -37 3.5t-26 22.5q-6 6 -27 7q-14 0 -27 -4l-3 -1l-17 -20q-9 1 -31 -2q-23 -6 -46 -6q-13 0 -27 2q-29 11 -63 11l-25 18q-2 1 -28 9
q-7 -3 -26 4q-4 9 -12 26v1l-29 23l4 20l-11 32q-1 3 -16 14t-18.5 20.5t-2.5 27.5q2 34 2 29v8q3 7 3 16q0 8 -4 24.5t-4 24.5q0 6 1 11q5 2 13 37v3l-13 34q0 20 1 43q5 11 5 26v2l-14 28q-2 4 -2 10q0 7 8 29l9 27q2 11 4 18q4 0 4 4q0 8 -14 30q-4 16 -2 42q1 22 7 42z
M503 920l-164 -134l-66 44l131 154z" />
    <glyph glyph-name="ugrave" unicode="&#xd9;" horiz-adv-x="694" 
d="M35 695q4 8 11 10t12 -3l9 -9q2 -2 4 -2q4 0 11 5q11 -6 18 -6q10 0 47 17q17 8 49 -10l13 -14h4l23 14q16 10 29 10q28 0 24 -64l-3 -46q-5 -15 -11 -24q-2 -2 19 -44q1 -3 -2 -49q6 -4 6 -15t-5 -22q-2 -2 -4 -3q0 -4 6 -12.5t6 -12.5l-1 -7l-11 -18q-4 -7 -3 -17
q3 -15 3 -13q2 -9 -14 -25q17 -22 16 -65q-1 -4 6 -24q5 -2 19 -14q2 -10 9 -24q8 -7 19 -7q41 0 42 75q0 9 -8 26t-9 24l11 99l9 31q1 3 1 10q0 2 -11.5 23t-9.5 42q5 8 18 50q1 5 3 13q-2 5 -8 43q-3 17 -1 30q4 36 48 36q31 0 46 -15l44 17l15 -2l9 -1l19 -1h5q7 0 25 -7
q1 -1 21 12q4 2 7 2q26 -1 33 -13q4 -7 5 -37l1 -37q-1 -15 -8 -35q-5 -14 -4 -16q0 -3 10 -26v-1l-7 -44q-1 -8 12 -48q0 -1 -8 -29q-1 -4 3 -27l8 -44q3 -17 3 -31q0 -30 -30 -57q2 -11 16 -21q2 -1 3 -39q0 -26 3 -40q2 -7 -3 -25q-1 -4 9 -21l3 -5q18 -4 18 -14
q0 -6 -4 -9q19 -31 19 -55q0 -33 -40 -33h-2l-30 -11q-7 3 -15 7q-14 5 -30 4q-3 0 -21.5 7.5t-23.5 8.5q-6 -1 -19 -9.5t-22 -8.5q-28 0 -37 3.5t-26 22.5q-6 6 -27 7q-14 0 -27 -4l-3 -1l-17 -20q-9 1 -31 -2q-23 -6 -46 -6q-13 0 -27 2q-29 11 -63 11l-25 18q-2 1 -28 9
q-7 -3 -26 4q-4 9 -12 26v1l-29 23l4 20l-11 32q-1 3 -16 14t-18.5 20.5t-2.5 27.5q2 34 2 29v8q3 7 3 16q0 8 -4 24.5t-4 24.5q0 6 1 11q5 2 13 37v3l-13 34q0 20 1 43q5 11 5 26v2l-14 28q-2 4 -2 10q0 7 8 29l9 27q2 11 4 18q4 0 4 4q0 8 -14 30q-4 16 -2 42q1 22 7 42z
M427 829l-66 -43l-162 133l97 64z" />
    <glyph glyph-name="ugrave" unicode="&#xf9;" horiz-adv-x="694" 
d="M35 695q4 8 11 10t12 -3l9 -9q2 -2 4 -2q4 0 11 5q11 -6 18 -6q10 0 47 17q17 8 49 -10l13 -14h4l23 14q16 10 29 10q28 0 24 -64l-3 -46q-5 -15 -11 -24q-2 -2 19 -44q1 -3 -2 -49q6 -4 6 -15t-5 -22q-2 -2 -4 -3q0 -4 6 -12.5t6 -12.5l-1 -7l-11 -18q-4 -7 -3 -17
q3 -15 3 -13q2 -9 -14 -25q17 -22 16 -65q-1 -4 6 -24q5 -2 19 -14q2 -10 9 -24q8 -7 19 -7q41 0 42 75q0 9 -8 26t-9 24l11 99l9 31q1 3 1 10q0 2 -11.5 23t-9.5 42q5 8 18 50q1 5 3 13q-2 5 -8 43q-3 17 -1 30q4 36 48 36q31 0 46 -15l44 17l15 -2l9 -1l19 -1h5q7 0 25 -7
q1 -1 21 12q4 2 7 2q26 -1 33 -13q4 -7 5 -37l1 -37q-1 -15 -8 -35q-5 -14 -4 -16q0 -3 10 -26v-1l-7 -44q-1 -8 12 -48q0 -1 -8 -29q-1 -4 3 -27l8 -44q3 -17 3 -31q0 -30 -30 -57q2 -11 16 -21q2 -1 3 -39q0 -26 3 -40q2 -7 -3 -25q-1 -4 9 -21l3 -5q18 -4 18 -14
q0 -6 -4 -9q19 -31 19 -55q0 -33 -40 -33h-2l-30 -11q-7 3 -15 7q-14 5 -30 4q-3 0 -21.5 7.5t-23.5 8.5q-6 -1 -19 -9.5t-22 -8.5q-28 0 -37 3.5t-26 22.5q-6 6 -27 7q-14 0 -27 -4l-3 -1l-17 -20q-9 1 -31 -2q-23 -6 -46 -6q-13 0 -27 2q-29 11 -63 11l-25 18q-2 1 -28 9
q-7 -3 -26 4q-4 9 -12 26v1l-29 23l4 20l-11 32q-1 3 -16 14t-18.5 20.5t-2.5 27.5q2 34 2 29v8q3 7 3 16q0 8 -4 24.5t-4 24.5q0 6 1 11q5 2 13 37v3l-13 34q0 20 1 43q5 11 5 26v2l-14 28q-2 4 -2 10q0 7 8 29l9 27q2 11 4 18q4 0 4 4q0 8 -14 30q-4 16 -2 42q1 22 7 42z
M427 829l-66 -43l-162 133l97 64z" />
    <glyph glyph-name="ucircumflex" unicode="&#xdb;" horiz-adv-x="694" 
d="M35 695q4 8 11 10t12 -3l9 -9q2 -2 4 -2q4 0 11 5q11 -6 18 -6q10 0 47 17q17 8 49 -10l13 -14h4l23 14q16 10 29 10q28 0 24 -64l-3 -46q-5 -15 -11 -24q-2 -2 19 -44q1 -3 -2 -49q6 -4 6 -15t-5 -22q-2 -2 -4 -3q0 -4 6 -12.5t6 -12.5l-1 -7l-11 -18q-4 -7 -3 -17
q3 -15 3 -13q2 -9 -14 -25q17 -22 16 -65q-1 -4 6 -24q5 -2 19 -14q2 -10 9 -24q8 -7 19 -7q41 0 42 75q0 9 -8 26t-9 24l11 99l9 31q1 3 1 10q0 2 -11.5 23t-9.5 42q5 8 18 50q1 5 3 13q-2 5 -8 43q-3 17 -1 30q4 36 48 36q31 0 46 -15l44 17l15 -2l9 -1l19 -1h5q7 0 25 -7
q1 -1 21 12q4 2 7 2q26 -1 33 -13q4 -7 5 -37l1 -37q-1 -15 -8 -35q-5 -14 -4 -16q0 -3 10 -26v-1l-7 -44q-1 -8 12 -48q0 -1 -8 -29q-1 -4 3 -27l8 -44q3 -17 3 -31q0 -30 -30 -57q2 -11 16 -21q2 -1 3 -39q0 -26 3 -40q2 -7 -3 -25q-1 -4 9 -21l3 -5q18 -4 18 -14
q0 -6 -4 -9q19 -31 19 -55q0 -33 -40 -33h-2l-30 -11q-7 3 -15 7q-14 5 -30 4q-3 0 -21.5 7.5t-23.5 8.5q-6 -1 -19 -9.5t-22 -8.5q-28 0 -37 3.5t-26 22.5q-6 6 -27 7q-14 0 -27 -4l-3 -1l-17 -20q-9 1 -31 -2q-23 -6 -46 -6q-13 0 -27 2q-29 11 -63 11l-25 18q-2 1 -28 9
q-7 -3 -26 4q-4 9 -12 26v1l-29 23l4 20l-11 32q-1 3 -16 14t-18.5 20.5t-2.5 27.5q2 34 2 29v8q3 7 3 16q0 8 -4 24.5t-4 24.5q0 6 1 11q5 2 13 37v3l-13 34q0 20 1 43q5 11 5 26v2l-14 28q-2 4 -2 10q0 7 8 29l9 27q2 11 4 18q4 0 4 4q0 8 -14 30q-4 16 -2 42q1 22 7 42z
M514 839l-55 -70l-115 73l-116 -72l-54 70l171 114z" />
    <glyph glyph-name="ucircumflex" unicode="&#xfb;" horiz-adv-x="694" 
d="M35 695q4 8 11 10t12 -3l9 -9q2 -2 4 -2q4 0 11 5q11 -6 18 -6q10 0 47 17q17 8 49 -10l13 -14h4l23 14q16 10 29 10q28 0 24 -64l-3 -46q-5 -15 -11 -24q-2 -2 19 -44q1 -3 -2 -49q6 -4 6 -15t-5 -22q-2 -2 -4 -3q0 -4 6 -12.5t6 -12.5l-1 -7l-11 -18q-4 -7 -3 -17
q3 -15 3 -13q2 -9 -14 -25q17 -22 16 -65q-1 -4 6 -24q5 -2 19 -14q2 -10 9 -24q8 -7 19 -7q41 0 42 75q0 9 -8 26t-9 24l11 99l9 31q1 3 1 10q0 2 -11.5 23t-9.5 42q5 8 18 50q1 5 3 13q-2 5 -8 43q-3 17 -1 30q4 36 48 36q31 0 46 -15l44 17l15 -2l9 -1l19 -1h5q7 0 25 -7
q1 -1 21 12q4 2 7 2q26 -1 33 -13q4 -7 5 -37l1 -37q-1 -15 -8 -35q-5 -14 -4 -16q0 -3 10 -26v-1l-7 -44q-1 -8 12 -48q0 -1 -8 -29q-1 -4 3 -27l8 -44q3 -17 3 -31q0 -30 -30 -57q2 -11 16 -21q2 -1 3 -39q0 -26 3 -40q2 -7 -3 -25q-1 -4 9 -21l3 -5q18 -4 18 -14
q0 -6 -4 -9q19 -31 19 -55q0 -33 -40 -33h-2l-30 -11q-7 3 -15 7q-14 5 -30 4q-3 0 -21.5 7.5t-23.5 8.5q-6 -1 -19 -9.5t-22 -8.5q-28 0 -37 3.5t-26 22.5q-6 6 -27 7q-14 0 -27 -4l-3 -1l-17 -20q-9 1 -31 -2q-23 -6 -46 -6q-13 0 -27 2q-29 11 -63 11l-25 18q-2 1 -28 9
q-7 -3 -26 4q-4 9 -12 26v1l-29 23l4 20l-11 32q-1 3 -16 14t-18.5 20.5t-2.5 27.5q2 34 2 29v8q3 7 3 16q0 8 -4 24.5t-4 24.5q0 6 1 11q5 2 13 37v3l-13 34q0 20 1 43q5 11 5 26v2l-14 28q-2 4 -2 10q0 7 8 29l9 27q2 11 4 18q4 0 4 4q0 8 -14 30q-4 16 -2 42q1 22 7 42z
M514 839l-55 -70l-115 73l-116 -72l-54 70l171 114z" />
    <glyph glyph-name="dagger" unicode="&#x2020;" horiz-adv-x="578" 
d="M371 395v-589h-165v589h-188v147h188v211h165v-211h188v-147h-188z" />
    <glyph glyph-name="degree" unicode="&#xb0;" horiz-adv-x="400" 
d="M347 557q0 -62 -42.5 -104.5t-104.5 -42.5t-104.5 42t-42.5 104q0 63 42 105t105 42t105 -41.5t42 -104.5zM297 556q0 41 -28.5 72t-69.5 31h-6q-37 0 -64 -32t-27 -70q0 -39 28 -71t67 -32q42 0 71 30t29 72z" />
    <glyph glyph-name="cent" unicode="&#xa2;" horiz-adv-x="458" 
d="M45 310q7 22 15 34q18 27 21 29q13 13 37 15l24 2q2 28 25 44q7 3 17 5v13q3 7 11 27q-3 1 -13 19q-6 11 6 15q6 2 22 -2q24 -6 39 -8q8 -1 19.5 5.5l11.5 6.5q6 1 12 -38l4 -26q2 -13 11 -13q11 0 40 16q5 2 17 -6q18 -12 26 -15t30 9q5 3 7 -2q8 -8 16 -25
q2 -16 -21 -61q-4 -8 5 -27q10 -11 10 -24q0 -39 -52 -39q-37 0 -69 23q-5 -4 -17 -19q-7 -9 -21 -13q-10 2 -25 4q-23 -5 -18 -32q0 -4 4 -10q8 -11 45 -10q7 -9 22 -24q-3 0 -4 2q0 3 12 11q17 13 26 15q-3 0 -4 -1q2 -3 12 -7q17 -9 31 -12q12 -3 41 5q7 -7 7 -10
q0 5 -14 -37q1 -16 5 -66q0 -3 1 -11q3 -25 4 -27q0 -2 -2 -2l-5 2q-6 1 -12 1q-13 0 -29 -7l-37 -16q-13 24 -26 24q-3 0 -7 -2q-10 -8 -11 -23q1 2 2 -28q2 -41 -29 -41q-7 0 -18 2l-49 9q-16 8 -16 23q0 10 13 25q3 4 -3 28q-2 17 -15 14q-11 -2 -21 -5q-4 -4 -11 -4
q-13 0 -35 12q-35 19 -35 65q-33 -2 -41 52q-1 4 4.5 15t5.5 15q0 7 -6 11l-19 16v1q-3 9 16 43q3 5 -8 22q-5 8 16 13z" />
    <glyph glyph-name="sterling" unicode="&#xa3;" horiz-adv-x="579" 
d="M138 161l-4 37q15 8 15 20q0 11 -13 35q-3 5 2 41l-24 3q-1 0 -10.5 7.5t-12.5 8.5q-20 -21 -26 -20q-13 1 -18 14l8 22q1 2 -5 15t-6 17q20 -5 46 0q24 5 22 17q-2 4 -8 9q-12 6 -17 12q-31 25 -31 46q0 10 7 37q1 4 -4 19t-5 19q18 31 31 69q10 21 33 59q41 -2 66 23
q4 4 6 7h1l25 4q7 -1 14 -1q12 0 25 10l35 26l3 1q2 -4 40 -7q13 8 40 18q6 2 19 -5l12 -36l6 -7l4 -5q14 -6 32 -16q-1 -2 -1 -7q0 -10 3 -29q7 -3 27 -21q2 -3 -2 -14q-5 -15 -5 -16q7 -2 15 -12.5t8 -17.5q0 -5 -10 -9q-17 -7 -26 -14l-22 -17l-50 10q-8 -26 -11 -32
q-8 -16 -25 -31q-1 -1 -1 -3q0 -1 8 -18t8 -26v-45q16 1 26 0l10 -1l19 -14q1 0 13.5 6.5t16.5 7.5q9 2 16 2q26 0 27 -27q2 -51 -24 -51q-6 0 -14 3q-1 -1 -3 -2q-5 0 -16 10l-6 8q-6 2 -13 2q-12 0 -26 -5l-25 -22q2 -15 -2 -42q-2 -3 -7 -10l9 -7q9 2 18 2q19 0 38 -8
q2 0 17.5 -4t16.5 -3l22 12l18 9l5 -4q4 -4 19 -6q3 -1 9 -1q9 0 24 3q5 0 15 -9q1 -5 1 -10q0 -27 -26 -57l8 -5q8 -5 15 -24q4 -7 -9 -40l-14 -36q14 -28 -1 -32q-10 -3 -20 -3q-32 -1 -61 11h-1l-37 -9q-12 -3 -42 -2q-13 11 -28 13h-2l-28 -5l-32 6q-5 1 -18 -3
q-16 -4 -21 -4l-15 -1l-24 -14q-3 -1 -19 5.5t-19 7.5q-19 2 -39 8q-15 -13 -29 -13h-2l-27 14l-32 -6q-22 -4 -22 19q0 4 1 7q10 16 31 29q-1 7 4 37q6 5 32 35q5 7 49 26z" />
    <glyph glyph-name="section" unicode="&#xa7;" horiz-adv-x="596" 
d="M566 307q0 -91 -85 -151q43 -48 43 -109q0 -89 -69 -142q-63 -48 -155 -48t-166 57q-67 51 -65 97l115 38q10 -26 46.5 -47t65.5 -21q33 0 58 19t25 50q0 28 -26 47q-14 11 -50 27l-120 53q-76 35 -105 60q-48 41 -48 106q0 90 93 150q-35 43 -35 94q0 80 68 128
q61 43 144 43q74 0 132 -28q69 -35 84 -99l-115 -38q-17 53 -100 53q-27 0 -47 -17t-20 -44q0 -26 25 -44q7 -6 47 -25l117 -54q68 -32 98 -58q45 -39 45 -97zM428 286q0 28 -49 52l-179 87q-34 -27 -34 -66q0 -32 56 -58l173 -80q33 31 33 65z" />
    <glyph glyph-name="bullet" unicode="&#x2022;" horiz-adv-x="336" 
d="M28 350q0 58 41 99t99 41t99 -41t41 -99t-41 -99t-99 -41t-99 41t-41 99z" />
    <glyph glyph-name="paragraph" unicode="&#xb6;" horiz-adv-x="537" 
d="M497 -172h-75v829h-116v-829h-75v516q-93 0 -151 48q-63 52 -63 142t66 140q59 44 152 44h262v-890z" />
    <glyph glyph-name="germandbls" unicode="&#xdf;" horiz-adv-x="629" 
d="M609 256q0 -130 -88 -206q-86 -72 -217 -65v134q54 0 93 35t39 89t-38.5 86t-93.5 30v130q39 -1 65 23.5t26 63.5q0 35 -25 55.5t-61 20.5q-78 0 -78 -111v-541h-171v586q0 100 66 160q63 57 165 57q105 0 176 -46q83 -54 83 -153q0 -94 -74 -143q61 -29 97 -84t36 -121z
" />
    <glyph glyph-name="registered" unicode="&#xae;" horiz-adv-x="760" 
d="M32 402q-1 -61 9 -95q4 -13 19 -39.5t18 -43t16 -22.5q23 -10 28 -18q8 -18 15 -35q13 -29 43 -29q19 0 20 -11q2 -18 10 -25t62 -27q7 -3 27.5 3.5t26.5 4.5t29 -13q17 -8 30 -8q41 0 59 21q15 -10 21 -12q6 14 17 30q5 3 17 1q15 -2 22 -1q75 14 97 59q2 17 12 44
q17 8 38 21q9 11 27 73q3 2 9 15q15 33 15 71q0 100 -36 109l8 39q0 19 -11 38q-9 5 -23 18q-17 29 -50.5 57t-34.5 30q-11 24 -20.5 31.5t-36.5 11.5q-13 2 -48 15q-30 11 -50 11q-8 0 -24.5 -9t-18.5 -9q-3 0 -17 8.5t-25 6.5q-14 -2 -28.5 -15t-26.5 -13q-5 0 -17 2
q-10 2 -17 0q-24 -6 -71 -53q-17 -10 -50 -33q-7 -5 -9.5 -16.5t-4.5 -21.5q-5 -12 -37 -48q-25 -29 -25 -53q0 -6 2.5 -17.5t2.5 -17.5t-2 -12q-8 -5 -17 -23zM353 680h79q17 0 47 -9t44 -18q6 -4 15 -20t16 -21q4 -3 47 -25q26 -13 41 -36q9 -14 15 -90q2 -8 9.5 -18
t9.5 -15q3 -9 3 -50l-8 2q-2 -9 3 -24t5 -21q1 -8 -9 -20l-10 -12l-8 -34q-4 -18 -12 -23q-13 -9 -26 -32q-10 -18 -20 -37q-2 -2 -25 -24l-14 -16q-23 -15 -59 -15q-4 0 -11 3t-10 3q-11 0 -27 -31q-9 2 -18 2q-11 0 -32.5 -8.5t-32.5 -8.5q-10 0 -21.5 11t-19.5 11
q-7 0 -20.5 -3t-20.5 -3q-22 0 -65 49q-4 5 -13.5 6t-12.5 3q-8 5 -30 43q-4 7 -22.5 15t-22.5 13v17q-3 14 -20 58q-14 36 -14 62q0 -4 10 36q-2 16 -2 52q8 65 71 135q44 49 136 75q5 1 27 11q16 7 28 7zM254 555q13 9 21 9h2l21 -1q15 -1 30 -3l2 -1q4 -2 8 -2q6 0 13 10
v-5q10 6 20 6t18 -6q23 8 42 5q29 -4 41 -19q1 -1 11 3q6 1 15.5 -9t11.5 -17q30 -14 30 -44q0 -8 -4 -14q-2 0 11 -8q5 -3 1 -43q0 -4 -10 -17q-2 -20 -4 -26q-4 -11 -16 -21q-4 -4 -8 -6q-16 3 -25 -11q-3 -4 0 -7q27 -11 31 -11q2 0 13 8q14 10 20 -4q2 -7 2 -18
q0 -10 -6 -22q0 -2 2 -7l3 -7q1 -4 -4 -14q-8 -2 -8 -6q0 -2 1 -4q12 -12 12 -18t-7.5 -10.5t-13.5 -3.5h-11l-6 1q-18 1 -25 7q-14 -7 -25 -7q-28 0 -42 25q-11 2 -39 30q-3 2 -5 2q-7 0 -13 -15q-1 -6 -1 -9v-1l3 -7q1 -2 1 -5q1 -22 -15 -22q-11 0 -22 8q-10 -6 -21 -6
q-9 0 -18 4q-1 1 -7 4q-11 -11 -28 -10q-30 3 -28 33l1 20q1 6 4 19t-5 25l-1 4q0 19 7 26v1l-6 14q-5 13 -1 45q3 20 10 29l-9 13q-1 11 -1 24q0 12 1 27q12 5 8 13l-10 11q-6 5 -2 24q5 24 16 24q6 0 14 -7zM370 399q2 -6 2 -13q0 -12 -7 -25l18 -12l9 2q3 9 7 12
q9 7 13 22q5 20 8 26q-9 20 -9 17q4 18 3 22q0 4 -11 21l-6 9h-10q-21 -4 -26 -22l11 -23q0 -5 -3 -10l-8 -14v-4q4 -3 9 -8z" />
    <glyph glyph-name="copyright" unicode="&#xa9;" horiz-adv-x="767" 
d="M726 402q1 -61 -9 -95q-4 -13 -19 -39.5t-18 -43t-16 -22.5q-22 -10 -28 -18q-13 -33 -19 -43q-15 -21 -39 -21q-18 0 -20 -11q-3 -18 -11.5 -25.5t-60.5 -26.5q-7 -3 -27 3.5t-27 4.5q-6 -2 -30 -12q-18 -9 -29 -9q-41 0 -59 21q-15 -10 -21 -12q-6 14 -17 30
q-5 3 -17 1q-15 -2 -22 -1q-75 14 -97 59q-2 17 -11 44q-18 8 -39 21q-9 11 -27 73q-2 0 -9 15q-15 33 -15 71q0 100 36 109l-8 39q0 19 11 38q10 5 23 18q8 14 24.5 41t32.5 27q21 0 29 19q12 27 18 31q12 8 38 12q13 2 48 15q30 11 50 11q8 0 24.5 -9t18.5 -9q3 0 17 8.5
t25 6.5q13 -2 26.5 -13.5t17.5 -12.5q9 -3 23 -0.5t22 0.5q21 -5 38 -21l34 -32q10 -6 49 -33q10 -7 11 -19q2 -17 3 -19q6 -12 37 -48q25 -29 25 -53q0 -6 -2.5 -17.5t-2.5 -17.5t2 -12q9 -5 17 -23zM405 680h-79q-17 0 -47.5 -9t-43.5 -18q-7 -5 -15 -20t-14.5 -20
t-47.5 -26q-27 -14 -42 -36q-8 -12 -15 -90q-1 -8 -9 -18t-10 -15q-3 -8 -3 -50l8 2q2 -10 -2 -24l-6 -21q0 -7 10 -19l9 -13l9 -34q5 -19 11 -23q15 -10 26 -32q16 -30 19.5 -35t25.5 -26l14 -16q23 -15 59 -15q4 0 11 3t10 3q11 0 27 -31q9 2 18 2q11 0 32.5 -8.5
t32.5 -8.5t22 11t19 11q7 0 20.5 -3t20.5 -3q21 0 65 49q4 5 13.5 6t12.5 3q8 5 30 43q4 7 22.5 15t22.5 13v17q3 14 20 58q14 36 14 62q0 -4 -10 36q2 16 2 52q-8 65 -71 135q-44 49 -136 75q-6 2 -27 11q-16 7 -28 7zM194 405q0 1 -2.5 8.5t-1.5 9.5q2 17 29 44l9 9
q3 2 7 10q1 9 9 24q8 1 23 5q6 3 19 17q3 5 8 12q12 6 31 6q8 0 18 -1q1 0 4 1t4 1q6 1 33 10q10 3 23 1q12 -6 21 -5l5 5q6 3 13 0l13 -6h4q8 6 19 6q23 0 23 -17q0 -8 -5 -20q4 -7 4 -6q3 -10 3 -18q0 -11 -6 -18q3 -9 8 -27q0 -15 -21 -13q-3 4 -13 10l-12 -8
q-13 -9 -21 -8q-10 1 -18 10q-5 4 -9 8l-10 -14q-1 -1 -16 -2q-2 0 -23 -21q-7 -1 -18 -4q3 -1 5 -34l-4 -10v-1l11 -10l-1 -15q22 2 28 -20l6 -4q-5 0 7 2.5t14 2.5q-3 0 17 -10q-1 10 3 12q5 2 13 -2h1q1 0 2 -1q20 10 33 10q27 0 27 -30q0 -9 -4 -18q5 -5 5 -19
q0 -8 -3 -18q-1 -2 0 -13l1 -10l1 -4q1 -3 -1 -6q-3 -7 -22 -10l-18 -3h-2l-16 4q-2 0 -36 -10q-3 -1 -19 5q-20 7 -22 7q4 -2 -14 -9q-12 4 -29 11q-17 -4 -20 -4q-3 4 -7 8l-6 3q-7 10 -26 15q-7 1 -20 9q-1 1 -8 21q-9 2 -26 18q-16 21 -16 60q0 2 -8 13l-7 7
q-1 3 3 13.5t4 12.5q1 5 0 18z" />
    <glyph glyph-name="trademark" unicode="&#x2122;" horiz-adv-x="738" 
d="M188 711l18 -8q3 3 9 8q2 1 6 5q3 -1 8 -1q14 -1 27 3q7 3 10.5 -5.5t5.5 -16.5l6 -15q3 -4 3 -9q0 -6 -13 -30q5 -3 7 -9q3 -12 -9 -16q-10 -3 -31 2q-4 1 -8 0q-18 -4 -18 -37q1 -1 2 -7q7 -30 -3 -46q6 -11 7 -26q-1 -1 -2 -5q-4 -19 1 -37v0l7 -16l-6 -18v-2
q0 -10 -4 -19l3 -6q4 -11 4 -20t-4 -15q-12 -5 -28 4q-8 5 -20 -5h-15q-2 0 -7 3t-7 3h-4l-19 -7q-8 -3 -16 -3q-17 0 -16 34l1 24q0 8 4 22q-3 8 -4 12q-3 8 5 40q2 5 2 8q-11 28 -11 42q0 9 2 20q3 4 6 11q1 1 0 3q-2 24 -2 26q-4 8 -20 11l-17 3q-3 0 -13 -2
q-15 -3 -15 18q0 7 2 18q3 3 6 16q0 4 -2.5 10t-2.5 7v5l-1 7q-3 19 22 20q1 1 4 1q11 0 35 -10l2 4q2 3 9 6q3 2 12 0h2l14 3q2 1 9 -5t11 -6q3 0 7 2q1 0 3.5 2.5t3.5 2.5q20 3 32 -4zM332 718q16 -3 37 -1l4 -2q3 -2 10 -4l5 3q5 2 12 3q6 1 18 -4q11 8 25 5
q14 -15 17 -33q9 -4 25 -22q1 -16 11 -37h12q5 2 13 20.5t10 21.5t11 10q0 7 3 15v0l11 11q10 14 24 14h1l15 -5q-8 0 17 5q13 1 34 -8l8 5l10 6l13 -2h1q11 2 20 1q14 -3 14 -19q0 -6 -3 -13q-6 -5 -14 -12v0l9 -14q0 -1 1 -7q1 -8 -5 -27q1 -4 7 -20q-2 -10 -3 -24l1 -18
l1 -6q1 -2 -2 -6q-4 -7 -5 -12t2 -14.5t3 -13.5q-5 -16 2 -35q3 -9 -11 -18l2 -7q2 -11 7 -20q1 -12 1 -17q-3 -6 -6 -16q3 -2 6 -5q11 -24 -2 -26q-17 -3 -49 0l-4 -3q-5 -3 -12 -4l-12 6h-3l-13 1l-1 3l-15 -5q-1 0 -3 -1h-4q-16 -1 -20.5 4t-4.5 21v3l-4 4q-1 5 -1 7
q0 3 1 4q-1 16 6 51q0 1 -1 3q-3 13 -3 23q0 14 6 23q0 3 -4 12q-4 6 -10 4q-5 -3 -8 -5l-7 -24l-4 -9q-5 2 -17 0q2 -6 -3 -16t-11 -10q-7 0 -26 14q-2 2 -11 20q-5 1 -14 3q-4 13 -10 30q-3 1 -5 1q-8 0 -8 -24q0 -14 3 -35q-1 5 -5 -21q7 -20 7 -24v-2l-2 -23q2 -7 3 -20
q-1 -16 -21 -16q-11 0 -21 8q-14 -4 -33 -3q-1 0 -4 2t-4 2q-5 -8 -20 -8q-23 0 -24 26q4 9 8 22v4l-6 13v16q0 10 -2 21q0 4 7 18l-3.5 14t-3.5 18q0 10 5 24v0l-3 13q-3 13 -1 29l4 30q1 3 -6 20q0 2 3 14l4 16q1 1 -1 5l-5 12q-2 5 0 19q3 20 16 20q4 0 8 -2z" />
    <glyph glyph-name="acute" unicode="&#xb4;" horiz-adv-x="387" 
d="M313 650l-164 -134l-66 44l131 154z" />
    <glyph glyph-name="dieresis" unicode="&#xa8;" horiz-adv-x="512" 
d="M429 619q0 -28 -22 -47t-51 -19q-30 0 -52 18.5t-22 47.5t22 47.5t52 18.5q29 0 51 -18.5t22 -47.5zM226 619q0 -28 -22 -47t-51 -19q-30 0 -52 18.5t-22 47.5t22 47.5t52 18.5q29 0 51 -18.5t22 -47.5z" />
    <glyph glyph-name="AE" unicode="&#xc6;" horiz-adv-x="940" 
d="M925 0h-404l-23 129h-249l-68 -129h-192l395 700h405l30 -158h-222l23 -119h203l30 -150h-203l23 -116h222zM473 265l-40 213l-112 -213h152z" />
    <glyph glyph-name="Oslash" unicode="&#xd8;" horiz-adv-x="813" 
d="M793 350q0 -166 -107.5 -265.5t-275.5 -99.5q-105 0 -192 41q-30 -42 -58 -83l-73 40l61 87q-128 105 -128 280q0 162 115 265q111 100 275 100q89 0 161 -31l45 65l73 -40q-10 -14 -45 -65q71 -52 110 -129.5t39 -164.5zM602 350q0 84 -62 144l-221 -322q38 -17 89 -17
q87 0 140.5 54t53.5 141zM470 537q-31 11 -62 11q-83 0 -139 -56.5t-56 -139.5q0 -78 40 -129z" />
    <glyph glyph-name="plusminus" unicode="&#xb1;" horiz-adv-x="626" 
d="M385 345v-161h-145v161h-216v144h216v160h145v-160h215v-144h-215zM24 3v144h576v-144h-576z" />
    <glyph glyph-name="yen" unicode="&#xa5;" horiz-adv-x="647" 
d="M648 700q-130 -233 -138 -245h90v-91h-139l-40 -71v-6h179v-92h-179v-195h-175v195h-191v92h191l-6 17l-37 60h-148v91h93l-149 245h196l136 -257l129 257h188z" />
    <glyph glyph-name="mu" unicode="&#xb5;" horiz-adv-x="565" 
d="M528 187q0 -100 -72 -154q-65 -49 -168 -49q-39 0 -70 17v-227h-172v683h172v-249q0 -85 71 -85q66 0 66 85v249h173v-270z" />
    <glyph glyph-name="mu" unicode="&#x3bc;" horiz-adv-x="565" 
d="M528 187q0 -100 -72 -154q-65 -49 -168 -49q-39 0 -70 17v-227h-172v683h172v-249q0 -85 71 -85q66 0 66 85v249h173v-270z" />
    <glyph glyph-name="ordfeminine" unicode="&#xaa;" horiz-adv-x="425" 
d="M406 237h-383v91h383v-91zM249 654v42h151v-311h-150v43q-28 -50 -95 -50q-62 0 -99 53q-32 47 -32 111q0 14 3 34q9 54 42 90q36 40 88 40q59 0 92 -52zM214 497q41 0 41 47q0 18 -11.5 30.5t-29.5 12.5t-30 -13t-12 -32q-1 -45 42 -45z" />
    <glyph glyph-name="ordmasculine" unicode="&#xba;" horiz-adv-x="425" 
d="M404 542q0 -76 -60 -122q-54 -42 -132 -42q-77 0 -131 43q-60 47 -60 121q0 75 59 122q55 42 132 42q80 0 133 -41q59 -45 59 -123zM406 237h-383v91h383v-91zM285 542q0 28 -21.5 46.5t-49.5 18.5q-29 0 -50.5 -18.5t-21.5 -46.5q0 -27 22 -45.5t50 -18.5t49.5 18.5
t21.5 45.5z" />
    <glyph glyph-name="ae" unicode="&#xe6;" horiz-adv-x="911" 
d="M891 203h-351q11 -89 92 -89q52 0 78 40h172q-19 -86 -92 -130q-65 -39 -159 -39q-118 0 -189 59q-46 -36 -100 -49q-42 -10 -111 -10q-89 0 -144 33q-68 41 -68 124q0 81 63 123q54 36 138 36q74 0 128 -27q0 15 -1 17q-7 88 -107 88q-71 0 -178 -33v116q109 25 189 25
q107 0 183 -68q70 71 195 71q117 0 189.5 -70t72.5 -186v-31zM714 308q-14 66 -80 66q-67 0 -84 -66h164zM371 149q0 30 -38 46q-29 11 -64 11q-34 0 -59 -14q-31 -17 -31 -48t30 -49q25 -15 58 -15q37 0 67 16q37 19 37 53z" />
    <glyph glyph-name="oslash" unicode="&#xf8;" horiz-adv-x="584" 
d="M564 237q0 -113 -79.5 -183t-194.5 -70q-66 0 -126 27l-48 -70l-47 26l49 71q-101 75 -101 199q0 112 81 184q79 69 192 69q69 0 124 -24l42 60l47 -26l-42 -60q103 -72 103 -203zM394 237q0 38 -27 67l-110 -159q15 -6 35 -6q41 0 71.5 28.5t30.5 69.5zM322 332
q-18 5 -30 5q-42 0 -72 -29t-30 -71q0 -32 23 -62z" />
    <glyph glyph-name="questiondown" unicode="&#xbf;" horiz-adv-x="569" 
d="M427 647q0 -53 -44 -88q-41 -31 -96 -31t-96 31q-45 34 -45 88q0 57 44 87q38 26 97 26q122 0 140 -113zM565 241q0 -12 -3 -31q-13 -84 -73.5 -140.5t-146.5 -71.5q-35 -6 -64 -6q-102 0 -176 55q-78 57 -94 155q-4 24 -4 47q0 150 138 211q7 2 21 8v19h245v-211
q-53 29 -92 29q-34 0 -56.5 -18.5t-22.5 -51.5q0 -7 1 -15q0 -4 3 -10q9 -26 37 -26q42 0 48 44l1 7l1 6h237z" />
    <glyph glyph-name="exclamdown" unicode="&#xa1;" horiz-adv-x="341" 
d="M310 636q-1 -52 -42.5 -84.5t-94.5 -32.5q-56 0 -97 31q-45 33 -45 87q0 55 44 85q38 27 95 27q122 1 140 -113zM292 472v-480h-245v480h245z" />
    <glyph glyph-name="logicalnot" unicode="&#xac;" horiz-adv-x="584" 
d="M545 108h-75v209h-431v73h506v-282z" />
    <glyph glyph-name="florin" unicode="&#x192;" horiz-adv-x="556" 
d="M501 721l-15 -78q-39 17 -60 17q-30 0 -49.5 -26.5t-28.5 -72.5l-20 -99h114v-71h-127l-64 -351q-21 -113 -70 -180t-132 -67q-38 0 -61 13l16 81q26 -14 53 -14q46 0 72 55q13 29 25 95l68 368h-109v71h123l3 12q10 46 26 114q15 55 42 89q47 60 122 60q34 0 72 -16z
" />
    <glyph glyph-name="guillemotleft" unicode="&#xab;" horiz-adv-x="556" 
d="M460 446l-1 -88l-105 -81l105 -81v-89l-158 125v91zM255 196l-1 -89l-157 125v91l158 124l-1 -89l-104 -81z" />
    <glyph glyph-name="guillemotright" unicode="&#xbb;" horiz-adv-x="556" 
d="M459 231l-158 -124v89l105 81l-105 81v89l158 -124v-92zM254 231l-158 -124v89l105 81l-105 81v89l158 -124v-92z" />
    <glyph glyph-name="ellipsis" unicode="&#x2026;" horiz-adv-x="1080" 
d="M1001 93q0 -44 -30 -74t-74 -30q-45 0 -75 29.5t-30 74.5t30 76t75 31t74.5 -31t29.5 -76zM641 93q0 -44 -30 -74t-74 -30t-74.5 29.5t-30.5 74.5t30 76t75 31t74.5 -31t29.5 -76zM281 93q0 -44 -30 -74t-74 -30t-74.5 29.5t-30.5 74.5t30 76t75 31t74.5 -31t29.5 -76z
" />
    <glyph glyph-name="nonbreakingspace" unicode="&#xa0;" horiz-adv-x="282" 
 />
    <glyph glyph-name="OE" unicode="&#x152;" horiz-adv-x="999" 
d="M970 0h-367v63q-36 -35 -89.5 -56.5t-103.5 -21.5q-168 0 -277 98q-113 101 -113 267q0 162 115 265q111 100 275 100q48 0 106 -24q65 -25 87 -61v70h367v-158h-191v-119h172v-150h-172v-116h191v-157zM602 350q0 77 -55.5 137.5t-138.5 60.5t-139 -56.5t-56 -139.5
q0 -90 53 -143.5t142 -53.5q87 0 140.5 54t53.5 141z" />
    <glyph glyph-name="oe" unicode="&#x153;" horiz-adv-x="941" 
d="M921 203h-351q12 -89 92 -89q52 0 78 40h172q-18 -86 -92 -130q-65 -39 -159 -39q-118 0 -189 59q-74 -60 -182 -60q-112 0 -191 69q-82 73 -82 184q0 112 81 184q79 69 192 69q107 0 185 -60q70 60 184 60q117 0 189.5 -70t72.5 -186v-31zM744 308q-14 66 -80 66
q-67 0 -84 -66h164zM394 237q0 41 -30 70.5t-72 29.5t-72 -29t-30 -71q0 -41 30.5 -69.5t71.5 -28.5t71.5 28.5t30.5 69.5z" />
    <glyph glyph-name="endash" unicode="&#x2013;" horiz-adv-x="696" 
d="M75 276v148h546v-148h-546z" />
    <glyph glyph-name="emdash" unicode="&#x2014;" horiz-adv-x="546" 
d="M-7 244v169h560v-169h-560z" />
    <glyph glyph-name="quotedblleft" unicode="&#x201c;" horiz-adv-x="702" 
d="M628 578q0 -26 2 -29l4 -8l-1 -21q-2 -34 -30 -65l25 -25q6 -6 8 -43q2 -35 -38 -35q-11 0 -24 7q-19 -12 -41 -12q-19 0 -35 9q-5 7 -15 18l-17 -20v-1l-13 -8h-24l-18 9q-12 11 -20 11q-6 0 -20 -7q-3 -2 -5 2q-7 19 -7 61l-6 18l15 5q5 2 12 24l1 1l21 40q15 28 33 28
h15q10 0 18 3q2 1 4 7q2 11 8 22l6 11l5 11q9 19 13 26q12 12 45 29q-2 0 28 10q2 3 13 25q6 12 25 22.5t32 7.5q19 -2 17 -15q0 -27 -7 -31l-12 -7l7 -27q1 -4 1 -10q0 -18 -25 -43zM298 578q0 -26 2 -29l4 -8l-1 -21q-2 -34 -30 -65l25 -25q6 -6 8 -43q2 -35 -38 -35
q-11 0 -24 7q-19 -12 -41 -12q-19 0 -35 9q-5 7 -15 18l-17 -20v-1l-13 -8h-24l-18 9q-12 11 -20 11q-6 0 -20 -7q-3 -2 -5 2q-7 19 -7 61l-6 18l15 5q5 2 12 24l1 1l21 40q15 28 33 28h15q10 0 18 3q2 1 4 7q2 11 8 22l6 11l5 11q9 19 13 26q12 12 45 29q-2 0 28 10
q2 3 13 25q6 12 25 22.5t32 7.5q19 -2 17 -15q0 -27 -7 -31l-12 -7l7 -27q1 -4 1 -10q0 -18 -25 -43z" />
    <glyph glyph-name="quotedblright" unicode="&#x201d;" horiz-adv-x="702" 
d="M59 478q0 25 -2 29l-4 7l1 22q1 33 29 65l-24 25q-6 6 -8 43q-1 15 10.5 25t26.5 10q12 0 25 -7q18 12 41 12q18 0 35 -9q5 -7 15 -18l17 20v1l12 8h24l19 -9q12 -11 19 -11t21 7q3 2 5 -2q7 -22 7 -61l6 -18l-15 -5q-8 -3 -12 -24l-1 -1l-21 -40q-15 -29 -34 -29
q-2 0 -7 1h-8q-9 0 -18 -3q-1 0 -4.5 -12t-6.5 -17l-6 -11l-5 -11q-9 -20 -14 -26q-11 -13 -45 -29q3 0 -27 -10q-1 -1 -13 -25q-6 -12 -25 -22.5t-32 -7.5q-20 2 -17 15q0 28 7 31l12 6l-7 28q-1 4 -1 10q0 18 25 43zM389 478q0 25 -2 29l-4 7l1 22q1 33 29 65l-24 25
q-6 6 -8 43q-1 15 10.5 25t26.5 10q12 0 25 -7q18 12 41 12q18 0 35 -9q5 -7 15 -18l17 20v1l12 8h24l19 -9q12 -11 19 -11t21 7q3 2 5 -2q7 -22 7 -61l6 -18l-15 -5q-8 -3 -12 -24l-1 -1l-21 -40q-15 -29 -34 -29q-2 0 -7 1h-8q-9 0 -18 -3q-1 0 -4.5 -12t-6.5 -17l-6 -11
l-5 -11q-9 -20 -14 -26q-11 -13 -45 -29q3 0 -27 -10q-1 -1 -13 -25q-6 -12 -25 -22.5t-32 -7.5q-20 2 -17 15q0 28 7 31l12 6l-7 28q-1 4 -1 10q0 18 25 43z" />
    <glyph glyph-name="quoteleft" unicode="&#x2018;" horiz-adv-x="321" 
d="M21 423l4 10l-2 20q-1 7 8 11q6 4 12 7v1q12 20 21 37q18 20 31 25q7 3 39 7q2 11 8 31l6 10l1 17q1 13 23 27q29 14 59 29l8 4q3 4 14 24q5 12 24 22.5t32 8.5q21 -4 18 -15q-2 -8 -8 -31l-1 -4l2 -33q2 -29 -3 -32q-16 -10 -19 -13.5t-11 -19.5q-5 -10 -5 -12t2 -4
l9 -8l3 -19q4 -28 -23 -57l18 -33q5 -9 7 -43q1 -17 -10.5 -30t-28.5 -13q-7 0 -22 15q-19 -12 -42 -12q-18 0 -36 8q-4 3 -14 9l-16 -10v-1h-23l-15 -12l-11 1q-21 19 -34 19q-6 0 -13 -3l-11 29q-2 4 -2 14q0 8 1 19z" />
    <glyph glyph-name="quoteright" unicode="&#x2019;" horiz-adv-x="320" 
d="M29 478q0 25 -2 29l-4 7l1 22q1 33 29 65l-24 25q-6 6 -8 43q-1 15 10.5 25t27.5 10q11 0 24 -7q18 12 41 12q18 0 35 -9q5 -7 15 -18l17 20v1l12 8h24l19 -9q12 -11 19 -11t21 7q3 2 5 -2q7 -22 7 -61l6 -18l-15 -5q-8 -3 -12 -24l-1 -1l-21 -40q-15 -29 -34 -29
q-2 0 -7 1h-8q-9 0 -18 -3q-1 0 -4.5 -12t-6.5 -17l-6 -11l-5 -11q-9 -20 -14 -26q-11 -13 -45 -29q3 0 -27 -10q-1 -1 -13 -25q-6 -12 -25 -22.5t-32 -7.5q-20 2 -17 15q0 28 7 31l12 6l-7 28q-1 4 -1 10q0 18 25 43z" />
    <glyph glyph-name="divide" unicode="&#xf7;" horiz-adv-x="775" 
d="M64 369q-9 8 -9 16q0 23 61 24l53 1q16 -9 45 -11q12 -1 16 0q5 1 21 4q33 6 62 6q39 0 70 -13l44 5q27 8 66 8q20 0 42 -2q9 -8 26 -17q8 9 28 20l3 1h33q83 0 56 1q20 -1 20 -13q0 -5 -1 -9l-9 -35v-4l-12 -19q9 -13 30 -38q12 -13 8 -22q-2 -5 -17 -15.5t-15 -12.5
l-5 -23q0 -4 -55 2q-46 5 -119 -4q-9 -1 -40 5q-11 1 -35 -9q-12 2 -18 2q-16 3 -45 -4q-38 -9 -73 9l-49 15q-18 0 -44 -23h-5l-121 6v1q-14 8 -8 35l3 13l3 7q-10 6 -32 30q-3 6 9 15q18 14 25 24q5 8 -12 24zM381 459q15 -5 27 -5q41 0 41 31q0 14 -6 65q-1 9 2 26.5
t3 24.5q0 17 -12 19q-1 31 -27 31q-19 0 -46 -16l-52 6q-41 -17 -41 -67q0 -19 9 -35q2 -4 4 -34q2 -22 10 -24q3 -13 33 -16zM391 161q15 4 27 4q41 0 41 -30q0 -15 -6 -66q-1 -9 2 -26.5t3 -24.5q0 -17 -12 -19q-1 -31 -27 -31q-19 0 -46 16l-52 -6q-41 17 -41 67
q0 19 9 36q2 3 4 33q2 22 10 24q3 13 33 16q47 5 55 7z" />
    <glyph glyph-name="Ydieresis" unicode="&#xff;" horiz-adv-x="763" 
d="M134 714q7 2 13 2q9 -2 52 -16v0l23 6q19 5 37 4q2 -3 5 -6q7 -4 21 -11q3 -2 6 -3q28 18 30 18q44 0 57 -66q24 -13 42 -32q2 -2 14 -6q20 17 34 51q2 1 13 4q3 2 13 31q8 24 34 24q14 0 35 -7q4 -7 11 -17q56 31 84 29q10 -1 36 -5q23 -4 35 -2q2 1 11 3q11 3 21 -6
t11 -20t-13 -36l-20 -35q-11 -11 -24 -18q-3 -13 -20 -42.5t-21 -50.5l-7 -37l-6 -9l-21 -11l-11 -20l-12 -19l-7 -9l-17 -25q-7 -14 -7 -53q-3 -14 -15 -28q-10 -4 -23 -11l-1 -31q0 -8 -10 -22q-11 -17 -12 -21q-8 -17 -24 -39q1 -5 2 -24q1 -16 -29 -51l-15 -10v-14
q-6 -46 -15 -57q-13 -16 -54 -15q-18 1 -45 15q-2 1 -43 -16q-5 -2 -13 -2q-22 0 -68 18q-21 -10 -49 -20q-8 -3 -20 -3q-44 0 -47 35l25 20q9 28 23 46.5t28 37.5q0 17 11 44q7 1 31 21q-5 10 -7 40q3 17 34 53q5 8 5 22q0 10 -2 22q-7 10 -23 20q-20 12 -24 16
q-9 9 -13 24.5t-7 20.5l-8 12l-15 24q-1 1 1 8.5t2 8.5q0 8 -8 11l-22 7l-5 6q-14 23 -18 42l-24 2q-5 6 -6.5 16.5t-3.5 13.5q-5 10 -3 23q2 12 2 16q-19 -5 -25 -5q-12 0 -21 5q-7 20 -20 46q-7 15 -7 25q0 23 37 29q33 5 65 -8zM603 853q0 -29 -22.5 -47.5t-51.5 -18.5
q-30 0 -52 18t-22 48q0 29 22 47.5t52 18.5q29 0 51.5 -18.5t22.5 -47.5zM399 853q0 -29 -22 -47.5t-50 -18.5q-30 0 -52.5 18.5t-22.5 47.5t22.5 47.5t52.5 18.5q28 0 50 -19t22 -47z" />
    <glyph glyph-name="Ydieresis" unicode="&#x178;" horiz-adv-x="763" 
d="M134 714q7 2 13 2q9 -2 52 -16v0l23 6q19 5 37 4q2 -3 5 -6q7 -4 21 -11q3 -2 6 -3q28 18 30 18q44 0 57 -66q24 -13 42 -32q2 -2 14 -6q20 17 34 51q2 1 13 4q3 2 13 31q8 24 34 24q14 0 35 -7q4 -7 11 -17q56 31 84 29q10 -1 36 -5q23 -4 35 -2q2 1 11 3q11 3 21 -6
t11 -20t-13 -36l-20 -35q-11 -11 -24 -18q-3 -13 -20 -42.5t-21 -50.5l-7 -37l-6 -9l-21 -11l-11 -20l-12 -19l-7 -9l-17 -25q-7 -14 -7 -53q-3 -14 -15 -28q-10 -4 -23 -11l-1 -31q0 -8 -10 -22q-11 -17 -12 -21q-8 -17 -24 -39q1 -5 2 -24q1 -16 -29 -51l-15 -10v-14
q-6 -46 -15 -57q-13 -16 -54 -15q-18 1 -45 15q-2 1 -43 -16q-5 -2 -13 -2q-22 0 -68 18q-21 -10 -49 -20q-8 -3 -20 -3q-44 0 -47 35l25 20q9 28 23 46.5t28 37.5q0 17 11 44q7 1 31 21q-5 10 -7 40q3 17 34 53q5 8 5 22q0 10 -2 22q-7 10 -23 20q-20 12 -24 16
q-9 9 -13 24.5t-7 20.5l-8 12l-15 24q-1 1 1 8.5t2 8.5q0 8 -8 11l-22 7l-5 6q-14 23 -18 42l-24 2q-5 6 -6.5 16.5t-3.5 13.5q-5 10 -3 23q2 12 2 16q-19 -5 -25 -5q-12 0 -21 5q-7 20 -20 46q-7 15 -7 25q0 23 37 29q33 5 65 -8zM603 853q0 -29 -22.5 -47.5t-51.5 -18.5
q-30 0 -52 18t-22 48q0 29 22 47.5t52 18.5q29 0 51.5 -18.5t22.5 -47.5zM399 853q0 -29 -22 -47.5t-50 -18.5q-30 0 -52.5 18.5t-22.5 47.5t22.5 47.5t52.5 18.5q28 0 50 -19t22 -47z" />
    <glyph glyph-name="currency" unicode="&#xa4;" horiz-adv-x="772" 
d="M638 365q0 -76 -63 -163l61 -62l-22 -25l-62 61q-83 -60 -163 -60q-85 0 -167 60l-62 -61l-24 25l61 62q-57 85 -57 161q0 80 58 168l-62 62l24 25l62 -61q92 55 167 55q76 0 158 -58l63 63l23 -24l-54 -57q59 -98 59 -171zM530 360q0 62 -39.5 105t-101.5 43t-101.5 -43
t-39.5 -105q0 -64 38.5 -102t102.5 -38t102.5 38t38.5 102z" />
    <glyph glyph-name="guilsinglleft" unicode="&#x2039;" horiz-adv-x="333" 
d="M246 107l-158 125v91l157 123l1 -88l-105 -81l104 -81z" />
    <glyph glyph-name="guilsinglright" unicode="&#x203a;" horiz-adv-x="333" 
d="M246 231l-158 -124v89l105 81l-105 81v89l158 -124v-92z" />
    <glyph glyph-name="daggerdbl" unicode="&#x2021;" horiz-adv-x="590" 
d="M371 8v-202h-165v202h-188v147h188v248h-188v147h188v203h165v-203h188v-147h-188v-248h188v-147h-188z" />
    <glyph glyph-name="periodcentered" unicode="&#xb7;" horiz-adv-x="368" 
d="M287 372q0 -43 -30 -73.5t-74 -30.5q-45 0 -75 29.5t-30 74.5t30.5 76t74.5 31q45 0 74.5 -31t29.5 -76z" />
    <glyph glyph-name="periodcentered" unicode="&#x2219;" horiz-adv-x="368" 
d="M287 372q0 -43 -30 -73.5t-74 -30.5q-45 0 -75 29.5t-30 74.5t30.5 76t74.5 31q45 0 74.5 -31t29.5 -76z" />
    <glyph glyph-name="quotesinglbase" unicode="&#x201a;" horiz-adv-x="272" 
d="M212 84q0 -135 -103 -202l-56 58q64 55 64 96q0 15 -1 19q-3 8 -16 8h-40v147h152v-126z" />
    <glyph glyph-name="quotedblbase" unicode="&#x201e;" horiz-adv-x="482" 
d="M424 84q0 -135 -103 -202l-56 58q64 54 64 96q0 15 -2 19q-3 8 -15 8h-40v147h152v-126zM212 84q0 -135 -103 -202l-56 58q64 55 64 96q0 15 -1 19q-3 8 -16 8h-40v147h152v-126z" />
    <glyph glyph-name="perthousand" unicode="&#x2030;" horiz-adv-x="1707" 
d="M46 548q-9 17 -9 29q0 29 61 95q21 23 45 23q11 0 24 -4q1 -1 24 18q13 15 55 21q9 1 53 -6l6 -1l26 -6q-2 0 31 -3q5 0 44 -18l46 -21q29 -13 50 -37q44 -50 44 -98q0 -22 -10 -43q2 -11 2 -21q0 -11 -3 -21l-1 -3l-19 -34l-18 -35q-20 -29 -63 -43l-6 -2l-28 -7
q-7 -8 -30 -24q-4 7 -33 11l-13 -1l-20 1q-17 1 -38 -3q-4 -1 -38 19l-56 -8q-19 0 -36 8q-81 37 -102 119q-8 31 -8 48q0 27 20 47zM324 42q20 12 33 47q4 5 21 23q6 7 28 52l14 29l5 9v2l20 34q7 12 21 35l1 1l25 33q18 23 23 34l2 4l18 34q2 3 21 37q17 17 25 43
q9 7 20 18l1 1l12 21q6 10 23 33q7 12 15 29q3 5 28 21q4 4 9 29l6 32q0 3 27 25q10 8 22 31q1 4 32 3l30 -1l2 -5l-9 -14q2 -19 -8 -33q-3 -4 -25 -24q-11 -10 -22 -34q0 -15 -6 -27l-2 -1l-19 -19q-26 -26 -36 -63q-3 -7 -30 -31q-4 -2 -9 -34l-26 -29l-17 -23
q-19 -25 -30 -54q-2 -8 -33 -46q-7 -7 -11 -10l-7 -29q-18 -20 -28 -44q-2 -5 -5 -17q-29 -32 -43 -66q-3 -8 -24 -24q-3 -15 -11 -40q-21 -35 -40 -35q-4 0 -27 3q-8 1 -31 -4l-2 1l-3 2q-16 11 -8 29q8 19 28 12zM567 189q-12 13 -12 26q0 14 14 40l18 33q26 47 71 54
l21 -2q31 36 106 44q31 3 68 -4l25 -1l19 -7l14 -20l27 7l35 1q4 -3 11 -16t15 -18q2 -1 14 -6q4 -2 35 -49q10 -15 18 -58q0 -2 4 -7t4 -8t-4 -9.5t-4 -9.5q-16 -124 -102 -167q-12 -4 -34 -11l-20 -9l-10 -5l-6 -14l-35 11q-6 2 -38 -5q-9 -3 -28 1l-25 5q-22 -6 -49 -12
q-6 -1 -16 5.5t-22 14.5q-15 8 -24 20q-51 4 -85 63q-22 38 -22 66q0 26 17 47zM268 454q8 -2 29 -2l8 35q13 6 13 16q-2 4 -13 34q3 11 3 26l-11 5q-11 3 -27 3q-35 0 -35 -21q0 -5 3 -13l9 -24q-6 -12 -6 -25q0 -27 27 -34zM763 184q-1 -8 -1 -15q0 -25 14.5 -41t38.5 -12
l5 12q27 6 26 41q-6 5 -14 15l-6 42l-14 -2l-6 4q-2 1 -6 1q-8 0 -26 -6l1 -19q-5 -6 -12 -20zM1137 189q-12 13 -12 26q0 14 14 40l18 33q26 47 71 54l21 -2q31 36 106 44q31 3 68 -4l25 -1l19 -7l14 -20l27 7l35 1q4 -3 11 -16t15 -18q2 -1 14 -6q4 -2 35 -49
q10 -15 18 -58q0 -2 4 -7t4 -8t-4 -9.5t-4 -9.5q-16 -124 -102 -167q-12 -4 -34 -11l-20 -9l-10 -5l-6 -14l-35 11q-6 2 -38 -5q-9 -3 -28 1l-25 5q-22 -6 -49 -12q-6 -1 -16 5.5t-22 14.5q-15 8 -24 20q-51 4 -85 63q-22 38 -22 66q0 26 17 47zM1333 184q-1 -8 -1 -15
q0 -25 14.5 -41t38.5 -12l5 12q27 6 26 41q-6 5 -14 15l-6 42l-14 -2l-6 4q-2 1 -6 1q-8 0 -26 -6l1 -19q-5 -6 -12 -20z" />
    <glyph glyph-name="circumflex" unicode="&#x2c6;" horiz-adv-x="492" 
d="M434 589l-55 -70l-115 73l-116 -72l-54 70l171 114z" />
    <glyph glyph-name="tilde" unicode="&#x2dc;" horiz-adv-x="515" 
d="M444 643q-49 -94 -122 -94q-27 0 -75 23.5t-63 23.5q-29 0 -51 -44l-65 47q48 89 122 89q29 0 73 -24t60 -24q28 0 55 47z" />
    <glyph glyph-name="macron" unicode="&#xaf;" horiz-adv-x="512" 
d="M427 609h-334v76h334v-76z" />
    <glyph glyph-name="macron" unicode="&#x2c9;" horiz-adv-x="512" 
d="M427 609h-334v76h334v-76z" />
    <glyph glyph-name="cedilla" unicode="&#xb8;" horiz-adv-x="372" 
d="M306 -53l-117 -144l-79 53l121 134z" />
    <glyph glyph-name="Scaron" unicode="&#x160;" horiz-adv-x="615" 
d="M11 198q17 13 44 13q23 0 53 -17q1 -1 20 4l18 5h2l31 -14q4 -2 16 4.5t16 6.5q8 2 22 -10q7 0 21 -1q15 -1 25 5q6 12 16 27q3 4 3 11q0 14 -17 27l-40 13q-6 10 -24 29q-35 4 -72 39q-2 2 -15 16q-54 7 -78 58q1 8 1 22l-3 14l-11 18q-2 7 -2 15q0 24 18 50l2 39
q14 64 62 105q33 28 55 28q9 0 27 -3t27 -3q1 0 15 7.5t17 8.5q40 38 101 32q12 -1 39 -6q-5 5 20 19q6 -2 34 -2q14 2 25 2q43 0 51 -46q3 -6 12 -22l1 -2l1 -42q10 -10 24 -29q5 -11 5 -28q0 -10 -3 -16q-8 -22 -29 -22q-11 0 -25.5 11t-23.5 11q-11 0 -33 -8l-39 10
l-15 -8l-26 -10q-34 17 -37 18q-10 0 -21.5 -13t-11.5 -23q0 -11 10 -26.5t20 -20.5l22 -3q49 -7 72 -43q28 4 46 -10q27 -21 42 -34q22 -23 22 -47q0 2 -1 -18q0 -4 25 -27q7 -7 7 -60q0 -47 -30 -77q1 -12 1 -22q0 -52 -33 -54l-17 -1l-16 -25l-31 -24q-23 -18 -40 -18
q-11 0 -23 6q-27 -5 -51 -25l-35 -4l-36 10l-29 -20q-3 -2 -29 1l-21 5q-9 3 -25 5q-54 -11 -63 -11q-12 0 -19 8l-1 2l-16 27q-4 7 -17 29v32v5q-8 2 -26 12q-13 10 -9 70q0 6 3 15zM523 903l-171 -112l-170 113l52 68l118 -69l120 69z" />
    <glyph glyph-name="Scaron" unicode="&#x161;" horiz-adv-x="615" 
d="M11 198q17 13 44 13q23 0 53 -17q1 -1 20 4l18 5h2l31 -14q4 -2 16 4.5t16 6.5q8 2 22 -10q7 0 21 -1q15 -1 25 5q6 12 16 27q3 4 3 11q0 14 -17 27l-40 13q-6 10 -24 29q-35 4 -72 39q-2 2 -15 16q-54 7 -78 58q1 8 1 22l-3 14l-11 18q-2 7 -2 15q0 24 18 50l2 39
q14 64 62 105q33 28 55 28q9 0 27 -3t27 -3q1 0 15 7.5t17 8.5q40 38 101 32q12 -1 39 -6q-5 5 20 19q6 -2 34 -2q14 2 25 2q43 0 51 -46q3 -6 12 -22l1 -2l1 -42q10 -10 24 -29q5 -11 5 -28q0 -10 -3 -16q-8 -22 -29 -22q-11 0 -25.5 11t-23.5 11q-11 0 -33 -8l-39 10
l-15 -8l-26 -10q-34 17 -37 18q-10 0 -21.5 -13t-11.5 -23q0 -11 10 -26.5t20 -20.5l22 -3q49 -7 72 -43q28 4 46 -10q27 -21 42 -34q22 -23 22 -47q0 2 -1 -18q0 -4 25 -27q7 -7 7 -60q0 -47 -30 -77q1 -12 1 -22q0 -52 -33 -54l-17 -1l-16 -25l-31 -24q-23 -18 -40 -18
q-11 0 -23 6q-27 -5 -51 -25l-35 -4l-36 10l-29 -20q-3 -2 -29 1l-21 5q-9 3 -25 5q-54 -11 -63 -11q-12 0 -19 8l-1 2l-16 27q-4 7 -17 29v32v5q-8 2 -26 12q-13 10 -9 70q0 6 3 15zM523 903l-171 -112l-170 113l52 68l118 -69l120 69z" />
    <glyph glyph-name="brokenbar" unicode="&#xa6;" horiz-adv-x="260" 
d="M58 475v347h145v-347h-145zM58 -4v365h145v-365h-145z" />
    <glyph glyph-name="Eth" unicode="&#xd0;" horiz-adv-x="810" 
d="M57 567l9 45q-7 8 -14 23q-2 64 50 67l18 1l9 1l11 -1l27 -17q1 -1 18.5 7.5t23.5 8.5q2 1 28 -5l27 3l17 -18l33 20q10 6 26 5q18 -1 25.5 -0.5t41.5 -8.5q9 -7 20 -16q15 18 31 22t50 -7q20 -7 73 -56q4 2 13 2q10 0 25 -2q18 -7 25 -16q9 -16 18 -31l-4 -17l26 -2
l4 -3q2 -3 3 -5q33 -34 37 -45l1 -3l16 -19q-1 -17 5 -33l7 -19l-5 -19l19 -14l1 -5q8 -8 10 -28q1 -10 -1 -30q-2 -23 -2 -16q-1 -16 -15 -26t-14 -16q0 -9 6 -28t7 -27q1 -14 -13 -35q-8 -4 -34 -26q1 -1 1 -4q0 -9 -8 -35q-6 -13 -30 -39q-36 -39 -72 -43
q-16 -26 -39 -36q-13 -6 -49 -14t-51 -8q-14 0 -44 12q-3 1 -36 -9q-12 7 -36 17q-1 -2 -11 -7q-29 -13 -67 -12l-26 1h-13q-2 1 -24 -1q-15 -1 -17 6l-2 6l-40 -12q-6 -2 -17 -2q-52 -1 -67 8q-21 13 -20 60q11 20 26 52l-17 43q-2 4 -3 25q0 6 -3 22q-2 13 -2 22
q0 13 2 29q11 8 22 27l-73 -2v132h44v1q0 8 7 25.5t8 23.5q7 6 14 17v1l-13 35v24q0 11 -3 24zM346 285q4 -53 25 -53q7 0 17 4q8 8 19 16l25 -1l2 1q11 5 40 58q11 6 23 18q2 5 2 11q0 10 -8 28.5t-7 29.5l2 31l-1 4q-12 5 -29 14l-12 30q-1 1 -11.5 -2.5t-12.5 -3.5
q-6 0 -13 4l-22 12l-9 1q-30 -18 -25 -64q51 -12 29 -39q7 -34 7 -38q-3 -9 -7 -23q0 -19 -17.5 -24.5t-16.5 -13.5z" />
    <glyph glyph-name="Eth" unicode="&#x111;" horiz-adv-x="810" 
d="M57 567l9 45q-7 8 -14 23q-2 64 50 67l18 1l9 1l11 -1l27 -17q1 -1 18.5 7.5t23.5 8.5q2 1 28 -5l27 3l17 -18l33 20q10 6 26 5q18 -1 25.5 -0.5t41.5 -8.5q9 -7 20 -16q15 18 31 22t50 -7q20 -7 73 -56q4 2 13 2q10 0 25 -2q18 -7 25 -16q9 -16 18 -31l-4 -17l26 -2
l4 -3q2 -3 3 -5q33 -34 37 -45l1 -3l16 -19q-1 -17 5 -33l7 -19l-5 -19l19 -14l1 -5q8 -8 10 -28q1 -10 -1 -30q-2 -23 -2 -16q-1 -16 -15 -26t-14 -16q0 -9 6 -28t7 -27q1 -14 -13 -35q-8 -4 -34 -26q1 -1 1 -4q0 -9 -8 -35q-6 -13 -30 -39q-36 -39 -72 -43
q-16 -26 -39 -36q-13 -6 -49 -14t-51 -8q-14 0 -44 12q-3 1 -36 -9q-12 7 -36 17q-1 -2 -11 -7q-29 -13 -67 -12l-26 1h-13q-2 1 -24 -1q-15 -1 -17 6l-2 6l-40 -12q-6 -2 -17 -2q-52 -1 -67 8q-21 13 -20 60q11 20 26 52l-17 43q-2 4 -3 25q0 6 -3 22q-2 13 -2 22
q0 13 2 29q11 8 22 27l-73 -2v132h44v1q0 8 7 25.5t8 23.5q7 6 14 17v1l-13 35v24q0 11 -3 24zM346 285q4 -53 25 -53q7 0 17 4q8 8 19 16l25 -1l2 1q11 5 40 58q11 6 23 18q2 5 2 11q0 10 -8 28.5t-7 29.5l2 31l-1 4q-12 5 -29 14l-12 30q-1 1 -11.5 -2.5t-12.5 -3.5
q-6 0 -13 4l-22 12l-9 1q-30 -18 -25 -64q51 -12 29 -39q7 -34 7 -38q-3 -9 -7 -23q0 -19 -17.5 -24.5t-16.5 -13.5z" />
    <glyph glyph-name="Eth" unicode="&#x110;" horiz-adv-x="810" 
d="M57 567l9 45q-7 8 -14 23q-2 64 50 67l18 1l9 1l11 -1l27 -17q1 -1 18.5 7.5t23.5 8.5q2 1 28 -5l27 3l17 -18l33 20q10 6 26 5q18 -1 25.5 -0.5t41.5 -8.5q9 -7 20 -16q15 18 31 22t50 -7q20 -7 73 -56q4 2 13 2q10 0 25 -2q18 -7 25 -16q9 -16 18 -31l-4 -17l26 -2
l4 -3q2 -3 3 -5q33 -34 37 -45l1 -3l16 -19q-1 -17 5 -33l7 -19l-5 -19l19 -14l1 -5q8 -8 10 -28q1 -10 -1 -30q-2 -23 -2 -16q-1 -16 -15 -26t-14 -16q0 -9 6 -28t7 -27q1 -14 -13 -35q-8 -4 -34 -26q1 -1 1 -4q0 -9 -8 -35q-6 -13 -30 -39q-36 -39 -72 -43
q-16 -26 -39 -36q-13 -6 -49 -14t-51 -8q-14 0 -44 12q-3 1 -36 -9q-12 7 -36 17q-1 -2 -11 -7q-29 -13 -67 -12l-26 1h-13q-2 1 -24 -1q-15 -1 -17 6l-2 6l-40 -12q-6 -2 -17 -2q-52 -1 -67 8q-21 13 -20 60q11 20 26 52l-17 43q-2 4 -3 25q0 6 -3 22q-2 13 -2 22
q0 13 2 29q11 8 22 27l-73 -2v132h44v1q0 8 7 25.5t8 23.5q7 6 14 17v1l-13 35v24q0 11 -3 24zM346 285q4 -53 25 -53q7 0 17 4q8 8 19 16l25 -1l2 1q11 5 40 58q11 6 23 18q2 5 2 11q0 10 -8 28.5t-7 29.5l2 31l-1 4q-12 5 -29 14l-12 30q-1 1 -11.5 -2.5t-12.5 -3.5
q-6 0 -13 4l-22 12l-9 1q-30 -18 -25 -64q51 -12 29 -39q7 -34 7 -38q-3 -9 -7 -23q0 -19 -17.5 -24.5t-16.5 -13.5z" />
    <glyph glyph-name="eth" unicode="&#xf0;" horiz-adv-x="593" 
d="M344 571q-21 25 -55 63l-126 -63l-80 81l111 53q-5 4 -40 21l-56 28l132 63q64 -28 93 -49l107 51l90 -75l-110 -53q84 -87 124 -189q33 -83 33 -180q0 -141 -61 -229q-70 -103 -205 -103q-123 0 -199 86q-72 83 -72 207q0 123 67 206q72 89 190 89q30 0 57 -7zM388 409
q-33 43 -90 43q-63 0 -97 -54q-29 -46 -29 -113q0 -70 28 -115q34 -54 99 -54q62 0 96 55q29 47 29 113q0 78 -36 125z" />
    <glyph glyph-name="Yacute" unicode="&#xdd;" horiz-adv-x="724" 
d="M134 714q7 2 13 2q9 -2 52 -16v0l23 6q19 5 37 4q2 -3 5 -6q7 -4 21 -11q3 -2 6 -3q28 18 30 18q44 0 57 -66q24 -13 42 -32q2 -2 14 -6q20 17 34 51q2 1 13 4q3 2 13 31q8 24 34 24q14 0 35 -7q4 -7 11 -17q56 31 84 29q10 -1 36 -5q23 -4 35 -2q2 1 11 3q11 3 21 -6
t11 -20t-13 -36l-20 -35q-11 -11 -24 -18q-3 -13 -20 -42.5t-21 -50.5l-7 -37l-6 -9l-21 -11l-11 -20l-12 -19l-7 -9l-17 -25q-7 -14 -7 -53q-3 -14 -15 -28q-10 -4 -23 -11l-1 -31q0 -8 -10 -22q-11 -17 -12 -21q-8 -17 -24 -39q1 -5 2 -24q1 -16 -29 -51l-15 -10v-14
q-6 -46 -15 -57q-13 -16 -54 -15q-18 1 -45 15q-2 1 -43 -16q-5 -2 -13 -2q-22 0 -68 18q-21 -10 -49 -20q-8 -3 -20 -3q-44 0 -47 35l25 20q9 28 23 46.5t28 37.5q0 17 11 44q7 1 31 21q-5 10 -7 40q3 17 34 53q5 8 5 22q0 10 -2 22q-7 10 -23 20q-20 12 -24 16
q-9 9 -13 24.5t-7 20.5l-8 12l-15 24q-1 1 1 8.5t2 8.5q0 8 -8 11l-22 7l-5 6q-14 23 -18 42l-24 2q-5 6 -6.5 16.5t-3.5 13.5q-5 10 -3 23q2 12 2 16q-19 -5 -25 -5q-12 0 -21 5q-7 20 -20 46q-7 15 -7 25q0 23 37 29q33 5 65 -8zM603 920l-164 -134l-66 44l131 154z" />
    <glyph glyph-name="Yacute" unicode="&#xfd;" horiz-adv-x="724" 
d="M134 714q7 2 13 2q9 -2 52 -16v0l23 6q19 5 37 4q2 -3 5 -6q7 -4 21 -11q3 -2 6 -3q28 18 30 18q44 0 57 -66q24 -13 42 -32q2 -2 14 -6q20 17 34 51q2 1 13 4q3 2 13 31q8 24 34 24q14 0 35 -7q4 -7 11 -17q56 31 84 29q10 -1 36 -5q23 -4 35 -2q2 1 11 3q11 3 21 -6
t11 -20t-13 -36l-20 -35q-11 -11 -24 -18q-3 -13 -20 -42.5t-21 -50.5l-7 -37l-6 -9l-21 -11l-11 -20l-12 -19l-7 -9l-17 -25q-7 -14 -7 -53q-3 -14 -15 -28q-10 -4 -23 -11l-1 -31q0 -8 -10 -22q-11 -17 -12 -21q-8 -17 -24 -39q1 -5 2 -24q1 -16 -29 -51l-15 -10v-14
q-6 -46 -15 -57q-13 -16 -54 -15q-18 1 -45 15q-2 1 -43 -16q-5 -2 -13 -2q-22 0 -68 18q-21 -10 -49 -20q-8 -3 -20 -3q-44 0 -47 35l25 20q9 28 23 46.5t28 37.5q0 17 11 44q7 1 31 21q-5 10 -7 40q3 17 34 53q5 8 5 22q0 10 -2 22q-7 10 -23 20q-20 12 -24 16
q-9 9 -13 24.5t-7 20.5l-8 12l-15 24q-1 1 1 8.5t2 8.5q0 8 -8 11l-22 7l-5 6q-14 23 -18 42l-24 2q-5 6 -6.5 16.5t-3.5 13.5q-5 10 -3 23q2 12 2 16q-19 -5 -25 -5q-12 0 -21 5q-7 20 -20 46q-7 15 -7 25q0 23 37 29q33 5 65 -8zM603 920l-164 -134l-66 44l131 154z" />
    <glyph glyph-name="Thorn" unicode="&#xde;" horiz-adv-x="668" 
d="M312 763l-6 -76q25 9 47 10q69 4 103 -23q11 3 19 3t13 -2h2l30 -21l34 -20q0 -9 9 -42q5 -9 22 -16q12 -5 35 -16q2 -8 4 -17q6 -18 18 -30l14 -14l-2 -34q-1 -18 0 -28l2 -19q0 -16 -9 -28l-13 -18q-2 -3 2.5 -12t4.5 -11q-9 -38 -20.5 -55.5t-43.5 -45.5
q-1 -8 -10 -27q-4 2 -23 -1q-2 -2 -25 -30l-15 -18q-10 -10 -21 -11q7 0 -9 5.5t-22 6.5l-30 4q-46 -23 -82 -25q-8 0 -26 4q-7 0 -7 -39v-2l5 -35l11 -44q2 -6 -5 -15q-7 -12 -8 -15q-2 -13 -22 -13q-13 0 -28 7q-23 11 -27 15l-16 -11l-1 -1l-29 11l-9 -10q-9 -9 -18 -11
q3 6 -29 14q-8 2 -26 -3q-11 -6 -34 -6q-44 -1 -44 39q0 15 11 44q-3 1 -14 24q-1 3 6 35q1 5 11 29q15 23 15 27l-9 5q-10 6 -17 22v1l2 41q2 33 0 39l-12 41v2l18 36q5 10 5 19q0 4 -10 41v1l-1 40l-1 9l-9 37q-2 8 -2 12q0 7 7.5 23t9 22.5t4.5 14.5q2 2 -11 30
q-5 11 2 35q1 3 4 9q-13 60 -12 62q11 23 14 24q-11 29 -11 44q0 40 44 39q23 0 34 -6q18 -5 26 -3t21 9q6 2 11 4q5 0 15 -10l9 -10l29 11l1 -1l16 -11q4 4 27 15q15 7 28 7q20 0 22 -13q1 -3 8 -13.5t5 -16.5zM163 849l-2 1zM312 474q3 -37 -2 -52l-12 -37v-2
q0 -33 16 -33q3 0 7 2l43 -1q22 28 20 39q-2 12 -2 24q16 28 14 36q-13 54 -56 64q-29 -22 -28 -40z" />
    <glyph glyph-name="Thorn" unicode="&#xfe;" horiz-adv-x="668" 
d="M312 763l-6 -76q25 9 47 10q69 4 103 -23q11 3 19 3t13 -2h2l30 -21l34 -20q0 -9 9 -42q5 -9 22 -16q12 -5 35 -16q2 -8 4 -17q6 -18 18 -30l14 -14l-2 -34q-1 -18 0 -28l2 -19q0 -16 -9 -28l-13 -18q-2 -3 2.5 -12t4.5 -11q-9 -38 -20.5 -55.5t-43.5 -45.5
q-1 -8 -10 -27q-4 2 -23 -1q-2 -2 -25 -30l-15 -18q-10 -10 -21 -11q7 0 -9 5.5t-22 6.5l-30 4q-46 -23 -82 -25q-8 0 -26 4q-7 0 -7 -39v-2l5 -35l11 -44q2 -6 -5 -15q-7 -12 -8 -15q-2 -13 -22 -13q-13 0 -28 7q-23 11 -27 15l-16 -11l-1 -1l-29 11l-9 -10q-9 -9 -18 -11
q3 6 -29 14q-8 2 -26 -3q-11 -6 -34 -6q-44 -1 -44 39q0 15 11 44q-3 1 -14 24q-1 3 6 35q1 5 11 29q15 23 15 27l-9 5q-10 6 -17 22v1l2 41q2 33 0 39l-12 41v2l18 36q5 10 5 19q0 4 -10 41v1l-1 40l-1 9l-9 37q-2 8 -2 12q0 7 7.5 23t9 22.5t4.5 14.5q2 2 -11 30
q-5 11 2 35q1 3 4 9q-13 60 -12 62q11 23 14 24q-11 29 -11 44q0 40 44 39q23 0 34 -6q18 -5 26 -3t21 9q6 2 11 4q5 0 15 -10l9 -10l29 11l1 -1l16 -11q4 4 27 15q15 7 28 7q20 0 22 -13q1 -3 8 -13.5t5 -16.5zM163 849l-2 1zM312 474q3 -37 -2 -52l-12 -37v-2
q0 -33 16 -33q3 0 7 2l43 -1q22 28 20 39q-2 12 -2 24q16 28 14 36q-13 54 -56 64q-29 -22 -28 -40z" />
    <glyph glyph-name="minus" unicode="&#xad;" horiz-adv-x="584" 
d="M3 181v144h577v-144h-577z" />
    <glyph glyph-name="minus" unicode="&#x2212;" horiz-adv-x="584" 
d="M3 181v144h577v-144h-577z" />
    <glyph glyph-name="multiply" unicode="&#xd7;" horiz-adv-x="665" 
d="M534 -29l-202 201l-202 -203l-100 103l201 201l-203 202l103 100l201 -200l202 200l100 -100l-200 -202l200 -202z" />
    <glyph glyph-name="Lslash" unicode="&#x141;" horiz-adv-x="589" 
d="M69 193l1 45l-8 37q-3 9 -3 17q0 6 2 14l-71 -30v48l85 37l-6 27v1l13 44v3l-10 42v14l-5 31q4 11 10 35q1 4 1 13q-2 8 -2 10q-8 54 -8 74q0 28 20 47q17 5 34 5q27 0 55 -12q26 17 54 17q19 0 41 -13q3 -2 31 9q5 2 12 2q26 0 26 -45v-4l-13 -35q0 -3 5.5 -18.5
t5.5 -21.5q4 -16 3 -40l-1 -4l-4 -31q-8 -32 -9 -42l152 65v-49l-143 -61q7 -31 6 -43l-2 -43q-1 -15 -7 -27l-6 -11v-2l13 -29q5 -11 5 -24q0 -4 -1 -11t-1 -11q0 -10 12 -10q5 0 24 4l37 8l12 -1l26 -13l32 4q16 2 30 2q18 0 23 -20q2 -5 2 -11q0 -7 -4 -15q0 -1 -2 -14
q-5 -31 -4 -53q0 -11 5.5 -34t5.5 -35q0 -37 -42 -31q-12 7 -25 15q-5 0 -11 -7l-11 -11l-34 13l-47 -14q-10 9 -19 9q-10 0 -31 -8l-7 6q-7 6 -21 9h-1l-26 -15h-44l-20 11l-27 -12q-11 7 -23 7h-3l-24 -6q-8 -2 -15 -1q-33 1 -39 7q-11 10 -10 59q5 40 5 95v6q2 2 5 4
q5 7 5 12q0 7 -9 10z" />
    <glyph glyph-name="Lslash" unicode="&#x142;" horiz-adv-x="589" 
d="M69 193l1 45l-8 37q-3 9 -3 17q0 6 2 14l-71 -30v48l85 37l-6 27v1l13 44v3l-10 42v14l-5 31q4 11 10 35q1 4 1 13q-2 8 -2 10q-8 54 -8 74q0 28 20 47q17 5 34 5q27 0 55 -12q26 17 54 17q19 0 41 -13q3 -2 31 9q5 2 12 2q26 0 26 -45v-4l-13 -35q0 -3 5.5 -18.5
t5.5 -21.5q4 -16 3 -40l-1 -4l-4 -31q-8 -32 -9 -42l152 65v-49l-143 -61q7 -31 6 -43l-2 -43q-1 -15 -7 -27l-6 -11v-2l13 -29q5 -11 5 -24q0 -4 -1 -11t-1 -11q0 -10 12 -10q5 0 24 4l37 8l12 -1l26 -13l32 4q16 2 30 2q18 0 23 -20q2 -5 2 -11q0 -7 -4 -15q0 -1 -2 -14
q-5 -31 -4 -53q0 -11 5.5 -34t5.5 -35q0 -37 -42 -31q-12 7 -25 15q-5 0 -11 -7l-11 -11l-34 13l-47 -14q-10 9 -19 9q-10 0 -31 -8l-7 6q-7 6 -21 9h-1l-26 -15h-44l-20 11l-27 -12q-11 7 -23 7h-3l-24 -6q-8 -2 -15 -1q-33 1 -39 7q-11 10 -10 59q5 40 5 95v6q2 2 5 4
q5 7 5 12q0 7 -9 10z" />
    <glyph glyph-name="Zcaron" unicode="&#x17d;" horiz-adv-x="724" 
d="M28 132q0 5 -3.5 15t-3.5 14t2 6v1l33 24q-4 -2 13 -2q12 0 20 16l14 29l7 7q5 5 9 19.5t7 17.5q17 7 42 19q-2 5 5 32q2 7 41 29q10 7 17 23l2 22l2 4l2 2l29 14q15 7 18 28q3 22 -21 22q-16 0 -36 -2q-41 -10 -45 -9q-8 9 -20 21h-1l-27 -12q-6 -8 -30 -19h-9l-23 9
q-9 3 -29 11q-9 6 -7 21q1 6 9 25q3 7 -15 34q12 23 12 39q0 11 -5 20q-6 19 -4 36q4 38 27 48q14 6 59 4q29 -1 61 -17l9 10q19 21 40 21l9 -8q9 -8 37 -9q2 0 18 -3q2 0 6.5 -5.5t6.5 -6.5q1 0 10 11.5t12 12t18 4.5q10 2 13 -2l9 -9l25 -2q17 -1 43 2q14 2 40 -9
q6 4 30 18l34 -9q30 -8 36 -8q30 10 28 10q25 -2 25 -21q0 -20 -16 -44q2 -3 5 -12q9 -29 0 -80q-1 -6 5 -34l-7 -5q-9 -8 -19 -31q-5 -19 -19 -44q-5 -4 -17 -3.5t-16 -1.5l-3 -19q-17 -32 -50 -59q-9 -2 -25 -6q7 -9 -4 -55q-3 -12 -12 -22q-8 -2 -21 -8q-16 -16 0 -37
q11 -15 30 -12q9 -2 17 -2q11 0 22 3q6 6 16 15q5 2 16.5 -1.5t15.5 -3.5t15 -7t14 -8q13 9 47 21q50 4 50 -31q0 -26 -19 -47q17 -21 17 -49q0 -12 -3 -26q-7 -3 -15 -12q6 -4 14 -12q4 -14 4 -24q0 -25 -28 -25h-1l-25 2l-9 -6q-7 -5 -24 -6l-13 7q-14 8 -21 9t-35 -5
q-8 -2 -29 10q-4 -2 -13 -4q-1 -1 -27 -9q-16 -5 -25 -5q-18 0 -39 12q-7 4 -19 4t-84 -14q-6 -1 -36 12q-4 1 -31 -7q-10 -3 -31 6q-19 -6 -34 -6h-5l-31 -12q-3 -2 -18.5 5t-21.5 6q-13 -2 -21 -2q-38 0 -38 49q0 14 9 43t7 45zM540 904l-171 -112l-170 113l52 68l118 -69
l120 69z" />
    <glyph glyph-name="Zcaron" unicode="&#x17e;" horiz-adv-x="724" 
d="M28 132q0 5 -3.5 15t-3.5 14t2 6v1l33 24q-4 -2 13 -2q12 0 20 16l14 29l7 7q5 5 9 19.5t7 17.5q17 7 42 19q-2 5 5 32q2 7 41 29q10 7 17 23l2 22l2 4l2 2l29 14q15 7 18 28q3 22 -21 22q-16 0 -36 -2q-41 -10 -45 -9q-8 9 -20 21h-1l-27 -12q-6 -8 -30 -19h-9l-23 9
q-9 3 -29 11q-9 6 -7 21q1 6 9 25q3 7 -15 34q12 23 12 39q0 11 -5 20q-6 19 -4 36q4 38 27 48q14 6 59 4q29 -1 61 -17l9 10q19 21 40 21l9 -8q9 -8 37 -9q2 0 18 -3q2 0 6.5 -5.5t6.5 -6.5q1 0 10 11.5t12 12t18 4.5q10 2 13 -2l9 -9l25 -2q17 -1 43 2q14 2 40 -9
q6 4 30 18l34 -9q30 -8 36 -8q30 10 28 10q25 -2 25 -21q0 -20 -16 -44q2 -3 5 -12q9 -29 0 -80q-1 -6 5 -34l-7 -5q-9 -8 -19 -31q-5 -19 -19 -44q-5 -4 -17 -3.5t-16 -1.5l-3 -19q-17 -32 -50 -59q-9 -2 -25 -6q7 -9 -4 -55q-3 -12 -12 -22q-8 -2 -21 -8q-16 -16 0 -37
q11 -15 30 -12q9 -2 17 -2q11 0 22 3q6 6 16 15q5 2 16.5 -1.5t15.5 -3.5t15 -7t14 -8q13 9 47 21q50 4 50 -31q0 -26 -19 -47q17 -21 17 -49q0 -12 -3 -26q-7 -3 -15 -12q6 -4 14 -12q4 -14 4 -24q0 -25 -28 -25h-1l-25 2l-9 -6q-7 -5 -24 -6l-13 7q-14 8 -21 9t-35 -5
q-8 -2 -29 10q-4 -2 -13 -4q-1 -1 -27 -9q-16 -5 -25 -5q-18 0 -39 12q-7 4 -19 4t-84 -14q-6 -1 -36 12q-4 1 -31 -7q-10 -3 -31 6q-19 -6 -34 -6h-5l-31 -12q-3 -2 -18.5 5t-21.5 6q-13 -2 -21 -2q-38 0 -38 49q0 14 9 43t7 45zM540 904l-171 -112l-170 113l52 68l118 -69
l120 69z" />
    <glyph glyph-name="notequal" unicode="&#x2260;" horiz-adv-x="671" 
d="M318 106l-101 -180l-112 63l64 117h-138v129h209l40 72h-249v128h321l101 184l113 -63l-66 -121h147v-128h-218l-40 -72h258v-129h-329z" />
    <glyph glyph-name="infinity" unicode="&#x221e;" horiz-adv-x="742" 
d="M716 276q0 -57 -41 -102.5t-98 -45.5q-58 0 -117 36q-26 16 -47 35q-10 9 -42 41q-22 -23 -68 -63q-66 -48 -137 -48q-58 0 -98.5 45t-40.5 103q0 61 43.5 102t104.5 41q67 0 162 -80l35 -30l10 8q25 23 77 65q54 37 111 37q60 0 103 -42t43 -102zM662 270q0 38 -27 67
t-65 29q-52 0 -127 -61l-27 -22l-9 -8l10 -11q39 -43 85 -69q28 -16 66 -16q39 0 66.5 26t27.5 65zM337 275l-9 8q-47 42 -88 64q-34 18 -65 18q-39 0 -67 -27t-28 -66t28.5 -66t67.5 -27q65 0 141 76z" />
    <glyph glyph-name="lessequal" unicode="&#x2264;" horiz-adv-x="669" 
d="M44 449v108l588 273v-142l-400 -185l400 -185v-141zM44 5v128h588v-128h-588z" />
    <glyph glyph-name="greaterequal" unicode="&#x2265;" horiz-adv-x="669" 
d="M632 449v108l-588 273v-142l400 -185l-400 -185v-141zM632 5v128h-588v-128h588z" />
    <glyph glyph-name="partialdiff" unicode="&#x2202;" horiz-adv-x="514" 
d="M480 417q0 -161 -49 -278q-66 -160 -205 -160q-85 0 -142 58.5t-57 143.5q0 93 55 162q59 75 150 75q70 0 147 -62l10 -8q11 72 11 111q0 70 -19 135q-25 83 -72 111q-39 23 -87 23q-26 0 -49 -8q-5 -2 -46 -19l-19 -8l-40 53l12 4l23 8l12 3l22 5q40 9 62 9
q138 0 214 -114q67 -99 67 -244zM380 311q-53 65 -109 65q-75 0 -118 -78q-35 -64 -35 -146q0 -56 18 -93q24 -49 74 -49q92 0 138 144q25 79 32 157z" />
    <glyph glyph-name="summation" unicode="&#x2211;" horiz-adv-x="742" 
d="M723 121l-3 -14l-17 -72l-18 -89l-7 -58l-75 11l-588 -3l363 414l-361 471l83 -6h542l7 -167h-23l-3 13q-14 59 -47 85q-29 21 -92 21h-287l281 -371l-304 -352h404q48 0 78 37q21 25 41 80h26z" />
    <glyph glyph-name="product" unicode="&#x220f;" horiz-adv-x="856" 
d="M835 -105h-319v25q100 0 100 75v728h-371v-733q0 -70 100 -70v-25h-319v25q100 0 100 70v676q0 42 -26 66t-68 24h-4v25h804v-25h-4q-94 0 -94 -101v-660q0 -75 101 -75v-25z" />
    <glyph glyph-name="pi" unicode="&#x3c0;" horiz-adv-x="571" 
d="M551 158q0 -65 -28 -114q-35 -60 -95 -60q-47 0 -74 49q-30 55 -27 134l3 77l18 173h-116l-1 -16q-6 -98 -27 -240q-15 -102 -28 -137q-16 -44 -61 -44q-25 0 -41 17t-16 43q0 13 8 21l50 67q17 17 21 48l30 241h-23q-47 0 -69 -13q-18 -12 -46 -54h-19q15 45 23 63
q14 31 37 56q33 37 80 37h393v-89h-130l-1 -13q-12 -156 -12 -207v-8q0 -109 65 -109q55 0 63 78h23z" />
    <glyph glyph-name="integral" unicode="&#x222b;" horiz-adv-x="285" 
d="M303 894q0 -47 -58 -47q-6 0 -14 4l-22 17q-4 1 -10 5q-23 0 -21 -34l1 -22l15 -187q5 -62 5 -233q0 -158 -5 -223q-13 -175 -53 -248q-20 -36 -80 -36q-25 0 -42 20t-17 45q0 20 23 34q15 9 25 9q12 0 48 -32q37 3 34 93l-8 261l1 285q0 133 11 199q24 147 99 147
q28 0 48 -15t20 -42z" />
    <glyph glyph-name="Omega" unicode="&#x3a9;" horiz-adv-x="799" 
d="M765 0h-306l16 158q52 21 78 48q69 70 69 211q0 119 -51 187q-58 78 -172 78q-111 0 -169 -79q-52 -70 -52 -185q0 -142 72 -214q27 -27 77 -46l16 -158h-308v168h18q6 -24 10 -32q8 -20 21 -24q26 -10 108 -8l92 2l-2 28q-89 27 -131 65q-95 85 -95 215q0 140 105 224
q97 78 240 78q142 0 239 -78q105 -84 105 -223q0 -73 -34 -139q-36 -69 -97 -103q-40 -22 -94 -39l-2 -28q16 0 47 -1t47 -1q87 0 105 7q21 14 29 45l3 12h16v-168z" />
    <glyph glyph-name="Omega" unicode="&#x2126;" horiz-adv-x="799" 
d="M765 0h-306l16 158q52 21 78 48q69 70 69 211q0 119 -51 187q-58 78 -172 78q-111 0 -169 -79q-52 -70 -52 -185q0 -142 72 -214q27 -27 77 -46l16 -158h-308v168h18q6 -24 10 -32q8 -20 21 -24q26 -10 108 -8l92 2l-2 28q-89 27 -131 65q-95 85 -95 215q0 140 105 224
q97 78 240 78q142 0 239 -78q105 -84 105 -223q0 -73 -34 -139q-36 -69 -97 -103q-40 -22 -94 -39l-2 -28q16 0 47 -1t47 -1q87 0 105 7q21 14 29 45l3 12h16v-168z" />
    </font>
</defs>
</svg>
