<?xml version="1.0" standalone="no"?>
<!DOCTYPE svg PUBLIC "-//W3C//DTD SVG 1.1//EN" "http://www.w3.org/Graphics/SVG/1.1/DTD/svg11.dtd" >
<svg>
<metadata>
Created by FontForge 20120731 at Fri Nov  6 01:51:50 2015
 By www-data
</metadata>
<defs>
<font id="Windsor-Bold" horiz-adv-x="0" >
  <font-face 
    font-family="Windsor"
    font-weight="700"
    font-style="italic"
    font-stretch="normal"
    units-per-em="1000"
    panose-1="0 0 4 0 0 0 0 0 0 0"
    ascent="800"
    descent="-200"
    x-height="508"
    cap-height="767"
    bbox="-644 -481 1070 1203"
    underline-thickness="107"
    underline-position="-91"
    slope="-10"
    unicode-range="U+0020-F02A"
  />
<missing-glyph horiz-adv-x="500" 
d="M63 0v806h375v-806h-375zM125 63h250v681h-250v-681z" />
    <glyph glyph-name=".notdef" horiz-adv-x="500" 
d="M63 0v806h375v-806h-375zM125 63h250v681h-250v-681z" />
    <glyph glyph-name=".null" 
 />
    <glyph glyph-name="nonmarkingreturn" horiz-adv-x="393" 
 />
    <glyph glyph-name="space" unicode=" " horiz-adv-x="393" 
 />
    <glyph glyph-name="space" unicode="&#x2031;" horiz-adv-x="393" 
 />
    <glyph glyph-name="space" unicode="&#x2025;" horiz-adv-x="393" 
 />
    <glyph glyph-name="space" unicode="&#x2024;" horiz-adv-x="393" 
 />
    <glyph glyph-name="space" unicode="&#x2023;" horiz-adv-x="393" 
 />
    <glyph glyph-name="space" unicode="&#x201f;" horiz-adv-x="393" 
 />
    <glyph glyph-name="space" unicode="&#x201b;" horiz-adv-x="393" 
 />
    <glyph glyph-name="space" unicode="&#x2017;" horiz-adv-x="393" 
 />
    <glyph glyph-name="space" unicode="&#x2016;" horiz-adv-x="393" 
 />
    <glyph glyph-name="space" unicode="&#x2015;" horiz-adv-x="393" 
 />
    <glyph glyph-name="exclam" unicode="!" horiz-adv-x="250" 
d="M85 232q28 0 26 0q8 2 11 20l56 324q12 72 12 101q0 99 -85 104q-112 6 -112 -108q0 -34 12 -97l60 -324q3 -14 5.5 -17t14.5 -3zM42 2q12 0 33 -1t30 -1q38 0 55 13q21 15 21 58q0 2 1 18t1 28q0 68 -27 70q-40 7 -73 7q-78 0 -78 -41q0 -9 -3.5 -39t-3.5 -47
q0 -65 44 -65z" />
    <glyph glyph-name="quotedbl" unicode="&#x22;" horiz-adv-x="330" 
d="M65 451l42 242q2 9 2 18q0 29 -16.5 45t-38.5 16q-23 0 -38 -16q-18 -17 -18 -45q0 -9 2 -18l42 -242h23zM244 451l42 242q2 9 2 18q0 28 -17 44.5t-39 16.5q-23 0 -38 -16q-18 -16 -18 -45q0 -9 2 -18l43 -242h23z" />
    <glyph glyph-name="numbersign" unicode="#" horiz-adv-x="800" 
d="M68 144q0 -34 -17 -45q-22 -12 -43 -23q-15 -11 -15 -30q0 -44 66 -44h287q169 0 264 51q160 86 160 276q0 210 -182 332q-159 106 -378 106h-151q-66 0 -66 -44q0 -20 15 -30q21 -11 43 -21q17 -11 17 -45v-170q-37 0 -50 -6q-20 -9 -20 -40q0 -37 18 -45q7 -3 52 -3
v-219zM261 170v193h122q26 0 26 44q0 50 -26 50h-122v139q0 58 63 58q9 0 19 -1q101 -12 159 -103q50 -79 51 -184q1 -118 -60 -185.5t-175 -70.5q-35 -1 -47 14q-10 12 -10 46z" />
    <glyph glyph-name="dollar" unicode="$" horiz-adv-x="670" 
d="M267 346v-233q-115 20 -182 77q-2 1 -31 25q-21 17 -36 17q-22 0 -22 -25q0 -29 32 -89l40 -70q34 -60 56 -60q18 0 32 31q10 15 33 15q15 0 42.5 -7t35.5 -8v-135q0 -11 47 -11q46 0 46 14v124q62 3 90 8q50 8 86 29q95 56 100 187q4 113 -85 182q-62 48 -191 85v131
q41 -20 58 -30q30 -17 53 -35q33 -26 48 -23q24 2 24 26q0 15 -9 31q-104 154 -138 154q-11 0 -20 -16q-11 -19 -16 -22v114q0 6 -20 8q-13 1 -38 0q-29 -2 -27 -2q-8 0 -10 -25q-1 -18 0 -49q2 -39 2 -34q-86 0 -149 -36q-74 -42 -82 -121q-1 -11 -1 -21q0 -85 76 -138
q45 -31 156 -68zM360 110v199q51 -22 73 -39q38 -30 38 -69q0 -40 -37 -65q-30 -21 -74 -26zM269 642v-117q-86 25 -85 63q2 46 85 54z" />
    <glyph glyph-name="percent" unicode="%" horiz-adv-x="780" 
d="M96 -25q-3 -7 -3 -13q0 -25 47 -25q56 0 70 27l406 763q3 6 3 11q0 17 -34 17q-49 0 -60 -20zM-5 539q2 -95 52 -151q46 -50 111 -50q67 0 113 53q52 58 52 157q0 96 -53 152q-47 51 -114 50t-112 -54q-49 -58 -49 -157zM105 551q0 4 -1 21v28q0 113 60 107q36 -4 44 -69
q2 -13 2 -90q0 -4 1 -23.5t1 -32.5q0 -103 -51 -103q-41 0 -52 67q-4 22 -4 95zM423 187q2 -95 53 -150q46 -50 111 -50q67 0 114 52q51 57 51 154q0 99 -52 155q-46 50 -115 49q-68 -1 -113 -53q-51 -59 -49 -157zM534 198q0 4 -1 22v29q0 113 57 106q38 -5 47 -69
q2 -14 2 -90q0 -4 1 -21v-29q0 -110 -52 -110q-40 0 -51 66q-3 22 -3 96z" />
    <glyph glyph-name="percent" unicode="&#x202f;" horiz-adv-x="780" 
d="M96 -25q-3 -7 -3 -13q0 -25 47 -25q56 0 70 27l406 763q3 6 3 11q0 17 -34 17q-49 0 -60 -20zM-5 539q2 -95 52 -151q46 -50 111 -50q67 0 113 53q52 58 52 157q0 96 -53 152q-47 51 -114 50t-112 -54q-49 -58 -49 -157zM105 551q0 4 -1 21v28q0 113 60 107q36 -4 44 -69
q2 -13 2 -90q0 -4 1 -23.5t1 -32.5q0 -103 -51 -103q-41 0 -52 67q-4 22 -4 95zM423 187q2 -95 53 -150q46 -50 111 -50q67 0 114 52q51 57 51 154q0 99 -52 155q-46 50 -115 49q-68 -1 -113 -53q-51 -59 -49 -157zM534 198q0 4 -1 22v29q0 113 57 106q38 -5 47 -69
q2 -14 2 -90q0 -4 1 -21v-29q0 -110 -52 -110q-40 0 -51 66q-3 22 -3 96z" />
    <glyph glyph-name="percent" unicode="&#x202e;" horiz-adv-x="780" 
d="M96 -25q-3 -7 -3 -13q0 -25 47 -25q56 0 70 27l406 763q3 6 3 11q0 17 -34 17q-49 0 -60 -20zM-5 539q2 -95 52 -151q46 -50 111 -50q67 0 113 53q52 58 52 157q0 96 -53 152q-47 51 -114 50t-112 -54q-49 -58 -49 -157zM105 551q0 4 -1 21v28q0 113 60 107q36 -4 44 -69
q2 -13 2 -90q0 -4 1 -23.5t1 -32.5q0 -103 -51 -103q-41 0 -52 67q-4 22 -4 95zM423 187q2 -95 53 -150q46 -50 111 -50q67 0 114 52q51 57 51 154q0 99 -52 155q-46 50 -115 49q-68 -1 -113 -53q-51 -59 -49 -157zM534 198q0 4 -1 22v29q0 113 57 106q38 -5 47 -69
q2 -14 2 -90q0 -4 1 -21v-29q0 -110 -52 -110q-40 0 -51 66q-3 22 -3 96z" />
    <glyph glyph-name="percent" unicode="&#x202d;" horiz-adv-x="780" 
d="M96 -25q-3 -7 -3 -13q0 -25 47 -25q56 0 70 27l406 763q3 6 3 11q0 17 -34 17q-49 0 -60 -20zM-5 539q2 -95 52 -151q46 -50 111 -50q67 0 113 53q52 58 52 157q0 96 -53 152q-47 51 -114 50t-112 -54q-49 -58 -49 -157zM105 551q0 4 -1 21v28q0 113 60 107q36 -4 44 -69
q2 -13 2 -90q0 -4 1 -23.5t1 -32.5q0 -103 -51 -103q-41 0 -52 67q-4 22 -4 95zM423 187q2 -95 53 -150q46 -50 111 -50q67 0 114 52q51 57 51 154q0 99 -52 155q-46 50 -115 49q-68 -1 -113 -53q-51 -59 -49 -157zM534 198q0 4 -1 22v29q0 113 57 106q38 -5 47 -69
q2 -14 2 -90q0 -4 1 -21v-29q0 -110 -52 -110q-40 0 -51 66q-3 22 -3 96z" />
    <glyph glyph-name="percent" unicode="&#x202c;" horiz-adv-x="780" 
d="M96 -25q-3 -7 -3 -13q0 -25 47 -25q56 0 70 27l406 763q3 6 3 11q0 17 -34 17q-49 0 -60 -20zM-5 539q2 -95 52 -151q46 -50 111 -50q67 0 113 53q52 58 52 157q0 96 -53 152q-47 51 -114 50t-112 -54q-49 -58 -49 -157zM105 551q0 4 -1 21v28q0 113 60 107q36 -4 44 -69
q2 -13 2 -90q0 -4 1 -23.5t1 -32.5q0 -103 -51 -103q-41 0 -52 67q-4 22 -4 95zM423 187q2 -95 53 -150q46 -50 111 -50q67 0 114 52q51 57 51 154q0 99 -52 155q-46 50 -115 49q-68 -1 -113 -53q-51 -59 -49 -157zM534 198q0 4 -1 22v29q0 113 57 106q38 -5 47 -69
q2 -14 2 -90q0 -4 1 -21v-29q0 -110 -52 -110q-40 0 -51 66q-3 22 -3 96z" />
    <glyph glyph-name="percent" unicode="&#x202b;" horiz-adv-x="780" 
d="M96 -25q-3 -7 -3 -13q0 -25 47 -25q56 0 70 27l406 763q3 6 3 11q0 17 -34 17q-49 0 -60 -20zM-5 539q2 -95 52 -151q46 -50 111 -50q67 0 113 53q52 58 52 157q0 96 -53 152q-47 51 -114 50t-112 -54q-49 -58 -49 -157zM105 551q0 4 -1 21v28q0 113 60 107q36 -4 44 -69
q2 -13 2 -90q0 -4 1 -23.5t1 -32.5q0 -103 -51 -103q-41 0 -52 67q-4 22 -4 95zM423 187q2 -95 53 -150q46 -50 111 -50q67 0 114 52q51 57 51 154q0 99 -52 155q-46 50 -115 49q-68 -1 -113 -53q-51 -59 -49 -157zM534 198q0 4 -1 22v29q0 113 57 106q38 -5 47 -69
q2 -14 2 -90q0 -4 1 -21v-29q0 -110 -52 -110q-40 0 -51 66q-3 22 -3 96z" />
    <glyph glyph-name="percent" unicode="&#x202a;" horiz-adv-x="780" 
d="M96 -25q-3 -7 -3 -13q0 -25 47 -25q56 0 70 27l406 763q3 6 3 11q0 17 -34 17q-49 0 -60 -20zM-5 539q2 -95 52 -151q46 -50 111 -50q67 0 113 53q52 58 52 157q0 96 -53 152q-47 51 -114 50t-112 -54q-49 -58 -49 -157zM105 551q0 4 -1 21v28q0 113 60 107q36 -4 44 -69
q2 -13 2 -90q0 -4 1 -23.5t1 -32.5q0 -103 -51 -103q-41 0 -52 67q-4 22 -4 95zM423 187q2 -95 53 -150q46 -50 111 -50q67 0 114 52q51 57 51 154q0 99 -52 155q-46 50 -115 49q-68 -1 -113 -53q-51 -59 -49 -157zM534 198q0 4 -1 22v29q0 113 57 106q38 -5 47 -69
q2 -14 2 -90q0 -4 1 -21v-29q0 -110 -52 -110q-40 0 -51 66q-3 22 -3 96z" />
    <glyph glyph-name="percent" unicode="&#x2029;" horiz-adv-x="780" 
d="M96 -25q-3 -7 -3 -13q0 -25 47 -25q56 0 70 27l406 763q3 6 3 11q0 17 -34 17q-49 0 -60 -20zM-5 539q2 -95 52 -151q46 -50 111 -50q67 0 113 53q52 58 52 157q0 96 -53 152q-47 51 -114 50t-112 -54q-49 -58 -49 -157zM105 551q0 4 -1 21v28q0 113 60 107q36 -4 44 -69
q2 -13 2 -90q0 -4 1 -23.5t1 -32.5q0 -103 -51 -103q-41 0 -52 67q-4 22 -4 95zM423 187q2 -95 53 -150q46 -50 111 -50q67 0 114 52q51 57 51 154q0 99 -52 155q-46 50 -115 49q-68 -1 -113 -53q-51 -59 -49 -157zM534 198q0 4 -1 22v29q0 113 57 106q38 -5 47 -69
q2 -14 2 -90q0 -4 1 -21v-29q0 -110 -52 -110q-40 0 -51 66q-3 22 -3 96z" />
    <glyph glyph-name="percent" unicode="&#x2028;" horiz-adv-x="780" 
d="M96 -25q-3 -7 -3 -13q0 -25 47 -25q56 0 70 27l406 763q3 6 3 11q0 17 -34 17q-49 0 -60 -20zM-5 539q2 -95 52 -151q46 -50 111 -50q67 0 113 53q52 58 52 157q0 96 -53 152q-47 51 -114 50t-112 -54q-49 -58 -49 -157zM105 551q0 4 -1 21v28q0 113 60 107q36 -4 44 -69
q2 -13 2 -90q0 -4 1 -23.5t1 -32.5q0 -103 -51 -103q-41 0 -52 67q-4 22 -4 95zM423 187q2 -95 53 -150q46 -50 111 -50q67 0 114 52q51 57 51 154q0 99 -52 155q-46 50 -115 49q-68 -1 -113 -53q-51 -59 -49 -157zM534 198q0 4 -1 22v29q0 113 57 106q38 -5 47 -69
q2 -14 2 -90q0 -4 1 -21v-29q0 -110 -52 -110q-40 0 -51 66q-3 22 -3 96z" />
    <glyph glyph-name="percent" unicode="&#x2027;" horiz-adv-x="780" 
d="M96 -25q-3 -7 -3 -13q0 -25 47 -25q56 0 70 27l406 763q3 6 3 11q0 17 -34 17q-49 0 -60 -20zM-5 539q2 -95 52 -151q46 -50 111 -50q67 0 113 53q52 58 52 157q0 96 -53 152q-47 51 -114 50t-112 -54q-49 -58 -49 -157zM105 551q0 4 -1 21v28q0 113 60 107q36 -4 44 -69
q2 -13 2 -90q0 -4 1 -23.5t1 -32.5q0 -103 -51 -103q-41 0 -52 67q-4 22 -4 95zM423 187q2 -95 53 -150q46 -50 111 -50q67 0 114 52q51 57 51 154q0 99 -52 155q-46 50 -115 49q-68 -1 -113 -53q-51 -59 -49 -157zM534 198q0 4 -1 22v29q0 113 57 106q38 -5 47 -69
q2 -14 2 -90q0 -4 1 -21v-29q0 -110 -52 -110q-40 0 -51 66q-3 22 -3 96z" />
    <glyph glyph-name="ampersand" unicode="&#x26;" horiz-adv-x="850" 
d="M599 2h176q20 0 34 12.5t14 29.5q0 14 -11 27q-10 8 -31 15q-26 9 -34 13q-22 16 -122 111q187 228 187 454q0 57 -28 57q-14 0 -43 -14q-59 -38 -59 -60q0 -8 5 -14q23 -30 23 -71q0 -112 -151 -281l-133 130q135 70 159 145q7 21 7 44q0 43 -23 83.5t-61 63.5
q-53 32 -122 32q-103 0 -176 -61q-77 -64 -77 -154q0 -71 48 -153q-76 -42 -126 -97q-59 -68 -59 -136q0 -55 40 -107q64 -83 181 -83q134 0 271 91q25 -26 49 -52q28 -25 62 -25zM414 159q-66 -45 -109 -45q-40 0 -73 33q-41 50 -41 96q0 54 56 86zM352 500q-59 68 -59 120
q0 15 5 30q15 40 51 40q30 0 55.5 -27t23.5 -61q-4 -59 -76 -102z" />
    <glyph glyph-name="quotesingle" unicode="'" horiz-adv-x="190" 
d="M5 656q0 -25 13.5 -28t29.5 -6q14 -9 14 -23q0 -16 -14.5 -33t-28.5 -24q-14 -10 -14 -23q0 -27 34 -22q103 14 103 128v107q0 28 -22 34q-5 1 -47 1q-47 0 -58 -6.5t-11 -36.5v-29q1 -22 1 -39z" />
    <glyph glyph-name="parenleft" unicode="(" horiz-adv-x="350" 
d="M14 315q0 -124 44 -234q49 -121 140 -194q14 -9 28 -19q24 -15 37 -15q14 0 14 11q0 24 -33 57q-95 143 -97 368q-4 326 122 463q11 12 11 18q0 4 -6 4q-26 0 -73 -27q-91 -75 -140 -195q-47 -113 -47 -237z" />
    <glyph glyph-name="parenright" unicode=")" horiz-adv-x="300" 
d="M269 321q0 192 -108 346q-25 36 -64 71q-52 47 -83 43q-7 -1 -7 -8q0 -12 24 -46q109 -155 109 -391q0 -191 -69 -355q-28 -67 -57 -97q-14 -15 -12 -26q4 -5 11 -5q29 0 66 37q94 73 144 193q46 110 46 238z" />
    <glyph glyph-name="asterisk" unicode="*" horiz-adv-x="356" 
d="M1 616l111 -28l-74 -88l80 -60l62 99l60 -99l80 60l-71 88l107 28l-28 91l-108 -43l6 117h-94l6 -117l-108 43z" />
    <glyph glyph-name="asterisk" horiz-adv-x="356" 
d="M1 616l111 -28l-74 -88l80 -60l62 99l60 -99l80 60l-71 88l107 28l-28 91l-108 -43l6 117h-94l6 -117l-108 43z" />
    <glyph glyph-name="plus" unicode="+" horiz-adv-x="660" 
d="M267 644v-267h-265v-105h265v-270h108v270h258v105h-258v267h-108z" />
    <glyph glyph-name="comma" unicode="," horiz-adv-x="210" 
d="M-2 142q0 -11 -2 -36.5t-2 -38.5q0 -57 40 -65q34 -1 34 -32q0 -38 -40 -60q-32 -18 -32 -40q0 -28 38 -23q60 0 97 50q33 46 33 108v137q0 24 -24 37t-58 13t-59 -13.5t-25 -36.5z" />
    <glyph glyph-name="hyphen" unicode="-" horiz-adv-x="440" 
d="M133 184h179h33q18 3 27 20q7 13 21.5 63.5t12.5 64.5q1 23 -16 23q-10 0 -43.5 -13t-48.5 -13h-179q-50 0 -76 -51q-24 -45 -18 -100q-1 -21 15 -21q10 0 44 13.5t49 13.5z" />
    <glyph glyph-name="period" unicode="." horiz-adv-x="210" 
d="M34 2q107 0 118.5 6.5t12.5 27.5q-1 -16 -1 32q0 2 1.5 20t1.5 31q0 58 -25 62q-46 7 -72 7q-72 0 -72 -41q0 -8 -2.5 -36t-2.5 -44q0 -65 41 -65z" />
    <glyph glyph-name="slash" unicode="/" horiz-adv-x="600" 
d="M127 -76l446 831q3 5 3 10q0 18 -37 18q-46 0 -57 -19l-468 -829q-9 -17 8 -26.5t45 -9.5q55 0 60 25z" />
    <glyph glyph-name="zero" unicode="0" horiz-adv-x="630" 
d="M0 357q3 -176 94 -279q83 -93 201 -93q120 0 203 96q92 107 92 288q0 182 -93 288q-84 95 -205 93q-120 -2 -202 -100q-91 -109 -90 -293zM204 377v125q4 88 23 120q26 42 70 42q28 0 50 -19t28 -52q11 -65 11 -224q0 -7 1 -35t1 -47q0 -205 -87 -208q-99 -4 -99 214
q0 21 1 49.5t1 34.5z" />
    <glyph glyph-name="one" unicode="1" horiz-adv-x="430" 
d="M130 173q0 -55 -16 -68q-29 -13 -58 -27t-29 -38q0 -38 52 -38h270q21 0 35 12t14 28q0 20 -21 34q-25 10 -50 21q-18 10 -18 67v551q0 39 -23 39q-13 0 -36 -13l-211 -114q-40 -22 -40 -53q0 -23 29 -32l64 -8q38 -7 38 -40v-321z" />
    <glyph glyph-name="two" unicode="2" horiz-adv-x="630" 
d="M48 2h432q27 0 35.5 6.5t18.5 33.5l51 136q10 26 10 43q0 26 -24 20q-11 -3 -29.5 -22t-40.5 -28q-37 -15 -101 -15h-193q37 25 114 74q19 12 85 43q54 25 82 47q99 77 99 188q0 23 -5 45q-19 86 -107 136q-79 47 -183 47q-150 0 -224 -89q-41 -50 -41 -121q0 -51 24 -89
q35 -54 109 -54q48 0 81 26q37 30 37 79q0 33 -12 33q-3 0 -19 -7.5t-26 -5.5q-20 2 -31.5 21t-8.5 39q5 31 32 48t62 17q65 0 94 -48q19 -32 19 -66q0 -83 -112 -186q-84 -69 -169 -138q-104 -93 -107 -156q-3 -57 48 -57z" />
    <glyph glyph-name="three" unicode="3" horiz-adv-x="610" 
d="M335 463l213 193q23 21 23 40q0 37 -60 36l-216 -5q-80 -2 -97 3q-15 2 -36 13t-30 11q-17 0 -33 -27l-77 -171q-9 -21 -9 -37q0 -26 20 -26q13 0 26 12q20 20 42.5 40.5t45.5 27.5q32 15 87 16q-40 -1 92 -1l-184 -165q-17 -15 -17 -30q0 -22 31 -18q69 9 80 9
q32 0 59 -12q42 -19 64 -58.5t18 -89.5q-4 -52 -46 -98t-91 -46q-34 0 -62 25q-20 18 -20 47q0 45 43 41q1 0 7.5 -1t8.5 -1q4 1 4.5 5t0.5 8q0 23 -26 54q-34 40 -82 40q-49 0 -85 -37q-39 -39 -39 -94q0 -11 2 -23q13 -81 88 -123q66 -36 164 -36q149 0 241 66
q46 33 72 85.5t26 110.5q0 29 -7 56q-21 84 -90 123q-53 29 -151 37z" />
    <glyph glyph-name="four" unicode="4" horiz-adv-x="620" 
d="M318 2h204q21 0 38 11.5t17 28.5q0 10 -6 20q-9 14 -26 20.5t-23 13.5q-11 9 -12 44q1 -27 1 50q57 0 61 3.5t4 58.5q0 57 -4.5 61.5t-60.5 4.5v380q0 29 -10 38t-35 9h-25q-18 -1 -30 -1q-70 0 -83 -5q-21 -8 -56 -58l-244 -349q-36 -52 -36 -95q0 -47 56 -47h290
q0 -20 1 -42t1 -26q0 -17 -8 -23q-1 -1 -37 -17q-29 -13 -29 -39q0 -17 14 -29t38 -12zM338 318h-177l177 278v-278z" />
    <glyph glyph-name="five" unicode="5" horiz-adv-x="630" 
d="M227 468l48 114h213q51 0 63 34l42 116q4 11 4 20q0 19 -15 19q-4 0 -9 -2q-9 -3 -35 -21q-18 -13 -53 -13h-250q-38 0 -45 -25l-125 -316q-8 -21 -8 -35q0 -20 17 -20q13 0 33 10q64 31 131 31t107 -33q47 -39 47 -115q0 -73 -46 -116q-39 -36 -93 -36q-63 0 -80 45
q-5 13 -5 22q0 33 45 29q3 4 3 10q0 24 -35 53q-39 31 -79 28q-43 -3 -69 -34.5t-26 -74.5q0 -85 83 -133q70 -40 163 -40q133 0 231 72q109 80 109 208q0 66 -29 120q-32 59 -90 86q-51 23 -111 23q-64 0 -136 -26z" />
    <glyph glyph-name="six" unicode="6" horiz-adv-x="630" 
d="M187 414q4 106 23 160q32 90 116 87q60 -2 60 -52q0 -27 -20 -50q-2 -2 -2 -5q0 -13 29.5 -26t56.5 -13q8 0 15 2q43 5 67 31q21 24 21 59q0 37 -24 72t-66 53q-51 22 -117 22q-68 0 -131 -22q-111 -38 -174 -148q-58 -101 -58 -228q0 -151 80 -255q89 -115 240 -115
q132 0 208 77q66 69 66 169q0 92 -57 157q-61 70 -163 70q-78 0 -170 -45zM190 215q-3 63 26 102q27 34 66 34q36 0 62 -30q29 -34 31 -94q3 -63 -25 -102q-25 -35 -64 -37t-66 30q-30 35 -30 97z" />
    <glyph glyph-name="seven" unicode="7" horiz-adv-x="640" 
d="M144 2h168q27 0 40 32l253 608q18 43 18 60q0 33 -44 33h-347q-34 0 -45.5 5t-30.5 27q-11 9 -22 9q-19 0 -29 -21l-100 -204q-5 -10 -5 -22q0 -29 23 -29q16 0 39 17l34 28q40 28 131 28h196q33 0 33 -17q0 -12 -16 -37l-313 -474q-12 -18 -12 -27q0 -16 29 -16z" />
    <glyph glyph-name="eight" unicode="8" horiz-adv-x="630" 
d="M289 454q-40 0 -63.5 34t-23.5 78q0 42 22 71.5t65 29.5q42 0 66 -34q21 -30 20 -74t-22 -73q-24 -32 -64 -32zM289 329q45 0 73 -41q26 -37 26 -88q0 -47 -23 -78q-26 -34 -73 -34q-48 0 -76 37q-26 33 -26 82t26.5 85.5t72.5 36.5zM136 403q-73 -35 -106 -79
q-38 -52 -32 -128q8 -101 98 -160q81 -53 195 -53t196 53q90 59 98 160q6 76 -33 127q-34 45 -109 80q121 58 121 158q0 73 -65 128q-69 58 -176 63q-99 5 -173 -22q-93 -35 -122 -114q-11 -30 -11 -58q0 -99 119 -155z" />
    <glyph glyph-name="nine" unicode="9" horiz-adv-x="640" 
d="M380 332q1 -17 1 -34q0 -108 -47 -167q-38 -48 -91 -48q-28 0 -47.5 15t-19.5 39q0 10 5 21t17 22q9 8 9 13q0 7 -11 17q-32 30 -73 30q-43 0 -75 -31t-32 -78q0 -58 48 -96q40 -32 103 -43q31 -5 62 -5q110 0 194 58q76 52 119 151q41 94 41 201q0 101 -37 183
q-40 88 -115 135q-67 42 -155 42q-114 0 -196 -64q-90 -70 -90 -183q0 -15 2 -30q10 -95 76 -146q59 -46 147 -46q87 0 165 44zM193 517q-2 67 27 107q27 37 66 37q36 0 61 -33q27 -37 28 -103q2 -131 -89 -136q-86 -5 -93 128z" />
    <glyph glyph-name="colon" unicode=":" horiz-adv-x="220" 
d="M-2 468q0 10 -3 -58q-2 -42 2.5 -56t24.5 -16q-1 0 31 0q15 0 36 -1h27q34 0 41 13.5t7 72.5q0 5 1 17.5t1 19.5q0 48 -33 48q-9 0 -34.5 2.5t-38.5 2.5q-62 0 -62 -45zM31 2q11 0 32 -1t30 -1q35 0 51 12q20 15 20 56q0 2 1.5 20.5t1.5 31.5q0 58 -25 61q-21 3 -68 2
q-49 -1 -63 -5q-8 -1 -11.5 -11t-1.5 -20q-8 -54 -8 -77q0 -68 41 -68z" />
    <glyph glyph-name="semicolon" unicode=";" horiz-adv-x="220" 
d="M5 142q0 -12 -3.5 -40t-3.5 -41q0 -49 41 -59q35 -1 35 -34q0 -37 -38 -58q-34 -19 -34 -41q0 -27 37 -22q61 0 99 50q35 46 35 108v137q0 24 -25 37.5t-59 13.5t-59 -13.5t-25 -37.5zM5 468q0 9 -3 -58q-2 -42 3 -56t25 -16q-2 0 32 0q15 0 36 -1h27q34 0 41 13.5
t7 72.5q0 5 1 17v20q0 48 -30 48q-9 0 -35.5 2.5t-40.5 2.5q-63 0 -63 -45z" />
    <glyph glyph-name="less" unicode="&#x3c;" horiz-adv-x="650" 
d="M616 627l-618 -250v-105l618 -255v113l-469 193l469 194v110z" />
    <glyph glyph-name="equal" unicode="=" horiz-adv-x="660" 
d="M2 488v-102h631v102h-631zM2 264v-105h631v105h-631z" />
    <glyph glyph-name="greater" unicode="&#x3e;" horiz-adv-x="660" 
d="M-2 627v-110l470 -194l-470 -193v-113l618 255v105z" />
    <glyph glyph-name="question" unicode="?" horiz-adv-x="460" 
d="M144 2q11 0 31.5 -1t29.5 -1q38 0 54 13q22 16 22 58q0 2 1 19t1 30q0 64 -28 67q-62 7 -75 7q-68 0 -78 -41q0 -9 -3 -38t-3 -45q0 -68 48 -68zM147 301q0 -44 6 -57q9 -22 40 -22q9 0 20 1t17 32q8 37 35 66q4 5 56 51q84 74 84 199q0 80 -41 136q-45 63 -126 74
q-15 2 -31 2q-83 0 -145.5 -54t-62.5 -127q0 -36 18 -71q28 -53 93 -53q62 0 77 44q3 8 -11 15q-17 8 -20 34q-3 27 14 44.5t40 17.5q36 0 48 -37q7 -22 7 -44q0 -53 -59 -132t-59 -119z" />
    <glyph glyph-name="at" unicode="@" horiz-adv-x="900" 
d="M343 301v-159q0 -33 -17 -44l-42 -22q-16 -12 -16 -31q0 -43 67 -43h218q47 0 60 29q4 9 4 17q0 18 -37.5 43.5t-37.5 50.5v196q127 174 259 352q17 7 33 13q18 10 18 29q0 35 -49 35h-178q-47 0 -47 -31q0 -24 29 -43q22 -11 12 -34q-21 -51 -148 -208q-65 77 -136 182
q-22 27 -22 40q0 7 5 11q1 1 31 16q18 10 20 27q9 40 -48 40h-265q-57 0 -48 -40q2 -18 22 -28q31 -14 32 -15q29 -25 71 -85q31 -45 63 -91q11 -15 147 -207zM448 842l-1 -1q39 0 51 9l134 102q7 5 7 13q0 12 -16 12h-92q-8 0 -22 -14l-70 -101q-7 -7 -7 -12q0 -8 16 -8z
" />
    <glyph glyph-name="A" unicode="A" horiz-adv-x="920" 
d="M53 2h194q45 0 45 37q0 20 -17 30t-34 19q-9 6 -9 19q0 14 23.5 61t101.5 47h125q43 0 77 -31q36 -34 31 -77q-2 -15 -23 -23q-24 -10 -30 -22t-6 -22q0 -38 62 -38h236q17 0 35 12t18 27q0 11 -10 21q-13 18 -32.5 23t-29.5 16q-19 22 -43 86l-199 543q-9 24 -17 31.5
t-24 7.5q-4 0 -21.5 -1t-31.5 -1t-31 1t-21 1q-15 0 -21.5 -6.5t-17.5 -30.5l-253 -548q-27 -58 -44 -77q-11 -11 -29.5 -14.5t-33.5 -16t-15 -31.5q0 -17 12.5 -30t32.5 -13zM332 355l77 193q6 16 16 16q9 0 15 -16l68 -185q10 -28 -3 -34q-22 -20 -105 -20q-72 0 -72 29
q0 8 4 17z" />
    <glyph glyph-name="B" unicode="B" horiz-adv-x="780" 
d="M71 2h355q123 0 209 44q108 56 108 167q0 14 -2 28q-20 164 -230 213q101 42 101 124q0 21 -7 44q-45 145 -290 145h-244q-67 0 -67 -43q0 -20 15 -31q21 -11 42 -21q18 -12 18 -45v-483q0 -34 -18 -45q-21 -12 -42 -23q-15 -12 -15 -31q0 -43 67 -43zM272 534v110
q0 42 52 42q35 0 62 -24q31 -29 31 -77q0 -79 -96 -94q-27 0 -38 9t-11 34zM272 147v222q0 35 27 46q17 7 56 5q71 -3 112 -49.5t41 -118.5q0 -78 -48 -118q-44 -38 -122 -38q-13 -2 -22 -2q-44 0 -44 53z" />
    <glyph glyph-name="C" unicode="C" horiz-adv-x="810" 
d="M2 380q-6 -180 127 -291q121 -101 297 -101q100 0 190 37q127 52 162 142q4 12 4 24q0 31 -24 39q-21 5 -47 -17q-21 -19 -41 -37q-86 -63 -183 -63q-63 0 -118 29q-63 33 -98 107q-32 69 -32 154q0 86 33 156q36 75 100 108q43 22 89 22q96 0 178 -84q21 -25 43 -50
q34 -36 53 -33q28 7 28 33q0 5 -2 10q-6 41 -63 167q-8 21 -17 42q-13 26 -31 26q-5 0 -11 -2q-11 -3 -25.5 -23t-25.5 -20q-19 4 -54 12q-50 11 -101 11q-172 0 -295 -108q-130 -113 -136 -290z" />
    <glyph glyph-name="D" unicode="D" horiz-adv-x="830" 
d="M73 144q-1 -34 -19 -45q-22 -12 -43 -23q-15 -12 -15 -30q0 -44 66 -44h290q168 0 261 51q163 89 163 275q0 210 -184 333q-160 106 -379 106h-151q-65 0 -65 -44q0 -20 14 -30l44 -22q18 -11 18 -44v-483zM261 170v426q0 58 67 58q10 0 21 -1q97 -12 155 -103
q50 -80 52 -184q3 -118 -58 -185.5t-177 -70.5q-34 -1 -47 13t-13 47z" />
    <glyph glyph-name="E" unicode="E" horiz-adv-x="800" 
d="M71 2h474q23 0 49 -20.5t36 -20.5q19 0 43 39l88 142q12 19 12 42q0 33 -32 29q-21 -3 -56 -30q-45 -35 -71 -48q-51 -25 -114 -25h-151q-45 0 -62.5 16t-17.5 61v111q0 52 0 50q3 31 23 39t53 8q56 0 92 -18l42 -36q29 -22 51 -22q37 0 37 34q0 17 -11 33l-96 145
q-10 19 -32 19q-9 0 -18 -6t-25 -34q-9 -17 -47 -19q-63 -4 -66 34q0 83 -1 70q3 50 20.5 64t72.5 14q26 0 87 -6q45 -4 86 -25q23 -12 76 -49q30 -21 52 -21q24 0 24 23q0 18 -16 41l-94 136q-17 25 -34 25q-10 0 -35.5 -15t-44.5 -15h-394q-66 0 -66 -45q0 -19 14 -29
q21 -11 42 -21q18 -12 18 -45v-485q0 -33 -17 -44q-22 -11 -43 -22q-15 -11 -15 -30q0 -44 67 -44z" />
    <glyph glyph-name="F" unicode="F" horiz-adv-x="780" 
d="M82 144q0 -34 -18 -46l-42 -22q-15 -12 -15 -31q0 -43 64 -43h213q66 0 66 43q0 16 -11.5 27.5t-31 19t-25.5 13.5q-10 11 -10 39v182q0 79 78 79q65 0 124 -45q17 -15 33 -30q23 -19 42 -19q31 0 31 32q0 16 -7 34l-73 128q-21 37 -38 37q-9 0 -26 -13q-20 -16 -33 -21
q-29 -12 -72 -12q-44 0 -50 20.5t-5 67.5q2 51 13 63q19 20 117 20q65 0 112.5 -6.5t117.5 -60.5q66 -52 82 -52q29 0 29 27q0 11 -6 24q-23 49 -61 109q-53 82 -81 87q-16 3 -40 -12q-28 -16 -59 -16h-429q-64 0 -64 -43q0 -20 15 -31q21 -11 42 -21q18 -12 18 -45v-483z
" />
    <glyph glyph-name="G" unicode="G" horiz-adv-x="870" 
d="M565 2h204q37 0 51 12.5t14 25.5q0 18 -38 51t-38 53v123q0 31 15 42q20 10 39 21t19 32q0 41 -62 41h-204q-58 0 -58 -38q0 -4 1 -10q2 -20 23 -30q29 -13 34 -19q14 -12 14 -63q0 -15 -1.5 -39t-1.5 -28q0 -53 -59 -60q-19 -2 -37 -2q-120 0 -194 89q-67 81 -67 198
q0 75 31 140.5t89.5 104.5t128.5 38t133 -41q33 -21 106 -87q17 -16 30 -16q22 0 22 28q0 20 -15 60l-20 50l-28 74q-25 55 -49 55q-14 0 -28 -18q-13 -21 -57 -17q-54 5 -100 5q-243 0 -374 -141q-96 -104 -96 -254q0 -120 67 -209q81 -107 229 -145q99 -26 277 -26z" />
    <glyph glyph-name="H" unicode="H" horiz-adv-x="870" 
d="M56 2h213q66 0 66 43q0 16 -12 28q-6 6 -44 24q-21 10 -21 47v165q0 46 45 46h216q46 0 46 -46v-165q0 -34 -18 -45q-21 -12 -42 -23q-17 -11 -17 -30q0 -44 68 -44h211q67 0 67 44q0 16 -11 27q-6 6 -45 25q-20 9 -20 46v483q0 27 9 38q6 7 25 14t30 17.5t11 25.5
q0 45 -66 45h-211q-68 0 -68 -43q0 -19 17 -31q21 -10 42 -21q18 -11 18 -45v-119q0 -45 -46 -45h-216q-45 0 -45 45v119q0 27 10 38q6 7 25 14t30.5 18t11.5 26q0 44 -66 44h-213q-66 0 -66 -45q0 -19 15 -29l44 -22q19 -11 19 -44v-483q0 -34 -19 -45q-22 -12 -44 -23
q-14 -11 -14 -30q0 -44 65 -44z" />
    <glyph glyph-name="I" unicode="I" horiz-adv-x="420" 
d="M62 2h216q50 0 60 29q15 21 -6 42q-11 11 -30.5 18.5t-24.5 13.5q-10 11 -10 39v483q0 27 10 38q6 7 25 14t29.5 18.5t10.5 24.5q0 19 -20 32t-44 13h-216q-63 0 -63 -43q0 -20 15 -31q21 -11 40 -22t19 -44v-483q0 -34 -19 -45.5t-40 -22.5q-15 -12 -15 -31
q0 -43 63 -43z" />
    <glyph glyph-name="J" unicode="J" horiz-adv-x="630" 
d="M318 627v-380q0 -126 -66 -145q-12 -4 -25 -4q-30 0 -52 17t-22 46q0 25 18.5 39t43.5 13l16 -2q9 -1 13 4q8 22 8 45q0 50 -31.5 87.5t-78.5 37.5q-20 0 -40 -8q-48 -18 -75 -66q-24 -43 -24 -98q0 -41 14 -77q27 -73 94 -110q60 -34 142 -34q22 0 45 3q106 12 161 79
q52 64 52 170v383q0 27 9 38q6 7 24 14t30 18t12 28q0 42 -64 42h-213q-68 0 -68 -44q0 -19 17 -30q21 -11 43 -21q17 -11 17 -45z" />
    <glyph glyph-name="K" unicode="K" horiz-adv-x="815" 
d="M267 144v216q46 39 96 86l91 -205q14 -29 28 -59q15 -34 20 -60q3 -7 3 -13q0 -18 -23 -27q-37 -19 -37 -46q0 -34 49 -34h230q22 0 37 11.5t15 27.5q0 11 -10 22.5t-40 25.5q-18 8 -39 58l-179 426q68 94 151 123q25 9 25 32q0 39 -54 39h-170q-51 0 -54 -29
q-2 -15 20.5 -35t22.5 -30q0 -7 -6 -14q-29 -37 -86 -86q-80 -70 -90 -79v133q0 27 10 38q6 7 25 14t29.5 18.5t10.5 24.5q0 20 -21 32.5t-46 12.5h-210q-67 0 -67 -43q0 -20 16 -31q21 -11 40 -22t19 -44v-483q0 -34 -19 -45.5t-40 -22.5q-16 -12 -16 -32q0 -42 67 -42h210
q68 0 68 45q0 15 -11 26q-6 6 -44 24q-21 10 -21 47z" />
    <glyph glyph-name="L" unicode="L" horiz-adv-x="740" 
d="M68 2h403q23 0 50 -21t37 -21q20 0 44 40l85 142q14 18 14 42q0 34 -34 29q-21 -3 -56 -30q-45 -35 -71 -48q-51 -25 -114 -25h-114q-43 0 -43 49v468q0 27 10 38q6 6 25.5 13.5t30.5 18t11 24.5q0 19 -18 32.5t-50 13.5h-210q-66 0 -66 -45q0 -18 15 -29q21 -11 40 -22
t19 -44v-485q0 -33 -17 -44l-42 -22q-15 -11 -15 -30q0 -44 66 -44z" />
    <glyph glyph-name="M" unicode="M" horiz-adv-x="1110" 
d="M85 127q-7 -28 -27 -35q-30 -13 -39 -21q-10 -12 -10 -27q0 -17 12 -29.5t30 -12.5h164q20 0 35 12t15 29q0 15 -13 28q-4 3 -28 20q-9 6 -9 15q0 8 6 33l65 258q5 13 12 71q8 -40 20 -68l150 -347q20 -46 43 -46q22 0 42 44l160 346q13 28 22 68q2 -25 9 -76l51 -247
q6 -16 6 -26q0 -11 -12 -21.5t-25 -21.5q-16 -12 -16 -29t13 -29.5t31 -12.5h227q20 0 35.5 13t15.5 31q0 11 -7 21t-41 27q-26 13 -34 48l-108 485q-3 13 -3 22q0 17 11 28q6 7 32 24q16 15 16 30q0 36 -53 36h-187q-21 0 -36.5 -9.5t-15.5 -24.5q0 -13 12 -26
q9 -12 30 -24q15 -8 15 -20q0 -13 -14 -41l-111 -230q-16 -33 -31 -91q-11 50 -26 85l-105 239q-8 18 -8 29q0 14 15 27q26 21 30 26q8 9 8 20q0 16 -13.5 28t-31.5 12h-201q-21 0 -36 -9.5t-15 -23.5q0 -12 12 -25t33 -24q13 -6 13 -18q0 -10 -5 -31z" />
    <glyph glyph-name="N" unicode="N" horiz-adv-x="830" 
d="M76 656v-512q0 -33 -21 -43.5t-44 -21.5q-13 -13 -13 -32q0 -45 67 -45h145q47 0 59 29q4 9 4 16q0 18 -37.5 44.5t-37.5 52.5v429l361 -389q36 -38 44 -51q9 -16 9 -38q0 -5 -1 -30.5t-1 -47.5q0 -16 29 -17q-49 2 51 2q34 0 34 15v610q0 27 10 38q6 7 25 14t31 18
t12 27q0 43 -64 43h-133q-67 0 -67 -45q0 -18 15 -29q22 -11 42.5 -22t20.5 -44v-233l-332 356q-16 17 -46 17h-165q-45 0 -59 -20q-8 -14 -8 -24q0 -18 35 -33.5t35 -33.5z" />
    <glyph glyph-name="O" unicode="O" horiz-adv-x="880" 
d="M-8 349q0 -179 123 -272q109 -83 294 -85q179 -2 293 84q126 94 130 267q5 180 -119 308.5t-303 128.5q-172 0 -294 -127.5t-124 -303.5zM221 363q-1 105 43 202q56 120 151 120q99 0 151 -122q39 -92 39 -206q0 -107 -41 -176q-51 -85 -153 -85q-95 0 -147 90
q-42 73 -43 177z" />
    <glyph glyph-name="P" unicode="P" horiz-adv-x="790" 
d="M267 142q0 -5 -2 23q-1 21 1 34q3 17 13 20.5t44 3.5q11 0 41 -1h49q116 0 192 28q67 25 102 79q33 51 33 116q0 66 -33 128q-103 194 -457 194h-185q-66 0 -66 -45q0 -18 15 -29q21 -11 43 -21q19 -12 19 -45v-485q0 -33 -18 -44l-44 -22q-15 -11 -15 -30q0 -44 66 -44
h213q47 0 60 29q4 9 4 17q0 18 -37.5 43.5t-37.5 50.5zM267 369v244q0 55 73 55q67 0 123 -47q64 -55 65 -141q1 -77 -55 -120q-49 -39 -130 -42q-40 -2 -56 7q-20 11 -20 44z" />
    <glyph glyph-name="Q" unicode="Q" horiz-adv-x="890" 
d="M531 0q66 -99 142 -133q26 -11 40 -11q19 0 34 17l68 93q27 37 27 60q0 17 -21 13q-11 -2 -32.5 -12.5t-35.5 -10.5q-29 0 -69 37q98 74 134 157q30 70 30 144q0 168 -132.5 296.5t-302.5 128.5q-76 0 -146 -29q-117 -49 -192 -163.5t-75 -241.5q0 -102 51 -186
q100 -165 370 -165q51 0 110 6zM585 187q-82 79 -159 79q-49 0 -83 -31q-31 -27 -31 -57q0 -11 6 -19q3 -4 9 -4q5 0 25 8t35 8q48 0 90 -75q-28 -6 -53 -6q-95 0 -146 84q-46 75 -46 191q0 148 66 248q50 76 124 76q18 0 35 -5q86 -24 128 -142q32 -91 32 -182t-32 -173z
" />
    <glyph glyph-name="R" unicode="R" horiz-adv-x="850" 
d="M255 144q0 48 6 62.5t27 14.5q3 0 44 -4q37 -3 71 -2q16 -14 58 -58q52 -56 44 -64q-5 -5 -24 -11q-15 -6 -22.5 -18.5t-7.5 -22.5q0 -16 13.5 -27.5t32.5 -11.5h253q23 0 39 14t16 31q0 26 -36 32q-25 7 -73 63l-100 116q80 24 130 77q54 56 54 130q0 32 -11 66
q-40 127 -182 188q-112 48 -266 48h-268q-63 0 -63 -43q0 -20 15 -31q21 -11 42 -21q18 -12 18 -45v-483q0 -34 -18 -46l-42 -22q-15 -12 -15 -32q0 -42 63 -42h214q66 0 66 43q0 16 -11.5 27.5t-31 19t-25.5 13.5q-10 11 -10 39zM255 400v207q0 44 36 57q20 7 78 6
q83 -1 131 -53t48 -135q0 -84 -55 -130q-51 -43 -136 -46q-58 -2 -80 17.5t-22 76.5z" />
    <glyph glyph-name="S" unicode="S" horiz-adv-x="830" 
d="M19 144l80 -130q30 -48 56 -48q15 0 29 17q3 3 14 21q7 12 17 15q14 2 52 -6q49 -11 51 -11q77 -10 137 -10q198 0 286 113q53 68 45 159q-8 89 -75 148q-53 48 -150 82q-25 9 -164 48q-70 20 -71 20q-45 17 -57 43q-5 12 -5 22q0 34 58 48q44 10 87 6q54 -5 140 -57
q81 -49 95 -48q25 5 25 27q0 29 -30 64l-86 100q-38 44 -65 44q-16 0 -23 -19q-10 -27 -44 -27q-14 0 -41 6q-30 6 -40 7q-17 1 -34 1q-97 0 -166 -38q-84 -47 -92 -134q-8 -84 52 -142q46 -44 141 -78q75 -25 151 -49q84 -29 116 -46q75 -40 75 -91q0 -11 -4 -23
q-25 -81 -177 -81q-70 0 -138 16q-83 19 -157 71q-20 16 -39 31q-26 19 -43 17q-28 0 -28 -26t22 -62z" />
    <glyph glyph-name="T" unicode="T" horiz-adv-x="880" 
d="M301 2h213q23 0 44.5 13.5t21.5 32.5q0 12 -10 24t-29.5 19.5t-25.5 13.5q-10 11 -10 39v475q0 44 56 44q11 0 35 -2q45 -4 93 -39q16 -12 70 -61q35 -31 50 -30q31 5 26 37q-4 28 -34 90q-23 45 -46 89q-25 49 -47 49q-7 0 -15 -4q-16 -10 -29.5 -17.5t-41.5 -7.5h-404
q-25 0 -46 18t-29 18q-7 0 -16 -5q-20 -7 -77.5 -110t-54.5 -132q2 -22 26 -22q18 0 65 45q54 53 78 65q42 21 87 21q61 0 61 -49v-472q0 -34 -18 -45q-22 -12 -44 -23q-14 -11 -14 -29q0 -45 65 -45z" />
    <glyph glyph-name="U" unicode="U" horiz-adv-x="770" 
d="M295 767h-250q-18 0 -30 -11.5t-12 -26.5q0 -14 11 -25q7 -7 43 -22q18 -8 18 -44q0 -15 -2 -36l-22 -208q-13 -127 -13 -151q0 -105 50 -164q74 -87 298 -87q239 0 284 144q12 40 12 102q0 15 -9 148l-17 239q-3 41 13 52q23 14 46 27q13 10 13 26q0 37 -47 37h-173
q-39 0 -39 -34q0 -21 22 -35q42 -16 53 -65q2 -8 7 -94l14 -221q6 -95 -9 -137q-30 -84 -156 -88q-164 -5 -164 169q0 20 2 44l17 219l2 68q2 43 10 68q4 14 22 21q14 6 29 11q26 10 26 33q0 16 -13.5 28.5t-35.5 12.5z" />
    <glyph glyph-name="V" unicode="V" horiz-adv-x="910" 
d="M369 2h139q26 0 40 34l221 543q14 33 19 44q12 25 27 41q6 11 23 19q22 10 28 15q16 13 16 30q0 16 -14.5 27.5t-35.5 11.5h-190q-48 0 -48 -34q0 -18 19 -32q31 -23 31 -49q0 -11 -17 -64l-162 -381l-167 415q-9 23 -9 34q0 13 15 21q27 13 36 21q13 12 13 27
q0 16 -14.5 29t-32.5 13h-267q-41 0 -41 -32q0 -23 24 -39q41 -28 64 -62q20 -28 41 -81l205 -519q8 -19 13.5 -24.5t23.5 -7.5z" />
    <glyph glyph-name="W" unicode="W" horiz-adv-x="1085" 
d="M56 642l211 -611q12 -34 76 -34q56 0 68 31l91 241q10 26 20 77q4 -35 20 -79l85 -236q12 -35 73 -35q65 0 78 38l204 588q15 45 25 59q6 8 18 12t23 17q8 9 8 21q0 36 -45 36h-162q-17 0 -29.5 -10t-12.5 -23t11 -24l30 -22.5t14 -24.5q0 -11 -7 -30l-111 -318
q-16 -45 -20 -85q-12 56 -23 85l-59 156q-14 36 -14 46q0 8 10 13q17 10 26 19.5t9 23.5q0 17 -12.5 30t-30.5 13h-184q-19 0 -32 -12t-13 -28q0 -15 13 -28q7 -6 34 -19q17 -9 17 -24q0 -9 -5 -23l-60 -161q-16 -42 -20 -89q-9 55 -20 89l-108 323q-8 24 -8 32t9 13
q17 11 25 18q13 12 13 26t-12 24t-29 10h-216q-19 0 -32 -10.5t-13 -24.5q0 -10 5.5 -20t28.5 -25.5t33 -44.5z" />
    <glyph glyph-name="X" unicode="X" horiz-adv-x="880" 
d="M340 392q-31 -33 -153 -177q-30 -36 -60 -71q-42 -47 -71 -59q-18 -7 -35 -14q-19 -12 -19 -32q4 -37 63 -37h193q20 0 33.5 13t13.5 30q0 22 -23.5 33.5t-23.5 24.5q0 10 11 24q33 56 142 165l62 -78q35 -46 55 -84q5 -12 5 -19q0 -13 -19 -21q-42 -18 -42 -48
q0 -40 64 -40h250q49 0 49 43q0 20 -24 34q-34 20 -39 26q-15 11 -71 92q-36 52 -71 104q-29 43 -94 125q62 73 194 216q38 38 73 51q30 11 30 37q0 15 -12 26t-32 11h-196q-18 0 -32.5 -10.5t-12.5 -26.5q0 -18 14 -27.5t28 -18.5q8 -7 8 -16q0 -12 -25 -41
q-34 -40 -99 -105q-31 37 -91 114q-7 14 -7 24q0 14 29 28.5t29 38.5q0 40 -51 40h-278q-53 0 -53 -37q0 -34 44 -46q28 -5 52 -28q12 -12 39 -49q50 -72 153 -215z" />
    <glyph glyph-name="Y" unicode="Y" horiz-adv-x="900" 
d="M343 301v-159q0 -33 -17 -44l-42 -22q-16 -12 -16 -31q0 -43 67 -43h218q47 0 60 29q4 9 4 17q0 18 -37.5 43.5t-37.5 50.5v196q127 174 259 352q17 7 33 13q18 10 18 29q0 35 -49 35h-178q-47 0 -47 -31q0 -24 29 -43q22 -11 12 -34q-21 -51 -148 -208q-65 77 -136 182
q-22 27 -22 40q0 7 5 11q1 1 31 16q18 10 20 27q9 40 -48 40h-265q-57 0 -48 -40q2 -18 22 -28q31 -14 32 -15q29 -25 71 -85q31 -45 63 -91q11 -15 147 -207z" />
    <glyph glyph-name="Z" unicode="Z" horiz-adv-x="850" 
d="M744 767h-489q-22 0 -40.5 15.5t-27.5 15.5q-26 -3 -125 -179q-14 -33 -14 -43q0 -6 3 -11q1 -9 10 -13t18 -1q22 7 58 40q41 36 68 51q48 25 110 25h193l-489 -602q-18 -22 -18 -37q0 -26 50 -26h511q17 0 45.5 -14t41.5 -14q18 0 32 18q37 48 97 155q27 48 27 70
q0 24 -27 21q-20 -5 -63 -39q-51 -40 -86 -57q-60 -29 -132 -29h-211l481 594q21 26 21 40q0 20 -44 20z" />
    <glyph glyph-name="bracketleft" unicode="[" horiz-adv-x="320" 
d="M110 -53v749h131v71h-249v-892h249v72h-131z" />
    <glyph glyph-name="backslash" unicode="\" horiz-adv-x="650" 
d="M446 -76q8 -24 63 -24q27 0 43 9t7 26l-469 829q-15 18 -61 18q-32 0 -32 -16q0 -5 3 -11z" />
    <glyph glyph-name="bracketright" unicode="]" horiz-adv-x="310" 
d="M125 693v-746h-127v-72h249v892h-249v-74h127z" />
    <glyph glyph-name="asciicircum" unicode="^" horiz-adv-x="900" 
d="M343 301v-159q0 -33 -17 -44l-42 -22q-16 -12 -16 -31q0 -43 67 -43h218q47 0 60 29q4 9 4 17q0 18 -37.5 43.5t-37.5 50.5v196q127 174 259 352q17 7 33 13q18 10 18 29q0 35 -49 35h-178q-47 0 -47 -31q0 -24 29 -43q22 -11 12 -34q-21 -51 -148 -208q-65 77 -136 182
q-22 27 -22 40q0 7 5 11q1 1 31 16q18 10 20 27q9 40 -48 40h-265q-57 0 -48 -40q2 -18 22 -28q31 -14 32 -15q29 -25 71 -85q31 -45 63 -91q11 -15 147 -207zM447 857q11 -9 42 -9q39 0 18 21l-70 101q-12 14 -21 14h-92q-17 0 -17 -13q0 -7 7 -12z" />
    <glyph glyph-name="underscore" unicode="_" horiz-adv-x="540" 
d="M1 -142v-108h540v108h-540z" />
    <glyph glyph-name="grave" unicode="`" horiz-adv-x="900" 
d="M343 301v-159q0 -33 -17 -44l-42 -22q-16 -12 -16 -31q0 -43 67 -43h218q47 0 60 29q4 9 4 17q0 18 -37.5 43.5t-37.5 50.5v196q127 174 259 352q17 7 33 13q18 10 18 29q0 35 -49 35h-178q-47 0 -47 -31q0 -24 29 -43q22 -11 12 -34q-21 -51 -148 -208q-65 77 -136 182
q-22 27 -22 40q0 7 5 11q1 1 31 16q18 10 20 27q9 40 -48 40h-265q-57 0 -48 -40q2 -18 22 -28q31 -14 32 -15q29 -25 71 -85q31 -45 63 -91q11 -15 147 -207zM468 1037l6 5q4 4 22 4q8 -3 14 -13l6 -10q4 -9 4 -19q0 -22 -30.5 -60t-30.5 -53q0 -18 4 -24q6 -9 26 -8
q13 1 13 10q5 22 52 47q51 27 51 71q0 33 -29 61t-71 34q-35 0 -70 -12q-48 -16 -48 -44q0 -43 42 -43q41 0 41 43q0 -2 -2 11z" />
    <glyph glyph-name="a" unicode="a" horiz-adv-x="660" 
d="M383 53q53 -59 133 -59q43 0 74 20t31 50q0 7 -2 15q-4 16 -14 16q-3 0 -14 -4t-18 -4q-32 0 -59 83l-54 168q-42 129 -108 162q-45 22 -102 22q-41 0 -78.5 -10.5t-80.5 -40.5q-52 -38 -52 -69q0 -27 22 -27q15 0 48 20q40 25 47 28q19 5 36 5q84 0 111 -107
q-154 4 -232 -49q-72 -49 -72 -132q0 -30 12 -58q39 -91 157 -91q110 0 215 62zM335 224q20 -64 20 -79q0 -25 -15 -40q-30 -30 -68 -30q-41 0 -73 31.5t-32 68.5q0 51 60 75q23 6 46 6q52 0 62 -32z" />
    <glyph glyph-name="b" unicode="b" horiz-adv-x="615" 
d="M51 596v-574q0 -33 27 -33q25 0 74 29q26 18 52 35q83 -60 157 -60q99 0 162 81q59 74 59 176q0 105 -77.5 186.5t-174.5 81.5q-69 0 -126 -47v279q0 30 -22 30q-11 0 -26 -8l-111 -57q-52 -21 -52 -49q0 -11 12 -19l34 -16q12 -7 12 -35zM198 255q-4 172 103 188
q8 1 17 1q51 0 86 -44q31 -41 33 -94q3 -105 -57 -169q-57 -59 -115 -32q-63 30 -67 150z" />
    <glyph glyph-name="c" unicode="c" horiz-adv-x="570" 
d="M457 318l51 105q7 25 3 31q-11 19 -67 40q-47 18 -81 23q-27 4 -55 4q-126 0 -218 -79.5t-92 -193.5q0 -41 13 -81q26 -83 107 -132q76 -45 169 -45q113 0 184 66q63 59 60 94q-4 22 -22 22q-5 0 -9 -2q-17 -5 -45 -33q-32 -32 -55 -44q-39 -21 -91 -17q-65 5 -102 68
q-33 55 -33 132q0 75 30 124q32 53 84 53q33 0 61 -22.5t40 -61.5q4 -22 15 -46q14 -28 29 -28q13 0 24 23z" />
    <glyph glyph-name="d" unicode="d" horiz-adv-x="640" 
d="M386 596v-116q-63 38 -130 38q-105 0 -181.5 -85t-76.5 -201q0 -24 4 -48q13 -81 71.5 -135t139.5 -54q86 0 170 70q0 -40 0 -38q2 -25 17 -29q9 -5 33 -5q71 0 138 21q28 9 28 34q0 11 -9 20l-40 30q-14 13 -14 49v603q0 29 -21 29q-10 0 -24 -7l-114 -59
q-50 -26 -50 -49q0 -10 11 -17l36 -16q12 -7 12 -35zM156 258q-4 22 -4 43q0 67 39 110q36 40 84 40q44 0 74 -35q35 -38 40 -110q1 -20 1 -38q0 -81 -28 -123q-26 -38 -70 -38q-45 0 -84 41q-42 44 -52 110z" />
    <glyph glyph-name="e" unicode="e" horiz-adv-x="580" 
d="M198 204l293 97q31 10 31 25q0 7 -5 20q-28 79 -92 127q-67 50 -150 49q-112 -1 -193 -77t-81 -187q0 -115 83.5 -190.5t201.5 -75.5q67 0 139 29q84 34 111 86q5 9 5 20q0 26 -24 26q-11 0 -63 -32.5t-99 -35.5q-113 -6 -157 119zM178 258q-11 50 -11 90q0 114 88 103
q27 -3 60.5 -40.5t33.5 -67.5q0 -25 -26 -34z" />
    <glyph glyph-name="f" unicode="f" horiz-adv-x="400" 
d="M230 144v273q16 0 36 -1.5t24 -1.5q14 0 19.5 7t8.5 30q8 37 8 45q0 15 -20 15q-5 0 -30 -1.5t-46 -1.5q-13 41 -45 69q-44 38 -52 50t-8 25q0 18 12 30.5t30 10.5q13 0 22.5 -9t9.5 -19q0 -11 -12 -18q-8 -4 -8 -10q0 -9 16 -21q13 -9 20 -11q23 -9 44 -9q35 0 57 23
t22 56q0 42 -37 72q-42 34 -120 34q-62 0 -111 -31q-55 -35 -62 -94q-4 -40 21 -78q39 -57 44 -70q-9 0 -23 1h-20q-32 0 -32 -27q0 -9 2 -22q5 -28 11.5 -36.5t22.5 -8.5q4 0 17.5 1t24.5 1v-267q0 -38 -17 -51l-42 -28q-12 -14 -12 -29q0 -16 13.5 -28t32.5 -12h204
q16 0 29 12.5t13 27.5q0 13 -11 23q-20 15 -41 30q-15 14 -15 49z" />
    <glyph glyph-name="g" unicode="g" horiz-adv-x="640" 
d="M201 346q2 54 30 86q26 29 62 29q37 0 62 -30q28 -34 28 -91q0 -58 -30 -89q-26 -28 -64 -27q-37 1 -62 33q-28 34 -26 89zM88 22q-83 -43 -83 -94q0 -19 14 -38q54 -73 270 -73q52 0 94 5q97 11 147 34q81 37 80 113q-1 78 -84 110q-45 18 -151 28l-128 12q-90 8 -90 32
q0 11 19 25q56 -13 109 -13q117 0 196 58q73 54 73 127q0 52 -41 94q-44 47 -130 72q16 25 53 25q11 0 33.5 -3t32.5 -3q43 0 51 43q1 7 1 15q0 30 -23 49t-58 19q-45 0 -85 -32q-47 -37 -73 -108q-211 -11 -264 -119q-18 -36 -18 -70q0 -77 80 -129q-104 -63 -104 -115
q0 -42 79 -64zM173 0q68 -7 136 -15q112 -13 131 -27q9 -7 9 -15q0 -14 -22 -28t-35 -14q-45 -6 -99 -6q-90 0 -127 20q-49 26 7 85z" />
    <glyph glyph-name="h" unicode="h" horiz-adv-x="670" 
d="M221 136v170q0 38 16 66q19 34 51 34q9 0 18 -3q38 -11 54 -74q28 -69 49 -182q4 -19 4 -31q0 -20 -16 -28q-26 -13 -36.5 -26t-10.5 -24q0 -16 19.5 -26t41.5 -10h162q23 0 42.5 11t19.5 27q0 11 -10 22q-5 6 -27 19q-17 11 -22 24q-11 26 -37 127l-31 120
q-44 169 -150 169q-64 0 -134 -70v299q0 30 -24 30q-11 0 -24 -8l-125 -79q-44 -28 -44 -47q0 -10 12 -19q18 -8 35 -16q14 -8 14 -38v-437q0 -32 -16 -46l-38 -28q-10 -9 -10 -21q0 -14 13 -26.5t28 -12.5h202q15 0 27.5 11t12.5 25q0 11 -9 21t-26 19.5t-22 17.5
q-9 13 -9 40z" />
    <glyph glyph-name="i" unicode="i" horiz-adv-x="340" 
d="M71 355v-219q0 -32 -15 -46q-20 -14 -39 -28q-10 -9 -10 -21q0 -15 12.5 -27t28.5 -12h202q14 0 27 11t13 26q0 11 -9 20q-20 14 -38.5 28t-18.5 49v349q0 33 -18 33q-8 0 -30 -7l-120 -51q-42 -18 -42 -39q0 -10 11 -18q16 -8 33 -17q13 -7 13 -31zM82 608l-1 -1
q11 -23 40 -23q31 0 61 25.5t30 58.5q0 9 -3 18q-8 25 -36 25q-33 0 -64 -25.5t-31 -58.5q0 -10 4 -19z" />
    <glyph glyph-name="j" unicode="j" horiz-adv-x="340" 
d="M264 -14v499q0 36 -19 36q-8 0 -30 -7l-119 -54q-44 -20 -44 -41q0 -8 10 -16q17 -8 34 -17q14 -7 14 -31v-372q0 -55 -41 -55q-12 0 -27 7q-2 1 -13 11q-8 7 -13 7q-7 0 -11 -15q-2 -9 -2 -18q0 -46 40 -75q35 -26 84 -26q137 0 137 167zM127 608l-1 -1q11 -23 40 -23
q31 0 61 25.5t30 58.5q0 9 -3 18q-8 25 -36 25q-33 0 -64 -25.5t-31 -58.5q0 -10 4 -19z" />
    <glyph glyph-name="k" unicode="k" horiz-adv-x="635" 
d="M65 573v-437q0 -32 -16 -45q-21 -15 -41 -29q-10 -9 -10 -20q0 -15 13.5 -27.5t30.5 -12.5h199q17 0 29 11.5t12 26.5q0 16 -15 28q-1 1 -24 14q-14 8 -19.5 19.5t-7.5 33.5q-1 16 0 41q2 31 2 34l66 62l122 -238q9 -29 37 -29h116q31 0 31 21q0 27 -31 50q-20 10 -57 85
l-105 216q35 38 61 52q14 8 34 12q16 4 25.5 14t9.5 22q0 31 -47 31h-157q-45 0 -45 -28q0 -20 31 -34q18 -8 12 -29q-22 -38 -103 -102v435q0 30 -24 30q-11 0 -24 -8l-125 -79q-43 -27 -43 -47q0 -10 12 -19l36 -16q15 -8 15 -38z" />
    <glyph glyph-name="l" unicode="l" horiz-adv-x="340" 
d="M73 573v-437q0 -32 -16 -46l-38 -28q-11 -10 -11 -23q0 -15 12 -26t28 -11h202q17 0 30 11t13 26q0 11 -9 20q-20 14 -38.5 28.5t-18.5 48.5v614q0 30 -21 30q-11 0 -28 -8l-125 -79q-41 -26 -41 -47q0 -10 10 -19l36 -16q15 -8 15 -38z" />
    <glyph glyph-name="m" unicode="m" horiz-adv-x="1010" 
d="M71 321v-185q0 -32 -16 -46l-38 -28q-10 -9 -10 -21q0 -15 12.5 -27t28.5 -12h199q17 0 29.5 11t12.5 25q0 11 -8.5 21t-25.5 19.5t-22 17.5q-9 13 -9 40v170q0 44 30 74q27 29 62 29q70 0 70 -103v-170q0 -32 -15 -47q-20 -13 -39 -27q-11 -9 -11 -22q0 -14 13.5 -26
t28.5 -12h193q17 0 31 11t14 26q0 11 -8.5 20.5t-26 19t-23.5 17.5q-9 13 -9 40v170q0 40 18 69.5t51 29.5q9 0 19 -2q41 -10 72 -112q6 -21 33 -144q5 -21 5 -33q0 -18 -16 -26q-26 -14 -38 -26q-16 -22 -2 -40q7 -20 56 -20h168q28 0 46 10.5t18 25.5q0 14 -15 26t-29 23
t-20 29q-15 42 -34 116l-31 120q-41 159 -151 167q-75 5 -162 -85q-56 86 -132 86q-78 0 -163 -86l-2 58q-3 33 -23 33q-11 0 -26 -8l-120 -66q-51 -28 -51 -53q0 -12 12 -21q19 -9 38 -19q16 -8 16 -37z" />
    <glyph glyph-name="n" unicode="n" horiz-adv-x="675" 
d="M68 321v-185q0 -32 -16 -46l-38 -28q-10 -9 -10 -21q0 -14 13 -26.5t28 -12.5h202q15 0 27.5 11t12.5 25q0 11 -9 21t-26 19.5t-22 17.5q-9 13 -9 40v170q0 39 16 67q19 33 52 33q10 0 20 -3q33 -9 57 -71q30 -106 45 -185q4 -21 4 -33q0 -18 -15 -26q-26 -14 -37 -26
q-15 -21 -3 -40q6 -20 54 -20h165q26 0 43 10.5t17 25.5q0 11 -9 21q-2 2 -25 21q-15 12 -20 27q-19 35 -40 125l-28 120q-15 65 -47 109q-40 55 -98 58q-50 3 -87 -25q-24 -18 -61 -68q0 31 -1 63q-3 36 -24 36q-11 0 -26 -8l-114 -63q-57 -31 -57 -57q0 -11 12 -20
q19 -9 38 -19q16 -8 16 -37z" />
    <glyph glyph-name="o" unicode="o" horiz-adv-x="640" 
d="M0 244q4 -123 92 -190q79 -59 209 -62q119 -2 199 54q90 64 90 178q0 124 -94 212q-92 84 -217 84q-117 0 -198 -78.5t-81 -197.5zM184 218q-24 63 -24 116q0 77 44 107q43 30 97 -3q59 -36 96 -132q25 -66 25 -121q0 -47 -19 -80q-23 -39 -67 -39q-41 0 -80 37
q-44 40 -72 115z" />
    <glyph glyph-name="p" unicode="p" horiz-adv-x="640" 
d="M213 -39v121q84 -89 168 -89q12 0 25 2q85 12 138 88q49 69 49 158q0 112 -67 194.5t-155 82.5t-158 -90q0 6 1 22.5t1 25.5q0 46 -24 47q-11 0 -27 -9l-113 -60q-55 -29 -55 -50q0 -10 12 -18q18 -10 36 -19q15 -9 15 -38v-368q0 -34 -14 -47q-19 -13 -37 -27
q-12 -11 -12 -24t12 -23t28 -10h202q17 0 29.5 9.5t12.5 23.5q0 12 -11 24q-19 13 -37.5 25.5t-18.5 48.5zM210 292q11 72 54 113q38 37 87 37q50 0 81 -39q34 -43 25 -114q-9 -65 -56 -119q-52 -60 -115 -57q-42 2 -63 45q-17 35 -17 87q0 25 4 47z" />
    <glyph glyph-name="q" unicode="q" horiz-adv-x="590" 
d="M525 -39v502q0 56 -37 56q-34 0 -96 -45q-85 44 -144 44q-50 0 -101 -27q-67 -36 -109 -117t-42 -167q0 -77 36 -131q39 -61 115 -78q29 -7 57 -7q94 0 168 71q0 -11 1 -33t1 -32q0 -73 -48 -102q-19 -12 -19 -30q0 -35 42 -35h202q16 0 28 10t12 24q0 12 -9 23
q-20 12 -38.5 24.5t-18.5 49.5zM369 210q-6 -41 -15 -60q-15 -29 -48 -40q-13 -3 -25 -3q-62 0 -103 67q-37 60 -37 133q0 27 6 48q12 40 43.5 66t69.5 26q25 0 49 -13q63 -36 63 -158q0 -27 -3 -66z" />
    <glyph glyph-name="r" unicode="r" horiz-adv-x="500" 
d="M178 519l-116 -68q-52 -30 -52 -50q0 -10 12 -18l36 -16q15 -8 15 -35v-190q0 -34 -16 -48q-20 -15 -40 -29q-13 -11 -13 -26q0 -14 13 -25.5t31 -11.5h204q15 0 27.5 11.5t12.5 26.5q0 10 -8 19q-20 15 -38.5 28.5t-18.5 48.5v125q0 44 17 77q21 39 59 39q14 0 29 -5
q5 -2 31.5 -32t38.5 -30q13 0 18 25q32 85 48 136q6 30 -8 40q-25 18 -54 18q-83 0 -179 -129q0 4 1 24t1 33q0 69 -29 69q-9 0 -22 -7z" />
    <glyph glyph-name="s" unicode="s" horiz-adv-x="570" 
d="M19 113l52 -105q8 -14 16 -29q14 -22 27 -22q6 0 11 4q11 8 28 33q11 14 30 14q10 0 27 -3q73 -13 119 -13q108 0 159 64q35 44 35 96q0 45 -27 85t-73 61q-36 17 -89 32q-45 13 -90 25q-69 20 -69 58q0 35 68 35q27 0 58 -5q35 -10 98 -52q58 -39 64 -39q20 0 20 18
t-15 36l-65 111q-12 20 -23 20q-8 0 -28 -17t-41 -17q-16 0 -59.5 9.5t-67.5 9.5q-65 0 -116 -36q-55 -41 -55 -103q0 -81 90 -130q31 -18 158 -60q93 -31 93 -67q0 -19 -26.5 -31.5t-67.5 -12.5q-56 0 -113 23q-18 7 -75 50q-50 37 -61 35q-14 -2 -14 -18q0 -14 22 -59z
" />
    <glyph glyph-name="t" unicode="t" horiz-adv-x="475" 
d="M88 417v-236q0 -14 -7 -45.5t-7 -45.5q0 -9 2 -17q14 -41 59 -64q40 -20 95 -20q62 0 113 25q55 26 71 68q4 11 4 19q0 28 -30 28q-17 0 -33 -10q-49 -29 -74 -29q-40 0 -40 71v262h131q15 0 25.5 18.5t10.5 38.5q0 28 -19 28h-151v136q0 53 -17 57q-4 1 -8 1
q-13 0 -28 -17q-11 -13 -21 -26l-145 -171q-25 -29 -25 -46q0 -18 31 -23q15 -2 63 -2z" />
    <glyph glyph-name="u" unicode="u" horiz-adv-x="620" 
d="M147 517l-102 -46q-15 -5 -29.5 -18t-14.5 -26q0 -10 10 -18l36 -20q11 -8 12 -43q0 -17 -1 -56q-1 -44 -1 -66q0 -179 76 -219q30 -16 63 -16q78 0 167 82q0 -7 -1 -19v-16q0 -34 35 -34h142q40 0 40 35q0 8 -3.5 17.5t-34.5 27.5q-24 15 -24 54v355q0 34 -20 34
q-10 0 -29 -8l-119 -52q-45 -20 -45 -44q0 -10 11 -18q17 -9 35 -17q13 -8 13 -34v-137q0 -38 -23 -71q-26 -35 -61 -35q-14 0 -29 7q-30 14 -38 80q-2 22 -2 96v185q0 48 -32 48q-13 0 -31 -8z" />
    <glyph glyph-name="v" unicode="v" horiz-adv-x="625" 
d="M218 28q13 -32 77 -32t77 32l145 361q10 26 37.5 42.5t33 25.5t5.5 18q0 14 -12.5 23.5t-29.5 9.5h-148q-17 0 -29 -10t-12 -24t13 -26q1 -1 25 -18q11 -7 11 -17q0 -8 -5 -21l-88 -233l-83 218q-8 20 -8 30q0 15 31 36q17 11 17 27q0 15 -14.5 26.5t-36.5 11.5h-176
q-20 0 -37 -10.5t-17 -27.5q0 -9 6 -19q9 -14 23.5 -19t23.5 -15q16 -19 38 -71z" />
    <glyph glyph-name="w" unicode="w" horiz-adv-x="970" 
d="M210 19q7 -17 33 -19q-27 2 43 2q57 0 51 -1q17 3 26 24l80 190q1 5 17 66q5 -41 14 -66l65 -190q9 -25 33 -25q5 0 19.5 1t24.5 1q62 0 46 -1q14 1 22 18l165 361q18 40 33 51t32 23q11 10 11 21q0 13 -16.5 23t-33.5 10h-145q-44 0 -44 -27q0 -15 21 -30q30 -21 30 -30
q0 -2 -3 -12.5t-4 -22.5l-66 -151q-14 -32 -22 -74q-5 24 -17 71l-54 160q-4 11 -4 19q0 14 16 21q28 12 33 16q13 10 13 21q0 15 -26 28q-22 11 -41 11h-179q-45 0 -45 -30q0 -16 19 -30q37 -22 37 -42q0 -12 -8 -31l-57 -145q-16 -42 -20 -69q-2 19 -20 66l-59 159
q-4 11 -4 19q0 14 15 25q29 19 31 21q9 8 9 19q0 15 -14.5 26.5t-36.5 11.5h-191q-49 0 -49 -35q0 -14 12 -27q64 -52 86 -108z" />
    <glyph glyph-name="x" unicode="x" horiz-adv-x="660" 
d="M45 2h182q14 0 24.5 8.5t10.5 20.5q0 11 -10 20l-20 12q-14 9 -14 19q0 14 35 49q21 19 42 39q66 -56 66 -79q0 -13 -15 -20q-29 -15 -29 -39q0 -30 43 -30h216q18 0 31.5 9t13.5 23q0 8 -5.5 17t-26.5 19q-25 11 -33 18q-18 17 -76 85l-80 94l114 119q31 33 54 48
q18 6 45 26q6 9 6 17q0 14 -15.5 22.5t-32.5 8.5h-162q-16 0 -28 -9t-12 -21q0 -14 17 -24q21 -17 21 -35t-23 -39.5t-44 -41.5q-66 54 -66 78q0 16 20 31.5t20 28.5t-15 22.5t-38 9.5h-202q-14 0 -26.5 -8t-12.5 -21q0 -9 8 -19q13 -16 46 -41q39 -30 51 -42l113 -136
l-125 -119q-32 -30 -66.5 -46t-38.5 -20q-11 -10 -11 -22q0 -32 48 -32z" />
    <glyph glyph-name="y" unicode="y" horiz-adv-x="610" 
d="M235 25q-37 -66 -91 -61q-22 2 -39 21q-13 19 -26 37q-11 15 -26 15q-29 0 -29 -31q0 -4 1 -8l26 -111q4 -16 5 -19q4 -10 12 -15q34 -19 68 -19q64 0 126 68q48 51 84 129l168 363q13 28 38 44.5t27.5 22t2.5 12.5q0 13 -10 24t-24 11h-137q-18 0 -35 -8.5t-17 -22.5
q0 -9 10 -20q14 -12 27 -23.5t13 -24.5q0 -9 -6 -23l-80 -185l-82 185q-9 20 -9 30t12 18q24 17 28 20q13 12 13 23q0 13 -14 22t-33 9h-185q-26 0 -41.5 -10.5t-15.5 -25.5q0 -11 8.5 -20.5t39.5 -24.5q20 -10 38 -52z" />
    <glyph glyph-name="z" unicode="z" horiz-adv-x="610" 
d="M42 2h330q15 0 47.5 -12.5t46.5 -12.5q24 0 36 25l71 145q7 14 7 27q0 23 -19 23q-11 0 -25 -10q-26 -21 -53.5 -42.5t-62.5 -34.5q-60 -22 -182 -22q49 58 159 171q107 111 159 172q29 34 29 55q0 22 -37 22h-330q-21 0 -44.5 16.5t-30.5 16.5q-15 0 -33 -33l-65 -122
q-10 -20 -10 -35q0 -24 19 -24q16 0 36 19l62 50q36 25 75 30q56 7 136 2q-96 -107 -307 -318q-53 -53 -53 -84q0 -24 39 -24z" />
    <glyph glyph-name="braceleft" unicode="{" 
 />
    <glyph glyph-name="bar" unicode="|" horiz-adv-x="900" 
d="M343 301v-159q0 -33 -17 -44l-42 -22q-16 -12 -16 -31q0 -43 67 -43h218q47 0 60 29q4 9 4 17q0 18 -37.5 43.5t-37.5 50.5v196q127 174 259 352q17 7 33 13q18 10 18 29q0 35 -49 35h-178q-47 0 -47 -31q0 -24 29 -43q22 -11 12 -34q-21 -51 -148 -208q-65 77 -136 182
q-22 27 -22 40q0 7 5 11q1 1 31 16q18 10 20 27q9 40 -48 40h-265q-57 0 -48 -40q2 -18 22 -28q31 -14 32 -15q29 -25 71 -85q31 -45 63 -91q11 -15 147 -207zM398 897l-2 1q20 2 61 -16q45 -19 69 -19q47 0 89 53q27 34 27 45q0 10 -12 17q-6 5 -12 5q-10 0 -24 -15
q-17 -19 -24.5 -23.5t-20.5 -4.5q-18 0 -53 13q-23 10 -47 19q-12 2 -22 2q-40 0 -93 -56q-24 -25 -24 -36q0 -8 8 -15t17 -7q11 0 32.5 17.5t30.5 19.5z" />
    <glyph glyph-name="braceright" unicode="}" 
 />
    <glyph glyph-name="asciitilde" unicode="~" horiz-adv-x="900" 
d="M343 301v-159q0 -33 -17 -44l-42 -22q-16 -12 -16 -31q0 -43 67 -43h218q47 0 60 29q4 9 4 17q0 18 -37.5 43.5t-37.5 50.5v196q127 174 259 352q17 7 33 13q18 10 18 29q0 35 -49 35h-178q-47 0 -47 -31q0 -24 29 -43q22 -11 12 -34q-21 -51 -148 -208q-65 77 -136 182
q-22 27 -22 40q0 7 5 11q1 1 31 16q18 10 20 27q9 40 -48 40h-265q-57 0 -48 -40q2 -18 22 -28q31 -14 32 -15q29 -25 71 -85q31 -45 63 -91q11 -15 147 -207zM353 -208l-1 -1q11 -23 40 -23q31 0 61 25.5t30 58.5q0 9 -3 18q-8 25 -36 25q-33 0 -64 -25.5t-31 -58.5
q0 -10 4 -19z" />
    <glyph glyph-name="exclamdown" horiz-adv-x="850" 
d="M744 767h-489q-22 0 -40.5 15.5t-27.5 15.5q-26 -3 -125 -179q-14 -33 -14 -43q0 -6 3 -11q1 -9 10 -13t18 -1q22 7 58 40q41 36 68 51q48 25 110 25h193l-489 -602q-18 -22 -18 -37q0 -26 50 -26h511q17 0 45.5 -14t41.5 -14q18 0 32 18q37 48 97 155q27 48 27 70
q0 24 -27 21q-20 -5 -63 -39q-51 -40 -86 -57q-60 -29 -132 -29h-211l481 594q21 26 21 40q0 20 -44 20z" />
    <glyph glyph-name="cent" 
 />
    <glyph glyph-name="sterling" 
 />
    <glyph glyph-name="currency" unicode="&#x201a;" horiz-adv-x="920" 
d="M53 2h194q45 0 45 37q0 20 -17 30t-34 19q-9 6 -9 19q0 14 23.5 61t101.5 47h125q43 0 77 -31q36 -34 31 -77q-2 -15 -23 -23q-24 -10 -30 -22t-6 -22q0 -38 62 -38h236q17 0 35 12t18 27q0 11 -10 21q-13 18 -32.5 23t-29.5 16q-19 22 -43 86l-199 543q-9 24 -17 31.5
t-24 7.5q-4 0 -21.5 -1t-31.5 -1t-31 1t-21 1q-15 0 -21.5 -6.5t-17.5 -30.5l-253 -548q-27 -58 -44 -77q-11 -11 -29.5 -14.5t-33.5 -16t-15 -31.5q0 -17 12.5 -30t32.5 -13zM332 355l77 193q6 16 16 16q9 0 15 -16l68 -185q10 -28 -3 -34q-22 -20 -105 -20q-72 0 -72 29
q0 8 4 17zM459 1058l6 5q4 4 22 4q8 -3 14 -13l6 -10q4 -9 4 -19q0 -22 -30.5 -60t-30.5 -53q0 -18 4 -24q6 -9 26 -8q13 1 13 10q5 22 52 47q51 27 51 71q0 33 -29 61t-71 34q-35 0 -70 -12q-48 -16 -48 -44q0 -43 42 -43q41 0 41 43q0 -2 -2 11z" />
    <glyph glyph-name="yen" unicode="&#x192;" horiz-adv-x="920" 
d="M53 2h194q45 0 45 37q0 20 -17 30t-34 19q-9 6 -9 19q0 14 23.5 61t101.5 47h125q43 0 77 -31q36 -34 31 -77q-2 -15 -23 -23q-24 -10 -30 -22t-6 -22q0 -38 62 -38h236q17 0 35 12t18 27q0 11 -10 21q-13 18 -32.5 23t-29.5 16q-19 22 -43 86l-199 543q-9 24 -17 31.5
t-24 7.5q-4 0 -21.5 -1t-31.5 -1t-31 1t-21 1q-15 0 -21.5 -6.5t-17.5 -30.5l-253 -548q-27 -58 -44 -77q-11 -11 -29.5 -14.5t-33.5 -16t-15 -31.5q0 -17 12.5 -30t32.5 -13zM332 355l77 193q6 16 16 16q9 0 15 -16l68 -185q10 -28 -3 -34q-22 -20 -105 -20q-72 0 -72 29
q0 8 4 17zM389 923l-2 1q20 2 61 -16q45 -19 69 -19q47 0 89 53q27 34 27 45q0 10 -12 17q-6 5 -12 5q-10 0 -24 -15q-17 -19 -24.5 -23.5t-20.5 -4.5q-18 0 -53 13q-23 10 -47 19q-12 2 -22 2q-40 0 -93 -56q-24 -25 -24 -36q0 -8 8 -15t17 -7q11 0 32.5 17.5t30.5 19.5z
" />
    <glyph glyph-name="brokenbar" unicode="&#x201e;" horiz-adv-x="920" 
d="M53 2h194q45 0 45 37q0 20 -17 30t-34 19q-9 6 -9 19q0 14 23.5 61t101.5 47h125q43 0 77 -31q36 -34 31 -77q-2 -15 -23 -23q-24 -10 -30 -22t-6 -22q0 -38 62 -38h236q17 0 35 12t18 27q0 11 -10 21q-13 18 -32.5 23t-29.5 16q-19 22 -43 86l-199 543q-9 24 -17 31.5
t-24 7.5q-4 0 -21.5 -1t-31.5 -1t-31 1t-21 1q-15 0 -21.5 -6.5t-17.5 -30.5l-253 -548q-27 -58 -44 -77q-11 -11 -29.5 -14.5t-33.5 -16t-15 -31.5q0 -17 12.5 -30t32.5 -13zM332 355l77 193q6 16 16 16q9 0 15 -16l68 -185q10 -28 -3 -34q-22 -20 -105 -20q-72 0 -72 29
q0 8 4 17zM344 -212l-1 -1q11 -23 40 -23q31 0 61 25.5t30 58.5q0 9 -3 18q-8 25 -36 25q-33 0 -64 -25.5t-31 -58.5q0 -10 4 -19z" />
    <glyph glyph-name="section" unicode="&#x2026;" horiz-adv-x="800" 
d="M71 2h474q23 0 49 -20.5t36 -20.5q19 0 43 39l88 142q12 19 12 42q0 33 -32 29q-21 -3 -56 -30q-45 -35 -71 -48q-51 -25 -114 -25h-151q-45 0 -62.5 16t-17.5 61v111q0 52 0 50q3 31 23 39t53 8q56 0 92 -18l42 -36q29 -22 51 -22q37 0 37 34q0 17 -11 33l-96 145
q-10 19 -32 19q-9 0 -18 -6t-25 -34q-9 -17 -47 -19q-63 -4 -66 34q0 83 -1 70q3 50 20.5 64t72.5 14q26 0 87 -6q45 -4 86 -25q23 -12 76 -49q30 -21 52 -21q24 0 24 23q0 18 -16 41l-94 136q-17 25 -34 25q-10 0 -35.5 -15t-44.5 -15h-394q-66 0 -66 -45q0 -19 14 -29
q21 -11 42 -21q18 -12 18 -45v-485q0 -33 -17 -44q-22 -11 -43 -22q-15 -11 -15 -30q0 -44 67 -44zM285 857l-1 -1q39 0 51 9l134 102q7 5 7 13q0 12 -16 12h-92q-8 0 -22 -14l-70 -101q-7 -7 -7 -12q0 -8 16 -8z" />
    <glyph glyph-name="dieresis" unicode="&#x2020;" horiz-adv-x="800" 
d="M71 2h474q23 0 49 -20.5t36 -20.5q19 0 43 39l88 142q12 19 12 42q0 33 -32 29q-21 -3 -56 -30q-45 -35 -71 -48q-51 -25 -114 -25h-151q-45 0 -62.5 16t-17.5 61v111q0 52 0 50q3 31 23 39t53 8q56 0 92 -18l42 -36q29 -22 51 -22q37 0 37 34q0 17 -11 33l-96 145
q-10 19 -32 19q-9 0 -18 -6t-25 -34q-9 -17 -47 -19q-63 -4 -66 34q0 83 -1 70q3 50 20.5 64t72.5 14q26 0 87 -6q45 -4 86 -25q23 -12 76 -49q30 -21 52 -21q24 0 24 23q0 18 -16 41l-94 136q-17 25 -34 25q-10 0 -35.5 -15t-44.5 -15h-394q-66 0 -66 -45q0 -19 14 -29
q21 -11 42 -21q18 -12 18 -45v-485q0 -33 -17 -44q-22 -11 -43 -22q-15 -11 -15 -30q0 -44 67 -44zM284 862q11 -9 42 -9q39 0 18 21l-70 101q-12 14 -21 14h-92q-17 0 -17 -13q0 -7 7 -12z" />
    <glyph glyph-name="copyright" unicode="&#x2021;" horiz-adv-x="800" 
d="M71 2h474q23 0 49 -20.5t36 -20.5q19 0 43 39l88 142q12 19 12 42q0 33 -32 29q-21 -3 -56 -30q-45 -35 -71 -48q-51 -25 -114 -25h-151q-45 0 -62.5 16t-17.5 61v111q0 52 0 50q3 31 23 39t53 8q56 0 92 -18l42 -36q29 -22 51 -22q37 0 37 34q0 17 -11 33l-96 145
q-10 19 -32 19q-9 0 -18 -6t-25 -34q-9 -17 -47 -19q-63 -4 -66 34q0 83 -1 70q3 50 20.5 64t72.5 14q26 0 87 -6q45 -4 86 -25q23 -12 76 -49q30 -21 52 -21q24 0 24 23q0 18 -16 41l-94 136q-17 25 -34 25q-10 0 -35.5 -15t-44.5 -15h-394q-66 0 -66 -45q0 -19 14 -29
q21 -11 42 -21q18 -12 18 -45v-485q0 -33 -17 -44q-22 -11 -43 -22q-15 -11 -15 -30q0 -44 67 -44zM305 1057l6 5q4 4 22 4q8 -3 14 -13l6 -10q4 -9 4 -19q0 -22 -30.5 -60t-30.5 -53q0 -18 4 -24q6 -9 26 -8q13 1 13 10q5 22 52 47q51 27 51 71q0 33 -29 61t-71 34
q-35 0 -70 -12q-48 -16 -48 -44q0 -43 42 -43q41 0 41 43q0 -2 -2 11z" />
    <glyph glyph-name="ordfeminine" unicode="&#x2c6;" horiz-adv-x="420" 
d="M62 2h216q50 0 60 29q15 21 -6 42q-11 11 -30.5 18.5t-24.5 13.5q-10 11 -10 39v483q0 27 10 38q6 7 25 14t29.5 18.5t10.5 24.5q0 19 -20 32t-44 13h-216q-63 0 -63 -43q0 -20 15 -31q21 -11 40 -22t19 -44v-483q0 -34 -19 -45.5t-40 -22.5q-15 -12 -15 -31
q0 -43 63 -43zM77 896l-2 1q20 2 61 -16q45 -19 69 -19q47 0 89 53q27 34 27 45q0 10 -12 17q-6 5 -12 5q-10 0 -24 -15q-17 -19 -24.5 -23.5t-20.5 -4.5q-18 0 -53 13q-23 10 -47 19q-12 2 -22 2q-40 0 -93 -56q-24 -25 -24 -36q0 -8 8 -15t17 -7q11 0 32.5 17.5t30.5 19.5
z" />
    <glyph glyph-name="guillemotleft" unicode="&#x2030;" horiz-adv-x="800" 
d="M71 2h474q23 0 49 -20.5t36 -20.5q19 0 43 39l88 142q12 19 12 42q0 33 -32 29q-21 -3 -56 -30q-45 -35 -71 -48q-51 -25 -114 -25h-151q-45 0 -62.5 16t-17.5 61v111q0 52 0 50q3 31 23 39t53 8q56 0 92 -18l42 -36q29 -22 51 -22q37 0 37 34q0 17 -11 33l-96 145
q-10 19 -32 19q-9 0 -18 -6t-25 -34q-9 -17 -47 -19q-63 -4 -66 34q0 83 -1 70q3 50 20.5 64t72.5 14q26 0 87 -6q45 -4 86 -25q23 -12 76 -49q30 -21 52 -21q24 0 24 23q0 18 -16 41l-94 136q-17 25 -34 25q-10 0 -35.5 -15t-44.5 -15h-394q-66 0 -66 -45q0 -19 14 -29
q21 -11 42 -21q18 -12 18 -45v-485q0 -33 -17 -44q-22 -11 -43 -22q-15 -11 -15 -30q0 -44 67 -44zM250 -203l-1 -1q11 -23 40 -23q31 0 61 25.5t30 58.5q0 9 -3 18q-8 25 -36 25q-33 0 -64 -25.5t-31 -58.5q0 -10 4 -19z" />
    <glyph glyph-name="logicalnot" unicode="&#x160;" horiz-adv-x="830" 
d="M19 144l80 -130q30 -48 56 -48q15 0 29 17q3 3 14 21q7 12 17 15q14 2 52 -6q49 -11 51 -11q77 -10 137 -10q198 0 286 113q53 68 45 159q-8 89 -75 148q-53 48 -150 82q-25 9 -164 48q-70 20 -71 20q-45 17 -57 43q-5 12 -5 22q0 34 58 48q44 10 87 6q54 -5 140 -57
q81 -49 95 -48q25 5 25 27q0 29 -30 64l-86 100q-38 44 -65 44q-16 0 -23 -19q-10 -27 -44 -27q-14 0 -41 6q-30 6 -40 7q-17 1 -34 1q-97 0 -166 -38q-84 -47 -92 -134q-8 -84 52 -142q46 -44 141 -78q75 -25 151 -49q84 -29 116 -46q75 -40 75 -91q0 -11 -4 -23
q-25 -81 -177 -81q-70 0 -138 16q-83 19 -157 71q-20 16 -39 31q-26 19 -43 17q-28 0 -28 -26t22 -62z" />
    <glyph glyph-name="registered" unicode="&#x2039;" horiz-adv-x="420" 
d="M62 2h216q50 0 60 29q15 21 -6 42q-11 11 -30.5 18.5t-24.5 13.5q-10 11 -10 39v483q0 27 10 38q6 7 25 14t29.5 18.5t10.5 24.5q0 19 -20 32t-44 13h-216q-63 0 -63 -43q0 -20 15 -31q21 -11 40 -22t19 -44v-483q0 -34 -19 -45.5t-40 -22.5q-15 -12 -15 -31
q0 -43 63 -43zM190 875q11 -9 42 -9q39 0 18 21l-70 101q-12 14 -21 14h-92q-17 0 -17 -13q0 -7 7 -12z" />
    <glyph glyph-name="degree" unicode="&#x152;" horiz-adv-x="420" 
d="M62 2h216q50 0 60 29q15 21 -6 42q-11 11 -30.5 18.5t-24.5 13.5q-10 11 -10 39v483q0 27 10 38q6 7 25 14t29.5 18.5t10.5 24.5q0 19 -20 32t-44 13h-216q-63 0 -63 -43q0 -20 15 -31q21 -11 40 -22t19 -44v-483q0 -34 -19 -45.5t-40 -22.5q-15 -12 -15 -31
q0 -43 63 -43zM149 1052l6 5q4 4 22 4q8 -3 14 -13l6 -10q4 -9 4 -19q0 -22 -30.5 -60t-30.5 -53q0 -18 4 -24q6 -9 26 -8q13 1 13 10q5 22 52 47q51 27 51 71q0 33 -29 61t-71 34q-35 0 -70 -12q-48 -16 -48 -44q0 -43 42 -43q41 0 41 43q0 -2 -2 11z" />
    <glyph glyph-name="plusminus" horiz-adv-x="880" 
d="M-8 349q0 -179 123 -272q109 -83 294 -85q179 -2 293 84q126 94 130 267q5 180 -119 308.5t-303 128.5q-172 0 -294 -127.5t-124 -303.5zM221 363q-1 105 43 202q56 120 151 120q99 0 151 -122q39 -92 39 -206q0 -107 -41 -176q-51 -85 -153 -85q-95 0 -147 90
q-42 73 -43 177zM410 873q11 -9 42 -9q39 0 18 21l-70 101q-12 14 -21 14h-92q-17 0 -17 -13q0 -7 7 -12z" />
    <glyph glyph-name="twosuperior" horiz-adv-x="880" 
d="M-8 349q0 -179 123 -272q109 -83 294 -85q179 -2 293 84q126 94 130 267q5 180 -119 308.5t-303 128.5q-172 0 -294 -127.5t-124 -303.5zM221 363q-1 105 43 202q56 120 151 120q99 0 151 -122q39 -92 39 -206q0 -107 -41 -176q-51 -85 -153 -85q-95 0 -147 90
q-42 73 -43 177zM401 887h-1l60 -48q40 -30 64 -32q23 -2 23 18q0 10 -7 20l-64 82q-17 21 -70 21q-54 0 -72 -21l-70 -84q-9 -10 -9 -20q0 -16 23 -16q33 0 123 80zM300 -258l-1 -1q11 -23 40 -23q31 0 61 25.5t30 58.5q0 9 -3 18q-8 25 -36 25q-33 0 -64 -25.5t-31 -58.5
q0 -10 4 -19z" />
    <glyph glyph-name="threesuperior" horiz-adv-x="420" 
d="M62 2h216q50 0 60 29q15 21 -6 42q-11 11 -30.5 18.5t-24.5 13.5q-10 11 -10 39v483q0 27 10 38q6 7 25 14t29.5 18.5t10.5 24.5q0 19 -20 32t-44 13h-216q-63 0 -63 -43q0 -20 15 -31q21 -11 40 -22t19 -44v-483q0 -34 -19 -45.5t-40 -22.5q-15 -12 -15 -31
q0 -43 63 -43zM83 -199l-1 -1q11 -23 40 -23q31 0 61 25.5t30 58.5q0 9 -3 18q-8 25 -36 25q-33 0 -64 -25.5t-31 -58.5q0 -10 4 -19z" />
    <glyph glyph-name="acute" horiz-adv-x="800" 
d="M71 2h474q23 0 49 -20.5t36 -20.5q19 0 43 39l88 142q12 19 12 42q0 33 -32 29q-21 -3 -56 -30q-45 -35 -71 -48q-51 -25 -114 -25h-151q-45 0 -62.5 16t-17.5 61v111q0 52 0 50q3 31 23 39t53 8q56 0 92 -18l42 -36q29 -22 51 -22q37 0 37 34q0 17 -11 33l-96 145
q-10 19 -32 19q-9 0 -18 -6t-25 -34q-9 -17 -47 -19q-63 -4 -66 34q0 83 -1 70q3 50 20.5 64t72.5 14q26 0 87 -6q45 -4 86 -25q23 -12 76 -49q30 -21 52 -21q24 0 24 23q0 18 -16 41l-94 136q-17 25 -34 25q-10 0 -35.5 -15t-44.5 -15h-394q-66 0 -66 -45q0 -19 14 -29
q21 -11 42 -21q18 -12 18 -45v-485q0 -33 -17 -44q-22 -11 -43 -22q-15 -11 -15 -30q0 -44 67 -44zM220 912l-2 1q20 2 61 -16q45 -19 69 -19q47 0 89 53q27 34 27 45q0 10 -12 17q-6 5 -12 5q-10 0 -24 -15q-17 -19 -24.5 -23.5t-20.5 -4.5q-18 0 -53 13q-23 10 -47 19
q-12 2 -22 2q-40 0 -93 -56q-24 -25 -24 -36q0 -8 8 -15t17 -7q11 0 32.5 17.5t30.5 19.5z" />
    <glyph glyph-name="paragraph" unicode="&#x2018;" horiz-adv-x="880" 
d="M-8 349q0 -179 123 -272q109 -83 294 -85q179 -2 293 84q126 94 130 267q5 180 -119 308.5t-303 128.5q-172 0 -294 -127.5t-124 -303.5zM221 363q-1 105 43 202q56 120 151 120q99 0 151 -122q39 -92 39 -206q0 -107 -41 -176q-51 -85 -153 -85q-95 0 -147 90
q-42 73 -43 177zM411 1063l6 5q4 4 22 4q8 -3 14 -13l6 -10q4 -9 4 -19q0 -22 -30.5 -60t-30.5 -53q0 -18 4 -24q6 -9 26 -8q13 1 13 10q5 22 52 47q51 27 51 71q0 33 -29 61t-71 34q-35 0 -70 -12q-48 -16 -48 -44q0 -43 42 -43q41 0 41 43q0 -2 -2 11z" />
    <glyph glyph-name="cedilla" unicode="&#x2019;" horiz-adv-x="880" 
d="M-8 349q0 -179 123 -272q109 -83 294 -85q179 -2 293 84q126 94 130 267q5 180 -119 308.5t-303 128.5q-172 0 -294 -127.5t-124 -303.5zM221 363q-1 105 43 202q56 120 151 120q99 0 151 -122q39 -92 39 -206q0 -107 -41 -176q-51 -85 -153 -85q-95 0 -147 90
q-42 73 -43 177zM356 923l-2 1q20 2 61 -16q45 -19 69 -19q47 0 89 53q27 34 27 45q0 10 -12 17q-6 5 -12 5q-10 0 -24 -15q-17 -19 -24.5 -23.5t-20.5 -4.5q-18 0 -53 13q-23 10 -47 19q-12 2 -22 2q-40 0 -93 -56q-24 -25 -24 -36q0 -8 8 -15t17 -7q11 0 32.5 17.5
t30.5 19.5z" />
    <glyph glyph-name="onesuperior" unicode="&#x201c;" horiz-adv-x="880" 
d="M-8 349q0 -179 123 -272q109 -83 294 -85q179 -2 293 84q126 94 130 267q5 180 -119 308.5t-303 128.5q-172 0 -294 -127.5t-124 -303.5zM221 363q-1 105 43 202q56 120 151 120q99 0 151 -122q39 -92 39 -206q0 -107 -41 -176q-51 -85 -153 -85q-95 0 -147 90
q-42 73 -43 177zM316 -197l-1 -1q11 -23 40 -23q31 0 61 25.5t30 58.5q0 9 -3 18q-8 25 -36 25q-33 0 -64 -25.5t-31 -58.5q0 -10 4 -19z" />
    <glyph glyph-name="ordmasculine" unicode="&#x201d;" horiz-adv-x="770" 
d="M295 767h-250q-18 0 -30 -11.5t-12 -26.5q0 -14 11 -25q7 -7 43 -22q18 -8 18 -44q0 -15 -2 -36l-22 -208q-13 -127 -13 -151q0 -105 50 -164q74 -87 298 -87q239 0 284 144q12 40 12 102q0 15 -9 148l-17 239q-3 41 13 52q23 14 46 27q13 10 13 26q0 37 -47 37h-173
q-39 0 -39 -34q0 -21 22 -35q42 -16 53 -65q2 -8 7 -94l14 -221q6 -95 -9 -137q-30 -84 -156 -88q-164 -5 -164 169q0 20 2 44l17 219l2 68q2 43 10 68q4 14 22 21q14 6 29 11q26 10 26 33q0 16 -13.5 28.5t-35.5 12.5zM385 867l-1 -1q39 0 51 9l134 102q7 5 7 13
q0 12 -16 12h-92q-8 0 -22 -14l-70 -101q-7 -7 -7 -12q0 -8 16 -8z" />
    <glyph glyph-name="guillemotright" unicode="&#x2022;" horiz-adv-x="770" 
d="M295 767h-250q-18 0 -30 -11.5t-12 -26.5q0 -14 11 -25q7 -7 43 -22q18 -8 18 -44q0 -15 -2 -36l-22 -208q-13 -127 -13 -151q0 -105 50 -164q74 -87 298 -87q239 0 284 144q12 40 12 102q0 15 -9 148l-17 239q-3 41 13 52q23 14 46 27q13 10 13 26q0 37 -47 37h-173
q-39 0 -39 -34q0 -21 22 -35q42 -16 53 -65q2 -8 7 -94l14 -221q6 -95 -9 -137q-30 -84 -156 -88q-164 -5 -164 169q0 20 2 44l17 219l2 68q2 43 10 68q4 14 22 21q14 6 29 11q26 10 26 33q0 16 -13.5 28.5t-35.5 12.5zM354 867q11 -9 42 -9q39 0 18 21l-70 101
q-12 14 -21 14h-92q-17 0 -17 -13q0 -7 7 -12z" />
    <glyph glyph-name="onequarter" unicode="&#x2013;" horiz-adv-x="770" 
d="M295 767h-250q-18 0 -30 -11.5t-12 -26.5q0 -14 11 -25q7 -7 43 -22q18 -8 18 -44q0 -15 -2 -36l-22 -208q-13 -127 -13 -151q0 -105 50 -164q74 -87 298 -87q239 0 284 144q12 40 12 102q0 15 -9 148l-17 239q-3 41 13 52q23 14 46 27q13 10 13 26q0 37 -47 37h-173
q-39 0 -39 -34q0 -21 22 -35q42 -16 53 -65q2 -8 7 -94l14 -221q6 -95 -9 -137q-30 -84 -156 -88q-164 -5 -164 169q0 20 2 44l17 219l2 68q2 43 10 68q4 14 22 21q14 6 29 11q26 10 26 33q0 16 -13.5 28.5t-35.5 12.5zM380 1067l6 5q4 4 22 4q8 -3 14 -13l6 -10q4 -9 4 -19
q0 -22 -30.5 -60t-30.5 -53q0 -18 4 -24q6 -9 26 -8q13 1 13 10q5 22 52 47q51 27 51 71q0 33 -29 61t-71 34q-35 0 -70 -12q-48 -16 -48 -44q0 -43 42 -43q41 0 41 43q0 -2 -2 11z" />
    <glyph glyph-name="onehalf" unicode="&#x2014;" horiz-adv-x="770" 
d="M295 767h-250q-18 0 -30 -11.5t-12 -26.5q0 -14 11 -25q7 -7 43 -22q18 -8 18 -44q0 -15 -2 -36l-22 -208q-13 -127 -13 -151q0 -105 50 -164q74 -87 298 -87q239 0 284 144q12 40 12 102q0 15 -9 148l-17 239q-3 41 13 52q23 14 46 27q13 10 13 26q0 37 -47 37h-173
q-39 0 -39 -34q0 -21 22 -35q42 -16 53 -65q2 -8 7 -94l14 -221q6 -95 -9 -137q-30 -84 -156 -88q-164 -5 -164 169q0 20 2 44l17 219l2 68q2 43 10 68q4 14 22 21q14 6 29 11q26 10 26 33q0 16 -13.5 28.5t-35.5 12.5zM335 922l-2 1q20 2 61 -16q45 -19 69 -19q47 0 89 53
q27 34 27 45q0 10 -12 17q-6 5 -12 5q-10 0 -24 -15q-17 -19 -24.5 -23.5t-20.5 -4.5q-18 0 -53 13q-23 10 -47 19q-12 2 -22 2q-40 0 -93 -56q-24 -25 -24 -36q0 -8 8 -15t17 -7q11 0 32.5 17.5t30.5 19.5z" />
    <glyph glyph-name="threequarters" unicode="&#x2dc;" horiz-adv-x="920" 
d="M53 2h194q45 0 45 37q0 20 -17 30t-34 19q-9 6 -9 19q0 14 23.5 61t101.5 47h125q43 0 77 -31q36 -34 31 -77q-2 -15 -23 -23q-24 -10 -30 -22t-6 -22q0 -38 62 -38h236q17 0 35 12t18 27q0 11 -10 21q-13 18 -32.5 23t-29.5 16q-19 22 -43 86l-199 543q-9 24 -17 31.5
t-24 7.5q-4 0 -21.5 -1t-31.5 -1t-31 1t-21 1q-15 0 -21.5 -6.5t-17.5 -30.5l-253 -548q-27 -58 -44 -77q-11 -11 -29.5 -14.5t-33.5 -16t-15 -31.5q0 -17 12.5 -30t32.5 -13zM332 355l77 193q6 16 16 16q9 0 15 -16l68 -185q10 -28 -3 -34q-22 -20 -105 -20q-72 0 -72 29
q0 8 4 17zM388 947h-4q-1 4 -8 10q-36 0 -38 -2q-5 -5 -5 -15q0 -16 12 -42q10 -22 18 -30q41 -49 112 -49q76 0 113 55q21 31 21 64q0 12 -5 17q-2 2 -38 2q-6 -1 -12 -17q-21 -51 -81 -51q-34 0 -53 15q-13 10 -32 43zM354 -243l-1 -1q11 -23 40 -23q31 0 61 25.5t30 58.5
q0 9 -3 18q-8 25 -36 25q-33 0 -64 -25.5t-31 -58.5q0 -10 4 -19z" />
    <glyph glyph-name="questiondown" unicode="&#x2122;" horiz-adv-x="920" 
d="M53 2h194q45 0 45 37q0 20 -17 30t-34 19q-9 6 -9 19q0 14 23.5 61t101.5 47h125q43 0 77 -31q36 -34 31 -77q-2 -15 -23 -23q-24 -10 -30 -22t-6 -22q0 -38 62 -38h236q17 0 35 12t18 27q0 11 -10 21q-13 18 -32.5 23t-29.5 16q-19 22 -43 86l-199 543q-9 24 -17 31.5
t-24 7.5q-4 0 -21.5 -1t-31.5 -1t-31 1t-21 1q-15 0 -21.5 -6.5t-17.5 -30.5l-253 -548q-27 -58 -44 -77q-11 -11 -29.5 -14.5t-33.5 -16t-15 -31.5q0 -17 12.5 -30t32.5 -13zM332 355l77 193q6 16 16 16q9 0 15 -16l68 -185q10 -28 -3 -34q-22 -20 -105 -20q-72 0 -72 29
q0 8 4 17zM388 947h-4q-1 4 -8 10q-36 0 -38 -2q-5 -5 -5 -15q0 -16 12 -42q10 -22 18 -30q41 -49 112 -49q76 0 113 55q21 31 21 64q0 12 -5 17q-2 2 -38 2q-6 -1 -12 -17q-21 -51 -81 -51q-34 0 -53 15q-13 10 -32 43z" />
    <glyph glyph-name="Agrave" unicode="&#x161;" horiz-adv-x="570" 
d="M19 113l52 -105q8 -14 16 -29q14 -22 27 -22q6 0 11 4q11 8 28 33q11 14 30 14q10 0 27 -3q73 -13 119 -13q108 0 159 64q35 44 35 96q0 45 -27 85t-73 61q-36 17 -89 32q-45 13 -90 25q-69 20 -69 58q0 35 68 35q27 0 58 -5q35 -10 98 -52q58 -39 64 -39q20 0 20 18
t-15 36l-65 111q-12 20 -23 20q-8 0 -28 -17t-41 -17q-16 0 -59.5 9.5t-67.5 9.5q-65 0 -116 -36q-55 -41 -55 -103q0 -81 90 -130q31 -18 158 -60q93 -31 93 -67q0 -19 -26.5 -31.5t-67.5 -12.5q-56 0 -113 23q-18 7 -75 50q-50 37 -61 35q-14 -2 -14 -18q0 -14 22 -59z
" />
    <glyph glyph-name="Aacute" unicode="&#x203a;" horiz-adv-x="920" 
d="M53 2h194q45 0 45 37q0 20 -17 30t-34 19q-9 6 -9 19q0 14 23.5 61t101.5 47h125q43 0 77 -31q36 -34 31 -77q-2 -15 -23 -23q-24 -10 -30 -22t-6 -22q0 -38 62 -38h236q17 0 35 12t18 27q0 11 -10 21q-13 18 -32.5 23t-29.5 16q-19 22 -43 86l-199 543q-9 24 -17 31.5
t-24 7.5q-4 0 -21.5 -1t-31.5 -1t-31 1t-21 1q-15 0 -21.5 -6.5t-17.5 -30.5l-253 -548q-27 -58 -44 -77q-11 -11 -29.5 -14.5t-33.5 -16t-15 -31.5q0 -17 12.5 -30t32.5 -13zM332 355l77 193q6 16 16 16q9 0 15 -16l68 -185q10 -28 -3 -34q-22 -20 -105 -20q-72 0 -72 29
q0 8 4 17zM388 947h-4q-1 4 -8 10q-36 0 -38 -2q-5 -5 -5 -15q0 -16 12 -42q10 -22 18 -30q41 -49 112 -49q76 0 113 55q21 31 21 64q0 12 -5 17q-2 2 -38 2q-6 -1 -12 -17q-21 -51 -81 -51q-34 0 -53 15q-13 10 -32 43zM478 1002q11 -9 42 -9q39 0 18 21l-70 101
q-12 14 -21 14h-92q-17 0 -17 -13q0 -7 7 -12z" />
    <glyph glyph-name="Acircumflex" unicode="&#x153;" horiz-adv-x="920" 
d="M53 2h194q45 0 45 37q0 20 -17 30t-34 19q-9 6 -9 19q0 14 23.5 61t101.5 47h125q43 0 77 -31q36 -34 31 -77q-2 -15 -23 -23q-24 -10 -30 -22t-6 -22q0 -38 62 -38h236q17 0 35 12t18 27q0 11 -10 21q-13 18 -32.5 23t-29.5 16q-19 22 -43 86l-199 543q-9 24 -17 31.5
t-24 7.5q-4 0 -21.5 -1t-31.5 -1t-31 1t-21 1q-15 0 -21.5 -6.5t-17.5 -30.5l-253 -548q-27 -58 -44 -77q-11 -11 -29.5 -14.5t-33.5 -16t-15 -31.5q0 -17 12.5 -30t32.5 -13zM332 355l77 193q6 16 16 16q9 0 15 -16l68 -185q10 -28 -3 -34q-22 -20 -105 -20q-72 0 -72 29
q0 8 4 17zM388 947h-4q-1 4 -8 10q-36 0 -38 -2q-5 -5 -5 -15q0 -16 12 -42q10 -22 18 -30q41 -49 112 -49q76 0 113 55q21 31 21 64q0 12 -5 17q-2 2 -38 2q-6 -1 -12 -17q-21 -51 -81 -51q-34 0 -53 15q-13 10 -32 43zM484 1152l6 5q4 4 22 4q8 -3 14 -13l6 -10
q4 -9 4 -19q0 -22 -30.5 -60t-30.5 -53q0 -18 4 -24q6 -9 26 -8q13 1 13 10q5 22 52 47q51 27 51 71q0 33 -29 61t-71 34q-35 0 -70 -12q-48 -16 -48 -44q0 -43 42 -43q41 0 41 43q0 -2 -2 11z" />
    <glyph glyph-name="Atilde" horiz-adv-x="340" 
d="M71 355v-219q0 -32 -15 -46q-20 -14 -39 -28q-10 -9 -10 -21q0 -15 12.5 -27t28.5 -12h202q14 0 27 11t13 26q0 11 -9 20q-20 14 -38.5 28t-18.5 49v349q0 33 -18 33q-8 0 -30 -7l-120 -51q-42 -18 -42 -39q0 -10 11 -18q16 -8 33 -17q13 -7 13 -31z" />
    <glyph glyph-name="Atilde" unicode="&#x131;" horiz-adv-x="340" 
d="M71 355v-219q0 -32 -15 -46q-20 -14 -39 -28q-10 -9 -10 -21q0 -15 12.5 -27t28.5 -12h202q14 0 27 11t13 26q0 11 -9 20q-20 14 -38.5 28t-18.5 49v349q0 33 -18 33q-8 0 -30 -7l-120 -51q-42 -18 -42 -39q0 -10 11 -18q16 -8 33 -17q13 -7 13 -31z" />
    <glyph glyph-name="Adieresis" horiz-adv-x="610" 
d="M42 2h330q15 0 47.5 -12.5t46.5 -12.5q24 0 36 25l71 145q7 14 7 27q0 23 -19 23q-11 0 -25 -10q-26 -21 -53.5 -42.5t-62.5 -34.5q-60 -22 -182 -22q49 58 159 171q107 111 159 172q29 34 29 55q0 22 -37 22h-330q-21 0 -44.5 16.5t-30.5 16.5q-15 0 -33 -33l-65 -122
q-10 -20 -10 -35q0 -24 19 -24q16 0 36 19l62 50q36 25 75 30q56 7 136 2q-96 -107 -307 -318q-53 -53 -53 -84q0 -24 39 -24z" />
    <glyph glyph-name="Aring" horiz-adv-x="900" 
d="M343 301v-159q0 -33 -17 -44l-42 -22q-16 -12 -16 -31q0 -43 67 -43h218q47 0 60 29q4 9 4 17q0 18 -37.5 43.5t-37.5 50.5v196q127 174 259 352q17 7 33 13q18 10 18 29q0 35 -49 35h-178q-47 0 -47 -31q0 -24 29 -43q22 -11 12 -34q-21 -51 -148 -208q-65 77 -136 182
q-22 27 -22 40q0 7 5 11q1 1 31 16q18 10 20 27q9 40 -48 40h-265q-57 0 -48 -40q2 -18 22 -28q31 -14 32 -15q29 -25 71 -85q31 -45 63 -91q11 -15 147 -207z" />
    <glyph glyph-name="Aring" unicode="&#x178;" horiz-adv-x="900" 
d="M343 301v-159q0 -33 -17 -44l-42 -22q-16 -12 -16 -31q0 -43 67 -43h218q47 0 60 29q4 9 4 17q0 18 -37.5 43.5t-37.5 50.5v196q127 174 259 352q17 7 33 13q18 10 18 29q0 35 -49 35h-178q-47 0 -47 -31q0 -24 29 -43q22 -11 12 -34q-21 -51 -148 -208q-65 77 -136 182
q-22 27 -22 40q0 7 5 11q1 1 31 16q18 10 20 27q9 40 -48 40h-265q-57 0 -48 -40q2 -18 22 -28q31 -14 32 -15q29 -25 71 -85q31 -45 63 -91q11 -15 147 -207z" />
    <glyph glyph-name="AE" unicode="&#xa0;" horiz-adv-x="920" 
d="M53 2h194q45 0 45 37q0 20 -17 30t-34 19q-9 6 -9 19q0 14 23.5 61t101.5 47h125q43 0 77 -31q36 -34 31 -77q-2 -15 -23 -23q-24 -10 -30 -22t-6 -22q0 -38 62 -38h236q17 0 35 12t18 27q0 11 -10 21q-13 18 -32.5 23t-29.5 16q-19 22 -43 86l-199 543q-9 24 -17 31.5
t-24 7.5q-4 0 -21.5 -1t-31.5 -1t-31 1t-21 1q-15 0 -21.5 -6.5t-17.5 -30.5l-253 -548q-27 -58 -44 -77q-11 -11 -29.5 -14.5t-33.5 -16t-15 -31.5q0 -17 12.5 -30t32.5 -13zM332 355l77 193q6 16 16 16q9 0 15 -16l68 -185q10 -28 -3 -34q-22 -20 -105 -20q-72 0 -72 29
q0 8 4 17zM466 886h-1l60 -48q40 -30 64 -32q23 -2 23 18q0 10 -7 20l-64 82q-17 21 -70 21q-54 0 -72 -21l-70 -84q-9 -10 -9 -20q0 -16 23 -16q33 0 123 80zM610 946l-1 -1q39 0 51 9l134 102q7 5 7 13q0 12 -16 12h-92q-8 0 -22 -14l-70 -101q-7 -7 -7 -12q0 -8 16 -8z
" />
    <glyph glyph-name="Ccedilla" unicode="&#xa1;" horiz-adv-x="920" 
d="M53 2h194q45 0 45 37q0 20 -17 30t-34 19q-9 6 -9 19q0 14 23.5 61t101.5 47h125q43 0 77 -31q36 -34 31 -77q-2 -15 -23 -23q-24 -10 -30 -22t-6 -22q0 -38 62 -38h236q17 0 35 12t18 27q0 11 -10 21q-13 18 -32.5 23t-29.5 16q-19 22 -43 86l-199 543q-9 24 -17 31.5
t-24 7.5q-4 0 -21.5 -1t-31.5 -1t-31 1t-21 1q-15 0 -21.5 -6.5t-17.5 -30.5l-253 -548q-27 -58 -44 -77q-11 -11 -29.5 -14.5t-33.5 -16t-15 -31.5q0 -17 12.5 -30t32.5 -13zM332 355l77 193q6 16 16 16q9 0 15 -16l68 -185q10 -28 -3 -34q-22 -20 -105 -20q-72 0 -72 29
q0 8 4 17zM466 886h-1l60 -48q40 -30 64 -32q23 -2 23 18q0 10 -7 20l-64 82q-17 21 -70 21q-54 0 -72 -21l-70 -84q-9 -10 -9 -20q0 -16 23 -16q33 0 123 80zM494 1041q11 -9 42 -9q39 0 18 21l-70 101q-12 14 -21 14h-92q-17 0 -17 -13q0 -7 7 -12z" />
    <glyph glyph-name="Egrave" unicode="&#xa2;" horiz-adv-x="920" 
d="M53 2h194q45 0 45 37q0 20 -17 30t-34 19q-9 6 -9 19q0 14 23.5 61t101.5 47h125q43 0 77 -31q36 -34 31 -77q-2 -15 -23 -23q-24 -10 -30 -22t-6 -22q0 -38 62 -38h236q17 0 35 12t18 27q0 11 -10 21q-13 18 -32.5 23t-29.5 16q-19 22 -43 86l-199 543q-9 24 -17 31.5
t-24 7.5q-4 0 -21.5 -1t-31.5 -1t-31 1t-21 1q-15 0 -21.5 -6.5t-17.5 -30.5l-253 -548q-27 -58 -44 -77q-11 -11 -29.5 -14.5t-33.5 -16t-15 -31.5q0 -17 12.5 -30t32.5 -13zM332 355l77 193q6 16 16 16q9 0 15 -16l68 -185q10 -28 -3 -34q-22 -20 -105 -20q-72 0 -72 29
q0 8 4 17zM466 886h-1l60 -48q40 -30 64 -32q23 -2 23 18q0 10 -7 20l-64 82q-17 21 -70 21q-54 0 -72 -21l-70 -84q-9 -10 -9 -20q0 -16 23 -16q33 0 123 80zM630 1156l6 5q4 4 22 4q8 -3 14 -13l6 -10q4 -9 4 -19q0 -22 -30.5 -60t-30.5 -53q0 -18 4 -24q6 -9 26 -8
q13 1 13 10q5 22 52 47q51 27 51 71q0 33 -29 61t-71 34q-35 0 -70 -12q-48 -16 -48 -44q0 -43 42 -43q41 0 41 43q0 -2 -2 11z" />
    <glyph glyph-name="Eacute" unicode="&#xa3;" horiz-adv-x="920" 
d="M53 2h194q45 0 45 37q0 20 -17 30t-34 19q-9 6 -9 19q0 14 23.5 61t101.5 47h125q43 0 77 -31q36 -34 31 -77q-2 -15 -23 -23q-24 -10 -30 -22t-6 -22q0 -38 62 -38h236q17 0 35 12t18 27q0 11 -10 21q-13 18 -32.5 23t-29.5 16q-19 22 -43 86l-199 543q-9 24 -17 31.5
t-24 7.5q-4 0 -21.5 -1t-31.5 -1t-31 1t-21 1q-15 0 -21.5 -6.5t-17.5 -30.5l-253 -548q-27 -58 -44 -77q-11 -11 -29.5 -14.5t-33.5 -16t-15 -31.5q0 -17 12.5 -30t32.5 -13zM332 355l77 193q6 16 16 16q9 0 15 -16l68 -185q10 -28 -3 -34q-22 -20 -105 -20q-72 0 -72 29
q0 8 4 17zM466 886h-1l60 -48q40 -30 64 -32q23 -2 23 18q0 10 -7 20l-64 82q-17 21 -70 21q-54 0 -72 -21l-70 -84q-9 -10 -9 -20q0 -16 23 -16q33 0 123 80zM375 1071l-2 1q20 2 61 -16q45 -19 69 -19q47 0 89 53q27 34 27 45q0 10 -12 17q-6 5 -12 5q-10 0 -24 -15
q-17 -19 -24.5 -23.5t-20.5 -4.5q-18 0 -53 13q-23 10 -47 19q-12 2 -22 2q-40 0 -93 -56q-24 -25 -24 -36q0 -8 8 -15t17 -7q11 0 32.5 17.5t30.5 19.5z" />
    <glyph glyph-name="Ecircumflex" unicode="&#xa4;" horiz-adv-x="920" 
d="M53 2h194q45 0 45 37q0 20 -17 30t-34 19q-9 6 -9 19q0 14 23.5 61t101.5 47h125q43 0 77 -31q36 -34 31 -77q-2 -15 -23 -23q-24 -10 -30 -22t-6 -22q0 -38 62 -38h236q17 0 35 12t18 27q0 11 -10 21q-13 18 -32.5 23t-29.5 16q-19 22 -43 86l-199 543q-9 24 -17 31.5
t-24 7.5q-4 0 -21.5 -1t-31.5 -1t-31 1t-21 1q-15 0 -21.5 -6.5t-17.5 -30.5l-253 -548q-27 -58 -44 -77q-11 -11 -29.5 -14.5t-33.5 -16t-15 -31.5q0 -17 12.5 -30t32.5 -13zM332 355l77 193q6 16 16 16q9 0 15 -16l68 -185q10 -28 -3 -34q-22 -20 -105 -20q-72 0 -72 29
q0 8 4 17zM466 886h-1l60 -48q40 -30 64 -32q23 -2 23 18q0 10 -7 20l-64 82q-17 21 -70 21q-54 0 -72 -21l-70 -84q-9 -10 -9 -20q0 -16 23 -16q33 0 123 80zM315 -234l-1 -1q11 -23 40 -23q31 0 61 25.5t30 58.5q0 9 -3 18q-8 25 -36 25q-33 0 -64 -25.5t-31 -58.5
q0 -10 4 -19z" />
    <glyph glyph-name="Edieresis" unicode="&#xa5;" horiz-adv-x="800" 
d="M71 2h474q23 0 49 -20.5t36 -20.5q19 0 43 39l88 142q12 19 12 42q0 33 -32 29q-21 -3 -56 -30q-45 -35 -71 -48q-51 -25 -114 -25h-151q-45 0 -62.5 16t-17.5 61v111q0 52 0 50q3 31 23 39t53 8q56 0 92 -18l42 -36q29 -22 51 -22q37 0 37 34q0 17 -11 33l-96 145
q-10 19 -32 19q-9 0 -18 -6t-25 -34q-9 -17 -47 -19q-63 -4 -66 34q0 83 -1 70q3 50 20.5 64t72.5 14q26 0 87 -6q45 -4 86 -25q23 -12 76 -49q30 -21 52 -21q24 0 24 23q0 18 -16 41l-94 136q-17 25 -34 25q-10 0 -35.5 -15t-44.5 -15h-394q-66 0 -66 -45q0 -19 14 -29
q21 -11 42 -21q18 -12 18 -45v-485q0 -33 -17 -44q-22 -11 -43 -22q-15 -11 -15 -30q0 -44 67 -44zM297 888h-1l60 -48q40 -30 64 -32q23 -2 23 18q0 10 -7 20l-64 82q-17 21 -70 21q-54 0 -72 -21l-70 -84q-9 -10 -9 -20q0 -16 23 -16q33 0 123 80z" />
    <glyph glyph-name="Igrave" unicode="&#xa6;" horiz-adv-x="800" 
d="M71 2h474q23 0 49 -20.5t36 -20.5q19 0 43 39l88 142q12 19 12 42q0 33 -32 29q-21 -3 -56 -30q-45 -35 -71 -48q-51 -25 -114 -25h-151q-45 0 -62.5 16t-17.5 61v111q0 52 0 50q3 31 23 39t53 8q56 0 92 -18l42 -36q29 -22 51 -22q37 0 37 34q0 17 -11 33l-96 145
q-10 19 -32 19q-9 0 -18 -6t-25 -34q-9 -17 -47 -19q-63 -4 -66 34q0 83 -1 70q3 50 20.5 64t72.5 14q26 0 87 -6q45 -4 86 -25q23 -12 76 -49q30 -21 52 -21q24 0 24 23q0 18 -16 41l-94 136q-17 25 -34 25q-10 0 -35.5 -15t-44.5 -15h-394q-66 0 -66 -45q0 -19 14 -29
q21 -11 42 -21q18 -12 18 -45v-485q0 -33 -17 -44q-22 -11 -43 -22q-15 -11 -15 -30q0 -44 67 -44zM297 888h-1l60 -48q40 -30 64 -32q23 -2 23 18q0 10 -7 20l-64 82q-17 21 -70 21q-54 0 -72 -21l-70 -84q-9 -10 -9 -20q0 -16 23 -16q33 0 123 80zM456 963l-1 -1
q39 0 51 9l134 102q7 5 7 13q0 12 -16 12h-92q-8 0 -22 -14l-70 -101q-7 -7 -7 -12q0 -8 16 -8z" />
    <glyph glyph-name="Iacute" unicode="&#xa7;" horiz-adv-x="800" 
d="M71 2h474q23 0 49 -20.5t36 -20.5q19 0 43 39l88 142q12 19 12 42q0 33 -32 29q-21 -3 -56 -30q-45 -35 -71 -48q-51 -25 -114 -25h-151q-45 0 -62.5 16t-17.5 61v111q0 52 0 50q3 31 23 39t53 8q56 0 92 -18l42 -36q29 -22 51 -22q37 0 37 34q0 17 -11 33l-96 145
q-10 19 -32 19q-9 0 -18 -6t-25 -34q-9 -17 -47 -19q-63 -4 -66 34q0 83 -1 70q3 50 20.5 64t72.5 14q26 0 87 -6q45 -4 86 -25q23 -12 76 -49q30 -21 52 -21q24 0 24 23q0 18 -16 41l-94 136q-17 25 -34 25q-10 0 -35.5 -15t-44.5 -15h-394q-66 0 -66 -45q0 -19 14 -29
q21 -11 42 -21q18 -12 18 -45v-485q0 -33 -17 -44q-22 -11 -43 -22q-15 -11 -15 -30q0 -44 67 -44zM297 888h-1l60 -48q40 -30 64 -32q23 -2 23 18q0 10 -7 20l-64 82q-17 21 -70 21q-54 0 -72 -21l-70 -84q-9 -10 -9 -20q0 -16 23 -16q33 0 123 80zM285 1033q11 -9 42 -9
q39 0 18 21l-70 101q-12 14 -21 14h-92q-17 0 -17 -13q0 -7 7 -12z" />
    <glyph glyph-name="Icircumflex" unicode="&#xa8;" horiz-adv-x="800" 
d="M71 2h474q23 0 49 -20.5t36 -20.5q19 0 43 39l88 142q12 19 12 42q0 33 -32 29q-21 -3 -56 -30q-45 -35 -71 -48q-51 -25 -114 -25h-151q-45 0 -62.5 16t-17.5 61v111q0 52 0 50q3 31 23 39t53 8q56 0 92 -18l42 -36q29 -22 51 -22q37 0 37 34q0 17 -11 33l-96 145
q-10 19 -32 19q-9 0 -18 -6t-25 -34q-9 -17 -47 -19q-63 -4 -66 34q0 83 -1 70q3 50 20.5 64t72.5 14q26 0 87 -6q45 -4 86 -25q23 -12 76 -49q30 -21 52 -21q24 0 24 23q0 18 -16 41l-94 136q-17 25 -34 25q-10 0 -35.5 -15t-44.5 -15h-394q-66 0 -66 -45q0 -19 14 -29
q21 -11 42 -21q18 -12 18 -45v-485q0 -33 -17 -44q-22 -11 -43 -22q-15 -11 -15 -30q0 -44 67 -44zM297 888h-1l60 -48q40 -30 64 -32q23 -2 23 18q0 10 -7 20l-64 82q-17 21 -70 21q-54 0 -72 -21l-70 -84q-9 -10 -9 -20q0 -16 23 -16q33 0 123 80zM436 1158l6 5q4 4 22 4
q8 -3 14 -13l6 -10q4 -9 4 -19q0 -22 -30.5 -60t-30.5 -53q0 -18 4 -24q6 -9 26 -8q13 1 13 10q5 22 52 47q51 27 51 71q0 33 -29 61t-71 34q-35 0 -70 -12q-48 -16 -48 -44q0 -43 42 -43q41 0 41 43q0 -2 -2 11z" />
    <glyph glyph-name="Idieresis" unicode="&#xa9;" horiz-adv-x="800" 
d="M71 2h474q23 0 49 -20.5t36 -20.5q19 0 43 39l88 142q12 19 12 42q0 33 -32 29q-21 -3 -56 -30q-45 -35 -71 -48q-51 -25 -114 -25h-151q-45 0 -62.5 16t-17.5 61v111q0 52 0 50q3 31 23 39t53 8q56 0 92 -18l42 -36q29 -22 51 -22q37 0 37 34q0 17 -11 33l-96 145
q-10 19 -32 19q-9 0 -18 -6t-25 -34q-9 -17 -47 -19q-63 -4 -66 34q0 83 -1 70q3 50 20.5 64t72.5 14q26 0 87 -6q45 -4 86 -25q23 -12 76 -49q30 -21 52 -21q24 0 24 23q0 18 -16 41l-94 136q-17 25 -34 25q-10 0 -35.5 -15t-44.5 -15h-394q-66 0 -66 -45q0 -19 14 -29
q21 -11 42 -21q18 -12 18 -45v-485q0 -33 -17 -44q-22 -11 -43 -22q-15 -11 -15 -30q0 -44 67 -44zM297 888h-1l60 -48q40 -30 64 -32q23 -2 23 18q0 10 -7 20l-64 82q-17 21 -70 21q-54 0 -72 -21l-70 -84q-9 -10 -9 -20q0 -16 23 -16q33 0 123 80zM206 1078l-2 1
q20 2 61 -16q45 -19 69 -19q47 0 89 53q27 34 27 45q0 10 -12 17q-6 5 -12 5q-10 0 -24 -15q-17 -19 -24.5 -23.5t-20.5 -4.5q-18 0 -53 13q-23 10 -47 19q-12 2 -22 2q-40 0 -93 -56q-24 -25 -24 -36q0 -8 8 -15t17 -7q11 0 32.5 17.5t30.5 19.5z" />
    <glyph glyph-name="Eth" unicode="&#xaa;" horiz-adv-x="800" 
d="M71 2h474q23 0 49 -20.5t36 -20.5q19 0 43 39l88 142q12 19 12 42q0 33 -32 29q-21 -3 -56 -30q-45 -35 -71 -48q-51 -25 -114 -25h-151q-45 0 -62.5 16t-17.5 61v111q0 52 0 50q3 31 23 39t53 8q56 0 92 -18l42 -36q29 -22 51 -22q37 0 37 34q0 17 -11 33l-96 145
q-10 19 -32 19q-9 0 -18 -6t-25 -34q-9 -17 -47 -19q-63 -4 -66 34q0 83 -1 70q3 50 20.5 64t72.5 14q26 0 87 -6q45 -4 86 -25q23 -12 76 -49q30 -21 52 -21q24 0 24 23q0 18 -16 41l-94 136q-17 25 -34 25q-10 0 -35.5 -15t-44.5 -15h-394q-66 0 -66 -45q0 -19 14 -29
q21 -11 42 -21q18 -12 18 -45v-485q0 -33 -17 -44q-22 -11 -43 -22q-15 -11 -15 -30q0 -44 67 -44zM297 888h-1l60 -48q40 -30 64 -32q23 -2 23 18q0 10 -7 20l-64 82q-17 21 -70 21q-54 0 -72 -21l-70 -84q-9 -10 -9 -20q0 -16 23 -16q33 0 123 80zM226 -242l-1 -1
q11 -23 40 -23q31 0 61 25.5t30 58.5q0 9 -3 18q-8 25 -36 25q-33 0 -64 -25.5t-31 -58.5q0 -10 4 -19z" />
    <glyph glyph-name="Ntilde" unicode="&#xab;" horiz-adv-x="880" 
d="M-8 349q0 -179 123 -272q109 -83 294 -85q179 -2 293 84q126 94 130 267q5 180 -119 308.5t-303 128.5q-172 0 -294 -127.5t-124 -303.5zM221 363q-1 105 43 202q56 120 151 120q99 0 151 -122q39 -92 39 -206q0 -107 -41 -176q-51 -85 -153 -85q-95 0 -147 90
q-42 73 -43 177zM401 887h-1l60 -48q40 -30 64 -32q23 -2 23 18q0 10 -7 20l-64 82q-17 21 -70 21q-54 0 -72 -21l-70 -84q-9 -10 -9 -20q0 -16 23 -16q33 0 123 80z" />
    <glyph glyph-name="Ograve" unicode="&#xac;" horiz-adv-x="880" 
d="M-8 349q0 -179 123 -272q109 -83 294 -85q179 -2 293 84q126 94 130 267q5 180 -119 308.5t-303 128.5q-172 0 -294 -127.5t-124 -303.5zM221 363q-1 105 43 202q56 120 151 120q99 0 151 -122q39 -92 39 -206q0 -107 -41 -176q-51 -85 -153 -85q-95 0 -147 90
q-42 73 -43 177zM401 887h-1l60 -48q40 -30 64 -32q23 -2 23 18q0 10 -7 20l-64 82q-17 21 -70 21q-54 0 -72 -21l-70 -84q-9 -10 -9 -20q0 -16 23 -16q33 0 123 80zM570 962l-1 -1q39 0 51 9l134 102q7 5 7 13q0 12 -16 12h-92q-8 0 -22 -14l-70 -101q-7 -7 -7 -12
q0 -8 16 -8z" />
    <glyph glyph-name="Oacute" unicode="&#xad;" horiz-adv-x="880" 
d="M-8 349q0 -179 123 -272q109 -83 294 -85q179 -2 293 84q126 94 130 267q5 180 -119 308.5t-303 128.5q-172 0 -294 -127.5t-124 -303.5zM221 363q-1 105 43 202q56 120 151 120q99 0 151 -122q39 -92 39 -206q0 -107 -41 -176q-51 -85 -153 -85q-95 0 -147 90
q-42 73 -43 177zM401 887h-1l60 -48q40 -30 64 -32q23 -2 23 18q0 10 -7 20l-64 82q-17 21 -70 21q-54 0 -72 -21l-70 -84q-9 -10 -9 -20q0 -16 23 -16q33 0 123 80zM444 1027q11 -9 42 -9q39 0 18 21l-70 101q-12 14 -21 14h-92q-17 0 -17 -13q0 -7 7 -12z" />
    <glyph glyph-name="Ocircumflex" unicode="&#xae;" horiz-adv-x="880" 
d="M-8 349q0 -179 123 -272q109 -83 294 -85q179 -2 293 84q126 94 130 267q5 180 -119 308.5t-303 128.5q-172 0 -294 -127.5t-124 -303.5zM221 363q-1 105 43 202q56 120 151 120q99 0 151 -122q39 -92 39 -206q0 -107 -41 -176q-51 -85 -153 -85q-95 0 -147 90
q-42 73 -43 177zM401 887h-1l60 -48q40 -30 64 -32q23 -2 23 18q0 10 -7 20l-64 82q-17 21 -70 21q-54 0 -72 -21l-70 -84q-9 -10 -9 -20q0 -16 23 -16q33 0 123 80zM545 1147l6 5q4 4 22 4q8 -3 14 -13l6 -10q4 -9 4 -19q0 -22 -30.5 -60t-30.5 -53q0 -18 4 -24q6 -9 26 -8
q13 1 13 10q5 22 52 47q51 27 51 71q0 33 -29 61t-71 34q-35 0 -70 -12q-48 -16 -48 -44q0 -43 42 -43q41 0 41 43q0 -2 -2 11z" />
    <glyph glyph-name="Otilde" unicode="&#xaf;" horiz-adv-x="880" 
d="M-8 349q0 -179 123 -272q109 -83 294 -85q179 -2 293 84q126 94 130 267q5 180 -119 308.5t-303 128.5q-172 0 -294 -127.5t-124 -303.5zM221 363q-1 105 43 202q56 120 151 120q99 0 151 -122q39 -92 39 -206q0 -107 -41 -176q-51 -85 -153 -85q-95 0 -147 90
q-42 73 -43 177zM401 887h-1l60 -48q40 -30 64 -32q23 -2 23 18q0 10 -7 20l-64 82q-17 21 -70 21q-54 0 -72 -21l-70 -84q-9 -10 -9 -20q0 -16 23 -16q33 0 123 80zM295 1062l-2 1q20 2 61 -16q45 -19 69 -19q47 0 89 53q27 34 27 45q0 10 -12 17q-6 5 -12 5q-10 0 -24 -15
q-17 -19 -24.5 -23.5t-20.5 -4.5q-18 0 -53 13q-23 10 -47 19q-12 2 -22 2q-40 0 -93 -56q-24 -25 -24 -36q0 -8 8 -15t17 -7q11 0 32.5 17.5t30.5 19.5z" />
    <glyph glyph-name="Odieresis" unicode="&#xb0;" horiz-adv-x="880" 
d="M-8 349q0 -179 123 -272q109 -83 294 -85q179 -2 293 84q126 94 130 267q5 180 -119 308.5t-303 128.5q-172 0 -294 -127.5t-124 -303.5zM221 363q-1 105 43 202q56 120 151 120q99 0 151 -122q39 -92 39 -206q0 -107 -41 -176q-51 -85 -153 -85q-95 0 -147 90
q-42 73 -43 177zM376 868l-1 -1q39 0 51 9l134 102q7 5 7 13q0 12 -16 12h-92q-8 0 -22 -14l-70 -101q-7 -7 -7 -12q0 -8 16 -8z" />
    <glyph glyph-name="multiply" unicode="&#xb1;" horiz-adv-x="880" 
d="M-6 352q-2 -179 122 -272q109 -83 294 -85q179 -2 294 84q125 94 130 267q2 59 -16 127q-16 60 -38 93q37 24 70 65q39 49 39 86q0 23 -13 40.5t-32 20.5q-26 4 -44.5 -11t-19.5 -43q-1 -42 30 -50q-7 -41 -54 -72q-45 69 -132.5 118t-169.5 58q-21 2 -42 2
q-172 0 -293.5 -127.5t-123.5 -303.5zM223 366q-1 105 43 202q55 120 149 120q99 0 152 -122q39 -92 39 -206q0 -107 -41 -176q-50 -85 -152 -85q-95 0 -147 90q-42 73 -43 177z" />
    <glyph glyph-name="Oslash" unicode="&#xb2;" horiz-adv-x="880" 
d="M-6 352q-2 -179 122 -272q109 -83 294 -85q179 -2 294 84q125 94 130 267q2 59 -16 127q-16 60 -38 93q37 24 70 65q39 49 39 86q0 23 -13 40.5t-32 20.5q-26 4 -44.5 -11t-19.5 -43q-1 -42 30 -50q-7 -41 -54 -72q-45 69 -132.5 118t-169.5 58q-21 2 -42 2
q-172 0 -293.5 -127.5t-123.5 -303.5zM223 366q-1 105 43 202q55 120 149 120q99 0 152 -122q39 -92 39 -206q0 -107 -41 -176q-50 -85 -152 -85q-95 0 -147 90q-42 73 -43 177zM348 871l-1 -1q39 0 51 9l134 102q7 5 7 13q0 12 -16 12h-92q-8 0 -22 -14l-70 -101
q-7 -7 -7 -12q0 -8 16 -8z" />
    <glyph glyph-name="Ugrave" unicode="&#xb3;" horiz-adv-x="880" 
d="M-6 352q-2 -179 122 -272q109 -83 294 -85q179 -2 294 84q125 94 130 267q2 59 -16 127q-16 60 -38 93q37 24 70 65q39 49 39 86q0 23 -13 40.5t-32 20.5q-26 4 -44.5 -11t-19.5 -43q-1 -42 30 -50q-7 -41 -54 -72q-45 69 -132.5 118t-169.5 58q-21 2 -42 2
q-172 0 -293.5 -127.5t-123.5 -303.5zM223 366q-1 105 43 202q55 120 149 120q99 0 152 -122q39 -92 39 -206q0 -107 -41 -176q-50 -85 -152 -85q-95 0 -147 90q-42 73 -43 177zM447 876q11 -9 42 -9q39 0 18 21l-70 101q-12 14 -21 14h-92q-17 0 -17 -13q0 -7 7 -12z" />
    <glyph glyph-name="Uacute" unicode="&#xb4;" horiz-adv-x="880" 
d="M-6 352q-2 -179 122 -272q109 -83 294 -85q179 -2 294 84q125 94 130 267q2 59 -16 127q-16 60 -38 93q37 24 70 65q39 49 39 86q0 23 -13 40.5t-32 20.5q-26 4 -44.5 -11t-19.5 -43q-1 -42 30 -50q-7 -41 -54 -72q-45 69 -132.5 118t-169.5 58q-21 2 -42 2
q-172 0 -293.5 -127.5t-123.5 -303.5zM223 366q-1 105 43 202q55 120 149 120q99 0 152 -122q39 -92 39 -206q0 -107 -41 -176q-50 -85 -152 -85q-95 0 -147 90q-42 73 -43 177zM418 1076l6 5q4 4 22 4q8 -3 14 -13l6 -10q4 -9 4 -19q0 -22 -30.5 -60t-30.5 -53q0 -18 4 -24
q6 -9 26 -8q13 1 13 10q5 22 52 47q51 27 51 71q0 33 -29 61t-71 34q-35 0 -70 -12q-48 -16 -48 -44q0 -43 42 -43q41 0 41 43q0 -2 -2 11z" />
    <glyph glyph-name="Ucircumflex" unicode="&#xb5;" horiz-adv-x="880" 
d="M-6 352q-2 -179 122 -272q109 -83 294 -85q179 -2 294 84q125 94 130 267q2 59 -16 127q-16 60 -38 93q37 24 70 65q39 49 39 86q0 23 -13 40.5t-32 20.5q-26 4 -44.5 -11t-19.5 -43q-1 -42 30 -50q-7 -41 -54 -72q-45 69 -132.5 118t-169.5 58q-21 2 -42 2
q-172 0 -293.5 -127.5t-123.5 -303.5zM223 366q-1 105 43 202q55 120 149 120q99 0 152 -122q39 -92 39 -206q0 -107 -41 -176q-50 -85 -152 -85q-95 0 -147 90q-42 73 -43 177zM328 926l-2 1q20 2 61 -16q45 -19 69 -19q47 0 89 53q27 34 27 45q0 10 -12 17q-6 5 -12 5
q-10 0 -24 -15q-17 -19 -24.5 -23.5t-20.5 -4.5q-18 0 -53 13q-23 10 -47 19q-12 2 -22 2q-40 0 -93 -56q-24 -25 -24 -36q0 -8 8 -15t17 -7q11 0 32.5 17.5t30.5 19.5z" />
    <glyph glyph-name="Udieresis" unicode="&#xb6;" horiz-adv-x="880" 
d="M-6 352q-2 -179 122 -272q109 -83 294 -85q179 -2 294 84q125 94 130 267q2 59 -16 127q-16 60 -38 93q37 24 70 65q39 49 39 86q0 23 -13 40.5t-32 20.5q-26 4 -44.5 -11t-19.5 -43q-1 -42 30 -50q-7 -41 -54 -72q-45 69 -132.5 118t-169.5 58q-21 2 -42 2
q-172 0 -293.5 -127.5t-123.5 -303.5zM223 366q-1 105 43 202q55 120 149 120q99 0 152 -122q39 -92 39 -206q0 -107 -41 -176q-50 -85 -152 -85q-95 0 -147 90q-42 73 -43 177zM318 -199l-1 -1q11 -23 40 -23q31 0 61 25.5t30 58.5q0 9 -3 18q-8 25 -36 25q-33 0 -64 -25.5
t-31 -58.5q0 -10 4 -19z" />
    <glyph glyph-name="Yacute" unicode="&#xb7;" horiz-adv-x="920" 
d="M53 2h194q45 0 45 37q0 20 -17 30t-34 19q-9 6 -9 19q0 14 23.5 61t101.5 47h125q43 0 77 -31q36 -34 31 -77q-2 -15 -23 -23q-24 -10 -30 -22t-6 -22q0 -38 62 -38h236q17 0 35 12t18 27q0 11 -10 21q-13 18 -32.5 23t-29.5 16q-19 22 -43 86l-199 543q-9 24 -17 31.5
t-24 7.5q-4 0 -21.5 -1t-31.5 -1t-31 1t-21 1q-15 0 -21.5 -6.5t-17.5 -30.5l-253 -548q-27 -58 -44 -77q-11 -11 -29.5 -14.5t-33.5 -16t-15 -31.5q0 -17 12.5 -30t32.5 -13zM332 355l77 193q6 16 16 16q9 0 15 -16l68 -185q10 -28 -3 -34q-22 -20 -105 -20q-72 0 -72 29
q0 8 4 17zM389 853l-1 -1q39 0 51 9l134 102q7 5 7 13q0 12 -16 12h-92q-8 0 -22 -14l-70 -101q-7 -7 -7 -12q0 -8 16 -8z" />
    <glyph glyph-name="Yacute" unicode="&#x2219;" horiz-adv-x="920" 
d="M53 2h194q45 0 45 37q0 20 -17 30t-34 19q-9 6 -9 19q0 14 23.5 61t101.5 47h125q43 0 77 -31q36 -34 31 -77q-2 -15 -23 -23q-24 -10 -30 -22t-6 -22q0 -38 62 -38h236q17 0 35 12t18 27q0 11 -10 21q-13 18 -32.5 23t-29.5 16q-19 22 -43 86l-199 543q-9 24 -17 31.5
t-24 7.5q-4 0 -21.5 -1t-31.5 -1t-31 1t-21 1q-15 0 -21.5 -6.5t-17.5 -30.5l-253 -548q-27 -58 -44 -77q-11 -11 -29.5 -14.5t-33.5 -16t-15 -31.5q0 -17 12.5 -30t32.5 -13zM332 355l77 193q6 16 16 16q9 0 15 -16l68 -185q10 -28 -3 -34q-22 -20 -105 -20q-72 0 -72 29
q0 8 4 17zM389 853l-1 -1q39 0 51 9l134 102q7 5 7 13q0 12 -16 12h-92q-8 0 -22 -14l-70 -101q-7 -7 -7 -12q0 -8 16 -8z" />
    <glyph glyph-name="Thorn" unicode="&#xb8;" horiz-adv-x="780" 
d="M669 385l-2 -2l-10 152q52 26 92 65q53 50 53 96q0 23 -13 40.5t-32 20.5q-26 4 -44.5 -11t-19.5 -43q-1 -42 30 -50q-20 -55 -68 -72l-9 185h-142q-39 0 -39 -34q0 -21 22 -35q44 -14 54 -65l6 -94l14 -221q6 -96 -9 -137q-31 -84 -156 -88q-92 -3 -130 47
q-31 40 -31 123q0 19 2 43l14 219q2 47 12 136q5 14 21.5 20.5t32.5 11.5q24 10 24 32q0 17 -14 29.5t-36 12.5h-250q-17 0 -29.5 -11.5t-12.5 -26.5q0 -14 11 -25q7 -7 44 -22q18 -8 18 -45q0 -14 -2 -35l-20 -208q-15 -154 -15 -160q0 -99 49 -155q76 -87 298 -87
q241 0 284 144q12 42 12 105q0 35 -9 145zM407 593l-1 -1q39 0 51 9l134 102q7 5 7 13q0 12 -16 12h-92q-8 0 -22 -14l-70 -101q-7 -7 -7 -12q0 -8 16 -8z" />
    <glyph glyph-name="germandbls" unicode="&#xb9;" horiz-adv-x="780" 
d="M669 385l-2 -2l-10 152q52 26 92 65q53 50 53 96q0 23 -13 40.5t-32 20.5q-26 4 -44.5 -11t-19.5 -43q-1 -42 30 -50q-20 -55 -68 -72l-9 185h-142q-39 0 -39 -34q0 -21 22 -35q44 -14 54 -65l6 -94l14 -221q6 -96 -9 -137q-31 -84 -156 -88q-92 -3 -130 47
q-31 40 -31 123q0 19 2 43l14 219q2 47 12 136q5 14 21.5 20.5t32.5 11.5q24 10 24 32q0 17 -14 29.5t-36 12.5h-250q-17 0 -29.5 -11.5t-12.5 -26.5q0 -14 11 -25q7 -7 44 -22q18 -8 18 -45q0 -14 -2 -35l-20 -208q-15 -154 -15 -160q0 -99 49 -155q76 -87 298 -87
q241 0 284 144q12 42 12 105q0 35 -9 145zM376 618q11 -9 42 -9q39 0 18 21l-70 101q-12 14 -21 14h-92q-17 0 -17 -13q0 -7 7 -12z" />
    <glyph glyph-name="agrave" unicode="&#xba;" horiz-adv-x="780" 
d="M669 385l-2 -2l-10 152q52 26 92 65q53 50 53 96q0 23 -13 40.5t-32 20.5q-26 4 -44.5 -11t-19.5 -43q-1 -42 30 -50q-20 -55 -68 -72l-9 185h-142q-39 0 -39 -34q0 -21 22 -35q44 -14 54 -65l6 -94l14 -221q6 -96 -9 -137q-31 -84 -156 -88q-92 -3 -130 47
q-31 40 -31 123q0 19 2 43l14 219q2 47 12 136q5 14 21.5 20.5t32.5 11.5q24 10 24 32q0 17 -14 29.5t-36 12.5h-250q-17 0 -29.5 -11.5t-12.5 -26.5q0 -14 11 -25q7 -7 44 -22q18 -8 18 -45q0 -14 -2 -35l-20 -208q-15 -154 -15 -160q0 -99 49 -155q76 -87 298 -87
q241 0 284 144q12 42 12 105q0 35 -9 145zM402 783l6 5q4 4 22 4q8 -3 14 -13l6 -10q4 -9 4 -19q0 -22 -30.5 -60t-30.5 -53q0 -18 4 -24q6 -9 26 -8q13 1 13 10q5 22 52 47q51 27 51 71q0 33 -29 61t-71 34q-35 0 -70 -12q-48 -16 -48 -44q0 -43 42 -43q41 0 41 43
q0 -2 -2 11z" />
    <glyph glyph-name="aacute" unicode="&#xbb;" horiz-adv-x="780" 
d="M669 385l-2 -2l-10 152q52 26 92 65q53 50 53 96q0 23 -13 40.5t-32 20.5q-26 4 -44.5 -11t-19.5 -43q-1 -42 30 -50q-20 -55 -68 -72l-9 185h-142q-39 0 -39 -34q0 -21 22 -35q44 -14 54 -65l6 -94l14 -221q6 -96 -9 -137q-31 -84 -156 -88q-92 -3 -130 47
q-31 40 -31 123q0 19 2 43l14 219q2 47 12 136q5 14 21.5 20.5t32.5 11.5q24 10 24 32q0 17 -14 29.5t-36 12.5h-250q-17 0 -29.5 -11.5t-12.5 -26.5q0 -14 11 -25q7 -7 44 -22q18 -8 18 -45q0 -14 -2 -35l-20 -208q-15 -154 -15 -160q0 -99 49 -155q76 -87 298 -87
q241 0 284 144q12 42 12 105q0 35 -9 145zM317 663l-2 1q20 2 61 -16q45 -19 69 -19q47 0 89 53q27 34 27 45q0 10 -12 17q-6 5 -12 5q-10 0 -24 -15q-17 -19 -24.5 -23.5t-20.5 -4.5q-18 0 -53 13q-23 10 -47 19q-12 2 -22 2q-40 0 -93 -56q-24 -25 -24 -36q0 -8 8 -15
t17 -7q11 0 32.5 17.5t30.5 19.5z" />
    <glyph glyph-name="acircumflex" unicode="&#xbc;" horiz-adv-x="780" 
d="M669 385l-2 -2l-10 152q52 26 92 65q53 50 53 96q0 23 -13 40.5t-32 20.5q-26 4 -44.5 -11t-19.5 -43q-1 -42 30 -50q-20 -55 -68 -72l-9 185h-142q-39 0 -39 -34q0 -21 22 -35q44 -14 54 -65l6 -94l14 -221q6 -96 -9 -137q-31 -84 -156 -88q-92 -3 -130 47
q-31 40 -31 123q0 19 2 43l14 219q2 47 12 136q5 14 21.5 20.5t32.5 11.5q24 10 24 32q0 17 -14 29.5t-36 12.5h-250q-17 0 -29.5 -11.5t-12.5 -26.5q0 -14 11 -25q7 -7 44 -22q18 -8 18 -45q0 -14 -2 -35l-20 -208q-15 -154 -15 -160q0 -99 49 -155q76 -87 298 -87
q241 0 284 144q12 42 12 105q0 35 -9 145zM282 -457l-1 -1q11 -23 40 -23q31 0 61 25.5t30 58.5q0 9 -3 18q-8 25 -36 25q-33 0 -64 -25.5t-31 -58.5q0 -10 4 -19z" />
    <glyph glyph-name="atilde" unicode="&#xbd;" horiz-adv-x="640" 
d="M389 542v-62q-58 37 -123 37q-106 0 -187 -86t-81 -200q0 -96 60 -164q62 -72 157 -72q84 0 168 70l2 -38q3 -25 14 -29.5t34 -4.5q67 0 140 21q28 11 28 35q0 11 -8 19q-21 15 -41 30q-16 13 -16 49v395h32q22 2 25 4.5t3 18.5q0 31 1 27q-2 11 -21 10l-40 -3v151
q0 29 -19 29q-9 0 -23 -7l-114 -59q-52 -21 -52 -48q0 -10 12 -18l34 -16q12 -6 12 -29q-124 0 -131 -3q-8 -7 -8 -26q0 -37 60 -37q16 0 44.5 3t37.5 3zM156 258q-4 19 -4 38q0 57 33 103q36 50 92 50q44 0 75 -34q34 -39 40 -109q2 -21 2 -40q0 -79 -30 -122
q-27 -37 -69 -37q-44 0 -84 41q-43 44 -55 110z" />
    <glyph glyph-name="adieresis" unicode="&#xbe;" horiz-adv-x="660" 
d="M383 53q53 -59 133 -59q43 0 74 20t31 50q0 7 -2 15q-4 16 -14 16q-3 0 -14 -4t-18 -4q-32 0 -59 83l-54 168q-42 129 -108 162q-45 22 -102 22q-41 0 -78.5 -10.5t-80.5 -40.5q-52 -38 -52 -69q0 -27 22 -27q15 0 48 20q40 25 47 28q19 5 36 5q84 0 111 -107
q-154 4 -232 -49q-72 -49 -72 -132q0 -30 12 -58q39 -91 157 -91q110 0 215 62zM335 224q20 -64 20 -79q0 -25 -15 -40q-30 -30 -68 -30q-41 0 -73 31.5t-32 68.5q0 51 60 75q23 6 46 6q52 0 62 -32zM210 604l-1 -1q39 0 51 9l134 102q7 5 7 13q0 12 -16 12h-92
q-8 0 -22 -14l-70 -101q-7 -7 -7 -12q0 -8 16 -8z" />
    <glyph glyph-name="aring" unicode="&#xbf;" horiz-adv-x="660" 
d="M383 53q53 -59 133 -59q43 0 74 20t31 50q0 7 -2 15q-4 16 -14 16q-3 0 -14 -4t-18 -4q-32 0 -59 83l-54 168q-42 129 -108 162q-45 22 -102 22q-41 0 -78.5 -10.5t-80.5 -40.5q-52 -38 -52 -69q0 -27 22 -27q15 0 48 20q40 25 47 28q19 5 36 5q84 0 111 -107
q-154 4 -232 -49q-72 -49 -72 -132q0 -30 12 -58q39 -91 157 -91q110 0 215 62zM335 224q20 -64 20 -79q0 -25 -15 -40q-30 -30 -68 -30q-41 0 -73 31.5t-32 68.5q0 51 60 75q23 6 46 6q52 0 62 -32zM229 619q11 -9 42 -9q39 0 18 21l-70 101q-12 14 -21 14h-92
q-17 0 -17 -13q0 -7 7 -12z" />
    <glyph glyph-name="ae" unicode="&#xc0;" horiz-adv-x="920" 
d="M53 2h194q45 0 45 37q0 20 -17 30t-34 19q-9 6 -9 19q0 14 23.5 61t101.5 47h125q43 0 77 -31q36 -34 31 -77q-2 -15 -23 -23q-24 -10 -30 -22t-6 -22q0 -38 62 -38h236q17 0 35 12t18 27q0 11 -10 21q-13 18 -32.5 23t-29.5 16q-19 22 -43 86l-199 543q-9 24 -17 31.5
t-24 7.5q-4 0 -21.5 -1t-31.5 -1t-31 1t-21 1q-15 0 -21.5 -6.5t-17.5 -30.5l-253 -548q-27 -58 -44 -77q-11 -11 -29.5 -14.5t-33.5 -16t-15 -31.5q0 -17 12.5 -30t32.5 -13zM332 355l77 193q6 16 16 16q9 0 15 -16l68 -185q10 -28 -3 -34q-22 -20 -105 -20q-72 0 -72 29
q0 8 4 17zM481 817q11 -9 42 -9q39 0 18 21l-70 101q-12 14 -21 14h-92q-17 0 -17 -13q0 -7 7 -12z" />
    <glyph glyph-name="ccedilla" unicode="&#xc1;" horiz-adv-x="920" 
d="M53 2h194q45 0 45 37q0 20 -17 30t-34 19q-9 6 -9 19q0 14 23.5 61t101.5 47h125q43 0 77 -31q36 -34 31 -77q-2 -15 -23 -23q-24 -10 -30 -22t-6 -22q0 -38 62 -38h236q17 0 35 12t18 27q0 11 -10 21q-13 18 -32.5 23t-29.5 16q-19 22 -43 86l-199 543q-9 24 -17 31.5
t-24 7.5q-4 0 -21.5 -1t-31.5 -1t-31 1t-21 1q-15 0 -21.5 -6.5t-17.5 -30.5l-253 -548q-27 -58 -44 -77q-11 -11 -29.5 -14.5t-33.5 -16t-15 -31.5q0 -17 12.5 -30t32.5 -13zM332 355l77 193q6 16 16 16q9 0 15 -16l68 -185q10 -28 -3 -34q-22 -20 -105 -20q-72 0 -72 29
q0 8 4 17zM396 817l-1 -1q39 0 51 9l134 102q7 5 7 13q0 12 -16 12h-92q-8 0 -22 -14l-70 -101q-7 -7 -7 -12q0 -8 16 -8z" />
    <glyph glyph-name="egrave" unicode="&#xc2;" horiz-adv-x="920" 
d="M53 2h194q45 0 45 37q0 20 -17 30t-34 19q-9 6 -9 19q0 14 23.5 61t101.5 47h125q43 0 77 -31q36 -34 31 -77q-2 -15 -23 -23q-24 -10 -30 -22t-6 -22q0 -38 62 -38h236q17 0 35 12t18 27q0 11 -10 21q-13 18 -32.5 23t-29.5 16q-19 22 -43 86l-199 543q-9 24 -17 31.5
t-24 7.5q-4 0 -21.5 -1t-31.5 -1t-31 1t-21 1q-15 0 -21.5 -6.5t-17.5 -30.5l-253 -548q-27 -58 -44 -77q-11 -11 -29.5 -14.5t-33.5 -16t-15 -31.5q0 -17 12.5 -30t32.5 -13zM332 355l77 193q6 16 16 16q9 0 15 -16l68 -185q10 -28 -3 -34q-22 -20 -105 -20q-72 0 -72 29
q0 8 4 17zM466 886h-1l60 -48q40 -30 64 -32q23 -2 23 18q0 10 -7 20l-64 82q-17 21 -70 21q-54 0 -72 -21l-70 -84q-9 -10 -9 -20q0 -16 23 -16q33 0 123 80z" />
    <glyph glyph-name="eacute" unicode="&#xc3;" horiz-adv-x="920" 
d="M53 2h194q45 0 45 37q0 20 -17 30t-34 19q-9 6 -9 19q0 14 23.5 61t101.5 47h125q43 0 77 -31q36 -34 31 -77q-2 -15 -23 -23q-24 -10 -30 -22t-6 -22q0 -38 62 -38h236q17 0 35 12t18 27q0 11 -10 21q-13 18 -32.5 23t-29.5 16q-19 22 -43 86l-199 543q-9 24 -17 31.5
t-24 7.5q-4 0 -21.5 -1t-31.5 -1t-31 1t-21 1q-15 0 -21.5 -6.5t-17.5 -30.5l-253 -548q-27 -58 -44 -77q-11 -11 -29.5 -14.5t-33.5 -16t-15 -31.5q0 -17 12.5 -30t32.5 -13zM332 355l77 193q6 16 16 16q9 0 15 -16l68 -185q10 -28 -3 -34q-22 -20 -105 -20q-72 0 -72 29
q0 8 4 17zM404 847l-2 1q20 2 61 -16q45 -19 69 -19q47 0 89 53q27 34 27 45q0 10 -12 17q-6 5 -12 5q-10 0 -24 -15q-17 -19 -24.5 -23.5t-20.5 -4.5q-18 0 -53 13q-23 10 -47 19q-12 2 -22 2q-40 0 -93 -56q-24 -25 -24 -36q0 -8 8 -15t17 -7q11 0 32.5 17.5t30.5 19.5z
" />
    <glyph glyph-name="ecircumflex" unicode="&#xc4;" horiz-adv-x="920" 
d="M53 2h194q45 0 45 37q0 20 -17 30t-34 19q-9 6 -9 19q0 14 23.5 61t101.5 47h125q43 0 77 -31q36 -34 31 -77q-2 -15 -23 -23q-24 -10 -30 -22t-6 -22q0 -38 62 -38h236q17 0 35 12t18 27q0 11 -10 21q-13 18 -32.5 23t-29.5 16q-19 22 -43 86l-199 543q-9 24 -17 31.5
t-24 7.5q-4 0 -21.5 -1t-31.5 -1t-31 1t-21 1q-15 0 -21.5 -6.5t-17.5 -30.5l-253 -548q-27 -58 -44 -77q-11 -11 -29.5 -14.5t-33.5 -16t-15 -31.5q0 -17 12.5 -30t32.5 -13zM332 355l77 193q6 16 16 16q9 0 15 -16l68 -185q10 -28 -3 -34q-22 -20 -105 -20q-72 0 -72 29
q0 8 4 17z" />
    <glyph glyph-name="edieresis" unicode="&#xc5;" horiz-adv-x="920" 
d="M53 2h194q45 0 45 37q0 20 -17 30t-34 19q-9 6 -9 19q0 14 23.5 61t101.5 47h125q43 0 77 -31q36 -34 31 -77q-2 -15 -23 -23q-24 -10 -30 -22t-6 -22q0 -38 62 -38h236q17 0 35 12t18 27q0 11 -10 21q-13 18 -32.5 23t-29.5 16q-19 22 -43 86l-199 543q-9 24 -17 31.5
t-24 7.5q-4 0 -21.5 -1t-31.5 -1t-31 1t-21 1q-15 0 -21.5 -6.5t-17.5 -30.5l-253 -548q-27 -58 -44 -77q-11 -11 -29.5 -14.5t-33.5 -16t-15 -31.5q0 -17 12.5 -30t32.5 -13zM332 355l77 193q6 16 16 16q9 0 15 -16l68 -185q10 -28 -3 -34q-22 -20 -105 -20q-72 0 -72 29
q0 8 4 17z" />
    <glyph glyph-name="igrave" unicode="&#xc6;" 
d="M-473 1048l-1 -1q39 0 51 9l134 102q7 5 7 13q0 12 -16 12h-92q-8 0 -22 -14l-70 -101q-7 -7 -7 -12q0 -8 16 -8z" />
    <glyph glyph-name="iacute" unicode="&#xc7;" horiz-adv-x="810" 
d="M2 380q-6 -180 127 -291q121 -101 297 -101q100 0 190 37q127 52 162 142q4 12 4 24q0 31 -24 39q-21 5 -47 -17q-21 -19 -41 -37q-86 -63 -183 -63q-63 0 -118 29q-63 33 -98 107q-32 69 -32 154q0 86 33 156q36 75 100 108q43 22 89 22q96 0 178 -84q21 -25 43 -50
q34 -36 53 -33q28 7 28 33q0 5 -2 10q-6 41 -63 167q-8 21 -17 42q-13 26 -31 26q-5 0 -11 -2q-11 -3 -25.5 -23t-25.5 -20q-19 4 -54 12q-50 11 -101 11q-172 0 -295 -108q-130 -113 -136 -290z" />
    <glyph glyph-name="icircumflex" unicode="&#xc8;" horiz-adv-x="800" 
d="M71 2h474q23 0 49 -20.5t36 -20.5q19 0 43 39l88 142q12 19 12 42q0 33 -32 29q-21 -3 -56 -30q-45 -35 -71 -48q-51 -25 -114 -25h-151q-45 0 -62.5 16t-17.5 61v111q0 52 0 50q3 31 23 39t53 8q56 0 92 -18l42 -36q29 -22 51 -22q37 0 37 34q0 17 -11 33l-96 145
q-10 19 -32 19q-9 0 -18 -6t-25 -34q-9 -17 -47 -19q-63 -4 -66 34q0 83 -1 70q3 50 20.5 64t72.5 14q26 0 87 -6q45 -4 86 -25q23 -12 76 -49q30 -21 52 -21q24 0 24 23q0 18 -16 41l-94 136q-17 25 -34 25q-10 0 -35.5 -15t-44.5 -15h-394q-66 0 -66 -45q0 -19 14 -29
q21 -11 42 -21q18 -12 18 -45v-485q0 -33 -17 -44q-22 -11 -43 -22q-15 -11 -15 -30q0 -44 67 -44zM340 817q11 -9 42 -9q39 0 18 21l-70 101q-12 14 -21 14h-92q-17 0 -17 -13q0 -7 7 -12z" />
    <glyph glyph-name="idieresis" unicode="&#xc9;" horiz-adv-x="800" 
d="M71 2h474q23 0 49 -20.5t36 -20.5q19 0 43 39l88 142q12 19 12 42q0 33 -32 29q-21 -3 -56 -30q-45 -35 -71 -48q-51 -25 -114 -25h-151q-45 0 -62.5 16t-17.5 61v111q0 52 0 50q3 31 23 39t53 8q56 0 92 -18l42 -36q29 -22 51 -22q37 0 37 34q0 17 -11 33l-96 145
q-10 19 -32 19q-9 0 -18 -6t-25 -34q-9 -17 -47 -19q-63 -4 -66 34q0 83 -1 70q3 50 20.5 64t72.5 14q26 0 87 -6q45 -4 86 -25q23 -12 76 -49q30 -21 52 -21q24 0 24 23q0 18 -16 41l-94 136q-17 25 -34 25q-10 0 -35.5 -15t-44.5 -15h-394q-66 0 -66 -45q0 -19 14 -29
q21 -11 42 -21q18 -12 18 -45v-485q0 -33 -17 -44q-22 -11 -43 -22q-15 -11 -15 -30q0 -44 67 -44zM270 822l-1 -1q39 0 51 9l134 102q7 5 7 13q0 12 -16 12h-92q-8 0 -22 -14l-70 -101q-7 -7 -7 -12q0 -8 16 -8z" />
    <glyph glyph-name="eth" unicode="&#xca;" horiz-adv-x="800" 
d="M71 2h474q23 0 49 -20.5t36 -20.5q19 0 43 39l88 142q12 19 12 42q0 33 -32 29q-21 -3 -56 -30q-45 -35 -71 -48q-51 -25 -114 -25h-151q-45 0 -62.5 16t-17.5 61v111q0 52 0 50q3 31 23 39t53 8q56 0 92 -18l42 -36q29 -22 51 -22q37 0 37 34q0 17 -11 33l-96 145
q-10 19 -32 19q-9 0 -18 -6t-25 -34q-9 -17 -47 -19q-63 -4 -66 34q0 83 -1 70q3 50 20.5 64t72.5 14q26 0 87 -6q45 -4 86 -25q23 -12 76 -49q30 -21 52 -21q24 0 24 23q0 18 -16 41l-94 136q-17 25 -34 25q-10 0 -35.5 -15t-44.5 -15h-394q-66 0 -66 -45q0 -19 14 -29
q21 -11 42 -21q18 -12 18 -45v-485q0 -33 -17 -44q-22 -11 -43 -22q-15 -11 -15 -30q0 -44 67 -44zM297 888h-1l60 -48q40 -30 64 -32q23 -2 23 18q0 10 -7 20l-64 82q-17 21 -70 21q-54 0 -72 -21l-70 -84q-9 -10 -9 -20q0 -16 23 -16q33 0 123 80z" />
    <glyph glyph-name="ntilde" unicode="&#xcb;" horiz-adv-x="800" 
d="M71 2h474q23 0 49 -20.5t36 -20.5q19 0 43 39l88 142q12 19 12 42q0 33 -32 29q-21 -3 -56 -30q-45 -35 -71 -48q-51 -25 -114 -25h-151q-45 0 -62.5 16t-17.5 61v111q0 52 0 50q3 31 23 39t53 8q56 0 92 -18l42 -36q29 -22 51 -22q37 0 37 34q0 17 -11 33l-96 145
q-10 19 -32 19q-9 0 -18 -6t-25 -34q-9 -17 -47 -19q-63 -4 -66 34q0 83 -1 70q3 50 20.5 64t72.5 14q26 0 87 -6q45 -4 86 -25q23 -12 76 -49q30 -21 52 -21q24 0 24 23q0 18 -16 41l-94 136q-17 25 -34 25q-10 0 -35.5 -15t-44.5 -15h-394q-66 0 -66 -45q0 -19 14 -29
q21 -11 42 -21q18 -12 18 -45v-485q0 -33 -17 -44q-22 -11 -43 -22q-15 -11 -15 -30q0 -44 67 -44z" />
    <glyph glyph-name="ograve" unicode="&#xcc;" horiz-adv-x="420" 
d="M62 2h216q50 0 60 29q15 21 -6 42q-11 11 -30.5 18.5t-24.5 13.5q-10 11 -10 39v483q0 27 10 38q6 7 25 14t29.5 18.5t10.5 24.5q0 19 -20 32t-44 13h-216q-63 0 -63 -43q0 -20 15 -31q21 -11 40 -22t19 -44v-483q0 -34 -19 -45.5t-40 -22.5q-15 -12 -15 -31
q0 -43 63 -43zM189 817q11 -9 42 -9q39 0 18 21l-70 101q-12 14 -21 14h-92q-17 0 -17 -13q0 -7 7 -12z" />
    <glyph glyph-name="oacute" unicode="&#xcd;" horiz-adv-x="420" 
d="M62 2h216q50 0 60 29q15 21 -6 42q-11 11 -30.5 18.5t-24.5 13.5q-10 11 -10 39v483q0 27 10 38q6 7 25 14t29.5 18.5t10.5 24.5q0 19 -20 32t-44 13h-216q-63 0 -63 -43q0 -20 15 -31q21 -11 40 -22t19 -44v-483q0 -34 -19 -45.5t-40 -22.5q-15 -12 -15 -31
q0 -43 63 -43zM94 817l-1 -1q39 0 51 9l134 102q7 5 7 13q0 12 -16 12h-92q-8 0 -22 -14l-70 -101q-7 -7 -7 -12q0 -8 16 -8z" />
    <glyph glyph-name="ocircumflex" unicode="&#xce;" horiz-adv-x="420" 
d="M62 2h216q50 0 60 29q15 21 -6 42q-11 11 -30.5 18.5t-24.5 13.5q-10 11 -10 39v483q0 27 10 38q6 7 25 14t29.5 18.5t10.5 24.5q0 19 -20 32t-44 13h-216q-63 0 -63 -43q0 -20 15 -31q21 -11 40 -22t19 -44v-483q0 -34 -19 -45.5t-40 -22.5q-15 -12 -15 -31
q0 -43 63 -43z" />
    <glyph glyph-name="otilde" unicode="&#xcf;" horiz-adv-x="420" 
d="M62 2h216q50 0 60 29q15 21 -6 42q-11 11 -30.5 18.5t-24.5 13.5q-10 11 -10 39v483q0 27 10 38q6 7 25 14t29.5 18.5t10.5 24.5q0 19 -20 32t-44 13h-216q-63 0 -63 -43q0 -20 15 -31q21 -11 40 -22t19 -44v-483q0 -34 -19 -45.5t-40 -22.5q-15 -12 -15 -31
q0 -43 63 -43z" />
    <glyph glyph-name="odieresis" unicode="&#xd0;" horiz-adv-x="640" 
d="M0 244q4 -123 92 -190q79 -59 209 -62q119 -2 199 54q90 64 90 178q0 124 -94 212q-92 84 -217 84q-117 0 -198 -78.5t-81 -197.5zM184 218q-24 63 -24 116q0 77 44 107q43 30 97 -3q59 -36 96 -132q25 -66 25 -121q0 -47 -19 -80q-23 -39 -67 -39q-41 0 -80 37
q-44 40 -72 115zM189 653l-2 1q20 2 61 -16q45 -19 69 -19q47 0 89 53q27 34 27 45q0 10 -12 17q-6 5 -12 5q-10 0 -24 -15q-17 -19 -24.5 -23.5t-20.5 -4.5q-18 0 -53 13q-23 10 -47 19q-12 2 -22 2q-40 0 -93 -56q-24 -25 -24 -36q0 -8 8 -15t17 -7q11 0 32.5 17.5
t30.5 19.5z" />
    <glyph glyph-name="divide" unicode="&#xd1;" horiz-adv-x="830" 
d="M76 656v-512q0 -33 -21 -43.5t-44 -21.5q-13 -13 -13 -32q0 -45 67 -45h145q47 0 59 29q4 9 4 16q0 18 -37.5 44.5t-37.5 52.5v429l361 -389q36 -38 44 -51q9 -16 9 -38q0 -5 -1 -30.5t-1 -47.5q0 -16 29 -17q-49 2 51 2q34 0 34 15v610q0 27 10 38q6 7 25 14t31 18
t12 27q0 43 -64 43h-133q-67 0 -67 -45q0 -18 15 -29q22 -11 42.5 -22t20.5 -44v-233l-332 356q-16 17 -46 17h-165q-45 0 -59 -20q-8 -14 -8 -24q0 -18 35 -33.5t35 -33.5z" />
    <glyph glyph-name="oslash" unicode="&#xd2;" horiz-adv-x="880" 
d="M-8 349q0 -179 123 -272q109 -83 294 -85q179 -2 293 84q126 94 130 267q5 180 -119 308.5t-303 128.5q-172 0 -294 -127.5t-124 -303.5zM221 363q-1 105 43 202q56 120 151 120q99 0 151 -122q39 -92 39 -206q0 -107 -41 -176q-51 -85 -153 -85q-95 0 -147 90
q-42 73 -43 177zM457 828q11 -9 42 -9q39 0 18 21l-70 101q-12 14 -21 14h-92q-17 0 -17 -13q0 -7 7 -12z" />
    <glyph glyph-name="ugrave" unicode="&#xd3;" horiz-adv-x="880" 
d="M-8 349q0 -179 123 -272q109 -83 294 -85q179 -2 293 84q126 94 130 267q5 180 -119 308.5t-303 128.5q-172 0 -294 -127.5t-124 -303.5zM221 363q-1 105 43 202q56 120 151 120q99 0 151 -122q39 -92 39 -206q0 -107 -41 -176q-51 -85 -153 -85q-95 0 -147 90
q-42 73 -43 177zM302 828l-1 -1q39 0 51 9l134 102q7 5 7 13q0 12 -16 12h-92q-8 0 -22 -14l-70 -101q-7 -7 -7 -12q0 -8 16 -8z" />
    <glyph glyph-name="uacute" unicode="&#xd4;" horiz-adv-x="880" 
d="M-8 349q0 -179 123 -272q109 -83 294 -85q179 -2 293 84q126 94 130 267q5 180 -119 308.5t-303 128.5q-172 0 -294 -127.5t-124 -303.5zM221 363q-1 105 43 202q56 120 151 120q99 0 151 -122q39 -92 39 -206q0 -107 -41 -176q-51 -85 -153 -85q-95 0 -147 90
q-42 73 -43 177zM401 887h-1l60 -48q40 -30 64 -32q23 -2 23 18q0 10 -7 20l-64 82q-17 21 -70 21q-54 0 -72 -21l-70 -84q-9 -10 -9 -20q0 -16 23 -16q33 0 123 80z" />
    <glyph glyph-name="ucircumflex" unicode="&#xd5;" horiz-adv-x="880" 
d="M-8 349q0 -179 123 -272q109 -83 294 -85q179 -2 293 84q126 94 130 267q5 180 -119 308.5t-303 128.5q-172 0 -294 -127.5t-124 -303.5zM221 363q-1 105 43 202q56 120 151 120q99 0 151 -122q39 -92 39 -206q0 -107 -41 -176q-51 -85 -153 -85q-95 0 -147 90
q-42 73 -43 177zM330 868l-2 1q20 2 61 -16q45 -19 69 -19q47 0 89 53q27 34 27 45q0 10 -12 17q-6 5 -12 5q-10 0 -24 -15q-17 -19 -24.5 -23.5t-20.5 -4.5q-18 0 -53 13q-23 10 -47 19q-12 2 -22 2q-40 0 -93 -56q-24 -25 -24 -36q0 -8 8 -15t17 -7q11 0 32.5 17.5
t30.5 19.5z" />
    <glyph glyph-name="udieresis" unicode="&#xd6;" horiz-adv-x="880" 
d="M-8 349q0 -179 123 -272q109 -83 294 -85q179 -2 293 84q126 94 130 267q5 180 -119 308.5t-303 128.5q-172 0 -294 -127.5t-124 -303.5zM221 363q-1 105 43 202q56 120 151 120q99 0 151 -122q39 -92 39 -206q0 -107 -41 -176q-51 -85 -153 -85q-95 0 -147 90
q-42 73 -43 177z" />
    <glyph glyph-name="yacute" unicode="&#xd7;" horiz-adv-x="660" 
d="M383 53q53 -59 133 -59q43 0 74 20t31 50q0 7 -2 15q-4 16 -14 16q-3 0 -14 -4t-18 -4q-32 0 -59 83l-54 168q-42 129 -108 162q-45 22 -102 22q-41 0 -78.5 -10.5t-80.5 -40.5q-52 -38 -52 -69q0 -27 22 -27q15 0 48 20q40 25 47 28q19 5 36 5q84 0 111 -107
q-154 4 -232 -49q-72 -49 -72 -132q0 -30 12 -58q39 -91 157 -91q110 0 215 62zM335 224q20 -64 20 -79q0 -25 -15 -40q-30 -30 -68 -30q-41 0 -73 31.5t-32 68.5q0 51 60 75q23 6 46 6q52 0 62 -32zM148 692h-4q-1 4 -8 10q-36 0 -38 -2q-5 -5 -5 -15q0 -16 12 -42
q10 -22 18 -30q41 -49 112 -49q76 0 113 55q21 31 21 64q0 12 -5 17q-2 2 -38 2q-6 -1 -12 -17q-21 -51 -81 -51q-34 0 -53 15q-13 10 -32 43z" />
    <glyph glyph-name="thorn" unicode="&#xd8;" horiz-adv-x="660" 
d="M383 53q53 -59 133 -59q43 0 74 20t31 50q0 7 -2 15q-4 16 -14 16q-3 0 -14 -4t-18 -4q-32 0 -59 83l-54 168q-42 129 -108 162q-45 22 -102 22q-41 0 -78.5 -10.5t-80.5 -40.5q-52 -38 -52 -69q0 -27 22 -27q15 0 48 20q40 25 47 28q19 5 36 5q84 0 111 -107
q-154 4 -232 -49q-72 -49 -72 -132q0 -30 12 -58q39 -91 157 -91q110 0 215 62zM335 224q20 -64 20 -79q0 -25 -15 -40q-30 -30 -68 -30q-41 0 -73 31.5t-32 68.5q0 51 60 75q23 6 46 6q52 0 62 -32zM148 692h-4q-1 4 -8 10q-36 0 -38 -2q-5 -5 -5 -15q0 -16 12 -42
q10 -22 18 -30q41 -49 112 -49q76 0 113 55q21 31 21 64q0 12 -5 17q-2 2 -38 2q-6 -1 -12 -17q-21 -51 -81 -51q-34 0 -53 15q-13 10 -32 43zM229 732l-1 -1q39 0 51 9l134 102q7 5 7 13q0 12 -16 12h-92q-8 0 -22 -14l-70 -101q-7 -7 -7 -12q0 -8 16 -8z" />
    <glyph glyph-name="ydieresis" unicode="&#xd9;" horiz-adv-x="770" 
d="M295 767h-250q-18 0 -30 -11.5t-12 -26.5q0 -14 11 -25q7 -7 43 -22q18 -8 18 -44q0 -15 -2 -36l-22 -208q-13 -127 -13 -151q0 -105 50 -164q74 -87 298 -87q239 0 284 144q12 40 12 102q0 15 -9 148l-17 239q-3 41 13 52q23 14 46 27q13 10 13 26q0 37 -47 37h-173
q-39 0 -39 -34q0 -21 22 -35q42 -16 53 -65q2 -8 7 -94l14 -221q6 -95 -9 -137q-30 -84 -156 -88q-164 -5 -164 169q0 20 2 44l17 219l2 68q2 43 10 68q4 14 22 21q14 6 29 11q26 10 26 33q0 16 -13.5 28.5t-35.5 12.5zM402 817q11 -9 42 -9q39 0 18 21l-70 101
q-12 14 -21 14h-92q-17 0 -17 -13q0 -7 7 -12z" />
    <glyph glyph-name="dotlessi" unicode="&#xda;" horiz-adv-x="770" 
d="M295 767h-250q-18 0 -30 -11.5t-12 -26.5q0 -14 11 -25q7 -7 43 -22q18 -8 18 -44q0 -15 -2 -36l-22 -208q-13 -127 -13 -151q0 -105 50 -164q74 -87 298 -87q239 0 284 144q12 40 12 102q0 15 -9 148l-17 239q-3 41 13 52q23 14 46 27q13 10 13 26q0 37 -47 37h-173
q-39 0 -39 -34q0 -21 22 -35q42 -16 53 -65q2 -8 7 -94l14 -221q6 -95 -9 -137q-30 -84 -156 -88q-164 -5 -164 169q0 20 2 44l17 219l2 68q2 43 10 68q4 14 22 21q14 6 29 11q26 10 26 33q0 16 -13.5 28.5t-35.5 12.5zM362 817l-1 -1q39 0 51 9l134 102q7 5 7 13
q0 12 -16 12h-92q-8 0 -22 -14l-70 -101q-7 -7 -7 -12q0 -8 16 -8z" />
    <glyph glyph-name="Lslash" unicode="&#xdb;" horiz-adv-x="770" 
d="M295 767h-250q-18 0 -30 -11.5t-12 -26.5q0 -14 11 -25q7 -7 43 -22q18 -8 18 -44q0 -15 -2 -36l-22 -208q-13 -127 -13 -151q0 -105 50 -164q74 -87 298 -87q239 0 284 144q12 40 12 102q0 15 -9 148l-17 239q-3 41 13 52q23 14 46 27q13 10 13 26q0 37 -47 37h-173
q-39 0 -39 -34q0 -21 22 -35q42 -16 53 -65q2 -8 7 -94l14 -221q6 -95 -9 -137q-30 -84 -156 -88q-164 -5 -164 169q0 20 2 44l17 219l2 68q2 43 10 68q4 14 22 21q14 6 29 11q26 10 26 33q0 16 -13.5 28.5t-35.5 12.5z" />
    <glyph glyph-name="lslash" unicode="&#xdc;" horiz-adv-x="770" 
d="M295 767h-250q-18 0 -30 -11.5t-12 -26.5q0 -14 11 -25q7 -7 43 -22q18 -8 18 -44q0 -15 -2 -36l-22 -208q-13 -127 -13 -151q0 -105 50 -164q74 -87 298 -87q239 0 284 144q12 40 12 102q0 15 -9 148l-17 239q-3 41 13 52q23 14 46 27q13 10 13 26q0 37 -47 37h-173
q-39 0 -39 -34q0 -21 22 -35q42 -16 53 -65q2 -8 7 -94l14 -221q6 -95 -9 -137q-30 -84 -156 -88q-164 -5 -164 169q0 20 2 44l17 219l2 68q2 43 10 68q4 14 22 21q14 6 29 11q26 10 26 33q0 16 -13.5 28.5t-35.5 12.5z" />
    <glyph glyph-name="OE" unicode="&#xdd;" horiz-adv-x="900" 
d="M343 301v-159q0 -33 -17 -44l-42 -22q-16 -12 -16 -31q0 -43 67 -43h218q47 0 60 29q4 9 4 17q0 18 -37.5 43.5t-37.5 50.5v196q127 174 259 352q17 7 33 13q18 10 18 29q0 35 -49 35h-178q-47 0 -47 -31q0 -24 29 -43q22 -11 12 -34q-21 -51 -148 -208q-65 77 -136 182
q-22 27 -22 40q0 7 5 11q1 1 31 16q18 10 20 27q9 40 -48 40h-265q-57 0 -48 -40q2 -18 22 -28q31 -14 32 -15q29 -25 71 -85q31 -45 63 -91q11 -15 147 -207zM446 812l-1 -1q39 0 51 9l134 102q7 5 7 13q0 12 -16 12h-92q-8 0 -22 -14l-70 -101q-7 -7 -7 -12q0 -8 16 -8z
" />
    <glyph glyph-name="oe" unicode="&#xde;" horiz-adv-x="660" 
d="M383 53q53 -59 133 -59q43 0 74 20t31 50q0 7 -2 15q-4 16 -14 16q-3 0 -14 -4t-18 -4q-32 0 -59 83l-54 168q-42 129 -108 162q-45 22 -102 22q-41 0 -78.5 -10.5t-80.5 -40.5q-52 -38 -52 -69q0 -27 22 -27q15 0 48 20q40 25 47 28q19 5 36 5q84 0 111 -107
q-154 4 -232 -49q-72 -49 -72 -132q0 -30 12 -58q39 -91 157 -91q110 0 215 62zM335 224q20 -64 20 -79q0 -25 -15 -40q-30 -30 -68 -30q-41 0 -73 31.5t-32 68.5q0 51 60 75q23 6 46 6q52 0 62 -32zM230 634h-1l60 -48q40 -30 64 -32q23 -2 23 18q0 10 -7 20l-64 82
q-17 21 -70 21q-54 0 -72 -21l-70 -84q-9 -10 -9 -20q0 -16 23 -16q33 0 123 80zM404 704l-1 -1q39 0 51 9l134 102q7 5 7 13q0 12 -16 12h-92q-8 0 -22 -14l-70 -101q-7 -7 -7 -12q0 -8 16 -8z" />
    <glyph glyph-name="Scaron" unicode="&#xdf;" horiz-adv-x="660" 
d="M383 53q53 -59 133 -59q43 0 74 20t31 50q0 7 -2 15q-4 16 -14 16q-3 0 -14 -4t-18 -4q-32 0 -59 83l-54 168q-42 129 -108 162q-45 22 -102 22q-41 0 -78.5 -10.5t-80.5 -40.5q-52 -38 -52 -69q0 -27 22 -27q15 0 48 20q40 25 47 28q19 5 36 5q84 0 111 -107
q-154 4 -232 -49q-72 -49 -72 -132q0 -30 12 -58q39 -91 157 -91q110 0 215 62zM335 224q20 -64 20 -79q0 -25 -15 -40q-30 -30 -68 -30q-41 0 -73 31.5t-32 68.5q0 51 60 75q23 6 46 6q52 0 62 -32zM230 634h-1l60 -48q40 -30 64 -32q23 -2 23 18q0 10 -7 20l-64 82
q-17 21 -70 21q-54 0 -72 -21l-70 -84q-9 -10 -9 -20q0 -16 23 -16q33 0 123 80zM243 779q11 -9 42 -9q39 0 18 21l-70 101q-12 14 -21 14h-92q-17 0 -17 -13q0 -7 7 -12z" />
    <glyph glyph-name="scaron" unicode="&#xe0;" horiz-adv-x="660" 
d="M383 53q53 -59 133 -59q43 0 74 20t31 50q0 7 -2 15q-4 16 -14 16q-3 0 -14 -4t-18 -4q-32 0 -59 83l-54 168q-42 129 -108 162q-45 22 -102 22q-41 0 -78.5 -10.5t-80.5 -40.5q-52 -38 -52 -69q0 -27 22 -27q15 0 48 20q40 25 47 28q19 5 36 5q84 0 111 -107
q-154 4 -232 -49q-72 -49 -72 -132q0 -30 12 -58q39 -91 157 -91q110 0 215 62zM335 224q20 -64 20 -79q0 -25 -15 -40q-30 -30 -68 -30q-41 0 -73 31.5t-32 68.5q0 51 60 75q23 6 46 6q52 0 62 -32zM279 571q11 -9 42 -9q39 0 18 21l-70 101q-12 14 -21 14h-92
q-17 0 -17 -13q0 -7 7 -12z" />
    <glyph glyph-name="Ydieresis" unicode="&#xe1;" horiz-adv-x="660" 
d="M383 53q53 -59 133 -59q43 0 74 20t31 50q0 7 -2 15q-4 16 -14 16q-3 0 -14 -4t-18 -4q-32 0 -59 83l-54 168q-42 129 -108 162q-45 22 -102 22q-41 0 -78.5 -10.5t-80.5 -40.5q-52 -38 -52 -69q0 -27 22 -27q15 0 48 20q40 25 47 28q19 5 36 5q84 0 111 -107
q-154 4 -232 -49q-72 -49 -72 -132q0 -30 12 -58q39 -91 157 -91q110 0 215 62zM335 224q20 -64 20 -79q0 -25 -15 -40q-30 -30 -68 -30q-41 0 -73 31.5t-32 68.5q0 51 60 75q23 6 46 6q52 0 62 -32zM199 561l-1 -1q39 0 51 9l134 102q7 5 7 13q0 12 -16 12h-92
q-8 0 -22 -14l-70 -101q-7 -7 -7 -12q0 -8 16 -8z" />
    <glyph glyph-name="Zcaron" unicode="&#xe2;" horiz-adv-x="660" 
d="M383 53q53 -59 133 -59q43 0 74 20t31 50q0 7 -2 15q-4 16 -14 16q-3 0 -14 -4t-18 -4q-32 0 -59 83l-54 168q-42 129 -108 162q-45 22 -102 22q-41 0 -78.5 -10.5t-80.5 -40.5q-52 -38 -52 -69q0 -27 22 -27q15 0 48 20q40 25 47 28q19 5 36 5q84 0 111 -107
q-154 4 -232 -49q-72 -49 -72 -132q0 -30 12 -58q39 -91 157 -91q110 0 215 62zM335 224q20 -64 20 -79q0 -25 -15 -40q-30 -30 -68 -30q-41 0 -73 31.5t-32 68.5q0 51 60 75q23 6 46 6q52 0 62 -32zM230 634h-1l60 -48q40 -30 64 -32q23 -2 23 18q0 10 -7 20l-64 82
q-17 21 -70 21q-54 0 -72 -21l-70 -84q-9 -10 -9 -20q0 -16 23 -16q33 0 123 80z" />
    <glyph glyph-name="zcaron" unicode="&#xe3;" horiz-adv-x="660" 
d="M383 53q53 -59 133 -59q43 0 74 20t31 50q0 7 -2 15q-4 16 -14 16q-3 0 -14 -4t-18 -4q-32 0 -59 83l-54 168q-42 129 -108 162q-45 22 -102 22q-41 0 -78.5 -10.5t-80.5 -40.5q-52 -38 -52 -69q0 -27 22 -27q15 0 48 20q40 25 47 28q19 5 36 5q84 0 111 -107
q-154 4 -232 -49q-72 -49 -72 -132q0 -30 12 -58q39 -91 157 -91q110 0 215 62zM335 224q20 -64 20 -79q0 -25 -15 -40q-30 -30 -68 -30q-41 0 -73 31.5t-32 68.5q0 51 60 75q23 6 46 6q52 0 62 -32zM182 601l-2 1q20 2 61 -16q45 -19 69 -19q47 0 89 53q27 34 27 45
q0 10 -12 17q-6 5 -12 5q-10 0 -24 -15q-17 -19 -24.5 -23.5t-20.5 -4.5q-18 0 -53 13q-23 10 -47 19q-12 2 -22 2q-40 0 -93 -56q-24 -25 -24 -36q0 -8 8 -15t17 -7q11 0 32.5 17.5t30.5 19.5z" />
    <glyph glyph-name="florin" unicode="&#xe4;" horiz-adv-x="660" 
d="M383 53q53 -59 133 -59q43 0 74 20t31 50q0 7 -2 15q-4 16 -14 16q-3 0 -14 -4t-18 -4q-32 0 -59 83l-54 168q-42 129 -108 162q-45 22 -102 22q-41 0 -78.5 -10.5t-80.5 -40.5q-52 -38 -52 -69q0 -27 22 -27q15 0 48 20q40 25 47 28q19 5 36 5q84 0 111 -107
q-154 4 -232 -49q-72 -49 -72 -132q0 -30 12 -58q39 -91 157 -91q110 0 215 62zM335 224q20 -64 20 -79q0 -25 -15 -40q-30 -30 -68 -30q-41 0 -73 31.5t-32 68.5q0 51 60 75q23 6 46 6q52 0 62 -32z" />
    <glyph glyph-name="circumflex" unicode="&#xe5;" horiz-adv-x="660" 
d="M383 53q53 -59 133 -59q43 0 74 20t31 50q0 7 -2 15q-4 16 -14 16q-3 0 -14 -4t-18 -4q-32 0 -59 83l-54 168q-42 129 -108 162q-45 22 -102 22q-41 0 -78.5 -10.5t-80.5 -40.5q-52 -38 -52 -69q0 -27 22 -27q15 0 48 20q40 25 47 28q19 5 36 5q84 0 111 -107
q-154 4 -232 -49q-72 -49 -72 -132q0 -30 12 -58q39 -91 157 -91q110 0 215 62zM335 224q20 -64 20 -79q0 -25 -15 -40q-30 -30 -68 -30q-41 0 -73 31.5t-32 68.5q0 51 60 75q23 6 46 6q52 0 62 -32z" />
    <glyph glyph-name="caron" unicode="&#xe6;" 
d="M-451 825l-1 -1q39 0 51 9l134 102q7 5 7 13q0 12 -16 12h-92q-8 0 -22 -14l-70 -101q-7 -7 -7 -12q0 -8 16 -8z" />
    <glyph glyph-name="macron" unicode="&#xe7;" horiz-adv-x="570" 
d="M457 318l51 105q7 25 3 31q-11 19 -67 40q-47 18 -81 23q-27 4 -55 4q-126 0 -218 -79.5t-92 -193.5q0 -41 13 -81q26 -83 107 -132q76 -45 169 -45q113 0 184 66q63 59 60 94q-4 22 -22 22q-5 0 -9 -2q-17 -5 -45 -33q-32 -32 -55 -44q-39 -21 -91 -17q-65 5 -102 68
q-33 55 -33 132q0 75 30 124q32 53 84 53q33 0 61 -22.5t40 -61.5q4 -22 15 -46q14 -28 29 -28q13 0 24 23z" />
    <glyph glyph-name="breve" unicode="&#xe8;" horiz-adv-x="580" 
d="M198 204l293 97q31 10 31 25q0 7 -5 20q-28 79 -92 127q-67 50 -150 49q-112 -1 -193 -77t-81 -187q0 -115 83.5 -190.5t201.5 -75.5q67 0 139 29q84 34 111 86q5 9 5 20q0 26 -24 26q-11 0 -63 -32.5t-99 -35.5q-113 -6 -157 119zM178 258q-11 50 -11 90q0 114 88 103
q27 -3 60.5 -40.5t33.5 -67.5q0 -25 -26 -34zM288 572q11 -9 42 -9q39 0 18 21l-70 101q-12 14 -21 14h-92q-17 0 -17 -13q0 -7 7 -12z" />
    <glyph glyph-name="dotaccent" unicode="&#xe9;" horiz-adv-x="580" 
d="M198 204l293 97q31 10 31 25q0 7 -5 20q-28 79 -92 127q-67 50 -150 49q-112 -1 -193 -77t-81 -187q0 -115 83.5 -190.5t201.5 -75.5q67 0 139 29q84 34 111 86q5 9 5 20q0 26 -24 26q-11 0 -63 -32.5t-99 -35.5q-113 -6 -157 119zM178 258q-11 50 -11 90q0 114 88 103
q27 -3 60.5 -40.5t33.5 -67.5q0 -25 -26 -34zM183 567l-1 -1q39 0 51 9l134 102q7 5 7 13q0 12 -16 12h-92q-8 0 -22 -14l-70 -101q-7 -7 -7 -12q0 -8 16 -8z" />
    <glyph glyph-name="ring" unicode="&#xea;" horiz-adv-x="580" 
d="M198 204l293 97q31 10 31 25q0 7 -5 20q-28 79 -92 127q-67 50 -150 49q-112 -1 -193 -77t-81 -187q0 -115 83.5 -190.5t201.5 -75.5q67 0 139 29q84 34 111 86q5 9 5 20q0 26 -24 26q-11 0 -63 -32.5t-99 -35.5q-113 -6 -157 119zM178 258q-11 50 -11 90q0 114 88 103
q27 -3 60.5 -40.5t33.5 -67.5q0 -25 -26 -34zM243 633h-1l60 -48q40 -30 64 -32q23 -2 23 18q0 10 -7 20l-64 82q-17 21 -70 21q-54 0 -72 -21l-70 -84q-9 -10 -9 -20q0 -16 23 -16q33 0 123 80z" />
    <glyph glyph-name="ogonek" unicode="&#xeb;" horiz-adv-x="580" 
d="M198 204l293 97q31 10 31 25q0 7 -5 20q-28 79 -92 127q-67 50 -150 49q-112 -1 -193 -77t-81 -187q0 -115 83.5 -190.5t201.5 -75.5q67 0 139 29q84 34 111 86q5 9 5 20q0 26 -24 26q-11 0 -63 -32.5t-99 -35.5q-113 -6 -157 119zM178 258q-11 50 -11 90q0 114 88 103
q27 -3 60.5 -40.5t33.5 -67.5q0 -25 -26 -34z" />
    <glyph glyph-name="tilde" unicode="&#xec;" horiz-adv-x="340" 
d="M71 355v-219q0 -32 -15 -46q-20 -14 -39 -28q-10 -9 -10 -21q0 -15 12.5 -27t28.5 -12h202q14 0 27 11t13 26q0 11 -9 20q-20 14 -38.5 28t-18.5 49v349q0 33 -18 33q-8 0 -30 -7l-120 -51q-42 -18 -42 -39q0 -10 11 -18q16 -8 33 -17q13 -7 13 -31zM184 581q11 -9 42 -9
q39 0 18 21l-70 101q-12 14 -21 14h-92q-17 0 -17 -13q0 -7 7 -12z" />
    <glyph glyph-name="hungarumlaut" unicode="&#xed;" horiz-adv-x="340" 
d="M71 355v-219q0 -32 -15 -46q-20 -14 -39 -28q-10 -9 -10 -21q0 -15 12.5 -27t28.5 -12h202q14 0 27 11t13 26q0 11 -9 20q-20 14 -38.5 28t-18.5 49v349q0 33 -18 33q-8 0 -30 -7l-120 -51q-42 -18 -42 -39q0 -10 11 -18q16 -8 33 -17q13 -7 13 -31zM79 571l-1 -1
q39 0 51 9l134 102q7 5 7 13q0 12 -16 12h-92q-8 0 -22 -14l-70 -101q-7 -7 -7 -12q0 -8 16 -8z" />
    <glyph glyph-name="mu" unicode="&#xee;" horiz-adv-x="340" 
d="M71 355v-219q0 -32 -15 -46q-20 -14 -39 -28q-10 -9 -10 -21q0 -15 12.5 -27t28.5 -12h202q14 0 27 11t13 26q0 11 -9 20q-20 14 -38.5 28t-18.5 49v349q0 33 -18 33q-8 0 -30 -7l-120 -51q-42 -18 -42 -39q0 -10 11 -18q16 -8 33 -17q13 -7 13 -31z" />
    <glyph glyph-name="endash" unicode="&#xef;" horiz-adv-x="340" 
d="M71 355v-219q0 -32 -15 -46q-20 -14 -39 -28q-10 -9 -10 -21q0 -15 12.5 -27t28.5 -12h202q14 0 27 11t13 26q0 11 -9 20q-20 14 -38.5 28t-18.5 49v349q0 33 -18 33q-8 0 -30 -7l-120 -51q-42 -18 -42 -39q0 -10 11 -18q16 -8 33 -17q13 -7 13 -31z" />
    <glyph glyph-name="emdash" unicode="&#xf0;" horiz-adv-x="630" 
d="M592 226q-3 81 -30 132q55 29 80 74q11 19 11 38q0 22 -12.5 37.5t-31.5 17.5q-20 2 -34 -8q-17 -13 -17 -37q0 -33 28 -42q-10 -34 -42 -48q-44 55 -94 86q-72 44 -160 44q-117 0 -199 -72q-89 -79 -87 -202t91 -190q80 -59 208 -62q120 -2 200 54q89 63 89 178z
M187 218q-25 65 -25 119q0 75 44 105q42 29 96 -4q58 -36 95 -132q26 -69 26 -125q0 -46 -18 -77q-23 -38 -66 -38q-41 0 -80 37q-43 40 -72 115zM252 598l-1 -1q39 0 51 9l134 102q7 5 7 13q0 12 -16 12h-92q-8 0 -22 -14l-70 -101q-7 -7 -7 -12q0 -8 16 -8z" />
    <glyph glyph-name="quoteleft" unicode="&#xf1;" horiz-adv-x="675" 
d="M68 321v-185q0 -32 -16 -46l-38 -28q-10 -9 -10 -21q0 -14 13 -26.5t28 -12.5h202q15 0 27.5 11t12.5 25q0 11 -9 21t-26 19.5t-22 17.5q-9 13 -9 40v170q0 39 16 67q19 33 52 33q10 0 20 -3q33 -9 57 -71q30 -106 45 -185q4 -21 4 -33q0 -18 -15 -26q-26 -14 -37 -26
q-15 -21 -3 -40q6 -20 54 -20h165q26 0 43 10.5t17 25.5q0 11 -9 21q-2 2 -25 21q-15 12 -20 27q-19 35 -40 125l-28 120q-15 65 -47 109q-40 55 -98 58q-50 3 -87 -25q-24 -18 -61 -68q0 31 -1 63q-3 36 -24 36q-11 0 -26 -8l-114 -63q-57 -31 -57 -57q0 -11 12 -20
q19 -9 38 -19q16 -8 16 -37z" />
    <glyph glyph-name="quoteright" unicode="&#xf2;" horiz-adv-x="640" 
d="M0 244q4 -123 92 -190q79 -59 209 -62q119 -2 199 54q90 64 90 178q0 124 -94 212q-92 84 -217 84q-117 0 -198 -78.5t-81 -197.5zM184 218q-24 63 -24 116q0 77 44 107q43 30 97 -3q59 -36 96 -132q25 -66 25 -121q0 -47 -19 -80q-23 -39 -67 -39q-41 0 -80 37
q-44 40 -72 115zM340 569q11 -9 42 -9q39 0 18 21l-70 101q-12 14 -21 14h-92q-17 0 -17 -13q0 -7 7 -12z" />
    <glyph glyph-name="quotesinglbase" unicode="&#xf3;" horiz-adv-x="640" 
d="M0 244q4 -123 92 -190q79 -59 209 -62q119 -2 199 54q90 64 90 178q0 124 -94 212q-92 84 -217 84q-117 0 -198 -78.5t-81 -197.5zM184 218q-24 63 -24 116q0 77 44 107q43 30 97 -3q59 -36 96 -132q25 -66 25 -121q0 -47 -19 -80q-23 -39 -67 -39q-41 0 -80 37
q-44 40 -72 115zM185 569l-1 -1q39 0 51 9l134 102q7 5 7 13q0 12 -16 12h-92q-8 0 -22 -14l-70 -101q-7 -7 -7 -12q0 -8 16 -8z" />
    <glyph glyph-name="quotedblleft" unicode="&#xf4;" horiz-adv-x="640" 
d="M0 244q4 -123 92 -190q79 -59 209 -62q119 -2 199 54q90 64 90 178q0 124 -94 212q-92 84 -217 84q-117 0 -198 -78.5t-81 -197.5zM184 218q-24 63 -24 116q0 77 44 107q43 30 97 -3q59 -36 96 -132q25 -66 25 -121q0 -47 -19 -80q-23 -39 -67 -39q-41 0 -80 37
q-44 40 -72 115zM274 638h-1l60 -48q40 -30 64 -32q23 -2 23 18q0 10 -7 20l-64 82q-17 21 -70 21q-54 0 -72 -21l-70 -84q-9 -10 -9 -20q0 -16 23 -16q33 0 123 80z" />
    <glyph glyph-name="quotedblright" unicode="&#xf5;" horiz-adv-x="640" 
d="M0 244q4 -123 92 -190q79 -59 209 -62q119 -2 199 54q90 64 90 178q0 124 -94 212q-92 84 -217 84q-117 0 -198 -78.5t-81 -197.5zM184 218q-24 63 -24 116q0 77 44 107q43 30 97 -3q59 -36 96 -132q25 -66 25 -121q0 -47 -19 -80q-23 -39 -67 -39q-41 0 -80 37
q-44 40 -72 115zM193 614l-2 1q20 2 61 -16q45 -19 69 -19q47 0 89 53q27 34 27 45q0 10 -12 17q-6 5 -12 5q-10 0 -24 -15q-17 -19 -24.5 -23.5t-20.5 -4.5q-18 0 -53 13q-23 10 -47 19q-12 2 -22 2q-40 0 -93 -56q-24 -25 -24 -36q0 -8 8 -15t17 -7q11 0 32.5 17.5
t30.5 19.5z" />
    <glyph glyph-name="quotedblbase" unicode="&#xf6;" horiz-adv-x="640" 
d="M0 244q4 -123 92 -190q79 -59 209 -62q119 -2 199 54q90 64 90 178q0 124 -94 212q-92 84 -217 84q-117 0 -198 -78.5t-81 -197.5zM184 218q-24 63 -24 116q0 77 44 107q43 30 97 -3q59 -36 96 -132q25 -66 25 -121q0 -47 -19 -80q-23 -39 -67 -39q-41 0 -80 37
q-44 40 -72 115z" />
    <glyph glyph-name="dagger" unicode="&#xf7;" horiz-adv-x="620" 
d="M505 389v102q0 34 -19 34q-10 0 -29 -8l-119 -52q-46 -20 -46 -45q0 -9 11 -17q18 -9 35 -17q14 -8 14 -34v-137q0 -38 -24.5 -72t-59.5 -34q-15 0 -30 7q-29 14 -37 80q-3 24 -3 96v185q0 48 -31 48q-13 0 -31 -8l-102 -46q-15 -5 -30 -18t-15 -26q0 -10 11 -18l36 -20
q11 -7 12 -43q0 -17 -1 -57q-1 -45 -1 -67q0 -177 76 -217q30 -16 63 -16q77 0 167 82q0 -7 -1 -20v-17q0 -32 35 -32h142q16 0 28 10t12 25q0 8 -3.5 17.5t-34.5 27.5q-25 15 -25 54v212q23 -1 64 31q38 29 52 53q11 19 11 38q0 22 -12.5 37.5t-31.5 17.5q-20 2 -34 -8
q-17 -13 -17 -37q0 -33 28 -42q-17 -34 -60 -49zM279 611q11 -9 42 -9q39 0 18 21l-70 101q-12 14 -21 14h-92q-17 0 -17 -13q0 -7 7 -12z" />
    <glyph glyph-name="daggerdbl" unicode="&#xf8;" horiz-adv-x="620" 
d="M505 389v102q0 34 -19 34q-10 0 -29 -8l-119 -52q-46 -20 -46 -45q0 -9 11 -17q18 -9 35 -17q14 -8 14 -34v-137q0 -38 -24.5 -72t-59.5 -34q-15 0 -30 7q-29 14 -37 80q-3 24 -3 96v185q0 48 -31 48q-13 0 -31 -8l-102 -46q-15 -5 -30 -18t-15 -26q0 -10 11 -18l36 -20
q11 -7 12 -43q0 -17 -1 -57q-1 -45 -1 -67q0 -177 76 -217q30 -16 63 -16q77 0 167 82q0 -7 -1 -20v-17q0 -32 35 -32h142q16 0 28 10t12 25q0 8 -3.5 17.5t-34.5 27.5q-25 15 -25 54v212q23 -1 64 31q38 29 52 53q11 19 11 38q0 22 -12.5 37.5t-31.5 17.5q-20 2 -34 -8
q-17 -13 -17 -37q0 -33 28 -42q-17 -34 -60 -49zM285 806l6 5q4 4 22 4q8 -3 14 -13l6 -10q4 -9 4 -19q0 -22 -30.5 -60t-30.5 -53q0 -18 4 -24q6 -9 26 -8q13 1 13 10q5 22 52 47q51 27 51 71q0 33 -29 61t-71 34q-35 0 -70 -12q-48 -16 -48 -44q0 -43 42 -43q41 0 41 43
q0 -2 -2 11z" />
    <glyph glyph-name="bullet" unicode="&#xf9;" horiz-adv-x="620" 
d="M147 517l-102 -46q-15 -5 -29.5 -18t-14.5 -26q0 -10 10 -18l36 -20q11 -8 12 -43q0 -17 -1 -56q-1 -44 -1 -66q0 -179 76 -219q30 -16 63 -16q78 0 167 82q0 -7 -1 -19v-16q0 -34 35 -34h142q40 0 40 35q0 8 -3.5 17.5t-34.5 27.5q-24 15 -24 54v355q0 34 -20 34
q-10 0 -29 -8l-119 -52q-45 -20 -45 -44q0 -10 11 -18q17 -9 35 -17q13 -8 13 -34v-137q0 -38 -23 -71q-26 -35 -61 -35q-14 0 -29 7q-30 14 -38 80q-2 22 -2 96v185q0 48 -32 48q-13 0 -31 -8zM333 567q11 -9 42 -9q39 0 18 21l-70 101q-12 14 -21 14h-92q-17 0 -17 -13
q0 -7 7 -12z" />
    <glyph glyph-name="ellipsis" unicode="&#xfa;" horiz-adv-x="620" 
d="M147 517l-102 -46q-15 -5 -29.5 -18t-14.5 -26q0 -10 10 -18l36 -20q11 -8 12 -43q0 -17 -1 -56q-1 -44 -1 -66q0 -179 76 -219q30 -16 63 -16q78 0 167 82q0 -7 -1 -19v-16q0 -34 35 -34h142q40 0 40 35q0 8 -3.5 17.5t-34.5 27.5q-24 15 -24 54v355q0 34 -20 34
q-10 0 -29 -8l-119 -52q-45 -20 -45 -44q0 -10 11 -18q17 -9 35 -17q13 -8 13 -34v-137q0 -38 -23 -71q-26 -35 -61 -35q-14 0 -29 7q-30 14 -38 80q-2 22 -2 96v185q0 48 -32 48q-13 0 -31 -8zM273 577l-1 -1q39 0 51 9l134 102q7 5 7 13q0 12 -16 12h-92q-8 0 -22 -14
l-70 -101q-7 -7 -7 -12q0 -8 16 -8z" />
    <glyph glyph-name="perthousand" unicode="&#xfb;" horiz-adv-x="620" 
d="M147 517l-102 -46q-15 -5 -29.5 -18t-14.5 -26q0 -10 10 -18l36 -20q11 -8 12 -43q0 -17 -1 -56q-1 -44 -1 -66q0 -179 76 -219q30 -16 63 -16q78 0 167 82q0 -7 -1 -19v-16q0 -34 35 -34h142q40 0 40 35q0 8 -3.5 17.5t-34.5 27.5q-24 15 -24 54v355q0 34 -20 34
q-10 0 -29 -8l-119 -52q-45 -20 -45 -44q0 -10 11 -18q17 -9 35 -17q13 -8 13 -34v-137q0 -38 -23 -71q-26 -35 -61 -35q-14 0 -29 7q-30 14 -38 80q-2 22 -2 96v185q0 48 -32 48q-13 0 -31 -8z" />
    <glyph glyph-name="guilsinglleft" unicode="&#xfc;" horiz-adv-x="620" 
d="M147 517l-102 -46q-15 -5 -29.5 -18t-14.5 -26q0 -10 10 -18l36 -20q11 -8 12 -43q0 -17 -1 -56q-1 -44 -1 -66q0 -179 76 -219q30 -16 63 -16q78 0 167 82q0 -7 -1 -19v-16q0 -34 35 -34h142q40 0 40 35q0 8 -3.5 17.5t-34.5 27.5q-24 15 -24 54v355q0 34 -20 34
q-10 0 -29 -8l-119 -52q-45 -20 -45 -44q0 -10 11 -18q17 -9 35 -17q13 -8 13 -34v-137q0 -38 -23 -71q-26 -35 -61 -35q-14 0 -29 7q-30 14 -38 80q-2 22 -2 96v185q0 48 -32 48q-13 0 -31 -8z" />
    <glyph glyph-name="guilsinglright" unicode="&#xfd;" horiz-adv-x="610" 
d="M235 25q-37 -66 -91 -61q-22 2 -39 21q-13 19 -26 37q-11 15 -26 15q-29 0 -29 -31q0 -4 1 -8l26 -111q4 -16 5 -19q4 -10 12 -15q34 -19 68 -19q64 0 126 68q48 51 84 129l168 363q13 28 38 44.5t27.5 22t2.5 12.5q0 13 -10 24t-24 11h-137q-18 0 -35 -8.5t-17 -22.5
q0 -9 10 -20q14 -12 27 -23.5t13 -24.5q0 -9 -6 -23l-80 -185l-82 185q-9 20 -9 30t12 18q24 17 28 20q13 12 13 23q0 13 -14 22t-33 9h-185q-26 0 -41.5 -10.5t-15.5 -25.5q0 -11 8.5 -20.5t39.5 -24.5q20 -10 38 -52zM299 553l-1 -1q39 0 51 9l134 102q7 5 7 13
q0 12 -16 12h-92q-8 0 -22 -14l-70 -101q-7 -7 -7 -12q0 -8 16 -8z" />
    <glyph glyph-name="fraction" unicode="&#xfe;" horiz-adv-x="610" 
d="M235 25q-37 -66 -91 -61q-22 2 -39 21q-13 19 -26 37q-11 15 -26 15q-29 0 -29 -31q0 -4 1 -8l26 -111q4 -16 5 -19q4 -10 12 -15q34 -19 68 -19q64 0 126 68q48 51 84 129l168 363q13 28 38 44.5t27.5 22t2.5 12.5q0 13 -10 24t-24 11h-137q-18 0 -35 -8.5t-17 -22.5
q0 -9 10 -20q14 -12 27 -23.5t13 -24.5q0 -9 -6 -23l-80 -185l-82 185q-9 20 -9 30t12 18q24 17 28 20q13 12 13 23q0 13 -14 22t-33 9h-185q-26 0 -41.5 -10.5t-15.5 -25.5q0 -11 8.5 -20.5t39.5 -24.5q20 -10 38 -52zM187 633l-2 1q20 2 61 -16q45 -19 69 -19q47 0 89 53
q27 34 27 45q0 10 -12 17q-6 5 -12 5q-10 0 -24 -15q-17 -19 -24.5 -23.5t-20.5 -4.5q-18 0 -53 13q-23 10 -47 19q-12 2 -22 2q-40 0 -93 -56q-24 -25 -24 -36q0 -8 8 -15t17 -7q11 0 32.5 17.5t30.5 19.5z" />
    <glyph glyph-name="trademark" unicode="&#xff;" horiz-adv-x="610" 
d="M235 25q-37 -66 -91 -61q-22 2 -39 21q-13 19 -26 37q-11 15 -26 15q-29 0 -29 -31q0 -4 1 -8l26 -111q4 -16 5 -19q4 -10 12 -15q34 -19 68 -19q64 0 126 68q48 51 84 129l168 363q13 28 38 44.5t27.5 22t2.5 12.5q0 13 -10 24t-24 11h-137q-18 0 -35 -8.5t-17 -22.5
q0 -9 10 -20q14 -12 27 -23.5t13 -24.5q0 -9 -6 -23l-80 -185l-82 185q-9 20 -9 30t12 18q24 17 28 20q13 12 13 23q0 13 -14 22t-33 9h-185q-26 0 -41.5 -10.5t-15.5 -25.5q0 -11 8.5 -20.5t39.5 -24.5q20 -10 38 -52z" />
    <glyph glyph-name="minus" 
 />
    <glyph glyph-name="periodcentered" horiz-adv-x="780" 
d="M669 385l-2 -2l-10 152q52 26 92 65q53 50 53 96q0 23 -13 40.5t-32 20.5q-26 4 -44.5 -11t-19.5 -43q-1 -42 30 -50q-20 -55 -68 -72l-9 185h-142q-39 0 -39 -34q0 -21 22 -35q44 -14 54 -65l6 -94l14 -221q6 -96 -9 -137q-31 -84 -156 -88q-92 -3 -130 47
q-31 40 -31 123q0 19 2 43l14 219q2 47 12 136q5 14 21.5 20.5t32.5 11.5q24 10 24 32q0 17 -14 29.5t-36 12.5h-250q-17 0 -29.5 -11.5t-12.5 -26.5q0 -14 11 -25q7 -7 44 -22q18 -8 18 -45q0 -14 -2 -35l-20 -208q-15 -154 -15 -160q0 -99 49 -155q76 -87 298 -87
q241 0 284 144q12 42 12 105q0 35 -9 145z" />
    <glyph glyph-name="fi" horiz-adv-x="920" 
d="M53 2h194q45 0 45 37q0 20 -17 30t-34 19q-9 6 -9 19q0 14 23.5 61t101.5 47h125q43 0 77 -31q36 -34 31 -77q-2 -15 -23 -23q-24 -10 -30 -22t-6 -22q0 -38 62 -38h236q17 0 35 12t18 27q0 11 -10 21q-13 18 -32.5 23t-29.5 16q-19 22 -43 86l-199 543q-9 24 -17 31.5
t-24 7.5q-4 0 -21.5 -1t-31.5 -1t-31 1t-21 1q-15 0 -21.5 -6.5t-17.5 -30.5l-253 -548q-27 -58 -44 -77q-11 -11 -29.5 -14.5t-33.5 -16t-15 -31.5q0 -17 12.5 -30t32.5 -13zM332 355l77 193q6 16 16 16q9 0 15 -16l68 -185q10 -28 -3 -34q-22 -20 -105 -20q-72 0 -72 29
q0 8 4 17zM498 868q11 -9 42 -9q39 0 18 21l-70 101q-12 14 -21 14h-92q-17 0 -17 -13q0 -7 7 -12z" />
    <glyph glyph-name="fl" horiz-adv-x="770" 
d="M295 767h-250q-18 0 -30 -11.5t-12 -26.5q0 -14 11 -25q7 -7 43 -22q18 -8 18 -44q0 -15 -2 -36l-22 -208q-13 -127 -13 -151q0 -105 50 -164q74 -87 298 -87q239 0 284 144q12 40 12 102q0 15 -9 148l-17 239q-3 41 13 52q23 14 46 27q13 10 13 26q0 37 -47 37h-173
q-39 0 -39 -34q0 -21 22 -35q42 -16 53 -65q2 -8 7 -94l14 -221q6 -95 -9 -137q-30 -84 -156 -88q-164 -5 -164 169q0 20 2 44l17 219l2 68q2 43 10 68q4 14 22 21q14 6 29 11q26 10 26 33q0 16 -13.5 28.5t-35.5 12.5zM275 -218l-1 -1q11 -23 40 -23q31 0 61 25.5t30 58.5
q0 9 -3 18q-8 25 -36 25q-33 0 -64 -25.5t-31 -58.5q0 -10 4 -19z" />
    <glyph glyph-name="uniF008" unicode="&#xf008;" horiz-adv-x="250" 
 />
    <glyph glyph-name="yhoahuyen" unicode="&#xf00d;" 
d="M-184 588q11 -9 42 -9q39 0 18 21l-70 101q-12 14 -21 14h-92q-17 0 -17 -13q0 -7 7 -12z" />
    <glyph glyph-name="yhoahoi" unicode="&#xf012;" 
d="M-239 746l6 5q4 4 22 4q8 -3 14 -13l6 -10q4 -9 4 -19q0 -22 -30.5 -60t-30.5 -53q0 -18 4 -24q6 -9 26 -8q13 1 13 10q5 22 52 47q51 27 51 71q0 33 -29 61t-71 34q-35 0 -70 -12q-48 -16 -48 -44q0 -43 41 -43q42 0 42 43q0 -2 -2 11z" />
    <glyph glyph-name="yhoasac" unicode="&#xf01d;" 
d="M-298 610l-2 1q20 2 61 -16q45 -19 69 -19q47 0 89 53q27 34 27 45q0 10 -12 17q-6 5 -12 5q-10 0 -24 -15q-17 -19 -24.5 -23.5t-20.5 -4.5q-18 0 -53 13q-23 10 -47 19q-12 2 -22 2q-40 0 -93 -56q-24 -25 -24 -36q0 -8 8 -15t17 -7q11 0 32.5 17.5t30.5 19.5z" />
    <glyph glyph-name="yhoanga" unicode="&#xf02a;" 
d="M-251 -155l-1 -1q11 -23 40 -23q31 0 61 25.5t30 58.5q0 9 -3 18q-8 25 -36 25q-33 0 -64 -25.5t-31 -58.5q0 -10 4 -19z" />
    <glyph glyph-name="dhoa" horiz-adv-x="1" 
d="M-212 533h-4q-1 4 -8 10q-36 0 -38 -2q-5 -5 -5 -15q0 -16 12 -42q10 -22 18 -30q41 -49 112 -49q76 0 113 55q21 31 21 64q0 12 -5 17q-2 2 -38 2q-6 -1 -12 -17q-21 -51 -81 -51q-34 0 -53 15q-13 10 -32 43z" />
    <glyph glyph-name="abhoasac" horiz-adv-x="1" 
d="M-95 465h-1l60 -48q40 -30 64 -32q23 -2 23 18q0 10 -7 20l-64 82q-17 21 -70 21q-54 0 -72 -21l-70 -84q-9 -10 -9 -20q0 -16 23 -16q33 0 123 80z" />
    <glyph glyph-name="yhoanang" unicode="&#x111;" horiz-adv-x="640" 
d="M389 542v-62q-58 37 -123 37q-106 0 -187 -86t-81 -200q0 -96 60 -164q62 -72 157 -72q84 0 168 70l2 -38q3 -25 14 -29.5t34 -4.5q67 0 140 21q28 11 28 35q0 11 -8 19q-21 15 -41 30q-16 13 -16 49v395h32q22 2 25 4.5t3 18.5q0 31 1 27q-2 11 -21 10l-40 -3v151
q0 29 -19 29q-9 0 -23 -7l-114 -59q-52 -21 -52 -48q0 -10 12 -18l34 -16q12 -6 12 -29q-124 0 -131 -3q-8 -7 -8 -26q0 -37 60 -37q16 0 44.5 3t37.5 3zM156 258q-10 51 8 102q15 41 46 65t67 24q44 0 75 -34q34 -39 40 -109q2 -21 2 -40q0 -79 -30 -122q-27 -37 -69 -37
q-44 0 -85 42.5t-54 108.5z" />
    <glyph glyph-name="yhoanang" unicode="&#x20ab;" horiz-adv-x="640" 
d="M389 542v-62q-58 37 -123 37q-106 0 -187 -86t-81 -200q0 -96 60 -164q62 -72 157 -72q84 0 168 70l2 -38q3 -25 14 -29.5t34 -4.5q67 0 140 21q28 11 28 35q0 11 -8 19q-21 15 -41 30q-16 13 -16 49v395h32q22 2 25 4.5t3 18.5q0 31 1 27q-2 11 -21 10l-40 -3v151
q0 29 -19 29q-9 0 -23 -7l-114 -59q-52 -21 -52 -48q0 -10 12 -18l34 -16q12 -6 12 -29q-124 0 -131 -3q-8 -7 -8 -26q0 -37 60 -37q16 0 44.5 3t37.5 3zM156 258q-10 51 8 102q15 41 46 65t67 24q44 0 75 -34q34 -39 40 -109q2 -21 2 -40q0 -79 -30 -122q-27 -37 -69 -37
q-44 0 -85 42.5t-54 108.5z" />
    <glyph glyph-name="ahoasac" unicode="&#x110;" horiz-adv-x="800" 
d="M68 144q0 -34 -17 -45q-22 -12 -43 -23q-15 -11 -15 -30q0 -44 66 -44h287q169 0 264 51q160 86 160 276q0 210 -182 332q-159 106 -378 106h-151q-66 0 -66 -44q0 -20 15 -30q21 -11 43 -21q17 -11 17 -45v-170q-37 0 -50 -6q-20 -9 -20 -40q0 -37 18 -45q7 -3 52 -3
v-219zM261 170v193h122q26 0 26 44q0 50 -26 50h-122v139q0 58 63 58q9 0 19 -1q101 -12 159 -103q50 -79 51 -184q1 -118 -60 -185.5t-175 -70.5q-35 -1 -47 14q-10 12 -10 46z" />
    <glyph glyph-name="ahoahuyen" unicode="&#x1a1;" horiz-adv-x="630" 
d="M592 226q-3 81 -30 132q55 29 80 74q11 19 11 38q0 22 -12.5 37.5t-31.5 17.5q-20 2 -34 -8q-17 -13 -17 -37q0 -33 28 -42q-10 -34 -42 -48q-44 55 -94 86q-72 44 -160 44q-117 0 -199 -72q-89 -79 -87 -202t91 -190q80 -59 208 -62q120 -2 200 54q89 63 89 178z
M187 218q-25 65 -25 119q0 75 44 105q42 29 96 -4q58 -36 95 -132q26 -69 26 -125q0 -46 -18 -77q-23 -38 -66 -38q-41 0 -80 37q-43 40 -72 115z" />
    <glyph glyph-name="ahoahoi" unicode="&#x1a0;" horiz-adv-x="880" 
d="M-6 352q-2 -179 122 -272q109 -83 294 -85q179 -2 294 84q125 94 130 267q2 59 -16 127q-16 60 -38 93q37 24 70 65q39 49 39 86q0 23 -13 40.5t-32 20.5q-26 4 -44.5 -11t-19.5 -43q-1 -42 30 -50q-7 -41 -54 -72q-45 69 -132.5 118t-169.5 58q-21 2 -42 2
q-172 0 -293.5 -127.5t-123.5 -303.5zM223 366q-1 105 43 202q55 120 149 120q99 0 152 -122q39 -92 39 -206q0 -107 -41 -176q-50 -85 -152 -85q-95 0 -147 90q-42 73 -43 177z" />
    <glyph glyph-name="ahoanga" unicode="&#x1b0;" horiz-adv-x="620" 
d="M505 389v102q0 34 -19 34q-10 0 -29 -8l-119 -52q-46 -20 -46 -45q0 -9 11 -17q18 -9 35 -17q14 -8 14 -34v-137q0 -38 -24.5 -72t-59.5 -34q-15 0 -30 7q-29 14 -37 80q-3 24 -3 96v185q0 48 -31 48q-13 0 -31 -8l-102 -46q-15 -5 -30 -18t-15 -26q0 -10 11 -18l36 -20
q11 -7 12 -43q0 -17 -1 -57q-1 -45 -1 -67q0 -177 76 -217q30 -16 63 -16q77 0 167 82q0 -7 -1 -20v-17q0 -32 35 -32h142q16 0 28 10t12 25q0 8 -3.5 17.5t-34.5 27.5q-25 15 -25 54v212q23 -1 64 31q38 29 52 53q11 19 11 38q0 22 -12.5 37.5t-31.5 17.5q-20 2 -34 -8
q-17 -13 -17 -37q0 -33 28 -42q-17 -34 -60 -49z" />
    <glyph glyph-name="ahoanang" unicode="&#x1af;" horiz-adv-x="780" 
d="M669 385l-2 -2l-10 152q52 26 92 65q53 50 53 96q0 23 -13 40.5t-32 20.5q-26 4 -44.5 -11t-19.5 -43q-1 -42 30 -50q-20 -55 -68 -72l-9 185h-142q-39 0 -39 -34q0 -21 22 -35q44 -14 54 -65l6 -94l14 -221q6 -96 -9 -137q-31 -84 -156 -88q-92 -3 -130 47
q-31 40 -31 123q0 19 2 43l14 219q2 47 12 136q5 14 21.5 20.5t32.5 11.5q24 10 24 32q0 17 -14 29.5t-36 12.5h-250q-17 0 -29.5 -11.5t-12.5 -26.5q0 -14 11 -25q7 -7 44 -22q18 -8 18 -45q0 -14 -2 -35l-20 -208q-15 -154 -15 -160q0 -99 49 -155q76 -87 298 -87
q241 0 284 144q12 42 12 105q0 35 -9 145z" />
    <glyph glyph-name="ehoasac" unicode="&#x103;" horiz-adv-x="660" 
d="M383 53q53 -59 133 -59q43 0 74 20t31 50q0 7 -2 15q-4 16 -14 16q-3 0 -14 -4t-18 -4q-32 0 -59 83l-54 168q-42 129 -108 162q-45 22 -102 22q-41 0 -78.5 -10.5t-80.5 -40.5q-52 -38 -52 -69q0 -27 22 -27q15 0 48 20q40 25 47 28q19 5 36 5q84 0 111 -107
q-154 4 -232 -49q-72 -49 -72 -132q0 -30 12 -58q39 -91 157 -91q110 0 215 62zM335 224q20 -64 20 -79q0 -25 -15 -40q-30 -30 -68 -30q-41 0 -73 31.5t-32 68.5q0 51 60 75q23 6 46 6q52 0 62 -32zM148 692h-4q-1 4 -8 10q-36 0 -38 -2q-5 -5 -5 -15q0 -16 12 -42
q10 -22 18 -30q41 -49 112 -49q76 0 113 55q21 31 21 64q0 12 -5 17q-2 2 -38 2q-6 -1 -12 -17q-21 -51 -81 -51q-34 0 -53 15q-13 10 -32 43z" />
    <glyph glyph-name="ehoahuyen" unicode="&#x102;" horiz-adv-x="920" 
d="M53 2h194q45 0 45 37q0 20 -17 30t-34 19q-9 6 -9 19q0 14 23.5 61t101.5 47h125q43 0 77 -31q36 -34 31 -77q-2 -15 -23 -23q-24 -10 -30 -22t-6 -22q0 -38 62 -38h236q17 0 35 12t18 27q0 11 -10 21q-13 18 -32.5 23t-29.5 16q-19 22 -43 86l-199 543q-9 24 -17 31.5
t-24 7.5q-4 0 -21.5 -1t-31.5 -1t-31 1t-21 1q-15 0 -21.5 -6.5t-17.5 -30.5l-253 -548q-27 -58 -44 -77q-11 -11 -29.5 -14.5t-33.5 -16t-15 -31.5q0 -17 12.5 -30t32.5 -13zM332 355l77 193q6 16 16 16q9 0 15 -16l68 -185q10 -28 -3 -34q-22 -20 -105 -20q-72 0 -72 29
q0 8 4 17zM388 947h-4q-1 4 -8 10q-36 0 -38 -2q-5 -5 -5 -15q0 -16 12 -42q10 -22 18 -30q41 -49 112 -49q76 0 113 55q21 31 21 64q0 12 -5 17q-2 2 -38 2q-6 -1 -12 -17q-21 -51 -81 -51q-34 0 -53 15q-13 10 -32 43z" />
    <glyph glyph-name="ehoahoi" horiz-adv-x="660" 
d="M383 53q53 -59 133 -59q43 0 74 20t31 50q0 7 -2 15q-4 16 -14 16q-3 0 -14 -4t-18 -4q-32 0 -59 83l-54 168q-42 129 -108 162q-45 22 -102 22q-41 0 -78.5 -10.5t-80.5 -40.5q-52 -38 -52 -69q0 -27 22 -27q15 0 48 20q40 25 47 28q19 5 36 5q84 0 111 -107
q-154 4 -232 -49q-72 -49 -72 -132q0 -30 12 -58q39 -91 157 -91q110 0 215 62zM335 224q20 -64 20 -79q0 -25 -15 -40q-30 -30 -68 -30q-41 0 -73 31.5t-32 68.5q0 51 60 75q23 6 46 6q52 0 62 -32zM230 634h-1l60 -48q40 -30 64 -32q23 -2 23 18q0 10 -7 20l-64 82
q-17 21 -70 21q-54 0 -72 -21l-70 -84q-9 -10 -9 -20q0 -16 23 -16q33 0 123 80z" />
    <glyph glyph-name="ehoanga" horiz-adv-x="920" 
d="M53 2h194q45 0 45 37q0 20 -17 30t-34 19q-9 6 -9 19q0 14 23.5 61t101.5 47h125q43 0 77 -31q36 -34 31 -77q-2 -15 -23 -23q-24 -10 -30 -22t-6 -22q0 -38 62 -38h236q17 0 35 12t18 27q0 11 -10 21q-13 18 -32.5 23t-29.5 16q-19 22 -43 86l-199 543q-9 24 -17 31.5
t-24 7.5q-4 0 -21.5 -1t-31.5 -1t-31 1t-21 1q-15 0 -21.5 -6.5t-17.5 -30.5l-253 -548q-27 -58 -44 -77q-11 -11 -29.5 -14.5t-33.5 -16t-15 -31.5q0 -17 12.5 -30t32.5 -13zM332 355l77 193q6 16 16 16q9 0 15 -16l68 -185q10 -28 -3 -34q-22 -20 -105 -20q-72 0 -72 29
q0 8 4 17zM466 886h-1l60 -48q40 -30 64 -32q23 -2 23 18q0 10 -7 20l-64 82q-17 21 -70 21q-54 0 -72 -21l-70 -84q-9 -10 -9 -20q0 -16 23 -16q33 0 123 80z" />
    <glyph glyph-name="ehoanang" horiz-adv-x="580" 
d="M198 204l293 97q31 10 31 25q0 7 -5 20q-28 79 -92 127q-67 50 -150 49q-112 -1 -193 -77t-81 -187q0 -115 83.5 -190.5t201.5 -75.5q67 0 139 29q84 34 111 86q5 9 5 20q0 26 -24 26q-11 0 -63 -32.5t-99 -35.5q-113 -6 -157 119zM178 258q-11 50 -11 90q0 114 88 103
q27 -3 60.5 -40.5t33.5 -67.5q0 -25 -26 -34zM243 633h-1l60 -48q40 -30 64 -32q23 -2 23 18q0 10 -7 20l-64 82q-17 21 -70 21q-54 0 -72 -21l-70 -84q-9 -10 -9 -20q0 -16 23 -16q33 0 123 80z" />
    <glyph glyph-name="ihoasac" horiz-adv-x="800" 
d="M71 2h474q23 0 49 -20.5t36 -20.5q19 0 43 39l88 142q12 19 12 42q0 33 -32 29q-21 -3 -56 -30q-45 -35 -71 -48q-51 -25 -114 -25h-151q-45 0 -62.5 16t-17.5 61v111q0 52 0 50q3 31 23 39t53 8q56 0 92 -18l42 -36q29 -22 51 -22q37 0 37 34q0 17 -11 33l-96 145
q-10 19 -32 19q-9 0 -18 -6t-25 -34q-9 -17 -47 -19q-63 -4 -66 34q0 83 -1 70q3 50 20.5 64t72.5 14q26 0 87 -6q45 -4 86 -25q23 -12 76 -49q30 -21 52 -21q24 0 24 23q0 18 -16 41l-94 136q-17 25 -34 25q-10 0 -35.5 -15t-44.5 -15h-394q-66 0 -66 -45q0 -19 14 -29
q21 -11 42 -21q18 -12 18 -45v-485q0 -33 -17 -44q-22 -11 -43 -22q-15 -11 -15 -30q0 -44 67 -44zM297 888h-1l60 -48q40 -30 64 -32q23 -2 23 18q0 10 -7 20l-64 82q-17 21 -70 21q-54 0 -72 -21l-70 -84q-9 -10 -9 -20q0 -16 23 -16q33 0 123 80z" />
    <glyph glyph-name="ihoahuyen" horiz-adv-x="640" 
d="M0 244q4 -123 92 -190q79 -59 209 -62q119 -2 199 54q90 64 90 178q0 124 -94 212q-92 84 -217 84q-117 0 -198 -78.5t-81 -197.5zM184 218q-24 63 -24 116q0 77 44 107q43 30 97 -3q59 -36 96 -132q25 -66 25 -121q0 -47 -19 -80q-23 -39 -67 -39q-41 0 -80 37
q-44 40 -72 115zM274 638h-1l60 -48q40 -30 64 -32q23 -2 23 18q0 10 -7 20l-64 82q-17 21 -70 21q-54 0 -72 -21l-70 -84q-9 -10 -9 -20q0 -16 23 -16q33 0 123 80z" />
    <glyph glyph-name="ihoahoi" horiz-adv-x="880" 
d="M-8 349q0 -179 123 -272q109 -83 294 -85q179 -2 293 84q126 94 130 267q5 180 -119 308.5t-303 128.5q-172 0 -294 -127.5t-124 -303.5zM221 363q-1 105 43 202q56 120 151 120q99 0 151 -122q39 -92 39 -206q0 -107 -41 -176q-51 -85 -153 -85q-95 0 -147 90
q-42 73 -43 177zM401 887h-1l60 -48q40 -30 64 -32q23 -2 23 18q0 10 -7 20l-64 82q-17 21 -70 21q-54 0 -72 -21l-70 -84q-9 -10 -9 -20q0 -16 23 -16q33 0 123 80z" />
    <glyph glyph-name="ihoanga" horiz-adv-x="660" 
d="M383 53q53 -59 133 -59q43 0 74 20t31 50q0 7 -2 15q-4 16 -14 16q-3 0 -14 -4t-18 -4q-32 0 -59 83l-54 168q-42 129 -108 162q-45 22 -102 22q-41 0 -78.5 -10.5t-80.5 -40.5q-52 -38 -52 -69q0 -27 22 -27q15 0 48 20q40 25 47 28q19 5 36 5q84 0 111 -107
q-154 4 -232 -49q-72 -49 -72 -132q0 -30 12 -58q39 -91 157 -91q110 0 215 62zM335 224q20 -64 20 -79q0 -25 -15 -40q-30 -30 -68 -30q-41 0 -73 31.5t-32 68.5q0 51 60 75q23 6 46 6q52 0 62 -32zM199 561l-1 -1q39 0 51 9l134 102q7 5 7 13q0 12 -16 12h-92
q-8 0 -22 -14l-70 -101q-7 -7 -7 -12q0 -8 16 -8z" />
    <glyph glyph-name="ihoanang" horiz-adv-x="660" 
d="M383 53q53 -59 133 -59q43 0 74 20t31 50q0 7 -2 15q-4 16 -14 16q-3 0 -14 -4t-18 -4q-32 0 -59 83l-54 168q-42 129 -108 162q-45 22 -102 22q-41 0 -78.5 -10.5t-80.5 -40.5q-52 -38 -52 -69q0 -27 22 -27q15 0 48 20q40 25 47 28q19 5 36 5q84 0 111 -107
q-154 4 -232 -49q-72 -49 -72 -132q0 -30 12 -58q39 -91 157 -91q110 0 215 62zM335 224q20 -64 20 -79q0 -25 -15 -40q-30 -30 -68 -30q-41 0 -73 31.5t-32 68.5q0 51 60 75q23 6 46 6q52 0 62 -32zM279 571q11 -9 42 -9q39 0 18 21l-70 101q-12 14 -21 14h-92
q-17 0 -17 -13q0 -7 7 -12z" />
    <glyph glyph-name="ohoasac" unicode="&#x1ea3;" horiz-adv-x="660" 
d="M383 53q53 -59 133 -59q43 0 74 20t31 50q0 7 -2 15q-4 16 -14 16q-3 0 -14 -4t-18 -4q-32 0 -59 83l-54 168q-42 129 -108 162q-45 22 -102 22q-41 0 -78.5 -10.5t-80.5 -40.5q-52 -38 -52 -69q0 -27 22 -27q15 0 48 20q40 25 47 28q19 5 36 5q84 0 111 -107
q-154 4 -232 -49q-72 -49 -72 -132q0 -30 12 -58q39 -91 157 -91q110 0 215 62zM335 224q20 -64 20 -79q0 -25 -15 -40q-30 -30 -68 -30q-41 0 -73 31.5t-32 68.5q0 51 60 75q23 6 46 6q52 0 62 -32zM226 744l6 5q4 4 22 4q8 -3 14 -13l6 -10q4 -9 4 -19q0 -22 -30.5 -60
t-30.5 -53q0 -18 4 -24q6 -9 26 -8q13 1 13 10q5 22 52 47q51 27 51 71q0 33 -29 61t-71 34q-35 0 -70 -12q-48 -16 -48 -44q0 -43 42 -43q41 0 41 43q0 -2 -2 11z" />
    <glyph glyph-name="ohoahuyen" horiz-adv-x="660" 
d="M383 53q53 -59 133 -59q43 0 74 20t31 50q0 7 -2 15q-4 16 -14 16q-3 0 -14 -4t-18 -4q-32 0 -59 83l-54 168q-42 129 -108 162q-45 22 -102 22q-41 0 -78.5 -10.5t-80.5 -40.5q-52 -38 -52 -69q0 -27 22 -27q15 0 48 20q40 25 47 28q19 5 36 5q84 0 111 -107
q-154 4 -232 -49q-72 -49 -72 -132q0 -30 12 -58q39 -91 157 -91q110 0 215 62zM335 224q20 -64 20 -79q0 -25 -15 -40q-30 -30 -68 -30q-41 0 -73 31.5t-32 68.5q0 51 60 75q23 6 46 6q52 0 62 -32zM182 601l-2 1q20 2 61 -16q45 -19 69 -19q47 0 89 53q27 34 27 45
q0 10 -12 17q-6 5 -12 5q-10 0 -24 -15q-17 -19 -24.5 -23.5t-20.5 -4.5q-18 0 -53 13q-23 10 -47 19q-12 2 -22 2q-40 0 -93 -56q-24 -25 -24 -36q0 -8 8 -15t17 -7q11 0 32.5 17.5t30.5 19.5z" />
    <glyph glyph-name="ohoahoi" unicode="&#x1ea1;" horiz-adv-x="660" 
d="M383 53q53 -59 133 -59q43 0 74 20t31 50q0 7 -2 15q-4 16 -14 16q-3 0 -14 -4t-18 -4q-32 0 -59 83l-54 168q-42 129 -108 162q-45 22 -102 22q-41 0 -78.5 -10.5t-80.5 -40.5q-52 -38 -52 -69q0 -27 22 -27q15 0 48 20q40 25 47 28q19 5 36 5q84 0 111 -107
q-154 4 -232 -49q-72 -49 -72 -132q0 -30 12 -58q39 -91 157 -91q110 0 215 62zM335 224q20 -64 20 -79q0 -25 -15 -40q-30 -30 -68 -30q-41 0 -73 31.5t-32 68.5q0 51 60 75q23 6 46 6q52 0 62 -32zM208 -150l-1 -1q11 -23 40 -23q31 0 61 25.5t30 58.5q0 9 -3 18
q-8 25 -36 25q-33 0 -64 -25.5t-31 -58.5q0 -10 4 -19z" />
    <glyph glyph-name="ohoanga" horiz-adv-x="920" 
d="M53 2h194q45 0 45 37q0 20 -17 30t-34 19q-9 6 -9 19q0 14 23.5 61t101.5 47h125q43 0 77 -31q36 -34 31 -77q-2 -15 -23 -23q-24 -10 -30 -22t-6 -22q0 -38 62 -38h236q17 0 35 12t18 27q0 11 -10 21q-13 18 -32.5 23t-29.5 16q-19 22 -43 86l-199 543q-9 24 -17 31.5
t-24 7.5q-4 0 -21.5 -1t-31.5 -1t-31 1t-21 1q-15 0 -21.5 -6.5t-17.5 -30.5l-253 -548q-27 -58 -44 -77q-11 -11 -29.5 -14.5t-33.5 -16t-15 -31.5q0 -17 12.5 -30t32.5 -13zM332 355l77 193q6 16 16 16q9 0 15 -16l68 -185q10 -28 -3 -34q-22 -20 -105 -20q-72 0 -72 29
q0 8 4 17zM396 817l-1 -1q39 0 51 9l134 102q7 5 7 13q0 12 -16 12h-92q-8 0 -22 -14l-70 -101q-7 -7 -7 -12q0 -8 16 -8z" />
    <glyph glyph-name="ohoanang" horiz-adv-x="920" 
d="M53 2h194q45 0 45 37q0 20 -17 30t-34 19q-9 6 -9 19q0 14 23.5 61t101.5 47h125q43 0 77 -31q36 -34 31 -77q-2 -15 -23 -23q-24 -10 -30 -22t-6 -22q0 -38 62 -38h236q17 0 35 12t18 27q0 11 -10 21q-13 18 -32.5 23t-29.5 16q-19 22 -43 86l-199 543q-9 24 -17 31.5
t-24 7.5q-4 0 -21.5 -1t-31.5 -1t-31 1t-21 1q-15 0 -21.5 -6.5t-17.5 -30.5l-253 -548q-27 -58 -44 -77q-11 -11 -29.5 -14.5t-33.5 -16t-15 -31.5q0 -17 12.5 -30t32.5 -13zM332 355l77 193q6 16 16 16q9 0 15 -16l68 -185q10 -28 -3 -34q-22 -20 -105 -20q-72 0 -72 29
q0 8 4 17zM481 817q11 -9 42 -9q39 0 18 21l-70 101q-12 14 -21 14h-92q-17 0 -17 -13q0 -7 7 -12z" />
    <glyph glyph-name="uhoasac" unicode="&#x1ea2;" horiz-adv-x="920" 
d="M53 2h194q45 0 45 37q0 20 -17 30t-34 19q-9 6 -9 19q0 14 23.5 61t101.5 47h125q43 0 77 -31q36 -34 31 -77q-2 -15 -23 -23q-24 -10 -30 -22t-6 -22q0 -38 62 -38h236q17 0 35 12t18 27q0 11 -10 21q-13 18 -32.5 23t-29.5 16q-19 22 -43 86l-199 543q-9 24 -17 31.5
t-24 7.5q-4 0 -21.5 -1t-31.5 -1t-31 1t-21 1q-15 0 -21.5 -6.5t-17.5 -30.5l-253 -548q-27 -58 -44 -77q-11 -11 -29.5 -14.5t-33.5 -16t-15 -31.5q0 -17 12.5 -30t32.5 -13zM332 355l77 193q6 16 16 16q9 0 15 -16l68 -185q10 -28 -3 -34q-22 -20 -105 -20q-72 0 -72 29
q0 8 4 17zM453 990l6 5q4 4 22 4q8 -3 14 -13l6 -10q4 -9 4 -19q0 -22 -30.5 -60t-30.5 -53q0 -18 4 -24q6 -9 26 -8q13 1 13 10q5 22 52 47q51 27 51 71q0 33 -29 61t-71 34q-35 0 -70 -12q-48 -16 -48 -44q0 -43 42 -43q41 0 41 43q0 -2 -2 11z" />
    <glyph glyph-name="uhoahuyen" horiz-adv-x="920" 
d="M53 2h194q45 0 45 37q0 20 -17 30t-34 19q-9 6 -9 19q0 14 23.5 61t101.5 47h125q43 0 77 -31q36 -34 31 -77q-2 -15 -23 -23q-24 -10 -30 -22t-6 -22q0 -38 62 -38h236q17 0 35 12t18 27q0 11 -10 21q-13 18 -32.5 23t-29.5 16q-19 22 -43 86l-199 543q-9 24 -17 31.5
t-24 7.5q-4 0 -21.5 -1t-31.5 -1t-31 1t-21 1q-15 0 -21.5 -6.5t-17.5 -30.5l-253 -548q-27 -58 -44 -77q-11 -11 -29.5 -14.5t-33.5 -16t-15 -31.5q0 -17 12.5 -30t32.5 -13zM332 355l77 193q6 16 16 16q9 0 15 -16l68 -185q10 -28 -3 -34q-22 -20 -105 -20q-72 0 -72 29
q0 8 4 17zM404 847l-2 1q20 2 61 -16q45 -19 69 -19q47 0 89 53q27 34 27 45q0 10 -12 17q-6 5 -12 5q-10 0 -24 -15q-17 -19 -24.5 -23.5t-20.5 -4.5q-18 0 -53 13q-23 10 -47 19q-12 2 -22 2q-40 0 -93 -56q-24 -25 -24 -36q0 -8 8 -15t17 -7q11 0 32.5 17.5t30.5 19.5z
" />
    <glyph glyph-name="uhoahoi" unicode="&#x1ea0;" horiz-adv-x="920" 
d="M53 2h194q45 0 45 37q0 20 -17 30t-34 19q-9 6 -9 19q0 14 23.5 61t101.5 47h125q43 0 77 -31q36 -34 31 -77q-2 -15 -23 -23q-24 -10 -30 -22t-6 -22q0 -38 62 -38h236q17 0 35 12t18 27q0 11 -10 21q-13 18 -32.5 23t-29.5 16q-19 22 -43 86l-199 543q-9 24 -17 31.5
t-24 7.5q-4 0 -21.5 -1t-31.5 -1t-31 1t-21 1q-15 0 -21.5 -6.5t-17.5 -30.5l-253 -548q-27 -58 -44 -77q-11 -11 -29.5 -14.5t-33.5 -16t-15 -31.5q0 -17 12.5 -30t32.5 -13zM332 355l77 193q6 16 16 16q9 0 15 -16l68 -185q10 -28 -3 -34q-22 -20 -105 -20q-72 0 -72 29
q0 8 4 17zM350 -160l-1 -1q11 -23 40 -23q31 0 61 25.5t30 58.5q0 9 -3 18q-8 25 -36 25q-33 0 -64 -25.5t-31 -58.5q0 -10 4 -19z" />
    <glyph glyph-name="uhoanga" horiz-adv-x="580" 
d="M198 204l293 97q31 10 31 25q0 7 -5 20q-28 79 -92 127q-67 50 -150 49q-112 -1 -193 -77t-81 -187q0 -115 83.5 -190.5t201.5 -75.5q67 0 139 29q84 34 111 86q5 9 5 20q0 26 -24 26q-11 0 -63 -32.5t-99 -35.5q-113 -6 -157 119zM178 258q-11 50 -11 90q0 114 88 103
q27 -3 60.5 -40.5t33.5 -67.5q0 -25 -26 -34zM183 567l-1 -1q39 0 51 9l134 102q7 5 7 13q0 12 -16 12h-92q-8 0 -22 -14l-70 -101q-7 -7 -7 -12q0 -8 16 -8z" />
    <glyph glyph-name="uhoanang" horiz-adv-x="580" 
d="M198 204l293 97q31 10 31 25q0 7 -5 20q-28 79 -92 127q-67 50 -150 49q-112 -1 -193 -77t-81 -187q0 -115 83.5 -190.5t201.5 -75.5q67 0 139 29q84 34 111 86q5 9 5 20q0 26 -24 26q-11 0 -63 -32.5t-99 -35.5q-113 -6 -157 119zM178 258q-11 50 -11 90q0 114 88 103
q27 -3 60.5 -40.5t33.5 -67.5q0 -25 -26 -34zM288 572q11 -9 42 -9q39 0 18 21l-70 101q-12 14 -21 14h-92q-17 0 -17 -13q0 -7 7 -12z" />
    <glyph glyph-name="aahoa" unicode="&#x1ebb;" horiz-adv-x="580" 
d="M198 204l293 97q31 10 31 25q0 7 -5 20q-28 79 -92 127q-67 50 -150 49q-112 -1 -193 -77t-81 -187q0 -115 83.5 -190.5t201.5 -75.5q67 0 139 29q84 34 111 86q5 9 5 20q0 26 -24 26q-11 0 -63 -32.5t-99 -35.5q-113 -6 -157 119zM178 258q-11 50 -11 90q0 114 88 103
q27 -3 60.5 -40.5t33.5 -67.5q0 -25 -26 -34zM250 750l6 5q4 4 22 4q8 -3 14 -13l6 -10q4 -9 4 -19q0 -22 -30.5 -60t-30.5 -53q0 -18 4 -24q6 -9 26 -8q13 1 13 10q5 22 52 47q51 27 51 71q0 33 -29 61t-71 34q-35 0 -70 -12q-48 -16 -48 -44q0 -43 42 -43q41 0 41 43
q0 -2 -2 11z" />
    <glyph glyph-name="aahoasac" unicode="&#x1ebd;" horiz-adv-x="580" 
d="M198 204l293 97q31 10 31 25q0 7 -5 20q-28 79 -92 127q-67 50 -150 49q-112 -1 -193 -77t-81 -187q0 -115 83.5 -190.5t201.5 -75.5q67 0 139 29q84 34 111 86q5 9 5 20q0 26 -24 26q-11 0 -63 -32.5t-99 -35.5q-113 -6 -157 119zM178 258q-11 50 -11 90q0 114 88 103
q27 -3 60.5 -40.5t33.5 -67.5q0 -25 -26 -34zM201 602l-2 1q20 2 61 -16q45 -19 69 -19q47 0 89 53q27 34 27 45q0 10 -12 17q-6 5 -12 5q-10 0 -24 -15q-17 -19 -24.5 -23.5t-20.5 -4.5q-18 0 -53 13q-23 10 -47 19q-12 2 -22 2q-40 0 -93 -56q-24 -25 -24 -36q0 -8 8 -15
t17 -7q11 0 32.5 17.5t30.5 19.5z" />
    <glyph glyph-name="aahoahuyen" unicode="&#x1eb9;" horiz-adv-x="580" 
d="M198 204l293 97q31 10 31 25q0 7 -5 20q-28 79 -92 127q-67 50 -150 49q-112 -1 -193 -77t-81 -187q0 -115 83.5 -190.5t201.5 -75.5q67 0 139 29q84 34 111 86q5 9 5 20q0 26 -24 26q-11 0 -63 -32.5t-99 -35.5q-113 -6 -157 119zM178 258q-11 50 -11 90q0 114 88 103
q27 -3 60.5 -40.5t33.5 -67.5q0 -25 -26 -34zM192 -148l-1 -1q11 -23 40 -23q31 0 61 25.5t30 58.5q0 9 -3 18q-8 25 -36 25q-33 0 -64 -25.5t-31 -58.5q0 -10 4 -19z" />
    <glyph glyph-name="aahoahoi" horiz-adv-x="800" 
d="M71 2h474q23 0 49 -20.5t36 -20.5q19 0 43 39l88 142q12 19 12 42q0 33 -32 29q-21 -3 -56 -30q-45 -35 -71 -48q-51 -25 -114 -25h-151q-45 0 -62.5 16t-17.5 61v111q0 52 0 50q3 31 23 39t53 8q56 0 92 -18l42 -36q29 -22 51 -22q37 0 37 34q0 17 -11 33l-96 145
q-10 19 -32 19q-9 0 -18 -6t-25 -34q-9 -17 -47 -19q-63 -4 -66 34q0 83 -1 70q3 50 20.5 64t72.5 14q26 0 87 -6q45 -4 86 -25q23 -12 76 -49q30 -21 52 -21q24 0 24 23q0 18 -16 41l-94 136q-17 25 -34 25q-10 0 -35.5 -15t-44.5 -15h-394q-66 0 -66 -45q0 -19 14 -29
q21 -11 42 -21q18 -12 18 -45v-485q0 -33 -17 -44q-22 -11 -43 -22q-15 -11 -15 -30q0 -44 67 -44zM270 822l-1 -1q39 0 51 9l134 102q7 5 7 13q0 12 -16 12h-92q-8 0 -22 -14l-70 -101q-7 -7 -7 -12q0 -8 16 -8z" />
    <glyph glyph-name="aahoanga" horiz-adv-x="800" 
d="M71 2h474q23 0 49 -20.5t36 -20.5q19 0 43 39l88 142q12 19 12 42q0 33 -32 29q-21 -3 -56 -30q-45 -35 -71 -48q-51 -25 -114 -25h-151q-45 0 -62.5 16t-17.5 61v111q0 52 0 50q3 31 23 39t53 8q56 0 92 -18l42 -36q29 -22 51 -22q37 0 37 34q0 17 -11 33l-96 145
q-10 19 -32 19q-9 0 -18 -6t-25 -34q-9 -17 -47 -19q-63 -4 -66 34q0 83 -1 70q3 50 20.5 64t72.5 14q26 0 87 -6q45 -4 86 -25q23 -12 76 -49q30 -21 52 -21q24 0 24 23q0 18 -16 41l-94 136q-17 25 -34 25q-10 0 -35.5 -15t-44.5 -15h-394q-66 0 -66 -45q0 -19 14 -29
q21 -11 42 -21q18 -12 18 -45v-485q0 -33 -17 -44q-22 -11 -43 -22q-15 -11 -15 -30q0 -44 67 -44zM340 817q11 -9 42 -9q39 0 18 21l-70 101q-12 14 -21 14h-92q-17 0 -17 -13q0 -7 7 -12z" />
    <glyph glyph-name="aahoanang" unicode="&#x1eba;" horiz-adv-x="800" 
d="M71 2h474q23 0 49 -20.5t36 -20.5q19 0 43 39l88 142q12 19 12 42q0 33 -32 29q-21 -3 -56 -30q-45 -35 -71 -48q-51 -25 -114 -25h-151q-45 0 -62.5 16t-17.5 61v111q0 52 0 50q3 31 23 39t53 8q56 0 92 -18l42 -36q29 -22 51 -22q37 0 37 34q0 17 -11 33l-96 145
q-10 19 -32 19q-9 0 -18 -6t-25 -34q-9 -17 -47 -19q-63 -4 -66 34q0 83 -1 70q3 50 20.5 64t72.5 14q26 0 87 -6q45 -4 86 -25q23 -12 76 -49q30 -21 52 -21q24 0 24 23q0 18 -16 41l-94 136q-17 25 -34 25q-10 0 -35.5 -15t-44.5 -15h-394q-66 0 -66 -45q0 -19 14 -29
q21 -11 42 -21q18 -12 18 -45v-485q0 -33 -17 -44q-22 -11 -43 -22q-15 -11 -15 -30q0 -44 67 -44zM297 995l6 5q4 4 22 4q8 -3 14 -13l6 -10q4 -9 4 -19q0 -22 -30.5 -60t-30.5 -53q0 -18 4 -24q6 -9 26 -8q13 1 13 10q5 22 52 47q51 27 51 71q0 33 -29 61t-71 34
q-35 0 -70 -12q-48 -16 -48 -44q0 -43 42 -43q41 0 41 43q0 -2 -2 11z" />
    <glyph glyph-name="abhoa" unicode="&#x1ebc;" horiz-adv-x="800" 
d="M71 2h474q23 0 49 -20.5t36 -20.5q19 0 43 39l88 142q12 19 12 42q0 33 -32 29q-21 -3 -56 -30q-45 -35 -71 -48q-51 -25 -114 -25h-151q-45 0 -62.5 16t-17.5 61v111q0 52 0 50q3 31 23 39t53 8q56 0 92 -18l42 -36q29 -22 51 -22q37 0 37 34q0 17 -11 33l-96 145
q-10 19 -32 19q-9 0 -18 -6t-25 -34q-9 -17 -47 -19q-63 -4 -66 34q0 83 -1 70q3 50 20.5 64t72.5 14q26 0 87 -6q45 -4 86 -25q23 -12 76 -49q30 -21 52 -21q24 0 24 23q0 18 -16 41l-94 136q-17 25 -34 25q-10 0 -35.5 -15t-44.5 -15h-394q-66 0 -66 -45q0 -19 14 -29
q21 -11 42 -21q18 -12 18 -45v-485q0 -33 -17 -44q-22 -11 -43 -22q-15 -11 -15 -30q0 -44 67 -44zM248 857l-2 1q20 2 61 -16q45 -19 69 -19q47 0 89 53q27 34 27 45q0 10 -12 17q-6 5 -12 5q-10 0 -24 -15q-17 -19 -24.5 -23.5t-20.5 -4.5q-18 0 -53 13q-23 10 -47 19
q-12 2 -22 2q-40 0 -93 -56q-24 -25 -24 -36q0 -8 8 -15t17 -7q11 0 32.5 17.5t30.5 19.5z" />
    <glyph glyph-name="abhoahuyen" unicode="&#x1eb8;" horiz-adv-x="800" 
d="M71 2h474q23 0 49 -20.5t36 -20.5q19 0 43 39l88 142q12 19 12 42q0 33 -32 29q-21 -3 -56 -30q-45 -35 -71 -48q-51 -25 -114 -25h-151q-45 0 -62.5 16t-17.5 61v111q0 52 0 50q3 31 23 39t53 8q56 0 92 -18l42 -36q29 -22 51 -22q37 0 37 34q0 17 -11 33l-96 145
q-10 19 -32 19q-9 0 -18 -6t-25 -34q-9 -17 -47 -19q-63 -4 -66 34q0 83 -1 70q3 50 20.5 64t72.5 14q26 0 87 -6q45 -4 86 -25q23 -12 76 -49q30 -21 52 -21q24 0 24 23q0 18 -16 41l-94 136q-17 25 -34 25q-10 0 -35.5 -15t-44.5 -15h-394q-66 0 -66 -45q0 -19 14 -29
q21 -11 42 -21q18 -12 18 -45v-485q0 -33 -17 -44q-22 -11 -43 -22q-15 -11 -15 -30q0 -44 67 -44zM259 -155l-1 -1q11 -23 40 -23q31 0 61 25.5t30 58.5q0 9 -3 18q-8 25 -36 25q-33 0 -64 -25.5t-31 -58.5q0 -10 4 -19z" />
    <glyph glyph-name="abhoahoi" horiz-adv-x="640" 
d="M0 244q4 -123 92 -190q79 -59 209 -62q119 -2 199 54q90 64 90 178q0 124 -94 212q-92 84 -217 84q-117 0 -198 -78.5t-81 -197.5zM184 218q-24 63 -24 116q0 77 44 107q43 30 97 -3q59 -36 96 -132q25 -66 25 -121q0 -47 -19 -80q-23 -39 -67 -39q-41 0 -80 37
q-44 40 -72 115zM185 569l-1 -1q39 0 51 9l134 102q7 5 7 13q0 12 -16 12h-92q-8 0 -22 -14l-70 -101q-7 -7 -7 -12q0 -8 16 -8z" />
    <glyph glyph-name="abhoanga" horiz-adv-x="640" 
d="M0 244q4 -123 92 -190q79 -59 209 -62q119 -2 199 54q90 64 90 178q0 124 -94 212q-92 84 -217 84q-117 0 -198 -78.5t-81 -197.5zM184 218q-24 63 -24 116q0 77 44 107q43 30 97 -3q59 -36 96 -132q25 -66 25 -121q0 -47 -19 -80q-23 -39 -67 -39q-41 0 -80 37
q-44 40 -72 115zM340 569q11 -9 42 -9q39 0 18 21l-70 101q-12 14 -21 14h-92q-17 0 -17 -13q0 -7 7 -12z" />
    <glyph glyph-name="abhoanang" unicode="&#x1ecf;" horiz-adv-x="640" 
d="M0 244q4 -123 92 -190q79 -59 209 -62q119 -2 199 54q90 64 90 178q0 124 -94 212q-92 84 -217 84q-117 0 -198 -78.5t-81 -197.5zM184 218q-24 63 -24 116q0 77 44 107q43 30 97 -3q59 -36 96 -132q25 -66 25 -121q0 -47 -19 -80q-23 -39 -67 -39q-41 0 -80 37
q-44 40 -72 115zM272 737l6 5q4 4 22 4q8 -3 14 -13l6 -10q4 -9 4 -19q0 -22 -30.5 -60t-30.5 -53q0 -18 4 -24q6 -9 26 -8q13 1 13 10q5 22 52 47q51 27 51 71q0 33 -29 61t-71 34q-35 0 -70 -12q-48 -16 -48 -44q0 -43 42 -43q41 0 41 43q0 -2 -2 11z" />
    <glyph glyph-name="ebhoa" horiz-adv-x="640" 
d="M0 244q4 -123 92 -190q79 -59 209 -62q119 -2 199 54q90 64 90 178q0 124 -94 212q-92 84 -217 84q-117 0 -198 -78.5t-81 -197.5zM184 218q-24 63 -24 116q0 77 44 107q43 30 97 -3q59 -36 96 -132q25 -66 25 -121q0 -47 -19 -80q-23 -39 -67 -39q-41 0 -80 37
q-44 40 -72 115zM193 614l-2 1q20 2 61 -16q45 -19 69 -19q47 0 89 53q27 34 27 45q0 10 -12 17q-6 5 -12 5q-10 0 -24 -15q-17 -19 -24.5 -23.5t-20.5 -4.5q-18 0 -53 13q-23 10 -47 19q-12 2 -22 2q-40 0 -93 -56q-24 -25 -24 -36q0 -8 8 -15t17 -7q11 0 32.5 17.5
t30.5 19.5z" />
    <glyph glyph-name="ebhoasac" unicode="&#x1ecd;" horiz-adv-x="640" 
d="M0 244q4 -123 92 -190q79 -59 209 -62q119 -2 199 54q90 64 90 178q0 124 -94 212q-92 84 -217 84q-117 0 -198 -78.5t-81 -197.5zM184 218q-24 63 -24 116q0 77 44 107q43 30 97 -3q59 -36 96 -132q25 -66 25 -121q0 -47 -19 -80q-23 -39 -67 -39q-41 0 -80 37
q-44 40 -72 115zM224 -148l-1 -1q11 -23 40 -23q31 0 61 25.5t30 58.5q0 9 -3 18q-8 25 -36 25q-33 0 -64 -25.5t-31 -58.5q0 -10 4 -19z" />
    <glyph glyph-name="ebhoahuyen" horiz-adv-x="880" 
d="M-8 349q0 -179 123 -272q109 -83 294 -85q179 -2 293 84q126 94 130 267q5 180 -119 308.5t-303 128.5q-172 0 -294 -127.5t-124 -303.5zM221 363q-1 105 43 202q56 120 151 120q99 0 151 -122q39 -92 39 -206q0 -107 -41 -176q-51 -85 -153 -85q-95 0 -147 90
q-42 73 -43 177zM302 828l-1 -1q39 0 51 9l134 102q7 5 7 13q0 12 -16 12h-92q-8 0 -22 -14l-70 -101q-7 -7 -7 -12q0 -8 16 -8z" />
    <glyph glyph-name="ebhoahoi" horiz-adv-x="880" 
d="M-8 349q0 -179 123 -272q109 -83 294 -85q179 -2 293 84q126 94 130 267q5 180 -119 308.5t-303 128.5q-172 0 -294 -127.5t-124 -303.5zM221 363q-1 105 43 202q56 120 151 120q99 0 151 -122q39 -92 39 -206q0 -107 -41 -176q-51 -85 -153 -85q-95 0 -147 90
q-42 73 -43 177zM457 828q11 -9 42 -9q39 0 18 21l-70 101q-12 14 -21 14h-92q-17 0 -17 -13q0 -7 7 -12z" />
    <glyph glyph-name="ebhoanga" unicode="&#x1ece;" horiz-adv-x="880" 
d="M-8 349q0 -179 123 -272q109 -83 294 -85q179 -2 293 84q126 94 130 267q5 180 -119 308.5t-303 128.5q-172 0 -294 -127.5t-124 -303.5zM221 363q-1 105 43 202q56 120 151 120q99 0 151 -122q39 -92 39 -206q0 -107 -41 -176q-51 -85 -153 -85q-95 0 -147 90
q-42 73 -43 177zM404 1006l6 5q4 4 22 4q8 -3 14 -13l6 -10q4 -9 4 -19q0 -22 -30.5 -60t-30.5 -53q0 -18 4 -24q6 -9 26 -8q13 1 13 10q5 22 52 47q51 27 51 71q0 33 -29 61t-71 34q-35 0 -70 -12q-48 -16 -48 -44q0 -43 42 -43q41 0 41 43q0 -2 -2 11z" />
    <glyph glyph-name="ebhoanang" horiz-adv-x="880" 
d="M-8 349q0 -179 123 -272q109 -83 294 -85q179 -2 293 84q126 94 130 267q5 180 -119 308.5t-303 128.5q-172 0 -294 -127.5t-124 -303.5zM221 363q-1 105 43 202q56 120 151 120q99 0 151 -122q39 -92 39 -206q0 -107 -41 -176q-51 -85 -153 -85q-95 0 -147 90
q-42 73 -43 177zM330 868l-2 1q20 2 61 -16q45 -19 69 -19q47 0 89 53q27 34 27 45q0 10 -12 17q-6 5 -12 5q-10 0 -24 -15q-17 -19 -24.5 -23.5t-20.5 -4.5q-18 0 -53 13q-23 10 -47 19q-12 2 -22 2q-40 0 -93 -56q-24 -25 -24 -36q0 -8 8 -15t17 -7q11 0 32.5 17.5
t30.5 19.5z" />
    <glyph glyph-name="obhoa" unicode="&#x1ecc;" horiz-adv-x="880" 
d="M-8 349q0 -179 123 -272q109 -83 294 -85q179 -2 293 84q126 94 130 267q5 180 -119 308.5t-303 128.5q-172 0 -294 -127.5t-124 -303.5zM221 363q-1 105 43 202q56 120 151 120q99 0 151 -122q39 -92 39 -206q0 -107 -41 -176q-51 -85 -153 -85q-95 0 -147 90
q-42 73 -43 177zM336 -153l-1 -1q11 -23 40 -23q31 0 61 25.5t30 58.5q0 9 -3 18q-8 25 -36 25q-33 0 -64 -25.5t-31 -58.5q0 -10 4 -19z" />
    <glyph glyph-name="obhoasac" horiz-adv-x="340" 
d="M71 355v-219q0 -32 -15 -46q-20 -14 -39 -28q-10 -9 -10 -21q0 -15 12.5 -27t28.5 -12h202q14 0 27 11t13 26q0 11 -9 20q-20 14 -38.5 28t-18.5 49v349q0 33 -18 33q-8 0 -30 -7l-120 -51q-42 -18 -42 -39q0 -10 11 -18q16 -8 33 -17q13 -7 13 -31zM79 571l-1 -1
q39 0 51 9l134 102q7 5 7 13q0 12 -16 12h-92q-8 0 -22 -14l-70 -101q-7 -7 -7 -12q0 -8 16 -8z" />
    <glyph glyph-name="obhoahuyen" horiz-adv-x="340" 
d="M71 355v-219q0 -32 -15 -46q-20 -14 -39 -28q-10 -9 -10 -21q0 -15 12.5 -27t28.5 -12h202q14 0 27 11t13 26q0 11 -9 20q-20 14 -38.5 28t-18.5 49v349q0 33 -18 33q-8 0 -30 -7l-120 -51q-42 -18 -42 -39q0 -10 11 -18q16 -8 33 -17q13 -7 13 -31zM184 581q11 -9 42 -9
q39 0 18 21l-70 101q-12 14 -21 14h-92q-17 0 -17 -13q0 -7 7 -12z" />
    <glyph glyph-name="obhoahoi" unicode="&#x1ec9;" horiz-adv-x="340" 
d="M71 355v-219q0 -32 -15 -46q-20 -14 -39 -28q-10 -9 -10 -21q0 -15 12.5 -27t28.5 -12h202q14 0 27 11t13 26q0 11 -9 20q-20 14 -38.5 28t-18.5 49v349q0 33 -18 33q-8 0 -30 -7l-120 -51q-42 -18 -42 -39q0 -10 11 -18q16 -8 33 -17q13 -7 13 -31zM126 759l6 5
q4 4 22 4q8 -3 14 -13l6 -10q4 -9 4 -19q0 -22 -30.5 -60t-30.5 -53q0 -18 4 -24q6 -9 26 -8q13 1 13 10q5 22 52 47q51 27 51 71q0 33 -29 61t-71 34q-35 0 -70 -12q-48 -16 -48 -44q0 -43 42 -43q41 0 41 43q0 -2 -2 11z" />
    <glyph glyph-name="obhoanga" unicode="&#x129;" horiz-adv-x="340" 
d="M71 355v-219q0 -32 -15 -46q-20 -14 -39 -28q-10 -9 -10 -21q0 -15 12.5 -27t28.5 -12h202q14 0 27 11t13 26q0 11 -9 20q-20 14 -38.5 28t-18.5 49v349q0 33 -18 33q-8 0 -30 -7l-120 -51q-42 -18 -42 -39q0 -10 11 -18q16 -8 33 -17q13 -7 13 -31zM77 611l-2 1
q20 2 61 -16q45 -19 69 -19q47 0 89 53q27 34 27 45q0 10 -12 17q-6 5 -12 5q-10 0 -24 -15q-17 -19 -24.5 -23.5t-20.5 -4.5q-18 0 -53 13q-23 10 -47 19q-12 2 -22 2q-40 0 -93 -56q-24 -25 -24 -36q0 -8 8 -15t17 -7q11 0 32.5 17.5t30.5 19.5z" />
    <glyph glyph-name="obhoanang" unicode="&#x1ecb;" horiz-adv-x="340" 
d="M71 355v-219q0 -32 -15 -46q-20 -14 -39 -28q-10 -9 -10 -21q0 -15 12.5 -27t28.5 -12h202q14 0 27 11t13 26q0 11 -9 20q-20 14 -38.5 28t-18.5 49v349q0 33 -18 33q-8 0 -30 -7l-120 -51q-42 -18 -42 -39q0 -10 11 -18q16 -8 33 -17q13 -7 13 -31zM82 608l-1 -1
q11 -23 40 -23q31 0 61 25.5t30 58.5q0 9 -3 18q-8 25 -36 25q-33 0 -64 -25.5t-31 -58.5q0 -10 4 -19zM78 -156l-1 -1q11 -23 40 -23q31 0 61 25.5t30 58.5q0 9 -3 18q-8 25 -36 25q-33 0 -64 -25.5t-31 -58.5q0 -10 4 -19z" />
    <glyph glyph-name="ochoa" horiz-adv-x="420" 
d="M62 2h216q50 0 60 29q15 21 -6 42q-11 11 -30.5 18.5t-24.5 13.5q-10 11 -10 39v483q0 27 10 38q6 7 25 14t29.5 18.5t10.5 24.5q0 19 -20 32t-44 13h-216q-63 0 -63 -43q0 -20 15 -31q21 -11 40 -22t19 -44v-483q0 -34 -19 -45.5t-40 -22.5q-15 -12 -15 -31
q0 -43 63 -43zM94 817l-1 -1q39 0 51 9l134 102q7 5 7 13q0 12 -16 12h-92q-8 0 -22 -14l-70 -101q-7 -7 -7 -12q0 -8 16 -8z" />
    <glyph glyph-name="ochoasac" horiz-adv-x="420" 
d="M62 2h216q50 0 60 29q15 21 -6 42q-11 11 -30.5 18.5t-24.5 13.5q-10 11 -10 39v483q0 27 10 38q6 7 25 14t29.5 18.5t10.5 24.5q0 19 -20 32t-44 13h-216q-63 0 -63 -43q0 -20 15 -31q21 -11 40 -22t19 -44v-483q0 -34 -19 -45.5t-40 -22.5q-15 -12 -15 -31
q0 -43 63 -43zM189 817q11 -9 42 -9q39 0 18 21l-70 101q-12 14 -21 14h-92q-17 0 -17 -13q0 -7 7 -12z" />
    <glyph glyph-name="ochoahuyen" unicode="&#x1ec8;" horiz-adv-x="420" 
d="M62 2h216q50 0 60 29q15 21 -6 42q-11 11 -30.5 18.5t-24.5 13.5q-10 11 -10 39v483q0 27 10 38q6 7 25 14t29.5 18.5t10.5 24.5q0 19 -20 32t-44 13h-216q-63 0 -63 -43q0 -20 15 -31q21 -11 40 -22t19 -44v-483q0 -34 -19 -45.5t-40 -22.5q-15 -12 -15 -31
q0 -43 63 -43zM166 1000l6 5q4 4 22 4q8 -3 14 -13l6 -10q4 -9 4 -19q0 -22 -30.5 -60t-30.5 -53q0 -18 4 -24q6 -9 26 -8q13 1 13 10q5 22 52 47q51 27 51 71q0 33 -29 61t-71 34q-35 0 -70 -12q-48 -16 -48 -44q0 -43 42 -43q41 0 41 43q0 -2 -2 11z" />
    <glyph glyph-name="ochoahoi" unicode="&#x128;" horiz-adv-x="420" 
d="M62 2h216q50 0 60 29q15 21 -6 42q-11 11 -30.5 18.5t-24.5 13.5q-10 11 -10 39v483q0 27 10 38q6 7 25 14t29.5 18.5t10.5 24.5q0 19 -20 32t-44 13h-216q-63 0 -63 -43q0 -20 15 -31q21 -11 40 -22t19 -44v-483q0 -34 -19 -45.5t-40 -22.5q-15 -12 -15 -31
q0 -43 63 -43zM92 862l-2 1q20 2 61 -16q45 -19 69 -19q47 0 89 53q27 34 27 45q0 10 -12 17q-6 5 -12 5q-10 0 -24 -15q-17 -19 -24.5 -23.5t-20.5 -4.5q-18 0 -53 13q-23 10 -47 19q-12 2 -22 2q-40 0 -93 -56q-24 -25 -24 -36q0 -8 8 -15t17 -7q11 0 32.5 17.5t30.5 19.5
z" />
    <glyph glyph-name="ochoanga" unicode="&#x1eca;" horiz-adv-x="420" 
d="M62 2h216q50 0 60 29q15 21 -6 42q-11 11 -30.5 18.5t-24.5 13.5q-10 11 -10 39v483q0 27 10 38q6 7 25 14t29.5 18.5t10.5 24.5q0 19 -20 32t-44 13h-216q-63 0 -63 -43q0 -20 15 -31q21 -11 40 -22t19 -44v-483q0 -34 -19 -45.5t-40 -22.5q-15 -12 -15 -31
q0 -43 63 -43zM108 -155l-1 -1q11 -23 40 -23q31 0 61 25.5t30 58.5q0 9 -3 18q-8 25 -36 25q-33 0 -64 -25.5t-31 -58.5q0 -10 4 -19z" />
    <glyph glyph-name="ochoanang" horiz-adv-x="620" 
d="M147 517l-102 -46q-15 -5 -29.5 -18t-14.5 -26q0 -10 10 -18l36 -20q11 -8 12 -43q0 -17 -1 -56q-1 -44 -1 -66q0 -179 76 -219q30 -16 63 -16q78 0 167 82q0 -7 -1 -19v-16q0 -34 35 -34h142q40 0 40 35q0 8 -3.5 17.5t-34.5 27.5q-24 15 -24 54v355q0 34 -20 34
q-10 0 -29 -8l-119 -52q-45 -20 -45 -44q0 -10 11 -18q17 -9 35 -17q13 -8 13 -34v-137q0 -38 -23 -71q-26 -35 -61 -35q-14 0 -29 7q-30 14 -38 80q-2 22 -2 96v185q0 48 -32 48q-13 0 -31 -8zM273 577l-1 -1q39 0 51 9l134 102q7 5 7 13q0 12 -16 12h-92q-8 0 -22 -14
l-70 -101q-7 -7 -7 -12q0 -8 16 -8z" />
    <glyph glyph-name="uchoa" horiz-adv-x="620" 
d="M147 517l-102 -46q-15 -5 -29.5 -18t-14.5 -26q0 -10 10 -18l36 -20q11 -8 12 -43q0 -17 -1 -56q-1 -44 -1 -66q0 -179 76 -219q30 -16 63 -16q78 0 167 82q0 -7 -1 -19v-16q0 -34 35 -34h142q40 0 40 35q0 8 -3.5 17.5t-34.5 27.5q-24 15 -24 54v355q0 34 -20 34
q-10 0 -29 -8l-119 -52q-45 -20 -45 -44q0 -10 11 -18q17 -9 35 -17q13 -8 13 -34v-137q0 -38 -23 -71q-26 -35 -61 -35q-14 0 -29 7q-30 14 -38 80q-2 22 -2 96v185q0 48 -32 48q-13 0 -31 -8zM333 567q11 -9 42 -9q39 0 18 21l-70 101q-12 14 -21 14h-92q-17 0 -17 -13
q0 -7 7 -12z" />
    <glyph glyph-name="uchoasac" unicode="&#x1ee7;" horiz-adv-x="620" 
d="M147 517l-102 -46q-15 -5 -29.5 -18t-14.5 -26q0 -10 10 -18l36 -20q11 -8 12 -43q0 -17 -1 -56q-1 -44 -1 -66q0 -179 76 -219q30 -16 63 -16q78 0 167 82q0 -7 -1 -19v-16q0 -34 35 -34h142q40 0 40 35q0 8 -3.5 17.5t-34.5 27.5q-24 15 -24 54v355q0 34 -20 34
q-10 0 -29 -8l-119 -52q-45 -20 -45 -44q0 -10 11 -18q17 -9 35 -17q13 -8 13 -34v-137q0 -38 -23 -71q-26 -35 -61 -35q-14 0 -29 7q-30 14 -38 80q-2 22 -2 96v185q0 48 -32 48q-13 0 -31 -8zM295 750l6 5q4 4 22 4q8 -3 14 -13l6 -10q4 -9 4 -19q0 -22 -30.5 -60
t-30.5 -53q0 -18 4 -24q6 -9 26 -8q13 1 13 10q5 22 52 47q51 27 51 71q0 33 -29 61t-71 34q-35 0 -70 -12q-48 -16 -48 -44q0 -43 42 -43q41 0 41 43q0 -2 -2 11z" />
    <glyph glyph-name="uchoahuyen" unicode="&#x169;" horiz-adv-x="620" 
d="M147 517l-102 -46q-15 -5 -29.5 -18t-14.5 -26q0 -10 10 -18l36 -20q11 -8 12 -43q0 -17 -1 -56q-1 -44 -1 -66q0 -179 76 -219q30 -16 63 -16q78 0 167 82q0 -7 -1 -19v-16q0 -34 35 -34h142q40 0 40 35q0 8 -3.5 17.5t-34.5 27.5q-24 15 -24 54v355q0 34 -20 34
q-10 0 -29 -8l-119 -52q-45 -20 -45 -44q0 -10 11 -18q17 -9 35 -17q13 -8 13 -34v-137q0 -38 -23 -71q-26 -35 -61 -35q-14 0 -29 7q-30 14 -38 80q-2 22 -2 96v185q0 48 -32 48q-13 0 -31 -8zM246 607l-2 1q20 2 61 -16q45 -19 69 -19q47 0 89 53q27 34 27 45q0 10 -12 17
q-6 5 -12 5q-10 0 -24 -15q-17 -19 -24.5 -23.5t-20.5 -4.5q-18 0 -53 13q-23 10 -47 19q-12 2 -22 2q-40 0 -93 -56q-24 -25 -24 -36q0 -8 8 -15t17 -7q11 0 32.5 17.5t30.5 19.5z" />
    <glyph glyph-name="uchoahoi" unicode="&#x1ee5;" horiz-adv-x="620" 
d="M147 517l-102 -46q-15 -5 -29.5 -18t-14.5 -26q0 -10 10 -18l36 -20q11 -8 12 -43q0 -17 -1 -56q-1 -44 -1 -66q0 -179 76 -219q30 -16 63 -16q78 0 167 82q0 -7 -1 -19v-16q0 -34 35 -34h142q40 0 40 35q0 8 -3.5 17.5t-34.5 27.5q-24 15 -24 54v355q0 34 -20 34
q-10 0 -29 -8l-119 -52q-45 -20 -45 -44q0 -10 11 -18q17 -9 35 -17q13 -8 13 -34v-137q0 -38 -23 -71q-26 -35 -61 -35q-14 0 -29 7q-30 14 -38 80q-2 22 -2 96v185q0 48 -32 48q-13 0 -31 -8zM227 -150l-1 -1q11 -23 40 -23q31 0 61 25.5t30 58.5q0 9 -3 18q-8 25 -36 25
q-33 0 -64 -25.5t-31 -58.5q0 -10 4 -19z" />
    <glyph glyph-name="uchoanga" horiz-adv-x="770" 
d="M295 767h-250q-18 0 -30 -11.5t-12 -26.5q0 -14 11 -25q7 -7 43 -22q18 -8 18 -44q0 -15 -2 -36l-22 -208q-13 -127 -13 -151q0 -105 50 -164q74 -87 298 -87q239 0 284 144q12 40 12 102q0 15 -9 148l-17 239q-3 41 13 52q23 14 46 27q13 10 13 26q0 37 -47 37h-173
q-39 0 -39 -34q0 -21 22 -35q42 -16 53 -65q2 -8 7 -94l14 -221q6 -95 -9 -137q-30 -84 -156 -88q-164 -5 -164 169q0 20 2 44l17 219l2 68q2 43 10 68q4 14 22 21q14 6 29 11q26 10 26 33q0 16 -13.5 28.5t-35.5 12.5zM362 817l-1 -1q39 0 51 9l134 102q7 5 7 13
q0 12 -16 12h-92q-8 0 -22 -14l-70 -101q-7 -7 -7 -12q0 -8 16 -8z" />
    <glyph glyph-name="uchoanang" horiz-adv-x="770" 
d="M295 767h-250q-18 0 -30 -11.5t-12 -26.5q0 -14 11 -25q7 -7 43 -22q18 -8 18 -44q0 -15 -2 -36l-22 -208q-13 -127 -13 -151q0 -105 50 -164q74 -87 298 -87q239 0 284 144q12 40 12 102q0 15 -9 148l-17 239q-3 41 13 52q23 14 46 27q13 10 13 26q0 37 -47 37h-173
q-39 0 -39 -34q0 -21 22 -35q42 -16 53 -65q2 -8 7 -94l14 -221q6 -95 -9 -137q-30 -84 -156 -88q-164 -5 -164 169q0 20 2 44l17 219l2 68q2 43 10 68q4 14 22 21q14 6 29 11q26 10 26 33q0 16 -13.5 28.5t-35.5 12.5zM402 817q11 -9 42 -9q39 0 18 21l-70 101
q-12 14 -21 14h-92q-17 0 -17 -13q0 -7 7 -12z" />
    <glyph glyph-name="dth" unicode="&#x1ee6;" horiz-adv-x="770" 
d="M295 767h-250q-18 0 -30 -11.5t-12 -26.5q0 -14 11 -25q7 -7 43 -22q18 -8 18 -44q0 -15 -2 -36l-22 -208q-13 -127 -13 -151q0 -105 50 -164q74 -87 298 -87q239 0 284 144q12 40 12 102q0 15 -9 148l-17 239q-3 41 13 52q23 14 46 27q13 10 13 26q0 37 -47 37h-173
q-39 0 -39 -34q0 -21 22 -35q42 -16 53 -65q2 -8 7 -94l14 -221q6 -95 -9 -137q-30 -84 -156 -88q-164 -5 -164 169q0 20 2 44l17 219l2 68q2 43 10 68q4 14 22 21q14 6 29 11q26 10 26 33q0 16 -13.5 28.5t-35.5 12.5zM384 995l6 5q4 4 22 4q8 -3 14 -13l6 -10q4 -9 4 -19
q0 -22 -30.5 -60t-30.5 -53q0 -18 4 -24q6 -9 26 -8q13 1 13 10q5 22 52 47q51 27 51 71q0 33 -29 61t-71 34q-35 0 -70 -12q-48 -16 -48 -44q0 -43 42 -43q41 0 41 43q0 -2 -2 11z" />
    <glyph glyph-name="athsac" unicode="&#x168;" horiz-adv-x="770" 
d="M295 767h-250q-18 0 -30 -11.5t-12 -26.5q0 -14 11 -25q7 -7 43 -22q18 -8 18 -44q0 -15 -2 -36l-22 -208q-13 -127 -13 -151q0 -105 50 -164q74 -87 298 -87q239 0 284 144q12 40 12 102q0 15 -9 148l-17 239q-3 41 13 52q23 14 46 27q13 10 13 26q0 37 -47 37h-173
q-39 0 -39 -34q0 -21 22 -35q42 -16 53 -65q2 -8 7 -94l14 -221q6 -95 -9 -137q-30 -84 -156 -88q-164 -5 -164 169q0 20 2 44l17 219l2 68q2 43 10 68q4 14 22 21q14 6 29 11q26 10 26 33q0 16 -13.5 28.5t-35.5 12.5zM330 852l-2 1q20 2 61 -16q45 -19 69 -19q47 0 89 53
q27 34 27 45q0 10 -12 17q-6 5 -12 5q-10 0 -24 -15q-17 -19 -24.5 -23.5t-20.5 -4.5q-18 0 -53 13q-23 10 -47 19q-12 2 -22 2q-40 0 -93 -56q-24 -25 -24 -36q0 -8 8 -15t17 -7q11 0 32.5 17.5t30.5 19.5z" />
    <glyph glyph-name="athhuyen" unicode="&#x1ee4;" horiz-adv-x="770" 
d="M295 767h-250q-18 0 -30 -11.5t-12 -26.5q0 -14 11 -25q7 -7 43 -22q18 -8 18 -44q0 -15 -2 -36l-22 -208q-13 -127 -13 -151q0 -105 50 -164q74 -87 298 -87q239 0 284 144q12 40 12 102q0 15 -9 148l-17 239q-3 41 13 52q23 14 46 27q13 10 13 26q0 37 -47 37h-173
q-39 0 -39 -34q0 -21 22 -35q42 -16 53 -65q2 -8 7 -94l14 -221q6 -95 -9 -137q-30 -84 -156 -88q-164 -5 -164 169q0 20 2 44l17 219l2 68q2 43 10 68q4 14 22 21q14 6 29 11q26 10 26 33q0 16 -13.5 28.5t-35.5 12.5zM321 -153l-1 -1q11 -23 40 -23q31 0 61 25.5t30 58.5
q0 9 -3 18q-8 25 -36 25q-33 0 -64 -25.5t-31 -58.5q0 -10 4 -19z" />
    <glyph glyph-name="athhoi" horiz-adv-x="610" 
d="M235 25q-37 -66 -91 -61q-22 2 -39 21q-13 19 -26 37q-11 15 -26 15q-29 0 -29 -31q0 -4 1 -8l26 -111q4 -16 5 -19q4 -10 12 -15q34 -19 68 -19q64 0 126 68q48 51 84 129l168 363q13 28 38 44.5t27.5 22t2.5 12.5q0 13 -10 24t-24 11h-137q-18 0 -35 -8.5t-17 -22.5
q0 -9 10 -20q14 -12 27 -23.5t13 -24.5q0 -9 -6 -23l-80 -185l-82 185q-9 20 -9 30t12 18q24 17 28 20q13 12 13 23q0 13 -14 22t-33 9h-185q-26 0 -41.5 -10.5t-15.5 -25.5q0 -11 8.5 -20.5t39.5 -24.5q20 -10 38 -52zM299 553l-1 -1q39 0 51 9l134 102q7 5 7 13
q0 12 -16 12h-92q-8 0 -22 -14l-70 -101q-7 -7 -7 -12q0 -8 16 -8z" />
    <glyph glyph-name="athnga" unicode="&#x1ef3;" horiz-adv-x="610" 
d="M235 25q-37 -66 -91 -61q-22 2 -39 21q-13 19 -26 37q-11 15 -26 15q-29 0 -29 -31q0 -4 1 -8l26 -111q4 -16 5 -19q4 -10 12 -15q34 -19 68 -19q64 0 126 68q48 51 84 129l168 363q13 28 38 44.5t27.5 22t2.5 12.5q0 13 -10 24t-24 11h-137q-18 0 -35 -8.5t-17 -22.5
q0 -9 10 -20q14 -12 27 -23.5t13 -24.5q0 -9 -6 -23l-80 -185l-82 185q-9 20 -9 30t12 18q24 17 28 20q13 12 13 23q0 13 -14 22t-33 9h-185q-26 0 -41.5 -10.5t-15.5 -25.5q0 -11 8.5 -20.5t39.5 -24.5q20 -10 38 -52zM309 558q11 -9 42 -9q39 0 18 21l-70 101
q-12 14 -21 14h-92q-17 0 -17 -13q0 -7 7 -12z" />
    <glyph glyph-name="athnang" unicode="&#x1ef7;" horiz-adv-x="610" 
d="M235 25q-37 -66 -91 -61q-22 2 -39 21q-13 19 -26 37q-11 15 -26 15q-29 0 -29 -31q0 -4 1 -8l26 -111q4 -16 5 -19q4 -10 12 -15q34 -19 68 -19q64 0 126 68q48 51 84 129l168 363q13 28 38 44.5t27.5 22t2.5 12.5q0 13 -10 24t-24 11h-137q-18 0 -35 -8.5t-17 -22.5
q0 -9 10 -20q14 -12 27 -23.5t13 -24.5q0 -9 -6 -23l-80 -185l-82 185q-9 20 -9 30t12 18q24 17 28 20q13 12 13 23q0 13 -14 22t-33 9h-185q-26 0 -41.5 -10.5t-15.5 -25.5q0 -11 8.5 -20.5t39.5 -24.5q20 -10 38 -52zM316 736l6 5q4 4 22 4q8 -3 14 -13l6 -10q4 -9 4 -19
q0 -22 -30.5 -60t-30.5 -53q0 -18 4 -24q6 -9 26 -8q13 1 13 10q5 22 52 47q51 27 51 71q0 33 -29 61t-71 34q-35 0 -70 -12q-48 -16 -48 -44q0 -43 42 -43q41 0 41 43q0 -2 -2 11z" />
    <glyph glyph-name="ethsac" unicode="&#x1ef9;" horiz-adv-x="610" 
d="M235 25q-37 -66 -91 -61q-22 2 -39 21q-13 19 -26 37q-11 15 -26 15q-29 0 -29 -31q0 -4 1 -8l26 -111q4 -16 5 -19q4 -10 12 -15q34 -19 68 -19q64 0 126 68q48 51 84 129l168 363q13 28 38 44.5t27.5 22t2.5 12.5q0 13 -10 24t-24 11h-137q-18 0 -35 -8.5t-17 -22.5
q0 -9 10 -20q14 -12 27 -23.5t13 -24.5q0 -9 -6 -23l-80 -185l-82 185q-9 20 -9 30t12 18q24 17 28 20q13 12 13 23q0 13 -14 22t-33 9h-185q-26 0 -41.5 -10.5t-15.5 -25.5q0 -11 8.5 -20.5t39.5 -24.5q20 -10 38 -52zM247 593l-2 1q20 2 61 -16q45 -19 69 -19q47 0 89 53
q27 34 27 45q0 10 -12 17q-6 5 -12 5q-10 0 -24 -15q-17 -19 -24.5 -23.5t-20.5 -4.5q-18 0 -53 13q-23 10 -47 19q-12 2 -22 2q-40 0 -93 -56q-24 -25 -24 -36q0 -8 8 -15t17 -7q11 0 32.5 17.5t30.5 19.5z" />
    <glyph glyph-name="ethhuyen" unicode="&#x1ef5;" horiz-adv-x="610" 
d="M235 25q-37 -66 -91 -61q-22 2 -39 21q-13 19 -26 37q-11 15 -26 15q-29 0 -29 -31q0 -4 1 -8l26 -111q4 -16 5 -19q4 -10 12 -15q34 -19 68 -19q64 0 126 68q48 51 84 129l168 363q13 28 38 44.5t27.5 22t2.5 12.5q0 13 -10 24t-24 11h-137q-18 0 -35 -8.5t-17 -22.5
q0 -9 10 -20q14 -12 27 -23.5t13 -24.5q0 -9 -6 -23l-80 -185l-82 185q-9 20 -9 30t12 18q24 17 28 20q13 12 13 23q0 13 -14 22t-33 9h-185q-26 0 -41.5 -10.5t-15.5 -25.5q0 -11 8.5 -20.5t39.5 -24.5q20 -10 38 -52zM373 -142l-1 -1q11 -23 40 -23q31 0 61 25.5t30 58.5
q0 9 -3 18q-8 25 -36 25q-33 0 -64 -25.5t-31 -58.5q0 -10 4 -19z" />
    <glyph glyph-name="ethhoi" horiz-adv-x="900" 
d="M343 301v-159q0 -33 -17 -44l-42 -22q-16 -12 -16 -31q0 -43 67 -43h218q47 0 60 29q4 9 4 17q0 18 -37.5 43.5t-37.5 50.5v196q127 174 259 352q17 7 33 13q18 10 18 29q0 35 -49 35h-178q-47 0 -47 -31q0 -24 29 -43q22 -11 12 -34q-21 -51 -148 -208q-65 77 -136 182
q-22 27 -22 40q0 7 5 11q1 1 31 16q18 10 20 27q9 40 -48 40h-265q-57 0 -48 -40q2 -18 22 -28q31 -14 32 -15q29 -25 71 -85q31 -45 63 -91q11 -15 147 -207zM446 812l-1 -1q39 0 51 9l134 102q7 5 7 13q0 12 -16 12h-92q-8 0 -22 -14l-70 -101q-7 -7 -7 -12q0 -8 16 -8z
" />
    <glyph glyph-name="ethnga" unicode="&#x1ef2;" horiz-adv-x="900" 
d="M343 301v-159q0 -33 -17 -44l-42 -22q-16 -12 -16 -31q0 -43 67 -43h218q47 0 60 29q4 9 4 17q0 18 -37.5 43.5t-37.5 50.5v196q127 174 259 352q17 7 33 13q18 10 18 29q0 35 -49 35h-178q-47 0 -47 -31q0 -24 29 -43q22 -11 12 -34q-21 -51 -148 -208q-65 77 -136 182
q-22 27 -22 40q0 7 5 11q1 1 31 16q18 10 20 27q9 40 -48 40h-265q-57 0 -48 -40q2 -18 22 -28q31 -14 32 -15q29 -25 71 -85q31 -45 63 -91q11 -15 147 -207zM471 817q11 -9 42 -9q39 0 18 21l-70 101q-12 14 -21 14h-92q-17 0 -17 -13q0 -7 7 -12z" />
    <glyph glyph-name="ethnang" unicode="&#x1ef6;" horiz-adv-x="900" 
d="M343 301v-159q0 -33 -17 -44l-42 -22q-16 -12 -16 -31q0 -43 67 -43h218q47 0 60 29q4 9 4 17q0 18 -37.5 43.5t-37.5 50.5v196q127 174 259 352q17 7 33 13q18 10 18 29q0 35 -49 35h-178q-47 0 -47 -31q0 -24 29 -43q22 -11 12 -34q-21 -51 -148 -208q-65 77 -136 182
q-22 27 -22 40q0 7 5 11q1 1 31 16q18 10 20 27q9 40 -48 40h-265q-57 0 -48 -40q2 -18 22 -28q31 -14 32 -15q29 -25 71 -85q31 -45 63 -91q11 -15 147 -207zM458 995l6 5q4 4 22 4q8 -3 14 -13l6 -10q4 -9 4 -19q0 -22 -30.5 -60t-30.5 -53q0 -18 4 -24q6 -9 26 -8
q13 1 13 10q5 22 52 47q51 27 51 71q0 33 -29 61t-71 34q-35 0 -70 -12q-48 -16 -48 -44q0 -43 42 -43q41 0 41 43q0 -2 -2 11z" />
    <glyph glyph-name="ithsac" unicode="&#x1ef8;" horiz-adv-x="900" 
d="M343 301v-159q0 -33 -17 -44l-42 -22q-16 -12 -16 -31q0 -43 67 -43h218q47 0 60 29q4 9 4 17q0 18 -37.5 43.5t-37.5 50.5v196q127 174 259 352q17 7 33 13q18 10 18 29q0 35 -49 35h-178q-47 0 -47 -31q0 -24 29 -43q22 -11 12 -34q-21 -51 -148 -208q-65 77 -136 182
q-22 27 -22 40q0 7 5 11q1 1 31 16q18 10 20 27q9 40 -48 40h-265q-57 0 -48 -40q2 -18 22 -28q31 -14 32 -15q29 -25 71 -85q31 -45 63 -91q11 -15 147 -207zM404 857l-2 1q20 2 61 -16q45 -19 69 -19q47 0 89 53q27 34 27 45q0 10 -12 17q-6 5 -12 5q-10 0 -24 -15
q-17 -19 -24.5 -23.5t-20.5 -4.5q-18 0 -53 13q-23 10 -47 19q-12 2 -22 2q-40 0 -93 -56q-24 -25 -24 -36q0 -8 8 -15t17 -7q11 0 32.5 17.5t30.5 19.5z" />
    <glyph glyph-name="ithhuyen" unicode="&#x1ef4;" horiz-adv-x="900" 
d="M343 301v-159q0 -33 -17 -44l-42 -22q-16 -12 -16 -31q0 -43 67 -43h218q47 0 60 29q4 9 4 17q0 18 -37.5 43.5t-37.5 50.5v196q127 174 259 352q17 7 33 13q18 10 18 29q0 35 -49 35h-178q-47 0 -47 -31q0 -24 29 -43q22 -11 12 -34q-21 -51 -148 -208q-65 77 -136 182
q-22 27 -22 40q0 7 5 11q1 1 31 16q18 10 20 27q9 40 -48 40h-265q-57 0 -48 -40q2 -18 22 -28q31 -14 32 -15q29 -25 71 -85q31 -45 63 -91q11 -15 147 -207zM380 -160l-1 -1q11 -23 40 -23q31 0 61 25.5t30 58.5q0 9 -3 18q-8 25 -36 25q-33 0 -64 -25.5t-31 -58.5
q0 -10 4 -19z" />
    <glyph glyph-name="ithhoi" unicode="&#x1edb;" horiz-adv-x="630" 
d="M592 226q-3 81 -30 132q55 29 80 74q11 19 11 38q0 22 -12.5 37.5t-31.5 17.5q-20 2 -34 -8q-17 -13 -17 -37q0 -33 28 -42q-10 -34 -42 -48q-44 55 -94 86q-72 44 -160 44q-117 0 -199 -72q-89 -79 -87 -202t91 -190q80 -59 208 -62q120 -2 200 54q89 63 89 178z
M187 218q-25 65 -25 119q0 75 44 105q42 29 96 -4q58 -36 95 -132q26 -69 26 -125q0 -46 -18 -77q-23 -38 -66 -38q-41 0 -80 37q-43 40 -72 115zM188 569l-1 -1q39 0 51 9l134 102q7 5 7 13q0 12 -16 12h-92q-8 0 -22 -14l-70 -101q-7 -7 -7 -12q0 -8 16 -8z" />
    <glyph glyph-name="ithnga" unicode="&#x1edd;" horiz-adv-x="630" 
d="M592 226q-3 81 -30 132q55 29 80 74q11 19 11 38q0 22 -12.5 37.5t-31.5 17.5q-20 2 -34 -8q-17 -13 -17 -37q0 -33 28 -42q-10 -34 -42 -48q-44 55 -94 86q-72 44 -160 44q-117 0 -199 -72q-89 -79 -87 -202t91 -190q80 -59 208 -62q120 -2 200 54q89 63 89 178z
M187 218q-25 65 -25 119q0 75 44 105q42 29 96 -4q58 -36 95 -132q26 -69 26 -125q0 -46 -18 -77q-23 -38 -66 -38q-41 0 -80 37q-43 40 -72 115zM343 569q11 -9 42 -9q39 0 18 21l-70 101q-12 14 -21 14h-92q-17 0 -17 -13q0 -7 7 -12z" />
    <glyph glyph-name="ithnang" unicode="&#x1edf;" horiz-adv-x="630" 
d="M592 226q-3 81 -30 132q55 29 80 74q11 19 11 38q0 22 -12.5 37.5t-31.5 17.5q-20 2 -34 -8q-17 -13 -17 -37q0 -33 28 -42q-10 -34 -42 -48q-44 55 -94 86q-72 44 -160 44q-117 0 -199 -72q-89 -79 -87 -202t91 -190q80 -59 208 -62q120 -2 200 54q89 63 89 178z
M187 218q-25 65 -25 119q0 75 44 105q42 29 96 -4q58 -36 95 -132q26 -69 26 -125q0 -46 -18 -77q-23 -38 -66 -38q-41 0 -80 37q-43 40 -72 115zM275 737l6 5q4 4 22 4q8 -3 14 -13l6 -10q4 -9 4 -19q0 -22 -30.5 -60t-30.5 -53q0 -18 4 -24q6 -9 26 -8q13 1 13 10
q5 22 52 47q51 27 51 71q0 33 -29 61t-71 34q-35 0 -70 -12q-48 -16 -48 -44q0 -43 42 -43q41 0 41 43q0 -2 -2 11z" />
    <glyph glyph-name="othsac" unicode="&#x1ee1;" horiz-adv-x="630" 
d="M592 226q-3 81 -30 132q55 29 80 74q11 19 11 38q0 22 -12.5 37.5t-31.5 17.5q-20 2 -34 -8q-17 -13 -17 -37q0 -33 28 -42q-10 -34 -42 -48q-44 55 -94 86q-72 44 -160 44q-117 0 -199 -72q-89 -79 -87 -202t91 -190q80 -59 208 -62q120 -2 200 54q89 63 89 178z
M187 218q-25 65 -25 119q0 75 44 105q42 29 96 -4q58 -36 95 -132q26 -69 26 -125q0 -46 -18 -77q-23 -38 -66 -38q-41 0 -80 37q-43 40 -72 115zM196 614l-2 1q20 2 61 -16q45 -19 69 -19q47 0 89 53q27 34 27 45q0 10 -12 17q-6 5 -12 5q-10 0 -24 -15
q-17 -19 -24.5 -23.5t-20.5 -4.5q-18 0 -53 13q-23 10 -47 19q-12 2 -22 2q-40 0 -93 -56q-24 -25 -24 -36q0 -8 8 -15t17 -7q11 0 32.5 17.5t30.5 19.5z" />
    <glyph glyph-name="othhuyen" unicode="&#x1ee3;" horiz-adv-x="630" 
d="M592 226q-3 81 -30 132q55 29 80 74q11 19 11 38q0 22 -12.5 37.5t-31.5 17.5q-20 2 -34 -8q-17 -13 -17 -37q0 -33 28 -42q-10 -34 -42 -48q-44 55 -94 86q-72 44 -160 44q-117 0 -199 -72q-89 -79 -87 -202t91 -190q80 -59 208 -62q120 -2 200 54q89 63 89 178z
M187 218q-25 65 -25 119q0 75 44 105q42 29 96 -4q58 -36 95 -132q26 -69 26 -125q0 -46 -18 -77q-23 -38 -66 -38q-41 0 -80 37q-43 40 -72 115zM227 -148l-1 -1q11 -23 40 -23q31 0 61 25.5t30 58.5q0 9 -3 18q-8 25 -36 25q-33 0 -64 -25.5t-31 -58.5q0 -10 4 -19z" />
    <glyph glyph-name="othhoi" unicode="&#x1eda;" horiz-adv-x="880" 
d="M-6 352q-2 -179 122 -272q109 -83 294 -85q179 -2 294 84q125 94 130 267q2 59 -16 127q-16 60 -38 93q37 24 70 65q39 49 39 86q0 23 -13 40.5t-32 20.5q-26 4 -44.5 -11t-19.5 -43q-1 -42 30 -50q-7 -41 -54 -72q-45 69 -132.5 118t-169.5 58q-21 2 -42 2
q-172 0 -293.5 -127.5t-123.5 -303.5zM223 366q-1 105 43 202q55 120 149 120q99 0 152 -122q39 -92 39 -206q0 -107 -41 -176q-50 -85 -152 -85q-95 0 -147 90q-42 73 -43 177zM304 831l-1 -1q39 0 51 9l134 102q7 5 7 13q0 12 -16 12h-92q-8 0 -22 -14l-70 -101
q-7 -7 -7 -12q0 -8 16 -8z" />
    <glyph glyph-name="othnga" unicode="&#x1edc;" horiz-adv-x="880" 
d="M-6 352q-2 -179 122 -272q109 -83 294 -85q179 -2 294 84q125 94 130 267q2 59 -16 127q-16 60 -38 93q37 24 70 65q39 49 39 86q0 23 -13 40.5t-32 20.5q-26 4 -44.5 -11t-19.5 -43q-1 -42 30 -50q-7 -41 -54 -72q-45 69 -132.5 118t-169.5 58q-21 2 -42 2
q-172 0 -293.5 -127.5t-123.5 -303.5zM223 366q-1 105 43 202q55 120 149 120q99 0 152 -122q39 -92 39 -206q0 -107 -41 -176q-50 -85 -152 -85q-95 0 -147 90q-42 73 -43 177zM459 831q11 -9 42 -9q39 0 18 21l-70 101q-12 14 -21 14h-92q-17 0 -17 -13q0 -7 7 -12z" />
    <glyph glyph-name="othnang" unicode="&#x1ede;" horiz-adv-x="880" 
d="M-6 352q-2 -179 122 -272q109 -83 294 -85q179 -2 294 84q125 94 130 267q2 59 -16 127q-16 60 -38 93q37 24 70 65q39 49 39 86q0 23 -13 40.5t-32 20.5q-26 4 -44.5 -11t-19.5 -43q-1 -42 30 -50q-7 -41 -54 -72q-45 69 -132.5 118t-169.5 58q-21 2 -42 2
q-172 0 -293.5 -127.5t-123.5 -303.5zM223 366q-1 105 43 202q55 120 149 120q99 0 152 -122q39 -92 39 -206q0 -107 -41 -176q-50 -85 -152 -85q-95 0 -147 90q-42 73 -43 177zM406 1009l6 5q4 4 22 4q8 -3 14 -13l6 -10q4 -9 4 -19q0 -22 -30.5 -60t-30.5 -53q0 -18 4 -24
q6 -9 26 -8q13 1 13 10q5 22 52 47q51 27 51 71q0 33 -29 61t-71 34q-35 0 -70 -12q-48 -16 -48 -44q0 -43 42 -43q41 0 41 43q0 -2 -2 11z" />
    <glyph glyph-name="uthsac" unicode="&#x1ee0;" horiz-adv-x="880" 
d="M-6 352q-2 -179 122 -272q109 -83 294 -85q179 -2 294 84q125 94 130 267q2 59 -16 127q-16 60 -38 93q37 24 70 65q39 49 39 86q0 23 -13 40.5t-32 20.5q-26 4 -44.5 -11t-19.5 -43q-1 -42 30 -50q-7 -41 -54 -72q-45 69 -132.5 118t-169.5 58q-21 2 -42 2
q-172 0 -293.5 -127.5t-123.5 -303.5zM223 366q-1 105 43 202q55 120 149 120q99 0 152 -122q39 -92 39 -206q0 -107 -41 -176q-50 -85 -152 -85q-95 0 -147 90q-42 73 -43 177zM332 871l-2 1q20 2 61 -16q45 -19 69 -19q47 0 89 53q27 34 27 45q0 10 -12 17q-6 5 -12 5
q-10 0 -24 -15q-17 -19 -24.5 -23.5t-20.5 -4.5q-18 0 -53 13q-23 10 -47 19q-12 2 -22 2q-40 0 -93 -56q-24 -25 -24 -36q0 -8 8 -15t17 -7q11 0 32.5 17.5t30.5 19.5z" />
    <glyph glyph-name="uthhuyen" unicode="&#x1ee2;" horiz-adv-x="880" 
d="M-6 352q-2 -179 122 -272q109 -83 294 -85q179 -2 294 84q125 94 130 267q2 59 -16 127q-16 60 -38 93q37 24 70 65q39 49 39 86q0 23 -13 40.5t-32 20.5q-26 4 -44.5 -11t-19.5 -43q-1 -42 30 -50q-7 -41 -54 -72q-45 69 -132.5 118t-169.5 58q-21 2 -42 2
q-172 0 -293.5 -127.5t-123.5 -303.5zM223 366q-1 105 43 202q55 120 149 120q99 0 152 -122q39 -92 39 -206q0 -107 -41 -176q-50 -85 -152 -85q-95 0 -147 90q-42 73 -43 177zM338 -150l-1 -1q11 -23 40 -23q31 0 61 25.5t30 58.5q0 9 -3 18q-8 25 -36 25q-33 0 -64 -25.5
t-31 -58.5q0 -10 4 -19z" />
    <glyph glyph-name="uthhoi" unicode="&#x1ee9;" horiz-adv-x="620" 
d="M505 389v102q0 34 -19 34q-10 0 -29 -8l-119 -52q-46 -20 -46 -45q0 -9 11 -17q18 -9 35 -17q14 -8 14 -34v-137q0 -38 -24.5 -72t-59.5 -34q-15 0 -30 7q-29 14 -37 80q-3 24 -3 96v185q0 48 -31 48q-13 0 -31 -8l-102 -46q-15 -5 -30 -18t-15 -26q0 -10 11 -18l36 -20
q11 -7 12 -43q0 -17 -1 -57q-1 -45 -1 -67q0 -177 76 -217q30 -16 63 -16q77 0 167 82q0 -7 -1 -20v-17q0 -32 35 -32h142q16 0 28 10t12 25q0 8 -3.5 17.5t-34.5 27.5q-25 15 -25 54v212q23 -1 64 31q38 29 52 53q11 19 11 38q0 22 -12.5 37.5t-31.5 17.5q-20 2 -34 -8
q-17 -13 -17 -37q0 -33 28 -42q-17 -34 -60 -49zM273 577l-1 -1q39 0 51 9l134 102q7 5 7 13q0 12 -16 12h-92q-8 0 -22 -14l-70 -101q-7 -7 -7 -12q0 -8 16 -8z" />
    <glyph glyph-name="uthnga" unicode="&#x1eeb;" horiz-adv-x="620" 
d="M505 389v102q0 34 -19 34q-10 0 -29 -8l-119 -52q-46 -20 -46 -45q0 -9 11 -17q18 -9 35 -17q14 -8 14 -34v-137q0 -38 -24.5 -72t-59.5 -34q-15 0 -30 7q-29 14 -37 80q-3 24 -3 96v185q0 48 -31 48q-13 0 -31 -8l-102 -46q-15 -5 -30 -18t-15 -26q0 -10 11 -18l36 -20
q11 -7 12 -43q0 -17 -1 -57q-1 -45 -1 -67q0 -177 76 -217q30 -16 63 -16q77 0 167 82q0 -7 -1 -20v-17q0 -32 35 -32h142q16 0 28 10t12 25q0 8 -3.5 17.5t-34.5 27.5q-25 15 -25 54v212q23 -1 64 31q38 29 52 53q11 19 11 38q0 22 -12.5 37.5t-31.5 17.5q-20 2 -34 -8
q-17 -13 -17 -37q0 -33 28 -42q-17 -34 -60 -49zM308 582q11 -9 42 -9q39 0 18 21l-70 101q-12 14 -21 14h-92q-17 0 -17 -13q0 -7 7 -12z" />
    <glyph glyph-name="uthnang" unicode="&#x1eed;" horiz-adv-x="620" 
d="M505 389v102q0 34 -19 34q-10 0 -29 -8l-119 -52q-46 -20 -46 -45q0 -9 11 -17q18 -9 35 -17q14 -8 14 -34v-137q0 -38 -24.5 -72t-59.5 -34q-15 0 -30 7q-29 14 -37 80q-3 24 -3 96v185q0 48 -31 48q-13 0 -31 -8l-102 -46q-15 -5 -30 -18t-15 -26q0 -10 11 -18l36 -20
q11 -7 12 -43q0 -17 -1 -57q-1 -45 -1 -67q0 -177 76 -217q30 -16 63 -16q77 0 167 82q0 -7 -1 -20v-17q0 -32 35 -32h142q16 0 28 10t12 25q0 8 -3.5 17.5t-34.5 27.5q-25 15 -25 54v212q23 -1 64 31q38 29 52 53q11 19 11 38q0 22 -12.5 37.5t-31.5 17.5q-20 2 -34 -8
q-17 -13 -17 -37q0 -33 28 -42q-17 -34 -60 -49zM285 750l6 5q4 4 22 4q8 -3 14 -13l6 -10q4 -9 4 -19q0 -22 -30.5 -60t-30.5 -53q0 -18 4 -24q6 -9 26 -8q13 1 13 10q5 22 52 47q51 27 51 71q0 33 -29 61t-71 34q-35 0 -70 -12q-48 -16 -48 -44q0 -43 42 -43q41 0 41 43
q0 -2 -2 11z" />
    <glyph glyph-name="aath" unicode="&#x1eef;" horiz-adv-x="620" 
d="M505 389v102q0 34 -19 34q-10 0 -29 -8l-119 -52q-46 -20 -46 -45q0 -9 11 -17q18 -9 35 -17q14 -8 14 -34v-137q0 -38 -24.5 -72t-59.5 -34q-15 0 -30 7q-29 14 -37 80q-3 24 -3 96v185q0 48 -31 48q-13 0 -31 -8l-102 -46q-15 -5 -30 -18t-15 -26q0 -10 11 -18l36 -20
q11 -7 12 -43q0 -17 -1 -57q-1 -45 -1 -67q0 -177 76 -217q30 -16 63 -16q77 0 167 82q0 -7 -1 -20v-17q0 -32 35 -32h142q16 0 28 10t12 25q0 8 -3.5 17.5t-34.5 27.5q-25 15 -25 54v212q23 -1 64 31q38 29 52 53q11 19 11 38q0 22 -12.5 37.5t-31.5 17.5q-20 2 -34 -8
q-17 -13 -17 -37q0 -33 28 -42q-17 -34 -60 -49zM241 612l-2 1q20 2 61 -16q45 -19 69 -19q47 0 89 53q27 34 27 45q0 10 -12 17q-6 5 -12 5q-10 0 -24 -15q-17 -19 -24.5 -23.5t-20.5 -4.5q-18 0 -53 13q-23 10 -47 19q-12 2 -22 2q-40 0 -93 -56q-24 -25 -24 -36
q0 -8 8 -15t17 -7q11 0 32.5 17.5t30.5 19.5z" />
    <glyph glyph-name="aathsac" unicode="&#x1ef1;" horiz-adv-x="620" 
d="M505 389v102q0 34 -19 34q-10 0 -29 -8l-119 -52q-46 -20 -46 -45q0 -9 11 -17q18 -9 35 -17q14 -8 14 -34v-137q0 -38 -24.5 -72t-59.5 -34q-15 0 -30 7q-29 14 -37 80q-3 24 -3 96v185q0 48 -31 48q-13 0 -31 -8l-102 -46q-15 -5 -30 -18t-15 -26q0 -10 11 -18l36 -20
q11 -7 12 -43q0 -17 -1 -57q-1 -45 -1 -67q0 -177 76 -217q30 -16 63 -16q77 0 167 82q0 -7 -1 -20v-17q0 -32 35 -32h142q16 0 28 10t12 25q0 8 -3.5 17.5t-34.5 27.5q-25 15 -25 54v212q23 -1 64 31q38 29 52 53q11 19 11 38q0 22 -12.5 37.5t-31.5 17.5q-20 2 -34 -8
q-17 -13 -17 -37q0 -33 28 -42q-17 -34 -60 -49zM217 -145l-1 -1q11 -23 40 -23q31 0 61 25.5t30 58.5q0 9 -3 18q-8 25 -36 25q-33 0 -64 -25.5t-31 -58.5q0 -10 4 -19z" />
    <glyph glyph-name="aathhuyen" unicode="&#x1ee8;" horiz-adv-x="780" 
d="M669 385l-2 -2l-10 152q52 26 92 65q53 50 53 96q0 23 -13 40.5t-32 20.5q-26 4 -44.5 -11t-19.5 -43q-1 -42 30 -50q-20 -55 -68 -72l-9 185h-142q-39 0 -39 -34q0 -21 22 -35q44 -14 54 -65l6 -94l14 -221q6 -96 -9 -137q-31 -84 -156 -88q-92 -3 -130 47
q-31 40 -31 123q0 19 2 43l14 219q2 47 12 136q5 14 21.5 20.5t32.5 11.5q24 10 24 32q0 17 -14 29.5t-36 12.5h-250q-17 0 -29.5 -11.5t-12.5 -26.5q0 -14 11 -25q7 -7 44 -22q18 -8 18 -45q0 -14 -2 -35l-20 -208q-15 -154 -15 -160q0 -99 49 -155q76 -87 298 -87
q241 0 284 144q12 42 12 105q0 35 -9 145zM379 813l-1 -1q39 0 51 9l134 102q7 5 7 13q0 12 -16 12h-92q-8 0 -22 -14l-70 -101q-7 -7 -7 -12q0 -8 16 -8z" />
    <glyph glyph-name="aathhoi" unicode="&#x1eea;" horiz-adv-x="780" 
d="M669 385l-2 -2l-10 152q52 26 92 65q53 50 53 96q0 23 -13 40.5t-32 20.5q-26 4 -44.5 -11t-19.5 -43q-1 -42 30 -50q-20 -55 -68 -72l-9 185h-142q-39 0 -39 -34q0 -21 22 -35q44 -14 54 -65l6 -94l14 -221q6 -96 -9 -137q-31 -84 -156 -88q-92 -3 -130 47
q-31 40 -31 123q0 19 2 43l14 219q2 47 12 136q5 14 21.5 20.5t32.5 11.5q24 10 24 32q0 17 -14 29.5t-36 12.5h-250q-17 0 -29.5 -11.5t-12.5 -26.5q0 -14 11 -25q7 -7 44 -22q18 -8 18 -45q0 -14 -2 -35l-20 -208q-15 -154 -15 -160q0 -99 49 -155q76 -87 298 -87
q241 0 284 144q12 42 12 105q0 35 -9 145zM409 823q11 -9 42 -9q39 0 18 21l-70 101q-12 14 -21 14h-92q-17 0 -17 -13q0 -7 7 -12z" />
    <glyph glyph-name="aathnga" unicode="&#x1eec;" horiz-adv-x="780" 
d="M669 385l-2 -2l-10 152q52 26 92 65q53 50 53 96q0 23 -13 40.5t-32 20.5q-26 4 -44.5 -11t-19.5 -43q-1 -42 30 -50q-20 -55 -68 -72l-9 185h-142q-39 0 -39 -34q0 -21 22 -35q44 -14 54 -65l6 -94l14 -221q6 -96 -9 -137q-31 -84 -156 -88q-92 -3 -130 47
q-31 40 -31 123q0 19 2 43l14 219q2 47 12 136q5 14 21.5 20.5t32.5 11.5q24 10 24 32q0 17 -14 29.5t-36 12.5h-250q-17 0 -29.5 -11.5t-12.5 -26.5q0 -14 11 -25q7 -7 44 -22q18 -8 18 -45q0 -14 -2 -35l-20 -208q-15 -154 -15 -160q0 -99 49 -155q76 -87 298 -87
q241 0 284 144q12 42 12 105q0 35 -9 145zM386 986l6 5q4 4 22 4q8 -3 14 -13l6 -10q4 -9 4 -19q0 -22 -30.5 -60t-30.5 -53q0 -18 4 -24q6 -9 26 -8q13 1 13 10q5 22 52 47q51 27 51 71q0 33 -29 61t-71 34q-35 0 -70 -12q-48 -16 -48 -44q0 -43 42 -43q41 0 41 43
q0 -2 -2 11z" />
    <glyph glyph-name="aathnang" unicode="&#x1eee;" horiz-adv-x="780" 
d="M669 385l-2 -2l-10 152q52 26 92 65q53 50 53 96q0 23 -13 40.5t-32 20.5q-26 4 -44.5 -11t-19.5 -43q-1 -42 30 -50q-20 -55 -68 -72l-9 185h-142q-39 0 -39 -34q0 -21 22 -35q44 -14 54 -65l6 -94l14 -221q6 -96 -9 -137q-31 -84 -156 -88q-92 -3 -130 47
q-31 40 -31 123q0 19 2 43l14 219q2 47 12 136q5 14 21.5 20.5t32.5 11.5q24 10 24 32q0 17 -14 29.5t-36 12.5h-250q-17 0 -29.5 -11.5t-12.5 -26.5q0 -14 11 -25q7 -7 44 -22q18 -8 18 -45q0 -14 -2 -35l-20 -208q-15 -154 -15 -160q0 -99 49 -155q76 -87 298 -87
q241 0 284 144q12 42 12 105q0 35 -9 145zM332 843l-2 1q20 2 61 -16q45 -19 69 -19q47 0 89 53q27 34 27 45q0 10 -12 17q-6 5 -12 5q-10 0 -24 -15q-17 -19 -24.5 -23.5t-20.5 -4.5q-18 0 -53 13q-23 10 -47 19q-12 2 -22 2q-40 0 -93 -56q-24 -25 -24 -36q0 -8 8 -15
t17 -7q11 0 32.5 17.5t30.5 19.5z" />
    <glyph glyph-name="abth" unicode="&#x1ef0;" horiz-adv-x="780" 
d="M669 385l-2 -2l-10 152q52 26 92 65q53 50 53 96q0 23 -13 40.5t-32 20.5q-26 4 -44.5 -11t-19.5 -43q-1 -42 30 -50q-20 -55 -68 -72l-9 185h-142q-39 0 -39 -34q0 -21 22 -35q44 -14 54 -65l6 -94l14 -221q6 -96 -9 -137q-31 -84 -156 -88q-92 -3 -130 47
q-31 40 -31 123q0 19 2 43l14 219q2 47 12 136q5 14 21.5 20.5t32.5 11.5q24 10 24 32q0 17 -14 29.5t-36 12.5h-250q-17 0 -29.5 -11.5t-12.5 -26.5q0 -14 11 -25q7 -7 44 -22q18 -8 18 -45q0 -14 -2 -35l-20 -208q-15 -154 -15 -160q0 -99 49 -155q76 -87 298 -87
q241 0 284 144q12 42 12 105q0 35 -9 145zM308 -157l-1 -1q11 -23 40 -23q31 0 61 25.5t30 58.5q0 9 -3 18q-8 25 -36 25q-33 0 -64 -25.5t-31 -58.5q0 -10 4 -19z" />
    <glyph glyph-name="abthsac" unicode="&#x1eaf;" horiz-adv-x="660" 
d="M383 53q53 -59 133 -59q43 0 74 20t31 50q0 7 -2 15q-4 16 -14 16q-3 0 -14 -4t-18 -4q-32 0 -59 83l-54 168q-42 129 -108 162q-45 22 -102 22q-41 0 -78.5 -10.5t-80.5 -40.5q-52 -38 -52 -69q0 -27 22 -27q15 0 48 20q40 25 47 28q19 5 36 5q84 0 111 -107
q-154 4 -232 -49q-72 -49 -72 -132q0 -30 12 -58q39 -91 157 -91q110 0 215 62zM335 224q20 -64 20 -79q0 -25 -15 -40q-30 -30 -68 -30q-41 0 -73 31.5t-32 68.5q0 51 60 75q23 6 46 6q52 0 62 -32zM148 692h-4q-1 4 -8 10q-36 0 -38 -2q-5 -5 -5 -15q0 -16 12 -42
q10 -22 18 -30q41 -49 112 -49q76 0 113 55q21 31 21 64q0 12 -5 17q-2 2 -38 2q-6 -1 -12 -17q-21 -51 -81 -51q-34 0 -53 15q-13 10 -32 43zM215 726l-1 -1q39 0 51 9l134 102q7 5 7 13q0 12 -16 12h-92q-8 0 -22 -14l-70 -101q-7 -7 -7 -12q0 -8 16 -8z" />
    <glyph glyph-name="abthhuyen" unicode="&#x1eb1;" horiz-adv-x="660" 
d="M383 53q53 -59 133 -59q43 0 74 20t31 50q0 7 -2 15q-4 16 -14 16q-3 0 -14 -4t-18 -4q-32 0 -59 83l-54 168q-42 129 -108 162q-45 22 -102 22q-41 0 -78.5 -10.5t-80.5 -40.5q-52 -38 -52 -69q0 -27 22 -27q15 0 48 20q40 25 47 28q19 5 36 5q84 0 111 -107
q-154 4 -232 -49q-72 -49 -72 -132q0 -30 12 -58q39 -91 157 -91q110 0 215 62zM335 224q20 -64 20 -79q0 -25 -15 -40q-30 -30 -68 -30q-41 0 -73 31.5t-32 68.5q0 51 60 75q23 6 46 6q52 0 62 -32zM148 692h-4q-1 4 -8 10q-36 0 -38 -2q-5 -5 -5 -15q0 -16 12 -42
q10 -22 18 -30q41 -49 112 -49q76 0 113 55q21 31 21 64q0 12 -5 17q-2 2 -38 2q-6 -1 -12 -17q-21 -51 -81 -51q-34 0 -53 15q-13 10 -32 43zM205 741q11 -9 42 -9q39 0 18 21l-70 101q-12 14 -21 14h-92q-17 0 -17 -13q0 -7 7 -12z" />
    <glyph glyph-name="abthhoi" unicode="&#x1eb3;" horiz-adv-x="660" 
d="M383 53q53 -59 133 -59q43 0 74 20t31 50q0 7 -2 15q-4 16 -14 16q-3 0 -14 -4t-18 -4q-32 0 -59 83l-54 168q-42 129 -108 162q-45 22 -102 22q-41 0 -78.5 -10.5t-80.5 -40.5q-52 -38 -52 -69q0 -27 22 -27q15 0 48 20q40 25 47 28q19 5 36 5q84 0 111 -107
q-154 4 -232 -49q-72 -49 -72 -132q0 -30 12 -58q39 -91 157 -91q110 0 215 62zM335 224q20 -64 20 -79q0 -25 -15 -40q-30 -30 -68 -30q-41 0 -73 31.5t-32 68.5q0 51 60 75q23 6 46 6q52 0 62 -32zM148 692h-4q-1 4 -8 10q-36 0 -38 -2q-5 -5 -5 -15q0 -16 12 -42
q10 -22 18 -30q41 -49 112 -49q76 0 113 55q21 31 21 64q0 12 -5 17q-2 2 -38 2q-6 -1 -12 -17q-21 -51 -81 -51q-34 0 -53 15q-13 10 -32 43zM217 894l6 5q4 4 22 4q8 -3 14 -13l6 -10q4 -9 4 -19q0 -22 -30.5 -60t-30.5 -53q0 -18 4 -24q6 -9 26 -8q13 1 13 10q5 22 52 47
q51 27 51 71q0 33 -29 61t-71 34q-35 0 -70 -12q-48 -16 -48 -44q0 -43 42 -43q41 0 41 43q0 -2 -2 11z" />
    <glyph glyph-name="abthnga" unicode="&#x1eb5;" horiz-adv-x="660" 
d="M383 53q53 -59 133 -59q43 0 74 20t31 50q0 7 -2 15q-4 16 -14 16q-3 0 -14 -4t-18 -4q-32 0 -59 83l-54 168q-42 129 -108 162q-45 22 -102 22q-41 0 -78.5 -10.5t-80.5 -40.5q-52 -38 -52 -69q0 -27 22 -27q15 0 48 20q40 25 47 28q19 5 36 5q84 0 111 -107
q-154 4 -232 -49q-72 -49 -72 -132q0 -30 12 -58q39 -91 157 -91q110 0 215 62zM335 224q20 -64 20 -79q0 -25 -15 -40q-30 -30 -68 -30q-41 0 -73 31.5t-32 68.5q0 51 60 75q23 6 46 6q52 0 62 -32zM148 692h-4q-1 4 -8 10q-36 0 -38 -2q-5 -5 -5 -15q0 -16 12 -42
q10 -22 18 -30q41 -49 112 -49q76 0 113 55q21 31 21 64q0 12 -5 17q-2 2 -38 2q-6 -1 -12 -17q-21 -51 -81 -51q-34 0 -53 15q-13 10 -32 43zM163 781l-2 1q20 2 61 -16q45 -19 69 -19q47 0 89 53q27 34 27 45q0 10 -12 17q-6 5 -12 5q-10 0 -24 -15q-17 -19 -24.5 -23.5
t-20.5 -4.5q-18 0 -53 13q-23 10 -47 19q-12 2 -22 2q-40 0 -93 -56q-24 -25 -24 -36q0 -8 8 -15t17 -7q11 0 32.5 17.5t30.5 19.5z" />
    <glyph glyph-name="abthnang" unicode="&#x1eb7;" horiz-adv-x="660" 
d="M383 53q53 -59 133 -59q43 0 74 20t31 50q0 7 -2 15q-4 16 -14 16q-3 0 -14 -4t-18 -4q-32 0 -59 83l-54 168q-42 129 -108 162q-45 22 -102 22q-41 0 -78.5 -10.5t-80.5 -40.5q-52 -38 -52 -69q0 -27 22 -27q15 0 48 20q40 25 47 28q19 5 36 5q84 0 111 -107
q-154 4 -232 -49q-72 -49 -72 -132q0 -30 12 -58q39 -91 157 -91q110 0 215 62zM335 224q20 -64 20 -79q0 -25 -15 -40q-30 -30 -68 -30q-41 0 -73 31.5t-32 68.5q0 51 60 75q23 6 46 6q52 0 62 -32zM148 692h-4q-1 4 -8 10q-36 0 -38 -2q-5 -5 -5 -15q0 -16 12 -42
q10 -22 18 -30q41 -49 112 -49q76 0 113 55q21 31 21 64q0 12 -5 17q-2 2 -38 2q-6 -1 -12 -17q-21 -51 -81 -51q-34 0 -53 15q-13 10 -32 43zM189 -145l-1 -1q11 -23 40 -23q31 0 61 25.5t30 58.5q0 9 -3 18q-8 25 -36 25q-33 0 -64 -25.5t-31 -58.5q0 -10 4 -19z" />
    <glyph glyph-name="ebth" unicode="&#x1eae;" horiz-adv-x="920" 
d="M53 2h194q45 0 45 37q0 20 -17 30t-34 19q-9 6 -9 19q0 14 23.5 61t101.5 47h125q43 0 77 -31q36 -34 31 -77q-2 -15 -23 -23q-24 -10 -30 -22t-6 -22q0 -38 62 -38h236q17 0 35 12t18 27q0 11 -10 21q-13 18 -32.5 23t-29.5 16q-19 22 -43 86l-199 543q-9 24 -17 31.5
t-24 7.5q-4 0 -21.5 -1t-31.5 -1t-31 1t-21 1q-15 0 -21.5 -6.5t-17.5 -30.5l-253 -548q-27 -58 -44 -77q-11 -11 -29.5 -14.5t-33.5 -16t-15 -31.5q0 -17 12.5 -30t32.5 -13zM332 355l77 193q6 16 16 16q9 0 15 -16l68 -185q10 -28 -3 -34q-22 -20 -105 -20q-72 0 -72 29
q0 8 4 17zM388 947h-4q-1 4 -8 10q-36 0 -38 -2q-5 -5 -5 -15q0 -16 12 -42q10 -22 18 -30q41 -49 112 -49q76 0 113 55q21 31 21 64q0 12 -5 17q-2 2 -38 2q-6 -1 -12 -17q-21 -51 -81 -51q-34 0 -53 15q-13 10 -32 43zM455 981l-1 -1q39 0 51 9l134 102q7 5 7 13
q0 12 -16 12h-92q-8 0 -22 -14l-70 -101q-7 -7 -7 -12q0 -8 16 -8z" />
    <glyph glyph-name="ebthsac" unicode="&#x1eb0;" horiz-adv-x="920" 
d="M53 2h194q45 0 45 37q0 20 -17 30t-34 19q-9 6 -9 19q0 14 23.5 61t101.5 47h125q43 0 77 -31q36 -34 31 -77q-2 -15 -23 -23q-24 -10 -30 -22t-6 -22q0 -38 62 -38h236q17 0 35 12t18 27q0 11 -10 21q-13 18 -32.5 23t-29.5 16q-19 22 -43 86l-199 543q-9 24 -17 31.5
t-24 7.5q-4 0 -21.5 -1t-31.5 -1t-31 1t-21 1q-15 0 -21.5 -6.5t-17.5 -30.5l-253 -548q-27 -58 -44 -77q-11 -11 -29.5 -14.5t-33.5 -16t-15 -31.5q0 -17 12.5 -30t32.5 -13zM332 355l77 193q6 16 16 16q9 0 15 -16l68 -185q10 -28 -3 -34q-22 -20 -105 -20q-72 0 -72 29
q0 8 4 17zM388 947h-4q-1 4 -8 10q-36 0 -38 -2q-5 -5 -5 -15q0 -16 12 -42q10 -22 18 -30q41 -49 112 -49q76 0 113 55q21 31 21 64q0 12 -5 17q-2 2 -38 2q-6 -1 -12 -17q-21 -51 -81 -51q-34 0 -53 15q-13 10 -32 43zM445 996q11 -9 42 -9q39 0 18 21l-70 101
q-12 14 -21 14h-92q-17 0 -17 -13q0 -7 7 -12z" />
    <glyph glyph-name="ebthhuyen" unicode="&#x1eb2;" horiz-adv-x="920" 
d="M53 2h194q45 0 45 37q0 20 -17 30t-34 19q-9 6 -9 19q0 14 23.5 61t101.5 47h125q43 0 77 -31q36 -34 31 -77q-2 -15 -23 -23q-24 -10 -30 -22t-6 -22q0 -38 62 -38h236q17 0 35 12t18 27q0 11 -10 21q-13 18 -32.5 23t-29.5 16q-19 22 -43 86l-199 543q-9 24 -17 31.5
t-24 7.5q-4 0 -21.5 -1t-31.5 -1t-31 1t-21 1q-15 0 -21.5 -6.5t-17.5 -30.5l-253 -548q-27 -58 -44 -77q-11 -11 -29.5 -14.5t-33.5 -16t-15 -31.5q0 -17 12.5 -30t32.5 -13zM332 355l77 193q6 16 16 16q9 0 15 -16l68 -185q10 -28 -3 -34q-22 -20 -105 -20q-72 0 -72 29
q0 8 4 17zM388 947h-4q-1 4 -8 10q-36 0 -38 -2q-5 -5 -5 -15q0 -16 12 -42q10 -22 18 -30q41 -49 112 -49q76 0 113 55q21 31 21 64q0 12 -5 17q-2 2 -38 2q-6 -1 -12 -17q-21 -51 -81 -51q-34 0 -53 15q-13 10 -32 43zM457 1149l6 5q4 4 22 4q8 -3 14 -13l6 -10
q4 -9 4 -19q0 -22 -30.5 -60t-30.5 -53q0 -18 4 -24q6 -9 26 -8q13 1 13 10q5 22 52 47q51 27 51 71q0 33 -29 61t-71 34q-35 0 -70 -12q-48 -16 -48 -44q0 -43 42 -43q41 0 41 43q0 -2 -2 11z" />
    <glyph glyph-name="ebthhoi" unicode="&#x1eb4;" horiz-adv-x="920" 
d="M53 2h194q45 0 45 37q0 20 -17 30t-34 19q-9 6 -9 19q0 14 23.5 61t101.5 47h125q43 0 77 -31q36 -34 31 -77q-2 -15 -23 -23q-24 -10 -30 -22t-6 -22q0 -38 62 -38h236q17 0 35 12t18 27q0 11 -10 21q-13 18 -32.5 23t-29.5 16q-19 22 -43 86l-199 543q-9 24 -17 31.5
t-24 7.5q-4 0 -21.5 -1t-31.5 -1t-31 1t-21 1q-15 0 -21.5 -6.5t-17.5 -30.5l-253 -548q-27 -58 -44 -77q-11 -11 -29.5 -14.5t-33.5 -16t-15 -31.5q0 -17 12.5 -30t32.5 -13zM332 355l77 193q6 16 16 16q9 0 15 -16l68 -185q10 -28 -3 -34q-22 -20 -105 -20q-72 0 -72 29
q0 8 4 17zM388 947h-4q-1 4 -8 10q-36 0 -38 -2q-5 -5 -5 -15q0 -16 12 -42q10 -22 18 -30q41 -49 112 -49q76 0 113 55q21 31 21 64q0 12 -5 17q-2 2 -38 2q-6 -1 -12 -17q-21 -51 -81 -51q-34 0 -53 15q-13 10 -32 43zM403 1036l-2 1q20 2 61 -16q45 -19 69 -19
q47 0 89 53q27 34 27 45q0 10 -12 17q-6 5 -12 5q-10 0 -24 -15q-17 -19 -24.5 -23.5t-20.5 -4.5q-18 0 -53 13q-23 10 -47 19q-12 2 -22 2q-40 0 -93 -56q-24 -25 -24 -36q0 -8 8 -15t17 -7q11 0 32.5 17.5t30.5 19.5z" />
    </font>
</defs>
</svg>
