<?xml version="1.0" encoding="utf-8"?>
<!-- Generator: Adobe Illustrator 18.0.0, SVG Export Plug-In . SVG Version: 6.00 Build 0)  -->
<!DOCTYPE svg PUBLIC "-//W3C//DTD SVG 1.1//EN" "http://www.w3.org/Graphics/SVG/1.1/DTD/svg11.dtd">
<svg version="1.1" id="Layer_1" xmlns="http://www.w3.org/2000/svg" xmlns:xlink="http://www.w3.org/1999/xlink" x="0px" y="0px"
	 viewBox="0 0 500 180" enable-background="new 0 0 500 180" xml:space="preserve">
<g>
	<g>
		
			<linearGradient id="SVGID_1_" gradientUnits="userSpaceOnUse" x1="-143.9348" y1="1040.9749" x2="186.5201" y2="1516.2626" gradientTransform="matrix(-3.251574e-05 0.1574 -0.1411 -2.914088e-05 254.4781 86.7314)">
			<stop  offset="0" style="stop-color:#615FAA"/>
			<stop  offset="1" style="stop-color:#F59AAB"/>
		</linearGradient>
		<path fill="url(#SVGID_1_)" d="M89.3,141V39c0-8.4-6.9-15.2-15.2-15.2l0,0c-8.4,0-15.2,6.9-15.2,15.2v102
			c0,8.4,6.9,15.2,15.2,15.2l0,0C82.6,156.2,89.3,149.4,89.3,141z"/>
		
			<linearGradient id="SVGID_2_" gradientUnits="userSpaceOnUse" x1="131.8299" y1="1369.4392" x2="672.8721" y2="1822.0962" gradientTransform="matrix(-1.902240e-05 9.210581e-02 -0.1411 -2.914236e-05 254.485 52.9574)">
			<stop  offset="0" style="stop-color:#615FAA"/>
			<stop  offset="1" style="stop-color:#F59AAB"/>
		</linearGradient>
		<path fill="url(#SVGID_2_)" d="M44.6,114.9v-50c0-8.4-6.9-15.2-15.2-15.2l0,0c-8.4,0-15.2,6.9-15.2,15.2v50
			c0,8.4,6.9,15.2,15.2,15.2l0,0C37.7,130.1,44.6,123.4,44.6,114.9z"/>
		
			<linearGradient id="SVGID_3_" gradientUnits="userSpaceOnUse" x1="130.6769" y1="733.2859" x2="673.9667" y2="1187.8246" gradientTransform="matrix(-1.902240e-05 9.210581e-02 -0.1411 -2.914236e-05 254.485 52.9574)">
			<stop  offset="0" style="stop-color:#615FAA"/>
			<stop  offset="1" style="stop-color:#F59AAB"/>
		</linearGradient>
		<path fill="url(#SVGID_3_)" d="M134.2,115.1V64.8c0-8.4-6.9-15.2-15.2-15.2l0,0c-8.4,0-15.2,6.9-15.2,15.2v50.3
			c0,8.4,6.9,15.2,15.2,15.2l0,0C127.3,130.3,134.2,123.6,134.2,115.1z"/>
	</g>
	<g>
		
			<linearGradient id="SVGID_4_" gradientUnits="userSpaceOnUse" x1="-238.4343" y1="9.4671" x2="-993.5956" y2="284.3224" gradientTransform="matrix(7.163315e-02 0.1216 -0.1216 7.163315e-02 136.0682 122.8078)">
			<stop  offset="0" style="stop-color:#8781BD"/>
			<stop  offset="1" style="stop-color:#73C6EF"/>
		</linearGradient>
		<path fill="url(#SVGID_4_)" d="M132.1,107.3L87.4,31.2c-4.3-7.3-13.6-9.7-20.9-5.4l0,0c-7.3,4.3-9.7,13.6-5.4,20.9l44.7,76.1
			c4.3,7.3,13.6,9.7,20.9,5.4l0,0C133.9,123.9,136.3,114.6,132.1,107.3z"/>
		
			<linearGradient id="SVGID_5_" gradientUnits="userSpaceOnUse" x1="-165.7909" y1="349.4508" x2="-921.3415" y2="624.4487" gradientTransform="matrix(7.163315e-02 0.1216 -0.1216 7.163315e-02 136.0682 122.8078)">
			<stop  offset="0" style="stop-color:#8781BD"/>
			<stop  offset="1" style="stop-color:#73C6EF"/>
		</linearGradient>
		<path fill="url(#SVGID_5_)" d="M87.2,133.3L42.5,57.2c-4.3-7.3-13.6-9.7-20.9-5.4l0,0c-7.3,4.3-9.7,13.6-5.4,20.9L61,148.8
			c4.3,7.3,13.6,9.7,20.9,5.4l0,0C89.2,149.8,91.6,140.6,87.2,133.3z"/>
	</g>
</g>
<g>
	<path fill="#EFEFEF" d="M193.3,100.1c-0.1,2.1-0.7,4-1.6,5.5c-0.9,1.5-1.9,2.5-3.4,3.4c-2.1,1.3-4.5,1.9-7.5,1.9h-19.4
		c-0.7,0-1.5-0.3-1.9-0.7c-0.4-0.6-0.9-1.2-0.9-1.9V70.6c0-1.5,1.3-2.7,2.8-2.7h16.9c1.8,0,4.5,0.1,6.9,1.3c2.4,1,5.2,3.4,5.8,8.7
		c0.3,2.1,0.1,3.9-0.3,5.5c-0.4,1.5-1,2.8-2.1,4c-0.1,0.1-0.4,0.4-0.6,0.6c0.9,0.4,1.5,1,2.2,1.6c1.2,1.2,2.1,2.7,2.5,4.3
		C193.3,95.8,193.4,97.9,193.3,100.1z M186.1,93.6c-1-1-2.7-1.6-3.9-1.8c-1.2-0.1-2.1-0.1-2.2-0.1h-0.1h-15.7l0,0
		c-1.5,0-2.7-1.3-2.8-2.7c0-1.5,1.3-2.8,2.8-2.8h15.7c0.4,0,2.8-0.4,4.3-2.2c1-1.3,1.3-3.1,1-5.5c-0.4-3.6-2.5-5.1-7.2-5.1h-14v32.2
		h16.6c1.9,0,3.4-0.4,4.6-1c1.5-0.9,2.2-2.5,2.5-4.9C188.1,96.9,187.5,94.9,186.1,93.6z"/>
	<path fill="#EFEFEF" d="M235.2,112.1c-3,0-6-0.6-8.8-1.8c-2.7-1.2-5.1-2.8-7.2-4.9c-2.1-2.1-3.7-4.5-4.9-7.2
		c-1.2-2.7-1.8-5.7-1.8-8.7c0-3,0.6-6,1.8-8.7c1.2-2.7,2.8-5.1,4.9-7.2c2.1-2.1,4.5-3.7,7.2-4.9c2.8-1.2,5.8-1.8,8.9-1.8
		c6,0,11.6,2.4,15.8,6.7c2.1,2.1,3.6,4.5,4.6,7.2c1.2,2.8,1.6,5.7,1.6,8.7c0,3-0.6,6-1.6,8.7s-2.7,5.1-4.8,7.2
		C246.8,109.7,241.3,112.1,235.2,112.1z M235.3,72.7c-2.4,0-4.6,0.4-6.7,1.3c-2.1,0.9-3.9,2.1-5.5,3.7c-1.6,1.5-2.8,3.4-3.7,5.4
		c-0.9,2.1-1.3,4.2-1.3,6.6c0,2.2,0.4,4.5,1.3,6.6c0.9,2.1,2.1,3.9,3.7,5.4c3.3,3.3,7.6,5.1,12.1,5.1c4.6,0,8.8-1.8,12.1-5.1
		c1.5-1.5,2.7-3.4,3.6-5.4c0.9-2.1,1.3-4.3,1.3-6.6c0-4.5-1.6-8.8-4.8-11.9C244.1,74.3,239.8,72.7,235.3,72.7z"/>
	<path fill="#EFEFEF" d="M311.1,111.3c-0.9,0-1.6-0.4-2.1-1l-26.7-32.1v30.3c0,1.5-1.2,2.8-2.8,2.8c-1.5,0-2.8-1.2-2.8-2.8V70.6
		c0-1.2,0.7-2.2,1.8-2.5c1-0.4,2.4,0,3,0.9l26.7,32.1V70.8c0-1.5,1.2-2.8,2.8-2.8c1.5,0,2.8,1.2,2.8,2.8v37.9c0,1.2-0.7,2.1-1.8,2.5
		C311.7,111.3,311.4,111.3,311.1,111.3z"/>
	<path fill="#EFEFEF" d="M365.3,108.3c0,1.5-1.2,2.8-2.8,2.8H336c-1.5,0-2.8-1.2-2.8-2.8V70.6c0-1.5,1.3-2.7,2.8-2.7h25.8
		c1.5,0,2.8,1.2,2.8,2.7c0,1.5-1.2,2.8-2.8,2.8h-23.1v13.3h20.4c1.5,0,2.8,1.3,2.8,2.8s-1.2,2.8-2.8,2.8h-20.4v13.4h23.6
		C364.1,105.7,365.3,106.9,365.3,108.3z"/>
	<path fill="#EFEFEF" d="M403.3,111.3c-1.2,0-2.1-0.6-2.5-1.6l-15.8-38.2c-0.6-1.3,0.1-3,1.5-3.6c1.5-0.6,3,0.1,3.6,1.5l13.3,32.1
		l13.3-32.1c0.6-1.3,2.2-2.1,3.6-1.5c1.5,0.6,2.1,2.2,1.5,3.6l-15.8,38.2C405.4,110.6,404.5,111.3,403.3,111.3z"/>
	<path fill="#EFEFEF" d="M463.7,112.1c-3,0-6-0.6-8.8-1.8c-2.7-1.2-5.1-2.8-7.2-4.9c-2.1-2.1-3.7-4.5-4.9-7.2
		c-1.2-2.7-1.8-5.7-1.8-8.7c0-3,0.6-6,1.8-8.7c1.2-2.7,2.8-5.1,4.9-7.2c2.1-2.1,4.5-3.7,7.2-4.9c2.8-1.2,5.8-1.8,8.9-1.8
		c6,0,11.6,2.4,15.8,6.7c2.1,2.1,3.6,4.5,4.6,7.2c1.2,2.8,1.6,5.7,1.6,8.7c0,3-0.6,6-1.6,8.7c-1,2.7-2.7,5.1-4.8,7.2
		C475.5,109.7,469.8,112.1,463.7,112.1z M464,72.7c-2.4,0-4.6,0.4-6.7,1.3c-2.1,0.9-3.9,2.1-5.5,3.7c-1.6,1.5-2.8,3.4-3.7,5.4
		c-0.9,2.1-1.3,4.2-1.3,6.6c0,2.2,0.4,4.5,1.3,6.6c0.9,2.1,2.1,3.9,3.7,5.4c3.3,3.3,7.6,5.1,12.1,5.1c4.6,0,8.8-1.8,12.1-5.1
		c1.5-1.5,2.7-3.4,3.6-5.4c0.9-2.1,1.3-4.3,1.3-6.6c0-4.5-1.6-8.8-4.8-11.9C472.7,74.3,468.5,72.7,464,72.7z"/>
</g>
</svg>
