<?xml version="1.0" encoding="utf-8"?>
<!-- Generator: Adobe Illustrator 18.0.0, SVG Export Plug-In . SVG Version: 6.00 Build 0)  -->
<!DOCTYPE svg PUBLIC "-//W3C//DTD SVG 1.1//EN" "http://www.w3.org/Graphics/SVG/1.1/DTD/svg11.dtd">
<svg fill="#6a64a7" version="1.1" id="Layer_1" xmlns="http://www.w3.org/2000/svg" xmlns:xlink="http://www.w3.org/1999/xlink" x="0px" y="0px"
	 viewBox="0 0 28.4 28.4" enable-background="new 0 0 28.4 28.4" xml:space="preserve">
<g>
	<g>
		<defs>
			<rect id="SVGID_1_" x="1" y="1.4" width="25.9" height="26"/>
		</defs>
		<clipPath id="SVGID_2_">
			<use xlink:href="#SVGID_1_"  overflow="visible"/>
		</clipPath>
		<path clip-path="url(#SVGID_2_)" d="M26.5,2.6c0.2-0.4,0.1-0.9-0.2-1.1c-0.4-0.2-0.9-0.1-1.1,0.2l-3,4.5c-0.1,0-0.2,0-0.4,0
			c-1.3,0-2.4,1.1-2.4,2.4c0,0.3,0.1,0.5,0.1,0.7l-2.9,3.6c-0.4-0.2-0.8-0.4-1.3-0.4c-1.3,0-2.3,1-2.4,2.3l-4.5,2.6
			c-0.4-0.6-1.1-0.9-1.9-0.9c-1.3,0-2.4,1.1-2.4,2.4c0,0.5,0.2,1,0.5,1.4l-3.5,5.4c-0.2,0.4-0.1,0.9,0.2,1.1C1.5,26.9,1.6,27,1.8,27
			c0.3,0,0.5-0.1,0.7-0.4L6,21.3c0.2,0.1,0.4,0.1,0.6,0.1c1.3,0,2.3-1,2.4-2.3l4.5-2.6c0.4,0.6,1.1,0.9,1.9,0.9
			c1.3,0,2.4-1.1,2.4-2.4c0-0.3-0.1-0.5-0.1-0.7l2.9-3.6c0.4,0.2,0.8,0.4,1.3,0.4c1.3,0,2.4-1.1,2.4-2.4c0-0.6-0.2-1.2-0.6-1.6
			L26.5,2.6z M6.6,19.7c-0.4,0-0.8-0.4-0.8-0.8c0-0.4,0.4-0.8,0.8-0.8c0.4,0,0.8,0.4,0.8,0.8C7.4,19.4,7,19.7,6.6,19.7L6.6,19.7z
			 M15.4,15.7c-0.4,0-0.8-0.4-0.8-0.8c0-0.4,0.4-0.8,0.8-0.8c0.4,0,0.8,0.4,0.8,0.8C16.2,15.4,15.8,15.7,15.4,15.7L15.4,15.7z
			 M21.8,9.3C21.4,9.3,21,9,21,8.5c0-0.4,0.4-0.8,0.8-0.8c0.4,0,0.8,0.4,0.8,0.8C22.6,9,22.2,9.3,21.8,9.3L21.8,9.3z M5.8,25.4
			c-0.4,0-0.8,0.4-0.8,0.8C5,26.6,5.4,27,5.8,27c0.4,0,0.8-0.4,0.8-0.8C6.6,25.7,6.2,25.4,5.8,25.4L5.8,25.4z M9.8,25.4
			c-0.4,0-0.8,0.4-0.8,0.8C9,26.6,9.4,27,9.8,27c0.4,0,0.8-0.4,0.8-0.8C10.6,25.7,10.2,25.4,9.8,25.4L9.8,25.4z M13.8,25.4
			c-0.4,0-0.8,0.4-0.8,0.8c0,0.4,0.4,0.8,0.8,0.8c0.4,0,0.8-0.4,0.8-0.8C14.6,25.7,14.2,25.4,13.8,25.4L13.8,25.4z M17.8,25.4
			c-0.4,0-0.8,0.4-0.8,0.8c0,0.4,0.4,0.8,0.8,0.8c0.4,0,0.8-0.4,0.8-0.8C18.6,25.7,18.2,25.4,17.8,25.4L17.8,25.4z M21.8,25.4
			c-0.4,0-0.8,0.4-0.8,0.8c0,0.4,0.4,0.8,0.8,0.8c0.4,0,0.8-0.4,0.8-0.8C22.6,25.7,22.2,25.4,21.8,25.4L21.8,25.4z M25.8,25.4
			c-0.4,0-0.8,0.4-0.8,0.8c0,0.4,0.4,0.8,0.8,0.8c0.4,0,0.8-0.4,0.8-0.8C26.6,25.7,26.2,25.4,25.8,25.4L25.8,25.4z M1.8,23
			c0.4,0,0.8-0.4,0.8-0.8c0-0.4-0.4-0.8-0.8-0.8c-0.4,0-0.8,0.4-0.8,0.8C1,22.6,1.4,23,1.8,23L1.8,23z M1.8,19
			c0.4,0,0.8-0.4,0.8-0.8c0-0.4-0.4-0.8-0.8-0.8c-0.4,0-0.8,0.4-0.8,0.8C1,18.6,1.4,19,1.8,19L1.8,19z M1.8,15
			c0.4,0,0.8-0.4,0.8-0.8c0-0.4-0.4-0.8-0.8-0.8c-0.4,0-0.8,0.4-0.8,0.8C1,14.6,1.4,15,1.8,15L1.8,15z M1.8,11
			c0.4,0,0.8-0.4,0.8-0.8c0-0.4-0.4-0.8-0.8-0.8C1.4,9.3,1,9.7,1,10.2C1,10.6,1.4,11,1.8,11L1.8,11z M1.8,7c0.4,0,0.8-0.4,0.8-0.8
			c0-0.4-0.4-0.8-0.8-0.8C1.4,5.3,1,5.7,1,6.2C1,6.6,1.4,7,1.8,7L1.8,7z M1.8,3c0.4,0,0.8-0.4,0.8-0.8c0-0.4-0.4-0.8-0.8-0.8
			C1.4,1.4,1,1.7,1,2.2C1,2.6,1.4,3,1.8,3L1.8,3z M1.8,3"/>
	</g>
</g>
</svg>
