<?xml version="1.0" encoding="utf-8"?>
<!-- Generator: Adobe Illustrator 18.0.0, SVG Export Plug-In . SVG Version: 6.00 Build 0)  -->
<!DOCTYPE svg PUBLIC "-//W3C//DTD SVG 1.1//EN" "http://www.w3.org/Graphics/SVG/1.1/DTD/svg11.dtd">
<svg version="1.1" id="Capa_1" xmlns="http://www.w3.org/2000/svg" xmlns:xlink="http://www.w3.org/1999/xlink" x="0px" y="0px"
	 viewBox="0 0 32 32" enable-background="new 0 0 32 32" xml:space="preserve">
<g>
	<g id="Shape_76">
		<g>
			<path fill="#6A64A7" d="M14.5,22c4.1,0,7.5-4.1,7.5-9.1c0-5-3.4-9.1-7.5-9.1c-2,0-4,1-5.4,2.8C7.8,8.2,7,10.5,7,12.9
				C7,17.9,10.4,22,14.5,22z M14.5,5.8c3,0,5.5,3.2,5.5,7.1c0,3.9-2.5,7.1-5.5,7.1S9,16.8,9,12.9C9,8.9,11.5,5.8,14.5,5.8z M20.8,21
				c-0.6,0-1,0.4-1,1s0.4,1,1,1c3.4,0,6.2,2.8,6.2,6.2c0,0.4-0.4,0.8-0.8,0.8H2.8C2.4,30,2,29.6,2,29.2C2,25.8,4.8,23,8.2,23
				c0.6,0,1-0.4,1-1s-0.4-1-1-1C3.7,21,0,24.7,0,29.2C0,30.7,1.3,32,2.8,32h23.4c1.5,0,2.8-1.3,2.8-2.8C29,24.7,25.3,21,20.8,21z
				 M15.2,2.6C15.9,2.2,16.7,2,17.5,2c3,0,5.5,3.2,5.5,7.1c0,0.7-0.1,1.4-0.2,2.1c-0.1,0.5,0.2,1.1,0.7,1.2c0.1,0,0.2,0,0.2,0
				c0.5,0,0.9-0.3,1-0.8C24.9,10.8,25,10,25,9.1c0-5-3.4-9.1-7.5-9.1c-1.1,0-2.3,0.3-3.3,0.9c-0.5,0.3-0.6,0.9-0.4,1.4
				S14.8,2.9,15.2,2.6z M24,17c-0.6,0-1,0.4-1,1s0.4,1,1,1c3.4,0,6,2.9,6,6.3c0,0.1,0,0.2-0.1,0.3c-0.2,0.5,0,1.1,0.5,1.3
				c0.1,0.1,0.3,0.1,0.4,0.1c0.4,0,0.7-0.2,0.9-0.6c0.2-0.4,0.2-0.7,0.2-1.1C32,20.7,28.5,17,24,17z"/>
		</g>
	</g>
</g>
</svg>
