<?xml version="1.0" encoding="utf-8"?>
<!-- Generator: Adobe Illustrator 18.0.0, SVG Export Plug-In . SVG Version: 6.00 Build 0)  -->
<!DOCTYPE svg PUBLIC "-//W3C//DTD SVG 1.1//EN" "http://www.w3.org/Graphics/SVG/1.1/DTD/svg11.dtd">
<svg version="1.1" fill="#8782bb" id="Layer_1" xmlns="http://www.w3.org/2000/svg" xmlns:xlink="http://www.w3.org/1999/xlink" x="0px" y="0px"
	 viewBox="0 0 28.4 28.4" enable-background="new 0 0 28.4 28.4" xml:space="preserve">
<g>
	<path d="M7.4,19C6.1,19,5,20,5,21.3c0,1.3,1.1,2.4,2.4,2.4c1.3,0,2.4-1.1,2.4-2.4C9.8,20,8.7,19,7.4,19L7.4,19z M7.4,22.2
		c-0.4,0-0.8-0.4-0.8-0.8c0-0.4,0.4-0.8,0.8-0.8c0.4,0,0.8,0.4,0.8,0.8C8.2,21.8,7.8,22.2,7.4,22.2L7.4,22.2z M9.6,4.8
		C9.4,4.6,9.2,4.5,9,4.5H5.8c-0.2,0-0.4,0.1-0.6,0.2L4.4,5.6C4.3,5.7,4.2,5.9,4.2,6.2V15c0,0.2,0.1,0.4,0.2,0.6l0.8,0.8
		c0.1,0.2,0.4,0.2,0.6,0.2H9c0.2,0,0.4-0.1,0.6-0.2l0.8-0.8c0.1-0.1,0.2-0.4,0.2-0.6V6.2c0-0.2-0.1-0.4-0.2-0.6L9.6,4.8z M9,14.6
		L8.7,15H6.1l-0.3-0.3V6.5l0.3-0.3h0.5v3.2l0.8-0.8l0.8,0.8V6.2h0.5L9,6.5V14.6z M20.2,19c-1.3,0-2.4,1.1-2.4,2.4
		c0,1.3,1.1,2.4,2.4,2.4c1.3,0,2.4-1.1,2.4-2.4C22.6,20,21.5,19,20.2,19L20.2,19z M20.2,22.2c-0.4,0-0.8-0.4-0.8-0.8
		c0-0.4,0.4-0.8,0.8-0.8c0.4,0,0.8,0.4,0.8,0.8C21,21.8,20.6,22.2,20.2,22.2L20.2,22.2z M25,1.4h-9.6c-0.9,0-1.6,0.7-1.6,1.6
		c0-0.9-0.7-1.6-1.6-1.6H2.6C1.7,1.4,1,2.1,1,3v22.4C1,26.2,1.7,27,2.6,27h9.6c0.9,0,1.6-0.7,1.6-1.6c0,0.9,0.7,1.6,1.6,1.6H25
		c0.9,0,1.6-0.7,1.6-1.6V3C26.6,2.1,25.9,1.4,25,1.4L25,1.4z M2.6,25.4V3h9.6v22.4H2.6z M15.4,25.4V3H25v22.4H15.4z M22.4,4.8
		c-0.2-0.1-0.4-0.2-0.6-0.2h-3.2c-0.2,0-0.4,0.1-0.6,0.2l-0.8,0.8C17.1,5.7,17,5.9,17,6.2V15c0,0.2,0.1,0.4,0.2,0.6l0.8,0.8
		c0.1,0.2,0.4,0.2,0.6,0.2h3.2c0.2,0,0.4-0.1,0.6-0.2l0.8-0.8c0.2-0.1,0.2-0.4,0.2-0.6V6.2c0-0.2-0.1-0.4-0.2-0.6L22.4,4.8z
		 M21.8,14.6L21.5,15h-2.5l-0.3-0.3V6.5l0.3-0.3h0.5v3.2l0.8-0.8L21,9.3V6.2h0.5l0.3,0.3V14.6z M21.8,14.6"/>
</g>
</svg>
