<?xml version="1.0" encoding="utf-8"?>
<!-- Generator: Adobe Illustrator 18.0.0, SVG Export Plug-In . SVG Version: 6.00 Build 0)  -->
<!DOCTYPE svg PUBLIC "-//W3C//DTD SVG 1.1//EN" "http://www.w3.org/Graphics/SVG/1.1/DTD/svg11.dtd">
<svg version="1.1" fill="#dc91ab" id="Layer_1" xmlns="http://www.w3.org/2000/svg" xmlns:xlink="http://www.w3.org/1999/xlink" x="0px" y="0px"
	 viewBox="0 0 28.4 28.4" enable-background="new 0 0 28.4 28.4" xml:space="preserve">
<g>
	<path d="M16.1,13.7C16,13.3,15.6,13,15.2,13c-0.4,0.1-0.7,0.5-0.7,0.9c0.1,0.3,0.1,0.7,0.1,1c0,3.3-2.7,6-6,6c-3.3,0-6-2.7-6-6
		c0-3.3,2.7-6,6-6c0.9,0,1.8,0.2,2.7,0.6c0.4,0.2,0.9,0,1.1-0.4c0.2-0.4,0-0.9-0.4-1.1c-1.1-0.5-2.2-0.8-3.4-0.8
		C4.4,7.3,1,10.8,1,15c0,4.2,3.4,7.6,7.6,7.6c4.2,0,7.6-3.4,7.6-7.6C16.2,14.5,16.2,14.1,16.1,13.7L16.1,13.7z M19,7.3
		c-4.2,0-7.6,3.4-7.6,7.6c0,0.4,0,0.8,0.1,1.2c0.1,0.4,0.5,0.7,0.9,0.7c0.4-0.1,0.7-0.5,0.7-0.9C13,15.6,13,15.3,13,15
		c0-3.3,2.7-6,6-6s6,2.7,6,6c0,3.3-2.7,6-6,6c-0.9,0-1.8-0.2-2.7-0.6c-0.4-0.2-0.9,0-1.1,0.4c-0.2,0.4,0,0.9,0.4,1.1
		c1.1,0.5,2.2,0.8,3.4,0.8c4.2,0,7.6-3.4,7.6-7.6C26.6,10.8,23.2,7.3,19,7.3L19,7.3z M19,7.3"/>
</g>
</svg>
