<?xml version="1.0" encoding="utf-8"?>
<!-- Generator: Adobe Illustrator 18.0.0, SVG Export Plug-In . SVG Version: 6.00 Build 0)  -->
<!DOCTYPE svg PUBLIC "-//W3C//DTD SVG 1.1//EN" "http://www.w3.org/Graphics/SVG/1.1/DTD/svg11.dtd">
<svg version="1.1" fill="#7caedb" id="Layer_1" xmlns="http://www.w3.org/2000/svg" xmlns:xlink="http://www.w3.org/1999/xlink" x="0px" y="0px"
	 viewBox="0 0 28.4 28.4" enable-background="new 0 0 28.4 28.4" xml:space="preserve">
<g>
	<path d="M22.2,1.4h-18C3,1.4,2,2.4,2,3.7v21C2,25.9,3,27,4.2,27h18c1.2,0,2.2-1,2.2-2.3v-21C24.4,2.4,23.4,1.4,22.2,1.4L22.2,1.4z
		 M22.8,24.7c0,0.4-0.3,0.7-0.6,0.7h-18c-0.3,0-0.6-0.3-0.6-0.7v-3.3h19.2V24.7z M22.8,19.7H3.6V6.2h19.2V19.7z M22.8,4.5H3.6V3.7
		C3.6,3.3,3.9,3,4.2,3h18c0.3,0,0.6,0.3,0.6,0.7V4.5z M13.2,24.5c0.7,0,1.2-0.5,1.2-1.2c0-0.7-0.5-1.2-1.2-1.2
		c-0.7,0-1.2,0.5-1.2,1.2C12,24,12.5,24.5,13.2,24.5L13.2,24.5z M13.2,24.5"/>
</g>
</svg>
