<?xml version="1.0" encoding="utf-8"?>
<!-- Generator: Adobe Illustrator 18.0.0, SVG Export Plug-In . SVG Version: 6.00 Build 0)  -->
<!DOCTYPE svg PUBLIC "-//W3C//DTD SVG 1.1//EN" "http://www.w3.org/Graphics/SVG/1.1/DTD/svg11.dtd">
<svg fill="#dc91ab" version="1.1" id="Layer_1" xmlns="http://www.w3.org/2000/svg" xmlns:xlink="http://www.w3.org/1999/xlink" x="0px" y="0px"
	 viewBox="0 0 28.4 28.4" enable-background="new 0 0 28.4 28.4" xml:space="preserve">
<g>
	<g>
		<defs>
			<rect id="SVGID_1_" x="1" y="1.4" width="25.9" height="26"/>
		</defs>
		<clipPath id="SVGID_2_">
			<use xlink:href="#SVGID_1_"  overflow="visible"/>
		</clipPath>
		<path clip-path="url(#SVGID_2_)" d="M17.4,1.4c-5.1,0-9.2,4.1-9.2,9.2c0,1.7,0.5,3.2,1.2,4.6l-7.7,7.7c-0.9,0.9-0.9,2.5,0,3.4
			C2.2,26.7,2.8,27,3.4,27c0.6,0,1.2-0.2,1.7-0.7l7.7-7.7c1.3,0.8,2.9,1.2,4.6,1.2c5.1,0,9.2-4.1,9.2-9.2
			C26.6,5.5,22.5,1.4,17.4,1.4L17.4,1.4z M4,25.1c-0.2,0.2-0.4,0.2-0.6,0.2c-0.1,0-0.4,0-0.6-0.2s-0.2-0.4-0.2-0.6
			c0-0.1,0-0.4,0.2-0.6l7.5-7.5c0.3,0.4,0.7,0.8,1.1,1.1L4,25.1z M17.4,18.2c-4.2,0-7.6-3.4-7.6-7.6c0-4.2,3.4-7.6,7.6-7.6
			c4.2,0,7.6,3.4,7.6,7.6C25,14.7,21.6,18.2,17.4,18.2L17.4,18.2z M21.6,6.2c-0.3-0.3-0.8-0.3-1.1,0c-0.3,0.3-0.3,0.8,0,1.1
			c1.8,1.8,1.8,4.6,0,6.4c-0.3,0.3-0.3,0.8,0,1.1c0.2,0.2,0.4,0.2,0.6,0.2c0.2,0,0.4-0.1,0.6-0.2C24,12.5,24,8.6,21.6,6.2L21.6,6.2z
			 M21.6,6.2"/>
	</g>
</g>
</svg>
