<?xml version="1.0" encoding="utf-8"?>
<!-- Generator: Adobe Illustrator 18.0.0, SVG Export Plug-In . SVG Version: 6.00 Build 0)  -->
<!DOCTYPE svg PUBLIC "-//W3C//DTD SVG 1.1//EN" "http://www.w3.org/Graphics/SVG/1.1/DTD/svg11.dtd">
<svg version="1.1" id="Layer_1" xmlns="http://www.w3.org/2000/svg" xmlns:xlink="http://www.w3.org/1999/xlink" x="0px" y="0px"
	 viewBox="0 0 226.8 255.1" enable-background="new 0 0 226.8 255.1" xml:space="preserve">
<g>
	<g>
		
			<linearGradient id="SVGID_1_" gradientUnits="userSpaceOnUse" x1="-309.9236" y1="202.4238" x2="-253.5314" y2="121.3157" gradientTransform="matrix(-2.304553e-04 1.1157 1 2.065360e-04 -48.3149 414.2686)">
			<stop  offset="0" style="stop-color:#605EA9"/>
			<stop  offset="1" style="stop-color:#F59AAB"/>
		</linearGradient>
		<path fill="url(#SVGID_1_)" d="M131.9,162.2l0-124.6c0-9.5-7.7-17.2-17.2-17.2l-2.2,0c-9.5,0-17.2,7.7-17.2,17.2l0,124.6
			c0,9.5,7.7,17.2,17.2,17.2l2.2,0C124.2,179.4,131.9,171.7,131.9,162.2z"/>
		
			<linearGradient id="SVGID_2_" gradientUnits="userSpaceOnUse" x1="40.2895" y1="146.7781" x2="132.6734" y2="69.486" gradientTransform="matrix(-1.348213e-04 0.6528 1 2.065465e-04 -48.2383 43.4277)">
			<stop  offset="0" style="stop-color:#605EA9"/>
			<stop  offset="1" style="stop-color:#F59AAB"/>
		</linearGradient>
		<path fill="url(#SVGID_2_)" d="M78.2,131l0-62.1c0-9.5-7.7-17.2-17.2-17.2l-2.2,0c-9.5,0-17.2,7.7-17.2,17.2l0,62.1
			c0,9.5,7.7,17.2,17.2,17.2l2.2,0C70.5,148.2,78.2,140.5,78.2,131z"/>
		
			<linearGradient id="SVGID_3_" gradientUnits="userSpaceOnUse" x1="40.3933" y1="254.1105" x2="132.3555" y2="177.1712" gradientTransform="matrix(-1.348213e-04 0.6528 1 2.065465e-04 -48.2383 43.4277)">
			<stop  offset="0" style="stop-color:#605EA9"/>
			<stop  offset="1" style="stop-color:#F59AAB"/>
		</linearGradient>
		<path fill="url(#SVGID_3_)" d="M185.7,130l0-60.4c0-10.1-8.2-18.3-18.3-18.3h0c-10.1,0-18.3,8.2-18.3,18.3l0,60.4
			c0,10.1,8.2,18.3,18.3,18.3h0C177.5,148.3,185.7,140.1,185.7,130z"/>
	</g>
	<g>
		
			<linearGradient id="SVGID_4_" gradientUnits="userSpaceOnUse" x1="-56.7976" y1="1059.1946" x2="-185.239" y2="1012.4457" gradientTransform="matrix(0.5077 0.8615 0.8615 -0.5077 -717.5363 692.2368)">
			<stop  offset="0" style="stop-color:#8781BD"/>
			<stop  offset="1" style="stop-color:#72C6EF"/>
		</linearGradient>
		<path fill="url(#SVGID_4_)" d="M183.7,121.7l-54.9-93.1c-4.8-8.2-15.4-10.9-23.5-6.1l-1.9,1.1c-8.2,4.8-10.9,15.4-6.1,23.5
			l54.9,93.1c4.8,8.2,15.4,10.9,23.5,6.1l1.9-1.1C185.8,140.4,188.5,129.9,183.7,121.7z"/>
		
			<linearGradient id="SVGID_5_" gradientUnits="userSpaceOnUse" x1="-44.4733" y1="1001.7486" x2="-172.9147" y2="954.9997" gradientTransform="matrix(0.5077 0.8615 0.8615 -0.5077 -717.5363 692.2368)">
			<stop  offset="0" style="stop-color:#8781BD"/>
			<stop  offset="1" style="stop-color:#72C6EF"/>
		</linearGradient>
		<path fill="url(#SVGID_5_)" d="M129.9,152.8L75.1,59.7c-4.8-8.2-15.4-10.9-23.5-6.1l-1.9,1.1c-8.2,4.8-10.9,15.4-6.1,23.5
			l54.9,93.1c4.8,8.2,15.4,10.9,23.5,6.1l1.9-1.1C132,171.5,134.8,161,129.9,152.8z"/>
	</g>
</g>
<g>
	<path fill="#2E2E2E" d="M29.4,225.6c-0.1,1.4-0.5,2.6-1.1,3.6c-0.6,0.9-1.3,1.7-2.2,2.3c-1.3,0.8-3,1.3-4.9,1.3H8.6
		c-0.5,0-0.9-0.2-1.3-0.5c-0.3-0.4-0.5-0.8-0.5-1.3v-24.7c0-1,0.8-1.8,1.8-1.8h11c1.2,0,2.9,0.1,4.5,0.9c1.5,0.7,3.4,2.3,3.8,5.6
		c0.2,1.3,0.1,2.5-0.2,3.6c-0.3,1-0.7,1.9-1.3,2.7c-0.1,0.1-0.3,0.3-0.4,0.4c0.5,0.3,1,0.7,1.4,1.1c0.8,0.8,1.3,1.7,1.7,2.8
		C29.4,222.8,29.5,224.1,29.4,225.6z M24.8,221.3c-0.7-0.7-1.8-1-2.5-1.2c-0.8-0.1-1.4-0.1-1.4-0.1h-0.1l-10.3,0h0
		c-1,0-1.8-0.8-1.8-1.8c0-1,0.8-1.8,1.8-1.8l10.2,0c0.3,0,1.9-0.3,2.8-1.4c0.6-0.8,0.9-2.1,0.7-3.6c-0.3-2.3-1.6-3.3-4.7-3.3h-9.2
		v21.1h10.8c1.2,0,2.3-0.3,3-0.7c1-0.6,1.5-1.6,1.6-3.2C26,223.5,25.6,222.2,24.8,221.3z"/>
	<path d="M56.8,233.4c-2,0-3.9-0.4-5.8-1.2c-1.8-0.8-3.3-1.8-4.7-3.2c-1.3-1.4-2.4-2.9-3.2-4.7c-0.8-1.8-1.2-3.7-1.2-5.7
		c0-2,0.4-3.9,1.2-5.7c0.8-1.7,1.8-3.3,3.2-4.6c1.4-1.4,3-2.4,4.7-3.2c1.8-0.8,3.8-1.2,5.8-1.2c3.9,0,7.6,1.5,10.3,4.4
		c1.3,1.3,2.3,2.9,3.1,4.6c0.8,1.8,1.1,3.7,1.1,5.7c0,2-0.4,3.9-1.1,5.7c-0.7,1.8-1.8,3.3-3.1,4.7C64.4,231.9,60.7,233.4,56.8,233.4
		z M56.9,207.7c-1.5,0-3,0.3-4.4,0.9c-1.4,0.6-2.6,1.4-3.6,2.4c-1,1-1.9,2.2-2.4,3.5c-0.6,1.3-0.9,2.8-0.9,4.2s0.3,2.9,0.9,4.2
		c0.6,1.3,1.4,2.5,2.4,3.5c2.1,2.1,4.9,3.3,7.9,3.3c3,0,5.8-1.2,7.9-3.3c1-1,1.8-2.2,2.3-3.5c0.5-1.4,0.8-2.8,0.8-4.3
		c0-3-1.1-5.7-3.1-7.8C62.6,208.8,59.8,207.7,56.9,207.7z"/>
	<path d="M106.3,232.9c-0.5,0-1-0.3-1.4-0.6l-17.4-20.9v19.7c0,1-0.8,1.8-1.8,1.8c-1,0-1.8-0.8-1.8-1.8v-24.7c0-0.8,0.5-1.4,1.2-1.7
		c0.7-0.3,1.5,0,2,0.5l17.4,20.9v-19.7c0-1,0.8-1.8,1.8-1.8c1,0,1.8,0.8,1.8,1.8v24.7c0,0.8-0.5,1.4-1.2,1.7
		C106.7,232.9,106.5,232.9,106.3,232.9z"/>
	<path d="M141.6,231c0,1-0.8,1.8-1.8,1.8h-17.2c-1,0-1.8-0.8-1.8-1.8v-24.7c0-1,0.8-1.8,1.8-1.8h16.9c1,0,1.8,0.8,1.8,1.8
		c0,1-0.8,1.8-1.8,1.8h-15.1v8.7h13.3c1,0,1.8,0.8,1.8,1.8c0,1-0.8,1.8-1.8,1.8h-13.3v8.8h15.4C140.8,229.2,141.6,229.9,141.6,231z"
		/>
	<path fill="#2E2E2E" d="M166.5,232.9c-0.8,0-1.4-0.4-1.7-1.1l-10.3-24.9c-0.4-0.9,0.1-1.9,1-2.3c0.9-0.4,2,0.1,2.4,1l8.6,20.9
		l8.6-20.9c0.4-0.9,1.4-1.4,2.3-1c0.9,0.4,1.4,1.4,1,2.3l-10.3,24.9C167.8,232.4,167.2,232.9,166.5,232.9z"/>
	<path fill="#2E2E2E" d="M205.9,233.4c-2,0-3.9-0.4-5.8-1.2c-1.8-0.8-3.3-1.8-4.7-3.2c-1.3-1.4-2.4-2.9-3.2-4.7
		c-0.8-1.8-1.2-3.7-1.2-5.7c0-2,0.4-3.9,1.2-5.7c0.8-1.7,1.8-3.3,3.2-4.6c1.4-1.4,3-2.4,4.7-3.2c1.8-0.8,3.8-1.2,5.8-1.2
		c3.9,0,7.6,1.5,10.3,4.4c1.3,1.3,2.3,2.9,3.1,4.6c0.8,1.8,1.1,3.7,1.1,5.7c0,2-0.4,3.9-1.1,5.7c-0.7,1.8-1.8,3.3-3.1,4.7
		C213.5,231.9,209.9,233.4,205.9,233.4z M206,207.7c-1.5,0-3,0.3-4.4,0.9c-1.4,0.6-2.6,1.4-3.6,2.4c-1,1-1.9,2.2-2.4,3.5
		c-0.6,1.3-0.9,2.8-0.9,4.2s0.3,2.9,0.9,4.2c0.6,1.3,1.4,2.5,2.4,3.5c2.1,2.1,4.9,3.3,7.9,3.3c3,0,5.8-1.2,7.9-3.3
		c1-1,1.8-2.2,2.3-3.5c0.5-1.4,0.8-2.8,0.8-4.3c0-3-1.1-5.7-3.1-7.8C211.7,208.8,209,207.7,206,207.7z"/>
</g>
</svg>
