<?xml version="1.0" encoding="utf-8"?>
<!-- Generator: Adobe Illustrator 18.0.0, SVG Export Plug-In . SVG Version: 6.00 Build 0)  -->
<!DOCTYPE svg PUBLIC "-//W3C//DTD SVG 1.1//EN" "http://www.w3.org/Graphics/SVG/1.1/DTD/svg11.dtd">
<svg version="1.1" id="Layer_1" xmlns="http://www.w3.org/2000/svg" xmlns:xlink="http://www.w3.org/1999/xlink" x="0px" y="0px"
	 viewBox="0 0 340.2 113.4" enable-background="new 0 0 340.2 113.4" xml:space="preserve">
<g>
	<g>
		
			<linearGradient id="SVGID_1_" gradientUnits="userSpaceOnUse" x1="-214.8483" y1="-4.1447" x2="-183.5897" y2="-49.1034" gradientTransform="matrix(-2.304553e-04 1.1157 1 2.065360e-04 79.6984 279.6861)">
			<stop  offset="0" style="stop-color:#605EA9"/>
			<stop  offset="1" style="stop-color:#F59AAB"/>
		</linearGradient>
		<path fill="url(#SVGID_1_)" d="M63.3,91.6l0-68.4c0-5.6-4.6-10.2-10.2-10.2h0c-5.6,0-10.2,4.6-10.2,10.2l0,68.4
			c0,5.6,4.6,10.2,10.2,10.2h0C58.8,101.8,63.3,97.2,63.3,91.6z"/>
		
			<linearGradient id="SVGID_2_" gradientUnits="userSpaceOnUse" x1="161.529" y1="-35.2453" x2="212.7076" y2="-78.0633" gradientTransform="matrix(-1.348213e-04 0.6528 1 2.065465e-04 79.7695 -64.7653)">
			<stop  offset="0" style="stop-color:#605EA9"/>
			<stop  offset="1" style="stop-color:#F59AAB"/>
		</linearGradient>
		<path fill="url(#SVGID_2_)" d="M33.3,74.1l0-33.5c0-5.6-4.6-10.2-10.2-10.2h0c-5.6,0-10.2,4.6-10.2,10.2l0,33.5
			c0,5.6,4.6,10.2,10.2,10.2h0C28.7,84.3,33.3,79.8,33.3,74.1z"/>
		
			<linearGradient id="SVGID_3_" gradientUnits="userSpaceOnUse" x1="161.3629" y1="24.9229" x2="212.7541" y2="-18.0731" gradientTransform="matrix(-1.348213e-04 0.6528 1 2.065465e-04 79.7695 -64.7653)">
			<stop  offset="0" style="stop-color:#605EA9"/>
			<stop  offset="1" style="stop-color:#F59AAB"/>
		</linearGradient>
		<path fill="url(#SVGID_3_)" d="M93.4,74.2l0-33.7c0-5.6-4.6-10.2-10.2-10.2h0c-5.6,0-10.2,4.6-10.2,10.2l0,33.7
			c0,5.6,4.6,10.2,10.2,10.2h0C88.8,84.4,93.4,79.9,93.4,74.2z"/>
	</g>
	<g>
		
			<linearGradient id="SVGID_4_" gradientUnits="userSpaceOnUse" x1="-48.9304" y1="853.7778" x2="-120.3837" y2="827.771" gradientTransform="matrix(0.5077 0.8615 0.8615 -0.5077 -628.3041 536.0835)">
			<stop  offset="0" style="stop-color:#8781BD"/>
			<stop  offset="1" style="stop-color:#72C6EF"/>
		</linearGradient>
		<path fill="url(#SVGID_4_)" d="M92,69l-30-51c-2.9-4.9-9.1-6.5-14-3.6l0,0c-4.9,2.9-6.5,9.1-3.6,14l30,51c2.9,4.9,9.1,6.5,14,3.6
			l0,0C93.2,80.1,94.8,73.9,92,69z"/>
		
			<linearGradient id="SVGID_5_" gradientUnits="userSpaceOnUse" x1="-42.0755" y1="821.6635" x2="-113.5287" y2="795.6567" gradientTransform="matrix(0.5077 0.8615 0.8615 -0.5077 -628.3041 536.0835)">
			<stop  offset="0" style="stop-color:#8781BD"/>
			<stop  offset="1" style="stop-color:#72C6EF"/>
		</linearGradient>
		<path fill="url(#SVGID_5_)" d="M61.9,86.4l-30-51c-2.9-4.9-9.1-6.5-14-3.6l0,0c-4.9,2.9-6.5,9.1-3.6,14l30,51
			c2.9,4.9,9.1,6.5,14,3.6l0,0C63.2,97.5,64.8,91.3,61.9,86.4z"/>
	</g>
</g>
<g>
	<path fill="#2E2E2E" d="M133,64.2c-0.1,1.4-0.5,2.7-1.1,3.7c-0.6,1-1.3,1.7-2.3,2.3c-1.4,0.9-3,1.3-5,1.3h-13c-0.5,0-1-0.2-1.3-0.5
		c-0.3-0.4-0.6-0.8-0.6-1.3V44.4c0-1,0.9-1.8,1.9-1.8h11.3c1.2,0,3,0.1,4.6,0.9c1.6,0.7,3.5,2.3,3.9,5.8c0.2,1.4,0.1,2.6-0.2,3.7
		c-0.3,1-0.7,1.9-1.4,2.7c-0.1,0.1-0.3,0.3-0.4,0.4c0.6,0.3,1,0.7,1.5,1.1c0.8,0.8,1.4,1.8,1.7,2.9C133,61.3,133.1,62.7,133,64.2z
		 M128.2,59.8c-0.7-0.7-1.8-1.1-2.6-1.2c-0.8-0.1-1.4-0.1-1.5-0.1h-0.1l-10.5,0h0c-1,0-1.8-0.9-1.9-1.8c0-1,0.9-1.9,1.9-1.9l10.5,0
		c0.3,0,1.9-0.3,2.9-1.5c0.7-0.9,0.9-2.1,0.7-3.7c-0.3-2.4-1.7-3.4-4.8-3.4h-9.4v21.6h11.1c1.3,0,2.3-0.3,3.1-0.7
		c1-0.6,1.5-1.7,1.7-3.3C129.5,62,129.1,60.7,128.2,59.8z"/>
	<path d="M161.1,72.2c-2,0-4-0.4-5.9-1.2c-1.8-0.8-3.4-1.9-4.8-3.3c-1.4-1.4-2.5-3-3.3-4.8c-0.8-1.8-1.2-3.8-1.2-5.8
		c0-2,0.4-4,1.2-5.8c0.8-1.8,1.9-3.4,3.3-4.8c1.4-1.4,3-2.5,4.8-3.3c1.9-0.8,3.9-1.2,6-1.2c4,0,7.8,1.6,10.6,4.5
		c1.4,1.4,2.4,3,3.1,4.8c0.8,1.9,1.1,3.8,1.1,5.8c0,2-0.4,4-1.1,5.8c-0.7,1.8-1.8,3.4-3.2,4.8C168.9,70.6,165.2,72.2,161.1,72.2z
		 M161.2,45.8c-1.6,0-3.1,0.3-4.5,0.9c-1.4,0.6-2.6,1.4-3.7,2.5c-1.1,1-1.9,2.3-2.5,3.6c-0.6,1.4-0.9,2.8-0.9,4.4
		c0,1.5,0.3,3,0.9,4.4c0.6,1.4,1.4,2.6,2.5,3.6c2.2,2.2,5.1,3.4,8.1,3.4c3.1,0,5.9-1.2,8.1-3.4c1-1,1.8-2.3,2.4-3.6
		c0.6-1.4,0.9-2.9,0.9-4.4c0-3-1.1-5.9-3.2-8C167.1,46.9,164.2,45.8,161.2,45.8z"/>
	<path d="M212,71.7c-0.6,0-1.1-0.3-1.4-0.7l-17.9-21.5v20.3c0,1-0.8,1.9-1.9,1.9c-1,0-1.9-0.8-1.9-1.9V44.4c0-0.8,0.5-1.5,1.2-1.7
		c0.7-0.3,1.6,0,2,0.6l17.9,21.5V44.5c0-1,0.8-1.9,1.9-1.9c1,0,1.9,0.8,1.9,1.9v25.4c0,0.8-0.5,1.4-1.2,1.7
		C212.4,71.7,212.2,71.7,212,71.7z"/>
	<path d="M248.3,69.7c0,1-0.8,1.9-1.9,1.9h-17.7c-1,0-1.9-0.8-1.9-1.9V44.4c0-1,0.9-1.8,1.9-1.8h17.3c1,0,1.9,0.8,1.9,1.8
		c0,1-0.8,1.9-1.9,1.9h-15.5v8.9h13.7c1,0,1.9,0.9,1.9,1.9c0,1-0.8,1.9-1.9,1.9h-13.7v9h15.8C247.5,67.9,248.3,68.7,248.3,69.7z"/>
	<path fill="#2E2E2E" d="M273.8,71.7c-0.8,0-1.4-0.4-1.7-1.1l-10.6-25.6c-0.4-0.9,0.1-2,1-2.4c1-0.4,2,0.1,2.4,1l8.9,21.5l8.9-21.5
		c0.4-0.9,1.5-1.4,2.4-1c1,0.4,1.4,1.5,1,2.4l-10.6,25.6C275.2,71.2,274.6,71.7,273.8,71.7z"/>
	<path fill="#2E2E2E" d="M314.3,72.2c-2,0-4-0.4-5.9-1.2c-1.8-0.8-3.4-1.9-4.8-3.3c-1.4-1.4-2.5-3-3.3-4.8c-0.8-1.8-1.2-3.8-1.2-5.8
		c0-2,0.4-4,1.2-5.8c0.8-1.8,1.9-3.4,3.3-4.8c1.4-1.4,3-2.5,4.8-3.3c1.9-0.8,3.9-1.2,6-1.2c4,0,7.8,1.6,10.6,4.5
		c1.4,1.4,2.4,3,3.1,4.8c0.8,1.9,1.1,3.8,1.1,5.8c0,2-0.4,4-1.1,5.8c-0.7,1.8-1.8,3.4-3.2,4.8C322.2,70.6,318.4,72.2,314.3,72.2z
		 M314.5,45.8c-1.6,0-3.1,0.3-4.5,0.9c-1.4,0.6-2.6,1.4-3.7,2.5c-1.1,1-1.9,2.3-2.5,3.6c-0.6,1.4-0.9,2.8-0.9,4.4
		c0,1.5,0.3,3,0.9,4.4c0.6,1.4,1.4,2.6,2.5,3.6c2.2,2.2,5.1,3.4,8.1,3.4c3.1,0,5.9-1.2,8.1-3.4c1-1,1.8-2.3,2.4-3.6
		c0.6-1.4,0.9-2.9,0.9-4.4c0-3-1.1-5.9-3.2-8C320.3,46.9,317.5,45.8,314.5,45.8z"/>
</g>
</svg>
