<?xml version="1.0" encoding="utf-8"?>
<!-- Generated by IcoMoon.io -->
<!DOCTYPE svg PUBLIC "-//W3C//DTD SVG 1.1//EN" "http://www.w3.org/Graphics/SVG/1.1/DTD/svg11.dtd">
<svg version="1.1" xmlns="http://www.w3.org/2000/svg" xmlns:xlink="http://www.w3.org/1999/xlink" width="32" height="32" viewBox="0 0 32 32">
<path fill="#7567a4" d="M7 10.333h17.333c1.133 0 2-0.867 2-2v-1.333c0-1.133-0.867-2-2-2h-17.333c-1.133 0-2 0.867-2 2v1.333c0 1.133 0.867 2 2 2zM7.667 6.333h16c0.733 0 1.333 0.6 1.333 1.333s-0.6 1.333-1.333 1.333h-16c-0.733 0-1.333-0.6-1.333-1.333s0.6-1.333 1.333-1.333zM24.333 21h-17.333c-1.133 0-2 0.867-2 2v1.333c0 1.133 0.867 2 2 2h17.333c1.133 0 2-0.867 2-2v-1.333c0-1.133-0.867-2-2-2zM23.667 25h-16c-0.733 0-1.333-0.6-1.333-1.333s0.6-1.333 1.333-1.333h16c0.733 0 1.333 0.6 1.333 1.333s-0.6 1.333-1.333 1.333zM7 18.333h17.333c1.133 0 2-0.867 2-2v-1.333c0-1.133-0.867-2-2-2h-17.333c-1.133 0-2 0.867-2 2v1.333c0 1.133 0.867 2 2 2zM7.667 14.333h16c0.733 0 1.333 0.6 1.333 1.333s-0.6 1.333-1.333 1.333h-16c-0.733 0-1.333-0.6-1.333-1.333s0.6-1.333 1.333-1.333z"></path>
</svg>
