<?xml version="1.0" encoding="utf-8"?>
<!-- Generated by IcoMoon.io -->
<!DOCTYPE svg PUBLIC "-//W3C//DTD SVG 1.1//EN" "http://www.w3.org/Graphics/SVG/1.1/DTD/svg11.dtd">
<svg version="1.1" xmlns="http://www.w3.org/2000/svg" xmlns:xlink="http://www.w3.org/1999/xlink" width="32" height="32" viewBox="0 0 32 32">
<path fill="#7567a4" d="M8.333 16.333c-1.867 0-3.333 1.467-3.333 3.333 0 1.6 1.133 2.933 2.667 3.267v3.4h1.333v-3.4c1.533-0.333 2.667-1.667 2.667-3.267 0-1.867-1.467-3.333-3.333-3.333zM8.333 21.667c-1.133 0-2-0.867-2-2s0.867-2 2-2c1.133 0 2 0.867 2 2s-0.867 2-2 2zM9 5h-1.333v11.333h1.333v-11.333zM23 16.333c-1.867 0-3.333 1.467-3.333 3.333 0 1.6 1.133 2.933 2.667 3.267v3.4h1.333v-3.4c1.533-0.333 2.667-1.667 2.667-3.267 0-1.867-1.467-3.333-3.333-3.333zM23 21.667c-1.133 0-2-0.867-2-2s0.867-2 2-2c1.133 0 2 0.867 2 2s-0.867 2-2 2zM23.667 5h-1.333v11.333h1.333v-11.333zM16.333 8.4v-3.4h-1.333v3.4c-1.533 0.333-2.667 1.667-2.667 3.267s1.133 2.933 2.667 3.267v11.4h1.333v-11.4c1.533-0.333 2.667-1.667 2.667-3.267s-1.133-2.933-2.667-3.267zM15.667 13.667c-1.133 0-2-0.867-2-2s0.867-2 2-2c1.133 0 2 0.867 2 2s-0.867 2-2 2z"></path>
</svg>
