<?xml version="1.0" encoding="utf-8"?>
<!-- Generated by IcoMoon.io -->
<!DOCTYPE svg PUBLIC "-//W3C//DTD SVG 1.1//EN" "http://www.w3.org/Graphics/SVG/1.1/DTD/svg11.dtd">
<svg version="1.1" xmlns="http://www.w3.org/2000/svg" xmlns:xlink="http://www.w3.org/1999/xlink" width="32" height="32" viewBox="0 0 32 32">
<path fill="#7567a4" d="M3.4 17.667v0c0.067 0.133 0.067 0.2 0.133 0.267s0.133 0.133 0.2 0.2l3.933 5.667c0.467 0.667 1.2 0.667 1.6 0 0.467-0.667 0.467-1.8 0-2.467l-3.133-4.8 3.133-4.8c0.467-0.667 0.467-1.8 0-2.467s-1.2-0.667-1.6 0l-4.067 6.267c-0.333 0.533-0.4 1.333-0.2 2-0.067 0-0.067 0.067 0 0.133z"></path>
<path fill="#7567a4" d="M22.8 23.8c0.467 0.667 1.2 0.667 1.6 0l3.933-5.667c0.067-0.067 0.133-0.133 0.2-0.2s0.067-0.133 0.067-0.2v-0.067c0.067-0.067 0.067-0.133 0.067-0.2 0.2-0.667 0.133-1.467-0.2-2l-4.067-6.267c-0.467-0.667-1.2-0.667-1.6 0-0.467 0.667-0.467 1.8 0 2.467l3.133 4.8-3.133 4.867c-0.467 0.667-0.467 1.8 0 2.467z"></path>
<path fill="#7567a4" d="M14.267 23.8l5.2-11.867c0.467-0.733 0.467-1.933 0-2.667s-1.267-0.733-1.733 0l-5.2 11.867c-0.467 0.733-0.467 1.933 0 2.667s1.267 0.733 1.733 0z"></path>
</svg>
