<?xml version="1.0" encoding="utf-8"?>
<!-- Generated by IcoMoon.io -->
<!DOCTYPE svg PUBLIC "-//W3C//DTD SVG 1.1//EN" "http://www.w3.org/Graphics/SVG/1.1/DTD/svg11.dtd">
<svg version="1.1" xmlns="http://www.w3.org/2000/svg" xmlns:xlink="http://www.w3.org/1999/xlink" width="32" height="32" viewBox="0 0 32 32">
<path fill="#7567a4" d="M8.333 8c-0.4 0-0.667 0.267-0.667 0.667s0.267 0.667 0.667 0.667c0.4 0 0.667-0.267 0.667-0.667s-0.267-0.667-0.667-0.667zM24.333 5.333h-17.333c-1.133 0-2 0.867-2 2v17.333c0 1.133 0.867 2 2 2h17.333c1.133 0 2-0.867 2-2v-17.333c0-1.133-0.867-2-2-2zM25 24c0 0.733-0.6 1.333-1.333 1.333h-16c-0.733 0-1.333-0.6-1.333-1.333v-12h18.667v12zM25 10.667h-18.667v-2.667c0-0.733 0.6-1.333 1.333-1.333h16c0.733 0 1.333 0.6 1.333 1.333v2.667zM11 8c-0.4 0-0.667 0.267-0.667 0.667s0.267 0.667 0.667 0.667c0.4 0 0.667-0.267 0.667-0.667s-0.267-0.667-0.667-0.667zM13.667 8c-0.4 0-0.667 0.267-0.667 0.667s0.267 0.667 0.667 0.667 0.667-0.267 0.667-0.667c0-0.4-0.267-0.667-0.667-0.667z"></path>
</svg>
