<?xml version="1.0" encoding="UTF-8"?>
<svg width="29px" height="29px" viewBox="0 0 29 29" version="1.1" xmlns="http://www.w3.org/2000/svg" xmlns:xlink="http://www.w3.org/1999/xlink">
    <!-- Generator: Sketch 3.8.1 (29687) - http://www.bohemiancoding.com/sketch -->
    <title>circular-down-arrow-button</title>
    <desc>Created with Sketch.</desc>
    <defs></defs>
    <g id="Page-1" stroke="none" stroke-width="1" fill="none" fill-rule="evenodd">
        <g id="TEMPLATE" transform="translate(-809.000000, -1509.000000)" fill="#FFFFFF">
            <g id="circular-down-arrow-button" transform="translate(823.500000, 1523.500000) rotate(-90.000000) translate(-823.500000, -1523.500000) translate(809.000000, 1509.000000)">
                <path d="M14.4780962,0 C6.48109788,0 0,6.48109788 0,14.4780962 C0,22.4750946 6.48109788,28.9561925 14.4780962,28.9561925 C22.4750946,28.9561925 28.9561925,22.4750946 28.9561925,14.4780962 C28.9561925,6.48109788 22.4750946,0 14.4780962,0 L14.4780962,0 Z M14.4780962,27.552602 C7.27762806,27.552602 1.40359054,21.6785644 1.40359054,14.4780962 C1.40359054,7.27762806 7.27762806,1.40359054 14.4780962,1.40359054 C21.6785644,1.40359054 27.552602,7.27762806 27.552602,14.4780962 C27.552602,21.6785644 21.6785644,27.552602 14.4780962,27.552602 L14.4780962,27.552602 Z M20.1240604,14.9342904 C20.3907374,15.2009674 20.3907374,15.6536134 20.1240604,15.9203377 L14.9693458,21.110155 C14.9307423,21.1487586 14.8921387,21.1873622 14.8570359,21.1873622 L14.8184323,21.2259657 C14.7798287,21.2259657 14.7798287,21.2645693 14.7412251,21.2645693 C14.7026215,21.2645693 14.7026215,21.2645693 14.6640179,21.3031729 L14.5868108,21.3031729 L14.4359445,21.3031729 L14.2850783,21.3031729 L14.2078711,21.3031729 C14.1692675,21.3031729 14.1692675,21.3031729 14.1306639,21.2645693 C14.0920604,21.2645693 14.0920604,21.2259657 14.0534568,21.2259657 C14.0534568,21.2259657 14.0148532,21.2259657 14.0148532,21.1873622 C13.9762496,21.1487586 13.937646,21.1487586 13.9025432,21.110155 L8.79352855,15.8816868 C8.52685155,15.6150098 8.52685155,15.1623638 8.79352855,14.8956395 C9.06020555,14.6289152 9.51285155,14.6289625 9.77957586,14.8956395 L13.7973768,18.9134405 L13.7973768,7.80752855 C13.7973768,7.4285416 14.0991566,7.12676183 14.4781436,7.12676183 C14.8571305,7.12676183 15.1589103,7.4285416 15.1589103,7.80752855 L15.1589103,18.9099869 L19.1030049,14.9693931 C19.4047374,14.6675661 19.8608842,14.6675661 20.1240604,14.9342904 L20.1240604,14.9342904 Z" id="Shape"></path>
            </g>
        </g>
    </g>
</svg>