<?xml version="1.0" encoding="UTF-8"?>
<svg width="116px" height="96px" viewBox="0 0 116 96" version="1.1" xmlns="http://www.w3.org/2000/svg" xmlns:xlink="http://www.w3.org/1999/xlink">
    <!-- Generator: Sketch 43.1 (39012) - http://www.bohemiancoding.com/sketch -->
    <title>Landing Page</title>
    <desc>Created with Sketch.</desc>
    <defs>
        <linearGradient x1="14.3529298%" y1="-3.99551812%" x2="107.406549%" y2="100%" id="linearGradient-1">
            <stop stop-color="#FF616D" offset="0%"></stop>
            <stop stop-color="#FFBC71" offset="100%"></stop>
        </linearGradient>
        <linearGradient x1="46.7073925%" y1="-3.99551812%" x2="55.3024619%" y2="100%" id="linearGradient-2">
            <stop stop-color="#FF616D" offset="0%"></stop>
            <stop stop-color="#FFBC71" offset="100%"></stop>
        </linearGradient>
        <linearGradient x1="11.2952567%" y1="-3.99551812%" x2="112.330669%" y2="100%" id="linearGradient-3">
            <stop stop-color="#FF616D" offset="0%"></stop>
            <stop stop-color="#FFBC71" offset="100%"></stop>
        </linearGradient>
        <linearGradient x1="47.7170093%" y1="-3.99551812%" x2="53.6765607%" y2="100%" id="linearGradient-4">
            <stop stop-color="#FF616D" offset="0%"></stop>
            <stop stop-color="#FFBC71" offset="100%"></stop>
        </linearGradient>
    </defs>
    <g id="Page-1" stroke="none" stroke-width="1" fill="none" fill-rule="evenodd">
        <g id="Landing-Page" fill-rule="nonzero">
            <path d="M108.27228,0.591345619 L7.96327333,0.591345619 C3.86535812,0.591345619 0.532803181,3.94093567 0.532803181,8.0597983 L0.532803181,75.2746962 C0.532803181,79.3935588 3.86535812,82.7431489 7.96327333,82.7431489 L41.3996088,82.7431489 L41.3996088,92.0787148 L28.3966762,92.0787148 L28.3966762,95.8129411 L41.3996088,95.8129411 L74.8359443,95.8129411 L87.838877,95.8129411 L87.838877,92.0787148 L74.8359443,92.0787148 L74.8359443,82.7431489 L108.27228,82.7431489 C112.370195,82.7431489 115.70275,79.3935588 115.70275,75.2746962 L115.70275,8.0597983 C115.70275,3.94093567 112.370195,0.591345619 108.27228,0.591345619 L108.27228,0.591345619 Z M71.1207093,92.0783227 L45.1144538,92.0783227 L45.1144538,82.7427568 L71.1207093,82.7427568 L71.1207093,92.0783227 L71.1207093,92.0783227 Z M111.987515,75.2746962 C111.987515,77.3339315 110.321432,79.0089226 108.27228,79.0089226 L74.8359443,79.0089226 L41.3996088,79.0089226 L7.96327333,79.0089226 C5.91451077,79.0089226 4.24803826,77.3343236 4.24803826,75.2746962 L4.24803826,8.0597983 C4.24803826,6.00056303 5.91412068,4.32557196 7.96327333,4.32557196 L108.27228,4.32557196 C110.321042,4.32557196 111.987515,6.00017094 111.987515,8.0597983 L111.987515,75.2746962 L111.987515,75.2746962 Z" id="Shape" fill="url(#linearGradient-1)"></path>
            <path d="M10.2293171,11.4211509 C9.20338323,11.4211509 8.37169953,10.5852159 8.37169953,9.55403776 C8.37169953,8.52285963 9.20338323,7.68692459 10.2293171,7.68692459 C11.2552509,7.68692459 12.0869346,8.52285963 12.0869346,9.55403776 C12.0869346,10.5852159 11.2552509,11.4211509 10.2293171,11.4211509 Z M15.8021697,11.4211509 C14.7762358,11.4211509 13.9445521,10.5852159 13.9445521,9.55403776 C13.9445521,8.52285963 14.7762358,7.68692459 15.8021697,7.68692459 C16.8281035,7.68692459 17.6597872,8.52285963 17.6597872,9.55403776 C17.6597872,10.5852159 16.8281035,11.4211509 15.8021697,11.4211509 Z M21.3750223,11.4211509 C20.3490885,11.4211509 19.5174048,10.5852159 19.5174048,9.55403776 C19.5174048,8.52285963 20.3490885,7.68692459 21.3750223,7.68692459 C22.4009561,7.68692459 23.2326398,8.52285963 23.2326398,9.55403776 C23.2326398,10.5852159 22.4009561,11.4211509 21.3750223,11.4211509 Z" id="Combined-Shape" fill="url(#linearGradient-2)"></path>
            <path d="M15.0032615,43.44124 L41.009517,43.44124 L41.009517,21.0362741 L15.0032615,21.0362741 L15.0032615,43.44124 L15.0032615,43.44124 Z M18.0661395,24.1148414 L37.9466389,24.1148414 L37.9466389,40.3618885 L18.0661395,40.3618885 L18.0661395,24.7701083 L18.0661395,24.1148414 Z" id="Shape" fill="url(#linearGradient-3)"></path>
            <path d="M44.8930822,43.2354808 L70.8993376,43.2354808 L70.8993376,20.8305149 L44.8930822,20.8305149 L44.8930822,43.2354808 L44.8930822,43.2354808 Z M47.9559602,23.9090822 L67.8364596,23.9090822 L67.8364596,40.1561293 L47.9559602,40.1561293 L47.9559602,24.5643491 L47.9559602,23.9090822 Z" id="Shape-Copy" fill="url(#linearGradient-3)"></path>
            <path d="M74.9015062,43.2354808 L100.907762,43.2354808 L100.907762,20.8305149 L74.9015062,20.8305149 L74.9015062,43.2354808 L74.9015062,43.2354808 Z M77.9643842,23.9090822 L97.8448836,23.9090822 L97.8448836,40.1561293 L77.9643842,40.1561293 L77.9643842,24.5643491 L77.9643842,23.9090822 Z" id="Shape-Copy-2" fill="url(#linearGradient-3)"></path>
            <path d="M15.0032615,47.8303412 L70.7306174,47.8303412 L70.7306174,50.9093006 L15.0032615,50.9093006 L15.0032615,47.8303412 Z M15.0032615,55.2987939 L70.7306174,55.2987939 L70.7306174,58.3777533 L15.0032615,58.3777533 L15.0032615,55.2987939 Z M15.0032615,62.7668545 L70.7306174,62.7668545 L70.7306174,65.8458139 L15.0032615,65.8458139 L15.0032615,62.7668545 Z M75.0982095,47.8303412 L101.104465,47.8303412 L101.104465,50.9093006 L75.0982095,50.9093006 L75.0982095,47.8303412 Z M75.0982095,55.2987939 L101.104465,55.2987939 L101.104465,58.3777533 L75.0982095,58.3777533 L75.0982095,55.2987939 Z M75.0982095,62.7668545 L101.104465,62.7668545 L101.104465,65.8458139 L75.0982095,65.8458139 L75.0982095,62.7668545 Z" id="Combined-Shape" fill="url(#linearGradient-4)"></path>
        </g>
    </g>
</svg>