<?xml version="1.0" encoding="UTF-8"?>
<svg width="249px" height="78px" viewBox="0 0 249 78" version="1.1" xmlns="http://www.w3.org/2000/svg" xmlns:xlink="http://www.w3.org/1999/xlink">
    <!-- Generator: Sketch 43.1 (39012) - http://www.bohemiancoding.com/sketch -->
    <title>logo icon</title>
    <desc>Created with Sketch.</desc>
    <defs>
        <linearGradient x1="50%" y1="0%" x2="50%" y2="100%" id="linearGradient-1">
            <stop stop-color="#FF415E" offset="0%"></stop>
            <stop stop-color="#FF8741" offset="100%"></stop>
        </linearGradient>
    </defs>
    <g id="Page-1" stroke="none" stroke-width="1" fill="none" fill-rule="evenodd" stroke-linecap="square">
        <g id="BONEVO-HOME1-Copy" transform="translate(-76.000000, -24.000000)">
            <g id="logo-icon" transform="translate(76.000000, 26.000000)">
                <path d="M41.6307229,63.8582403 C41.5048265,63.6465468 41.3771453,63.4318102 41.2477814,63.2141997 C39.2178782,59.799581 37.1879969,56.3745314 35.2935945,53.1634237 C32.8588224,49.0363623 30.8300807,45.5713882 29.34346,42.9939943 C28.5009514,41.5333147 27.8444304,40.3781591 27.3920605,39.5588814 C27.1571765,39.1334881 26.9791575,38.8019015 26.8619732,38.5715424 C26.8930668,38.6326657 26.8032489,38.4283128 26.8032489,38.6942514 L26.8032489,11.8901577 C26.9381604,12.0805905 27.0797122,12.284547 27.2274367,12.5015048 C28.6988053,14.662452 30.7252819,18.0148295 33.1318566,22.2235853 C35.0614051,25.5980904 37.15156,29.3779453 39.0731404,32.9404888 C39.8335187,34.3502037 40.5194453,35.6376138 41.0292077,36.6095171 C41.2599857,37.0495138 41.4453693,37.4072265 41.5715339,37.6557436 C41.6312487,37.7733689 41.676283,37.8637675 41.7044589,37.9223713 C41.5218007,37.5424561 41.6307238,37.7922136 41.6307232,37.4947895 L41.6307232,37.4947872 L41.6307229,63.8582405 L41.6307229,63.8582403 Z" id="Fill-1" stroke="#FFFFFF" stroke-width="2.5"></path>
                <path d="M1.32164985,26.7460652 C1.45640118,26.9366257 1.59778146,27.140682 1.74533322,27.3577206 C3.21186781,29.5148931 5.22873314,32.8524005 7.65058285,37.0827255 C7.93999433,37.5882501 8.23411873,38.1046812 8.5326088,38.6313184 C10.2861542,41.7251643 12.1178202,45.0415142 13.9176035,48.3580699 C14.5476119,49.5190196 15.1285883,50.5969861 15.6468225,51.5642465 C15.8281302,51.9026488 15.9886182,52.2029915 16.1265737,52.4618106 C16.132377,52.4727086 16.1379389,52.4831532 16.1432715,52.4931673 C15.9872632,56.4951908 12.7319731,59.6466367 8.73529067,59.6466367 C4.67050339,59.6466367 1.32164985,56.282017 1.32164985,52.1922813 L1.32164985,26.7460652 Z" id="Fill-3" stroke="#FFFFFF" stroke-width="2.5"></path>
                <path d="M69.2646318,52.8332615 L69.549858,23.5194104 C69.2646318,17.0272832 64.4247073,14.815055 60.8860246,14.815055 C57.3473418,14.815055 52.456168,16.105667 52.456168,20.8844111 C52.456168,20.8844111 66.5415703,45.1054502 66.6631841,45.3237437" id="Fill-5" stroke="#FFFFFF" stroke-width="2.5"></path>
                <path d="M15.13216,19.8002893 L40.6128629,63.320181 C42.7273216,66.9095027 41.5671918,71.4371646 37.9949514,73.5611309 C34.4310232,75.6803207 29.9329502,74.5169661 27.8194737,70.9290397 L2.33937202,27.4106888 C0.225096129,23.8213969 1.38522866,19.2936734 4.95734559,17.1695161 C8.52081054,15.0507674 13.0181965,16.213488 15.13216,19.8002893 Z" id="Fill-10" stroke="#FFFFFF" stroke-width="2.5"></path>
                <path d="M68.1604096,47.8262369 L42.6788297,4.30484745 C40.2155301,0.123373785 34.9493048,-1.24187107 30.7872974,1.2327562 C26.6254826,3.70757701 25.2664008,8.99843308 27.7295078,13.1799067 L53.2112803,56.7011026 C55.6743873,60.8825763 60.9406126,62.2480147 65.10262,59.7731939 C69.1796727,57.2985666 70.5387546,52.0077106 68.1604096,47.8262369" id="Fill-7" stroke="#FFFFFF" stroke-width="2.5"></path>
                <g id="Page-1-Copy" transform="translate(91.163934, 27.142857)" fill="#FFFFFF">
                    <path d="M11.4159863,11.3498871 C10.8416534,11.2789373 10.4107815,11.2789373 10.3389696,11.2789373 L10.2671576,11.2789373 L2.72836633,11.2789373 C2.65655437,11.2789374 2.65655436,8.65427495 2.72836633,8.65427487 L10.2671576,8.65427487 C10.4825935,8.65427487 11.6314222,8.44142527 12.349379,7.59018776 C12.8519,6.95179984 12.9955239,6.10056233 12.8519,4.96552535 C12.6366269,3.26305032 11.6314222,2.55371254 9.4055768,2.55371254 L2.65655436,2.55371254 L2.65655436,17.8759878 L10.6262174,17.8759878 C11.5596102,17.8759878 12.2775671,17.6632991 12.8519,17.3794996 C13.5700197,16.9538004 13.9289167,16.1735128 14.0725406,15.0386367 C14.2161646,13.7617 13.9289167,12.8395126 13.2827718,12.2011247 C12.7802509,11.7046365 11.9903192,11.420837 11.4159863,11.3498871 Z M15.9393262,17.9469377 C15.5084544,18.6562754 15.0059334,19.1529245 14.2879765,19.5784628 C13.2827718,20.2170116 12.1339431,20.5006502 10.6980294,20.5006502 L1.36426459,20.5006502 C1.00520474,20.5006502 0.646307727,20.3587505 0.430871818,20.1460617 C0.215435909,19.8622623 0,19.5784628 0,19.2238744 L0,1.27693671 C0,0.567598932 0.646307727,0 1.36426459,0 L9.47738877,0 C10.3389696,0 11.6314222,0.0709498665 12.7802509,0.638548798 C13.9289167,1.13503698 15.2931813,2.27007396 15.5802663,4.75283663 C15.7238903,5.74597388 15.6520783,6.59721139 15.4366424,7.37749904 C15.2213693,8.08683682 14.9341214,8.72522474 14.4316005,9.29266278 C14.3597885,9.36361265 14.2161646,9.50551238 14.1443526,9.57646225 C14.5752244,9.78931185 14.8623095,10.0731113 15.2213693,10.3567499 C15.7957022,10.9243488 16.226574,11.6336866 16.4418471,12.4139743 C16.729095,13.2652118 16.800907,14.258349 16.729095,15.3222752 C16.657283,16.3154125 16.3700351,17.2375999 15.9393262,17.9469377 Z" id="Fill-13"></path>
                    <path d="M36.8375735,2.69561227 C35.6887448,2.69561227 34.6118909,2.90846187 33.6066862,3.33400019 C32.6014815,3.75969939 31.7399007,4.32713743 30.9501318,5.10742508 C30.160363,5.81676286 29.5858672,6.73895024 29.1551583,7.66113762 C28.7242864,8.65427487 28.5090134,9.64741212 28.5090134,10.7824491 C28.5090134,11.8463753 28.7242864,12.9104624 29.1551583,13.9035997 C29.5858672,14.8967369 30.160363,15.7479744 30.9501318,16.4573122 C32.5296695,18.0178875 34.6118909,18.869125 36.7657615,18.869125 C38.9916069,18.869125 41.0018535,18.0178875 42.5813912,16.4573122 C43.2995109,15.7479744 43.8738438,14.8257871 44.3045528,13.9035997 C44.7354246,12.9104624 44.9508605,11.8463753 44.9508605,10.7824491 C44.9508605,8.65427487 44.1610917,6.59705051 42.6532031,5.10742508 C41.0736655,3.47589992 38.9916069,2.69561227 36.8375735,2.69561227 M36.7657615,21.4228376 C35.3298478,21.4228376 33.8937712,21.1390381 32.5296695,20.5716001 C31.2373797,20.004162 30.088551,19.2238744 29.0833463,18.2307371 C28.0781416,17.2375999 27.2883727,16.1025629 26.7140398,14.8257871 C26.1395441,13.5488504 25.852459,12.1301748 25.852459,10.7114992 C25.852459,9.29266278 26.1395441,7.87398722 26.7140398,6.59705051 C27.2883727,5.32027468 28.0781416,4.1852377 29.0833463,3.19210045 C30.088551,2.19912409 31.2373797,1.41867556 32.5296695,0.851237514 C33.8937712,0.283799466 35.3298478,0 36.8375735,0 C39.7095637,0 42.4379301,1.13503698 44.4481767,3.19210045 C45.4533814,4.1852377 46.1713383,5.32027468 46.6740221,6.59705051 C47.248355,7.94493709 47.4637909,9.29266278 47.4637909,10.7114992 C47.4637909,12.1301748 47.176543,13.5488504 46.6740221,14.8257871 C46.1713383,16.1025629 45.3815695,17.2375999 44.3763647,18.2307371 C42.3661181,20.2878006 39.7095637,21.4228376 36.7657615,21.4228376" id="Fill-15"></path>
                    <path d="M73.733012,20.655102 C73.3021402,20.655102 72.9432432,20.4422524 72.7278073,20.1586138 L59.8759073,4.90712754 L59.8759073,19.3073763 C59.8759073,20.0167141 59.3015744,20.655102 58.5118056,20.655102 C57.7938487,20.655102 57.147541,20.0876639 57.147541,19.3073763 L57.147541,1.28948878 C57.147541,0.721889843 57.5066008,0.225401662 58.0091218,0.0835019292 C58.5118056,-0.12934767 59.1579505,0.0835019292 59.4451983,0.509201128 L72.2970983,15.7605265 L72.2970983,1.36043864 C72.2970983,0.650939977 72.8714312,0.0125520627 73.6612001,0.0125520627 C74.3791569,0.0125520627 75.0254647,0.57999011 75.0254647,1.36043864 L75.0254647,19.3783262 C75.0254647,19.9457642 74.6664048,20.3713025 74.1638839,20.5841521 C74.0202599,20.655102 73.876636,20.655102 73.733012,20.655102" id="Fill-17"></path>
                    <path d="M99.7972981,19.2238744 C99.7972981,19.9332121 99.2229652,20.5716001 98.4331964,20.5716001 L85.7247575,20.5716001 C85.0068006,20.5716001 84.3606557,20.004162 84.3606557,19.2238744 L84.3606557,1.27693671 C84.3606557,0.567598932 85.0068006,0 85.7247575,0 L98.1459485,0 C98.8639054,0 99.5100502,0.567598932 99.5100502,1.27693671 C99.5100502,1.98627449 98.9357173,2.62466241 98.1459485,2.62466241 L87.0172101,2.62466241 L87.0172101,8.93807433 L96.8534959,8.93807433 C97.5716156,8.93807433 98.2177605,9.57646225 98.2177605,10.2858 C98.2177605,10.9952987 97.6432647,11.6336866 96.8534959,11.6336866 L87.0172101,11.6336866 L87.0172101,18.0178875 L98.3613844,18.0178875 C99.2229652,17.9470985 99.7972981,18.5145366 99.7972981,19.2238744" id="Fill-19"></path>
                    <path d="M117.783812,20.7414575 C117.209479,20.7414575 116.778608,20.457658 116.563172,19.9611699 L108.952568,1.80138262 C108.665321,1.1629947 109.02438,0.382707054 109.670525,0.0989075883 C110.388482,-0.184891878 111.106602,0.169857455 111.393687,0.808245369 L117.783812,16.0595707 L124.173775,0.808245369 C124.461023,0.169857455 125.250792,-0.184891878 125.896936,0.0989075883 C126.615056,0.382707054 126.902141,1.1629947 126.615056,1.80138262 L119.00429,19.9611699 C118.789017,20.3867082 118.358145,20.7414575 117.783812,20.7414575" id="Fill-21"></path>
                    <path d="M147.1225,2.69561227 C145.973672,2.69561227 144.896818,2.90846187 143.891613,3.33400019 C142.886408,3.75969939 142.024827,4.32713743 141.235059,5.10742508 C140.44529,5.81676286 139.870794,6.73895024 139.440085,7.66113762 C139.009213,8.65427487 138.79394,9.64741212 138.79394,10.7824491 C138.79394,11.8463753 139.009213,12.9104624 139.440085,13.9035997 C139.870794,14.8967369 140.44529,15.7479744 141.235059,16.4573122 C142.814596,18.0178875 144.896818,18.869125 147.050688,18.869125 C149.276534,18.869125 151.28678,18.0178875 152.866318,16.4573122 C153.584438,15.7479744 154.158771,14.8257871 154.589479,13.9035997 C155.020351,12.9104624 155.235787,11.8463753 155.235787,10.7824491 C155.235787,8.65427487 154.446018,6.59705051 152.93813,5.10742508 C151.28678,3.47589992 149.276534,2.69561227 147.1225,2.69561227 M146.978876,21.4228376 C145.542963,21.4228376 144.106886,21.1390381 142.742784,20.5716001 C141.450494,20.004162 140.301666,19.2238744 139.296461,18.2307371 C138.291256,17.2375999 137.501487,16.1025629 136.927155,14.8257871 C136.352822,13.5488504 136.065574,12.1301748 136.065574,10.7114992 C136.065574,9.29266278 136.352659,7.87398722 136.927155,6.59705051 C137.501487,5.32027468 138.291256,4.1852377 139.296461,3.19210045 C140.301666,2.19912409 141.450494,1.41867556 142.742784,0.851237514 C144.106886,0.283799466 145.542963,0 147.050688,0 C149.922678,0 152.651045,1.13503698 154.661291,3.19210045 C155.666496,4.1852377 156.384453,5.32027468 156.887137,6.59705051 C157.46147,7.94493709 157.676906,9.29266278 157.676906,10.7114992 C157.676906,12.1301748 157.389658,13.5488504 156.887137,14.8257871 C156.384453,16.1025629 155.594684,17.2375999 154.589479,18.2307371 C152.651045,20.2878006 149.922678,21.4228376 146.978876,21.4228376" id="Fill-23"></path>
                </g>
            </g>
        </g>
    </g>
</svg>