<?xml version="1.0" encoding="UTF-8"?>
<svg width="116px" height="96px" viewBox="0 0 116 96" version="1.1" xmlns="http://www.w3.org/2000/svg" xmlns:xlink="http://www.w3.org/1999/xlink">
    <!-- Generator: Sketch 43.1 (39012) - http://www.bohemiancoding.com/sketch -->
    <title>photo gallery icon</title>
    <desc>Created with Sketch.</desc>
    <defs>
        <linearGradient x1="104.728643%" y1="90.6873766%" x2="9.06129788%" y2="12.6867538%" id="linearGradient-1">
            <stop stop-color="#88BE29" offset="0%"></stop>
            <stop stop-color="#429321" offset="100%"></stop>
        </linearGradient>
        <linearGradient x1="55.0551121%" y1="90.6873766%" x2="46.2186212%" y2="12.6867538%" id="linearGradient-2">
            <stop stop-color="#88BE29" offset="0%"></stop>
            <stop stop-color="#429321" offset="100%"></stop>
        </linearGradient>
        <linearGradient x1="65.8561256%" y1="90.6873766%" x2="38.139132%" y2="12.6867538%" id="linearGradient-3">
            <stop stop-color="#88BE29" offset="0%"></stop>
            <stop stop-color="#429321" offset="100%"></stop>
        </linearGradient>
        <linearGradient x1="62.8097922%" y1="90.6873766%" x2="40.4178828%" y2="12.6867538%" id="linearGradient-4">
            <stop stop-color="#88BE29" offset="0%"></stop>
            <stop stop-color="#429321" offset="100%"></stop>
        </linearGradient>
        <linearGradient x1="56.5450283%" y1="90.6873766%" x2="45.1041182%" y2="12.6867538%" id="linearGradient-5">
            <stop stop-color="#88BE29" offset="0%"></stop>
            <stop stop-color="#429321" offset="100%"></stop>
        </linearGradient>
    </defs>
    <g id="Page-1" stroke="none" stroke-width="1" fill="none" fill-rule="evenodd">
        <g id="photo-gallery-icon" fill-rule="nonzero">
            <path d="M108.27228,0.591345619 L7.96327333,0.591345619 C3.86535812,0.591345619 0.532803181,3.94093567 0.532803181,8.0597983 L0.532803181,75.2746962 C0.532803181,79.3935588 3.86535812,82.7431489 7.96327333,82.7431489 L41.3996088,82.7431489 L41.3996088,92.0787148 L28.3966762,92.0787148 L28.3966762,95.8129411 L41.3996088,95.8129411 L74.8359443,95.8129411 L87.838877,95.8129411 L87.838877,92.0787148 L74.8359443,92.0787148 L74.8359443,82.7431489 L108.27228,82.7431489 C112.370195,82.7431489 115.70275,79.3935588 115.70275,75.2746962 L115.70275,8.0597983 C115.70275,3.94093567 112.370195,0.591345619 108.27228,0.591345619 L108.27228,0.591345619 Z M71.1207093,92.0783227 L45.1144538,92.0783227 L45.1144538,82.7427568 L71.1207093,82.7427568 L71.1207093,92.0783227 L71.1207093,92.0783227 Z M111.987515,75.2746962 C111.987515,77.3339315 110.321432,79.0089226 108.27228,79.0089226 L74.8359443,79.0089226 L41.3996088,79.0089226 L7.96327333,79.0089226 C5.91451077,79.0089226 4.24803826,77.3343236 4.24803826,75.2746962 L4.24803826,8.0597983 C4.24803826,6.00056303 5.91412068,4.32557196 7.96327333,4.32557196 L108.27228,4.32557196 C110.321042,4.32557196 111.987515,6.00017094 111.987515,8.0597983 L111.987515,75.2746962 L111.987515,75.2746962 Z" id="Shape" fill="url(#linearGradient-1)"></path>
            <path d="M10.2293171,11.4211509 C9.20338323,11.4211509 8.37169953,10.5852159 8.37169953,9.55403776 C8.37169953,8.52285963 9.20338323,7.68692459 10.2293171,7.68692459 C11.2552509,7.68692459 12.0869346,8.52285963 12.0869346,9.55403776 C12.0869346,10.5852159 11.2552509,11.4211509 10.2293171,11.4211509 Z M15.8021697,11.4211509 C14.7762358,11.4211509 13.9445521,10.5852159 13.9445521,9.55403776 C13.9445521,8.52285963 14.7762358,7.68692459 15.8021697,7.68692459 C16.8281035,7.68692459 17.6597872,8.52285963 17.6597872,9.55403776 C17.6597872,10.5852159 16.8281035,11.4211509 15.8021697,11.4211509 Z M21.3750223,11.4211509 C20.3490885,11.4211509 19.5174048,10.5852159 19.5174048,9.55403776 C19.5174048,8.52285963 20.3490885,7.68692459 21.3750223,7.68692459 C22.4009561,7.68692459 23.2326398,8.52285963 23.2326398,9.55403776 C23.2326398,10.5852159 22.4009561,11.4211509 21.3750223,11.4211509 Z" id="Combined-Shape" fill="url(#linearGradient-2)"></path>
            <path d="M18,23.0097361 C18,22.4520742 18.4422963,22 18.994385,22 L95.6523243,22 C96.201508,22 96.6467093,22.4425293 96.6467093,23.0097361 L96.6467093,55.9902639 C96.6467093,56.5479258 96.204413,57 95.6523243,57 L18.994385,57 C18.4452013,57 18,56.5574707 18,55.9902639 L18,23.0097361 Z M74.9406934,55.2399998 L94.6645975,55.2399998 L94.6645966,48.0116768 C93.1422137,47.7309953 75.1621601,47.7955636 74.3642578,47.1711132 C73.4744542,46.4746285 70.0730027,45 68.549527,45 C67.02625,45 66.3234284,45.5500073 65.4336248,46.2462626 C64.4285719,47.0326755 63.1777203,48.0116769 60.8526662,48.0116769 C58.528407,48.0116769 57.277754,47.0329049 56.273198,46.2463773 C55.3833944,45.5498926 54.6807714,45 53.1572957,45 C51.6337206,45 50.9310977,45.550122 50.0413934,46.2466067 C49.036738,47.0330196 47.7864825,48.0117916 45.4629187,48.0117916 C43.1386595,48.0117916 41.8884039,47.0333637 40.8836492,46.2469508 C40.4839529,45.9340374 40.1263822,45.6547323 39.7198306,45.4400058 L20,45.4519351 L20,55.2399998 L74.9406934,55.2399998 Z M50.9166667,42.6888468 C50.9166667,42.7782216 50.9186725,42.8673934 50.9220825,42.956362 C51.5706774,42.7422686 52.3387212,42.5999797 53.2853869,42.5999797 C55.6317418,42.5999797 56.8940296,43.4666114 57.9082928,44.1630245 C58.806517,44.7797112 59.5157892,45.2666012 61.0536821,45.2666012 C62.3984108,45.2666012 63.1099897,44.8945783 63.8677034,44.3891024 C64.0109218,43.8374156 64.0833333,43.2676507 64.0833333,42.6888468 C64.0833333,39.0128984 61.1300051,36.0221914 57.5,36.0221914 C53.8699949,36.0221914 50.9166667,39.0128984 50.9166667,42.6888468 Z M75.3876953,45.7504959 L94.6645966,45.7504959 L94.6645975,24.3040776 L20,24 L20,44.1727407 C21.1675109,44.4802715 40.1767252,43.7079915 40.8540039,44.1727409 C41.7520275,44.7893261 43.8131021,45.7504955 45.3507945,45.7504955 C46.7506843,45.7504955 47.4641688,45.3459726 48.2584894,44.8081998 C48.1646152,44.2703256 48.1157725,43.7237169 48.1157725,43.172741 C48.1157725,38.0263727 52.2503517,33.8394641 57.332399,33.8394641 C62.4144463,33.8394641 66.5490256,38.0263727 66.5490256,43.172741 C66.5490256,43.236116 66.546418,43.2991862 66.5451141,43.3625611 C67.1391496,43.1927488 67.8290652,43.0837724 68.6556802,43.0837724 C71.0019348,43.0837724 72.2643229,43.9504041 73.2785861,44.6468172 C73.8727219,45.0546917 74.6645827,45.5594571 75.3876953,45.7504959 Z" id="Shape" fill="url(#linearGradient-3)"></path>
            <path d="M62.1255753,27.0625744 C62.7899595,27.2799033 63.1536123,27.9982233 62.9377717,28.6669873 L62.4686076,30.1200168 C62.2947788,30.6578597 61.7989237,31 61.2656819,31 C61.1359849,31 61.0042643,30.9797315 60.8743745,30.9373519 C60.2099903,30.720023 59.8463375,30.0018969 60.0622745,29.3329389 L60.5314386,27.8799095 C60.7474719,27.2111455 61.4607093,26.8455364 62.1255753,27.0625744 Z M45.119978,36.531249 C45.788615,36.7472093 46.1545956,37.4609095 45.9373734,38.1255583 C45.762432,38.6600143 45.2634028,39 44.7267477,39 C44.5962205,39 44.4636568,38.9798591 44.3329356,38.9377464 L42.8799715,38.4685314 C42.2113345,38.2525711 41.8453539,37.5389674 42.0626731,36.8742221 C42.2800892,36.2096696 42.997989,35.8467484 43.6670139,36.0620341 L45.119978,36.531249 Z M71.8577404,34.8586704 C72.1844082,35.6320018 71.9294068,36.5783152 71.288181,36.9722833 L69.8948548,37.8283348 C69.7053657,37.9448133 69.5034689,38 69.3044506,38 C68.8299832,38 68.3723902,37.6863579 68.1423033,37.1414346 C67.8155362,36.3681032 68.0706369,35.4217898 68.7118627,35.0278217 L70.1051888,34.1717702 C70.7464146,33.777443 71.5311718,34.0850996 71.8577404,34.8586704 Z M53.8284214,30.1052051 C54.2224138,30.7463982 53.9148579,31.5310159 53.1414788,31.8576671 C52.9130566,31.954243 52.6694302,32 52.4293954,32 C51.8569033,32 51.3052422,31.7400488 51.0277356,31.2881368 L50.1716312,29.8948819 C49.7775192,29.2536889 50.0851948,28.4690711 50.8585739,28.14242 C51.631953,27.8154711 52.5784445,28.0705587 52.9723171,28.7119503 L53.8284214,30.1052051 Z" id="Combined-Shape" fill="url(#linearGradient-4)"></path>
            <path d="M70.8001809,67.2638313 C71.2824809,67.6299401 71.2824809,68.3865802 70.8001809,68.752689 L66.8775043,71.730062 C66.4766213,72.0343158 65.8908021,71.9492936 65.5903936,71.5439263 C65.2858128,71.1329669 65.3682447,70.5495665 65.7743149,70.2413184 L68.716266,68.0082601 L65.7743149,65.7752018 C65.3681319,65.4669537 65.2858128,64.8836676 65.5903936,64.472594 C65.8949745,64.0615205 66.4710957,63.9782102 66.8775043,64.2864583 L70.8001809,67.2638313 Z M49.2256851,70.2412043 C49.5949936,70.5216062 49.7013319,71.054678 49.4664404,71.4574205 C49.1919681,71.9282949 48.5552915,72.0583959 48.1224957,71.7298338 L44.1998191,68.7524607 C43.7174064,68.3863519 43.7174064,67.6297119 44.1998191,67.2637172 L48.1224957,64.2863441 C48.5286787,63.9782102 49.1049128,64.0614063 49.4096064,64.4724799 C49.7141872,64.8834393 49.6317553,65.4668396 49.2256851,65.7750877 L46.283734,68.008146 L49.2256851,70.2412043 Z" id="Combined-Shape" fill="url(#linearGradient-5)"></path>
        </g>
    </g>
</svg>