<?xml version="1.0" encoding="UTF-8"?>
<svg width="635px" height="515px" viewBox="0 0 635 515" version="1.1" xmlns="http://www.w3.org/2000/svg" xmlns:xlink="http://www.w3.org/1999/xlink">
    <!-- Generator: Sketch 3.8.1 (29687) - http://www.bohemiancoding.com/sketch -->
    <title>play-button (1)</title>
    <desc>Created with Sketch.</desc>
    <defs></defs>
    <g id="Page-1" stroke="none" stroke-width="1" fill="none" fill-rule="evenodd">
        <g id="play-button-(1)" fill="#00BFA5">
            <path d="M540.373677,190.408438 L396.787414,92.5087132 C394.783733,91.1511704 392.19918,91.0010575 390.05844,92.1301676 C387.924226,93.2592778 386.586263,95.4783382 386.586263,97.8997247 L386.586263,293.699174 C386.586263,296.120561 387.924226,298.339621 390.064966,299.468731 C391.017857,299.97781 392.068648,300.225822 393.112911,300.225822 C394.398661,300.225822 395.684411,299.84075 396.787414,299.090186 L540.373677,201.190461 C542.155452,199.976504 543.225822,197.95977 543.225822,195.799449 C543.225822,193.639129 542.155452,191.622395 540.373677,190.408438 L540.373677,190.408438 Z M399.63956,281.344229 L399.63956,110.25467 L525.114373,195.799449 L399.63956,281.344229 L399.63956,281.344229 Z" id="Shape"></path>
            <path d="M438.799449,0 C330.835633,0 243,87.835633 243,195.799449 C243,303.763266 330.835633,391.598899 438.799449,391.598899 C546.763266,391.598899 634.598899,303.763266 634.598899,195.799449 C634.598899,87.835633 546.763266,0 438.799449,0 L438.799449,0 Z M438.799449,378.545602 C338.034526,378.545602 256.053297,296.564373 256.053297,195.799449 C256.053297,95.0345261 338.034526,13.0532966 438.799449,13.0532966 C539.564373,13.0532966 621.545602,95.0345261 621.545602,195.799449 C621.545602,296.564373 539.564373,378.545602 438.799449,378.545602 L438.799449,378.545602 Z" id="Shape"></path>
            <path d="M307.756075,441.515082 C308.050975,427.126594 305.645009,412.576598 304.135795,398.277107 C303.41923,391.481322 305.177297,374.579245 297.212906,370.390537 C290.538776,366.884156 282.188958,374.407747 277.078143,377.496653 C263.227159,385.862652 249.192984,393.958615 235.603546,402.757261 C232.623987,404.685091 235.587182,409.76321 238.763225,408.133332 C248.376504,403.208705 257.812126,397.959576 267.323984,392.847226 C269.25706,391.806433 281.374584,384.402836 287.6376,381.459458 C252.257217,434.722631 203.071856,493.340339 134.94267,502.416487 C62.6812433,512.037693 -4.87017625,429.889529 9.46112182,361.38334 C10.1603359,358.031221 4.48029131,356.534764 3.55415746,359.888496 C-15.1203926,427.318679 42.6347497,503.333943 110.361814,513.362159 C147.533979,518.868501 182.986096,500.580466 212.815661,480.314148 C244.412679,458.853587 277.662527,428.754477 293.523192,392.764305 C293.761099,399.163259 293.615433,406.031782 293.817271,408.284744 C294.804655,419.381302 295.193262,430.787044 297.55036,441.68121 C298.701211,447.004036 307.627918,447.707014 307.756075,441.515082" id="Fill-97"></path>
        </g>
    </g>
</svg>