<?xml version="1.0" encoding="UTF-8"?>
<svg width="116px" height="96px" viewBox="0 0 116 96" version="1.1" xmlns="http://www.w3.org/2000/svg" xmlns:xlink="http://www.w3.org/1999/xlink">
    <!-- Generator: Sketch 43.1 (39012) - http://www.bohemiancoding.com/sketch -->
    <title>Porfolio</title>
    <desc>Created with Sketch.</desc>
    <defs>
        <linearGradient x1="84.179254%" y1="90.0597288%" x2="19.0796827%" y2="0%" id="linearGradient-1">
            <stop stop-color="#CF85E6" offset="0%"></stop>
            <stop stop-color="#F06899" offset="100%"></stop>
        </linearGradient>
        <linearGradient x1="53.1570299%" y1="90.0597288%" x2="47.1439878%" y2="0%" id="linearGradient-2">
            <stop stop-color="#CF85E6" offset="0%"></stop>
            <stop stop-color="#F06899" offset="100%"></stop>
        </linearGradient>
        <linearGradient x1="97.0904251%" y1="90.0597288%" x2="7.39957101%" y2="0%" id="linearGradient-3">
            <stop stop-color="#CF85E6" offset="0%"></stop>
            <stop stop-color="#F06899" offset="100%"></stop>
        </linearGradient>
        <linearGradient x1="53.1515012%" y1="90.0597288%" x2="47.1489894%" y2="0%" id="linearGradient-4">
            <stop stop-color="#CF85E6" offset="0%"></stop>
            <stop stop-color="#F06899" offset="100%"></stop>
        </linearGradient>
    </defs>
    <g id="Page-1" stroke="none" stroke-width="1" fill="none" fill-rule="evenodd">
        <g id="Porfolio" fill-rule="nonzero">
            <path d="M108.27228,0.591345619 L7.96327333,0.591345619 C3.86535812,0.591345619 0.532803181,3.94093567 0.532803181,8.0597983 L0.532803181,75.2746962 C0.532803181,79.3935588 3.86535812,82.7431489 7.96327333,82.7431489 L41.3996088,82.7431489 L41.3996088,92.0787148 L28.3966762,92.0787148 L28.3966762,95.8129411 L41.3996088,95.8129411 L74.8359443,95.8129411 L87.838877,95.8129411 L87.838877,92.0787148 L74.8359443,92.0787148 L74.8359443,82.7431489 L108.27228,82.7431489 C112.370195,82.7431489 115.70275,79.3935588 115.70275,75.2746962 L115.70275,8.0597983 C115.70275,3.94093567 112.370195,0.591345619 108.27228,0.591345619 L108.27228,0.591345619 Z M71.1207093,92.0783227 L45.1144538,92.0783227 L45.1144538,82.7427568 L71.1207093,82.7427568 L71.1207093,92.0783227 L71.1207093,92.0783227 Z M111.987515,75.2746962 C111.987515,77.3339315 110.321432,79.0089226 108.27228,79.0089226 L74.8359443,79.0089226 L41.3996088,79.0089226 L7.96327333,79.0089226 C5.91451077,79.0089226 4.24803826,77.3343236 4.24803826,75.2746962 L4.24803826,8.0597983 C4.24803826,6.00056303 5.91412068,4.32557196 7.96327333,4.32557196 L108.27228,4.32557196 C110.321042,4.32557196 111.987515,6.00017094 111.987515,8.0597983 L111.987515,75.2746962 L111.987515,75.2746962 Z" id="Shape" fill="url(#linearGradient-1)"></path>
            <path d="M10.2293171,11.4211509 C9.20338323,11.4211509 8.37169953,10.5852159 8.37169953,9.55403776 C8.37169953,8.52285963 9.20338323,7.68692459 10.2293171,7.68692459 C11.2552509,7.68692459 12.0869346,8.52285963 12.0869346,9.55403776 C12.0869346,10.5852159 11.2552509,11.4211509 10.2293171,11.4211509 Z M15.8021697,11.4211509 C14.7762358,11.4211509 13.9445521,10.5852159 13.9445521,9.55403776 C13.9445521,8.52285963 14.7762358,7.68692459 15.8021697,7.68692459 C16.8281035,7.68692459 17.6597872,8.52285963 17.6597872,9.55403776 C17.6597872,10.5852159 16.8281035,11.4211509 15.8021697,11.4211509 Z M21.3750223,11.4211509 C20.3490885,11.4211509 19.5174048,10.5852159 19.5174048,9.55403776 C19.5174048,8.52285963 20.3490885,7.68692459 21.3750223,7.68692459 C22.4009561,7.68692459 23.2326398,8.52285963 23.2326398,9.55403776 C23.2326398,10.5852159 22.4009561,11.4211509 21.3750223,11.4211509 Z" id="Combined-Shape" fill="url(#linearGradient-2)"></path>
            <path d="M58.9752907,19.359375 C48.1753071,19.359375 39.3846228,27.8904545 39.3846228,38.3714949 C39.3846228,43.36827 41.3939221,47.9329515 44.6590334,51.3232246 C44.7275323,51.4118592 44.8074476,51.5004938 44.8987793,51.5669698 C48.460719,55.1455914 53.4611342,57.3836149 58.9752907,57.3836149 C69.7752743,57.3836149 78.5659586,48.8525354 78.5659586,38.3714949 C78.5659586,27.8904545 69.7752743,19.359375 58.9752907,19.359375 L58.9752907,19.359375 Z M47.5359846,51.2235107 C52.8560611,49.5394535 54.7283627,47.4897786 55.3791017,46.1602597 C56.3609184,46.5923533 57.4568998,46.8139398 58.6898789,46.8360984 L58.7697942,46.8360984 L58.8154601,46.8360984 L58.861126,46.8360984 L58.9410413,46.8360984 C60.2653522,46.8139398 61.4526654,46.548036 62.4915644,46.0494664 C63.0966375,47.367906 64.9232732,49.4951362 70.4031803,51.2235107 C67.332149,53.7939139 63.3363834,55.3671779 58.9638742,55.3671779 C54.6027815,55.3671779 50.6070159,53.8049932 47.5359846,51.2235107 L47.5359846,51.2235107 Z M58.8497095,44.8307408 L58.8154601,44.8307408 L58.8154601,44.8307408 L58.7812107,44.8307408 C56.9659914,44.8085822 55.5845982,44.254616 54.5571156,43.1245249 C51.9541597,40.288218 52.5249834,34.8815079 52.5249834,34.8261113 L52.5249834,34.7596353 C52.7989787,28.8875936 57.2742362,28.4333413 58.644213,28.4333413 L58.7812107,28.4333413 L58.861126,28.4333413 L58.9981236,28.4333413 C60.3566839,28.4333413 64.8319414,28.8875936 65.1173532,34.7596353 L65.1173532,34.8261113 C65.1287697,34.8815079 65.6881769,40.2771386 63.085221,43.1245249 C62.046322,44.254616 60.6649287,44.8085822 58.8497095,44.8307408 L58.8497095,44.8307408 Z M72.0814018,49.6280881 C64.5236966,47.5008579 64.2725342,44.8972167 64.2725342,44.8750581 L64.2725342,44.9304547 L64.1583695,44.9304547 C64.3182001,44.7864235 64.4780307,44.631313 64.6264449,44.4651231 C67.743142,41.0526913 67.2294008,35.2028083 67.1723184,34.6488421 C66.8754901,28.5773725 62.5828962,26.4169044 58.9867072,26.4169044 L58.8040436,26.4169044 L58.62138,26.4169044 C55.0366075,26.4169044 50.7440136,28.5662932 50.4357688,34.6377627 C50.3786864,35.1806496 49.8535287,41.041612 52.9816423,44.4540438 C53.1757224,44.6645509 53.3926353,44.8639788 53.5981319,45.0523273 C53.4268848,45.6062935 52.3080704,47.7889203 45.8463466,49.6170088 C43.1063931,46.614512 41.439588,42.6813519 41.439588,38.3604156 C41.439588,28.9873075 49.2941215,21.3536533 58.9638742,21.3536533 C68.633627,21.3536533 76.4881605,28.9762282 76.4881605,38.3604156 C76.4995769,42.6813519 74.8213554,46.6255913 72.0814018,49.6280881 L72.0814018,49.6280881 Z" id="Shape" fill="url(#linearGradient-3)"></path>
            <path d="M74.3875294,62.8621585 C74.3875294,63.4161247 73.919454,63.870377 73.3486303,63.870377 L44.601951,63.870377 C44.0311274,63.870377 43.563052,63.4161247 43.563052,62.8621585 C43.563052,62.3081923 44.0311274,61.85394 44.601951,61.85394 L73.3486303,61.85394 C73.919454,61.85394 74.3875294,62.3081923 74.3875294,62.8621585 Z M69.3300318,68.5844473 C69.3300318,69.1384135 68.8619564,69.5815865 68.3025492,69.5926658 L49.6594486,69.5926658 C49.088625,69.5926658 48.6205496,69.1384135 48.6205496,68.5844473 C48.6205496,68.0304811 49.088625,67.5762289 49.6594486,67.5762289 L68.2911328,67.5762289 C68.8619564,67.5762289 69.3300318,68.0304811 69.3300318,68.5844473 Z" id="Combined-Shape" fill="url(#linearGradient-4)"></path>
        </g>
    </g>
</svg>